<?xml version="1.0" encoding="UTF-8" standalone="no"?>
<!-- Created with Inkscape (http://www.inkscape.org/) -->
<svg
   xmlns:dc="http://purl.org/dc/elements/1.1/"
   xmlns:cc="http://web.resource.org/cc/"
   xmlns:rdf="http://www.w3.org/1999/02/22-rdf-syntax-ns#"
   xmlns:svg="http://www.w3.org/2000/svg"
   xmlns="http://www.w3.org/2000/svg"
   xmlns:sodipodi="http://sodipodi.sourceforge.net/DTD/sodipodi-0.dtd"
   xmlns:inkscape="http://www.inkscape.org/namespaces/inkscape"
   width="32"
   height="37"
   id="svg26874"
   sodipodi:version="0.32"
   inkscape:version="0.44.1"
   version="1.0"
   sodipodi:docbase="/home/adam/workspace/Escape-j2se/src/org/spacebar/escape/j2se/resources/animation"
   sodipodi:docname="bomb_still.svg">
  <defs
     id="defs26876" />
  <sodipodi:namedview
     id="base"
     pagecolor="#ffffff"
     bordercolor="#666666"
     borderopacity="1.0"
     inkscape:pageopacity="0.0"
     inkscape:pageshadow="2"
     inkscape:zoom="11.197802"
     inkscape:cx="16"
     inkscape:cy="19.57213"
     inkscape:current-layer="layer1"
     showgrid="true"
     inkscape:grid-bbox="true"
     inkscape:document-units="px"
     inkscape:window-width="906"
     inkscape:window-height="741"
     inkscape:window-x="5"
     inkscape:window-y="49" />
  <metadata
     id="metadata26879">
    <rdf:RDF>
      <cc:Work
         rdf:about="">
        <dc:format>image/svg+xml</dc:format>
        <dc:type
           rdf:resource="http://purl.org/dc/dcmitype/StillImage" />
      </cc:Work>
    </rdf:RDF>
  </metadata>
  <g
     id="layer1"
     inkscape:label="Layer 1"
     inkscape:groupmode="layer"
     transform="translate(0,5)">
    <g
       id="g27291">
      <path
         style="fill:#fefefe"
         d="M 0,13.5 L 0,-5 L 16,-5 L 32,-5 L 32,13.5 L 32,32 L 16,32 L 0,32 L 0,13.5 z "
         id="path27313" />
      <path
         style="fill:#cacaca"
         d="M 7.2087199,30.761086 C 5.846063,30.104787 5.1382118,29.082209 5.4621715,28.237984 C 5.7617739,27.457232 5.10535,25.552321 4.0034516,24.004847 C 2.5727545,21.995619 2,19.591559 2,15.59563 C 2,10.385148 2.2799983,9.720002 6.0679614,5.932039 C 9.9294575,2.0705425 10.424309,1.8716832 15.817961,2.0139385 C 24.116002,2.2327958 25.184769,2.1079791 24.5,1 C 23.675141,-0.3346492 17.308966,-0.2669258 11.207753,1.141403 C 5.0877664,2.5540653 1,1.6980738 1,-0.9961333 C 1,-2.5987583 1.6806671,-2.9473423 4.75,-2.9165875 C 6.8125,-2.8959212 12.565564,-3.1816437 17.534587,-3.5515264 C 29.256547,-4.4240824 29.307148,-4.3670345 29.713418,10.178889 C 29.984374,19.880119 29.785049,21.49313 28.006649,23.990662 C 26.899195,25.545937 26.254552,27.499776 26.574108,28.332526 C 26.924531,29.245713 26.356681,30.273926 25.143301,30.923308 C 22.553574,32.309288 10.191039,32.197466 7.2087199,30.761086 z M 8.9274199,12.365141 C 11.189682,9.489141 11.555586,8 10,8 C 8.4662879,8 5,11.812917 5,13.5 C 5,15.770579 6.6160122,15.30362 8.9274199,12.365141 z M 14.447214,5.91459 C 14.125238,5.393622 13.435557,5.230811 12.91459,5.552786 C 12.393622,5.874762 12.230811,6.564443 12.552786,7.08541 C 12.874762,7.606378 13.564443,7.769189 14.08541,7.447214 C 14.606378,7.125238 14.769189,6.435557 14.447214,5.91459 z "
         id="path27311" />
      <path
         style="fill:#ded783"
         d="M 6.1311207,29.657991 C 5.5185478,28.919886 5.2626969,28.070636 5.5625629,27.77077 C 5.862429,27.470904 5.185207,25.712309 4.057625,23.86278 C 1.4014518,19.505962 1.3577034,12.565663 3.9595155,8.298549 C 6.5557207,4.0406298 11.10002,1.824393 16.834986,2.0192322 C 24.349363,2.2745251 26.156338,2.0619775 25.5,1 C 24.668678,-0.3451072 15.950186,-0.2680557 10.383733,1.1335932 C 7.0128144,1.9824004 5.2488761,1.9787951 3.3623634,1.1192424 C -2.5369933,-1.5686844 2.5967423,-3.0022211 19.386159,-3.3552185 C 25.687529,-3.4877048 26.434765,-3.2830939 28.185198,-0.9458351 C 29.792908,1.200853 29.947468,2.2786447 29.154019,5.810029 C 28.60122,8.270357 28.580896,10.240979 29.10498,10.564881 C 30.810139,11.618727 30.061747,20.38646 27.9744,23.810118 C 26.864432,25.630684 26.248766,27.593495 26.606254,28.171922 C 27.808007,30.1164 24.55333,30.96928 15.872445,30.984687 C 9.8591841,30.99536 6.9073987,30.593349 6.1311207,29.657991 z M 8.9274199,12.365141 C 11.189682,9.489141 11.555586,8 10,8 C 8.4662879,8 5,11.812917 5,13.5 C 5,15.770579 6.6160122,15.30362 8.9274199,12.365141 z M 14.447214,5.91459 C 14.125238,5.393622 13.435557,5.230811 12.91459,5.552786 C 12.393622,5.874762 12.230811,6.564443 12.552786,7.08541 C 12.874762,7.606378 13.564443,7.769189 14.08541,7.447214 C 14.606378,7.125238 14.769189,6.435557 14.447214,5.91459 z "
         id="path27309" />
      <path
         style="fill:#b4af6a"
         d="M 6.1311207,29.657991 C 5.5185478,28.919886 5.2626969,28.070636 5.5625629,27.77077 C 5.862429,27.470904 5.185207,25.712309 4.057625,23.86278 C 1.4014518,19.505962 1.3577034,12.565663 3.9595155,8.298549 C 6.5557207,4.0406298 11.10002,1.824393 16.834986,2.0192322 C 24.349363,2.2745251 26.156338,2.0619775 25.5,1 C 24.668678,-0.3451072 15.950186,-0.2680557 10.383733,1.1335932 C 7.0128144,1.9824004 5.2488761,1.9787951 3.3623634,1.1192424 C -2.5369933,-1.5686844 2.5967423,-3.0022211 19.386159,-3.3552185 C 25.687529,-3.4877048 26.434765,-3.2830939 28.185198,-0.9458351 C 29.792908,1.200853 29.947468,2.2786447 29.154019,5.810029 C 28.60122,8.270357 28.580896,10.240979 29.10498,10.564881 C 30.810139,11.618727 30.061747,20.38646 27.9744,23.810118 C 26.864432,25.630684 26.248766,27.593495 26.606254,28.171922 C 27.808007,30.1164 24.55333,30.96928 15.872445,30.984687 C 9.8591841,30.99536 6.9073987,30.593349 6.1311207,29.657991 z M 8.9274199,12.365141 C 11.189682,9.489141 11.555586,8 10,8 C 8.4662879,8 5,11.812917 5,13.5 C 5,15.770579 6.6160122,15.30362 8.9274199,12.365141 z M 14.447214,5.91459 C 14.125238,5.393622 13.435557,5.230811 12.91459,5.552786 C 12.393622,5.874762 12.230811,6.564443 12.552786,7.08541 C 12.874762,7.606378 13.564443,7.769189 14.08541,7.447214 C 14.606378,7.125238 14.769189,6.435557 14.447214,5.91459 z M 28.526461,3.1931281 C 28.218574,2.885241 27.411667,3.1924939 26.733333,3.8759123 C 25.753066,4.8635281 25.86793,4.9783917 27.293128,4.4357071 C 28.279349,4.0601757 28.834349,3.5010152 28.526461,3.1931281 z M 27.767927,0 C 26.301566,-2.3480175 26.864342,-2.1610471 20.238509,-2.5014906 C 17.34469,-2.6501786 14.772118,-2.440297 14.521685,-2.0350869 C 14.271251,-1.6298768 16.585154,-1.3560636 19.663691,-1.4266131 C 24.036741,-1.5268284 25.503825,-1.1661099 26.371062,0.2225576 C 26.98158,1.2001509 27.826661,2 28.249021,2 C 28.671381,2 28.454888,1.1 27.767927,0 z M 10.594701,-0.4110201 C 11.335777,-0.5197869 12.235349,-0.9020155 12.59375,-1.260417 C 12.952152,-1.6188185 11.952677,-1.6543726 10.372695,-1.3394261 C 8.7927126,-1.0244797 6.9375,-0.7442671 6.25,-0.7167314 C 5.5625,-0.6891958 5,-0.2613422 5,0.2340543 C 5,0.7294509 5.9556403,0.8314669 7.1236451,0.4607566 C 8.2916499,0.0900462 9.853625,-0.3022533 10.594701,-0.4110201 z M 4,-1 C 4,-1.55 3.55,-2 3,-2 C 2.45,-2 2,-1.55 2,-1 C 2,-0.45 2.45,0 3,0 C 3.55,0 4,-0.45 4,-1 z "
         id="path27307" />
      <path
         style="fill:#979797"
         d="M 6.1311207,29.657991 C 5.5185478,28.919886 5.2626969,28.070636 5.5625629,27.77077 C 5.862429,27.470904 5.185207,25.712309 4.057625,23.86278 C 1.4014518,19.505962 1.3577034,12.565663 3.9595155,8.298549 C 6.5557207,4.0406298 11.10002,1.824393 16.834986,2.0192322 C 24.349363,2.2745251 26.156338,2.0619775 25.5,1 C 24.668678,-0.3451072 15.950186,-0.2680557 10.383733,1.1335932 C 7.0128144,1.9824004 5.2488761,1.9787951 3.3623634,1.1192424 C -2.5369933,-1.5686844 2.5967423,-3.0022211 19.386159,-3.3552185 C 25.687529,-3.4877048 26.434765,-3.2830939 28.185198,-0.9458351 C 29.792908,1.200853 29.947468,2.2786447 29.154019,5.810029 C 28.60122,8.270357 28.580896,10.240979 29.10498,10.564881 C 30.810139,11.618727 30.061747,20.38646 27.9744,23.810118 C 26.864432,25.630684 26.248766,27.593495 26.606254,28.171922 C 27.808007,30.1164 24.55333,30.96928 15.872445,30.984687 C 9.8591841,30.99536 6.9073987,30.593349 6.1311207,29.657991 z M 8.9274199,12.365141 C 11.189682,9.489141 11.555586,8 10,8 C 8.4662879,8 5,11.812917 5,13.5 C 5,15.770579 6.6160122,15.30362 8.9274199,12.365141 z M 14.447214,5.91459 C 14.125238,5.393622 13.435557,5.230811 12.91459,5.552786 C 12.393622,5.874762 12.230811,6.564443 12.552786,7.08541 C 12.874762,7.606378 13.564443,7.769189 14.08541,7.447214 C 14.606378,7.125238 14.769189,6.435557 14.447214,5.91459 z M 28.641336,3.4922797 C 28.959548,2.6630335 28.44893,0.8079065 27.50663,-0.6302247 C 25.818673,-3.2063727 25.672983,-3.2344668 17.646679,-2.5315629 C 13.166006,-2.1391678 7.8125,-1.7684664 5.75,-1.707782 C 3.6875,-1.6470976 2,-1.2465946 2,-0.8177754 C 2,0.6575343 6.7734872,1.1565411 10.633505,0.0847466 C 12.760077,-0.5057294 16.8074,-0.9913558 19.627555,-0.9944231 C 25.081233,-1.0003547 27.492693,0.5524873 26.410264,3.3732518 C 26.059057,4.2884841 26.28393,5 26.924396,5 C 27.550501,5 28.323125,4.3215258 28.641336,3.4922797 z "
         id="path27305" />
      <path
         style="fill:#7f7f7f"
         d="M 6.8815789,29.287526 C 6.8164474,28.854387 6.823412,28.141606 6.8970558,27.703569 C 6.9706997,27.265532 5.8989892,25.423057 4.5154769,23.609178 C 2.6559588,21.171225 2,19.090317 2,15.629293 C 2,11.404244 2.4451781,10.50219 6.5620551,6.385313 C 10.90423,2.043138 11.374157,1.8334977 16.312055,2.0357076 C 24.035525,2.3519885 26.185772,2.1096027 25.5,1 C 25.160081,0.45 22.096024,-0.085088 18.690983,-0.1890845 L 12.5,-0.3781689 L 18.334373,-0.7415058 C 24.751686,-1.1411454 27.410829,0.1302318 26.45519,3.1411828 C 26.124505,4.183079 26.348118,5 26.963997,5 C 28.912013,5 29.265118,2.0535667 27.618306,-0.4597861 C 26.288447,-2.4894078 25.039709,-2.9667918 20.258355,-3.2734462 L 14.5,-3.6427609 L 20.39766,-3.5713804 C 25.515532,-3.5094379 26.546721,-3.1622882 28.196699,-0.9458351 C 29.79179,1.1968868 29.946002,2.2851692 29.154019,5.810029 C 28.60122,8.270357 28.580896,10.240979 29.10498,10.564881 C 29.597241,10.869115 30,13.1865 30,15.714626 C 30,19.084488 29.328674,21.191372 27.484523,23.609178 C 26.101011,25.423057 25.088511,27.490532 25.234523,28.203569 C 25.433503,29.175269 23.183052,29.57202 16.25,29.787526 C 11.1625,29.945665 6.9467105,29.720665 6.8815789,29.287526 z M 9.8789021,11.484341 C 11.187298,9.567953 12.874798,8 13.628902,8 C 14.383006,8 15,7.325 15,6.5 C 15,5.675 14.325,5 13.5,5 C 12.675,5 12,5.701558 12,6.559017 C 12,7.416476 11.602892,7.872608 11.117537,7.572642 C 9.8614446,6.796334 5.3436092,10.578035 4.7317021,12.917971 C 3.6032283,17.233261 6.5058441,16.424807 9.8789021,11.484341 z M 7,1 C 10.41917,-0.0950097 13.048225,-0.0950097 10.5,1 C 9.4,1.4726862 7.6,1.8462018 6.5,1.8300347 C 4.8922149,1.8064045 4.9902686,1.6436285 7,1 z M 1.4461493,-0.0871323 C 1.0766127,-0.685055 1.341072,-1.697555 2.0338367,-2.3371323 C 3.0082197,-3.2367064 3.1179761,-3.1916639 2.5185891,-2.1381966 C 2.0596918,-1.3316504 2.3056776,-0.4204864 3.1218847,0.0964906 C 4.0279506,0.6703833 4.0920495,0.9746196 3.309017,0.9846872 C 2.6539763,0.9931093 1.8156859,0.5107905 1.4461493,-0.0871323 z M 5.8125,-1.683114 C 6.534375,-1.9719846 7.396875,-1.9364583 7.7291667,-1.6041667 C 8.0614583,-1.271875 7.4708333,-1.0355263 6.4166667,-1.0789474 C 5.2517237,-1.1269313 5.0147673,-1.3638877 5.8125,-1.683114 z M 9.8125,-2.683114 C 10.534375,-2.9719846 11.396875,-2.9364583 11.729167,-2.6041667 C 12.061458,-2.271875 11.470833,-2.0355263 10.416667,-2.0789474 C 9.2517237,-2.1269313 9.0147673,-2.3638877 9.8125,-2.683114 z "
         id="path27303" />
      <path
         style="fill:#636363"
         d="M 8.8784387,28.701871 C 5.5047401,26.133416 2.0000068,19.714291 2.0037381,16.110453 C 2.008405,11.602846 4.9948503,6.581871 9.1880136,4.0318563 C 13.416138,1.4605806 27.216602,1.2719685 26.247001,3.7987096 C 25.807638,4.9436716 26.096745,5.176853 27.356378,4.6934865 C 28.746966,4.1598679 29.055503,4.6332376 29.03564,7.269878 C 29.022256,9.046445 29.275468,12.354197 29.598332,14.620437 C 30.262443,19.281934 28.767589,22.959683 24.456488,27.270785 C 22.121273,29.606 20.916867,29.995409 16.113636,29.968197 C 13.026136,29.950705 9.7702974,29.380858 8.8784387,28.701871 z M 9.8789021,11.484341 C 11.187298,9.567953 12.874798,8 13.628902,8 C 14.383006,8 15,7.325 15,6.5 C 15,5.675 14.325,5 13.5,5 C 12.675,5 12,5.701558 12,6.559017 C 12,7.416476 11.602892,7.872608 11.117537,7.572642 C 9.8614446,6.796334 5.3436092,10.578035 4.7317021,12.917971 C 3.6032283,17.233261 6.5058441,16.424807 9.8789021,11.484341 z "
         id="path27301" />
      <path
         style="fill:#323232"
         d="M 8.2301785,27.40092 C 1.9418324,22.445161 0.28223289,15.329625 3.994598,9.24086 C 7.2231349,3.9456369 11.374179,2.0313025 19.310031,2.1778507 C 25.947472,2.3004217 26.160053,2.3824065 25.726133,4.652311 C 25.479299,5.94354 25.664941,7 26.138672,7 C 26.612402,7 27,6.55 27,6 C 27,5.45 27.457148,5 28.015884,5 C 28.574621,5 29.031179,6.2375 29.030457,7.75 C 29.029735,9.2625 29.266863,12.525 29.557407,15 C 30.889564,26.347973 17.081703,34.376685 8.2301785,27.40092 z M 9.4111064,12.923275 C 10.834998,11.231076 12,9.356076 12,8.756608 C 12,8.15714 12.296096,7.962762 12.657991,8.324657 C 13.019886,8.686552 13.925435,8.476847 14.670322,7.858645 C 15.652118,7.043827 15.729557,6.379063 14.951845,5.441977 C 14.09785,4.4129759 12.9735,4.7604441 9.4395137,7.145502 C 6.9977812,8.793408 4.9938554,10.447313 4.9863453,10.820847 C 4.9788352,11.194381 4.7013511,12.5125 4.369714,13.75 C 3.4732607,17.095104 6.2893215,16.633305 9.4111064,12.923275 z M 22,5.881966 C 22,5.331966 21.55,5.160081 21,5.5 C 20.45,5.839919 20,6.568034 20,7.118034 C 20,7.668034 20.45,7.839919 21,7.5 C 21.55,7.160081 22,6.431966 22,5.881966 z "
         id="path27299" />
      <path
         style="fill:#2a2a2a"
         d="M 9.24086,28.005402 C -0.1792641,22.261882 -0.19358538,9.737147 9.21343,4.0163997 C 13.756431,1.2536356 26,1.3515868 26,4.1506959 C 26,5.167813 25.4375,6.006891 24.75,6.015313 C 23.916667,6.025521 24,6.35375 25,7 C 27.195958,8.419137 28.294898,8.210876 27.638374,6.5 C 27.321791,5.675 27.505794,5 28.047269,5 C 28.588744,5 29.031179,6.2375 29.030457,7.75 C 29.029735,9.2625 29.266863,12.525 29.557407,15 C 30.827693,25.82093 18.549279,33.680814 9.24086,28.005402 z M 17.916667,28.640676 C 17.6875,28.443048 16.15,27.979379 14.5,27.6103 C 12.309084,27.120226 11.904542,27.213004 13,27.95431 C 14.35037,28.868118 18.920153,29.506059 17.916667,28.640676 z M 10.577193,26.124902 C 10.279731,25.643598 11.940674,24.948057 14.268176,24.579257 C 17.471716,24.071645 19.654195,22.774741 23.25,19.241947 C 26.909078,15.646989 28,15.006747 28,16.454259 C 28,17.48775 28.279043,18.05429 28.620096,17.713237 C 28.961149,17.372184 28.963026,15.988822 28.624268,14.639099 C 28.19934,12.946051 27.464377,12.315239 26.254171,12.604864 C 22.998389,13.384034 19.536792,10.699399 18.993182,6.973617 C 18.522826,3.7499024 18.242584,3.511745 15.09785,3.6632546 C 10.767919,3.8718656 6.9910262,6.641499 4.6696306,11.310372 C 2.4572118,15.760067 3.0881564,19.762885 6.6736102,24.023955 C 8.917838,26.691068 11.928569,28.311473 10.577193,26.124902 z M 23.352307,9.238972 C 23.610995,8.820406 23.230753,7.668478 22.507325,6.679131 C 21.037768,4.6693919 19.651915,5.929331 20.603744,8.409758 C 21.252347,10.099989 22.573782,10.498653 23.352307,9.238972 z M 24.5,4 C 24.839919,3.45 24.641476,3 24.059017,3 C 23.476558,3 23,3.45 23,4 C 23,4.55 23.198442,5 23.440983,5 C 23.683524,5 24.160081,4.55 24.5,4 z "
         id="path27297" />
      <path
         style="fill:#1c1c1c"
         d="M 9.24086,28.005402 C 2.4235622,23.848845 0.11733903,15.600072 3.994598,9.24086 C 7.2107325,3.9659784 11.380714,2.0314231 19.22257,2.1762356 C 25.440168,2.2910535 25.990418,2.4747994 25.883999,4.4006959 C 25.790678,6.089551 25.678583,6.157846 25.310674,4.75 C 24.780847,2.7225531 22.925666,2.4743336 21.2,4.2 C 18.499531,6.900469 21.194194,11.90693 24.637062,10.585778 C 26.102557,10.023415 26.015179,9.632347 23.899797,7.286074 L 21.5,4.6243424 L 24.493718,6.8978 L 27.487436,9.171257 L 28.161631,6.835629 C 28.773645,4.7154187 28.844742,4.7766947 28.932486,7.5 C 28.985648,9.15 29.266863,12.525 29.557407,15 C 30.827693,25.82093 18.549279,33.680814 9.24086,28.005402 z M 21.75914,27.005402 C 29.39416,22.350274 32.003372,10.249326 25.073237,11.635353 C 21.560531,12.337894 18.776089,9.727037 19.195002,6.123573 C 19.458745,3.8548735 19.09421,3.4632037 16.5,3.2279653 C 10.709888,2.7029282 3.0074761,9.994038 3.0074761,16 C 3.0074761,21.628629 10.371371,28.992524 16,28.992524 C 17.375,28.992524 19.966613,28.098319 21.75914,27.005402 z M 13.75,27.310674 C 10.797628,26.539139 11.798525,25.287834 15.891559,24.633331 C 18.625171,24.196209 20.698954,22.967965 22.861007,20.505523 C 25.59857,17.387611 28,16.006349 28,17.54966 C 28,19.543911 24.509982,24.139729 21.65621,25.903457 C 18.290681,27.983468 17.121113,28.191638 13.75,27.310674 z "
         id="path27295" />
      <path
         style="fill:black"
         d="M 9.24086,28.005402 C -0.1792641,22.261882 -0.19358538,9.737147 9.21343,4.0163997 C 11.704881,2.5012577 14.05485,2.0863333 19.47257,2.2049854 C 23.337657,2.2896337 25.417588,2.6258753 24.09464,2.9521891 C 22.771692,3.2785029 21.237576,4.2615871 20.685493,5.136821 C 18.711197,8.26673 22.040273,11.965995 25.601461,10.599439 C 26.96577,10.075905 26.854707,9.681061 24.851461,7.9331 L 22.5,5.881299 L 25.172069,7.504597 C 27.752178,9.072029 27.859932,9.04826 28.303055,6.813948 C 28.682915,4.8986139 28.784983,5.016797 28.895558,7.5 C 28.969031,9.15 29.266863,12.525 29.557407,15 C 30.827693,25.82093 18.549279,33.680814 9.24086,28.005402 z M 22.093882,27.451451 C 25.973553,25.445196 28.995568,20.420349 28.980949,16 C 28.96764,11.975496 27.636628,9.160897 26.565983,10.893237 C 24.422448,14.36155 18.329035,9.809473 19.400531,5.540295 C 19.994095,3.1753468 19.79177,3 16.469392,3 C 11.708822,3 7.3433615,5.388911 4.9595155,9.298549 C -1.8168289,20.412124 10.490971,33.45155 22.093882,27.451451 z M 14.25,27.337719 C 11.882521,26.382421 13.00927,25.254134 16.961942,24.622076 C 19.846875,24.160757 21.667929,23.056054 23.660968,20.558256 C 26.848099,16.563952 28.662114,16.818933 26.520578,20.960207 C 24.131652,25.579879 17.908874,28.814107 14.25,27.337719 z "
         id="path27293" />
    </g>
  </g>
</svg>
