<?xml version="1.0" encoding="UTF-8" standalone="no"?>
<!-- Created with Inkscape (http://www.inkscape.org/) -->
<svg
   xmlns:dc="http://purl.org/dc/elements/1.1/"
   xmlns:cc="http://web.resource.org/cc/"
   xmlns:rdf="http://www.w3.org/1999/02/22-rdf-syntax-ns#"
   xmlns:svg="http://www.w3.org/2000/svg"
   xmlns="http://www.w3.org/2000/svg"
   xmlns:sodipodi="http://sodipodi.sourceforge.net/DTD/sodipodi-0.dtd"
   xmlns:inkscape="http://www.inkscape.org/namespaces/inkscape"
   width="32"
   height="37"
   id="svg26874"
   sodipodi:version="0.32"
   inkscape:version="0.44.1"
   version="1.0"
   sodipodi:docbase="/home/adam/workspace/Escape-j2se/src/org/spacebar/escape/j2se/resources/animation"
   sodipodi:docname="bomb_still.svg">
  <defs
     id="defs26876">
    <pattern
       patternUnits="userSpaceOnUse"
       width="1.884058"
       height="7.819868"
       patternTransform="translate(-53.29083,13.38822)"
       id="pattern3276">
      <g
         id="g3272"
         transform="translate(53.29083,-13.38822)">
        <path
           style="fill:#beba86;fill-opacity:1;fill-rule:evenodd;stroke:#beba86;stroke-width:1px;stroke-linecap:square;stroke-linejoin:miter;stroke-opacity:1"
           d="M -52.790831,13.888225 L -52.790831,20.708093"
           id="path3268"
           transform="translate(0,-5)" />
        <path
           id="path3270"
           d="M -51.906773,8.888225 L -51.906773,15.708093"
           style="fill:none;fill-opacity:0.75;fill-rule:evenodd;stroke:#dfd884;stroke-width:1px;stroke-linecap:square;stroke-linejoin:miter;stroke-opacity:1" />
      </g>
    </pattern>
  </defs>
  <sodipodi:namedview
     id="base"
     pagecolor="#ffffff"
     bordercolor="#666666"
     borderopacity="1.0"
     inkscape:pageopacity="0.0"
     inkscape:pageshadow="2"
     inkscape:zoom="7.9180417"
     inkscape:cx="32.282278"
     inkscape:cy="1.9371999"
     inkscape:current-layer="layer1"
     showgrid="true"
     inkscape:grid-bbox="false"
     inkscape:document-units="px"
     inkscape:window-width="1040"
     inkscape:window-height="875"
     inkscape:window-x="5"
     inkscape:window-y="49"
     showguides="true"
     inkscape:guide-bbox="true" />
  <metadata
     id="metadata26879">
    <rdf:RDF>
      <cc:Work
         rdf:about="">
        <dc:format>image/svg+xml</dc:format>
        <dc:type
           rdf:resource="http://purl.org/dc/dcmitype/StillImage" />
      </cc:Work>
    </rdf:RDF>
  </metadata>
  <g
     id="layer1"
     inkscape:label="Layer 1"
     inkscape:groupmode="layer"
     transform="translate(0,5)">
    <path
       style="fill:white;fill-opacity:1;fill-rule:evenodd;stroke:none;stroke-width:1px;stroke-linecap:butt;stroke-linejoin:miter;stroke-opacity:1"
       d="M 15.164825,4.3100719 L 7.681914,7.498992 L 3.861525,13.182215 L 4.27198,18.297116 L 15.417412,14.034699 L 18.227451,4.9415411 L 15.164825,4.3100719 z "
       id="path3234" />
    <path
       sodipodi:type="arc"
       style="fill:black;fill-opacity:0.36470588;stroke:none;stroke-width:0.5;stroke-linecap:round;stroke-linejoin:round;stroke-miterlimit:4;stroke-dasharray:none;stroke-opacity:1"
       id="path3226"
       sodipodi:cx="-13.892323"
       sodipodi:cy="-10.486488"
       sodipodi:rx="11.366446"
       sodipodi:ry="2.0207016"
       d="M -2.525877 -10.486488 A 11.366446 2.0207016 0 1 1  -25.258768,-10.486488 A 11.366446 2.0207016 0 1 1  -2.525877 -10.486488 z"
       transform="translate(30.16222,40.46579)" />
    <path
       style="fill:black;fill-opacity:1;stroke:none;stroke-width:0.5;stroke-linecap:round;stroke-linejoin:round;stroke-miterlimit:4;stroke-dasharray:none;stroke-opacity:1"
       d="M 23.656865,3.5313054 C 24.471263,1.7576466 27.200535,2.2660593 28.686791,3.2056659 C 30.173047,4.1452725 29.78079,7.0873964 29.372273,7.8178608"
       id="path3223"
       sodipodi:nodetypes="czs" />
    <path
       id="path3093"
       d="M 4.121177,17.146853 C 3.844343,4.3014105 16.639568,-1.2004258 27.120914,5.1737397 C 28.367823,6.4206496 29.421944,8.2353336 29.463403,9.2063727 C 23.146402,26.418777 18.953809,31.118859 4.121177,17.146853 z M 10.388883,11.956239 C 11.697279,10.039851 13.384779,8.4718976 14.138883,8.4718976 C 14.892987,8.4718976 15.509981,7.7968976 15.509981,6.9718976 C 15.509981,6.1468976 14.834981,5.4718976 14.009981,5.4718976 C 13.184981,5.4718976 12.509981,6.1734556 12.509981,7.0309146 C 12.509981,7.8883736 12.112873,8.3445056 11.627518,8.0445396 C 10.371426,7.2682316 5.85359,11.049933 5.241683,13.389869 C 4.113209,17.705159 7.015825,16.896705 10.388883,11.956239 z "
       style="fill:#626262;fill-opacity:1"
       sodipodi:nodetypes="cccccssssssc" />
    <path
       clip-path="none"
       style="fill:#ddd791;fill-opacity:1;stroke:#7f7f7f;stroke-width:0.69999999;stroke-linecap:round;stroke-linejoin:round;stroke-miterlimit:4;stroke-dasharray:none;stroke-opacity:1"
       d="M 20.458672,-1.2841688 C 19.024458,-1.2307336 17.566492,-1.1339151 16.989922,-1.1591688 C 13.572429,-1.3088537 10.715801,-0.0841132 7.708672,0.7783312 C 6.334919,1.1723228 4.451992,0.90769501 3.396172,-0.1279188 C 2.999218,-0.516244 2.362623,-0.5092485 1.974297,-0.1122938 C 1.585972,0.2846609 1.592968,0.92125601 1.989922,1.3095812 C 3.716561,3.0031754 6.265144,3.2599088 8.271172,2.6845812 C 11.424115,1.7803174 14.018131,0.7147741 16.896172,0.8408312 C 17.777848,0.8794485 19.136602,0.7674168 20.521172,0.7158312 C 21.905742,0.6642456 23.359809,0.7311937 23.677422,0.8408312 C 24.919772,1.078075 25.307084,1.3727072 26.052422,2.3095812 C 26.885304,3.5133164 26.858441,4.1647757 26.177423,5.3095812 C 25.848071,5.5095364 25.378353,5.7519067 24.958672,6.2783312 C 24.613494,6.7098037 24.683449,7.3394033 25.114922,7.6845812 C 25.546394,8.0297592 26.175995,7.9598037 26.521173,7.5283312 C 26.607006,7.4206663 26.860358,7.258772 27.239923,7.0283312 C 27.619488,6.7978904 28.154884,6.4880099 28.489923,5.8408312 C 28.93258,4.9857731 28.845132,4.0622396 28.646173,3.2470812 C 28.447214,2.4319228 28.108887,1.703711 27.677423,1.1220812 C 27.037884,0.2599574 26.689395,-0.2189324 26.114923,-0.5029188 C 24.291509,-1.2519981 22.406389,-1.3350277 20.458672,-1.2841688 z "
       id="path3203"
       sodipodi:nodetypes="csssssssscccssssssscc" />
    <path
       id="path3091"
       d="M 9.750841,4.4704191 C 14.59041,2.4497396 24.432941,-0.0709609 26.598399,6.3851124 C 26.978273,6.8231082 26.570047,7.3010865 27.378976,7.0134776 C 29.099181,6.4018711 29.501754,6.7551846 29.517006,8.6563437 C 29.527224,9.9298987 29.774099,12.996898 30.065617,15.471898 C 27.470703,44.708233 -12.472616,24.235228 9.750841,4.4704191 z M 9.921087,13.395173 C 11.344979,11.702974 12.509981,9.8279737 12.509981,9.2285057 C 12.509981,8.6290377 12.806077,8.4346596 13.167972,8.7965547 C 13.529867,9.1584497 14.435416,8.9487447 15.180303,8.3305426 C 16.162099,7.5157246 16.239538,6.8509606 15.461826,5.9138746 C 14.607831,4.8848735 13.483481,5.2323417 9.949495,7.6173996 C 7.507762,9.2653057 5.503836,10.919211 5.496326,11.292745 C 5.488816,11.666279 5.211332,12.984398 4.879695,14.221898 C 3.983242,17.567002 6.799302,17.105203 9.921087,13.395173 z M 22.509981,6.3538636 C 22.509981,5.8038636 22.059981,5.6319786 21.509981,5.9718976 C 20.959981,6.3118166 20.509981,7.0399316 20.509981,7.5899316 C 20.509981,8.1399316 20.959981,8.3118166 21.509981,7.9718976 C 22.059981,7.6319786 22.509981,6.9038636 22.509981,6.3538636 z "
       style="fill:#323232"
       sodipodi:nodetypes="ccsscccsssssssccsssc" />
    <path
       id="path3087"
       d="M 9.750841,28.4773 C 2.933543,24.320743 0.62732,16.07197 4.504579,9.7127577 C 7.664977,4.5292904 11.982796,2.4590638 19.219676,2.6574395 C 21.740336,2.7265353 23.19317,2.8078163 23.815348,2.9764287 C 24.009466,3.0290353 26.164556,3.8726666 26.421841,4.0336085 C 26.783611,4.259909 27.286207,7.2119129 26.89421,7.167314 C 26.263141,7.0955151 26.053287,5.082009 26.018498,5.1615709 C 25.9619,5.2910078 23.381168,3.8446265 23.219676,3.9248098 C 19.030921,6.0045986 20.84263,12.709434 25.147043,11.057676 C 26.053651,10.912224 27.379566,9.6310941 26.987581,9.4405734 C 24.360052,8.1634837 21.905966,6.0901194 21.095856,4.2744193 L 22.295728,3.9898544 C 23.236905,5.8371287 25.184639,8.125663 28.091497,8.6554609 C 28.551594,8.685707 28.330439,8.6132775 28.65929,7.7848146 C 28.801892,7.4255617 26.298047,7.3494278 26.393263,7.181513 C 26.63993,6.7465111 29.824854,5.7474234 29.574091,7.9305001 C 29.54241,8.2063124 29.448466,8.1916556 29.457247,8.4718976 C 29.500332,9.8468977 29.774099,12.996898 30.065617,15.471898 C 31.340003,26.29148 19.059923,34.153117 9.750841,28.4773 z M 22.269121,27.4773 C 29.904141,22.822172 32.513353,10.721224 25.583218,12.107251 C 22.070512,12.809792 19.28607,10.198935 19.704983,6.5954706 C 19.968726,4.3267711 19.604191,3.9351013 17.009981,3.6998629 C 11.219869,3.1748258 3.517457,10.465936 3.517457,16.471898 C 3.517457,22.100527 10.881352,29.464422 16.509981,29.464422 C 17.884981,29.464422 20.476594,28.570217 22.269121,27.4773 z M 14.259981,27.782572 C 11.307609,27.011037 12.308506,25.759732 16.40154,25.105229 C 19.135152,24.668107 21.208935,23.439863 23.370988,20.977421 C 26.108551,17.859509 28.509981,16.478247 28.509981,18.021558 C 28.509981,20.015809 25.019963,24.611627 22.166191,26.375355 C 18.800662,28.455366 17.631094,28.663536 14.259981,27.782572 z "
       style="fill:#1c1c1c"
       sodipodi:nodetypes="cssssssscscccsssssccsssssccssssc" />
  </g>
</svg>
