<?xml version="1.0" encoding="UTF-8" standalone="no"?>
<!-- Created with Inkscape (http://www.inkscape.org/) -->
<svg
   xmlns:dc="http://purl.org/dc/elements/1.1/"
   xmlns:cc="http://web.resource.org/cc/"
   xmlns:rdf="http://www.w3.org/1999/02/22-rdf-syntax-ns#"
   xmlns:svg="http://www.w3.org/2000/svg"
   xmlns="http://www.w3.org/2000/svg"
   xmlns:sodipodi="http://inkscape.sourceforge.net/DTD/sodipodi-0.dtd"
   xmlns:inkscape="http://www.inkscape.org/namespaces/inkscape"
   width="32"
   height="42"
   id="svg11662"
   sodipodi:version="0.32"
   inkscape:version="0.43"
   version="1.0"
   sodipodi:docbase="/home/adam/workspace/Escape-j2se/src/org/spacebar/escape/j2se/resources/animation"
   sodipodi:docname="dalek_forward_0.svg">
  <defs
     id="defs11664" />
  <sodipodi:namedview
     id="base"
     pagecolor="#ffffff"
     bordercolor="#666666"
     borderopacity="1.0"
     inkscape:pageopacity="0.0"
     inkscape:pageshadow="2"
     inkscape:zoom="7.919596"
     inkscape:cx="-0.79716867"
     inkscape:cy="31.126311"
     inkscape:document-units="px"
     inkscape:current-layer="layer1"
     inkscape:window-width="792"
     inkscape:window-height="747"
     inkscape:window-x="133"
     inkscape:window-y="65" />
  <metadata
     id="metadata11667">
    <rdf:RDF>
      <cc:Work
         rdf:about="">
        <dc:format>image/svg+xml</dc:format>
        <dc:type
           rdf:resource="http://purl.org/dc/dcmitype/StillImage" />
      </cc:Work>
    </rdf:RDF>
  </metadata>
  <g
     inkscape:label="Layer 1"
     inkscape:groupmode="layer"
     id="layer1">
    <path
       sodipodi:nodetypes="ccccccccccccccccccccc"
       style="fill:#736f6f;fill-opacity:0.58469944"
       d="M 7.2780593,33.114515 C 7.2780593,31.528308 9.296659,31.028945 15.197405,31.15541 C 18.361022,31.223211 20.624104,31.79834 20.892044,32.602608 C 21.136588,33.336681 20.816159,33.937287 20.179954,33.937287 C 19.543761,33.937287 19.023237,33.397969 19.023237,32.738809 C 19.023237,31.959687 18.402044,32.053093 17.247983,33.005745 C 15.820282,34.184267 15.381879,34.201137 15.00866,33.091913 C 14.629408,31.964749 14.239116,31.964749 12.873172,33.091913 C 11.507242,34.219075 11.116937,34.219075 10.737685,33.091913 C 10.381188,32.03238 9.9264367,32.000806 8.7758362,32.955721 C 7.8663755,33.710509 7.2780593,33.772876 7.2780593,33.114515 z M 13.684518,25.39534 C 13.684518,23.259853 14.218392,22.19211 15.286134,22.19211 C 16.353877,22.19211 16.88775,23.259853 16.88775,25.39534 C 16.88775,27.530827 16.353877,28.598569 15.286134,28.598569 C 14.218392,28.598569 13.684518,27.530827 13.684518,25.39534 z M 7.2780593,23.793723 C 7.2780593,20.768456 7.6848163,20.056623 9.4135462,20.056623 C 11.142276,20.056623 11.549033,20.768456 11.549033,23.793723 C 11.549033,26.818993 11.142276,27.530827 9.4135462,27.530827 C 7.6848163,27.530827 7.2780593,26.818993 7.2780593,23.793723 z "
       id="path2237"
       inkscape:export-filename="/home/adam/dalek-icon.png"
       inkscape:export-xdpi="40.047569"
       inkscape:export-ydpi="40.047569" />
    <path
       sodipodi:nodetypes="cssccssc"
       style="fill:#a54747"
       d="M 14.096614,27.064628 C 13.25536,24.87237 14.440204,21.873218 15.812468,22.721315 C 17.203683,23.581148 17.203683,27.209531 15.812468,28.069364 C 15.221055,28.434874 14.448927,27.982738 14.096614,27.064628 z M 7.7221868,26.080371 C 6.7520026,23.552116 7.6723226,20.590494 9.4281626,20.590494 C 10.469587,20.590494 11.01516,21.661098 11.01516,23.704749 C 11.01516,27.079832 8.7365326,28.7237 7.7221868,26.080371 z "
       id="path2235"
       inkscape:export-filename="/home/adam/dalek-icon.png"
       inkscape:export-xdpi="40.047569"
       inkscape:export-ydpi="40.047569" />
    <path
       sodipodi:nodetypes="csssssssssssccssccssccssccsssc"
       style="fill:#000000;fill-opacity:1"
       d="M 8.2720317,32.589442 C 9.3136685,31.213804 10.063961,31.012375 11.061767,31.840484 C 12.027104,32.641632 12.638601,32.630315 13.150647,31.801801 C 13.648461,30.996315 14.286513,30.972185 15.193048,31.724549 C 16.088031,32.467314 16.860758,32.469428 17.599047,31.731147 C 18.33735,30.992846 19.169347,31.258201 20.189618,32.557356 C 21.542138,34.279573 21.51506,34.332362 19.919104,33.084629 C 18.665777,32.104771 17.933261,32.04169 17.421621,32.869543 C 16.896239,33.719627 16.310432,33.719627 15.286134,32.869543 C 14.261836,32.019459 13.676031,32.019459 13.150647,32.869543 C 12.652833,33.675028 12.014782,33.699159 11.108247,32.946795 C 10.195657,32.189423 9.3369353,32.255633 8.3185004,33.161881 C 7.0745043,34.268875 7.0673181,34.180434 8.2720317,32.589442 z M 14.096614,27.064628 C 13.25536,24.87237 14.440204,21.873218 15.812468,22.721315 C 17.203683,23.581148 17.203683,27.209531 15.812468,28.069364 C 15.221055,28.434874 14.448927,27.982738 14.096614,27.064628 z M 15.727265,24.06066 C 15.431063,23.326588 14.608349,23.927192 14.608349,25.39534 C 14.608349,26.863487 15.431063,27.464093 15.727265,26.730019 C 16.023467,25.995946 16.023467,24.794735 15.727265,24.06066 z M 7.7221868,26.080371 C 6.7520026,23.552116 7.6723226,20.590494 9.4281626,20.590494 C 10.469587,20.590494 11.01516,21.661098 11.01516,23.704749 C 11.01516,27.079832 8.7365326,28.7237 7.7221868,26.080371 z M 10.481289,23.793723 C 10.481289,22.325578 10.000804,21.124366 9.4135462,21.124366 C 8.8262869,21.124366 8.3458019,22.325578 8.3458019,23.793723 C 8.3458019,25.261871 8.8262869,26.463084 9.4135462,26.463084 C 10.000804,26.463084 10.481289,25.261871 10.481289,23.793723 z "
       id="path2229"
       inkscape:export-filename="/home/adam/dalek-icon.png"
       inkscape:export-xdpi="40.047569"
       inkscape:export-ydpi="40.047569" />
    <rect
       style="opacity:1;fill:#a6a6a6;fill-opacity:1;stroke:none;stroke-opacity:1"
       id="rect14393"
       width="3.0764952"
       height="2.4848616"
       x="3.6774719"
       y="44.318321"
       rx="0"
       ry="2.6516504" />
  </g>
</svg>
