<?xml version="1.0" encoding="UTF-8" standalone="no"?>
<!-- Created with Inkscape (http://www.inkscape.org/) -->
<svg
   xmlns:dc="http://purl.org/dc/elements/1.1/"
   xmlns:cc="http://web.resource.org/cc/"
   xmlns:rdf="http://www.w3.org/1999/02/22-rdf-syntax-ns#"
   xmlns:svg="http://www.w3.org/2000/svg"
   xmlns="http://www.w3.org/2000/svg"
   xmlns:sodipodi="http://inkscape.sourceforge.net/DTD/sodipodi-0.dtd"
   xmlns:inkscape="http://www.inkscape.org/namespaces/inkscape"
   width="32"
   height="41"
   id="svg11662"
   sodipodi:version="0.32"
   inkscape:version="0.43"
   version="1.0"
   sodipodi:docbase="/home/adam/workspace/Escape-j2se/src/org/spacebar/escape/j2se/resources/animation"
   sodipodi:docname="dalek_forward_0.svg">
  <defs
     id="defs11664" />
  <sodipodi:namedview
     id="base"
     pagecolor="#ffffff"
     bordercolor="#666666"
     borderopacity="1.0"
     inkscape:pageopacity="0.0"
     inkscape:pageshadow="2"
     inkscape:zoom="11.2"
     inkscape:cx="28.040418"
     inkscape:cy="19.690869"
     inkscape:document-units="px"
     inkscape:current-layer="layer1"
     inkscape:window-width="792"
     inkscape:window-height="747"
     inkscape:window-x="114"
     inkscape:window-y="163" />
  <metadata
     id="metadata11667">
    <rdf:RDF>
      <cc:Work
         rdf:about="">
        <dc:format>image/svg+xml</dc:format>
        <dc:type
           rdf:resource="http://purl.org/dc/dcmitype/StillImage" />
      </cc:Work>
    </rdf:RDF>
  </metadata>
  <g
     inkscape:label="Layer 1"
     inkscape:groupmode="layer"
     id="layer1">
    <g
       id="g11680"
       transform="matrix(0.187357,0,0,0.187357,-38.06589,-56.29651)">
      <path
         inkscape:export-ydpi="40.047569"
         inkscape:export-xdpi="40.047569"
         inkscape:export-filename="/home/adam/dalek-icon.png"
         id="path2241"
         d="M 255.97079,517.35615 C 252.62597,516.24038 235.65494,518.42396 226.41178,516.38398 C 212.35274,513.28113 210.19685,510.32072 213.22112,498.27095 C 215.20947,490.34881 213.87786,482.03862 210.26204,479.80391 C 206.23572,477.31548 203.68775,451.34119 203.68775,412.78452 C 203.68775,351.48259 204.13018,349.45447 220.52427,335.6042 C 230.01598,327.58538 236.45398,316.73743 235.28214,310.7376 C 234.01117,304.23058 236.92153,300.09497 242.77163,300.09497 C 248.03408,300.09497 252.33979,303.9009 252.33979,308.55252 C 252.33979,314.81203 264.09387,317.60362 297.56623,319.29391 C 335.1225,321.19043 345.43643,324.06139 358.38128,336.22245 C 373.14851,350.09558 373.96987,354.15687 373.96987,413.304 C 373.96987,451.48837 371.41625,477.31901 367.39559,479.80391 C 363.77977,482.03862 362.42998,490.27638 364.39613,498.11009 C 367.50286,510.48826 371.73375,508.72443 351.79572,513.93245 C 329.24199,519.82372 267.46483,519.78015 255.97079,517.35615 z "
         style="fill:#cbcbcb;fill-opacity:0.36612022"
         sodipodi:nodetypes="cssssssssssssssc" />
      <rect
         ry="28.870014"
         style="fill:#cbcbcb;fill-opacity:1;fill-rule:evenodd;stroke:none;stroke-width:1.25;stroke-linejoin:miter;stroke-miterlimit:4;stroke-dashoffset:0;stroke-opacity:1"
         id="rect8116"
         width="11.12962"
         height="74.72744"
         x="214.13905"
         y="383.32947"
         rx="28.870014"
         inkscape:export-filename="/home/adam/dalek-icon.png"
         inkscape:export-xdpi="40.047569"
         inkscape:export-ydpi="40.047569" />
      <path
         inkscape:export-ydpi="40.047569"
         inkscape:export-xdpi="40.047569"
         inkscape:export-filename="/home/adam/dalek-icon.png"
         id="path2239"
         d="M 220.09304,515.16275 C 217.75981,512.82946 215.85076,504.69636 215.85076,497.08919 C 215.85076,489.48202 213.11408,481.56657 209.76926,479.49935 C 206.34762,477.38469 203.68775,448.16221 203.68775,412.68527 C 203.68775,351.1461 204.08992,349.31295 220.41189,336.45343 C 229.61016,329.2064 264.61348,321.38024 291.53502,321.38024 C 327.87645,321.38024 339.94337,323.86191 353.77314,334.18016 C 370.31708,346.52342 370.99182,349.1254 372.68753,407.11327 C 373.65461,440.1865 371.74319,472.74006 368.4399,479.45441 C 365.13655,486.16881 361.57583,497.13571 360.52719,503.82537 C 358.77298,515.01558 341.3259,502.61049 279.55333,504.18213 C 242.62491,505.12172 222.42627,517.49598 220.09304,515.16275 z M 220.31154,402.1209 C 219.02683,387.81702 217.95764,398.00719 217.93556,424.76581 C 217.91349,451.52443 218.96461,463.22768 220.27135,450.77294 C 221.57814,438.31826 221.5962,416.42484 220.31154,402.1209 z "
         style="fill:#888888;fill-opacity:1"
         sodipodi:nodetypes="cccccccccccccccc" />
      <path
         inkscape:export-ydpi="40.047569"
         inkscape:export-xdpi="40.047569"
         inkscape:export-filename="/home/adam/dalek-icon.png"
         id="path2237"
         d="M 219.63625,511.62751 C 218.49889,507.33634 214.4452,494.05269 210.62803,482.10831 C 206.81091,470.16394 203.68775,436.51528 203.68775,407.33348 C 203.68775,357.49385 204.70215,353.27803 220.41189,337.82797 C 229.61016,328.78173 258.90185,320.51344 277.76747,319.20391 C 317.88746,316.41894 353.17405,327.03664 365.29929,345.54205 L 353.06549,514.64047 L 289.20143,505.78442 C 237.60418,507.08441 221.19865,517.52225 219.63625,511.62751 z M 318.07373,496.85797 C 331.15079,493.35563 331.98925,490.42088 330.28406,454.11941 C 328.90179,424.69271 330.67692,413.73554 337.5281,409.40411 C 344.99582,404.68292 344.44891,403.61756 334.4401,403.38871 C 323.25578,403.13305 323.13348,402.61186 332.91972,396.91191 C 352.83263,385.31369 343.62523,382.19528 289.46731,382.19528 C 244.8059,382.19528 233.13981,380.17494 222.57076,370.61007 L 209.76926,359.02487 L 209.76926,413.75841 C 209.76926,458.29941 211.75116,470.21849 220.41189,477.76326 C 242.09288,496.65047 286.45958,505.325 318.07373,496.85797 z M 240.17678,471.77237 C 240.17678,462.73787 251.67404,459.89367 285.28269,460.61397 C 303.30158,461.00014 316.19133,464.27588 317.71742,468.85672 C 319.11026,473.03775 317.28521,476.4586 313.6616,476.4586 C 310.03806,476.4586 307.07333,473.38683 307.07333,469.63247 C 307.07333,465.19486 303.53523,465.72687 296.96209,471.15285 C 288.83039,477.86531 286.33339,477.9614 284.20766,471.64363 C 282.04757,465.22369 279.8246,465.22369 272.04465,471.64363 C 264.26477,478.06357 262.04173,478.06357 259.88164,471.64363 C 257.85115,465.60889 255.26104,465.42906 248.70761,470.86793 C 243.52763,475.16695 240.17678,475.52217 240.17678,471.77237 z M 276.6658,427.80656 C 276.6658,415.64355 279.70656,409.56205 285.78806,409.56205 C 291.86956,409.56205 294.91032,415.64355 294.91032,427.80656 C 294.91032,439.96957 291.86956,446.05107 285.78806,446.05107 C 279.70656,446.05107 276.6658,439.96957 276.6658,427.80656 z M 240.17678,418.6843 C 240.17678,401.4534 242.49353,397.39904 252.33979,397.39904 C 262.18605,397.39904 264.5028,401.4534 264.5028,418.6843 C 264.5028,435.91521 262.18605,439.96957 252.33979,439.96957 C 242.49353,439.96957 240.17678,435.91521 240.17678,418.6843 z M 341.77275,450.6122 C 340.32322,443.08634 339.13721,449.24386 339.13721,464.29559 C 339.13721,479.34731 340.32322,485.50483 341.77275,477.97897 C 343.22233,470.45311 343.22233,458.13806 341.77275,450.6122 z M 337.48085,368.50247 C 364.12921,355.19012 364.10458,348.43539 337.35989,335.35571 C 306.82909,320.42447 240.51984,322.379 250.12904,337.92691 C 252.38357,341.5749 249.08253,342.45131 241.79695,340.139 C 225.99167,335.12255 212.11945,350.24251 223.70527,359.85785 C 248.92089,380.78498 304.44855,385.0039 337.48085,368.50247 z "
         style="fill:#736f6f;fill-opacity:0.58469944"
         sodipodi:nodetypes="ccccccccccccccccccccccccccccccccccccccccccccccccccc" />
      <path
         inkscape:export-ydpi="40.047569"
         inkscape:export-xdpi="40.047569"
         inkscape:export-filename="/home/adam/dalek-icon.png"
         id="path2235"
         d="M 279.01296,437.31426 C 274.22146,424.8279 280.96993,407.74575 288.78588,412.57622 C 296.70977,417.47354 296.70977,438.13958 288.78588,443.0369 C 285.41739,445.11872 281.01961,442.54351 279.01296,437.31426 z M 242.70638,431.70827 C 237.18054,417.30818 242.42237,400.43979 252.42304,400.43979 C 258.35464,400.43979 261.46204,406.53759 261.46204,418.17753 C 261.46204,437.40086 248.48375,446.76377 242.70638,431.70827 z "
         style="fill:#a54747"
         sodipodi:nodetypes="cssccssc" />
      <path
         inkscape:export-ydpi="40.047569"
         inkscape:export-xdpi="40.047569"
         inkscape:export-filename="/home/adam/dalek-icon.png"
         id="path2233"
         d="M 219.55944,511.42725 C 218.46435,507.24621 214.4452,494.05269 210.62803,482.10831 C 206.81091,470.16394 203.68775,436.51528 203.68775,407.33348 C 203.68775,357.49385 204.70215,353.27803 220.41189,337.82797 C 229.61016,328.78173 258.90185,320.51344 277.76747,319.20391 C 317.88746,316.41894 353.17405,327.03664 365.29929,345.54205 C 372.81414,357.01122 374.23345,372.03667 372.02537,416.74826 C 367.44758,509.44474 358.22614,531.11259 330.67625,513.90741 C 316.86479,505.28201 254.4913,504.54639 249.29903,512.94762 C 243.94439,521.61158 221.9322,520.48626 219.55944,511.42725 z M 327.96269,494.85363 C 341.14155,489.84308 343.56235,485.12425 343.56235,464.4461 C 343.56235,445.51408 341.23265,439.96957 333.27774,439.96957 C 324.30959,439.96957 324.50426,438.82661 334.79811,431.04071 C 346.44705,422.22988 346.44231,422.10612 334.4401,421.67501 C 324.12003,421.30428 324.81113,419.86333 339.00122,412.16505 C 360.31671,400.60126 360.31671,396.21406 339.00122,400.63963 L 322.27709,404.11193 L 339.00122,394.47974 C 361.56932,381.4818 360.42284,372.06818 337.25535,380.14441 C 308.59042,390.13705 237.5104,384.13029 222.37895,370.43651 L 209.76926,359.02487 L 209.76926,413.75841 C 209.76926,472.4757 213.62602,480.92771 246.38332,493.99741 C 266.1434,501.88141 308.31401,502.32402 327.96269,494.85363 z M 353.93576,444.5307 C 352.48623,437.00484 351.30021,443.16236 351.30021,458.21408 C 351.30021,473.26581 352.48623,479.42333 353.93576,471.89747 C 355.38534,464.37161 355.38534,452.05656 353.93576,444.5307 z M 337.48085,368.50247 C 349.18774,362.65419 358.76611,355.13258 358.76611,351.78776 C 358.76611,330.51441 268.62235,315.08874 250.45744,333.25364 C 245.59947,338.11161 239.99677,340.45834 238.00696,338.46853 C 232.46634,332.92786 215.47438,349.29945 219.68855,356.11815 C 233.43586,378.36168 303.08611,385.68454 337.48085,368.50247 z "
         style="fill:#565656"
         sodipodi:nodetypes="cssssssssccssssscccscccsccssccssssc" />
      <path
         inkscape:export-ydpi="40.047569"
         inkscape:export-xdpi="40.047569"
         inkscape:export-filename="/home/adam/dalek-icon.png"
         id="path2231"
         d="M 220.9891,511.9038 C 219.89401,507.72276 214.4452,494.05269 210.62803,482.10831 C 204.72355,463.6324 200.29087,354.82851 205.44263,354.82851 C 206.40783,354.82851 217.93313,360.30186 231.05452,366.99152 C 262.91406,383.23443 314.74356,383.23443 346.6031,366.99152 C 359.7245,360.30186 371.2498,354.82851 372.21499,354.82851 C 373.18019,354.82851 373.49175,381.51111 372.90737,414.12318 C 372.323,446.73524 370.79521,461.74348 369.51225,447.47482 C 367.24154,422.2207 366.83007,421.77663 354.0178,430.75068 C 346.7788,435.82107 336.67572,439.96531 331.56652,439.96014 C 326.45733,439.95491 331.69247,435.16573 343.2002,429.31751 C 354.70792,423.46923 365.33541,414.85265 366.81693,410.16947 C 368.89577,403.59822 366.24022,403.94523 355.18332,411.68985 C 347.30327,417.20918 336.67572,421.7208 331.56652,421.71563 C 326.45733,421.7104 331.69247,416.92122 343.2002,411.073 C 354.70792,405.22472 365.33541,396.60814 366.81693,391.92496 C 368.89577,385.35371 366.24022,385.70072 355.18332,393.44533 C 347.30327,398.96466 336.67572,403.47629 331.56652,403.47112 C 326.45733,403.46589 331.84743,398.6767 343.54447,392.82849 C 355.24158,386.98021 365.66363,377.6198 366.7046,372.02749 C 368.40791,362.8772 366.30323,363.0293 345.67166,373.54787 C 315.36996,388.99659 262.45321,389.081 232.34039,373.72861 L 209.76926,362.22119 L 209.76926,413.65818 C 209.76926,441.94855 212.44816,470.10081 215.72238,476.21874 C 229.11215,501.23775 309.62184,511.80215 347.88721,492.29341 L 358.55501,496.95163 C 355.57502,517.25576 350.03471,522.00745 334.01213,512.00119 C 320.20067,503.37579 251.15542,502.64017 245.96315,511.0414 C 240.60851,519.70536 223.36186,520.96281 220.9891,511.9038 z M 225.60653,496.35016 C 223.5857,494.32934 222.14834,497.92126 222.4124,504.33214 C 222.70419,511.41679 224.14526,512.8578 226.0866,508.0064 C 227.84337,503.61628 227.62735,498.37105 225.60653,496.35016 z "
         style="fill:#2e2e2e"
         sodipodi:nodetypes="csssssssssssssssssssscccsccssccssc" />
      <path
         inkscape:export-ydpi="40.047569"
         inkscape:export-xdpi="40.047569"
         inkscape:export-filename="/home/adam/dalek-icon.png"
         id="path2229"
         d="M 219.24138,511.42725 C 209.29745,478.69148 209.86005,477.81605 233.19515,489.71293 C 261.66468,504.2276 315.80363,504.32411 344.07478,489.91064 L 365.40347,479.03667 L 362.844,496.47508 C 359.86401,516.77921 346.69883,523.91367 330.67625,513.90741 C 316.86479,505.28201 254.4913,504.54639 249.29903,512.94762 C 243.95114,521.60069 221.9943,520.49003 219.24138,511.42725 z M 239.17047,500.03403 C 227.35222,492.54247 221.93226,493.55553 221.93226,503.25602 C 221.93226,508.93042 226.19874,510.69321 234.60934,508.49377 C 244.24768,505.97329 245.34101,503.94548 239.17047,500.03403 z M 355.72536,500.07533 C 355.72536,493.7173 353.78536,493.49557 341.01901,498.39452 C 327.05539,503.75287 329.20045,512.38393 343.56235,508.62823 C 350.25201,506.87883 355.72536,503.03003 355.72536,500.07533 z M 245.83811,468.78173 C 251.77092,460.94656 256.04433,459.79929 261.7275,464.51592 C 267.22573,469.07899 270.70861,469.01453 273.62505,464.29559 C 276.46043,459.70782 280.09456,459.57038 285.25787,463.85559 C 290.35539,468.08613 294.75658,468.09817 298.96163,463.89317 C 303.16675,459.68806 307.90552,461.19943 313.71664,468.59898 C 321.42014,478.40814 321.26591,478.70881 312.17589,471.60215 C 305.03736,466.02121 300.8652,465.66192 297.95107,470.37709 C 294.95867,475.21888 291.62211,475.21888 285.78806,470.37709 C 279.95401,465.5353 276.61746,465.5353 273.62505,470.37709 C 270.78967,474.96486 267.15555,475.1023 261.99223,470.81709 C 256.79443,466.50336 251.90344,466.88047 246.10278,472.04215 C 239.0174,478.34721 238.97647,477.84348 245.83811,468.78173 z M 205.9089,412.6028 C 205.89309,379.15453 206.90134,364.6952 208.14957,380.47105 C 209.3978,396.24684 209.41075,423.61361 208.17833,441.28609 C 206.94598,458.95852 205.92471,446.05107 205.9089,412.6028 z M 370.10952,412.6028 C 370.09371,379.15453 371.10196,364.6952 372.35019,380.47105 C 373.59842,396.24684 373.61137,423.61361 372.37895,441.28609 C 371.1466,458.95852 370.12533,446.05107 370.10952,412.6028 z M 279.01296,437.31426 C 274.22146,424.8279 280.96993,407.74575 288.78588,412.57622 C 296.70977,417.47354 296.70977,438.13958 288.78588,443.0369 C 285.41739,445.11872 281.01961,442.54351 279.01296,437.31426 z M 286.77497,420.20468 C 285.0879,416.02365 283.70752,419.44449 283.70752,427.80656 C 283.70752,436.16863 285.0879,439.58948 286.77497,435.40844 C 288.46204,431.22741 288.46204,424.38572 286.77497,420.20468 z M 242.70638,431.70827 C 237.18054,417.30818 242.42237,400.43979 252.42304,400.43979 C 258.35464,400.43979 261.46204,406.53759 261.46204,418.17753 C 261.46204,437.40086 248.48375,446.76377 242.70638,431.70827 z M 258.42129,418.6843 C 258.42129,410.32224 255.68461,403.48054 252.33979,403.48054 C 248.99496,403.48054 246.25828,410.32224 246.25828,418.6843 C 246.25828,427.04637 248.99496,433.88807 252.33979,433.88807 C 255.68461,433.88807 258.42129,427.04637 258.42129,418.6843 z M 221.93226,336.23802 C 230.29433,328.96101 237.13961,318.53604 237.14405,313.07138 C 237.14843,307.60678 239.88511,304.42318 243.22556,305.99677 C 246.56595,307.57029 248.65002,311.67531 247.85681,315.11902 C 246.96295,318.99981 258.33451,320.55285 277.76747,319.20391 C 312.39896,316.79995 350.38994,325.86814 361.4331,339.17441 C 366.17332,344.88598 360.85797,343.85158 345.66491,336.10569 C 314.99339,320.46844 255.61066,319.84289 246.74541,335.06362 C 242.58469,342.20714 240.48584,342.97693 240.36172,337.40494 C 240.21527,330.83083 236.69712,331.22224 223.45264,339.28625 L 206.7285,349.46888 L 221.93226,336.23802 z "
         style="fill:#000000;fill-opacity:1" />
      <path
         inkscape:export-ydpi="40.047569"
         inkscape:export-xdpi="40.047569"
         inkscape:export-filename="/home/adam/dalek-icon.png"
         transform="matrix(6.081504,0,0,6.081504,-1793.542,-1242.85)"
         d="M 335.13506 255.4435 A 0.48045743 0.48045743 0 1 1  334.17414,255.4435 A 0.48045743 0.48045743 0 1 1  335.13506 255.4435 z"
         sodipodi:ry="0.48045743"
         sodipodi:rx="0.48045743"
         sodipodi:cy="255.4435"
         sodipodi:cx="334.6546"
         id="path2406"
         style="fill:#990a0a;fill-opacity:1;fill-rule:evenodd;stroke:none;stroke-width:3.86249995;stroke-linejoin:round;stroke-miterlimit:4;stroke-dashoffset:0;stroke-opacity:1"
         sodipodi:type="arc" />
    </g>
  </g>
</svg>
