<?xml version="1.0" encoding="UTF-8" standalone="no"?>
<!-- Created with Inkscape (http://www.inkscape.org/) -->
<svg
   xmlns:dc="http://purl.org/dc/elements/1.1/"
   xmlns:cc="http://web.resource.org/cc/"
   xmlns:rdf="http://www.w3.org/1999/02/22-rdf-syntax-ns#"
   xmlns:svg="http://www.w3.org/2000/svg"
   xmlns="http://www.w3.org/2000/svg"
   xmlns:sodipodi="http://sodipodi.sourceforge.net/DTD/sodipodi-0.dtd"
   xmlns:inkscape="http://www.inkscape.org/namespaces/inkscape"
   width="32px"
   height="32px"
   id="svg14736"
   sodipodi:version="0.32"
   inkscape:version="0.44.1"
   sodipodi:docbase="/home/adam/workspace/Escape-j2se/src/org/spacebar/escape/j2se/resources/animation"
   sodipodi:docname="deadrobot.svg">
  <defs
     id="defs14738" />
  <sodipodi:namedview
     id="base"
     pagecolor="#ffffff"
     bordercolor="#666666"
     borderopacity="1.0"
     inkscape:pageopacity="0.0"
     inkscape:pageshadow="2"
     inkscape:zoom="22.627417"
     inkscape:cx="18.707629"
     inkscape:cy="14.318094"
     inkscape:current-layer="svg14736"
     showgrid="true"
     inkscape:grid-bbox="true"
     inkscape:document-units="px"
     inkscape:window-width="906"
     inkscape:window-height="921"
     inkscape:window-x="138"
     inkscape:window-y="49"
     showborder="true"
     borderlayer="false" />
  <metadata
     id="metadata14741">
    <rdf:RDF>
      <cc:Work
         rdf:about="">
        <dc:format>image/svg+xml</dc:format>
        <dc:type
           rdf:resource="http://purl.org/dc/dcmitype/StillImage" />
      </cc:Work>
    </rdf:RDF>
  </metadata>
  <path
     id="path5966"
     d="M 5.2514586,18.295871 C 12.146868,22.514751 14.610406,11.375865 11.496852,6.8683361 C 9.6495649,6.0428171 3.8291907,15.581485 5.2514586,18.295871 z "
     style="fill:#b8b8b8;fill-opacity:1"
     sodipodi:nodetypes="ccc" />
  <path
     sodipodi:nodetypes="cssssss"
     style="fill:black;fill-opacity:0.35911602"
     d="M 16.55462,31.379758 C 14.708132,30.159109 12.45309,31.31885 10.394268,31.317011 C 8.4099304,31.315239 5.6878613,31.264289 4.6021652,29.723984 C -0.65092504,22.271288 30.238496,26.069491 31.724381,27.510307 C 32.40935,28.1745 29.496686,30.937166 27.518224,30.827551 C 25.279749,30.703531 23.420625,32.410943 21.173475,31.87273 C 19.689151,31.517221 17.985431,32.325616 16.55462,31.379758 z "
     id="path14782" />
  <path
     id="path5964"
     d="M 13.466255,29.677051 C -3.7786958,27.832637 2.6983124,19.268134 9.4216641,8.6507689 C 11.756583,4.928132 19.012491,4.7224632 22.915289,5.4709573 C 26.315963,10.859722 24.194591,23.205896 23.7081,28.06499 C 19.856691,29.932707 17.842992,29.210753 13.466255,29.677051 z M 6.0484066,14.265243 C 3.5357001,18.807019 9.8905966,17.052448 6.0484066,14.265243 z M 8.1513418,13.676682 C 9.2398685,12.357958 9.7887926,9.6830381 11.504041,8.9422716 C 13.190276,4.3032898 4.3031854,13.360644 8.1513418,13.676682 z "
     style="fill:#828282;fill-opacity:1"
     sodipodi:nodetypes="cccccccccc" />
  <path
     sodipodi:nodetypes="ccccccscccccccccccccccccccccccccccccccccccccccccccccccccccccccccc"
     id="path5962"
     d="M 14.213959,29.432449 C 6.3895224,29.459371 7.2349048,28.411679 2.1439284,24.087041 C 2.0602258,23.036021 2.1210954,21.974709 2.3026124,20.91563 C 4.3484022,18.556426 4.5220855,16.514797 4.6836854,14.625759 C 6.7227121,11.061424 9.6823135,7.8478688 12.475495,5.5542551 C 18.203693,5.2322228 22.043499,3.8407831 25.872217,8.6868368 C 24.804715,20.912732 18.464187,29.417826 14.213959,29.432449 z M 12.463467,28.311389 C 13.284757,27.285453 15.634963,28.39397 15.699289,26.68435 C 20.387829,25.124736 16.697607,26.14151 18.629346,23.118781 C 20.003921,22.846018 21.364095,21.946904 20.585321,20.405421 C 20.518316,18.873933 21.784211,17.76797 22.193598,16.374703 C 23.088466,15.420052 22.067583,14.225111 21.671887,13.290617 C 21.183817,12.553775 21.297249,10.695785 22.373966,10.806044 C 23.179556,11.357319 22.092286,13.27684 23.333233,13.147265 C 23.624216,12.153889 25.040967,11.096818 24.106263,10.080975 C 23.432446,9.3797452 24.106842,6.7701791 22.222616,7.2371473 C 21.112352,7.3555293 20.025432,5.7653577 18.862859,5.6891912 C 17.6023,5.2859691 16.728909,6.8496256 15.69506,7.2998888 C 14.047654,7.7668184 12.268806,6.7862315 10.679016,7.5708745 C 10.336462,9.330639 8.57751,10.071604 7.349091,11.216472 C 6.5840767,12.114796 8.2664025,14.088243 8.7911064,12.611532 C 10.107288,13.273895 8.7942791,14.762042 8.3476781,15.61746 C 8.1978436,16.564448 7.0914388,17.974626 6.2374298,16.805406 C 6.0302633,16.143786 7.4666476,14.351924 6.2152897,14.1736 C 4.6679766,14.780794 5.140045,17.418508 6.0967571,18.234071 C 5.0624531,19.75617 3.1848646,20.591748 2.479196,22.353204 C 3.4829321,23.512308 4.5694292,24.605533 5.7705732,25.560906 C 6.5608532,24.864343 7.5006842,24.892571 7.4947123,26.125043 C 8.4986416,27.504584 10.49967,27.318876 11.694138,28.464976 C 11.991497,28.722094 12.50919,28.979427 12.463467,28.311389 z M 11.440681,25.75442 C 11.436543,23.762433 9.4223515,26.764819 8.8501472,25.447985 C 8.4721437,24.077588 10.263412,23.72233 11.204866,23.334705 C 12.705962,22.693822 14.637319,22.020426 16.114438,23.071615 C 16.434366,23.816314 13.68156,23.777198 14.447858,25.229347 C 15.069929,26.996036 12.785898,27.104728 11.679017,26.72861 C 11.292573,26.566054 11.257299,26.082441 11.440681,25.75442 z M 5.3039441,22.686068 C 5.2244632,21.360974 7.8432384,20.799726 6.8107461,19.448112 C 6.1287376,18.369562 8.4430698,18.566652 9.1518424,18.406458 C 9.6992404,17.973496 10.285982,17.575744 10.545092,18.577029 C 10.818774,19.825995 9.1069307,20.891627 10.125981,21.955731 C 9.8740401,23.387422 8.0622456,22.154688 7.281956,23.217345 C 6.4844548,23.743543 5.2163575,24.166673 5.3039441,22.686068 z M 18.600187,20.129099 C 17.650348,18.933098 20.397058,18.364861 19.728496,19.892013 C 20.319075,20.917597 18.391221,22.266871 18.614195,20.545304 C 18.603149,20.406778 18.603024,20.267921 18.600187,20.129099 z M 12.463467,19.6177 C 12.903915,18.752696 13.652293,17.492103 12.613546,16.890563 C 12.607522,16.241818 10.888986,14.307817 12.486951,14.960786 C 13.174459,16.345243 14.81251,17.045416 15.948869,15.8759 C 17.808885,16.05398 14.598822,18.498449 16.457292,18.79826 C 17.673922,19.390286 17.063164,21.513238 15.821797,20.390201 C 15.0941,19.317202 13.595824,19.484107 12.984611,20.506256 C 12.536443,20.549532 12.370999,19.962246 12.463467,19.6177 z M 17.577406,16.549327 C 16.992725,15.559441 19.14977,15.388161 18.791957,16.453446 C 20.09073,15.562399 20.882543,18.180543 19.16857,17.651172 C 18.47904,17.639452 16.997499,17.686463 17.577406,16.549327 z M 9.395098,11.435392 C 9.7871619,9.4293237 12.746697,8.5401315 14.213365,9.9326729 C 13.036534,10.743586 11.042521,10.361826 10.393566,11.901931 C 10.049338,12.862889 9.1903615,12.256274 9.395098,11.435392 z "
     style="fill:#717171;fill-opacity:1" />
  <path
     sodipodi:nodetypes="ccccccccccccccccccccccccccccccccccccccccccccccccccccccccccccccccccccccccccccc"
     id="path5960"
     d="M 17.956288,30.685142 C 14.951323,28.718429 12.918484,31.46543 9.4273683,29.651662 C 7.7628005,27.84367 6.3721295,29.510941 4.4839991,27.796636 C 4.0518663,26.809867 2.7006891,24.553054 1.5124591,24.276482 C -0.13084241,24.102829 0.11827386,23.229566 0.52406327,22.00247 C 1.1585326,20.421064 2.9187484,19.488834 3.6147444,17.944977 C 3.5510154,15.93787 4.9570107,14.292232 6.0963319,12.770253 C 7.2999059,11.507003 7.3814101,10.072114 8.3409601,8.6545341 C 8.61605,7.4597827 8.9404268,7.9267677 9.7021266,6.4755677 C 9.5693493,5.1649887 10.736103,4.9006566 11.907173,4.8596389 C 15.340017,4.9054456 18.713475,4.6427776 22.139029,4.9351382 C 25.728301,6.1097896 25.755271,6.092001 26.511748,9.5635485 C 26.827379,10.52257 27.879706,11.817602 28.505529,12.558583 C 31.94081,17.134365 33.888355,26.779957 26.815068,29.3589 C 24.900446,29.253484 24.431833,30.46228 22.648807,30.888471 C 20.738666,31.666304 19.866677,31.511297 17.956288,30.685142 z M 13.486252,28.311389 C 15.123208,28.017113 15.901999,26.569472 16.43146,25.236272 C 17.087567,24.256462 18.755624,26.451231 18.252223,24.932005 C 17.161956,23.930926 18.280889,23.074328 19.348024,22.889925 C 21.042986,22.249956 21.016608,20.294775 22.003343,19.027326 C 22.609344,17.535692 23.609486,16.171358 23.725756,14.517696 C 23.88565,13.413687 24.034059,12.25469 24.672723,11.307123 C 25.009923,9.6940369 23.522904,8.5567635 23.090578,7.1318897 C 21.362794,5.6875073 19.023402,6.5821819 17.007717,6.3249948 C 15.159151,6.604524 13.074241,5.7210376 11.408121,6.8602858 C 10.636659,7.6108146 10.471742,8.8229364 9.654436,9.5874569 C 8.9869988,10.492156 7.9860447,11.115936 7.3586721,12.033107 C 6.9560726,13.210835 9.4178093,14.349556 7.9210278,15.265709 C 7.2688487,15.228302 6.2319859,14.15511 5.799046,15.411719 C 4.9939672,16.641971 5.5364837,18.55418 4.1062862,19.399959 C 2.9445371,19.941346 1.7356781,21.446251 2.6274419,22.703142 C 4.0041842,23.310551 3.9841132,24.9751 4.9821951,25.835468 C 6.1016901,25.62779 7.2766023,25.910861 8.0478718,26.821606 C 8.8043897,27.683823 9.8110194,28.22974 10.861852,28.583783 C 11.652746,28.985859 12.935857,29.204883 13.486252,28.311389 z M 11.440681,25.75442 C 11.436543,23.762433 9.4223515,26.764819 8.8501472,25.447985 C 8.4721437,24.077588 10.263412,23.72233 11.204866,23.334705 C 12.705962,22.693822 14.637319,22.020426 16.114438,23.071615 C 16.434366,23.816314 13.68156,23.777198 14.447858,25.229347 C 15.069929,26.996036 12.785898,27.104728 11.679017,26.72861 C 11.292573,26.566054 11.257299,26.082441 11.440681,25.75442 z M 5.3039441,22.686068 C 5.2340801,21.371771 7.6365828,20.914235 6.908937,19.563888 C 5.794727,18.618381 7.8872184,18.204366 8.4297865,19.049475 C 9.6023503,20.517762 9.408626,16.521614 10.401213,18.194745 C 10.490684,19.392927 8.3403323,21.025959 10.162117,21.894857 C 9.9538215,24.07232 7.5684145,20.874643 7.0004347,22.570537 C 6.5333635,23.165401 5.3318674,24.197949 5.3039441,22.686068 z M 12.463467,19.6177 C 11.974882,18.312917 15.521918,18.531361 13.771628,17.373171 C 13.384197,16.485246 11.338472,15.824858 11.96165,14.802476 C 12.789792,15.11885 13.489772,16.737891 14.805675,16.486602 C 15.59662,16.478853 16.481657,15.044126 16.548734,16.573944 C 16.059974,17.628598 15.607671,18.774175 16.630173,19.650822 C 16.768484,20.805243 15.108109,20.389476 15.415162,19.357885 C 14.62386,17.483048 13.371777,21.752789 12.468065,20.031401 L 12.463467,19.6177 L 12.463467,19.6177 z M 18.600187,17.06073 C 17.045283,16.454236 18.282688,14.86566 19.128115,16.440686 C 19.885659,17.102293 19.057834,18.16738 18.600187,17.06073 z M 6.3267423,16.037945 C 6.7317417,14.641913 7.6015541,16.767158 6.681472,16.510494 C 6.5341749,16.376395 6.4274018,16.207391 6.3267423,16.037945 z M 8.3723127,12.969576 C 8.7773294,11.573544 9.6471418,13.698785 8.7270597,13.442143 C 8.5797626,13.308043 8.4729723,13.139039 8.3723127,12.969576 z M 9.395098,10.924006 C 9.853587,9.9849518 11.796291,8.5002558 12.293385,10.125835 C 11.183966,9.8505129 10.368794,11.496863 9.4448353,11.146327 C 9.4230041,11.075145 9.4128033,10.997373 9.395098,10.924006 z M 22.69134,26.777205 C 22.78374,25.326816 20.454446,24.283471 19.923946,25.946998 C 19.847037,27.061508 22.006146,27.020405 22.489317,27.713335 C 22.737733,27.474489 22.682956,27.085349 22.69134,26.777205 z "
     style="fill:#545454;fill-opacity:1" />
  <path
     id="path5954"
     d="M 29.01293,14.26913 C 29.141872,14.734119 29.704463,16.521773 29.821849,16.846531 C 30.457641,18.684437 28.455046,20.113875 28.713396,21.931311 C 27.512995,22.648627 28.23105,24.515534 27.363178,25.524645 C 25.967936,24.995893 25.413209,23.340007 24.001692,22.836839 C 22.295383,22.513432 20.428617,22.451451 18.797066,23.13707 C 20.274571,23.665174 21.266342,25.101112 22.624052,25.635806 C 24.189547,26.062619 23.084393,28.62215 21.917939,28.460019 C 20.801792,28.550989 19.118794,26.441224 20.301035,25.515874 C 20.508644,23.930892 18.438443,25.180807 17.933067,25.976935 C 17.303513,26.94131 16.960123,26.334407 16.31869,26.762611 C 13.705378,27.843344 17.315638,30.136986 18.430703,31.340264 C 21.216689,32.073467 22.327285,29.811936 27.074002,29.376738 C 28.980359,29.101575 29.695044,27.37526 31.228258,26.484904 C 31.715743,23.360896 32.054934,20.128355 31.266828,17.048209 C 30.524578,16.114583 29.905393,15.060397 29.01293,14.26913 z M 7.1767886,19.036385 C 8.1876987,20.014078 9.6278136,19.754109 9.4989431,18.198304 C 10.392914,17.200467 10.904931,19.453521 9.8045495,19.711997 C 8.8381304,20.572664 10.133189,22.055958 9.7267076,22.005472 C 8.3661535,21.836485 7.2621194,19.782151 7.1767886,19.036385 z M 25.759696,21.151884 C 24.809853,19.9559 27.556567,19.387642 26.888001,20.914798 C 27.478585,21.940382 25.550748,23.289652 25.773701,21.568089 C 25.762671,21.429563 25.762547,21.290723 25.759696,21.151884 z M 16.595252,16.938433 C 16.472091,17.749805 15.278877,17.849915 16.125978,18.736046 C 16.7303,19.19244 16.896612,20.774636 15.918511,20.448465 C 15.623226,19.634632 14.753662,17.877173 14.08899,19.491281 C 12.52078,20.871522 15.664799,16.392672 16.595252,16.938433 z M 27.80528,17.572129 C 28.055494,15.338669 29.885153,19.267671 27.956016,18.34752 C 27.716353,18.182269 27.693028,17.818411 27.80528,17.572129 z M 27.044025,28.350856 C 27.449042,26.954824 28.318855,29.080069 27.398772,28.823423 C 27.251475,28.689323 27.144702,28.520319 27.044025,28.350856 z M 18.509943,29.233376 C 18.478245,29.856361 18.064455,30.465958 17.704819,29.718818 C 17.345183,28.971677 18.541642,28.610391 18.509943,29.233376 z "
     style="fill:#353535;fill-opacity:1;stroke:none;stroke-width:0.2;stroke-miterlimit:4;stroke-dasharray:none;stroke-opacity:1"
     sodipodi:nodetypes="cccccccccccccccccccsccccccccccccccccczz" />
  <path
     id="path5958"
     d="M 13.789553,24.687148 C 13.818601,26.020541 13.165314,26.470675 12.528149,25.822133 C 11.875287,25.157611 11.693588,23.941655 12.937295,23.503048 C 14.180998,23.064441 13.760509,23.354076 13.789553,24.687148 z "
     style="fill:#753232"
     sodipodi:nodetypes="czzz" />
  <path
     id="path5952"
     d="M 10.120219,21.839371 C 7.9338686,20.903928 9.3221682,19.909876 9.7802219,19.698448 C 10.337233,19.441343 10.604391,19.04243 10.683835,18.663361 C 10.87782,17.737747 9.6662643,17.170151 9.6160689,18.639108 C 8.9295437,21.040456 7.4126878,19.682224 7.1471866,18.965589 C 6.1018489,18.700438 6.8921118,19.309977 7.1183446,19.800957 C 7.9884608,20.989934 6.3763307,22.471465 5.3039441,23.19745 C 5.7497638,24.660117 7.0353045,22.17354 7.5501425,21.857325 C 8.4271075,20.659474 9.8848762,23.447206 10.120219,21.839371 z M 17.577406,31.379758 C 16.941064,29.938428 14.750717,29.366876 13.708784,30.695388 C 12.177523,30.985775 10.218603,31.345614 9.0484867,30.030544 C 8.1945851,28.051171 6.4726655,30.286374 5.1361167,29.980643 C 4.1556887,29.516462 3.9864402,28.253263 3.5367952,27.354608 C 3.1046624,26.367839 2.7006891,25.121376 1.5124591,24.844804 C -0.13084241,24.671151 -0.19746077,22.850684 0.20832864,21.623588 C 0.842798,20.042182 2.5651082,19.255199 3.2611042,17.711342 C 3.1973752,15.704235 4.5149822,14.014403 5.6543034,12.492424 C 6.8578774,11.229174 7.1098697,9.4028257 8.0694197,7.9852461 C 8.3445096,6.7904947 6.6805061,6.1820467 5.7384854,6.4313987 C 5.0665231,7.1004373 6.8488229,8.0623486 5.6022563,8.7916987 C 4.3990472,9.8509036 2.6201649,7.9242648 4.0805096,6.9968884 C 4.7592938,6.2144694 5.686052,5.0698975 6.8544428,5.4327158 C 7.5523793,5.9435524 8.750986,7.9267677 9.5126858,6.4755677 C 9.3799085,5.1649887 10.736103,4.3323343 11.907173,4.2913166 C 13.581837,4.2276262 15.221549,4.3300889 16.938209,4.2723791 C 18.65487,4.2146649 20.792445,3.6574526 22.202176,4.4299628 C 23.611908,5.2024731 25.824134,5.1362969 26.503686,6.4135474 C 27.183239,7.6907978 26.600091,8.6920095 27.016923,9.6898424 C 27.43375,10.68768 27.986073,10.886848 28.69497,12.116555 C 29.403863,13.346257 30.292196,15.587033 31.601715,16.981232 C 32.462915,18.405453 31.599126,20.083165 31.904891,21.614198 C 31.919604,23.231122 31.905544,24.850759 31.764077,26.462578 C 30.230863,27.352934 29.605482,29.525765 27.699125,29.800928 C 25.784503,29.695512 24.431833,31.409484 22.648807,31.835675 C 21.679198,31.878582 20.67414,31.834902 19.690153,31.94578 C 18.954212,31.973531 18.151353,31.891144 17.577406,31.379758 z M 20.645757,30.356977 C 20.380164,29.17028 17.623215,29.054203 18.104415,28.060861 C 19.211721,27.37237 20.567933,26.799156 21.56492,27.787814 C 23.000965,27.593665 23.9559,26.274276 24.50289,25.042002 C 23.911358,23.595808 22.124846,23.563175 20.805775,23.699267 C 19.989049,24.070349 18.125083,23.408021 19.575205,22.680341 C 20.716042,22.570344 21.905027,22.632909 23.0629,22.684501 C 24.281346,22.679143 25.1988,23.500592 26.021941,24.241131 C 27.330334,25.27364 26.22976,27.145291 27.010225,28.411714 C 27.793653,29.41818 28.930592,28.184 29.619435,27.644145 C 30.535237,26.824654 30.962312,25.596673 30.866092,24.383619 C 30.93359,22.068158 31.362757,19.312441 30.885193,17.436372 C 30.407629,15.560304 28.363488,14.610267 28.031495,12.905688 C 27.699507,11.201109 25.577272,10.059066 25.780716,8.8332445 C 25.98416,7.6074229 25.630049,6.6286821 24.033758,6.2736346 C 22.437468,5.9185872 20.624076,5.0196665 18.420153,5.3056613 C 16.216231,5.5916562 12.723702,4.82225 10.997927,5.3647923 C 9.2721479,5.9073345 10.087943,7.8660139 8.8331459,8.5536981 C 7.8823026,9.7600585 7.5340557,11.297235 6.7498893,12.59955 C 5.4807874,13.532567 5.0046617,15.098255 4.3546636,16.45998 C 4.6796197,18.164456 3.0953418,19.277752 2.0265715,20.309802 C 1.095357,21.0224 0.80588893,22.408175 1.5260773,23.372271 C 2.2155389,24.397452 3.1739254,25.21192 4.051118,26.06498 C 5.5742557,27.225811 7.613923,27.491864 8.9966157,28.861642 C 9.8860955,29.658491 11.111904,30.356887 12.332535,29.908122 C 13.86954,30.118251 15.634118,29.024232 15.592181,27.351805 C 15.169953,26.265291 16.490381,25.440781 17.031716,26.669904 C 17.969963,27.846082 15.690866,28.888265 17.100803,30.025117 C 17.947797,30.938025 19.742573,31.476858 20.645757,30.356977 z M 12.463467,26.265823 C 11.913656,25.06871 10.285505,24.726122 9.5286696,25.822133 C 8.0008264,26.01806 8.8281228,24.060797 9.9504384,24.490148 C 11.288292,23.773832 12.625897,22.996539 14.07301,22.531546 C 15.113308,22.119325 17.207083,23.558719 15.207746,23.83441 C 13.920815,24.127716 14.18542,27.254284 12.534172,26.419496 C 12.510598,26.368277 12.487024,26.317041 12.463467,26.265823 z M 13.486252,24.731634 C 13.236037,22.498174 11.406378,26.427181 13.335499,25.507047 C 13.575156,25.341795 13.598486,24.977938 13.486252,24.731634 z M 16.55462,25.243038 C 16.693971,24.413114 19.062166,23.344275 18.032494,24.856538 C 17.720139,25.253925 16.694061,26.3983 16.55462,25.243038 z M 12.463467,20.129099 C 13.432758,19.579657 14.660773,18.266189 13.809478,17.148295 C 13.203335,16.925394 11.83199,15.685065 13.264123,15.774253 C 13.932849,16.263984 14.863745,18.242473 15.636037,16.644384 C 15.402106,15.261867 17.012019,15.931382 16.592431,16.974745 C 16.492549,17.806219 15.103687,17.671222 16.011576,18.59458 C 16.731837,19.13012 16.12885,20.010558 15.648951,19.049089 C 14.498798,18.056678 13.948317,20.189393 13.006494,20.533798 C 12.738767,20.597419 12.561889,20.330929 12.463467,20.129099 z M 5.3039441,7.8556372 C 4.8989447,6.4596053 4.0291151,8.58485 4.9492101,8.3282038 C 5.09649,8.1941041 5.2032846,8.0251003 5.3039441,7.8556372 z "
     style="fill:#030303;stroke:none;stroke-width:0.2;stroke-miterlimit:4;stroke-dasharray:none;stroke-opacity:1"
     sodipodi:nodetypes="csscccccccccccccccccccccszzzzzcccccccccccccccccczzzzzzccccccccccccccccccccccccccccccccccccc" />
  <path
     sodipodi:type="arc"
     style="fill:#f11e1e;fill-opacity:1;fill-rule:evenodd;stroke:none;stroke-width:3.86249995;stroke-linejoin:round;stroke-miterlimit:4;stroke-dashoffset:0;stroke-opacity:1"
     id="path2406"
     sodipodi:cx="334.6546"
     sodipodi:cy="255.4435"
     sodipodi:rx="0.48045743"
     sodipodi:ry="0.48045743"
     d="M 335.13506 255.4435 A 0.48045743 0.48045743 0 1 1  334.17414,255.4435 A 0.48045743 0.48045743 0 1 1  335.13506 255.4435 z"
     transform="matrix(1.068198,0,0,1.068198,-352.5835,-265.0179)"
     inkscape:export-filename="/home/adam/dalek-icon.png"
     inkscape:export-xdpi="40.047569"
     inkscape:export-ydpi="40.047569" />
</svg>
