<?xml version="1.0" encoding="UTF-8" standalone="no"?>
<!-- Created with Inkscape (http://www.inkscape.org/) -->
<svg
   xmlns:dc="http://purl.org/dc/elements/1.1/"
   xmlns:cc="http://web.resource.org/cc/"
   xmlns:rdf="http://www.w3.org/1999/02/22-rdf-syntax-ns#"
   xmlns:svg="http://www.w3.org/2000/svg"
   xmlns="http://www.w3.org/2000/svg"
   xmlns:sodipodi="http://inkscape.sourceforge.net/DTD/sodipodi-0.dtd"
   xmlns:inkscape="http://www.inkscape.org/namespaces/inkscape"
   width="32px"
   height="32px"
   id="svg14736"
   sodipodi:version="0.32"
   inkscape:version="0.43"
   sodipodi:docbase="/home/adam/workspace/Escape-j2se/src/org/spacebar/escape/j2se/resources/animation"
   sodipodi:docname="deadrobot.svg">
  <defs
     id="defs14738" />
  <sodipodi:namedview
     id="base"
     pagecolor="#ffffff"
     bordercolor="#666666"
     borderopacity="1.0"
     inkscape:pageopacity="0.0"
     inkscape:pageshadow="2"
     inkscape:zoom="63.344334"
     inkscape:cx="5.406093"
     inkscape:cy="23.852675"
     inkscape:current-layer="layer1"
     showgrid="true"
     inkscape:grid-bbox="true"
     inkscape:document-units="px"
     inkscape:window-width="792"
     inkscape:window-height="921"
     inkscape:window-x="39"
     inkscape:window-y="10" />
  <metadata
     id="metadata14741">
    <rdf:RDF>
      <cc:Work
         rdf:about="">
        <dc:format>image/svg+xml</dc:format>
        <dc:type
           rdf:resource="http://purl.org/dc/dcmitype/StillImage" />
      </cc:Work>
    </rdf:RDF>
  </metadata>
  <g
     id="layer1"
     inkscape:label="Layer 1"
     inkscape:groupmode="layer">
    <g
       inkscape:export-ydpi="309.10999"
       inkscape:export-xdpi="309.10999"
       inkscape:export-filename="/tmp/pp.png"
       transform="matrix(0.429325,0,0,0.429325,-176.8372,-99.9257)"
       id="g6493">
      <path
         id="path5966"
         d="M 423.20133,275.88084 C 426.6064,282.37939 439.23539,274.38226 440.32533,271.38535 C 441.39665,268.43963 444.26586,248.32764 439.91005,246.38111 C 435.60728,244.45828 419.88853,269.55839 423.20133,275.88084 z "
         style="opacity:1;fill:#b8b8b8;fill-opacity:1"
         sodipodi:nodetypes="czzz" />
      <path
         id="path5964"
         d="M 450.45553,305.84163 C 445.98509,303.25019 440.7566,305.43255 435.95952,304.66589 C 431.33912,305.42414 426.82678,303.67606 422.61542,301.98494 C 422.34989,299.29734 419.96902,297.38489 419.85674,295.11565 C 419.23084,291.27139 414.16311,291.48537 412.42418,288.50249 C 411.3592,285.25568 412.50901,281.62762 414.94491,279.28409 C 416.55982,277.37768 419.15545,276.13352 419.34637,273.37624 C 420.06551,270.20232 421.10508,267.06669 423.08516,264.44184 C 425.21117,261.22499 428.14583,258.38168 429.01279,254.49068 C 431.38492,252.00372 431.06986,248.08838 427.27546,247.46761 C 424.29792,246.83959 424.37524,249.80219 426.09738,251.18178 C 425.60868,254.56434 420.40778,254.97228 420.14914,251.12514 C 420.87321,248.54979 423.59614,246.19818 426.24882,245.37226 C 429.70464,244.15777 430.1271,250.13178 433.11421,248.87728 C 434.62652,246.81948 434.74648,243.46593 437.89823,243.04055 C 441.30719,242.27356 444.82399,243.06694 448.27858,242.74999 C 453.38908,242.67316 458.51763,242.53186 463.61003,243.06915 C 466.10573,246.23823 471.44117,244.16348 473.62927,247.68939 C 474.60684,250.11352 473.61811,252.90606 474.82472,255.32066 C 475.55465,257.56048 477.29206,259.24458 478.72947,260.98413 C 480.54321,265.11743 482.7477,269.09417 485.58932,272.60592 C 487.50176,276.27121 485.45011,280.41601 486.20545,284.27931 C 486.25954,288.46477 486.26179,292.6639 485.78951,296.82876 C 482.19949,298.97641 480.62903,304.21922 475.99237,304.55541 C 470.80678,303.67503 466.38899,308.50498 461.21394,306.98988 C 457.6975,306.42329 453.6187,308.2965 450.45553,305.84163 z M 426.63237,271.29803 C 426.46583,269.78667 430.46449,266.10808 426.80757,267.21312 C 424.15801,267.67075 423.22112,274.6994 426.54701,272.3862 C 426.62265,272.02874 426.63443,271.66197 426.63237,271.29803 z M 431.39699,262.95994 C 434.35529,260.23712 434.68364,255.27552 438.69153,253.57939 C 442.16705,252.04365 438.53431,247.49002 436.37977,250.74401 C 436.24381,254.65714 432.48503,256.72631 430.18804,259.392 C 427.95217,260.10723 429.29707,266.36503 431.39699,262.95994 z "
         style="fill:#828282" />
      <path
         id="path5962"
         d="M 452.83784,305.84163 C 451.35565,302.48443 446.25381,301.15315 443.8269,304.24757 C 440.26023,304.92395 435.69744,305.7621 432.97196,302.69899 C 430.98302,298.08856 426.97226,303.29488 423.85912,302.58276 C 421.57547,301.50157 421.18125,298.55928 420.13392,296.4661 C 419.12738,294.16768 418.18643,291.26437 415.41876,290.62017 C 411.59112,290.21569 411.43595,285.97539 412.38113,283.11719 C 413.85896,279.43372 417.87063,277.60065 419.49177,274.00464 C 419.34333,269.32961 422.41235,265.39359 425.0661,261.84854 C 427.86951,258.90613 428.45646,254.65213 430.69148,251.35025 C 431.33223,248.56739 427.45637,247.15017 425.26218,247.73097 C 423.69702,249.28932 427.84842,251.52984 424.94487,253.22867 C 422.14231,255.69581 417.99887,251.20821 421.40036,249.04813 C 422.98141,247.22569 425.14005,244.55971 427.86151,245.4048 C 429.48717,246.59466 432.27901,251.21404 434.05319,247.83385 C 433.74392,244.7812 436.90282,242.84175 439.63052,242.74621 C 443.53121,242.59786 447.4408,242.91251 451.349,242.7021 C 455.43782,242.64366 459.53853,242.63951 463.61003,243.06915 C 466.10573,246.23823 471.44117,244.16348 473.62927,247.68939 C 474.60684,250.11352 473.61811,252.90606 474.82472,255.32066 C 475.5599,257.55445 477.2756,259.24713 478.73329,260.97305 C 480.57797,264.97568 482.45361,269.05662 485.50379,272.30404 C 487.50973,275.62139 485.49776,279.52918 486.20996,283.09532 C 486.24423,286.86152 486.21148,290.63404 485.88197,294.38835 C 482.31075,296.4622 480.85409,301.52324 476.41373,302.16416 C 471.95412,301.91862 468.80343,305.91087 464.65034,306.90357 C 462.39189,307.00351 460.05087,306.90177 457.75893,307.16003 C 456.04475,307.22467 454.1747,307.03277 452.83784,305.84163 z M 440.92626,298.69467 C 442.83924,296.30502 448.31343,298.88702 448.46326,294.90491 C 447.8599,291.35018 453.17551,290.04398 454.60952,292.17233 C 454.51024,290.1996 451.75037,287.43534 455.28806,286.59985 C 458.48977,285.96452 461.65794,283.87027 459.84399,280.27979 C 459.68792,276.71259 462.63649,274.13654 463.59005,270.89129 C 465.67441,268.66768 463.29653,265.88438 462.37486,263.70772 C 461.23803,261.99144 461.50224,257.66374 464.01017,257.92056 C 465.88658,259.20461 463.35407,263.67563 466.24453,263.37382 C 466.9223,261.06001 470.22225,258.59784 468.0451,256.2317 C 466.47562,254.59837 468.04645,248.52007 463.65764,249.60775 C 461.07157,249.88349 458.68696,247.50336 455.97905,247.32595 C 453.04291,246.38675 450.86149,248.70512 448.45341,249.75389 C 444.61621,250.84148 440.47285,248.55746 436.76985,250.38508 C 435.97196,254.48399 432.46328,257.09238 429.602,259.75905 C 427.8201,261.85146 431.1503,265.56558 432.37246,262.12597 C 435.43816,263.66877 432.37985,267.13502 431.33961,269.12749 C 430.99061,271.33325 428.41353,274.61789 426.42434,271.8945 C 425.9418,270.35343 430.31707,267.35643 427.40236,266.94107 C 423.7983,268.35537 423.86827,273.32256 426.09668,275.2222 C 423.68754,278.76753 419.31419,280.71379 417.67052,284.81664 C 420.00846,287.51647 422.53917,290.06285 425.33692,292.28814 C 427.17767,290.66568 429.36676,290.73143 429.35285,293.60215 C 431.69124,296.81543 436.35211,296.38287 439.13431,299.05241 C 439.82693,299.6513 441.03276,300.25069 440.92626,298.69467 z M 438.54395,292.73888 C 438.53431,288.09907 433.84278,295.09234 432.50998,292.02512 C 431.62952,288.83314 435.80181,288.00566 437.99468,287.10279 C 441.49109,285.61002 445.98968,284.04152 449.43024,286.48999 C 450.17543,288.22457 443.76349,288.13346 445.54838,291.51586 C 446.99733,295.6309 441.67728,295.88407 439.09909,295.008 C 438.19897,294.62937 438.11681,293.50292 438.54395,292.73888 z M 424.25003,285.59196 C 424.0649,282.5055 430.16465,281.19822 427.75973,278.04999 C 426.17117,275.53779 431.5618,275.99686 433.2127,275.62373 C 434.48772,274.61526 435.85438,273.6888 436.45791,276.02103 C 437.09538,278.93017 433.10809,281.41228 435.4817,283.89083 C 434.89487,287.22558 430.67477,284.35425 428.85729,286.82943 C 426.99972,288.05507 424.04602,289.04064 424.25003,285.59196 z M 455.22014,279.63617 C 453.00774,276.8504 459.40548,275.52684 457.84824,279.08394 C 459.22384,281.47277 454.73341,284.61555 455.25277,280.60561 C 455.22704,280.28295 455.22675,279.95952 455.22014,279.63617 z M 440.92626,278.445 C 441.95217,276.4302 443.69532,273.49398 441.27583,272.09285 C 441.2618,270.58177 437.25892,266.07702 440.98096,267.59794 C 442.58233,270.82267 446.39774,272.45354 449.04459,269.72946 C 453.37701,270.14425 445.90001,275.838 450.22883,276.53633 C 453.06265,277.9153 451.64005,282.86016 448.74861,280.24434 C 447.05363,277.74507 443.56379,278.13383 442.14013,280.51466 C 441.09624,280.61546 440.71088,279.24753 440.92626,278.445 z M 452.83784,271.29803 C 451.47598,268.99235 456.50025,268.5934 455.66682,271.0747 C 458.69197,268.99924 460.53629,275.09752 456.54404,273.86449 C 454.93796,273.83719 451.4871,273.94669 452.83784,271.29803 z M 433.7793,259.38646 C 434.69251,254.71385 441.58597,252.64271 445.00219,255.88627 C 442.26107,257.77508 437.61654,256.88587 436.10497,260.47314 C 435.30318,262.71144 433.30242,261.29849 433.7793,259.38646 z M 464.74941,295.12119 C 464.96463,291.74289 459.53915,289.31269 458.30349,293.18744 C 458.12435,295.7834 463.15343,295.68766 464.27885,297.30166 C 464.85747,296.74533 464.72988,295.83893 464.74941,295.12119 z "
         style="fill:#717171" />
      <path
         id="path5960"
         d="M 452.83784,305.84163 C 451.35565,302.48443 446.25381,301.15315 443.8269,304.24757 C 440.26023,304.92395 435.69744,305.7621 432.97196,302.69899 C 430.98302,298.08856 426.97226,303.29488 423.85912,302.58276 C 421.57547,301.50157 421.18125,298.55928 420.13392,296.4661 C 419.12738,294.16768 418.18643,291.26437 415.41876,290.62017 C 411.59112,290.21569 411.43595,285.97539 412.38113,283.11719 C 413.85896,279.43372 417.87063,277.60065 419.49177,274.00464 C 419.34333,269.32961 422.41235,265.39359 425.0661,261.84854 C 427.86951,258.90613 428.45646,254.65213 430.69148,251.35025 C 431.33223,248.56739 427.45637,247.15017 425.26218,247.73097 C 423.69702,249.28932 427.84842,251.52984 424.94487,253.22867 C 422.14231,255.69581 417.99887,251.20821 421.40036,249.04813 C 422.98141,247.22569 425.14005,244.55971 427.86151,245.4048 C 429.48717,246.59466 432.27901,251.21404 434.05319,247.83385 C 433.74392,244.7812 436.90282,242.84175 439.63052,242.74621 C 443.53121,242.59786 447.4408,242.91251 451.349,242.7021 C 455.43782,242.64366 459.53853,242.63951 463.61003,243.06915 C 466.10573,246.23823 471.44117,244.16348 473.62927,247.68939 C 474.60684,250.11352 473.61811,252.90606 474.82472,255.32066 C 475.5599,257.55445 477.2756,259.24713 478.73329,260.97305 C 480.57797,264.97568 482.45361,269.05662 485.50379,272.30404 C 487.50973,275.62139 485.49776,279.52918 486.20996,283.09532 C 486.24423,286.86152 486.21148,290.63404 485.88197,294.38835 C 482.31075,296.4622 480.85409,301.52324 476.41373,302.16416 C 471.95412,301.91862 468.80343,305.91087 464.65034,306.90357 C 462.39189,307.00351 460.05087,306.90177 457.75893,307.16003 C 456.04475,307.22467 454.1747,307.03277 452.83784,305.84163 z M 443.30857,298.69467 C 447.12143,298.00923 448.93542,294.63733 450.16866,291.53199 C 451.69689,289.24978 455.58219,294.36192 454.40965,290.82328 C 451.87016,288.49153 454.47642,286.49631 456.96203,286.06679 C 460.91,284.57615 460.84856,280.02207 463.1469,277.06988 C 464.55842,273.59551 466.88799,270.41765 467.15881,266.56588 C 467.53124,263.99438 467.87692,261.2948 469.36452,259.08769 C 470.14994,255.33043 466.68632,252.68145 465.67933,249.36258 C 461.65491,245.99827 456.20591,248.08218 451.5109,247.48313 C 447.20515,248.13422 442.3489,246.07637 438.46811,248.72995 C 436.67119,250.47811 436.28706,253.30143 434.38336,255.08218 C 432.82874,257.18944 430.49728,258.64237 429.03598,260.77868 C 428.09823,263.52189 433.8322,266.17424 430.34584,268.30818 C 428.82676,268.22105 426.41166,265.72133 425.40324,268.64827 C 423.52802,271.51382 424.79167,275.96781 421.4604,277.93783 C 418.75441,279.19885 415.93869,282.70413 418.01582,285.63173 C 421.22258,287.04653 421.17583,290.92366 423.5006,292.92766 C 426.10817,292.44393 428.84482,293.10327 430.64129,295.22461 C 432.4034,297.23292 434.74808,298.50449 437.19572,299.32914 C 439.0379,300.26567 442.02657,300.77583 443.30857,298.69467 z M 438.54395,292.73888 C 438.53431,288.09907 433.84278,295.09234 432.50998,292.02512 C 431.62952,288.83314 435.80181,288.00566 437.99468,287.10279 C 441.49109,285.61002 445.98968,284.04152 449.43024,286.48999 C 450.17543,288.22457 443.76349,288.13346 445.54838,291.51586 C 446.99733,295.6309 441.67728,295.88407 439.09909,295.008 C 438.19897,294.62937 438.11681,293.50292 438.54395,292.73888 z M 424.25003,285.59196 C 424.0873,282.53065 429.6833,281.46494 427.98844,278.31966 C 425.39318,276.11735 430.26709,275.15301 431.53086,277.12147 C 434.26204,280.54146 433.81081,271.23348 436.12278,275.1306 C 436.33118,277.92145 431.3225,281.72517 435.56587,283.74904 C 435.0807,288.82087 429.52452,281.37272 428.20156,285.32286 C 427.11364,286.70844 424.31507,289.11349 424.25003,285.59196 z M 440.92626,278.445 C 439.78823,275.40585 448.05012,275.91466 443.97328,273.21696 C 443.07086,271.14877 438.30588,269.61057 439.75741,267.2292 C 441.68635,267.96611 443.31677,271.73724 446.38182,271.15193 C 448.22412,271.13388 450.28558,267.79206 450.44182,271.35537 C 449.30338,273.81191 448.24986,276.48023 450.63151,278.52215 C 450.95367,281.21107 447.08626,280.24265 447.80146,277.83983 C 445.95833,273.47289 443.04193,283.41813 440.93697,279.40861 L 440.91493,278.919 L 440.92626,278.445 L 440.92626,278.445 z M 455.22014,272.48921 C 451.5984,271.07654 454.48061,267.37637 456.44981,271.04498 C 458.21431,272.58602 456.28611,275.06686 455.22014,272.48921 z M 426.63237,270.1069 C 427.57571,266.85521 429.60171,271.80541 427.45862,271.20758 C 427.11553,270.89523 426.86683,270.50158 426.63237,270.1069 z M 431.39699,262.95994 C 432.34037,259.70825 434.36637,264.65844 432.22328,264.06066 C 431.88019,263.74831 431.63145,263.35466 431.39699,262.95994 z M 433.7793,258.19532 C 434.84723,256.00804 439.37225,252.54983 440.5301,256.33619 C 437.946,255.6949 436.04727,259.52964 433.89515,258.71316 C 433.8443,258.54736 433.82054,258.36621 433.7793,258.19532 z M 464.74941,295.12119 C 464.96463,291.74289 459.53915,289.31269 458.30349,293.18744 C 458.12435,295.7834 463.15343,295.68766 464.27885,297.30166 C 464.85747,296.74533 464.72988,295.83893 464.74941,295.12119 z "
         style="fill:#545454" />
      <path
         id="path5954"
         d="M 452.83784,305.84163 C 451.35565,302.48443 446.25381,301.15315 443.8269,304.24757 C 440.26023,304.92395 435.69744,305.7621 432.97196,302.69899 C 430.98302,298.08856 426.97226,303.29488 423.85912,302.58276 C 421.57547,301.50157 421.18125,298.55928 420.13392,296.4661 C 419.12738,294.16768 418.18643,291.26437 415.41876,290.62017 C 411.59112,290.21569 411.43595,285.97539 412.38113,283.11719 C 413.85896,279.43372 417.87063,277.60065 419.49177,274.00464 C 419.34333,269.32961 422.41235,265.39359 425.0661,261.84854 C 427.86951,258.90613 428.45646,254.65213 430.69148,251.35025 C 431.33223,248.56739 427.45637,247.15017 425.26218,247.73097 C 423.69702,249.28932 427.84842,251.52984 424.94487,253.22867 C 422.14231,255.69581 417.99887,251.20821 421.40036,249.04813 C 422.98141,247.22569 425.14005,244.55971 427.86151,245.4048 C 429.48717,246.59466 432.27901,251.21404 434.05319,247.83385 C 433.74392,244.7812 436.90282,242.84175 439.63052,242.74621 C 443.53121,242.59786 447.4408,242.91251 451.349,242.7021 C 455.43782,242.64366 460.32643,241.26979 463.61003,243.06915 C 466.89363,244.86851 472.04643,244.71437 473.62927,247.68939 C 475.21211,250.66441 473.85382,252.99647 474.82472,255.32066 C 475.79561,257.64486 477.0821,258.10877 478.73329,260.97305 C 480.38447,263.83732 482.45361,269.05662 485.50379,272.30404 C 487.50973,275.62139 485.49776,279.52918 486.20996,283.09532 C 486.24423,286.86152 486.21148,290.63404 485.88197,294.38835 C 482.31075,296.4622 480.85409,301.52324 476.41373,302.16416 C 471.95412,301.91862 468.80343,305.91087 464.65034,306.90357 C 462.39189,307.00351 460.05087,306.90177 457.75893,307.16003 C 456.04475,307.22467 454.1747,307.03277 452.83784,305.84163 z M 445.69087,301.07698 C 448.84805,300.30724 447.47019,296.32673 448.43515,294.05761 C 449.9292,293.06022 452.19988,295.50343 453.66626,293.25717 C 454.8434,291.4028 459.66539,288.49145 459.18182,292.18325 C 456.4281,294.33861 459.90695,297.70837 462.50672,297.49648 C 465.22367,297.87412 468.23909,293.45675 464.59268,292.4626 C 461.43025,291.21717 459.12018,287.87253 455.67872,286.64245 C 459.47899,285.04548 463.82713,285.18985 467.80153,285.94314 C 471.08929,287.11514 472.38138,290.97209 475.63123,292.20368 C 477.65271,289.85322 475.98019,285.50475 478.77621,283.83395 C 478.17445,279.60071 482.83897,276.27121 481.35806,271.99029 C 480.36346,267.41146 478.12149,262.53791 475.40994,259.49895 C 472.69839,256.45999 473.3848,253.30744 471.00553,250.03755 C 468.62626,246.76766 463.04463,244.74913 457.00951,245.10201 C 450.97439,245.45489 443.11084,244.99728 436.1616,245.09257 C 437.14081,248.68752 433.60447,251.01446 431.76216,253.53996 C 430.2233,256.56601 429.12303,259.83436 427.0376,262.62551 C 425.27433,264.63443 423.6346,266.77358 422.80416,269.36289 C 421.93941,271.35249 421.78318,273.60532 421.09207,275.5989 C 419.01752,278.51132 414.78441,280.17851 414.45863,284.1188 C 414.56021,286.90194 416.92048,288.84874 418.54733,290.87893 C 420.94818,293.60748 424.12797,295.43293 427.524,296.6337 C 430.86237,297.40742 432.41736,300.51453 435.26723,301.90536 C 438.28749,302.84209 441.53754,302.22457 444.58445,301.9077 C 445.01409,301.7103 445.35427,301.40168 445.69087,301.07698 z M 440.92626,293.93006 C 439.64562,291.1417 435.85327,290.34373 434.09042,292.8966 C 430.53171,293.35296 432.45868,288.79403 435.07282,289.79409 C 438.189,288.12562 441.3046,286.31512 444.67527,285.23204 C 447.09837,284.27188 451.97527,287.62457 447.31834,288.26672 C 444.32077,288.9499 444.9371,296.23242 441.09095,294.288 C 441.03604,294.1687 440.98113,294.04936 440.92626,293.93006 z M 443.30857,290.35657 C 442.72576,285.15431 438.46405,294.3059 442.95743,292.16269 C 443.51565,291.77778 443.56999,290.93027 443.30857,290.35657 z M 450.45553,291.54775 C 450.78011,289.61466 456.2962,287.12508 453.89785,290.6475 C 453.1703,291.57311 450.78032,294.23863 450.45553,291.54775 z M 424.25003,286.78309 C 426.69381,285.0591 429.65326,282.20012 428.49286,278.91552 C 427.74795,277.76477 426.13025,276.19447 428.61233,277.09098 C 430.96698,279.36826 434.32135,278.76273 434.02118,275.13889 C 436.10345,272.81469 437.29606,278.06259 434.73301,278.66464 C 432.48199,280.66934 434.91683,283.30782 435.65829,284.67579 C 433.58169,285.65606 430.97941,280.86477 428.77587,284.36705 C 427.69173,285.0589 425.30228,289.93255 424.25003,286.78309 z M 471.89634,282.01848 C 469.68393,279.23275 476.08168,277.90914 474.52443,281.46625 C 475.90004,283.85508 471.40965,286.99785 471.92896,282.98792 C 471.90327,282.66526 471.90298,282.34187 471.89634,282.01848 z M 440.92626,279.63617 C 443.18397,278.35639 446.04431,275.29701 444.06144,272.69317 C 442.64959,272.17398 439.4554,269.28496 442.79118,269.4927 C 444.34863,270.63368 446.51794,275.2421 448.31593,271.51879 C 447.74975,268.3811 451.47179,269.77468 450.55017,272.20435 C 450.2633,274.09423 447.48402,274.32741 449.45712,276.39142 C 450.86473,277.45447 451.25211,281.13978 448.97388,280.38005 C 448.28609,278.48444 446.26067,274.3909 444.71249,278.15054 C 443.93364,279.03584 441.56812,282.41385 440.92626,279.63617 z M 476.66099,273.68038 C 477.2438,268.47812 481.50551,277.6297 477.01209,275.48645 C 476.45386,275.10154 476.39953,274.25403 476.66099,273.68038 z M 455.22014,301.07698 C 454.27677,297.82529 452.25076,302.77552 454.39385,302.1777 C 454.73694,301.86535 454.98564,301.4717 455.22014,301.07698 z M 476.66099,298.69467 C 475.71761,295.44298 473.69161,300.39318 475.8347,299.79539 C 476.17779,299.48304 476.42649,299.08939 476.66099,298.69467 z M 424.25003,251.04836 C 423.30669,247.79667 421.28065,252.74687 423.42377,252.14908 C 423.76682,251.83673 424.01557,251.44308 424.25003,251.04836 z "
         style="fill:#353535"
         sodipodi:nodetypes="cccccccccccccccsczzzzcccccccccccccccccczzzccccccccccccccccccccccccccccccccccccccccccccccccccccccccc" />
      <path
         id="path5958"
         d="M 444.01503,290.25295 C 444.08269,293.35874 442.56103,294.40721 441.07692,292.8966 C 439.55625,291.34877 439.13303,288.51652 442.02992,287.4949 C 444.9268,286.47328 443.94738,287.14791 444.01503,290.25295 z "
         style="fill:#753232"
         sodipodi:nodetypes="czzz" />
      <path
         id="path5952"
         d="M 452.83784,305.84163 C 451.35565,302.48443 446.25381,301.15315 443.8269,304.24757 C 440.26023,304.92395 435.69744,305.7621 432.97196,302.69899 C 430.98302,298.08856 426.97226,303.29488 423.85912,302.58276 C 421.57547,301.50157 421.18125,298.55928 420.13392,296.4661 C 419.12738,294.16768 418.18643,291.26437 415.41876,290.62017 C 411.59112,290.21569 411.43595,285.97539 412.38113,283.11719 C 413.85896,279.43372 417.87063,277.60065 419.49177,274.00464 C 419.34333,269.32961 422.41235,265.39359 425.0661,261.84854 C 427.86951,258.90613 428.45646,254.65213 430.69148,251.35025 C 431.33223,248.56739 427.45637,247.15017 425.26218,247.73097 C 423.69702,249.28932 427.84842,251.52984 424.94487,253.22867 C 422.14231,255.69581 417.99887,251.20821 421.40036,249.04813 C 422.98141,247.22569 425.14005,244.55971 427.86151,245.4048 C 429.48717,246.59466 432.27901,251.21404 434.05319,247.83385 C 433.74392,244.7812 436.90282,242.84175 439.63052,242.74621 C 443.53121,242.59786 447.35049,242.83652 451.349,242.7021 C 455.34751,242.56767 460.32643,241.26979 463.61003,243.06915 C 466.89363,244.86851 472.04643,244.71437 473.62927,247.68939 C 475.21211,250.66441 473.85382,252.99647 474.82472,255.32066 C 475.79561,257.64486 477.0821,258.10877 478.73329,260.97305 C 480.38447,263.83732 482.45361,269.05662 485.50379,272.30404 C 487.50973,275.62139 485.49776,279.52918 486.20996,283.09532 C 486.24423,286.86152 486.21148,290.63404 485.88197,294.38835 C 482.31075,296.4622 480.85409,301.52324 476.41373,302.16416 C 471.95412,301.91862 468.80343,305.91087 464.65034,306.90357 C 462.39189,307.00351 460.05087,306.90177 457.75893,307.16003 C 456.04475,307.22467 454.1747,307.03277 452.83784,305.84163 z M 459.98476,303.45933 C 459.36613,300.69523 452.94454,300.42486 454.06537,298.11113 C 456.64455,296.50747 459.80349,295.17232 462.12571,297.47514 C 465.4706,297.02292 467.69487,293.94975 468.96894,291.07949 C 467.59112,287.71096 463.42991,287.63495 460.35748,287.95194 C 458.45513,288.81628 454.11351,287.27356 457.49119,285.57862 C 460.14847,285.32241 462.9179,285.46814 465.61486,285.58831 C 468.45291,285.57583 470.58988,287.48918 472.50717,289.21407 C 475.55473,291.61903 472.99123,295.97855 474.80912,298.92835 C 476.63391,301.27265 479.28211,298.39795 480.88659,297.1405 C 483.01971,295.23171 484.01447,292.37145 483.79035,289.54596 C 483.94757,284.1527 484.9472,277.73398 483.83484,273.36417 C 482.72248,268.99436 477.96119,266.7815 477.1879,262.81113 C 476.41462,258.84076 471.47143,256.18067 471.9453,253.32544 C 472.41917,250.47021 471.59436,248.19049 467.87622,247.3635 C 464.15808,246.53651 459.93426,244.44271 454.8008,245.10886 C 449.66734,245.77501 441.53241,243.98288 437.51267,245.24659 C 433.49292,246.5103 435.3931,251.07253 432.47038,252.67431 C 430.25564,255.48421 429.44449,259.06466 427.61798,262.09806 C 424.66194,264.27128 423.55293,267.91814 422.03893,271.08992 C 422.79583,275.06005 419.10567,277.65318 416.61625,280.05707 C 414.44723,281.71688 413.77299,284.94468 415.45048,287.19029 C 417.0564,289.57818 419.28871,291.47527 421.3319,293.46225 C 424.87965,296.1661 429.63052,296.7858 432.85114,299.97634 C 434.92295,301.83239 437.77815,303.45912 440.62129,302.41384 C 444.20134,302.90328 448.31146,300.35505 448.21378,296.45957 C 447.23031,293.92882 450.3059,292.00834 451.5668,294.87126 C 453.7522,297.61086 448.44364,300.03835 451.72772,302.68635 C 453.70057,304.81273 457.88103,306.0678 459.98476,303.45933 z M 440.92626,293.93006 C 439.64562,291.1417 435.85327,290.34373 434.09042,292.8966 C 430.53171,293.35296 432.45868,288.79403 435.07282,289.79409 C 438.189,288.12562 441.3046,286.31512 444.67527,285.23204 C 447.09837,284.27188 451.97527,287.62457 447.31834,288.26672 C 444.32077,288.9499 444.9371,296.23242 441.09095,294.288 C 441.03604,294.1687 440.98113,294.04936 440.92626,293.93006 z M 443.30857,290.35657 C 442.72576,285.15431 438.46405,294.3059 442.95743,292.16269 C 443.51565,291.77778 443.56999,290.93027 443.30857,290.35657 z M 450.45553,291.54775 C 450.78011,289.61466 456.2962,287.12508 453.89785,290.6475 C 453.1703,291.57311 450.78032,294.23863 450.45553,291.54775 z M 424.25003,286.78309 C 426.73711,285.09825 429.62789,282.14127 428.4762,278.87185 C 427.94925,277.72824 426.10854,276.30848 428.54338,276.92608 C 431.13405,278.80097 432.96458,281.67814 435.46828,283.6198 C 434.92011,287.36483 431.52462,280.87154 429.48196,283.66162 C 428.28278,284.39816 425.28845,290.18999 424.25003,286.78309 z M 440.92626,279.63617 C 443.18397,278.35639 446.04431,275.29701 444.06144,272.69317 C 442.64959,272.17398 439.4554,269.28496 442.79118,269.4927 C 444.3488,270.6334 446.51708,275.24177 448.31593,271.51944 C 447.77105,268.29923 451.52092,269.85869 450.5436,272.28893 C 450.31095,274.22563 447.07596,273.91119 449.19065,276.06191 C 450.86831,277.30931 449.46381,279.36006 448.34601,277.12057 C 445.66703,274.80901 444.38483,279.77661 442.1911,280.57881 C 441.5675,280.727 441.15551,280.10628 440.92626,279.63617 z M 433.7793,276.06269 C 434.3621,270.86043 438.62381,280.01201 434.13043,277.8688 C 433.57221,277.48389 433.51787,276.63638 433.7793,276.06269 z M 424.25003,251.04836 C 423.30669,247.79667 421.28065,252.74687 423.42377,252.14908 C 423.76682,251.83673 424.01557,251.44308 424.25003,251.04836 z "
         style="fill:#030303"
         sodipodi:nodetypes="cccccccccccccccszzzzzcccccccccccccccccczzzzzzcccccccccccccccccccccccccccccccccccccccccccccc" />
    </g>
    <path
       inkscape:export-ydpi="40.047569"
       inkscape:export-xdpi="40.047569"
       inkscape:export-filename="/home/adam/dalek-icon.png"
       transform="matrix(1.068198,0,0,1.068198,-352.5835,-265.0179)"
       d="M 335.13506 255.4435 A 0.48045743 0.48045743 0 1 1  334.17414,255.4435 A 0.48045743 0.48045743 0 1 1  335.13506 255.4435 z"
       sodipodi:ry="0.48045743"
       sodipodi:rx="0.48045743"
       sodipodi:cy="255.4435"
       sodipodi:cx="334.6546"
       id="path2406"
       style="fill:#f11e1e;fill-opacity:1;fill-rule:evenodd;stroke:none;stroke-width:3.86249995;stroke-linejoin:round;stroke-miterlimit:4;stroke-dashoffset:0;stroke-opacity:1"
       sodipodi:type="arc" />
  </g>
</svg>
