<?xml version="1.0" encoding="UTF-8" standalone="no"?>
<!-- Created with Inkscape (http://www.inkscape.org/) -->
<svg
   xmlns:dc="http://purl.org/dc/elements/1.1/"
   xmlns:cc="http://web.resource.org/cc/"
   xmlns:rdf="http://www.w3.org/1999/02/22-rdf-syntax-ns#"
   xmlns:svg="http://www.w3.org/2000/svg"
   xmlns="http://www.w3.org/2000/svg"
   xmlns:xlink="http://www.w3.org/1999/xlink"
   xmlns:sodipodi="http://inkscape.sourceforge.net/DTD/sodipodi-0.dtd"
   xmlns:inkscape="http://www.inkscape.org/namespaces/inkscape"
   width="32"
   height="42"
   id="svg11662"
   sodipodi:version="0.32"
   inkscape:version="0.43"
   version="1.0"
   sodipodi:docbase="/home/adam/workspace/Escape-j2se/src/org/spacebar/escape/j2se/resources/animation"
   sodipodi:docname="hugbot_asleep.svg">
  <defs
     id="defs11664" />
  <sodipodi:namedview
     id="base"
     pagecolor="#ffffff"
     bordercolor="#666666"
     borderopacity="1.0"
     inkscape:pageopacity="0.0"
     inkscape:pageshadow="2"
     inkscape:zoom="22.4"
     inkscape:cx="20.97595"
     inkscape:cy="10.872945"
     inkscape:document-units="px"
     inkscape:current-layer="layer1"
     inkscape:window-width="792"
     inkscape:window-height="747"
     inkscape:window-x="732"
     inkscape:window-y="211" />
  <metadata
     id="metadata11667">
    <rdf:RDF>
      <cc:Work
         rdf:about="">
        <dc:format>image/svg+xml</dc:format>
        <dc:type
           rdf:resource="http://purl.org/dc/dcmitype/StillImage" />
      </cc:Work>
    </rdf:RDF>
  </metadata>
  <g
     inkscape:label="Layer 1"
     inkscape:groupmode="layer"
     id="layer1">
    <use
       x="0"
       y="0"
       xlink:href="#g8120"
       id="use8124"
       transform="translate(6.439722,0.757615)"
       width="32"
       height="42" />
    <rect
       style="opacity:1;fill:#a6a6a6;fill-opacity:1;stroke:none;stroke-opacity:1"
       id="rect14393"
       width="3.0764952"
       height="2.4848616"
       x="3.6774719"
       y="44.318321"
       rx="0"
       ry="2.6516504" />
    <path
       transform="translate(-400,-700.3622)"
       sodipodi:nodetypes="cczzczcscszcccsczscc"
       id="path6745"
       d="M -0.80418748,36.950723 C -1.8240975,35.861233 -0.58646748,34.200723 1.0824625,34.200723 C 1.8121325,34.200723 3.6184925,34.295893 4.4994925,35.533903 C 5.4217325,36.829893 8.0023425,35.548173 8.3924025,36.664433 C 8.8101025,37.859783 6.1149625,37.143493 4.9762425,37.383023 C 0.79017252,38.220243 0.21572252,38.040213 -0.80418748,36.950723 z M -5.2702375,29.263223 C -5.3977075,29.056973 -5.5288275,28.181973 -4.8318275,28.046033 C -4.1348375,27.910093 -4.0472275,28.950723 -2.8622475,28.950723 C -2.2697575,28.950723 -0.48285748,29.034313 0.36804252,28.822403 C 1.2189425,28.610483 1.4381325,27.881573 1.9608825,27.983533 C 2.4836325,28.085493 2.9017625,29.056973 2.7742925,29.263223 C 2.1709825,30.239403 -4.6669275,30.239403 -5.2702375,29.263223 z M 7.4204025,29.263223 C 7.2929325,29.056973 7.3493125,28.056973 8.0463125,27.921033 C 8.7433025,27.785093 9.1295525,28.914113 10.314533,28.914113 C 11.499513,28.914113 13.050343,29.087083 13.737693,28.858533 C 14.453123,28.620643 14.800423,27.772993 15.180633,27.960293 C 15.560843,28.147593 15.484473,29.160093 15.420743,29.263223 C 14.817433,30.239403 8.0237125,30.239403 7.4204025,29.263223 z "
       style="fill:#080502" />
    <path
       transform="translate(-400,-700.3622)"
       sodipodi:nodetypes="cczzczcscszcccsczscc"
       id="path7189"
       d="M -1.3723983,36.887589 C -2.3923083,35.798099 -1.1546783,34.137589 0.51425172,34.137589 C 1.2439217,34.137589 3.0502817,34.232759 3.9312817,35.470769 C 4.8535217,36.766759 7.4341317,35.485039 7.8241917,36.601299 C 8.2418917,37.796649 5.5467517,37.080359 4.4080317,37.319889 C 0.22196172,38.157109 -0.35248828,37.977079 -1.3723983,36.887589 z M -5.8384483,29.200089 C -5.9659183,28.993839 -6.0970383,28.118839 -5.4000383,27.982899 C -4.7030483,27.846959 -4.6154383,28.887589 -3.4304583,28.887589 C -2.8379683,28.887589 -1.0510683,28.971179 -0.20016828,28.759269 C 0.65073172,28.547349 0.86992172,27.818439 1.3926717,27.920399 C 1.9154217,28.022359 2.3335517,28.993839 2.2060817,29.200089 C 1.6027717,30.176269 -5.2351383,30.176269 -5.8384483,29.200089 z M 6.8521917,29.200089 C 6.7247217,28.993839 6.7811017,27.993839 7.4781017,27.857899 C 8.1750917,27.721959 8.5613417,28.850979 9.7463217,28.850979 C 10.931302,28.850979 12.482132,29.023949 13.169482,28.795399 C 13.884912,28.557509 14.232212,27.709859 14.612422,27.897159 C 14.992632,28.084459 14.916262,29.096959 14.852532,29.200089 C 14.249222,30.176269 7.4555017,30.176269 6.8521917,29.200089 z "
       style="fill:#080502" />
    <path
       transform="translate(-400,-700.3622)"
       sodipodi:nodetypes="cczzczcscszcccsczscc"
       id="path7191"
       d="M -1.3723983,36.887589 C -2.3923083,35.798099 -1.1546783,34.137589 0.51425172,34.137589 C 1.2439217,34.137589 3.0502817,34.232759 3.9312817,35.470769 C 4.8535217,36.766759 7.4341317,35.485039 7.8241917,36.601299 C 8.2418917,37.796649 5.5467517,37.080359 4.4080317,37.319889 C 0.22196172,38.157109 -0.35248828,37.977079 -1.3723983,36.887589 z M -5.8384483,29.200089 C -5.9659183,28.993839 -6.0970383,28.118839 -5.4000383,27.982899 C -4.7030483,27.846959 -4.6154383,28.887589 -3.4304583,28.887589 C -2.8379683,28.887589 -1.0510683,28.971179 -0.20016828,28.759269 C 0.65073172,28.547349 0.86992172,27.818439 1.3926717,27.920399 C 1.9154217,28.022359 2.3335517,28.993839 2.2060817,29.200089 C 1.6027717,30.176269 -5.2351383,30.176269 -5.8384483,29.200089 z M 6.8521917,29.200089 C 6.7247217,28.993839 6.7811017,27.993839 7.4781017,27.857899 C 8.1750917,27.721959 8.5613417,28.850979 9.7463217,28.850979 C 10.931302,28.850979 12.482132,29.023949 13.169482,28.795399 C 13.884912,28.557509 14.232212,27.709859 14.612422,27.897159 C 14.992632,28.084459 14.916262,29.096959 14.852532,29.200089 C 14.249222,30.176269 7.4555017,30.176269 6.8521917,29.200089 z "
       style="fill:#080502" />
    <path
       transform="translate(-400,-700.3622)"
       sodipodi:nodetypes="cczzczcscszcccsczscc"
       id="path7193"
       d="M -1.3723983,36.887589 C -2.3923083,35.798099 -1.1546783,34.137589 0.51425172,34.137589 C 1.2439217,34.137589 3.0502817,34.232759 3.9312817,35.470769 C 4.8535217,36.766759 7.4341317,35.485039 7.8241917,36.601299 C 8.2418917,37.796649 5.5467517,37.080359 4.4080317,37.319889 C 0.22196172,38.157109 -0.35248828,37.977079 -1.3723983,36.887589 z M -5.8384483,29.200089 C -5.9659183,28.993839 -6.0970383,28.118839 -5.4000383,27.982899 C -4.7030483,27.846959 -4.6154383,28.887589 -3.4304583,28.887589 C -2.8379683,28.887589 -1.0510683,28.971179 -0.20016828,28.759269 C 0.65073172,28.547349 0.86992172,27.818439 1.3926717,27.920399 C 1.9154217,28.022359 2.3335517,28.993839 2.2060817,29.200089 C 1.6027717,30.176269 -5.2351383,30.176269 -5.8384483,29.200089 z M 6.8521917,29.200089 C 6.7247217,28.993839 6.7811017,27.993839 7.4781017,27.857899 C 8.1750917,27.721959 8.5613417,28.850979 9.7463217,28.850979 C 10.931302,28.850979 12.482132,29.023949 13.169482,28.795399 C 13.884912,28.557509 14.232212,27.709859 14.612422,27.897159 C 14.992632,28.084459 14.916262,29.096959 14.852532,29.200089 C 14.249222,30.176269 7.4555017,30.176269 6.8521917,29.200089 z "
       style="fill:#080502" />
    <path
       transform="translate(-400,-700.3622)"
       sodipodi:nodetypes="cczzczcscszcccsczscc"
       id="path7195"
       d="M -1.3723983,36.887589 C -2.3923083,35.798099 -1.1546783,34.137589 0.51425172,34.137589 C 1.2439217,34.137589 3.0502817,34.232759 3.9312817,35.470769 C 4.8535217,36.766759 7.4341317,35.485039 7.8241917,36.601299 C 8.2418917,37.796649 5.5467517,37.080359 4.4080317,37.319889 C 0.22196172,38.157109 -0.35248828,37.977079 -1.3723983,36.887589 z M -5.8384483,29.200089 C -5.9659183,28.993839 -6.0970383,28.118839 -5.4000383,27.982899 C -4.7030483,27.846959 -4.6154383,28.887589 -3.4304583,28.887589 C -2.8379683,28.887589 -1.0510683,28.971179 -0.20016828,28.759269 C 0.65073172,28.547349 0.86992172,27.818439 1.3926717,27.920399 C 1.9154217,28.022359 2.3335517,28.993839 2.2060817,29.200089 C 1.6027717,30.176269 -5.2351383,30.176269 -5.8384483,29.200089 z M 6.8521917,29.200089 C 6.7247217,28.993839 6.7811017,27.993839 7.4781017,27.857899 C 8.1750917,27.721959 8.5613417,28.850979 9.7463217,28.850979 C 10.931302,28.850979 12.482132,29.023949 13.169482,28.795399 C 13.884912,28.557509 14.232212,27.709859 14.612422,27.897159 C 14.992632,28.084459 14.916262,29.096959 14.852532,29.200089 C 14.249222,30.176269 7.4555017,30.176269 6.8521917,29.200089 z "
       style="fill:#080502" />
    <path
       transform="translate(-400,-700.3622)"
       sodipodi:nodetypes="cczzczcscszcccsczscc"
       id="path7197"
       d="M -1.3723983,36.887589 C -2.3923083,35.798099 -1.1546783,34.137589 0.51425172,34.137589 C 1.2439217,34.137589 3.0502817,34.232759 3.9312817,35.470769 C 4.8535217,36.766759 7.4341317,35.485039 7.8241917,36.601299 C 8.2418917,37.796649 5.5467517,37.080359 4.4080317,37.319889 C 0.22196172,38.157109 -0.35248828,37.977079 -1.3723983,36.887589 z M -5.8384483,29.200089 C -5.9659183,28.993839 -6.0970383,28.118839 -5.4000383,27.982899 C -4.7030483,27.846959 -4.6154383,28.887589 -3.4304583,28.887589 C -2.8379683,28.887589 -1.0510683,28.971179 -0.20016828,28.759269 C 0.65073172,28.547349 0.86992172,27.818439 1.3926717,27.920399 C 1.9154217,28.022359 2.3335517,28.993839 2.2060817,29.200089 C 1.6027717,30.176269 -5.2351383,30.176269 -5.8384483,29.200089 z M 6.8521917,29.200089 C 6.7247217,28.993839 6.7811017,27.993839 7.4781017,27.857899 C 8.1750917,27.721959 8.5613417,28.850979 9.7463217,28.850979 C 10.931302,28.850979 12.482132,29.023949 13.169482,28.795399 C 13.884912,28.557509 14.232212,27.709859 14.612422,27.897159 C 14.992632,28.084459 14.916262,29.096959 14.852532,29.200089 C 14.249222,30.176269 7.4555017,30.176269 6.8521917,29.200089 z "
       style="fill:#080502" />
    <path
       transform="translate(-400,-700.3622)"
       sodipodi:nodetypes="cczzczcscszcccsczscc"
       id="path7199"
       d="M -1.3723983,36.887589 C -2.3923083,35.798099 -1.1546783,34.137589 0.51425172,34.137589 C 1.2439217,34.137589 3.0502817,34.232759 3.9312817,35.470769 C 4.8535217,36.766759 7.4341317,35.485039 7.8241917,36.601299 C 8.2418917,37.796649 5.5467517,37.080359 4.4080317,37.319889 C 0.22196172,38.157109 -0.35248828,37.977079 -1.3723983,36.887589 z M -5.8384483,29.200089 C -5.9659183,28.993839 -6.0970383,28.118839 -5.4000383,27.982899 C -4.7030483,27.846959 -4.6154383,28.887589 -3.4304583,28.887589 C -2.8379683,28.887589 -1.0510683,28.971179 -0.20016828,28.759269 C 0.65073172,28.547349 0.86992172,27.818439 1.3926717,27.920399 C 1.9154217,28.022359 2.3335517,28.993839 2.2060817,29.200089 C 1.6027717,30.176269 -5.2351383,30.176269 -5.8384483,29.200089 z M 6.8521917,29.200089 C 6.7247217,28.993839 6.7811017,27.993839 7.4781017,27.857899 C 8.1750917,27.721959 8.5613417,28.850979 9.7463217,28.850979 C 10.931302,28.850979 12.482132,29.023949 13.169482,28.795399 C 13.884912,28.557509 14.232212,27.709859 14.612422,27.897159 C 14.992632,28.084459 14.916262,29.096959 14.852532,29.200089 C 14.249222,30.176269 7.4555017,30.176269 6.8521917,29.200089 z "
       style="fill:#080502" />
    <path
       transform="translate(-400,-700.3622)"
       sodipodi:nodetypes="cczzczcscszcccsczscc"
       id="path7201"
       d="M -9.264215,34.299073 C -10.284125,33.209583 -9.046495,31.549073 -7.377565,31.549073 C -6.647895,31.549073 -4.841535,31.644243 -3.960535,32.882253 C -3.038295,34.178243 -0.45768499,32.896523 -0.067624991,34.012783 C 0.35007501,35.208133 -2.345065,34.491843 -3.483785,34.731373 C -7.669855,35.568593 -8.244305,35.388563 -9.264215,34.299073 z M -13.730265,26.611573 C -13.857735,26.405323 -13.988855,25.530323 -13.291855,25.394383 C -12.594865,25.258443 -12.507255,26.299073 -11.322275,26.299073 C -10.729785,26.299073 -8.942885,26.382663 -8.091985,26.170753 C -7.241085,25.958833 -7.021895,25.229923 -6.499145,25.331883 C -5.976395,25.433843 -5.558265,26.405323 -5.685735,26.611573 C -6.289045,27.587753 -13.126955,27.587753 -13.730265,26.611573 z M -1.039625,26.611573 C -1.167095,26.405323 -1.110715,25.405323 -0.41371499,25.269383 C 0.28327501,25.133443 0.66952501,26.262463 1.854505,26.262463 C 3.039485,26.262463 4.590315,26.435433 5.277665,26.206883 C 5.993095,25.968993 6.340395,25.121343 6.720605,25.308643 C 7.100815,25.495943 7.024445,26.508443 6.960715,26.611573 C 6.357405,27.587753 -0.43631499,27.587753 -1.039625,26.611573 z "
       style="fill:#080502" />
    <path
       transform="translate(-400,-700.3622)"
       sodipodi:nodetypes="cczzczcscszcccsczscc"
       id="path7203"
       d="M -9.0748114,32.089364 C -10.094721,30.999874 -8.8570914,29.339364 -7.1881614,29.339364 C -6.4584914,29.339364 -4.6521314,29.434534 -3.7711314,30.672544 C -2.8488914,31.968534 -0.26828139,30.686814 0.12177861,31.803074 C 0.53947861,32.998424 -2.1556614,32.282134 -3.2943814,32.521664 C -7.4804514,33.358884 -8.0549014,33.178854 -9.0748114,32.089364 z M -13.540861,24.401864 C -13.668331,24.195614 -13.799451,23.320614 -13.102451,23.184674 C -12.405461,23.048734 -12.317851,24.089364 -11.132871,24.089364 C -10.540381,24.089364 -8.7534814,24.172954 -7.9025814,23.961044 C -7.0516814,23.749124 -6.8324914,23.020214 -6.3097414,23.122174 C -5.7869914,23.224134 -5.3688614,24.195614 -5.4963314,24.401864 C -6.0996414,25.378044 -12.937551,25.378044 -13.540861,24.401864 z M -0.85022139,24.401864 C -0.97769139,24.195614 -0.92131139,23.195614 -0.22431139,23.059674 C 0.47267861,22.923734 0.85892861,24.052754 2.0439086,24.052754 C 3.2288886,24.052754 4.7797186,24.225724 5.4670686,23.997174 C 6.1824986,23.759284 6.5297986,22.911634 6.9100086,23.098934 C 7.2902186,23.286234 7.2138486,24.298734 7.1501186,24.401864 C 6.5468086,25.378044 -0.24691139,25.378044 -0.85022139,24.401864 z "
       style="fill:#080502" />
    <path
       transform="translate(-400,-700.3622)"
       sodipodi:nodetypes="cczzczcscszcccsczscc"
       id="path7205"
       d="M -9.0748114,32.089364 C -10.094721,30.999874 -8.8570914,29.339364 -7.1881614,29.339364 C -6.4584914,29.339364 -4.6521314,29.434534 -3.7711314,30.672544 C -2.8488914,31.968534 -0.26828139,30.686814 0.12177861,31.803074 C 0.53947861,32.998424 -2.1556614,32.282134 -3.2943814,32.521664 C -7.4804514,33.358884 -8.0549014,33.178854 -9.0748114,32.089364 z M -13.540861,24.401864 C -13.668331,24.195614 -13.799451,23.320614 -13.102451,23.184674 C -12.405461,23.048734 -12.317851,24.089364 -11.132871,24.089364 C -10.540381,24.089364 -8.7534814,24.172954 -7.9025814,23.961044 C -7.0516814,23.749124 -6.8324914,23.020214 -6.3097414,23.122174 C -5.7869914,23.224134 -5.3688614,24.195614 -5.4963314,24.401864 C -6.0996414,25.378044 -12.937551,25.378044 -13.540861,24.401864 z M -0.85022139,24.401864 C -0.97769139,24.195614 -0.92131139,23.195614 -0.22431139,23.059674 C 0.47267861,22.923734 0.85892861,24.052754 2.0439086,24.052754 C 3.2288886,24.052754 4.7797186,24.225724 5.4670686,23.997174 C 6.1824986,23.759284 6.5297986,22.911634 6.9100086,23.098934 C 7.2902186,23.286234 7.2138486,24.298734 7.1501186,24.401864 C 6.5468086,25.378044 -0.24691139,25.378044 -0.85022139,24.401864 z "
       style="fill:#080502" />
    <g
       id="g8120"
       transform="translate(-0.757614,-0.694479)">
      <path
         style="fill:#696969;fill-opacity:1;stroke:none;stroke-width:0.30000001;stroke-linecap:round;stroke-linejoin:round;stroke-miterlimit:4;stroke-opacity:1"
         d="M 9.7836752,27.017174 L 10.100887,27.017174 C 11.395019,27.017174 12.436865,26.357161 12.436865,26.752876 L 12.436865,27.748094 C 12.436865,28.143809 11.395019,28.462381 10.100887,28.462381 L 9.7836752,28.462381 C 8.4895436,28.462381 7.4476976,28.143809 7.4476976,27.748094 L 7.4476976,26.752876 C 7.4476976,26.357161 8.4895436,27.017174 9.7836752,27.017174 z "
         id="rect8114"
         sodipodi:nodetypes="ccccccccc" />
      <path
         id="path7230"
         d="M 7.7772992,27.819306 C 7.3949667,26.994935 7.6171591,26.602116 8.0201577,26.602116 C 8.4488855,26.602116 7.9519037,27.757293 9.9220335,27.757293 C 11.878766,27.757293 11.425958,26.571184 11.917054,26.571184 C 12.394758,26.571184 12.333018,27.445713 12.133143,27.87511 C 11.93521,28.300335 8.1539804,28.631492 7.7772992,27.819306 z "
         style="fill:#000000;fill-opacity:1;stroke:none;stroke-width:0.30000001;stroke-miterlimit:4;stroke-dasharray:none;stroke-opacity:1" />
    </g>
    <path
       style="fill:#ffffff;fill-opacity:1;fill-rule:evenodd;stroke:#000000;stroke-width:1;stroke-linecap:round;stroke-linejoin:round;stroke-miterlimit:4;stroke-dasharray:none;stroke-opacity:1"
       d="M 26.257383,6.2981466 C 25.705098,6.3499266 25.299356,6.8396166 25.351133,7.3918965 C 25.40291,7.9441765 25.892598,8.3499265 26.444883,8.2981465 L 28.351133,8.2981465 L 25.663633,11.673147 C 25.423351,11.973387 25.376499,12.384807 25.543123,12.731387 C 25.709747,13.077967 26.060331,13.298307 26.444883,13.298147 L 30.444883,13.298147 C 30.805519,13.303247 31.140964,13.113767 31.322771,12.802277 C 31.504577,12.490777 31.504577,12.105517 31.322771,11.794017 C 31.140964,11.482527 30.805519,11.293047 30.444883,11.298147 L 28.538633,11.298147 L 31.226133,7.9231465 C 31.466415,7.6229065 31.513267,7.2114865 31.346643,6.8649066 C 31.180019,6.5183266 30.829435,6.2979866 30.444883,6.2981466 L 26.444883,6.2981466 C 26.382521,6.2922766 26.319745,6.2922766 26.257383,6.2981466 z "
       id="path6416" />
    <use
       x="0"
       y="0"
       xlink:href="#path6416"
       id="use6427"
       transform="matrix(0.749569,0,0,0.749569,1.391077,4.95101)"
       width="744.09448"
       height="1052.3622" />
    <use
       x="0"
       y="0"
       xlink:href="#path6416"
       id="use6429"
       transform="matrix(0.562187,0,0,0.562187,2.379634,11.03654)"
       width="744.09448"
       height="1052.3622" />
    <path
       id="path9556"
       d="M 7.5226854,32.813388 L 19.330033,32.813388"
       style="fill:none;fill-opacity:0.75;fill-rule:evenodd;stroke:#1f1f1f;stroke-width:1.30937076px;stroke-linecap:butt;stroke-linejoin:miter;stroke-opacity:1" />
  </g>
</svg>
