<?xml version="1.0" encoding="UTF-8" standalone="no"?>
<!-- Created with Inkscape (http://www.inkscape.org/) -->
<svg
   xmlns:dc="http://purl.org/dc/elements/1.1/"
   xmlns:cc="http://web.resource.org/cc/"
   xmlns:rdf="http://www.w3.org/1999/02/22-rdf-syntax-ns#"
   xmlns:svg="http://www.w3.org/2000/svg"
   xmlns="http://www.w3.org/2000/svg"
   xmlns:sodipodi="http://inkscape.sourceforge.net/DTD/sodipodi-0.dtd"
   xmlns:inkscape="http://www.inkscape.org/namespaces/inkscape"
   width="33"
   height="37"
   id="svg11605"
   sodipodi:version="0.32"
   inkscape:version="0.43"
   version="1.0"
   sodipodi:docbase="/home/adam/workspace/Escape-j2se/src/org/spacebar/escape/j2se/resources/animation"
   sodipodi:docname="lasered2.svg">
  <defs
     id="defs11607" />
  <sodipodi:namedview
     id="base"
     pagecolor="#ffffff"
     bordercolor="#666666"
     borderopacity="1.0"
     inkscape:pageopacity="0.0"
     inkscape:pageshadow="2"
     inkscape:zoom="11.2"
     inkscape:cx="26.872455"
     inkscape:cy="7.3303116"
     inkscape:document-units="px"
     inkscape:current-layer="layer1"
     inkscape:window-width="792"
     inkscape:window-height="541"
     inkscape:window-x="54"
     inkscape:window-y="138" />
  <metadata
     id="metadata11610">
    <rdf:RDF>
      <cc:Work
         rdf:about="">
        <dc:format>image/svg+xml</dc:format>
        <dc:type
           rdf:resource="http://purl.org/dc/dcmitype/StillImage" />
      </cc:Work>
    </rdf:RDF>
  </metadata>
  <g
     inkscape:label="Layer 1"
     inkscape:groupmode="layer"
     id="layer1">
    <g
       transform="matrix(0.514842,0,0,0.514842,-21.46446,-122.3653)"
       id="g11585">
      <path
         id="path11587"
         d="M 61.403012,275.07758 L 55.241974,261.54184 L 59.225468,247.23233 L 82.884533,246.03988 L 90.436775,260.98801 L 82.080935,278.67616 L 72.135145,280.2661 L 61.403012,275.07758 z "
         style="fill:#fefefe"
         sodipodi:nodetypes="cccccccc" />
      <path
         id="path11589"
         d="M 60.878065,307.88615 C 58.999139,305.75205 59.671549,302.50389 61.92618,300.87884 C 63.986783,299.39364 61.628065,290.88638 61.628065,288.68638 C 61.628065,285.70919 54.853764,283.68135 52.740005,281.48135 C 50.626246,279.28135 48.186526,277.48135 47.318406,277.48135 C 46.450285,277.48135 45.740005,277.03135 45.740005,276.48135 C 45.740005,275.93135 44.840005,275.48135 43.740005,275.48135 C 41.316585,275.48135 40.93903,271.13947 43.168576,268.90992 C 45.35455,266.72395 50.697736,267.12659 52.879053,269.64167 C 53.909554,270.82985 59.807488,276.16339 60.216499,275.72492 C 60.62551,275.28644 60.646085,272.2922 59.958585,272.04666 C 59.271085,271.80113 86.494472,271.92563 85.806972,272.17116 C 85.119472,272.4167 84.975087,277.77997 85.364661,278.19901 C 85.754235,278.61805 90.440116,273.87507 92.619921,271.60633 C 96.888546,267.16355 101.50124,266.09972 104.31143,268.90992 C 106.54098,271.13947 106.16343,275.48135 103.74,275.48135 C 102.64001,275.48135 99.653197,275.93135 99.653197,276.48135 C 99.653197,277.03135 96.853764,279.28135 94.740005,281.48135 C 92.626246,283.68135 83.454458,286.63914 83.454458,289.31997 C 83.454458,290.73426 81.592599,299.59238 83.653202,301.07758 C 85.984701,302.75803 85.976474,305.20785 83.926516,307.25781 C 80.819695,310.36463 73.290005,299.48135 72.740005,299.48135 C 72.190005,299.48135 63.706089,311.09823 60.878065,307.88615 z "
         style="fill:#f8e7dd"
         sodipodi:nodetypes="csssssssssssssssssssssc" />
      <path
         id="path11591"
         d="M 58.990005,307.98552 C 57.111079,305.85142 57.485374,302.1064 59.740005,300.48135 C 61.132913,299.4774 61.740005,297.89266 61.740005,295.26059 C 61.740005,293.18201 61.290005,291.48135 60.740005,291.48135 C 60.190005,291.48135 59.740005,290.32421 59.740005,288.90992 C 59.740005,286.21792 57.709793,283.48135 55.712643,283.48135 C 55.069023,283.48135 53.281336,282.13135 51.740005,280.48135 C 50.198674,278.83135 48.21813,277.48135 47.338795,277.48135 C 46.459461,277.48135 45.740005,277.03135 45.740005,276.48135 C 45.740005,275.93135 44.840005,275.48135 43.740005,275.48135 C 41.316585,275.48135 40.93903,271.13947 43.168576,268.90992 C 45.249682,266.82882 47.740005,267.14011 47.740005,269.48135 C 47.740005,270.81468 47.073338,271.48135 45.740005,271.48135 C 43.324403,271.48135 43.229703,272.1139 45.330756,274.21496 C 46.659314,275.54352 47.062092,275.57824 47.774457,274.42561 C 48.459676,273.3169 49.005677,273.48165 50.551001,275.26343 C 51.608978,276.48329 53.028768,277.48135 53.706091,277.48135 C 54.383413,277.48135 56.198674,278.83135 57.740005,280.48135 C 59.281336,282.13135 61.069023,283.48135 61.712643,283.48135 C 62.356264,283.48135 63.5987,284.19719 64.473613,285.0721 C 65.804311,286.4028 65.838238,286.8026 64.681145,287.51773 C 63.920374,287.98791 63.684001,288.73457 64.15587,289.17698 C 64.62774,289.61938 65.214707,289.41885 65.460243,288.73135 C 65.705779,288.04385 67.181672,287.48135 68.740005,287.48135 C 70.298338,287.48135 71.835838,286.91885 72.156672,286.23135 C 72.623338,285.23135 72.856672,285.23135 73.323338,286.23135 C 73.644172,286.91885 75.181672,287.48135 76.740005,287.48135 C 78.298338,287.48135 79.774231,288.04385 80.019767,288.73135 C 80.279435,289.45842 80.837227,289.61032 81.3531,289.09445 C 81.868973,288.57857 81.717074,288.02078 80.990005,287.76111 C 79.016133,287.05616 79.534216,285.48135 81.740005,285.48135 C 82.840005,285.48135 83.740005,285.03135 83.740005,284.48135 C 83.740005,283.93135 84.459461,283.48135 85.338795,283.48135 C 86.21813,283.48135 88.198674,282.13135 89.740005,280.48135 C 91.281336,278.83135 93.096597,277.48135 93.773919,277.48135 C 94.451242,277.48135 95.871032,276.48329 96.929009,275.26343 C 98.474333,273.48165 99.020334,273.3169 99.705553,274.42561 C 100.41792,275.57824 100.8207,275.54352 102.14925,274.21496 C 104.25031,272.1139 104.15561,271.48135 101.74,271.48135 C 100.40667,271.48135 99.740005,270.81468 99.740005,269.48135 C 99.740005,268.32984 100.40667,267.48135 101.31143,267.48135 C 103.1299,267.48135 105.74,269.82356 105.74,271.45538 C 105.74,272.90855 101.16192,277.48135 99.707059,277.48135 C 99.088939,277.48135 96.853764,279.28135 94.740005,281.48135 C 92.626246,283.68135 90.379383,285.48135 89.746977,285.48135 C 87.768187,285.48135 85.740005,288.22909 85.740005,290.90992 C 85.740005,292.32421 85.290005,293.48135 84.740005,293.48135 C 82.891573,293.48135 83.679402,298.99615 85.740005,300.48135 C 88.071504,302.1618 88.361392,306.00282 86.311434,308.05278 C 83.204613,311.1596 75.740005,309.04126 75.740005,305.05278 C 75.740005,304.18849 75.290005,303.48135 74.740005,303.48135 C 74.190005,303.48135 73.740005,302.58135 73.740005,301.48135 C 73.740005,300.38135 73.290005,299.48135 72.740005,299.48135 C 72.190005,299.48135 71.740005,300.38135 71.740005,301.48135 C 71.740005,302.58135 71.290005,303.48135 70.740005,303.48135 C 70.190005,303.48135 69.740005,304.18849 69.740005,305.05278 C 69.740005,309.03638 61.818029,311.1976 58.990005,307.98552 z M 65.740005,303.70211 C 65.740005,302.72353 66.640005,301.27418 67.740005,300.48135 C 68.840005,299.68851 69.740005,298.43203 69.740005,297.68916 C 69.740005,296.94629 70.415005,295.66349 71.240005,294.83849 C 72.573338,293.50516 72.906672,293.50516 74.240005,294.83849 C 75.065005,295.66349 75.740005,296.94629 75.740005,297.68916 C 75.740005,298.43203 76.640005,299.68851 77.740005,300.48135 C 78.840005,301.27418 79.740005,302.72353 79.740005,303.70211 C 79.740005,304.81468 80.489388,305.48135 81.740005,305.48135 C 82.840005,305.48135 83.740005,305.13069 83.740005,304.70211 C 83.740005,304.27353 82.840005,303.27418 81.740005,302.48135 C 80.640005,301.68851 79.740005,300.41972 79.740005,299.6618 C 79.740005,298.90388 78.390005,297.02268 76.740005,295.48135 C 75.090005,293.94002 73.740005,292.40947 73.740005,292.08014 C 73.740005,290.91542 77.579891,291.4997 78.019767,292.73135 C 78.265303,293.41885 78.806374,293.66528 79.222148,293.27897 C 80.211329,292.35989 77.310233,289.48135 75.394767,289.48135 C 74.576315,289.48135 73.644172,288.91885 73.323338,288.23135 C 72.856672,287.23135 72.623338,287.23135 72.156672,288.23135 C 71.835838,288.91885 70.903695,289.48135 70.085243,289.48135 C 68.169777,289.48135 65.268681,292.35989 66.257862,293.27897 C 66.673636,293.66528 67.214707,293.41885 67.460243,292.73135 C 67.900119,291.4997 71.740005,290.91542 71.740005,292.08014 C 71.740005,292.40947 70.390005,293.94002 68.740005,295.48135 C 67.090005,297.02268 65.740005,298.90388 65.740005,299.6618 C 65.740005,300.41972 64.840005,301.68851 63.740005,302.48135 C 62.640005,303.27418 61.740005,304.27353 61.740005,304.70211 C 61.740005,305.13069 62.640005,305.48135 63.740005,305.48135 C 64.990622,305.48135 65.740005,304.81468 65.740005,303.70211 z M 71.740005,290.48135 C 71.740005,289.93135 72.190005,289.48135 72.740005,289.48135 C 73.290005,289.48135 73.740005,289.93135 73.740005,290.48135 C 73.740005,291.03135 73.290005,291.48135 72.740005,291.48135 C 72.190005,291.48135 71.740005,291.03135 71.740005,290.48135 z M 64.740005,283.48135 C 63.94717,282.38135 62.713046,281.48135 61.997507,281.48135 C 60.17714,281.48135 49.740005,270.85624 49.740005,269.00309 C 49.740005,266.7014 50.536555,267.1064 54.860089,271.60633 C 57.039894,273.87507 59.091376,275.46331 59.418936,275.13575 C 59.746497,274.80819 58.602739,273.2214 56.877253,271.60956 C 54.917512,269.77889 53.740005,267.70352 53.740005,266.08014 C 53.740005,264.14802 53.226946,263.48135 51.740005,263.48135 C 49.48953,263.48135 48.904775,260.03779 50.990005,259.06468 C 51.990005,258.59802 51.990005,258.36468 50.990005,257.89802 C 50.302505,257.57718 49.740005,256.00218 49.740005,254.39802 C 49.740005,251.82394 50.092386,251.48135 52.740005,251.48135 C 55.073338,251.48135 55.740005,251.03691 55.740005,249.48135 C 55.740005,248.38135 55.290005,247.48135 54.740005,247.48135 C 54.190005,247.48135 53.740005,246.58135 53.740005,245.48135 C 53.740005,244.14802 54.406672,243.48135 55.740005,243.48135 C 56.840005,243.48135 57.740005,243.93135 57.740005,244.48135 C 57.740005,245.03135 58.640005,245.48135 59.740005,245.48135 C 60.840005,245.48135 61.740005,245.03135 61.740005,244.48135 C 61.740005,243.93135 62.640005,243.48135 63.740005,243.48135 C 64.840005,243.48135 65.740005,243.03135 65.740005,242.48135 C 65.740005,241.93135 67.990005,241.48135 70.740005,241.48135 C 73.490005,241.48135 75.740005,241.03135 75.740005,240.48135 C 75.740005,239.93135 76.640005,239.48135 77.740005,239.48135 C 79.073338,239.48135 79.740005,240.14802 79.740005,241.48135 C 79.740005,243.10802 80.406672,243.48135 83.311434,243.48135 C 87.463036,243.48135 90.959505,246.10962 88.681145,247.51773 C 87.920374,247.98791 87.684001,248.73457 88.15587,249.17698 C 88.62774,249.61938 89.214707,249.41885 89.460243,248.73135 C 90.088346,246.97266 92.579462,247.17795 94.552505,249.15099 C 95.766705,250.36519 95.88361,250.93348 94.981076,251.23433 C 94.298487,251.46186 93.740005,252.96052 93.740005,254.56468 C 93.740005,256.16885 93.290005,257.48135 92.740005,257.48135 C 92.190005,257.48135 91.740005,259.73135 91.740005,262.48135 C 91.740005,265.23135 91.290005,267.48135 90.740005,267.48135 C 90.190005,267.48135 89.740005,268.28201 89.740005,269.26059 C 89.740005,270.23917 88.840005,271.68851 87.740005,272.48135 C 85.939265,273.77925 84.886684,277.48135 86.318406,277.48135 C 86.636526,277.48135 88.626246,275.68135 90.740005,273.48135 C 94.364715,269.70875 97.740005,268.2622 97.740005,270.48135 C 97.740005,271.03135 97.290005,271.48135 96.740005,271.48135 C 96.190005,271.48135 95.740005,272.38135 95.740005,273.48135 C 95.740005,274.64739 95.073338,275.48135 94.141215,275.48135 C 93.26188,275.48135 91.281336,276.83135 89.740005,278.48135 C 88.198674,280.13135 86.21813,281.48135 85.338795,281.48135 C 84.459461,281.48135 83.740005,281.93135 83.740005,282.48135 C 83.740005,283.03135 82.840005,283.48135 81.740005,283.48135 C 80.640005,283.48135 79.740005,283.93135 79.740005,284.48135 C 79.740005,285.93359 74.013602,285.71049 73.323338,284.23135 C 72.856672,283.23135 72.623338,283.23135 72.156672,284.23135 C 71.235356,286.2056 66.347259,285.7113 64.740005,283.48135 z M 69.740005,282.48135 C 69.740005,281.93135 71.090005,281.48135 72.740005,281.48135 C 74.390005,281.48135 75.740005,281.93135 75.740005,282.48135 C 75.740005,283.03135 76.640005,283.48135 77.740005,283.48135 C 78.840005,283.48135 79.740005,283.03135 79.740005,282.48135 C 79.740005,281.93135 79.290005,281.48135 78.740005,281.48135 C 78.190005,281.48135 77.740005,281.03135 77.740005,280.48135 C 77.740005,279.93135 78.447148,279.48135 79.311434,279.48135 C 81.916602,279.48135 83.740005,276.83447 83.740005,273.05278 C 83.740005,271.08849 84.190005,269.48135 84.740005,269.48135 C 85.290005,269.48135 85.740005,268.58135 85.740005,267.48135 C 85.740005,266.38135 86.190005,265.48135 86.740005,265.48135 C 87.290005,265.48135 87.740005,263.68135 87.740005,261.48135 C 87.740005,259.28135 87.290005,257.48135 86.740005,257.48135 C 86.190005,257.48135 85.740005,256.78589 85.740005,255.93589 C 85.740005,253.93543 81.285929,249.48135 79.28546,249.48135 C 78.43546,249.48135 77.740005,249.03135 77.740005,248.48135 C 77.740005,247.93135 75.490005,247.48135 72.740005,247.48135 C 69.990005,247.48135 67.740005,247.93135 67.740005,248.48135 C 67.740005,249.03135 67.04455,249.48135 66.19455,249.48135 C 64.194081,249.48135 59.740005,253.93543 59.740005,255.93589 C 59.740005,256.78589 59.290005,257.48135 58.740005,257.48135 C 58.190005,257.48135 57.740005,259.28135 57.740005,261.48135 C 57.740005,263.68135 58.190005,265.48135 58.740005,265.48135 C 59.290005,265.48135 59.740005,266.38135 59.740005,267.48135 C 59.740005,268.58135 60.190005,269.48135 60.740005,269.48135 C 61.290005,269.48135 61.740005,271.08849 61.740005,273.05278 C 61.740005,276.83447 63.563408,279.48135 66.168576,279.48135 C 67.032862,279.48135 67.740005,279.93135 67.740005,280.48135 C 67.740005,281.03135 67.290005,281.48135 66.740005,281.48135 C 66.190005,281.48135 65.740005,281.93135 65.740005,282.48135 C 65.740005,283.03135 66.640005,283.48135 67.740005,283.48135 C 68.840005,283.48135 69.740005,283.03135 69.740005,282.48135 z M 67.740005,278.48135 C 67.740005,277.93135 66.840005,277.48135 65.740005,277.48135 C 64.184449,277.48135 63.740005,276.81468 63.740005,274.48135 C 63.740005,271.4592 65.139702,270.41265 66.080541,272.73135 C 66.46245,273.67257 66.853578,273.61081 67.663874,272.48135 C 68.620435,271.14802 68.851116,271.14802 69.740005,272.48135 C 70.628894,273.81468 70.851116,273.81468 71.740005,272.48135 C 72.628894,271.14802 72.851116,271.14802 73.740005,272.48135 C 74.628894,273.81468 74.851116,273.81468 75.740005,272.48135 C 76.628894,271.14802 76.859575,271.14802 77.816136,272.48135 C 78.626432,273.61081 79.01756,273.67257 79.399469,272.73135 C 80.340308,270.41265 81.740005,271.4592 81.740005,274.48135 C 81.740005,276.77121 81.286301,277.48135 79.823338,277.48135 C 78.769172,277.48135 77.678431,278.04385 77.399469,278.73135 C 77.01756,279.67257 76.626432,279.61081 75.816136,278.48135 C 74.859575,277.14802 74.628894,277.14802 73.740005,278.48135 C 72.851116,279.81468 72.620435,279.81468 71.663874,278.48135 C 70.853578,277.35189 70.46245,277.29013 70.080541,278.23135 C 69.476161,279.72084 67.740005,279.90629 67.740005,278.48135 z M 63.740005,263.48135 C 63.740005,261.98829 63.906672,259.48135 66.740005,259.48135 C 69.573338,259.48135 69.740005,261.93863 69.740005,263.48135 C 69.740005,264.82544 69.573338,267.48135 66.740005,267.48135 C 63.906672,267.48135 63.740005,265.02407 63.740005,263.48135 z M 75.740005,264.48135 C 75.740005,262.85808 76.073338,261.48135 78.740005,261.48135 C 81.406672,261.48135 81.740005,263.20202 81.740005,264.48135 C 81.740005,265.81022 81.406672,267.48135 78.740005,267.48135 C 76.073338,267.48135 75.740005,266.30336 75.740005,264.48135 z "
         style="fill:#7c7a78"
         sodipodi:nodetypes="csssssssssssssssssssssssssssssssssssssssssssssssssssssssccsssssssssssssssssssssssssssccsssccsssssssssssssssssssssssssssssssssssssssssssssssssccsssssssssssssssssssssssssssssssccsssssssssssssssssccszszcszsz" />
      <path
         id="path11593"
         d="M 57.740005,305.88256 C 57.740005,305.00322 59.090005,303.02268 60.740005,301.48135 C 63.661546,298.75222 64.751837,295.48135 62.740005,295.48135 C 62.190005,295.48135 61.740005,294.13135 61.740005,292.48135 C 61.740005,290.83135 61.290005,289.48135 60.740005,289.48135 C 60.190005,289.48135 59.740005,288.13135 59.740005,286.48135 C 59.740005,284.39896 59.250982,283.48135 58.141215,283.48135 C 57.26188,283.48135 55.281336,282.13135 53.740005,280.48135 C 52.198674,278.83135 50.21813,277.48135 49.338795,277.48135 C 48.459461,277.48135 47.740005,277.03135 47.740005,276.48135 C 47.740005,274.71345 51.251157,275.41568 52.740005,277.48135 C 53.53284,278.58135 54.88284,279.48135 55.740005,279.48135 C 56.59717,279.48135 57.94717,280.38135 58.740005,281.48135 C 59.53284,282.58135 60.982182,283.48135 61.960764,283.48135 C 64.00412,283.48135 64.343897,285.03287 62.490005,285.89802 C 61.490005,286.36468 61.490005,286.59802 62.490005,287.06468 C 63.177505,287.38552 63.740005,288.31766 63.740005,289.13611 C 63.740005,291.2665 66.954406,294.33815 67.492981,292.72242 C 67.895158,291.51589 71.740005,290.90966 71.740005,292.05278 C 71.740005,293.22607 68.82694,295.48135 67.311434,295.48135 C 66.29027,295.48135 65.740005,296.38178 65.740005,298.05278 C 65.740005,300.94637 63.671993,303.48135 61.311434,303.48135 C 60.447148,303.48135 59.740005,303.93135 59.740005,304.48135 C 59.740005,305.03135 60.897148,305.48135 62.311434,305.48135 C 64.973995,305.48135 67.740005,303.45647 67.740005,301.50732 C 67.740005,300.89304 68.865005,299.26544 70.240005,297.89044 L 72.740005,295.39044 L 75.240005,297.89044 C 76.615005,299.26544 77.740005,300.89304 77.740005,301.50732 C 77.740005,303.45647 80.506015,305.48135 83.168576,305.48135 C 84.582862,305.48135 85.740005,305.03135 85.740005,304.48135 C 85.740005,303.93135 85.032862,303.48135 84.168576,303.48135 C 81.808017,303.48135 79.740005,300.94637 79.740005,298.05278 C 79.740005,296.38178 79.18974,295.48135 78.168576,295.48135 C 76.65307,295.48135 73.740005,293.22607 73.740005,292.05278 C 73.740005,290.90966 77.584852,291.51589 77.987029,292.72242 C 78.537695,294.37442 81.740005,291.24322 81.740005,289.05278 C 81.740005,288.18849 82.190005,287.48135 82.740005,287.48135 C 83.290005,287.48135 83.740005,286.58135 83.740005,285.48135 C 83.740005,284.23073 84.406672,283.48135 85.519246,283.48135 C 86.497828,283.48135 87.94717,282.58135 88.740005,281.48135 C 89.53284,280.38135 90.88284,279.48135 91.740005,279.48135 C 92.59717,279.48135 93.94717,278.58135 94.740005,277.48135 C 96.228853,275.41568 99.740005,274.71345 99.740005,276.48135 C 99.740005,277.03135 99.020549,277.48135 98.141215,277.48135 C 97.26188,277.48135 95.281336,278.83135 93.740005,280.48135 C 92.198674,282.13135 90.410987,283.48135 89.767367,283.48135 C 87.770217,283.48135 85.740005,286.21792 85.740005,288.90992 C 85.740005,290.32421 85.290005,291.48135 84.740005,291.48135 C 84.190005,291.48135 83.740005,292.79385 83.740005,294.39802 C 83.740005,296.00218 83.177505,297.50753 82.490005,297.74324 C 81.700115,298.01405 82.436292,299.29667 84.490005,301.22778 C 89.203846,305.66023 88.819028,307.48135 83.168576,307.48135 C 78.7143,307.48135 75.740005,305.87981 75.740005,303.48135 C 75.740005,302.85278 75.065005,301.66349 74.240005,300.83849 C 72.906672,299.50516 72.573338,299.50516 71.240005,300.83849 C 70.415005,301.66349 69.740005,302.85278 69.740005,303.48135 C 69.740005,305.87981 66.76571,307.48135 62.311434,307.48135 C 58.789065,307.48135 57.740005,307.11446 57.740005,305.88256 z M 65.740005,289.56468 C 65.740005,288.51052 65.177505,287.41978 64.490005,287.14081 C 63.536711,286.754 63.581024,286.39612 64.676694,285.63308 C 65.857448,284.81079 65.545699,284.10226 62.926694,281.65574 C 59.8496,278.78131 58.680906,275.48135 60.740005,275.48135 C 61.290005,275.48135 61.740005,276.38135 61.740005,277.48135 C 61.740005,278.81468 62.406672,279.48135 63.740005,279.48135 C 65.073338,279.48135 65.740005,280.14802 65.740005,281.48135 C 65.740005,283.03691 66.406672,283.48135 68.740005,283.48135 C 70.390005,283.48135 71.740005,283.93135 71.740005,284.48135 C 71.740005,285.03135 70.390005,285.48135 68.740005,285.48135 C 67.090005,285.48135 65.740005,285.93135 65.740005,286.48135 C 65.740005,287.03135 67.090005,287.48135 68.740005,287.48135 C 70.390005,287.48135 71.740005,287.93135 71.740005,288.48135 C 71.740005,289.03135 70.840005,289.48135 69.740005,289.48135 C 68.640005,289.48135 67.740005,289.93135 67.740005,290.48135 C 67.740005,291.03135 67.290005,291.48135 66.740005,291.48135 C 66.190005,291.48135 65.740005,290.61885 65.740005,289.56468 z M 77.740005,290.48135 C 77.740005,289.93135 76.840005,289.48135 75.740005,289.48135 C 74.640005,289.48135 73.740005,289.03135 73.740005,288.48135 C 73.740005,287.93135 75.090005,287.48135 76.740005,287.48135 C 78.390005,287.48135 79.740005,287.03135 79.740005,286.48135 C 79.740005,285.93135 78.390005,285.48135 76.740005,285.48135 C 75.090005,285.48135 73.740005,285.03135 73.740005,284.48135 C 73.740005,283.93135 75.090005,283.48135 76.740005,283.48135 C 79.073338,283.48135 79.740005,283.03691 79.740005,281.48135 C 79.740005,279.92579 80.406672,279.48135 82.740005,279.48135 C 85.741119,279.48135 86.845388,278.0428 84.490005,277.20159 C 83.802505,276.95605 83.556076,276.41498 83.942386,275.99921 C 84.328695,275.58343 85.367494,275.96598 86.250828,276.84931 C 87.725575,278.32406 87.651424,278.66084 85.343901,280.96836 C 83.961758,282.35051 82.13546,283.48135 81.28546,283.48135 C 79.430891,283.48135 79.235535,285.07926 80.990005,285.89802 C 81.990005,286.36468 81.990005,286.59802 80.990005,287.06468 C 80.302505,287.38552 79.740005,288.51052 79.740005,289.56468 C 79.740005,290.61885 79.290005,291.48135 78.740005,291.48135 C 78.190005,291.48135 77.740005,291.03135 77.740005,290.48135 z M 67.740005,278.48135 C 67.740005,277.93135 66.840005,277.48135 65.740005,277.48135 C 64.184449,277.48135 63.740005,276.81468 63.740005,274.48135 C 63.740005,271.4592 65.139702,270.41265 66.080541,272.73135 C 66.46245,273.67257 66.853578,273.61081 67.663874,272.48135 C 68.620435,271.14802 68.851116,271.14802 69.740005,272.48135 C 70.628894,273.81468 70.851116,273.81468 71.740005,272.48135 C 72.628894,271.14802 72.851116,271.14802 73.740005,272.48135 C 74.628894,273.81468 74.851116,273.81468 75.740005,272.48135 C 76.628894,271.14802 76.859575,271.14802 77.816136,272.48135 C 78.626432,273.61081 79.01756,273.67257 79.399469,272.73135 C 80.340308,270.41265 81.740005,271.4592 81.740005,274.48135 C 81.740005,276.77121 81.286301,277.48135 79.823338,277.48135 C 78.769172,277.48135 77.678431,278.04385 77.399469,278.73135 C 77.01756,279.67257 76.626432,279.61081 75.816136,278.48135 C 74.859575,277.14802 74.628894,277.14802 73.740005,278.48135 C 72.851116,279.81468 72.620435,279.81468 71.663874,278.48135 C 70.853578,277.35189 70.46245,277.29013 70.080541,278.23135 C 69.476161,279.72084 67.740005,279.90629 67.740005,278.48135 z M 52.892687,273.84327 C 51.051662,271.91793 49.875769,270.03636 50.279592,269.662 C 50.683414,269.28764 51.214707,269.54385 51.460243,270.23135 C 51.705779,270.91885 52.769172,271.48135 53.823338,271.48135 C 55.073338,271.48135 55.740005,272.177 55.740005,273.48135 C 55.740005,274.58135 56.190005,275.48135 56.740005,275.48135 C 57.290005,275.48135 57.740005,275.93135 57.740005,276.48135 C 57.740005,278.21411 56.347414,277.45621 52.892687,273.84327 z M 89.740005,276.94802 C 89.740005,275.92607 96.877284,269.2853 97.406672,269.81468 C 97.700005,270.10802 96.335005,271.95302 94.373338,273.91468 C 90.970679,277.31734 89.740005,278.12304 89.740005,276.94802 z M 42.947667,273.9402 C 41.870188,272.7187 42.088084,272.04236 44.258273,269.87217 C 45.689892,268.44055 47.13109,267.5391 47.460934,267.86895 C 47.790779,268.19879 46.976006,269.4321 45.650329,270.60964 C 44.04014,272.0399 43.654957,272.89957 44.490005,273.19932 C 45.830319,273.68044 46.237211,275.50657 44.990005,275.44331 C 44.577505,275.42239 43.658453,274.74599 42.947667,273.9402 z M 56.990005,269.94103 C 55.202505,268.06946 53.740005,266.01567 53.740005,265.37706 C 53.740005,264.73844 52.727505,263.31507 51.490005,262.21401 C 49.963799,260.85607 49.642113,260.06774 50.490005,259.76338 C 52.107221,259.18287 52.113943,255.77266 50.498934,255.23433 C 49.627661,254.9439 49.827192,254.25131 51.168576,252.90992 C 52.50996,251.56854 53.202557,251.36901 53.492981,252.24028 C 54.111486,254.09579 57.740005,253.76119 57.740005,251.84865 C 57.740005,250.95066 56.790811,249.39271 55.630685,248.38654 C 53.608726,246.6329 53.595044,246.48345 55.300328,244.77817 C 56.572203,243.5063 57.197212,243.35297 57.492981,244.24028 C 57.983278,245.71117 63.740005,245.93332 63.740005,244.48135 C 63.740005,243.93135 64.640005,243.48135 65.740005,243.48135 C 66.840005,243.48135 67.740005,243.03135 67.740005,242.48135 C 67.740005,241.93135 69.502505,241.48135 71.656672,241.48135 C 73.884032,241.48135 75.766868,240.94221 76.022038,240.23135 C 76.326396,239.38346 77.11473,239.70514 78.472666,241.23135 C 79.573728,242.46885 81.466456,243.48135 82.678729,243.48135 C 85.24966,243.48135 87.740005,245.66038 87.740005,247.90992 C 87.740005,248.81468 88.58849,249.48135 89.740005,249.48135 C 90.840005,249.48135 91.740005,249.03135 91.740005,248.48135 C 91.740005,247.93135 92.190005,247.48135 92.740005,247.48135 C 93.290005,247.48135 93.740005,249.28135 93.740005,251.48135 C 93.740005,253.68135 93.290005,255.48135 92.740005,255.48135 C 92.190005,255.48135 91.740005,257.73135 91.740005,260.48135 C 91.740005,263.23135 91.290005,265.48135 90.740005,265.48135 C 90.190005,265.48135 89.740005,266.17681 89.740005,267.0268 C 89.740005,268.97339 84.857595,273.95083 83.929399,272.95051 C 83.550232,272.54188 83.802505,272.00665 84.490005,271.76111 C 85.177505,271.51558 85.740005,270.45218 85.740005,269.39802 C 85.740005,268.34385 86.190005,267.48135 86.740005,267.48135 C 87.290005,267.48135 87.740005,264.99451 87.740005,261.95503 C 87.740005,256.74348 87.485201,256.17391 83.266321,251.95503 C 78.882054,247.57077 78.662193,247.48135 72.266321,247.48135 C 68.58211,247.48135 65.740005,247.91683 65.740005,248.48135 C 65.740005,249.03135 65.032862,249.48135 64.168576,249.48135 C 62.147537,249.48135 59.740005,251.88888 59.740005,253.90992 C 59.740005,254.77421 59.290005,255.48135 58.740005,255.48135 C 58.184449,255.48135 57.740005,258.14802 57.740005,261.48135 C 57.740005,264.81468 58.184449,267.48135 58.740005,267.48135 C 59.290005,267.48135 59.740005,268.38135 59.740005,269.48135 C 59.740005,270.58135 60.190005,271.48135 60.740005,271.48135 C 61.290005,271.48135 61.740005,271.93135 61.740005,272.48135 C 61.740005,274.20407 60.353188,273.46239 56.990005,269.94103 z M 101.88946,270.85407 C 100.59666,269.47634 99.781883,268.10614 100.07885,267.80917 C 100.61898,267.26904 105.74,271.90662 105.74,272.93589 C 105.74,274.11281 104.13105,273.24291 101.88946,270.85407 z M 64.990005,265.98552 C 63.937307,264.93282 64.525087,261.55341 65.240005,260.83849 C 65.852161,260.22633 67.476511,260.075 68.240005,260.83849 C 69.051566,261.65005 69.266571,265.09764 68.311434,266.05278 C 67.380137,266.98408 66.0697,267.06522 64.990005,265.98552 z M 76.935122,265.92677 C 76.303294,265.29494 76.406301,263.6722 77.185122,262.89338 C 77.911108,262.16739 79.54658,262.14507 80.311434,262.90992 C 81.00059,263.59908 80.933725,265.43049 80.382862,265.98135 C 79.756058,266.60815 77.466918,266.45857 76.935122,265.92677 z "
         style="fill:#000000"
         sodipodi:nodetypes="csssssssssssssssssssssssscccssssssssssssssssssssssssssssssccssssssssssssssssccssssssssssssssssssccsssssssssssssssssccssssssccssccsssssccssssssssssssssssssssssssssssssssssssssssssccsscczzzzczzzz" />
    </g>
  </g>
</svg>
