<?xml version="1.0" encoding="UTF-8" standalone="no"?>
<!-- Created with Inkscape (http://www.inkscape.org/) -->
<svg
   xmlns:dc="http://purl.org/dc/elements/1.1/"
   xmlns:cc="http://web.resource.org/cc/"
   xmlns:rdf="http://www.w3.org/1999/02/22-rdf-syntax-ns#"
   xmlns:svg="http://www.w3.org/2000/svg"
   xmlns="http://www.w3.org/2000/svg"
   xmlns:sodipodi="http://sodipodi.sourceforge.net/DTD/sodipodi-0.dtd"
   xmlns:inkscape="http://www.inkscape.org/namespaces/inkscape"
   width="33"
   height="37"
   id="svg11605"
   sodipodi:version="0.32"
   inkscape:version="0.44.1"
   version="1.0"
   sodipodi:docbase="/home/adam/workspace/Escape-j2se/src/org/spacebar/escape/j2se/resources/animation"
   sodipodi:docname="lasered2.svg">
  <defs
     id="defs11607" />
  <sodipodi:namedview
     id="base"
     pagecolor="#ffffff"
     bordercolor="#666666"
     borderopacity="1.0"
     inkscape:pageopacity="0.0"
     inkscape:pageshadow="2"
     inkscape:zoom="22.4"
     inkscape:cx="17.243459"
     inkscape:cy="15.043458"
     inkscape:document-units="px"
     inkscape:current-layer="layer1"
     inkscape:window-width="906"
     inkscape:window-height="858"
     inkscape:window-x="42"
     inkscape:window-y="88" />
  <metadata
     id="metadata11610">
    <rdf:RDF>
      <cc:Work
         rdf:about="">
        <dc:format>image/svg+xml</dc:format>
        <dc:type
           rdf:resource="http://purl.org/dc/dcmitype/StillImage" />
      </cc:Work>
    </rdf:RDF>
  </metadata>
  <g
     inkscape:label="Layer 1"
     inkscape:groupmode="layer"
     id="layer1"
     style="opacity:1">
    <path
       sodipodi:nodetypes="cccccccc"
       style="fill:white;fill-opacity:1"
       d="M 10.14839,19.256191 L 6.9764284,12.287424 L 9.0272984,4.9202872 L 21.207979,4.3063639 L 25.09619,12.002289 L 20.794253,21.108892 L 15.673742,21.927459 L 10.14839,19.256191 z "
       id="path11587" />
    <path
       sodipodi:nodetypes="csssssssssssssssssssssc"
       style="fill:#f8e7dd;fill-opacity:1"
       d="M 9.8781247,36.147421 C 8.9107747,35.048697 9.2569596,33.376408 10.417738,32.539764 C 11.478623,31.77512 10.097686,27.382911 10.264256,26.262573 C 10.522912,24.522866 7.557514,23.061012 6.1347383,22.195978 C 4.7926027,21.379973 4.102916,20.225896 3.6559714,20.225896 C 3.2090262,20.225896 2.5308443,20.083503 2.5308443,19.80034 C 2.5308443,19.517177 1.6657008,19.151569 1.0993746,19.151569 C -0.14830389,19.151569 -0.11947078,17.58583 1.0283931,16.437964 C 2.1538243,15.312535 4.5475781,15.475188 5.6706117,16.770057 C 6.2011569,17.381782 9.237661,20.127712 9.4482371,19.901969 C 9.6588131,19.676221 9.7586917,17.822161 9.4047378,17.695747 C 9.0507839,17.569337 23.066527,17.633435 22.712573,17.759844 C 22.358619,17.886259 22.284284,20.647495 22.484853,20.863235 C 22.685422,21.078974 25.365767,18.860303 26.488022,17.69226 C 28.68569,15.40493 30.240635,15.186563 31.659088,16.661178 C 32.685084,17.727797 31.190515,19.081505 30.784535,19.64264 C 30.452575,20.101467 29.841191,19.695748 29.841191,19.978911 C 29.841191,20.262074 27.819569,20.97404 26.731317,22.106692 C 25.643065,23.239345 21.5014,25.208568 21.5014,26.588772 C 21.5014,27.316908 20.542837,31.87744 21.603722,32.642083 C 22.804075,33.50725 22.79984,34.76852 21.744435,35.823925 C 20.144913,37.423447 16.179027,30.659563 15.895864,30.659563 C 15.612701,30.659563 11.33411,37.801135 9.8781247,36.147421 z "
       id="path11589" />
    <path
       sodipodi:nodetypes="csssssssssssssssssssssssssssssssssssssssssssssssssssssssccsssssssssssssssssssssssssssccsssccsssssssssssssssssssssssssssssssssssssssssssssssssccssssssssssssszzsssssssssccsssssssssssssssssc"
       style="fill:black;fill-opacity:1"
       d="M 8.9060722,36.198581 C 7.9387221,35.099857 8.1314249,33.171763 9.2922037,32.335119 C 10.009331,31.818244 10.321888,31.002353 10.321888,29.647253 C 10.321888,28.577112 10.090209,27.701541 9.8070457,27.701541 C 9.5238826,27.701541 9.2922037,27.105797 9.2922037,26.377661 C 9.2922037,24.991706 8.2469652,23.582805 7.2187485,23.582805 C 6.8873859,23.582805 5.9670096,22.887768 5.1734677,22.038279 C 4.3799257,21.18879 3.3602585,20.493753 2.9075399,20.493753 C 2.4548218,20.493753 2.0844157,20.262074 2.0844157,19.978911 C 2.0844157,19.695748 1.6210579,19.464069 1.0547317,19.464069 C -0.19294675,19.464069 -0.38732792,17.228687 0.760536,16.080821 C 1.8319768,15.009383 3.1140997,15.169649 3.1140997,16.375017 C 3.1140997,17.061471 2.7708715,17.404701 2.0844157,17.404701 C 0.84076229,17.404701 0.79200675,17.730365 1.8737171,18.812078 C 2.5577145,19.496077 2.7650816,19.513952 3.131837,18.92053 C 3.4846165,18.349719 3.7657208,18.43454 4.5613185,19.351875 C 5.1060095,19.97991 5.836977,20.493753 6.1856913,20.493753 C 6.5344051,20.493753 7.4689777,21.18879 8.2625197,22.038279 C 9.0560616,22.887768 9.9764379,23.582805 10.307801,23.582805 C 10.639164,23.582805 11.278822,23.95135 11.729264,24.40179 C 12.414363,25.08689 12.43183,25.292724 11.83611,25.660903 C 11.444433,25.902972 11.322738,26.287383 11.565676,26.515155 C 11.808615,26.742921 12.11081,26.63968 12.237222,26.285726 C 12.363635,25.931772 13.123486,25.642173 13.925782,25.642173 C 14.728077,25.642173 15.519647,25.352575 15.684825,24.998621 C 15.925085,24.483779 16.045215,24.483779 16.285474,24.998621 C 16.450653,25.352575 17.242222,25.642173 18.044518,25.642173 C 18.846813,25.642173 19.606665,25.931772 19.733077,26.285726 C 19.866765,26.660052 20.15394,26.738256 20.419533,26.472665 C 20.685126,26.207068 20.606922,25.919894 20.232596,25.786205 C 19.216364,25.423268 19.483095,24.612489 20.618728,24.612489 C 21.185054,24.612489 21.648412,24.38081 21.648412,24.097647 C 21.648412,23.814484 22.018818,23.582805 22.471536,23.582805 C 22.924254,23.582805 23.943922,22.887768 24.737464,22.038279 C 25.531006,21.18879 26.465578,20.493753 26.814292,20.493753 C 27.163006,20.493753 27.893974,19.97991 28.438665,19.351875 C 29.234263,18.43454 29.515367,18.349719 29.868146,18.92053 C 30.234903,19.513952 30.442271,19.496077 31.126264,18.812078 C 32.207978,17.730365 32.159223,17.404701 30.915565,17.404701 C 30.229111,17.404701 29.885884,17.061471 29.885884,16.375017 C 29.885884,15.782171 30.229111,15.345333 30.694919,15.345333 C 31.631144,15.345333 32.974933,16.551201 32.974933,17.391331 C 32.974933,18.139484 30.617945,20.493753 29.868922,20.493753 C 29.550688,20.493753 28.399926,21.420469 27.311674,22.553121 C 26.223422,23.685774 25.066642,24.612489 24.741053,24.612489 C 23.722289,24.612489 22.678096,26.027141 22.678096,27.407345 C 22.678096,28.135481 22.446417,28.731225 22.163254,28.731225 C 21.211603,28.731225 21.617211,31.570476 22.678096,32.335119 C 23.878449,33.200285 24.027696,35.177804 22.972291,36.233209 C 21.372769,37.832731 17.529676,36.74212 17.529676,34.688683 C 17.529676,34.243711 17.297997,33.879645 17.014834,33.879645 C 16.731671,33.879645 16.499992,33.416287 16.499992,32.849961 C 16.499992,32.283635 16.268313,31.820277 15.98515,31.820277 C 15.701987,31.820277 15.470308,32.283635 15.470308,32.849961 C 15.470308,33.416287 15.238629,33.879645 14.955466,33.879645 C 14.672303,33.879645 14.440624,34.243711 14.440624,34.688683 C 14.440624,36.739608 10.362058,37.852295 8.9060722,36.198581 z M 12.381256,33.993302 C 12.381256,33.489488 12.844613,32.743301 13.41094,32.335119 C 13.977266,31.926932 14.440624,31.280043 14.440624,30.897583 C 14.440624,30.515122 14.788142,29.854683 15.212887,29.429938 C 15.899342,28.743484 16.070957,28.743484 16.757413,29.429938 C 17.182157,29.854683 17.529676,30.515122 17.529676,30.897583 C 17.529676,31.280043 17.993033,31.926932 18.55936,32.335119 C 19.125686,32.743301 19.589044,33.489488 19.589044,33.993302 C 19.589044,34.566099 19.974857,34.909329 20.618728,34.909329 C 21.185054,34.909329 21.648412,34.728795 21.648412,34.508144 C 21.648412,34.287493 21.185054,33.772985 20.618728,33.364803 C 20.052401,32.956616 19.589044,32.303389 19.589044,31.91318 C 19.589044,31.522971 18.894007,30.554451 18.044518,29.760909 C 17.195028,28.967368 16.499992,28.179376 16.499992,28.009823 C 16.499992,27.410177 18.476926,27.710989 18.703393,28.345094 C 18.829805,28.699048 19.108371,28.82592 19.322429,28.627031 C 19.831701,28.15385 18.338095,26.671857 17.351933,26.671857 C 16.930559,26.671857 16.450653,26.382259 16.285474,26.028305 C 16.045215,25.513463 15.925085,25.513463 15.684825,26.028305 C 15.519647,26.382259 15.03974,26.671857 14.618367,26.671857 C 13.632204,26.671857 12.138598,28.15385 12.64787,28.627031 C 12.861928,28.82592 13.140494,28.699048 13.266906,28.345094 C 13.493373,27.710989 15.470308,27.410177 15.470308,28.009823 C 15.470308,28.179376 14.775271,28.967368 13.925782,29.760909 C 13.076292,30.554451 12.381256,31.522971 12.381256,31.91318 C 12.381256,32.303389 11.917898,32.956616 11.351572,33.364803 C 10.785245,33.772985 10.321888,34.287493 10.321888,34.508144 C 10.321888,34.728795 10.785245,34.909329 11.351572,34.909329 C 11.995442,34.909329 12.381256,34.566099 12.381256,33.993302 z M 15.470308,27.186699 C 15.470308,26.903536 15.701987,26.671857 15.98515,26.671857 C 16.268313,26.671857 16.499992,26.903536 16.499992,27.186699 C 16.499992,27.469862 16.268313,27.701541 15.98515,27.701541 C 15.701987,27.701541 15.470308,27.469862 15.470308,27.186699 z M 11.866414,23.582805 C 11.458229,23.016479 10.82285,22.553121 10.45446,22.553121 C 9.5172591,22.553121 4.1437837,17.082868 4.1437837,16.128789 C 4.1437837,14.943782 4.553881,15.152293 6.7798179,17.469046 C 7.9020731,18.637089 8.9582622,19.454781 9.1269038,19.28614 C 9.295546,19.117498 8.7066914,18.300552 7.8183387,17.470709 C 6.8093817,16.528203 6.2031517,15.459716 6.2031517,14.623931 C 6.2031517,13.629195 5.9390073,13.285965 5.1734677,13.285965 C 4.0148286,13.285965 3.7137722,11.513076 4.7873362,11.012078 C 5.3021782,10.771822 5.3021782,10.651689 4.7873362,10.411432 C 4.4333823,10.246251 4.1437837,9.4353744 4.1437837,8.6094854 C 4.1437837,7.2842409 4.3252042,7.1078612 5.6883097,7.1078612 C 6.8896075,7.1078612 7.2328357,6.8790448 7.2328357,6.0781772 C 7.2328357,5.511851 7.0011568,5.0484932 6.7179937,5.0484932 C 6.4348306,5.0484932 6.2031517,4.5851354 6.2031517,4.0188092 C 6.2031517,3.3323549 6.5463798,2.9891252 7.2328357,2.9891252 C 7.7991619,2.9891252 8.2625197,3.2208041 8.2625197,3.5039672 C 8.2625197,3.7871303 8.7258775,4.0188092 9.2922037,4.0188092 C 9.8585299,4.0188092 10.321888,3.7871303 10.321888,3.5039672 C 10.321888,3.2208041 10.785245,2.9891252 11.351572,2.9891252 C 11.917898,2.9891252 12.381256,2.7574463 12.381256,2.4742832 C 12.381256,2.1911201 13.53965,1.9594412 14.955466,1.9594412 C 16.371281,1.9594412 17.529676,1.7277623 17.529676,1.4445992 C 17.529676,1.1614361 17.993033,0.9297572 18.55936,0.9297572 C 19.245815,0.9297572 19.589044,1.2729869 19.589044,1.9594412 C 19.589044,2.7969192 19.932272,2.9891252 21.427765,2.9891252 C 23.565184,2.9891252 25.365313,4.342269 24.192318,5.0672231 C 23.800641,5.3092916 23.678946,5.6937035 23.921884,5.9214747 C 24.164823,6.1492408 24.467018,6.0459996 24.59343,5.6920457 C 24.916804,4.7865982 26.199335,4.8922901 27.215141,5.908094 C 27.840262,6.5332151 27.90045,6.8257947 27.435787,6.9806849 C 27.084362,7.0978269 26.796832,7.8694 26.796832,8.695289 C 26.796832,9.5211831 26.565153,10.196913 26.28199,10.196913 C 25.998827,10.196913 25.767148,11.355308 25.767148,12.771123 C 25.767148,14.186939 25.535469,15.345333 25.252306,15.345333 C 24.969143,15.345333 24.737464,15.757547 24.737464,16.261361 C 24.737464,16.765175 24.274106,17.511356 23.70778,17.919543 C 22.780683,18.587757 22.774484,19.734825 23.511595,19.734825 C 23.675377,19.734825 24.164054,19.567038 25.252306,18.434385 C 27.118459,16.492092 28.8562,15.747348 28.8562,16.889859 C 28.8562,17.173022 28.624521,17.404701 28.341358,17.404701 C 28.058195,17.404701 27.826516,17.868059 27.826516,18.434385 C 27.826516,19.034712 27.483287,19.464069 27.003391,19.464069 C 26.550673,19.464069 25.531006,20.159106 24.737464,21.008595 C 23.943922,21.858084 22.924254,22.553121 22.471536,22.553121 C 22.018818,22.553121 21.648412,22.7848 21.648412,23.067963 C 21.648412,23.351126 21.185054,23.582805 20.618728,23.582805 C 20.052401,23.582805 19.589044,23.814484 19.589044,24.097647 C 19.589044,24.845321 16.640851,24.73046 16.285474,23.968937 C 16.045215,23.454095 15.925085,23.454095 15.684825,23.968937 C 15.210493,24.985364 12.693896,24.730877 11.866414,23.582805 z M 14.440624,23.067963 C 14.440624,22.7848 15.13566,22.553121 15.98515,22.553121 C 16.834639,22.553121 17.529676,22.7848 17.529676,23.067963 C 17.529676,23.351126 17.993033,23.582805 18.55936,23.582805 C 19.125686,23.582805 19.589044,23.351126 19.589044,23.067963 C 19.589044,22.7848 19.357365,22.553121 19.074202,22.553121 C 18.791039,22.553121 18.55936,22.321442 18.55936,22.038279 C 18.55936,21.755116 18.923427,21.523437 19.368397,21.523437 C 20.709647,21.523437 21.648412,20.160712 21.648412,18.213739 C 21.648412,17.20244 21.880091,16.375017 22.163254,16.375017 C 22.446417,16.375017 22.909775,14.315649 23.192938,14.315649 C 23.476101,14.315649 23.70778,13.388934 23.70778,12.256281 C 23.70778,11.123629 23.476101,10.196913 23.192938,10.196913 C 22.909775,10.196913 22.691377,9.8386604 22.678096,9.4012455 C 22.62673,7.7095159 19.352823,5.1927571 15.67265,5.2717081 C 11.99179,5.3506746 9.607686,7.8553809 9.2922037,9.4012455 C 8.9679798,10.989945 8.2625197,11.123629 8.2625197,12.256281 C 8.2625197,13.388934 8.4941986,14.315649 8.7773617,14.315649 C 9.0605248,14.315649 9.5238826,16.375017 9.8070457,16.375017 C 10.090209,16.375017 10.321888,17.20244 10.321888,18.213739 C 10.321888,20.160712 11.260652,21.523437 12.601902,21.523437 C 13.046873,21.523437 13.41094,21.755116 13.41094,22.038279 C 13.41094,22.321442 13.179261,22.553121 12.896098,22.553121 C 12.612935,22.553121 12.381256,22.7848 12.381256,23.067963 C 12.381256,23.351126 12.844613,23.582805 13.41094,23.582805 C 13.977266,23.582805 14.440624,23.351126 14.440624,23.067963 z M 13.41094,21.008595 C 13.41094,20.725432 12.947582,20.493753 12.381256,20.493753 C 11.58039,20.493753 11.351572,20.150523 11.351572,18.949227 C 11.351572,17.393297 12.072194,16.85449 12.556578,18.048254 C 12.753201,18.532833 12.95457,18.501037 13.371744,17.919543 C 13.864222,17.233089 13.982986,17.233089 14.440624,17.919543 C 14.898261,18.605997 15.01267,18.605997 15.470308,17.919543 C 15.927945,17.233089 16.042354,17.233089 16.499992,17.919543 C 16.957629,18.605997 17.072038,18.605997 17.529676,17.919543 C 17.987313,17.233089 18.106077,17.233089 18.598555,17.919543 C 19.01573,18.501037 19.217099,18.532833 19.413721,18.048254 C 19.898105,16.85449 20.618728,17.393297 20.618728,18.949227 C 20.618728,20.128143 20.385142,20.493753 19.631947,20.493753 C 19.089218,20.493753 18.527659,20.783352 18.384037,21.137306 C 18.187415,21.621885 17.986046,21.590089 17.568871,21.008595 C 17.076393,20.322141 16.957629,20.322141 16.499992,21.008595 C 16.042354,21.695049 15.92359,21.695049 15.431112,21.008595 C 15.013938,20.427102 14.812569,20.395305 14.615946,20.879885 C 14.304786,21.646737 13.41094,21.742214 13.41094,21.008595 z "
       id="path11591" />
    <path
       id="path3233"
       d="M 11.351572,13.285965 C 11.351572,12.517275 11.437379,11.226597 12.896098,11.226597 C 14.354816,11.226597 14.440624,12.491708 14.440624,13.285965 C 14.440624,13.977959 14.354816,15.345333 12.896098,15.345333 C 11.437379,15.345333 11.351572,14.080222 11.351572,13.285965 z M 17.529676,13.800807 C 17.529676,12.96508 17.701289,12.256281 19.074202,12.256281 C 20.447114,12.256281 20.618728,13.142154 20.618728,13.800807 C 20.618728,14.484965 20.447114,15.345333 19.074202,15.345333 C 17.701289,15.345333 17.529676,14.738854 17.529676,13.800807 z "
       style="fill:#7c7a78"
       sodipodi:nodetypes="cszszcszsz" />
    <path
       sodipodi:nodetypes="czzzzczzzz"
       style="fill:black"
       d="M 11.995124,14.575217 C 11.453151,14.033243 11.755765,12.293381 12.123835,11.92531 C 12.438998,11.610144 13.275282,11.532233 13.668361,11.92531 C 14.086186,12.343135 14.19688,14.118099 13.705135,14.609845 C 13.225664,15.089318 12.550996,15.131092 11.995124,14.575217 z M 18.144972,14.54497 C 17.81968,14.219677 17.872713,13.384223 18.273683,12.983254 C 18.647451,12.609483 19.48946,12.597992 19.883239,12.991769 C 20.238046,13.346578 20.203621,14.289464 19.920013,14.57307 C 19.597308,14.895773 18.418763,14.818763 18.144972,14.54497 z "
       id="path11593" />
  </g>
</svg>
