<?xml version="1.0" encoding="UTF-8" standalone="no"?>
<!-- Created with Inkscape (http://www.inkscape.org/) -->
<svg
   xmlns:dc="http://purl.org/dc/elements/1.1/"
   xmlns:cc="http://web.resource.org/cc/"
   xmlns:rdf="http://www.w3.org/1999/02/22-rdf-syntax-ns#"
   xmlns:svg="http://www.w3.org/2000/svg"
   xmlns="http://www.w3.org/2000/svg"
   xmlns:sodipodi="http://sodipodi.sourceforge.net/DTD/sodipodi-0.dtd"
   xmlns:inkscape="http://www.inkscape.org/namespaces/inkscape"
   id="svg1953"
   sodipodi:version="0.32"
   inkscape:version="0.44.1"
   width="32"
   height="36"
   version="1.0"
   sodipodi:docbase="/home/adam/workspace/Escape-j2se/src/org/spacebar/escape/j2se/resources/animation"
   sodipodi:docname="walk_forward_0.svg">
  <metadata
     id="metadata1958">
    <rdf:RDF>
      <cc:Work
         rdf:about="">
        <dc:format>image/svg+xml</dc:format>
        <dc:type
           rdf:resource="http://purl.org/dc/dcmitype/StillImage" />
      </cc:Work>
    </rdf:RDF>
  </metadata>
  <defs
     id="defs1956" />
  <sodipodi:namedview
     inkscape:window-height="617"
     inkscape:window-width="906"
     inkscape:pageshadow="2"
     inkscape:pageopacity="0.0"
     guidetolerance="10.0"
     gridtolerance="10.0"
     objecttolerance="10.0"
     borderopacity="1.0"
     bordercolor="#666666"
     pagecolor="#ffffff"
     id="base"
     inkscape:zoom="11.305556"
     inkscape:cx="16"
     inkscape:cy="18"
     inkscape:window-x="181"
     inkscape:window-y="134"
     inkscape:current-layer="svg1953" />
  <g
     id="g2226">
    <path
       style="fill:#d0d0d0;fill-opacity:1"
       d="M 9.1101135,34.632679 C 8.2469844,33.592672 8.3373649,32.964901 9.4876688,32.010234 C 11.619348,30.241097 11.365592,29 8.8721918,29 C 6.9328929,29 6.8038888,28.627874 7.4160523,24.799614 C 7.7854701,22.489402 8.5626721,20.026948 9.1431679,19.327493 C 9.9048339,18.409742 9.7534517,17.610595 8.5993074,16.45645 C 4.8790049,12.736148 8.340233,2.6020507 13.718981,1.4666064 C 19.527311,0.24047816 19.987983,0.21042763 19.442363,1.0932588 C 19.134145,1.5919664 19.505082,2 20.266669,2 C 21.028256,2 22.629813,3.041503 23.825686,4.3144512 C 26.485945,7.1461671 26.812629,14.044514 24.400693,16.45645 C 23.246548,17.610595 23.095166,18.409742 23.856832,19.327493 C 24.437328,20.026948 25.21453,22.489402 25.583948,24.799614 C 26.196111,28.627874 26.067107,29 24.127808,29 C 21.634408,29 21.380652,30.241097 23.512331,32.010234 C 26.301392,34.324948 23.357355,36 16.5,36 C 12.429616,36 9.8485455,35.522435 9.1101135,34.632679 z M 14.33541,14.640474 C 15.2207,15.136817 15.221113,14.991329 14.337132,14.033837 C 12.966016,12.548698 10.648089,13.621579 11.666773,15.269844 C 12.176955,16.095336 12.475015,16.074956 12.768495,15.194515 C 12.989774,14.530678 13.694886,14.28136 14.33541,14.640474 z M 21.087132,13.687132 C 20.304289,12.904289 19.650124,12.976944 18.75,13.946704 C 17.75,15.024068 17.75,15.152265 18.75,14.587687 C 19.4375,14.199541 20,14.385081 20,15 C 20,15.614919 20.48921,15.815686 21.087132,15.446149 C 21.869975,14.962326 21.869975,14.469975 21.087132,13.687132 z "
       id="path2242" />
    <path
       style="fill:#b9b9b9;fill-opacity:1"
       d="M 10.179647,34.716462 C 9.504356,33.902785 9.4539273,32.896098 10.04189,31.966462 C 11.469548,29.709167 11.189919,29 8.8721918,29 C 6.9328929,29 6.8038888,28.627874 7.4160523,24.799614 C 7.7854701,22.489402 8.5626721,20.026948 9.1431679,19.327493 C 9.9048339,18.409742 9.7534517,17.610595 8.5993074,16.45645 C 4.8790049,12.736148 8.340233,2.6020507 13.718981,1.4666064 C 19.527311,0.24047816 19.987983,0.21042763 19.442363,1.0932588 C 19.134145,1.5919664 19.505082,2 20.266669,2 C 21.028256,2 22.629813,3.041503 23.825686,4.3144512 C 26.485945,7.1461671 26.812629,14.044514 24.400693,16.45645 C 23.246548,17.610595 23.095166,18.409742 23.856832,19.327493 C 24.437328,20.026948 25.21453,22.489402 25.583948,24.799614 C 26.196111,28.627874 26.067107,29 24.127808,29 C 21.810081,29 21.530452,29.709167 22.95811,31.966462 C 24.552081,34.486715 22.129155,36 16.5,36 C 13.442628,36 10.799395,35.463212 10.179647,34.716462 z M 11,26.559017 C 11,25.503542 9.0808867,25.060106 8.5100813,25.983688 C 8.1646179,26.54266 8.5835237,27 9.440983,27 C 10.298442,27 11,26.801558 11,26.559017 z M 25,26.559017 C 25,25.503542 23.080887,25.060106 22.510081,25.983688 C 22.164618,26.54266 22.583524,27 23.440983,27 C 24.298442,27 25,26.801558 25,26.559017 z M 17.5,18.192065 C 14.955594,17.67392 12.977328,16.078926 13.078947,14.627555 C 13.128553,13.919069 13.345356,13.964577 13.662281,14.75 C 14.60086,17.076045 17,16.095967 17,13.386501 C 17,11.056165 17.322413,10.820321 19.975754,11.209749 C 22.357714,11.559347 22.732369,11.382451 21.853309,10.323249 C 20.073204,8.1783528 16,8.6492909 16,11 C 16,12.442822 15.333333,13 13.606989,13 C 10.32394,13 9.3088693,16.021938 11.889891,18.111923 C 13.193826,19.167785 14.887402,19.540361 16.70108,19.170353 C 18.979761,18.70548 19.128257,18.523644 17.5,18.192065 z M 22.650518,14.695138 L 24.801036,12.424829 L 21.400518,12.821821 C 18.25944,13.188524 17.061088,14.727755 18.666667,16.333333 C 19.716792,17.383459 20.351123,17.122617 22.650518,14.695138 z M 9.6666667,12.543989 C 9.6666667,11.743182 9.2843263,11.324277 8.8170214,11.613087 C 8.3497166,11.901897 8.2262742,12.557102 8.5427051,13.069098 C 9.3513296,14.37748 9.6666667,14.230156 9.6666667,12.543989 z "
       id="path2240" />
    <path
       style="fill:#a3a3a3;fill-opacity:1"
       d="M 10.179647,34.716462 C 9.504356,33.902785 9.4539273,32.896098 10.04189,31.966462 C 11.488604,29.679037 11.165736,28.209069 9.25,28.361111 C 7.8045969,28.475826 7.5561508,27.806386 7.822603,24.514982 C 8.0000347,22.323222 8.5726875,20.01488 9.0951649,19.385333 C 9.7152467,18.63818 9.4618722,17.224445 8.3655134,15.314151 C 6.2192056,11.574425 7.1160353,7.7301186 11.053288,3.7928658 C 13.55262,1.2935339 14.50114,0.94672719 17.252076,1.5264071 C 24.546583,3.0635125 28.216969,10.389821 24.413207,15.820452 C 23.311245,17.393722 23.136291,18.459295 23.840604,19.30794 C 25.586584,21.411717 25.70136,28.224781 24,28.769633 C 22.789186,29.15739 22.740988,28.994553 23.75,27.925 C 25.320146,26.260646 25.37267,24.70911 23.841591,25.21947 C 22.289229,25.736924 21.762638,29.687967 22.950271,31.907081 C 23.592927,33.107894 23.528316,34.071684 22.753196,34.846804 C 21.174755,36.425245 11.514702,36.325105 10.179647,34.716462 z M 10.435239,25.895215 C 9.562623,24.483292 8,24.851226 8,26.468615 C 8,27.360699 8.5865969,27.712132 9.4942564,27.36383 C 10.316097,27.04846 10.73954,26.387584 10.435239,25.895215 z M 15.951968,27.25 C 15.838224,25.473912 12.412064,19.728439 11.5,19.784306 C 9.9946282,19.876515 8.4493321,22.790303 9.4222744,23.702036 C 9.8906187,24.140916 10.474702,23.9375 10.720238,23.25 C 10.965774,22.5625 11.565044,22 12.051949,22 C 12.538854,22 12.67601,22.680731 12.35674,23.512735 C 12.03747,24.344739 12.331693,25.694739 13.010569,26.512735 C 14.314408,28.083765 16.032951,28.51452 15.951968,27.25 z M 20.299784,23.899784 C 19.480447,23.080447 18.905223,23.308575 18.127824,24.761158 C 16.760443,27.316134 17.93644,28.492132 19.897619,26.530952 C 21.01261,25.415961 21.11912,24.71912 20.299784,23.899784 z M 24,22.559017 C 24,20.944951 22.583701,19.749633 21.708381,20.624952 C 20.928005,21.405329 22.003227,24 23.106989,24 C 23.598145,24 24,23.351558 24,22.559017 z M 20.09563,18.931906 C 21.693033,17.794454 23,16.219454 23,15.431906 C 23,14.644358 23.45,14 24,14 C 24.55,14 25,13.56125 25,13.025 C 25,12.484128 23.718222,12.306356 22.12128,12.625744 C 20.339891,12.982022 18.949083,12.726631 18.472655,11.955755 C 17.907959,11.042058 18.40871,10.844976 20.351375,11.21634 C 23.431987,11.805236 23.703329,11.254388 21.25,9.392046 C 18.619427,7.395157 17.054929,7.725327 16,10.5 C 15.33254,12.255554 14.297686,13 12.524751,13 C 11.136138,13 10,12.46 10,11.8 C 10,10.933333 9.6527778,10.968056 8.75,11.925 C 7.75,12.985 7.75,13.341667 8.75,13.708333 C 9.4375,13.960417 10,14.766634 10,15.499927 C 10,16.827391 14.735204,20.907988 16.34563,20.96832 C 16.810726,20.985744 18.498226,20.069358 20.09563,18.931906 z M 14.2,16.8 C 13.54,16.14 13.013684,15.1275 13.030409,14.55 C 13.047133,13.9725 13.519494,14.2875 14.080099,15.25 C 14.640704,16.2125 15.729659,17 16.5,17 C 17.270341,17 18.359296,16.2125 18.919901,15.25 C 19.480506,14.2875 19.952867,13.9725 19.969591,14.55 C 20.009059,15.912791 17.909997,18 16.5,18 C 15.895,18 14.86,17.46 14.2,16.8 z "
       id="path2238" />
    <path
       style="fill:#8c8c8c;fill-opacity:1"
       d="M 10.528423,34.045989 C 10.204136,33.521282 10.215395,31.98998 10.553442,30.643094 C 11.045379,28.683059 10.80196,28.224731 9.3340362,28.347105 C 7.7886695,28.475935 7.5507763,27.872775 7.822603,24.514982 C 8.0000347,22.323222 8.5726875,20.01488 9.0951649,19.385333 C 9.7152467,18.63818 9.4618722,17.224445 8.3655134,15.314151 C 6.2192056,11.574425 7.1160353,7.7301186 11.053288,3.7928658 C 13.55262,1.2935339 14.50114,0.94672719 17.252076,1.5264071 C 24.546583,3.0635125 28.216969,10.389821 24.413207,15.820452 C 23.311245,17.393722 23.136291,18.459295 23.840604,19.30794 C 25.586584,21.411717 25.70136,28.224781 24,28.769633 C 22.789186,29.15739 22.740988,28.994553 23.75,27.925 C 25.359178,26.219271 25.359178,24.713043 23.75,25.251963 C 23.002888,25.502173 22.5,27.440299 22.5,30.069447 C 22.5,33.62239 22.128105,34.540337 20.566097,34.842892 C 19.502451,35.048916 18.093171,34.480322 17.434364,33.579351 C 16.378553,32.135443 16.166951,32.12255 15.649652,33.47061 C 15.002833,35.156193 11.460534,35.554177 10.528423,34.045989 z M 10.435239,25.895215 C 9.562623,24.483292 8,24.851226 8,26.468615 C 8,27.360699 8.5865969,27.712132 9.4942564,27.36383 C 10.316097,27.04846 10.73954,26.387584 10.435239,25.895215 z M 16,26.877555 C 16,26.059612 16.359124,26.053157 17.323794,26.853762 C 18.805515,28.083482 21,26.577767 21,24.331385 C 21,23.61457 21.652444,23.313136 22.5,23.638374 C 23.435223,23.997252 24,23.631138 24,22.666006 C 24,20.688603 22.344643,19.633339 21.467948,21.051862 C 21.099311,21.648329 20.168217,21.894792 19.398849,21.599558 C 17.662632,20.933309 17.585332,22.152851 19.25,23.947914 C 19.9375,24.689266 18.428624,23.903142 15.896942,22.200972 C 12.435085,19.8734 11.009531,19.390469 10.146942,20.253058 C 8.4652054,21.934795 8.714336,24.323597 10.5,23.638374 C 11.347556,23.313136 12,23.61457 12,24.331385 C 12,25.746592 13.965566,28 15.2,28 C 15.64,28 16,27.4949 16,26.877555 z M 21.631923,17.428798 C 25.754748,13.05733 25.875213,11.874957 22.12128,12.625744 C 20.339891,12.982022 18.949083,12.726631 18.472655,11.955755 C 17.907959,11.042058 18.40871,10.844976 20.351375,11.21634 C 23.678208,11.852304 23.769838,10.749964 20.534089,9.0182438 C 18.560028,7.9617588 17.768565,7.9471846 16.566059,8.9451756 C 15.739894,9.6308317 15.162054,10.711163 15.281971,11.345912 C 15.401887,11.98066 14.2625,12.64239 12.75,12.816422 C 11.191557,12.995741 10,12.645199 10,12.007405 C 10,11.388414 9.55,11.160081 9,11.5 C 8.45,11.839919 8,12.600842 8,13.19094 C 8,14.799699 14.910178,21 16.703125,21 C 17.561521,21 19.779481,19.392959 21.631923,17.428798 z M 16.083333,17.717032 C 16.3125,17.5614 17.4,16.7739 18.5,15.967032 C 20.350006,14.610023 20.397071,14.631245 19.127555,16.25 C 18.372711,17.2125 17.285211,18 16.710889,18 C 16.136567,18 15.854167,17.872665 16.083333,17.717032 z "
       id="path2236" />
    <path
       style="fill:#767676;fill-opacity:1"
       d="M 10.322898,33.399075 C 9.9850151,32.518567 10.323606,31.418034 11.075322,30.953448 C 12.684965,29.958634 11.575961,28.530954 9.1794207,28.512754 C 7.8354295,28.502547 7.5644333,27.704075 7.822603,24.514982 C 8.0000347,22.323222 8.5726875,20.01488 9.0951649,19.385333 C 9.7152467,18.63818 9.4618722,17.224445 8.3655134,15.314151 C 6.2192056,11.574425 7.1160353,7.7301186 11.053288,3.7928658 C 13.55262,1.2935339 14.50114,0.94672719 17.252076,1.5264071 C 24.546583,3.0635125 28.216969,10.389821 24.413207,15.820452 C 23.311245,17.393722 23.136291,18.459295 23.840604,19.30794 C 24.398409,19.980053 24.999965,22.323222 25.177397,24.514982 C 25.435567,27.704075 25.16457,28.502547 23.820579,28.512754 C 21.424039,28.530954 20.315035,29.958634 21.924678,30.953448 C 23.812322,32.120076 22.500233,35 20.081075,35 C 18.991143,35 17.694066,34.275744 17.198682,33.390542 C 16.370837,31.911264 16.248029,31.911264 15.680377,33.390542 C 14.882184,35.470598 11.120115,35.47659 10.322898,33.399075 z M 25,26.195979 C 25,25.283844 24.292211,25.076245 22.75,25.53604 C 20.628224,26.168626 20.605926,26.125958 22.358741,24.78733 C 24.594678,23.07974 24.141338,19.441936 21.717036,19.637997 C 20.314182,19.751451 20.454388,19.248703 22.505351,16.811272 C 24.951569,13.904106 25.970891,10.281922 24,11.5 C 23.45,11.839919 23,11.653032 23,11.084697 C 23,10.516362 21.646453,9.3514142 19.992119,8.4959245 C 17.083646,6.9918946 16.946972,7.022277 15.856669,9.4152326 C 14.531783,12.323039 12.241874,13.445627 10.531243,12.025929 C 9.3382037,11.035795 8,11.598311 8,13.089941 C 8,13.506076 9.1225922,15.180675 10.494649,16.811272 C 12.545612,19.248703 12.685818,19.751451 11.282964,19.637997 C 8.8586619,19.441936 8.4053223,23.07974 10.641259,24.78733 C 12.394074,26.125958 12.371776,26.168626 10.25,25.53604 C 8.6989673,25.073615 8,25.283288 8,26.210986 C 8,27.234295 10.036651,27.553151 16.5,27.54174 C 22.900912,27.530439 25,27.198101 25,26.195979 z M 15.207482,21.75 C 14.428972,20.811954 14.740985,20.5 16.457718,20.5 C 17.876991,20.5 18.563283,20.97449 18.265692,21.75 C 18.001874,22.4375 17.439267,23 17.015456,23 C 16.591644,23 15.778056,22.4375 15.207482,21.75 z M 20,12 C 19.098708,11.41754 18.975367,11.024514 19.690983,11.015313 C 20.346024,11.006891 21.160081,11.45 21.5,12 C 22.267305,13.241525 21.921123,13.241525 20,12 z M 13.856763,6.1096872 C 14.802569,5.5103949 14.878293,5.0428147 14.106763,4.565983 C 12.83834,3.7820544 11,4.6655154 11,6.059017 C 11,7.22177 12.071669,7.2407782 13.856763,6.1096872 z "
       id="path2234" />
    <path
       style="fill:#606060;fill-opacity:1"
       d="M 10.322898,33.399075 C 9.9850151,32.518567 10.323606,31.418034 11.075322,30.953448 C 12.684965,29.958634 11.575961,28.530954 9.1794207,28.512754 C 7.8354295,28.502547 7.5644333,27.704075 7.822603,24.514982 C 8.0000347,22.323222 8.592641,19.990838 9.139506,19.331905 C 9.8195411,18.512513 9.5805791,17.243512 8.383456,15.316924 C 6.5705683,12.399355 6.9253399,12.663628 10.847892,17.152708 C 12.878253,19.47631 12.94318,19.78647 11.371227,19.652708 C 8.8629732,19.439273 8.3512896,23.038475 10.641259,24.78733 C 12.394074,26.125958 12.371776,26.168626 10.25,25.53604 C 8.6989673,25.073615 8,25.283288 8,26.210986 C 8,27.234295 10.036651,27.553151 16.5,27.54174 C 22.900912,27.530439 25,27.198101 25,26.195979 C 25,25.283844 24.292211,25.076245 22.75,25.53604 C 20.628224,26.168626 20.605926,26.125958 22.358741,24.78733 C 24.594678,23.07974 24.141338,19.441936 21.717036,19.637997 C 20.314182,19.751451 20.454388,19.248703 22.505351,16.811272 C 24.885774,13.982299 25.990238,10.269965 24.104785,11.435239 C 23.001036,12.117394 21.767291,9.1855479 22.594717,7.8467447 C 23.330119,6.6568388 20.05797,2.8461389 18.910027,3.5556063 C 17.657063,4.3299805 19.01826,7 20.666006,7 C 21.464621,7 21.839167,7.4512169 21.498329,8.0027043 C 21.08636,8.6692839 20.227073,8.6567096 18.934964,7.9651937 C 17.318649,7.1001682 16.800808,7.3430728 15.860202,9.4074776 C 14.501916,12.38859 12.234777,13.439737 10.417057,11.931163 C 9.6858609,11.324325 8.6178976,11.118118 8.0438049,11.472927 C 6.3644833,12.510805 6.8473128,9.7626734 8.9502272,6.3138219 C 12.602367,0.32418876 17.832719,-0.22369618 23.25,4.8159056 C 26.423152,7.7678333 26.899173,12.271238 24.413207,15.820452 C 23.311245,17.393722 23.136291,18.459295 23.840604,19.30794 C 24.398409,19.980053 24.999965,22.323222 25.177397,24.514982 C 25.435567,27.704075 25.16457,28.502547 23.820579,28.512754 C 21.424039,28.530954 20.315035,29.958634 21.924678,30.953448 C 23.812322,32.120076 22.500233,35 20.081075,35 C 18.991143,35 17.694066,34.275744 17.198682,33.390542 C 16.370837,31.911264 16.248029,31.911264 15.680377,33.390542 C 14.882184,35.470598 11.120115,35.47659 10.322898,33.399075 z M 14,6.7594532 C 14,6.3417539 14.675,6 15.5,6 C 16.957627,6 17.568747,3.9020806 16.43994,2.7732733 C 15.426186,1.7595197 10.234877,4.9938255 9.7208647,6.959413 C 9.4440273,8.0180407 9.4420962,9.1087629 9.7165733,9.38324 C 10.348067,10.014734 14,7.777765 14,6.7594532 z M 20,12 C 19.098708,11.41754 18.975367,11.024514 19.690983,11.015313 C 20.346024,11.006891 21.160081,11.45 21.5,12 C 22.267305,13.241525 21.921123,13.241525 20,12 z "
       id="path2232" />
    <path
       style="fill:#494949;fill-opacity:1"
       d="M 10,33.2 C 10,32.76 10.50079,31.89921 11.112868,31.287132 C 12.52076,29.87924 11.386913,27.914297 9.5691256,28.611848 C 8.8173722,28.900322 7.9526545,28.73241 7.6475306,28.23871 C 7.0499185,27.271753 9.9024567,27.222736 11.517581,28.172208 C 12.057912,28.489849 13.4,28.416638 14.5,28.009517 C 15.6,27.602397 17.46623,27.629977 18.647177,28.070805 C 19.828125,28.511634 21.074792,28.591875 21.417548,28.249118 C 22.410693,27.255974 25.965645,27.24657 25.352469,28.23871 C 25.047346,28.73241 24.182628,28.900322 23.430874,28.611848 C 21.613087,27.914297 20.47924,29.87924 21.887132,31.287132 C 22.49921,31.89921 23,32.76 23,33.2 C 23,34.391166 18.567371,34.167371 17.312868,32.912868 C 16.530025,32.130025 16.037674,32.130025 15.553851,32.912868 C 14.783156,34.159878 10,34.407165 10,33.2 z M 20.367683,30.515783 C 19.370521,27.91722 13.617761,27.947756 12.616529,30.556927 C 11.918708,32.375419 13.427447,32.429696 15.207022,30.650121 C 16.281114,29.576029 16.794189,29.554259 17.718339,30.543565 C 18.35713,31.227393 18.583044,32.083623 18.220369,32.446297 C 17.857695,32.808972 18.306331,32.81968 19.217338,32.470094 C 20.128346,32.120508 20.646001,31.241068 20.367683,30.515783 z M 7.8138303,23.035714 C 8.0638383,21.641071 8.6881089,19.967616 9.2010982,19.316924 C 9.8065664,18.548928 9.5437085,17.233245 8.4518931,15.566924 C 7.526841,14.155116 6.9949801,13 7.2699801,13 C 7.5449801,13 8.5037494,14.119873 9.4005785,15.488608 C 10.747512,17.544289 10.812655,18.327124 9.7750417,19.988608 C 8.8352964,21.493379 8.7997974,22.449778 9.6341035,23.785714 C 10.539996,25.236279 10.431173,25.571429 9.0542854,25.571429 C 7.787061,25.571429 7.473993,24.931461 7.8138303,23.035714 z M 23.365897,23.785714 C 24.200203,22.449778 24.164704,21.493379 23.224958,19.988608 C 22.187345,18.327124 22.252488,17.544289 23.599421,15.488608 C 24.496251,14.119873 25.45502,13 25.73002,13 C 26.00502,13 25.473159,14.155116 24.548107,15.566924 C 23.456291,17.233245 23.193434,18.548928 23.798902,19.316924 C 24.311891,19.967616 24.936162,21.641071 25.18617,23.035714 C 25.526007,24.931461 25.212939,25.571429 23.945715,25.571429 C 22.568827,25.571429 22.460004,25.236279 23.365897,23.785714 z M 10.484687,11.975223 C 10.136347,11.411596 10.222289,11.014886 10.67567,11.093644 C 12.936391,11.486363 14.085505,10.735332 15.54641,7.9102531 C 17.028651,5.0439145 17.271372,4.9356127 18.903242,6.4124349 C 19.870725,7.2879957 21.035431,7.6658818 21.491477,7.2521818 C 21.947522,6.8384818 21.983442,7.0843512 21.571298,7.7985583 C 20.967064,8.8456389 20.527741,8.852949 19.30276,7.8363052 C 18.049442,6.7961436 17.545972,6.9189002 16.425893,8.5377469 C 13.223235,13.16654 11.748354,14.01988 10.484687,11.975223 z M 20,12 C 19.098708,11.41754 18.975367,11.024514 19.690983,11.015313 C 20.346024,11.006891 21.160081,11.45 21.5,12 C 22.267305,13.241525 21.921123,13.241525 20,12 z M 7.1197394,11 C 6.9601976,8.8682903 10.528936,3.3224731 12.864627,2.0724495 C 17.622534,-0.47390523 26.658204,5.1980567 25.719876,10.142076 C 25.301198,12.348074 25.26359,12.327199 25.136182,9.8180942 C 24.993102,7.000352 19.845349,2.3595115 18.075923,3.4530771 C 17.560173,3.7718278 16.855545,3.5752834 16.510081,3.0163119 C 15.549389,1.4618788 14.537499,1.7725216 11.553585,4.5379195 C 9.9192105,6.0526067 9.049364,7.6862573 9.3961079,8.5898573 C 9.7156487,9.4225673 9.5663026,9.8499942 9.0642275,9.5396948 C 8.5621525,9.2293954 7.9445076,9.7685234 7.6916833,10.737757 C 7.3668673,11.98298 7.1990661,12.059919 7.1197394,11 z M 22.5,10 C 22.160081,9.45 22.358524,9 22.940983,9 C 23.523442,9 24,9.45 24,10 C 24,10.55 23.801558,11 23.559017,11 C 23.316476,11 22.839919,10.55 22.5,10 z "
       id="path2230" />
    <path
       style="fill:#333;fill-opacity:1"
       d="M 10.191667,32.925 C 10.38875,32.33375 10.87625,31.88375 11.275,31.925 C 11.67375,31.96625 12.926558,32 14.059017,32 C 15.191476,32 15.839919,32.45 15.5,33 C 14.664915,34.351196 9.7394648,34.281606 10.191667,32.925 z M 17.603006,33.166667 C 17.31974,32.708333 17.630682,32.31557 18.293989,32.29386 C 18.957295,32.272149 20.11875,32.084649 20.875,31.877193 C 21.63125,31.669737 22.45625,32.0625 22.708333,32.75 C 23.224459,34.157615 18.455969,34.546791 17.603006,33.166667 z M 20,3 C 19.098708,2.4175404 18.975367,2.0245136 19.690983,2.0153128 C 20.346024,2.0068907 21.160081,2.45 21.5,3 C 22.267305,4.2415252 21.921123,4.2415252 20,3 z M 13.782627,1.6935756 C 15.167055,1.0698921 16.424544,1.0262345 16.978332,1.582627 C 17.531257,2.1381534 16.630903,2.5437623 14.695705,2.6109486 C 11.720546,2.7142403 11.657532,2.6509293 13.782627,1.6935756 z "
       id="path2228" />
  </g>
</svg>
