<?xml version="1.0" encoding="UTF-8" standalone="no"?>
<!-- Created with Inkscape (http://www.inkscape.org/) -->
<svg
   xmlns:dc="http://purl.org/dc/elements/1.1/"
   xmlns:cc="http://web.resource.org/cc/"
   xmlns:rdf="http://www.w3.org/1999/02/22-rdf-syntax-ns#"
   xmlns:svg="http://www.w3.org/2000/svg"
   xmlns="http://www.w3.org/2000/svg"
   xmlns:sodipodi="http://sodipodi.sourceforge.net/DTD/sodipodi-0.dtd"
   xmlns:inkscape="http://www.inkscape.org/namespaces/inkscape"
   id="svg1953"
   sodipodi:version="0.32"
   inkscape:version="0.44.1"
   width="32"
   height="36"
   version="1.0"
   sodipodi:docbase="/home/adam/workspace/Escape-j2se/src/org/spacebar/escape/j2se/resources/animation"
   sodipodi:docname="walk_forward_0.svg">
  <metadata
     id="metadata1958">
    <rdf:RDF>
      <cc:Work
         rdf:about="">
        <dc:format>image/svg+xml</dc:format>
        <dc:type
           rdf:resource="http://purl.org/dc/dcmitype/StillImage" />
      </cc:Work>
    </rdf:RDF>
  </metadata>
  <defs
     id="defs1956">
    <linearGradient
       id="linearGradient2979">
      <stop
         style="stop-color:white;stop-opacity:1;"
         offset="0"
         id="stop2981" />
      <stop
         style="stop-color:white;stop-opacity:0;"
         offset="1"
         id="stop2983" />
    </linearGradient>
    <linearGradient
       id="linearGradient9439">
      <stop
         style="stop-color:#9eabdd;stop-opacity:1;"
         offset="0"
         id="stop9441" />
      <stop
         style="stop-color:#9eabdd;stop-opacity:0;"
         offset="1"
         id="stop9443" />
    </linearGradient>
  </defs>
  <sodipodi:namedview
     inkscape:window-height="945"
     inkscape:window-width="1269"
     inkscape:pageshadow="2"
     inkscape:pageopacity="0.0"
     guidetolerance="10.0"
     gridtolerance="10.0"
     objecttolerance="10.0"
     borderopacity="1.0"
     bordercolor="#666666"
     pagecolor="#ffffff"
     id="base"
     inkscape:zoom="5.6527778"
     inkscape:cx="23.013607"
     inkscape:cy="19.90448"
     inkscape:window-x="0"
     inkscape:window-y="25"
     inkscape:current-layer="svg1953"
     showgrid="true"
     inkscape:grid-bbox="false"
     inkscape:object-paths="true"
     inkscape:object-bbox="false"
     inkscape:grid-points="false"
     showguides="true"
     inkscape:guide-bbox="true" />
  <path
     sodipodi:type="arc"
     style="fill:black;fill-opacity:0.32786885;stroke:none;stroke-width:0.40000001;stroke-miterlimit:4;stroke-dasharray:none;stroke-opacity:1"
     id="path2997"
     sodipodi:cx="16.540541"
     sodipodi:cy="35.601967"
     sodipodi:rx="9.818182"
     sodipodi:ry="1.1941032"
     d="M 26.358723 35.601967 A 9.818182 1.1941032 0 1 1  6.7223587,35.601967 A 9.818182 1.1941032 0 1 1  26.358723 35.601967 z"
     transform="translate(-0.446706,-0.83585)" />
  <path
     sodipodi:nodetypes="cssssccsssssssssssssssss"
     style="fill:#03f8f8;stroke:none;stroke-width:0.40000001;stroke-miterlimit:4;stroke-dasharray:none;stroke-opacity:1;fill-opacity:1"
     d="M 21.962794,16.033323 C 21.749393,16.033323 21.515335,16.260699 21.442661,16.538601 C 21.369988,16.816503 21.083154,17.103337 20.805252,17.17601 C 20.52735,17.248683 20.299977,17.498097 20.299977,17.730264 C 20.299977,17.9758 20.078358,18.152387 19.770211,18.152387 C 19.47884,18.152387 18.988928,18.403904 18.681521,18.711312 C 18.260603,19.231886 17.852175,18.475643 17.121381,19.975691 C 17.121381,20.104392 16.853187,20.255654 16.525395,20.311827 C 15.748069,20.445034 14.737434,20.288671 14.737434,20.0352 C 14.737434,19.779685 12.665557,18.41727 12.276992,18.41727 C 12.115384,18.41727 11.393856,17.791484 10.673597,17.026635 C 9.6505974,15.940302 9.0884495,17.752382 7.8690744,18.959632 C 6.8218328,19.996458 6.7908918,20.077976 6.7891966,21.804766 C 6.7878934,23.1332 6.6544453,23.783323 6.2611762,24.377138 C 5.4664477,25.577137 8.4445097,25.18995 9.2973932,26.042833 C 9.9901655,26.735606 8.2903769,28.88955 9.1811824,28.412808 C 9.5767401,28.201111 9.8976263,28.202685 9.958418,28.660277 C 10.222685,30.649475 21.401852,29.823751 21.900395,28.660277 C 22.082206,28.235976 22.282073,28.201111 22.677631,28.412808 C 23.568435,28.88955 22.199991,26.735606 22.892763,26.042833 C 23.745649,25.18995 26.392366,25.577137 25.597637,24.377138 C 25.204368,23.783323 25.07092,23.1332 25.069617,21.804766 C 25.067927,20.083096 25.034462,19.993965 24.008339,18.978046 C 22.739348,17.721674 22.227801,16.033323 21.962794,16.033323 z "
     id="path9762" />
  <path
     id="path3032"
     style="fill:#00e0e0;fill-opacity:1;fill-rule:evenodd;stroke:none;stroke-width:1px;stroke-linecap:butt;stroke-linejoin:miter;stroke-opacity:1"
     d="M 10.113706,17.773524 C 10.17741,17.910225 8.669442,19.153872 7.9087722,19.861791 C 7.5530394,20.192854 7.2493978,19.955315 7.3045598,19.854677 C 7.5569052,19.394298 10.280827,16.285882 10.113706,17.773524 z M 23.490837,26.034313 C 23.407298,25.958907 23.672794,25.765982 23.332931,25.006185 C 22.981847,24.221304 22.025704,22.868235 21.976513,22.752742 C 21.652209,21.991324 23.003453,20.114866 23.242051,18.842243 C 23.36415,18.190998 22.317718,18.067212 22.424327,17.566401 C 22.621956,16.638011 22.584474,16.36096 22.428604,16.41233 C 19.514056,17.372872 17.0253,19.212998 15.582584,20.735649 C 15.309328,21.024044 15.575789,22.839392 16.352545,23.450344 C 16.886165,23.870059 20.458332,23.443131 21.43916,23.463789 C 22.419988,23.484446 21.896769,25.071623 22.280594,25.590128 C 22.839702,26.345421 23.562861,26.099325 23.490837,26.034313 z M 9.1547912,25.186732 C 9.3742331,24.722032 9.7149529,23.281992 10.44256,22.842123 C 11.773131,22.037736 12.075726,22.172935 11.067384,23.498304 C 10.501342,24.242311 10.399909,25.484136 10.061425,25.850123 C 9.471744,26.487715 8.7788697,25.982801 9.1547912,25.186732 z M 15.386087,27.056055 L 14.979544,29.432768 L 16.261718,29.589131 L 16.449353,27.212418 L 15.386087,27.056055 z "
     sodipodi:nodetypes="cssccsssssssssccssscccccc" />
  <path
     style="fill:#6276c8;fill-rule:evenodd;stroke:none;stroke-width:1px;stroke-linecap:butt;stroke-linejoin:miter;stroke-opacity:1;fill-opacity:1"
     d="M 13.759916,20.238642 L 18.513341,20.113552 C 18.36159,20.113552 19.114134,20.30024 18.814445,21.355089 C 18.748631,21.586742 17.617066,22.425786 17.546759,22.678497 C 16.957674,24.795906 16.80489,27.139889 16.553634,27.678632 C 16.3661,28.080741 14.925276,28.746294 14.78316,27.564827 C 14.636923,26.349097 14.558721,23.729728 14.372676,22.367772 C 14.349518,22.198242 13.377974,21.616765 13.355722,21.451808 C 13.159025,19.993691 13.992983,20.180375 13.759916,20.238642 z "
     id="path3034"
     sodipodi:nodetypes="ccssssssc" />
  <path
     style="fill:#fdc09d;fill-opacity:1;fill-rule:evenodd;stroke:none;stroke-width:1px;stroke-linecap:butt;stroke-linejoin:miter;stroke-opacity:1"
     d="M 7.0653557,11.660815 C 6.1019259,13.093686 5.8515929,12.453663 7.9791052,15.01123 C 10.127836,17.594303 10.161297,18.276684 12.229255,20.114829 C 14.297212,21.952974 17.558456,22.416673 19.974986,19.931416 C 22.391516,17.446159 22.481938,16.885584 24.403153,14.94094 C 26.324368,12.996297 24.965459,13.511746 25.246612,11.660817 C 27.384428,5.6748079 21.681715,2.354277 16.437139,1.3518565 C 11.938358,1.1955199 8.4353569,7.8762055 7.0653557,11.660815 z "
     id="path9764"
     sodipodi:nodetypes="cszzsccc" />
  <path
     sodipodi:nodetypes="czzz"
     id="path3051"
     d="M 13.872368,10.671021 C 12.949828,11.421562 6.3282896,11.047361 8.5669267,13.655707 C 10.805564,16.264053 28.095623,7.5251412 19.411895,6.6427686 C 10.728167,5.760396 14.794908,9.9204805 13.872368,10.671021 z "
     style="fill:#ffbb8d;fill-opacity:1;fill-rule:evenodd;stroke:none;stroke-width:1px;stroke-linecap:butt;stroke-linejoin:miter;stroke-opacity:1" />
  <path
     sodipodi:nodetypes="csssssssscsscccssscsssssssssssssssssscccsssssc"
     style="fill:#ac8667"
     d="M 6.79651,15.262874 C 6.1655878,13.945378 6.0677427,13.416194 6.0680818,11.323216 C 6.0683678,9.5457472 6.1691823,8.8218988 6.4487716,8.5898613 C 6.6579338,8.4162702 6.9039916,7.9331209 6.9955643,7.5161977 C 7.0871345,7.0992746 7.321495,6.6258333 7.5163668,6.4641037 C 7.7112359,6.3023767 7.949425,5.8471488 8.0456756,5.452489 C 8.279011,4.4957316 11.271699,1.4867243 12.190681,1.2848808 C 12.59116,1.1969211 13.060854,0.95381943 13.234445,0.74465475 C 13.65693,0.23558941 16.22171,0.22900707 16.6424,0.73590825 C 16.817872,0.94733513 17.359045,1.1640989 18.394531,1.2680893 C 18.691546,1.3423431 19.516884,0.093585578 19.660966,0.066755684 C 20.090897,-0.013303102 19.490521,0.53185411 19.472293,0.97266886 C 19.461209,1.2407055 20.407488,1.4004398 20.590143,1.4729477 C 23.463969,2.2653505 25.25918,3.9872436 25.933127,6.8539902 C 26.352689,8.5698917 25.933913,10.331259 25.933913,10.331259 C 25.934523,13.030554 25.849614,13.879138 25.5544,14.124145 C 25.345235,14.297733 25.096838,14.791541 25.002405,15.221491 C 24.901715,15.67993 24.241891,16.198147 23.793404,16.836817 C 23.344918,17.475487 22.235113,16.254607 22.249785,15.856935 C 22.264456,15.459264 23.285867,15.18548 23.285867,14.920682 C 23.285867,14.655884 23.64346,14.184604 24.080516,13.87339 C 24.855188,13.321777 25.039117,12.754676 24.716246,11.913283 C 24.591966,11.589418 24.443109,11.560273 24.033341,11.779575 C 23.29352,12.175514 22.808392,11.907413 22.708984,11.04768 C 22.657626,10.603508 22.38713,10.192494 22.029496,10.015208 C 21.702707,9.8532137 21.216533,9.5226572 20.949109,9.2806417 C 20.681683,9.038626 20.33781,8.8406127 20.184943,8.8406127 C 20.032076,8.8406127 19.743471,8.6089752 19.543592,8.325863 C 19.304933,7.9878166 18.816467,7.7893027 18.120649,7.7475757 C 16.84898,7.6713132 15.970291,8.0961087 15.723309,8.9065527 C 15.623369,9.2344991 15.36616,9.7028735 15.151731,9.9473849 C 14.922571,10.208692 14.831883,10.612564 14.931728,10.927147 C 15.209783,11.803219 14.317363,12.410089 12.192655,12.789796 C 10.320239,13.124415 10.249293,13.11725 9.624614,12.530394 C 9.2712786,12.198453 8.9821853,11.77588 8.9821853,11.591347 C 8.9821853,10.941054 8.4790586,10.957121 7.8073143,11.628862 C 6.9491356,12.487043 6.9433452,13.210417 7.7902108,13.765308 C 8.1544259,14.003949 8.4524193,14.364722 8.4524193,14.567024 C 10.928147,18.673929 7.7446827,17.736314 6.79651,15.262874 z M 20.637037,12.813858 C 20.418509,12.672636 19.971519,12.555264 19.643726,12.553033 C 19.315933,12.550801 18.791208,12.292444 18.477669,11.978908 C 17.928349,11.429585 17.925372,11.395842 18.395854,11.051817 C 19.251074,10.426465 20.529172,10.616273 21.560499,11.521791 C 22.303898,12.174505 22.43856,12.425702 22.19949,12.713764 C 21.847232,13.13821 21.202814,13.179492 20.637037,12.813858 z "
     id="path9766" />
  <g
     id="g9768"
     transform="matrix(0.264883,0,0,0.264883,33.95201,-24.04291)">
    <path
       id="path9770"
       d="M -41.57867,152.12534 C -41.93651,153.25277 -42.49042,155.07546 -40.28507,155.07546 C -38.07972,155.07546 -35.22289,151.83517 -33.78569,147.7037 C -33.18718,145.98316 -32.14608,144.02221 -31.47214,143.34601 C -30.64842,142.51954 -30.20785,137.97423 -30.12797,129.47832 C -28.43345,113.86745 -36.121982,102.85772 -50.16766,97.605777 L -56.75985,96.990187 C -60.46914,96.643807 -64.08854,95.708067 -65.03617,94.850477 C -67.54792,92.577377 -75.65165,92.857757 -78.78996,95.326357 C -80.18838,96.426357 -82.07825,97.326357 -82.98966,97.326357 C -86.68427,97.326357 -100.06212,114.27032 -100.06212,119.00983 C -100.06212,119.55982 -101.09618,122.04102 -102.20715,123.45339 C -103.92648,125.63916 -105.06998,126.67428 -104.88266,133.98567 C -104.69383,141.3561 -104.22622,143.42718 -101.58853,148.57546 C -99.10403,153.42473 -97.99169,154.63614 -95.78865,154.89188 C -93.58561,155.14762 -96.01352,148.60048 -96.03102,147.40886 C -96.04852,146.21724 -97.14213,144.41724 -98.46128,143.40886 C -102.48238,140.33509 -101.56554,138.45979 -98.57898,134.09111 C -96.787932,131.4712 -96.220405,130.80651 -95.08729,130.70683 C -93.954175,130.60715 -95.881297,130.97794 -94.04652,133.6924 C -91.655222,137.23021 -88.51359,140.00767 -84.06283,138.84905 C -82.13783,138.34794 -79.21283,137.68734 -77.56283,137.38106 C -73.66206,136.65698 -72.06283,135.31586 -72.06283,132.76874 C -72.06283,131.75228 -71.545913,130.06097 -70.774627,128.22354 C -69.404698,124.95997 -67.232299,121.23542 -65.72858,120.01256 C -64.13867,118.7196 -63.06429,118.63817 -59.50824,119.54109 C -57.14407,120.14138 -54.38919,121.34846 -53.38629,122.2235 C -52.38338,123.09854 -51.11283,123.99284 -50.56283,124.21083 C -48.04157,125.21014 -42.06283,129.35889 -42.06283,130.10913 C -41.573823,132.8688 -40.923702,136.05664 -37.67934,134.74375 C -35.307039,133.57546 -35.26234,133.34216 -34.26183,135.53804 C -32.84422,138.64936 -33.74007,141.63396 -36.66729,143.55194 C -38.12746,144.50868 -39.06283,146.08872 -39.06283,147.59851 C -39.06283,148.96083 -39.48251,150.07546 -39.99544,150.07546 C -40.50838,150.07546 -41.22083,150.99791 -41.57867,152.12534 z "
       style="fill:#996435;fill-opacity:1"
       sodipodi:nodetypes="ccsscccsssssssccssssssssssssccssssc" />
    <path
       id="path9772"
       d="M -50.050422,138.33888 C -50.875422,137.80572 -52.732822,137.36261 -54.177972,137.35419 C -57.053242,137.33743 -59.600512,135.03797 -58.577492,133.38268 C -58.222682,132.80859 -56.018132,132.33888 -53.678492,132.33888 C -50.317902,132.33888 -48.857382,132.93092 -46.723512,135.15821 C -45.237912,136.70884 -44.328722,138.28384 -44.703092,138.65821 C -45.673972,139.62909 -48.296272,139.47249 -50.050422,138.33888 z "
       style="fill:#966640;fill-opacity:1"
       sodipodi:nodetypes="csssssc" />
    <path
       sodipodi:nodetypes="cssccssc"
       style="fill:#4e65c1"
       d="M -81.783592,151.31742 C -82.669932,150.43108 -81.075352,145.55458 -79.755292,145.11456 C -78.425192,144.67119 -76.222072,149.53514 -77.105522,150.9646 C -77.727992,151.97178 -80.890702,152.21031 -81.783592,151.31742 z M -59.001792,150.9646 C -59.885252,149.53514 -57.682132,144.67119 -56.352032,145.11456 C -55.031972,145.55458 -53.437382,150.43108 -54.323732,151.31742 C -55.216622,152.21031 -58.379322,151.97178 -59.001792,150.9646 z "
       id="path9774" />
  </g>
  <path
     sodipodi:nodetypes="cssccssc"
     style="fill:#ac8667"
     d="M 15.759285,20.230466 C 15.950499,20.153949 16.178961,20.163358 16.266979,20.251379 C 16.354997,20.339396 16.198549,20.402002 15.91932,20.3905 C 15.610744,20.377789 15.54798,20.315022 15.759285,20.230466 z M 15.384333,18.071627 C 15.513368,17.862841 17.133369,17.972452 17.133369,18.189969 C 17.133369,18.246278 16.709143,18.292346 16.190642,18.292346 C 15.672144,18.292346 15.309305,18.193023 15.384333,18.071627 z "
     id="path9776" />
  <path
     style="fill:#fdb991;fill-opacity:1;stroke:none;stroke-width:0.30000001;stroke-miterlimit:4;stroke-dasharray:none;stroke-opacity:1"
     d="M 24.717712,24.550299 C 23.688079,24.76843 23.188178,25.895462 22.118547,26.106486 C 21.222163,27.066682 22.875628,27.229797 23.442962,27.613008 C 24.120101,28.946376 26.165997,28.201504 26.282177,26.843192 C 26.62224,25.74254 26.01821,24.404112 24.717712,24.550299 z M 7.0414299,24.575131 C 5.4915809,24.674648 5.5730801,26.736693 5.9239548,27.828226 C 6.5532876,29.016006 7.8138527,27.972383 8.5645062,27.546788 C 9.3799406,27.399762 10.829382,26.551273 9.5743727,25.924379 C 8.5643155,25.663732 8.1958498,24.399286 7.0414299,24.575131 z "
     id="path9778"
     sodipodi:nodetypes="cccccccccc" />
  <path
     style="fill:#a66939;fill-opacity:1"
     d="M 14.84366,1.8515919 C 11.501484,3.178887 6.658194,4.4496217 9.7816115,8.3503742 C 12.733811,10.984539 15.413335,5.3752164 17.31241,5.2250599 C 20.372789,8.8038648 25.129966,5.0621906 20.56241,3.1640923 C 18.533699,2.9136267 17.354608,2.4502572 15.40616,1.8203419 L 15.24991,1.8203419 L 14.84366,1.8515919 z "
     id="path2959"
     sodipodi:nodetypes="ccccccc" />
  <path
     id="path4069"
     d="M 9.9104067,11.337434 C 9.5473143,10.749939 8.6207573,10.385726 7.8513903,10.68096 C 4.4961363,11.968491 8.2469739,3.0875863 12.290058,2.0201653 C 20.896393,-0.25200669 26.118483,4.3326652 25.437227,9.8426987 C 25.149447,12.170279 25.194791,12.55416 24.45254,11.405608 C 23.919384,10.580608 23.462591,10.355608 23.437444,10.905608 C 23.412297,11.455608 22.931052,11.114544 22.368009,10.147688 C 21.804967,9.1808307 22.752132,7.5537528 23.24728,7.0844934 C 24.744271,5.6657734 21.789184,1.9779293 18.487657,2.7735775 C 16.853397,3.1674243 18.38062,6.6922121 20.07432,6.715189 C 20.872862,6.7260221 21.291707,6.8568237 20.950869,7.4083107 C 20.549774,8.0572957 19.701148,8.0738417 18.545233,7.4552147 C 17.129084,6.6973147 15.955151,6.887656 14.575983,9.45251 C 12.796579,12.761689 11.629848,11.836242 9.9104067,11.337434 z M 13.983252,8.1110056 C 13.983252,7.6933066 15.390206,5.8630522 16.21233,5.9318743 C 17.269229,6.0203499 18.418948,3.8681182 16.423193,2.1788797 C 14.994589,0.96968673 9.242211,3.6446431 9.0849532,5.9669853 C 9.0110268,7.0587118 8.2312466,9.5979083 8.5057236,9.8723857 C 9.137217,10.50388 13.983252,9.1293176 13.983252,8.1110056 z "
     style="fill:#8a592e;fill-opacity:1"
     sodipodi:nodetypes="cssssssssssssccssssc" />
  <path
     id="path4071"
     d="M 14.187184,3.6628061 C 14.187184,2.3880561 11.009561,3.6996054 10.217897,4.9805454 C 9.8779782,5.5305454 10.257723,6.3360608 10.219568,6.9832489 C 10.064929,9.6062273 14.181827,5.1861186 14.187184,3.6628061 z M 20.452541,4.9646238 C 20.452541,4.7220828 20.002541,4.2455258 19.452541,3.9056068 C 18.902541,3.5656878 18.452541,3.7641308 18.452541,4.3465898 C 18.452541,4.9290488 18.902541,5.4056068 19.452541,5.4056068 C 20.002541,5.4056068 20.452541,5.2071648 20.452541,4.9646238 z "
     style="fill:#b2713e;fill-opacity:1"
     sodipodi:nodetypes="cssccsssc" />
  <path
     style="fill:#535353"
     d="M 20.650806,32.042307 C 22.438256,33.862027 16.955949,33.742043 16.720844,33.123723 C 16.640656,32.912832 16.326111,32.376149 16.033652,32.338951 C 15.8249,32.3124 15.593603,32.326269 15.384767,32.375098 C 15.02856,32.458385 14.804042,33.063529 14.801879,33.323134 C 12.846541,33.763349 9.5931414,34.560937 10.632122,32.042306 C 10.762518,31.291297 10.272281,29.995605 9.9235393,29.025615 C 9.5115493,27.879707 10.725448,29.58776 14.936725,29.559282 C 15.110791,29.558105 15.000191,29.06797 15.187647,29.067862 C 15.89604,28.864087 16.273334,29.094947 16.655234,29.33757 C 22.028817,29.319068 22.488443,27.754406 21.825335,28.965752 C 21.34142,29.849754 20.503961,31.478619 20.650806,32.042307 z "
     id="path9760"
     sodipodi:nodetypes="csssccssccsc" />
  <path
     id="path3007"
     style="fill:#18192f;fill-opacity:1"
     d="M 16.700303,33.315803 C 16.56922,32.971031 20.800334,31.930996 21.504054,32.266579 C 22.207774,32.602162 22.292143,32.714753 22.503707,33.548255 C 22.653284,34.137543 22.751909,34.396006 22.684647,34.504836 C 22.358309,35.032862 20.752874,35.530908 19.377141,35.530908 C 17.987265,35.530908 17.78899,35.455925 17.140275,34.68497 C 16.748778,34.219703 16.831386,33.660575 16.700303,33.315803 z M 10.317175,32.287121 C 11.024235,31.949946 14.892554,33.205798 14.892554,33.382536 C 14.892554,33.559274 15.054775,34.000372 14.607112,34.543466 C 13.821445,35.496614 13.736349,35.530005 12.156944,35.504936 C 11.257015,35.490654 10.242481,35.325661 9.9024248,35.13829 C 8.8868183,34.578691 8.8078699,34.393352 9.098081,33.250011 C 9.3135236,32.401233 9.6101153,32.624296 10.317175,32.287121 z "
     sodipodi:nodetypes="csssssccsssssc" />
  <path
     id="path3001"
     style="fill:#404040;fill-opacity:1;fill-rule:evenodd;stroke:none;stroke-width:1px;stroke-linecap:butt;stroke-linejoin:miter;stroke-opacity:1"
     d="M 15.331134,30.430297 C 15.854482,30.502108 15.332425,32.246202 15.78368,32.173783 C 16.234935,32.101364 15.885343,30.422362 16.22072,30.420378 C 18.173756,29.97271 19.585355,29.504227 21.374778,28.869862 C 18.992401,29.526734 13.424341,29.957426 10.585753,29.29204 C 10.893427,29.801271 13.290512,30.033805 15.331134,30.430297 z "
     sodipodi:nodetypes="czcccc" />
  <path
     sodipodi:nodetypes="csssssccsssssc"
     d="M 16.700303,33.315803 C 16.56922,32.971031 20.800334,31.930996 21.504054,32.266579 C 22.207774,32.602162 22.292143,32.714753 22.503707,33.548255 C 22.653284,34.137543 22.751909,34.396006 22.684647,34.504836 C 22.358309,35.032862 20.752874,35.530908 19.377141,35.530908 C 17.987265,35.530908 17.78899,35.455925 17.140275,34.68497 C 16.748778,34.219703 16.831386,33.660575 16.700303,33.315803 z M 10.317175,32.287121 C 11.024235,31.949946 14.892554,33.205798 14.892554,33.382536 C 14.892554,33.559274 15.054775,34.000372 14.607112,34.543466 C 13.821445,35.496614 13.736349,35.530005 12.156944,35.504936 C 11.257015,35.490654 10.242481,35.325661 9.9024248,35.13829 C 8.8868183,34.578691 8.8078699,34.393352 9.098081,33.250011 C 9.3135236,32.401233 9.6101153,32.624296 10.317175,32.287121 z "
     style="fill:#18192f;fill-opacity:1"
     id="path3025" />
  <path
     sodipodi:nodetypes="ccc"
     id="path3043"
     d="M 17.445123,22.540684 C 16.856038,24.658093 16.963523,26.169547 16.372216,26.230623 C 15.468799,21.532578 20.810325,20.143545 17.445123,22.540684 z "
     style="fill:#5168c3;fill-opacity:1;fill-rule:evenodd;stroke:none;stroke-width:1px;stroke-linecap:butt;stroke-linejoin:miter;stroke-opacity:1" />
  <path
     style="fill:#ffbb8d;fill-rule:evenodd;stroke:none;stroke-width:1px;stroke-linecap:butt;stroke-linejoin:miter;stroke-opacity:1;fill-opacity:1"
     d="M 20.10824,19.206648 C 19.1857,19.957189 17.840982,20.989183 18.075526,21.129909 C 18.31007,21.270635 22.172113,17.969743 22.109683,17.080115 C 22.047138,16.188848 21.03078,18.456107 20.10824,19.206648 z "
     id="path3045"
     sodipodi:nodetypes="czzz" />
  <path
     sodipodi:nodetypes="css"
     id="path3053"
     d="M 6.300269,28.003619 C 6.3280575,28.952206 11.350753,25.936395 9.2730012,26.574218 C 7.8404251,27.013987 6.2757919,27.168071 6.300269,28.003619 z "
     style="fill:#ffb681;fill-opacity:1;fill-rule:evenodd;stroke:none;stroke-width:1px;stroke-linecap:butt;stroke-linejoin:miter;stroke-opacity:1" />
  <path
     style="fill:#ffb57f;fill-opacity:1;fill-rule:evenodd;stroke:none;stroke-width:1px;stroke-linecap:butt;stroke-linejoin:miter;stroke-opacity:1"
     d="M 24.521426,27.939177 C 24.413947,29.070511 26.947083,26.53674 25.933444,26.824398 C 24.744107,27.161917 24.572016,27.406668 24.521426,27.939177 z "
     id="path7864"
     sodipodi:nodetypes="css" />
</svg>
