<?xml version="1.0" encoding="UTF-8" standalone="no"?>
<!-- Created with Inkscape (http://www.inkscape.org/) -->
<svg
   xmlns:dc="http://purl.org/dc/elements/1.1/"
   xmlns:cc="http://web.resource.org/cc/"
   xmlns:rdf="http://www.w3.org/1999/02/22-rdf-syntax-ns#"
   xmlns:svg="http://www.w3.org/2000/svg"
   xmlns="http://www.w3.org/2000/svg"
   xmlns:sodipodi="http://inkscape.sourceforge.net/DTD/sodipodi-0.dtd"
   xmlns:inkscape="http://www.inkscape.org/namespaces/inkscape"
   width="32px"
   height="32px"
   id="svg3369"
   sodipodi:version="0.32"
   inkscape:version="0.43"
   sodipodi:docbase="/home/adam/workspace/Escape-j2se/src/org/spacebar/escape/j2se/resources"
   sodipodi:docname="arrow-back.svg">
  <defs
     id="defs3371" />
  <sodipodi:namedview
     id="base"
     pagecolor="#ffffff"
     bordercolor="#666666"
     borderopacity="1.0"
     inkscape:pageopacity="0.0"
     inkscape:pageshadow="2"
     inkscape:zoom="11.197802"
     inkscape:cx="14.433921"
     inkscape:cy="19.383455"
     inkscape:current-layer="layer1"
     showgrid="true"
     inkscape:grid-bbox="true"
     inkscape:document-units="px"
     inkscape:window-width="722"
     inkscape:window-height="569"
     inkscape:window-x="54"
     inkscape:window-y="99" />
  <metadata
     id="metadata3374">
    <rdf:RDF>
      <cc:Work
         rdf:about="">
        <dc:format>image/svg+xml</dc:format>
        <dc:type
           rdf:resource="http://purl.org/dc/dcmitype/StillImage" />
      </cc:Work>
    </rdf:RDF>
  </metadata>
  <g
     id="layer1"
     inkscape:label="Layer 1"
     inkscape:groupmode="layer">
    <path
       style="fill:#c2c2c2"
       d="M 1,1 L 1,15.625 C 1,25.288262 1.1110109,28.599085 1.71875,29.1875 C 1.7445148,29.209671 1.7849291,29.236886 1.8125,29.25 C 1.8335238,29.258199 1.884173,29.277813 1.90625,29.28125 C 1.9212057,29.282516 1.9533133,29.281986 1.96875,29.28125 C 2.0001099,29.277826 2.0604072,29.260904 2.09375,29.25 C 2.1360596,29.234134 2.2044656,29.213926 2.25,29.1875 C 2.3239091,29.142036 2.4173938,29.068558 2.5,29 C 2.5829174,28.931184 2.6753846,28.838517 2.75,28.75 C 3.716499,27.55809 4,24.483358 4,15.875 C 4,15.875 27.558097,3.716499 28.75,2.75 C 28.838517,2.6753846 28.931185,2.5829174 29,2.5 C 29.068558,2.4173938 29.142036,2.3239091 29.1875,2.25 C 29.213926,2.2044656 29.234134,2.1360596 29.25,2.09375 C 29.260904,2.0604072 29.277826,2.0001099 29.28125,1.96875 C 29.281986,1.9533133 29.282516,1.9212057 29.28125,1.90625 C 29.277813,1.884173 29.258199,1.8335238 29.25,1.8125 C 29.236886,1.7849291 29.209671,1.7445148 29.1875,1.71875 C 28.599085,1.1110109 25.288262,1 15.625,1 L 1,1 z "
       id="path13429"
       sodipodi:nodetypes="ccsssssssscsssssssscc" />
    <path
       sodipodi:nodetypes="ccccccccccc"
       id="path13433"
       d="M 1.82569,29.68558 C 3.80202,27.58187 4,26.3071 4,15.68558 L 4,4.00003 L 15.68555,4.00003 C 26.30707,4.00003 27.58184,3.80205 29.68555,1.82572 L 32,0.1514 L 32,15.82572 L 32,32.00003 L 15.82569,32.00003 L 0.33887,32.00003 L 1.82569,29.68558 z "
       style="fill:#989898" />
    <path
       sodipodi:nodetypes="ccccccccc"
       id="path13435"
       d="M 1.4999998,30 C 3.1317198,28.19697 4.5799698,28 16.20536,28 L 29.10075,28 L 28.9383,15.39779 C 28.80414,4.9901498 29.05658,2.5148398 30.38793,1.1834998 C 31.87069,-0.29926024 32,0.87201976 32,15.78571 L 32,32 L 15.84501,32 C -0.24663024,32 -0.30288024,31.99216 1.4999998,30 z "
       style="fill:#676767" />
  </g>
</svg>
