<?xml version="1.0" encoding="UTF-8" standalone="no"?>
<!-- Created with Inkscape (http://www.inkscape.org/) -->
<svg
   xmlns:dc="http://purl.org/dc/elements/1.1/"
   xmlns:cc="http://web.resource.org/cc/"
   xmlns:rdf="http://www.w3.org/1999/02/22-rdf-syntax-ns#"
   xmlns:svg="http://www.w3.org/2000/svg"
   xmlns="http://www.w3.org/2000/svg"
   xmlns:sodipodi="http://inkscape.sourceforge.net/DTD/sodipodi-0.dtd"
   xmlns:inkscape="http://www.inkscape.org/namespaces/inkscape"
   width="32px"
   height="32px"
   id="svg3369"
   sodipodi:version="0.32"
   inkscape:version="0.43"
   sodipodi:docbase="/home/adam/workspace/Escape-j2se/src/org/spacebar/escape/j2se/resources"
   sodipodi:docname="arrow-back.svg">
  <defs
     id="defs3371" />
  <sodipodi:namedview
     id="base"
     pagecolor="#ffffff"
     bordercolor="#666666"
     borderopacity="1.0"
     inkscape:pageopacity="0.0"
     inkscape:pageshadow="2"
     inkscape:zoom="11.197802"
     inkscape:cx="16"
     inkscape:cy="16"
     inkscape:current-layer="layer1"
     showgrid="true"
     inkscape:grid-bbox="true"
     inkscape:document-units="px"
     inkscape:window-width="722"
     inkscape:window-height="569"
     inkscape:window-x="60"
     inkscape:window-y="120" />
  <metadata
     id="metadata3374">
    <rdf:RDF>
      <cc:Work
         rdf:about="">
        <dc:format>image/svg+xml</dc:format>
        <dc:type
           rdf:resource="http://purl.org/dc/dcmitype/StillImage" />
      </cc:Work>
    </rdf:RDF>
  </metadata>
  <g
     id="layer1"
     inkscape:label="Layer 1"
     inkscape:groupmode="layer">
    <g
       id="g13467"
       transform="translate(-90.89925,-642.4846)">
      <path
         style="fill:#c2c2c2"
         d="M 90.89925,658.48463 L 90.89925,642.48463 L 106.89925,642.48463 L 122.89925,642.48463 L 122.89925,658.48463 L 122.89925,674.48463 L 106.89925,674.48463 L 90.89925,674.48463 L 90.89925,658.48463 z M 112.39925,662.48463 L 115.27343,659.48463 L 112.39925,656.48463 C 109.03821,652.97646 106.89925,652.72336 106.89925,655.48463 C 106.89925,657.1513 107.23258,656.48463 103.89925,656.48463 C 100.56592,656.48463 98.89925,657.81796 98.89925,659.48463 C 98.89925,661.1513 100.56592,662.48463 103.89925,662.48463 C 107.23258,662.48463 106.89925,661.81796 106.89925,663.48463 C 106.89925,666.2459 109.03821,665.9928 112.39925,662.48463 z "
         id="path13429"
         sodipodi:nodetypes="cccccccccccccccccc" />
      <path
         style="fill:#b1b1b1"
         d="M 90.89925,658.48463 L 90.89925,642.48463 L 106.89925,642.48463 L 122.89925,642.48463 L 122.89925,658.48463 L 122.89925,674.48463 L 106.89925,674.48463 L 90.89925,674.48463 L 90.89925,658.48463 z M 94.89925,658.36218 L 94.89925,646.48463 L 106.77681,646.48463 C 116.11468,646.48463 118.92055,646.1639 119.89925,644.98463 C 120.99617,643.66293 119.40604,643.48463 106.52169,643.48463 L 91.89925,643.48463 L 91.89925,658.10707 C 91.89925,670.99142 92.07755,672.58155 93.39925,671.48463 C 94.57852,670.50592 94.89925,667.70006 94.89925,658.36218 z M 112.39925,662.48463 L 115.27343,659.48463 L 112.39925,656.48463 C 109.03821,652.97646 106.89925,652.72336 106.89925,655.48463 C 106.89925,657.1513 107.23258,656.48463 103.89925,656.48463 C 100.56592,656.48463 98.89925,657.81796 98.89925,659.48463 C 98.89925,661.1513 100.56592,662.48463 103.89925,662.48463 C 107.23258,662.48463 106.89925,661.81796 106.89925,663.48463 C 106.89925,666.2459 109.03821,665.9928 112.39925,662.48463 z "
         id="path13431"
         sodipodi:nodetypes="ccccccccccccccccccccccccccc" />
      <path
         style="fill:#989898"
         d="M 92.72494,672.17018 C 94.70127,670.06647 94.89925,668.7917 94.89925,658.17018 L 94.89925,646.48463 L 106.5848,646.48463 C 117.20632,646.48463 118.48109,646.28665 120.5848,644.31032 L 122.89925,642.636 L 122.89925,658.31032 L 122.89925,674.48463 L 106.72494,674.48463 L 91.23812,674.48463 L 92.72494,672.17018 z "
         id="path13433"
         sodipodi:nodetypes="ccccccccccc" />
      <path
         style="fill:#676767"
         d="M 92.39925,672.48463 C 94.03097,670.6816 95.47922,670.48463 107.10461,670.48463 L 120,670.48463 L 119.83755,657.88242 C 119.70339,647.47478 119.95583,644.99947 121.28718,643.66813 C 122.76994,642.18537 122.89925,643.35665 122.89925,658.27034 L 122.89925,674.48463 L 106.74426,674.48463 C 90.65262,674.48463 90.59637,674.47679 92.39925,672.48463 z "
         id="path13435"
         sodipodi:nodetypes="ccccccccc" />
    </g>
  </g>
</svg>
