<?xml version="1.0" encoding="UTF-8" standalone="no"?>
<!-- Created with Inkscape (http://www.inkscape.org/) -->
<svg
   xmlns:dc="http://purl.org/dc/elements/1.1/"
   xmlns:cc="http://web.resource.org/cc/"
   xmlns:rdf="http://www.w3.org/1999/02/22-rdf-syntax-ns#"
   xmlns:svg="http://www.w3.org/2000/svg"
   xmlns="http://www.w3.org/2000/svg"
   xmlns:sodipodi="http://inkscape.sourceforge.net/DTD/sodipodi-0.dtd"
   xmlns:inkscape="http://www.inkscape.org/namespaces/inkscape"
   width="25.6pt"
   height="25.6pt"
   id="svg5809"
   sodipodi:version="0.32"
   inkscape:version="0.43"
   version="1.0"
   sodipodi:docbase="/home/adam/workspace/Escape-j2se/src/org/spacebar/escape/j2se/resources"
   sodipodi:docname="block-pieces.svg">
  <defs
     id="defs5811" />
  <sodipodi:namedview
     id="base"
     pagecolor="#ffffff"
     bordercolor="#666666"
     borderopacity="1.0"
     inkscape:pageopacity="0.0"
     inkscape:pageshadow="2"
     inkscape:zoom="11.2"
     inkscape:cx="40.460937"
     inkscape:cy="14.088113"
     inkscape:document-units="px"
     inkscape:current-layer="svg5809"
     inkscape:window-width="1101"
     inkscape:window-height="731"
     inkscape:window-x="246"
     inkscape:window-y="154"
     showgrid="true" />
  <metadata
     id="metadata5814">
    <rdf:RDF>
      <cc:Work
         rdf:about="">
        <dc:format>image/svg+xml</dc:format>
        <dc:type
           rdf:resource="http://purl.org/dc/dcmitype/StillImage" />
      </cc:Work>
    </rdf:RDF>
  </metadata>
  <path
     style="fill:#7f7f7f;fill-opacity:1"
     d="M 2 2 L 2 16.21875 L 2 30.40625 L 6.28125 26.21875 C 10.30876 22.26605 10.91593 22 16.28125 22 L 22 22 L 22 16.75 L 22 11.5 L 17 11.84375 L 12 12.1875 L 12 16.09375 C 12 18.056169 11.609661 19.702008 11.125 19.96875 C 11.11248 19.974381 11.075153 19.996211 11.0625 20 C 11.058255 20.000847 11.035509 19.999363 11.03125 20 C 11.026978 20.000426 11.004285 19.999786 11 20 C 10.995715 19.999726 10.973022 20.000546 10.96875 20 C 10.964491 19.999184 10.941745 20.001085 10.9375 20 C 10.933282 19.998382 10.910453 19.970632 10.90625 19.96875 C 10.902061 19.966606 10.879173 19.971154 10.875 19.96875 C 10.866684 19.963424 10.852003 19.943851 10.84375 19.9375 C 10.83964 19.93407 10.816593 19.909932 10.8125 19.90625 C 10.808441 19.902069 10.785291 19.879428 10.78125 19.875 C 10.777227 19.870327 10.754005 19.848667 10.75 19.84375 C 10.319514 19.286537 10 17.320312 10 15 L 10 10 L 15.8125 10 C 21.25808 10 21.83092 9.75748 25.5 6 L 29.40625 2 L 15.6875 2 L 2 2 z "
     id="b1"
     inkscape:label="#path19155" />
  <path
     style="fill:#898989;fill-opacity:1"
     d="M 15.5,8.95318 C 21.49292,8.407 21.49478,8.40582 17.07772,7.95318 C 12.08376,7.44142 10.10837,5.00932 14.66667,4.98469 C 16.225,4.97627 18.175,4.53316 19,4 C 20.04414,3.32522 18.276,3.02597 13.18191,3.01531 L 5.86381,3 L 7.95001,5.92979 C 10.51944,9.53822 9.1565,10.69754 5.61754,7.91379 L 3,5.85484 L 3.070285,13.17742 C 3.118464,18.19687 3.410882,19.87095 4,18.5 C 4.47269,17.4 4.89106,15.31065 4.92971,13.85699 C 4.96837,12.40333 5.6696,10.95703 6.488,10.64298 C 7.30641,10.32893 7.92812,10.39328 7.86958,10.78599 C 7.81105,11.1787 7.8921,13.75 8.04969,16.5 L 8.33622,21.5 L 8.91811,15.5 L 9.5,9.5 L 15.5,8.95318 z "
     id="b2"
     inkscape:label="#path5830" />
  <path
     id="b3"
     style="fill:#9f9f9f;fill-opacity:1"
     d="M 21.996527,16.75 L 21.6395,11.5 L 21.265165,16 L 20.89472,20.89472 L 16,21.26517 L 11.5,21.6395 L 16.75,21.99653 L 22,22 L 21.996527,16.75 z M 9,8.69617 C 9,8.52906 8.635723,7.47842 5.823223,5.17678 L 2.125,2.125 L 5.176777,5.82322 C 8.384387,9.31364 9,9.45979 9,8.69617 z "
     sodipodi:nodetypes="cccccccccccccc"
     inkscape:label="#path5832" />
  <path
     style="fill:#4b4b4b;fill-opacity:1"
     d="M 0.44975212,30.729888 C 0.17070712,30.002708 0.06781212,22.903428 0.22109812,14.953726 L 0.49979912,0.4997073 L 15.999799,0.4997073 L 31.499799,0.4997073 L 31.499799,15.999706 L 31.499799,31.499708 L 16.228449,31.775868 C 4.2917191,31.991728 0.84632312,31.763328 0.44975212,30.729888 z M 29.999799,30.202658 C 29.999799,29.764278 28.199799,27.647948 25.999799,25.499708 C 22.275299,21.862836 21.999799,21.208516 21.999799,15.999706 C 21.999799,10.790896 22.275299,10.136577 25.999799,6.4997073 C 28.199799,4.3514673 29.999799,2.2351373 29.999799,1.7967573 C 29.999799,1.3583773 23.474799,0.9997073 15.499799,0.9997073 L 0.99979912,0.9997073 L 0.99979912,15.999706 L 0.99979912,30.999708 L 15.499799,30.999708 C 23.474799,30.999708 29.999799,30.641038 29.999799,30.202658 z M 10.180049,15.249706 L 9.9997991,9.9997067 L 15.249799,10.179957 L 20.499799,10.360207 L 15.802439,10.732596 L 11.105079,11.104986 L 10.732689,15.802346 L 10.360299,20.499706 L 10.180049,15.249706 z "
     id="b4"
     inkscape:label="#path19159" />
</svg>
