<?xml version="1.0" encoding="UTF-8" standalone="no"?>
<!-- Created with Inkscape (http://www.inkscape.org/) -->
<svg
   xmlns:dc="http://purl.org/dc/elements/1.1/"
   xmlns:cc="http://web.resource.org/cc/"
   xmlns:rdf="http://www.w3.org/1999/02/22-rdf-syntax-ns#"
   xmlns:svg="http://www.w3.org/2000/svg"
   xmlns="http://www.w3.org/2000/svg"
   xmlns:sodipodi="http://inkscape.sourceforge.net/DTD/sodipodi-0.dtd"
   xmlns:inkscape="http://www.inkscape.org/namespaces/inkscape"
   version="1.0"
   x="0.0000000"
   y="0.0000000"
   width="32.000000"
   height="32.000000"
   id="svg3339"
   sodipodi:version="0.32"
   inkscape:version="0.42"
   sodipodi:docname="brick-pieces.svg"
   sodipodi:docbase="/home/adam/workspace/Escape-j2se/src/org/spacebar/escape/j2se/resources">
  <metadata
     id="metadata3451">
    <rdf:RDF>
      <cc:Work
         rdf:about="">
        <dc:format>image/svg+xml</dc:format>
        <dc:type
           rdf:resource="http://purl.org/dc/dcmitype/StillImage" />
      </cc:Work>
    </rdf:RDF>
  </metadata>
  <sodipodi:namedview
     inkscape:window-height="511"
     inkscape:window-width="754"
     inkscape:pageshadow="2"
     inkscape:pageopacity="0.0"
     borderopacity="1.0"
     bordercolor="#666666"
     pagecolor="#ffffff"
     id="base"
     inkscape:zoom="10.781250"
     inkscape:cx="16.000000"
     inkscape:cy="16.000000"
     inkscape:window-x="24"
     inkscape:window-y="39"
     inkscape:current-layer="svg3339" />
  <defs
     id="defs3341" />
  <g
     id="brick7">
    <path
       d="M 8.8437500,26.075300 C 8.4315000,25.839560 7.8389800,26.241160 7.3750000,27.450300 C 7.0576300,28.277380 6.1601900,28.612080 5.2500000,28.262800 C 4.0937800,27.819150 3.8759300,28.037070 4.4687500,29.075300 C 5.1252500,30.225130 5.0280000,30.274990 3.9375000,29.262800 C 3.1968200,28.575330 2.1400000,28.004370 1.5625000,28.012800 C 0.98500000,28.021260 1.1750000,28.479640 2.0000000,29.012800 C 2.8250000,29.545990 3.0020800,29.973130 2.4062500,29.981550 C 1.8104100,29.990000 1.0370900,29.674890 0.65625000,29.294050 C 0.47330000,29.111130 0.22680000,29.016740 0.0000000,28.887800 C -0.63000000,28.529660 -1.3655600,28.317210 -2.0312500,28.356550 C -2.9365900,28.410090 -3.6562500,28.816940 -3.6562500,29.544050 C -3.6562500,30.496700 -2.6578000,31.012800 -0.78125000,31.012800 C -0.45041000,31.012830 -0.27813000,31.078160 0.0000000,31.106550 C 1.0592100,31.214690 4.1941400,31.012800 5.8125000,31.012800 C 8.1569900,31.012830 8.8692100,30.504760 9.2500000,28.512800 C 9.5040900,27.183650 9.2560000,26.311070 8.8437500,26.075300 z "
       style="fill:#9b9b9b;fill-opacity:1.0000000"
       id="path11746" />
    <path
       d="M 8.5625000,27.356550 C 8.5121000,27.308990 8.4282500,27.592040 8.2812500,28.200300 C 7.9617200,29.522470 6.4877900,29.998850 1.6875000,30.294050 L 0.0000000,30.387800 L -4.5000000,30.669050 L 0.0000000,30.606550 L 2.0000000,30.575300 C 7.7706100,30.500440 8.5065000,30.288370 8.5937500,28.512800 C 8.6288400,27.798870 8.6129000,27.404140 8.5625000,27.356550 z "
       style="opacity:1.0000000;fill:#5a5a5a;fill-opacity:1.0000000;stroke:none;stroke-opacity:1.0000000"
       id="path11696" />
    <path
       d="M 0.0000000,25.012800 L -4.7500000,25.169050 L -4.9062500,28.262800 C -4.8142900,31.261280 -4.7345200,31.319300 -4.0937500,29.012800 C -3.6013600,27.240450 -2.5384300,26.793690 0.0000000,26.575300 C 0.66214000,26.518360 0.89927000,26.384990 1.8750000,26.356550 C 9.6312000,26.130490 9.4457200,25.012800 1.6562500,25.012800 L 0.0000000,25.012800 z "
       style="fill:#dadada;fill-opacity:1.0000000"
       id="path11730" />
    <path
       d="M 7.5000000,25.356550 L 1.5000000,25.419050 C 0.67283000,25.428920 0.61572000,25.523920 0.0000000,25.544050 C -3.6179200,25.662340 -4.3749500,25.565780 -4.5937500,28.012800 C -4.6740200,30.092650 -4.6210700,30.127530 -4.2812500,28.294050 C -3.9946800,26.747900 -2.8268300,26.289960 0.0000000,25.981550 C 0.66569000,25.908950 0.87277000,25.792260 1.8125000,25.731550 L 7.5000000,25.356550 z "
       style="fill:#f7f7f7;fill-opacity:1.0000000"
       id="path11710" />
  </g>
  <g
     id="brick8">
    <path
       d="M 24.187500,26.406250 C 23.775000,26.818780 23.437500,27.654170 23.437500,28.250000 C 23.437500,28.845860 22.826560,29.526570 22.062500,29.781250 C 21.101830,30.101500 17.162170,29.683070 15.687500,28.718750 C 13.506360,27.292470 13.093210,27.245810 13.562500,28.468750 C 13.896590,29.339400 13.567130,30.021800 12.781250,30.062500 C 12.034910,30.101190 12.290810,30.462240 13.343750,30.875000 C 14.396690,31.287800 16.196690,31.536850 17.343750,31.406250 C 18.490810,31.275690 20.675000,31.108350 22.187500,31.062500 C 24.479170,30.993090 24.937500,30.534740 24.937500,28.312500 C 24.937500,26.845870 24.600000,25.993760 24.187500,26.406250 z "
       style="fill:#9b9b9b;fill-opacity:1.0000000"
       id="path11744" />
    <path
       d="M 24.500000,27.343750 C 24.449600,27.296190 24.365750,27.579240 24.218750,28.187500 C 23.899220,29.509670 22.425290,29.986050 17.625000,30.281250 L 11.437500,30.656250 L 17.937500,30.562500 C 23.708110,30.487640 24.444000,30.275570 24.531250,28.500000 C 24.566340,27.786070 24.550400,27.391340 24.500000,27.343750 z "
       style="opacity:1.0000000;fill:#5a5a5a;fill-opacity:1.0000000;stroke:none;stroke-opacity:1.0000000"
       id="path11694" />
    <path
       d="M 18.187500,25.000000 L 11.000000,25.312500 L 11.062500,27.750000 C 11.172450,29.970330 11.284540,30.057120 11.625000,28.312500 C 12.001540,26.383020 12.642150,26.185040 17.562500,26.343750 C 20.593150,26.441540 23.599980,26.194620 24.250000,25.781250 C 24.900020,25.367920 22.175000,25.008430 18.187500,25.000000 z "
       style="fill:#dadada;fill-opacity:1.0000000"
       id="path11728" />
    <path
       d="M 25.437500,25.312500 L 18.437500,25.406250 C 12.165240,25.477760 11.431810,25.707930 11.343750,27.500000 C 11.273390,28.931750 11.361290,29.002330 11.656250,27.781250 C 11.981550,26.434570 13.471220,25.982790 18.750000,25.687500 L 25.437500,25.312500 z "
       style="fill:#f7f7f7;fill-opacity:1.0000000"
       id="path11712" />
  </g>
  <g
     id="brick6">
    <path
       d="M 31.687500,18.575300 C 31.417570,18.410290 30.918110,18.665960 30.062500,19.200300 C 28.998080,19.865070 28.405000,20.872900 28.750000,21.450300 C 29.095000,22.027750 28.730580,21.963670 27.937500,21.325300 C 26.159160,19.893910 19.058470,19.999990 19.312500,21.450300 C 19.414010,22.029850 21.300000,22.734940 23.500000,23.012800 C 29.812660,23.810090 31.980470,23.138450 31.980470,20.387800 C 31.980470,19.330370 31.957430,18.740340 31.687500,18.575300 z "
       style="fill:#9b9b9b;fill-opacity:1.0000000"
       id="path11750" />
    <path
       d="M 25.187500,21.325300 C 25.985230,21.644550 25.758700,21.871070 24.593750,21.919050 C 23.539590,21.962500 22.948960,21.720110 23.281250,21.387800 C 23.613550,21.055540 24.465620,21.036420 25.187500,21.325300 z "
       style="fill:#9b9b9b;fill-opacity:1.0000000"
       id="path11748" />
    <path
       d="M 31.562500,19.356550 C 31.512100,19.308990 31.428250,19.592040 31.281250,20.200300 C 30.961720,21.522470 29.487790,21.998850 24.687500,22.294050 L 18.500000,22.669050 L 25.000000,22.575300 C 30.770610,22.500440 31.506500,22.288370 31.593750,20.512800 C 31.628840,19.798870 31.612900,19.404140 31.562500,19.356550 z "
       style="opacity:1.0000000;fill:#5a5a5a;fill-opacity:1.0000000;stroke:none;stroke-opacity:1.0000000"
       id="path11698" />
    <path
       d="M 24.656250,17.012800 C 18.017170,17.012830 17.989380,17.024180 18.125000,19.762800 C 18.231670,21.916750 18.361450,22.048030 18.687500,20.387800 C 19.048580,18.549300 19.849970,18.250040 24.718750,18.137800 C 32.707210,17.953680 32.653090,17.012800 24.656250,17.012800 z "
       style="fill:#dadada;fill-opacity:1.0000000"
       id="path11732" />
    <path
       d="M 30.500000,17.356550 L 24.500000,17.419050 C 19.224810,17.481840 18.492660,17.754400 18.406250,19.512800 C 18.336080,20.940750 18.424750,21.010580 18.718750,19.794050 C 19.032670,18.495140 20.477630,18.011660 24.812500,17.731550 L 30.500000,17.356550 z "
       style="fill:#f7f7f7;fill-opacity:1.0000000"
       id="path11714" />
  </g>
  <g
     id="brick5">
    <path
       d="M 14.781250,18.012800 C 14.229530,18.012830 14.016630,18.912610 14.312500,20.044050 C 14.751770,21.723820 14.587660,21.904850 13.437500,20.950300 C 12.662780,20.307360 11.309350,20.053230 10.437500,20.387800 C 9.5656500,20.722390 8.0336600,20.549270 7.0312500,20.012800 C 5.7184200,19.310220 4.8892300,19.447750 4.0312500,20.481550 C 3.3761500,21.270930 3.0426700,22.263690 3.3125000,22.700300 C 3.5823300,23.136920 6.5504100,23.262800 10.062500,23.262800 L 15.968750,23.200300 L 16.187500,20.762800 C 15.965510,19.250330 15.332970,18.012800 14.781250,18.012800 z "
       style="fill:#9b9b9b;fill-opacity:1.0000000"
       id="path11752" />
    <path
       d="M 15.562500,19.356550 C 15.512100,19.308990 15.428250,19.592040 15.281250,20.200300 C 14.961720,21.522470 13.487790,21.998850 8.6875000,22.294050 L 2.5000000,22.669050 L 9.0000000,22.575300 C 16.020610,22.875440 15.506500,22.288370 15.593750,20.512800 C 15.628840,19.798870 15.612900,19.404140 15.562500,19.356550 z "
       style="opacity:1.0000000;fill:#5a5a5a;fill-opacity:1.0000000;stroke:none;stroke-opacity:1.0000000"
       id="path11700" />
    <path
       d="M 8.6562500,17.012800 C 2.0260200,17.012830 1.9946100,17.027830 2.0937500,19.762800 C 2.1793900,22.125790 2.2849600,22.206960 2.8437500,20.419050 C 3.3908200,18.668630 4.3572900,18.334890 8.8437500,18.262800 C 11.776970,18.215710 14.429040,17.896250 14.750000,17.575300 C 15.070950,17.254370 12.322910,17.012800 8.6562500,17.012800 z "
       style="fill:#dadada;fill-opacity:1.0000000"
       id="path11734" />
    <path
       d="M 14.500000,17.356550 L 8.5000000,17.419050 C 3.2248100,17.481840 2.4926600,17.754400 2.4062500,19.512800 C 2.3360800,20.940750 2.4247500,21.010580 2.7187500,19.794050 C 3.0326700,18.495140 4.4776300,18.011660 8.8125000,17.731550 L 14.500000,17.356550 z "
       style="fill:#f7f7f7;fill-opacity:1.0000000"
       id="path11716" />
  </g>
  <g
     id="brick4">
    <path
       d="M 23.687500,10.419050 C 22.690980,10.272830 21.629330,10.843400 21.312500,11.669050 C 20.975620,12.546980 19.963390,12.953680 18.875000,12.669050 C 17.851400,12.401400 16.745510,12.608190 16.437500,13.106550 C 16.129490,13.604950 15.342540,13.989980 14.687500,13.981550 C 13.971890,13.972380 14.098710,13.595260 15.000000,13.012800 C 16.212960,12.228960 16.069440,12.025170 14.250000,12.012800 C 10.675800,11.988510 12.113340,14.455190 16.000000,15.012800 L 25.000000,15.012800 L 25.000000,13.387800 C 25.000000,12.625260 25.000000,11.012800 23.687500,10.419050 z "
       style="fill:#9b9b9b;fill-opacity:1.0000000"
       id="path11754" />
    <path
       d="M 24.562500,11.356550 C 24.512100,11.308990 24.428250,11.592040 24.281250,12.200300 C 23.961720,13.522470 22.487790,13.998850 17.687500,14.294050 L 11.500000,14.669050 L 18.000000,14.575300 C 23.770610,14.500440 24.506500,15.150780 24.593750,12.512800 C 24.628840,11.798870 24.612900,11.404140 24.562500,11.356550 z "
       style="opacity:1.0000000;fill:#5a5a5a;fill-opacity:1.0000000;stroke:none;stroke-opacity:1.0000000"
       id="path11702" />
    <path
       d="M 14.718750,8.8253000 C 13.530140,8.7939700 12.358920,8.8873600 11.781250,9.3565500 C 10.845020,10.117000 11.051970,11.304470 11.062500,11.762800 C 11.120410,14.284930 11.184540,14.329050 11.968750,12.387800 C 12.683060,10.619610 13.664620,10.262800 17.937500,10.262800 C 20.750680,10.262830 23.339170,9.9861400 23.687500,9.6378000 C 24.035830,9.2895000 21.322910,9.0128000 17.656250,9.0128000 C 17.101560,9.0128300 15.907360,8.8566600 14.718750,8.8253000 z "
       style="fill:#dadada;fill-opacity:1.0000000"
       id="path11738" />
    <path
       d="M 23.500000,9.3565500 L 17.500000,9.4190500 C 12.224810,9.4818400 11.492660,9.2544000 11.406250,11.512800 C 11.336080,12.940750 11.424750,13.010580 11.718750,11.794050 C 12.032670,10.495140 13.477630,10.011660 17.812500,9.7315500 L 23.500000,9.3565500 z "
       style="fill:#f7f7f7;fill-opacity:1.0000000"
       id="path11718" />
  </g>
  <g
     id="brick3">
    <path
       d="M 8.0937500,10.106550 C 7.5257400,9.9798700 6.7337600,10.533700 5.8125000,11.794050 C 4.7374100,13.264880 1.7654700,13.820640 0.0000000,13.231550 C -0.45089000,13.081130 -0.89596000,12.921690 -1.1250000,12.606550 C -1.3099200,12.352140 -1.5708000,12.221770 -1.8750000,12.200300 C -2.7876100,12.135910 -4.0000000,13.002150 -4.0000000,14.044050 C -4.0000000,14.420780 -2.2220100,14.698550 0.0000000,14.856550 C 0.83075000,14.915650 1.5271400,15.012800 2.5000000,15.012800 C 8.7666700,15.012830 9.0000000,14.923060 9.0000000,12.512800 C 9.0000000,11.046980 8.6617600,10.233260 8.0937500,10.106550 z "
       style="fill:#9b9b9b;fill-opacity:1.0000000"
       id="path11756" />
    <path
       d="M 8.5625000,11.356550 C 8.5121000,11.308990 8.4282500,11.592040 8.2812500,12.200300 C 7.9617200,13.522470 6.4877900,13.998850 1.6875000,14.294050 L 0.0000000,14.387800 L -4.5000000,14.669050 L 0.0000000,14.606550 L 2.0000000,14.575300 C 7.7706100,14.500440 8.5065000,14.288370 8.5937500,12.512800 C 8.6288400,11.798870 8.6129000,11.404140 8.5625000,11.356550 z "
       style="opacity:1.0000000;fill:#5a5a5a;fill-opacity:1.0000000;stroke:none;stroke-opacity:1.0000000"
       id="path11704" />
    <path
       d="M -4.8125000,9.0753000 L -4.8750000,11.762800 C -4.7647200,13.989700 -4.6544100,14.078440 -4.3125000,12.325300 C -3.9746400,10.592970 -3.2413200,10.205330 -0.68750000,10.356550 C -0.42502000,10.372120 -0.27100000,10.481900 0.0000000,10.512800 C 1.5413700,10.688570 3.2492800,11.007180 3.9062500,11.419050 C 4.8366300,12.002360 5.0683800,11.948970 4.6250000,11.231550 C 4.2388700,10.606830 4.9434700,9.9514200 6.2500000,9.7003000 C 7.4956600,9.4609100 5.4625000,9.2127000 1.7500000,9.1378000 L 0.0000000,9.1065500 L -4.8125000,9.0753000 z "
       style="fill:#dadada;fill-opacity:1.0000000"
       id="path11736" />
    <path
       d="M 7.5000000,9.3565500 L 1.5000000,9.4190500 C 0.70859000,9.4285000 0.60007000,9.5208800 0.0000000,9.5440500 C -3.3997000,9.6753500 -4.5203000,10.018200 -4.5937500,11.512800 C -4.6639200,12.940750 -4.5752500,13.010580 -4.2812500,11.794050 C -4.0296300,10.752930 -2.6106500,10.290090 0.0000000,9.9815500 C 0.64641000,9.9051800 0.95218000,9.7871400 1.8125000,9.7315500 L 7.5000000,9.3565500 z "
       style="fill:#f7f7f7;fill-opacity:1.0000000"
       id="path11720" />
  </g>
  <g
     id="brick1">
    <path
       d="M 15.218750,2.0128000 C 15.107940,2.0128300 15.097630,2.5128000 15.062500,3.5128000 C 15.055220,3.7201500 14.998020,3.8460100 14.968750,4.0128000 C 14.763860,5.1803400 13.971120,5.4597200 11.250000,5.3565500 C 5.3141800,5.1315300 3.3049400,6.3913200 4.2187500,7.0440500 C 5.2594400,7.7874400 15.319000,7.0772400 16.125000,6.2003000 C 16.420970,5.8783100 16.370690,4.9519000 16.093750,4.0128000 C 16.043150,3.8412300 16.038100,3.6827400 15.968750,3.5128000 C 15.560660,2.5128300 15.329560,2.0128000 15.218750,2.0128000 z "
       style="fill:#9b9b9b;fill-opacity:1.0000000"
       id="path11644" />
    <path
       d="M 15.562500,3.3565500 C 15.523300,3.3195700 15.437390,3.6523300 15.343750,4.0128000 C 15.316990,4.1158200 15.313920,4.0651300 15.281250,4.2003000 C 14.961720,5.5224700 13.487790,5.9988500 8.6875000,6.2940500 L 2.5000000,6.6690500 L 9.0000000,6.5753000 C 14.770610,6.5004400 15.506500,6.2883700 15.593750,4.5128000 C 15.608910,4.2043200 15.596310,4.1998400 15.593750,4.0128000 C 15.590390,3.7670200 15.591120,3.3835800 15.562500,3.3565500 z "
       style="opacity:1.0000000;fill:#5a5a5a;fill-opacity:1.0000000;stroke:none;stroke-opacity:1.0000000"
       id="path11646" />
    <path
       d="M 8.7500000,1.0128000 C 2.0165600,0.99755000 1.9891500,1.0195500 2.1250000,3.7628000 C 2.1330000,3.9243300 2.1486300,3.8717900 2.1562500,4.0128000 C 2.2663900,6.0515100 2.3401600,6.1605200 2.7187500,4.1690500 C 2.7309200,4.1050600 2.7376500,4.0733600 2.7500000,4.0128000 C 3.1529700,2.0360500 3.7103100,1.8528800 8.0625000,2.2315500 C 10.749130,2.4653300 13.513000,2.3043600 14.218750,1.8565500 C 14.953100,1.3906000 12.612980,1.0215700 8.7500000,1.0128000 z "
       style="fill:#dadada;fill-opacity:1.0000000"
       id="path11648" />
    <path
       d="M 5.7500000,1.2628000 C 3.9625000,1.4846500 5.4250000,1.6690500 9.0000000,1.6690500 C 12.575000,1.6690800 14.037500,1.4846300 12.250000,1.2628000 C 10.462500,1.0410000 7.5375000,1.0409800 5.7500000,1.2628000 z "
       style="fill:#f7f7f7;fill-opacity:1.0000000"
       id="path11650" />
    <path
       d="M 2.5937500,3.2628000 C 2.3400100,3.0091000 2.1780500,3.3948100 2.1250000,4.0128000 C 2.1085800,4.2041600 2.0834900,4.3260900 2.0937500,4.5753000 C 2.1417300,5.7402900 2.3682800,5.9980300 2.6875000,5.2003000 C 2.8645900,4.7578000 2.6896700,4.4125400 2.6250000,4.0128000 C 2.5841800,3.7605000 2.7223400,3.3913900 2.5937500,3.2628000 z "
       style="fill:#f7f7f7;fill-opacity:1.0000000"
       id="path11722" />
  </g>
  <g
     id="brick2">
    <path
       d="M 31.964840,2.3253000 C 31.637300,2.3649600 31.026370,2.9867900 30.093750,4.0128000 C 29.955900,4.1644800 29.965490,4.0901700 29.812500,4.2628000 C 28.302650,5.9665200 27.956790,6.0878900 28.375000,4.7628000 C 28.475750,4.4436000 28.394850,4.2457400 28.375000,4.0128000 C 28.328680,3.4693000 28.111080,3.0950100 27.625000,3.0440500 C 27.061520,2.9850000 26.307730,3.3636200 25.593750,4.0128000 C 25.427880,4.1636500 25.252020,4.2283500 25.093750,4.4190500 C 23.863000,5.9020400 22.326090,5.9540000 20.218750,4.6378000 C 19.402840,4.1282200 19.042880,4.3214300 19.218750,5.1690500 C 19.369880,5.8974600 20.593690,6.7378000 21.937500,7.0128000 C 23.281320,7.2878300 25.948560,7.1378000 28.000000,7.1378000 C 30.706670,7.1378300 31.485340,7.2403300 31.882810,5.8253000 C 31.970590,5.5128100 31.996230,2.3215000 31.964840,2.3253000 z "
       style="fill:#9b9b9b;fill-opacity:1.0000000"
       id="path11760" />
    <path
       d="M 22.187500,2.3253000 C 21.465620,2.0364600 20.613550,2.0555200 20.281250,2.3878000 C 19.948960,2.7201300 20.539590,2.9624700 21.593750,2.9190500 C 22.758700,2.8711000 22.985230,2.6445100 22.187500,2.3253000 z "
       style="fill:#9b9b9b;fill-opacity:1.0000000"
       id="path11758" />
    <path
       d="M 31.562500,3.3565500 C 31.523300,3.3195700 31.437390,3.6523300 31.343750,4.0128000 C 31.316990,4.1158200 31.313920,4.0651300 31.281250,4.2003000 C 30.961720,5.5224700 29.487790,5.9988500 24.687500,6.2940500 L 18.500000,6.6690500 L 25.000000,6.5753000 C 30.770610,6.5004400 31.506500,6.2883700 31.593750,4.5128000 C 31.608910,4.2043200 31.596310,4.1998400 31.593750,4.0128000 C 31.590390,3.7670200 31.591120,3.3835800 31.562500,3.3565500 z "
       style="opacity:1.0000000;fill:#5a5a5a;fill-opacity:1.0000000;stroke:none;stroke-opacity:1.0000000"
       id="path11706" />
    <path
       d="M 24.562500,1.0128000 C 18.040860,1.0128300 17.989600,1.0284700 18.125000,3.7628000 C 18.132920,3.9228200 18.148550,3.8734100 18.156250,4.0128000 C 18.265710,5.9936300 18.354900,6.1029000 18.718750,4.2003000 C 18.734110,4.1199900 18.765460,4.0875400 18.781250,4.0128000 C 19.182650,2.1126300 19.784580,1.9514800 24.656250,2.2628000 C 27.675030,2.4557600 30.353280,2.2337000 30.625000,1.7940500 C 30.896720,1.3544200 28.169960,1.0128000 24.562500,1.0128000 z "
       style="fill:#dadada;fill-opacity:1.0000000"
       id="path11740" />
    <path
       d="M 30.500000,1.3565500 L 24.500000,1.4190500 C 19.224810,1.4818400 18.492660,1.7544000 18.406250,3.5128000 C 18.390670,3.8299000 18.405660,3.8288700 18.406250,4.0128000 C 18.407980,4.5513900 18.498720,4.5892500 18.656250,4.0128000 C 18.687210,3.8995400 18.681180,3.9495000 18.718750,3.7940500 C 19.032670,2.4951400 20.477630,2.0116600 24.812500,1.7315500 L 30.500000,1.3565500 z "
       style="fill:#f7f7f7;fill-opacity:1.0000000"
       id="path11724" />
  </g>
  <rect
     width="32.000000"
     height="32.000000"
     x="0.0000000"
     y="37.000000"
     style="opacity:1.0000000;fill:#c3c3c3;fill-opacity:1.0000000;stroke:none;stroke-opacity:1.0000000"
     id="brickfloor" />
</svg>
