<?xml version="1.0" encoding="UTF-8" standalone="no"?>
<!-- Created with Inkscape (http://www.inkscape.org/) -->
<svg
   xmlns:dc="http://purl.org/dc/elements/1.1/"
   xmlns:cc="http://web.resource.org/cc/"
   xmlns:rdf="http://www.w3.org/1999/02/22-rdf-syntax-ns#"
   xmlns:svg="http://www.w3.org/2000/svg"
   xmlns="http://www.w3.org/2000/svg"
   xmlns:sodipodi="http://inkscape.sourceforge.net/DTD/sodipodi-0.dtd"
   xmlns:inkscape="http://www.inkscape.org/namespaces/inkscape"
   version="1.0"
   x="0.0000000"
   y="0.0000000"
   width="32.000000"
   height="32.000000"
   id="svg3339"
   sodipodi:version="0.32"
   inkscape:version="0.43"
   sodipodi:docname="brick-pieces.svg"
   sodipodi:docbase="/home/adam/workspace/Escape-j2se/src/org/spacebar/escape/j2se/resources">
  <metadata
     id="metadata3451">
    <rdf:RDF>
      <cc:Work
         rdf:about="">
        <dc:format>image/svg+xml</dc:format>
        <dc:type
           rdf:resource="http://purl.org/dc/dcmitype/StillImage" />
      </cc:Work>
    </rdf:RDF>
  </metadata>
  <sodipodi:namedview
     inkscape:window-height="954"
     inkscape:window-width="1050"
     inkscape:pageshadow="2"
     inkscape:pageopacity="0.0"
     borderopacity="1.0"
     bordercolor="#666666"
     pagecolor="#ffffff"
     id="base"
     inkscape:zoom="10.78125"
     inkscape:cx="8.4279493"
     inkscape:cy="13.015259"
     inkscape:window-x="18"
     inkscape:window-y="13"
     inkscape:current-layer="svg3339"
     showgrid="true" />
  <defs
     id="defs3341" />
  <rect
     style="fill:#c3c3c3;fill-opacity:1;stroke:none;stroke-opacity:1"
     id="brickfloor"
     width="32"
     height="32"
     x="0"
     y="0"
     inkscape:label="#rect11816" />
  <path
     id="l1"
     style="fill:#dadada;fill-opacity:1"
     d="M -4.75,25.16905 L -4.90625,28.2628 C -4.81429,31.26128 -4.73452,31.3193 -4.09375,29.0128 C -3.60136,27.24045 -3.1181401,26.700936 -0.57971015,26.482546 C 0.082429854,26.425606 0.89927,26.38499 1.875,26.35655 C 9.6312,26.13049 9.44572,25.0128 1.65625,25.0128 L -4.75,25.16905 z M 18.1875,25 L 11,25.3125 L 11.0625,27.75 C 11.17245,29.97033 11.28454,30.05712 11.625,28.3125 C 12.00154,26.38302 12.64215,26.18504 17.5625,26.34375 C 20.59315,26.44154 23.59998,26.19462 24.25,25.78125 C 24.90002,25.36792 22.175,25.00843 18.1875,25 z M 24.65625,17.0128 C 18.01717,17.01283 17.98938,17.02418 18.125,19.7628 C 18.23167,21.91675 18.36145,22.04803 18.6875,20.3878 C 19.04858,18.5493 19.84997,18.25004 24.71875,18.1378 C 32.70721,17.95368 32.65309,17.0128 24.65625,17.0128 z M 8.65625,17.0128 C 2.02602,17.01283 1.99461,17.02783 2.09375,19.7628 C 2.17939,22.12579 2.28496,22.20696 2.84375,20.41905 C 3.39082,18.66863 4.35729,18.33489 8.84375,18.2628 C 11.77697,18.21571 14.42904,17.89625 14.75,17.5753 C 15.07095,17.25437 12.32291,17.0128 8.65625,17.0128 z M 14.71875,8.8253 C 13.53014,8.79397 12.35892,8.88736 11.78125,9.35655 C 10.84502,10.117 11.05197,11.30447 11.0625,11.7628 C 11.12041,14.28493 11.18454,14.32905 11.96875,12.3878 C 12.68306,10.61961 13.66462,10.2628 17.9375,10.2628 C 20.75068,10.26283 23.33917,9.98614 23.6875,9.6378 C 24.03583,9.2895 21.32291,9.0128 17.65625,9.0128 C 17.10156,9.01283 15.90736,8.85666 14.71875,8.8253 z M -4.8125,9.0753 L -4.875,11.7628 C -4.76472,13.9897 -4.65441,14.07844 -4.3125,12.3253 C -3.97464,10.59297 -3.24132,10.20533 -0.6875,10.35655 C -0.42502,10.37212 3.24928,11.00718 3.90625,11.41905 C 4.83663,12.00236 5.06838,11.94897 4.625,11.23155 C 4.23887,10.60683 4.94347,9.95142 6.25,9.7003 C 7.49566,9.46091 5.4625,9.2127 1.75,9.1378 L -4.8125,9.0753 z M 8.75,1.0128 C 2.01656,0.99755 1.98915,1.01955 2.125,3.7628 C 2.133,3.92433 2.73765,4.07336 2.75,4.0128 C 3.15297,2.03605 3.71031,1.85288 8.0625,2.23155 C 10.74913,2.46533 13.513,2.30436 14.21875,1.85655 C 14.9531,1.3906 12.61298,1.02157 8.75,1.0128 z M 24.5625,1.0128 C 18.04086,1.01283 17.9896,1.02847 18.125,3.7628 C 18.13292,3.92282 18.14855,3.87341 18.15625,4.0128 C 18.26571,5.99363 18.3549,6.1029 18.71875,4.2003 C 18.73411,4.11999 18.76546,4.08754 18.78125,4.0128 C 19.18265,2.11263 19.78458,1.95148 24.65625,2.2628 C 27.67503,2.45576 30.35328,2.2337 30.625,1.79405 C 30.89672,1.35442 28.16996,1.0128 24.5625,1.0128 z "
     sodipodi:nodetypes="ccssscccccsssccsssccssssccsssssscccssssscccssssccssssssc" />
  <path
     id="l2"
     style="fill:#9b9b9b;fill-opacity:1"
     d="M 31.6875,18.5753 C 31.41757,18.41029 30.91811,18.66596 30.0625,19.2003 C 28.99808,19.86507 28.405,20.8729 28.75,21.4503 C 29.095,22.02775 28.73058,21.96367 27.9375,21.3253 C 26.15916,19.89391 19.05847,19.99999 19.3125,21.4503 C 19.41401,22.02985 21.3,22.73494 23.5,23.0128 C 29.81266,23.81009 31.98047,23.13845 31.98047,20.3878 C 31.98047,19.33037 31.95743,18.74034 31.6875,18.5753 z M 8.84375,26.0753 C 8.4315,25.83956 7.83898,26.24116 7.375,27.4503 C 7.05763,28.27738 6.16019,28.61208 5.25,28.2628 C 4.09378,27.81915 3.87593,28.03707 4.46875,29.0753 C 5.12525,30.22513 5.028,30.27499 3.9375,29.2628 C 3.19682,28.57533 2.14,28.00437 1.5625,28.0128 C 0.985,28.02126 1.175,28.47964 2,29.0128 C 2.825,29.54599 3.00208,29.97313 2.40625,29.98155 C 1.81041,29.99 1.03709,29.67489 0.65625,29.29405 C 0.4733,29.11113 -1.36556,28.31721 -2.03125,28.35655 C -2.93659,28.41009 -3.65625,28.81694 -3.65625,29.54405 C -3.65625,30.4967 -2.6578,31.0128 -0.78125,31.0128 C -0.45041,31.01283 4.19414,31.0128 5.8125,31.0128 C 8.15699,31.01283 8.86921,30.50476 9.25,28.5128 C 9.50409,27.18365 9.256,26.31107 8.84375,26.0753 z M 24.1875,26.40625 C 23.775,26.81878 23.4375,27.65417 23.4375,28.25 C 23.4375,28.84586 22.82656,29.52657 22.0625,29.78125 C 21.10183,30.1015 17.16217,29.68307 15.6875,28.71875 C 13.50636,27.29247 13.09321,27.24581 13.5625,28.46875 C 13.89659,29.3394 13.56713,30.0218 12.78125,30.0625 C 12.03491,30.10119 12.29081,30.46224 13.34375,30.875 C 14.39669,31.2878 16.19669,31.53685 17.34375,31.40625 C 18.49081,31.27569 20.675,31.10835 22.1875,31.0625 C 24.47917,30.99309 24.9375,30.53474 24.9375,28.3125 C 24.9375,26.84587 24.6,25.99376 24.1875,26.40625 z M 14.78125,18.0128 C 14.22953,18.01283 14.01663,18.91261 14.3125,20.04405 C 14.75177,21.72382 14.58766,21.90485 13.4375,20.9503 C 12.66278,20.30736 11.30935,20.05323 10.4375,20.3878 C 9.56565,20.72239 8.03366,20.54927 7.03125,20.0128 C 5.71842,19.31022 4.88923,19.44775 4.03125,20.48155 C 3.37615,21.27093 3.04267,22.26369 3.3125,22.7003 C 3.58233,23.13692 6.55041,23.2628 10.0625,23.2628 L 15.96875,23.2003 L 16.164312,20.600481 C 15.942322,19.088011 15.33297,18.0128 14.78125,18.0128 z M 23.6875,10.41905 C 22.69098,10.27283 21.62933,10.8434 21.3125,11.66905 C 20.97562,12.54698 19.96339,12.95368 18.875,12.66905 C 17.8514,12.4014 16.74551,12.60819 16.4375,13.10655 C 16.12949,13.60495 15.34254,13.98998 14.6875,13.98155 C 13.97189,13.97238 14.09871,13.59526 15,13.0128 C 16.21296,12.22896 16.06944,12.02517 14.25,12.0128 C 10.6758,11.98851 12.11334,14.45519 16,15.0128 L 25,15.0128 L 25,13.3878 C 25,12.62526 25,11.0128 23.6875,10.41905 z M 8.09375,10.10655 C 7.52574,9.97987 6.73376,10.5337 5.8125,11.79405 C 4.73741,13.26488 1.9973541,13.982959 0.23188406,13.393869 C -0.21900594,13.243449 -0.89596,12.92169 -1.125,12.60655 C -1.30992,12.35214 -1.5708,12.22177 -1.875,12.2003 C -2.78761,12.13591 -4,13.00215 -4,14.04405 C -4,14.42078 -2.337952,14.721738 -0.11594203,14.879738 C 0.71480797,14.938838 1.52714,15.0128 2.5,15.0128 C 8.76667,15.01283 9,14.92306 9,12.5128 C 9,11.04698 8.66176,10.23326 8.09375,10.10655 z M 15.21875,2.0128 C 15.10794,2.01283 14.99802,3.84601 14.96875,4.0128 C 14.76386,5.18034 13.97112,5.45972 11.25,5.35655 C 5.31418,5.13153 3.30494,6.39132 4.21875,7.04405 C 5.25944,7.78744 15.319,7.07724 16.125,6.2003 C 16.42097,5.87831 16.37069,4.9519 16.09375,4.0128 C 16.04315,3.84123 15.32956,2.0128 15.21875,2.0128 z M 31.96484,2.3253 C 31.6373,2.36496 29.96549,4.09017 29.8125,4.2628 C 28.30265,5.96652 27.95679,6.08789 28.375,4.7628 C 28.47575,4.4436 28.11108,3.09501 27.625,3.04405 C 27.06152,2.985 25.25202,4.22835 25.09375,4.41905 C 23.863,5.90204 22.32609,5.954 20.21875,4.6378 C 19.40284,4.12822 19.04288,4.32143 19.21875,5.16905 C 19.36988,5.89746 20.59369,6.7378 21.9375,7.0128 C 23.28132,7.28783 25.94856,7.1378 28,7.1378 C 30.70667,7.13783 31.48534,7.24033 31.88281,5.8253 C 31.97059,5.51281 31.99623,2.3215 31.96484,2.3253 z M 22.1875,2.3253 C 21.46562,2.03646 20.61355,2.05552 20.28125,2.3878 C 19.94896,2.72013 20.53959,2.96247 21.59375,2.91905 C 22.7587,2.8711 22.98523,2.64451 22.1875,2.3253 z " />
  <path
     id="l3"
     style="fill:#5a5a5a;fill-opacity:1;stroke:none;stroke-opacity:1"
     d="M 8.5625,27.35655 C 8.5121,27.30899 8.42825,27.59204 8.28125,28.2003 C 7.96172,29.52247 6.48779,29.99885 1.6875,30.29405 L -4.5,30.66905 L 2,30.5753 C 7.77061,30.50044 8.5065,30.28837 8.59375,28.5128 C 8.62884,27.79887 8.6129,27.40414 8.5625,27.35655 z M 24.5,27.34375 C 24.4496,27.29619 24.36575,27.57924 24.21875,28.1875 C 23.89922,29.50967 22.42529,29.98605 17.625,30.28125 L 11.4375,30.65625 L 17.9375,30.5625 C 23.70811,30.48764 24.444,30.27557 24.53125,28.5 C 24.56634,27.78607 24.5504,27.39134 24.5,27.34375 z M 31.5625,19.35655 C 31.5121,19.30899 31.42825,19.59204 31.28125,20.2003 C 30.96172,21.52247 29.48779,21.99885 24.6875,22.29405 L 18.5,22.66905 L 25,22.5753 C 30.77061,22.50044 31.5065,22.28837 31.59375,20.5128 C 31.62884,19.79887 31.6129,19.40414 31.5625,19.35655 z M 15.5625,19.35655 C 15.5121,19.30899 15.42825,19.59204 15.28125,20.2003 C 14.96172,21.52247 13.48779,21.99885 8.6875,22.29405 L 2.5,22.66905 L 9,22.5753 C 16.02061,22.87544 15.5065,22.28837 15.59375,20.5128 C 15.62884,19.79887 15.6129,19.40414 15.5625,19.35655 z M 24.5625,11.35655 C 24.5121,11.30899 24.42825,11.59204 24.28125,12.2003 C 23.96172,13.52247 22.48779,13.99885 17.6875,14.29405 L 11.5,14.66905 L 18,14.5753 C 23.77061,14.50044 24.5065,15.15078 24.59375,12.5128 C 24.62884,11.79887 24.6129,11.40414 24.5625,11.35655 z M 8.5625,11.35655 C 8.5121,11.30899 8.42825,11.59204 8.28125,12.2003 C 7.96172,13.52247 6.48779,13.99885 1.6875,14.29405 L -4.5,14.66905 L 2,14.5753 C 7.77061,14.50044 8.5065,14.28837 8.59375,12.5128 C 8.62884,11.79887 8.6129,11.40414 8.5625,11.35655 z M 15.5625,3.35655 C 15.5233,3.31957 15.31392,4.06513 15.28125,4.2003 C 14.96172,5.52247 13.48779,5.99885 8.6875,6.29405 L 2.5,6.66905 L 9,6.5753 C 14.77061,6.50044 15.5065,6.28837 15.59375,4.5128 C 15.60891,4.20432 15.59112,3.38358 15.5625,3.35655 z M 31.5625,3.35655 C 31.5233,3.31957 31.31392,4.06513 31.28125,4.2003 C 30.96172,5.52247 29.48779,5.99885 24.6875,6.29405 L 18.5,6.66905 L 25,6.5753 C 30.77061,6.50044 31.5065,6.28837 31.59375,4.5128 C 31.60891,4.20432 31.59112,3.38358 31.5625,3.35655 z "
     sodipodi:nodetypes="cscccsccscccsccscccsccscccsccsccccccscccsccscccsccscccsc" />
  <path
     id="l4"
     style="fill:#f7f7f7;fill-opacity:1"
     d="M 7.5,25.35655 L 1.5,25.41905 C 0.67283,25.42892 0.2215171,25.292036 -0.3942029,25.312166 C -4.0121229,25.430456 -4.37495,25.56578 -4.59375,28.0128 C -4.67402,30.09265 -4.62107,30.12753 -4.28125,28.29405 C -3.99468,26.7479 -3.2674097,26.197206 -0.44057971,25.888796 C 0.22511029,25.816196 0.87277,25.79226 1.8125,25.73155 L 7.5,25.35655 z M 25.4375,25.3125 L 18.4375,25.40625 C 12.16524,25.47776 11.43181,25.70793 11.34375,27.5 C 11.27339,28.93175 11.36129,29.00233 11.65625,27.78125 C 11.98155,26.43457 13.47122,25.98279 18.75,25.6875 L 25.4375,25.3125 z M 30.5,17.35655 L 24.5,17.41905 C 19.22481,17.48184 18.49266,17.7544 18.40625,19.5128 C 18.33608,20.94075 18.42475,21.01058 18.71875,19.79405 C 19.03267,18.49514 20.47763,18.01166 24.8125,17.73155 L 30.5,17.35655 z M 14.5,17.35655 L 8.5,17.41905 C 3.22481,17.48184 2.49266,17.7544 2.40625,19.5128 C 2.33608,20.94075 2.42475,21.01058 2.71875,19.79405 C 3.03267,18.49514 4.47763,18.01166 8.8125,17.73155 L 14.5,17.35655 z M 23.5,9.35655 L 17.5,9.41905 C 12.22481,9.48184 11.49266,9.2544 11.40625,11.5128 C 11.33608,12.94075 11.42475,13.01058 11.71875,11.79405 C 12.03267,10.49514 13.47763,10.01166 17.8125,9.73155 L 23.5,9.35655 z M 7.5,9.35655 L 1.5,9.41905 C 0.70859,9.4285 -0.072393769,9.4281264 -0.67246377,9.4512964 C -4.0721638,9.5825964 -4.5203,10.0182 -4.59375,11.5128 C -4.66392,12.94075 -4.57525,13.01058 -4.28125,11.79405 C -4.02963,10.75293 -3.2599254,10.197336 -0.64927536,9.8887964 C -0.002865363,9.8124264 0.95218,9.78714 1.8125,9.73155 L 7.5,9.35655 z M 5.75,1.2628 C 3.9625,1.48465 5.425,1.66905 9,1.66905 C 12.575,1.66908 14.0375,1.48463 12.25,1.2628 C 10.4625,1.041 7.5375,1.04098 5.75,1.2628 z M 2.59375,3.2628 C 2.34001,3.0091 2.17805,3.39481 2.125,4.0128 C 2.10858,4.20416 2.08349,4.32609 2.09375,4.5753 C 2.14173,5.74029 2.36828,5.99803 2.6875,5.2003 C 2.86459,4.7578 2.72234,3.39139 2.59375,3.2628 z M 30.5,1.35655 L 24.5,1.41905 C 19.22481,1.48184 18.49266,1.7544 18.40625,3.5128 C 18.39067,3.8299 18.40566,3.82887 18.40625,4.0128 C 18.40798,4.55139 18.49872,4.58925 18.65625,4.0128 C 18.68721,3.89954 18.68118,3.9495 18.71875,3.79405 C 19.03267,2.49514 20.47763,2.01166 24.8125,1.73155 L 30.5,1.35655 z "
     sodipodi:nodetypes="ccscssccccssccccssccccsscccccsccccsssscccssccssscccsssscc" />
</svg>
