<?xml version="1.0" encoding="UTF-8" standalone="no"?>
<!-- Created with Inkscape (http://www.inkscape.org/) -->
<svg
   xmlns:dc="http://purl.org/dc/elements/1.1/"
   xmlns:cc="http://web.resource.org/cc/"
   xmlns:rdf="http://www.w3.org/1999/02/22-rdf-syntax-ns#"
   xmlns:svg="http://www.w3.org/2000/svg"
   xmlns="http://www.w3.org/2000/svg"
   xmlns:sodipodi="http://inkscape.sourceforge.net/DTD/sodipodi-0.dtd"
   xmlns:inkscape="http://www.inkscape.org/namespaces/inkscape"
   version="1.0"
   x="0.0000000"
   y="0.0000000"
   width="29.6pt"
   height="25.6pt"
   id="svg3339"
   sodipodi:version="0.32"
   inkscape:version="0.43"
   sodipodi:docname="brick-pieces.svg"
   sodipodi:docbase="/home/adam/workspace/Escape-j2se/src/org/spacebar/escape/j2se/resources">
  <metadata
     id="metadata3451">
    <rdf:RDF>
      <cc:Work
         rdf:about="">
        <dc:format>image/svg+xml</dc:format>
        <dc:type
           rdf:resource="http://purl.org/dc/dcmitype/StillImage" />
      </cc:Work>
    </rdf:RDF>
  </metadata>
  <sodipodi:namedview
     inkscape:window-height="954"
     inkscape:window-width="1050"
     inkscape:pageshadow="2"
     inkscape:pageopacity="0.0"
     borderopacity="1.0"
     bordercolor="#666666"
     pagecolor="#ffffff"
     id="base"
     inkscape:zoom="10.78125"
     inkscape:cx="20.51736"
     inkscape:cy="1.3598139"
     inkscape:window-x="17"
     inkscape:window-y="8"
     inkscape:current-layer="svg3339"
     showgrid="true" />
  <defs
     id="defs3341" />
  <path
     id="l1"
     style="fill:#dadada;fill-opacity:1"
     d="M 0.25025,25.16905 L 0.094,28.2628 C 0.18596,31.26128 0.26573,31.3193 0.9065,29.0128 C 1.39889,27.24045 1.8821099,26.700936 4.4205398,26.482546 C 5.0826798,26.425606 5.89952,26.38499 6.87525,26.35655 C 14.63145,26.13049 14.44597,25.0128 6.6565,25.0128 L 0.25025,25.16905 z M 23.18775,25 L 16.00025,25.3125 L 16.06275,27.75 C 16.1727,29.97033 16.28479,30.05712 16.62525,28.3125 C 17.00179,26.38302 17.6424,26.18504 22.56275,26.34375 C 25.5934,26.44154 28.60023,26.19462 29.25025,25.78125 C 29.90027,25.36792 27.17525,25.00843 23.18775,25 z M 29.6565,17.0128 C 23.01742,17.01283 22.98963,17.02418 23.12525,19.7628 C 23.23192,21.91675 23.3617,22.04803 23.68775,20.3878 C 24.04883,18.5493 24.85022,18.25004 29.719,18.1378 C 37.70746,17.95368 37.65334,17.0128 29.6565,17.0128 z M 13.6565,17.0128 C 7.02627,17.01283 6.99486,17.02783 7.094,19.7628 C 7.17964,22.12579 7.28521,22.20696 7.844,20.41905 C 8.39107,18.66863 9.35754,18.33489 13.844,18.2628 C 16.77722,18.21571 19.42929,17.89625 19.75025,17.5753 C 20.0712,17.25437 17.32316,17.0128 13.6565,17.0128 z M 19.719,8.8253 C 18.53039,8.79397 17.35917,8.88736 16.7815,9.35655 C 15.84527,10.117 16.05222,11.30447 16.06275,11.7628 C 16.12066,14.28493 16.18479,14.32905 16.969,12.3878 C 17.68331,10.61961 18.66487,10.2628 22.93775,10.2628 C 25.75093,10.26283 28.33942,9.98614 28.68775,9.6378 C 29.03608,9.2895 26.32316,9.0128 22.6565,9.0128 C 22.10181,9.01283 20.90761,8.85666 19.719,8.8253 z M 0.18775,9.0753 L 0.12525,11.7628 C 0.23553,13.9897 0.34584,14.07844 0.68775,12.3253 C 1.02561,10.59297 1.75893,10.20533 4.31275,10.35655 C 4.57523,10.37212 8.24953,11.00718 8.9065,11.41905 C 9.83688,12.00236 10.06863,11.94897 9.62525,11.23155 C 9.23912,10.60683 9.94372,9.95142 11.25025,9.7003 C 12.49591,9.46091 10.46275,9.2127 6.75025,9.1378 L 0.18775,9.0753 z M 13.75025,1.0128 C 7.01681,0.99755 6.9894,1.01955 7.12525,3.7628 C 7.13325,3.92433 7.7379,4.07336 7.75025,4.0128 C 8.15322,2.03605 8.71056,1.85288 13.06275,2.23155 C 15.74938,2.46533 18.51325,2.30436 19.219,1.85655 C 19.95335,1.3906 17.61323,1.02157 13.75025,1.0128 z M 29.56275,1.0128 C 23.04111,1.01283 22.98985,1.02847 23.12525,3.7628 C 23.13317,3.92282 23.1488,3.87341 23.1565,4.0128 C 23.26596,5.99363 23.35515,6.1029 23.719,4.2003 C 23.73436,4.11999 23.76571,4.08754 23.7815,4.0128 C 24.1829,2.11263 24.78483,1.95148 29.6565,2.2628 C 32.67528,2.45576 35.35353,2.2337 35.62525,1.79405 C 35.89697,1.35442 33.17021,1.0128 29.56275,1.0128 z "
     sodipodi:nodetypes="ccssscccccsssccsssccssssccsssssscccssssscccssssccssssssc" />
  <path
     id="l2"
     style="fill:#9b9b9b;fill-opacity:1"
     d="M 36.68775,18.5753 C 36.41782,18.41029 35.91836,18.66596 35.06275,19.2003 C 33.99833,19.86507 33.40525,20.8729 33.75025,21.4503 C 34.09525,22.02775 33.73083,21.96367 32.93775,21.3253 C 31.15941,19.89391 24.05872,19.99999 24.31275,21.4503 C 24.41426,22.02985 26.30025,22.73494 28.50025,23.0128 C 34.81291,23.81009 36.98072,23.13845 36.98072,20.3878 C 36.98072,19.33037 36.95768,18.74034 36.68775,18.5753 z M 13.844,26.0753 C 13.43175,25.83956 12.83923,26.24116 12.37525,27.4503 C 12.05788,28.27738 11.16044,28.61208 10.25025,28.2628 C 9.09403,27.81915 8.87618,28.03707 9.469,29.0753 C 10.1255,30.22513 10.02825,30.27499 8.93775,29.2628 C 8.19707,28.57533 7.14025,28.00437 6.56275,28.0128 C 5.98525,28.02126 6.17525,28.47964 7.00025,29.0128 C 7.82525,29.54599 8.00233,29.97313 7.4065,29.98155 C 6.81066,29.99 6.03734,29.67489 5.6565,29.29405 C 5.47355,29.11113 3.63469,28.31721 2.969,28.35655 C 2.06366,28.41009 1.344,28.81694 1.344,29.54405 C 1.344,30.4967 2.34245,31.0128 4.219,31.0128 C 4.54984,31.01283 9.19439,31.0128 10.81275,31.0128 C 13.15724,31.01283 13.86946,30.50476 14.25025,28.5128 C 14.50434,27.18365 14.25625,26.31107 13.844,26.0753 z M 29.18775,26.40625 C 28.77525,26.81878 28.43775,27.65417 28.43775,28.25 C 28.43775,28.84586 27.82681,29.52657 27.06275,29.78125 C 26.10208,30.1015 22.16242,29.68307 20.68775,28.71875 C 18.50661,27.29247 18.09346,27.24581 18.56275,28.46875 C 18.89684,29.3394 18.56738,30.0218 17.7815,30.0625 C 17.03516,30.10119 17.29106,30.46224 18.344,30.875 C 19.39694,31.2878 21.19694,31.53685 22.344,31.40625 C 23.49106,31.27569 25.67525,31.10835 27.18775,31.0625 C 29.47942,30.99309 29.93775,30.53474 29.93775,28.3125 C 29.93775,26.84587 29.60025,25.99376 29.18775,26.40625 z M 19.7815,18.0128 C 19.22978,18.01283 19.01688,18.91261 19.31275,20.04405 C 19.75202,21.72382 19.58791,21.90485 18.43775,20.9503 C 17.66303,20.30736 16.3096,20.05323 15.43775,20.3878 C 14.5659,20.72239 13.03391,20.54927 12.0315,20.0128 C 10.71867,19.31022 9.88948,19.44775 9.0315,20.48155 C 8.3764,21.27093 8.04292,22.26369 8.31275,22.7003 C 8.58258,23.13692 11.55066,23.2628 15.06275,23.2628 L 20.969,23.2003 L 21.164562,20.600481 C 20.942572,19.088011 20.33322,18.0128 19.7815,18.0128 z M 28.68775,10.41905 C 27.69123,10.27283 26.62958,10.8434 26.31275,11.66905 C 25.97587,12.54698 24.96364,12.95368 23.87525,12.66905 C 22.85165,12.4014 21.74576,12.60819 21.43775,13.10655 C 21.12974,13.60495 20.34279,13.98998 19.68775,13.98155 C 18.97214,13.97238 19.09896,13.59526 20.00025,13.0128 C 21.21321,12.22896 21.06969,12.02517 19.25025,12.0128 C 15.67605,11.98851 17.11359,14.45519 21.00025,15.0128 L 30.00025,15.0128 L 30.00025,13.3878 C 30.00025,12.62526 30.00025,11.0128 28.68775,10.41905 z M 13.094,10.10655 C 12.52599,9.97987 11.73401,10.5337 10.81275,11.79405 C 9.73766,13.26488 6.9976041,13.982959 5.2321341,13.393869 C 4.7812441,13.243449 4.10429,12.92169 3.87525,12.60655 C 3.69033,12.35214 3.42945,12.22177 3.12525,12.2003 C 2.21264,12.13591 1.00025,13.00215 1.00025,14.04405 C 1.00025,14.42078 2.662298,14.721738 4.884308,14.879738 C 5.715058,14.938838 6.52739,15.0128 7.50025,15.0128 C 13.76692,15.01283 14.00025,14.92306 14.00025,12.5128 C 14.00025,11.04698 13.66201,10.23326 13.094,10.10655 z M 20.219,2.0128 C 20.10819,2.01283 19.99827,3.84601 19.969,4.0128 C 19.76411,5.18034 18.97137,5.45972 16.25025,5.35655 C 10.31443,5.13153 8.30519,6.39132 9.219,7.04405 C 10.25969,7.78744 20.31925,7.07724 21.12525,6.2003 C 21.42122,5.87831 21.37094,4.9519 21.094,4.0128 C 21.0434,3.84123 20.32981,2.0128 20.219,2.0128 z M 36.96509,2.3253 C 36.63755,2.36496 34.96574,4.09017 34.81275,4.2628 C 33.3029,5.96652 32.95704,6.08789 33.37525,4.7628 C 33.476,4.4436 33.11133,3.09501 32.62525,3.04405 C 32.06177,2.985 30.25227,4.22835 30.094,4.41905 C 28.86325,5.90204 27.32634,5.954 25.219,4.6378 C 24.40309,4.12822 24.04313,4.32143 24.219,5.16905 C 24.37013,5.89746 25.59394,6.7378 26.93775,7.0128 C 28.28157,7.28783 30.94881,7.1378 33.00025,7.1378 C 35.70692,7.13783 36.48559,7.24033 36.88306,5.8253 C 36.97084,5.51281 36.99648,2.3215 36.96509,2.3253 z M 27.18775,2.3253 C 26.46587,2.03646 25.6138,2.05552 25.2815,2.3878 C 24.94921,2.72013 25.53984,2.96247 26.594,2.91905 C 27.75895,2.8711 27.98548,2.64451 27.18775,2.3253 z " />
  <path
     id="l3"
     style="fill:#5a5a5a;fill-opacity:1;stroke:none;stroke-opacity:1"
     d="M 13.56275,27.35655 C 13.51235,27.30899 13.4285,27.59204 13.2815,28.2003 C 12.96197,29.52247 11.48804,29.99885 6.68775,30.29405 L 0.50025,30.66905 L 7.00025,30.5753 C 12.77086,30.50044 13.50675,30.28837 13.594,28.5128 C 13.62909,27.79887 13.61315,27.40414 13.56275,27.35655 z M 29.50025,27.34375 C 29.44985,27.29619 29.366,27.57924 29.219,28.1875 C 28.89947,29.50967 27.42554,29.98605 22.62525,30.28125 L 16.43775,30.65625 L 22.93775,30.5625 C 28.70836,30.48764 29.44425,30.27557 29.5315,28.5 C 29.56659,27.78607 29.55065,27.39134 29.50025,27.34375 z M 36.56275,19.35655 C 36.51235,19.30899 36.4285,19.59204 36.2815,20.2003 C 35.96197,21.52247 34.48804,21.99885 29.68775,22.29405 L 23.50025,22.66905 L 30.00025,22.5753 C 35.77086,22.50044 36.50675,22.28837 36.594,20.5128 C 36.62909,19.79887 36.61315,19.40414 36.56275,19.35655 z M 20.56275,19.35655 C 20.51235,19.30899 20.4285,19.59204 20.2815,20.2003 C 19.96197,21.52247 18.48804,21.99885 13.68775,22.29405 L 7.50025,22.66905 L 14.00025,22.5753 C 21.02086,22.87544 20.50675,22.28837 20.594,20.5128 C 20.62909,19.79887 20.61315,19.40414 20.56275,19.35655 z M 29.56275,11.35655 C 29.51235,11.30899 29.4285,11.59204 29.2815,12.2003 C 28.96197,13.52247 27.48804,13.99885 22.68775,14.29405 L 16.50025,14.66905 L 23.00025,14.5753 C 28.77086,14.50044 29.50675,15.15078 29.594,12.5128 C 29.62909,11.79887 29.61315,11.40414 29.56275,11.35655 z M 13.56275,11.35655 C 13.51235,11.30899 13.4285,11.59204 13.2815,12.2003 C 12.96197,13.52247 11.48804,13.99885 6.68775,14.29405 L 0.50025,14.66905 L 7.00025,14.5753 C 12.77086,14.50044 13.50675,14.28837 13.594,12.5128 C 13.62909,11.79887 13.61315,11.40414 13.56275,11.35655 z M 20.56275,3.35655 C 20.52355,3.31957 20.31417,4.06513 20.2815,4.2003 C 19.96197,5.52247 18.48804,5.99885 13.68775,6.29405 L 7.50025,6.66905 L 14.00025,6.5753 C 19.77086,6.50044 20.50675,6.28837 20.594,4.5128 C 20.60916,4.20432 20.59137,3.38358 20.56275,3.35655 z M 36.56275,3.35655 C 36.52355,3.31957 36.31417,4.06513 36.2815,4.2003 C 35.96197,5.52247 34.48804,5.99885 29.68775,6.29405 L 23.50025,6.66905 L 30.00025,6.5753 C 35.77086,6.50044 36.50675,6.28837 36.594,4.5128 C 36.60916,4.20432 36.59137,3.38358 36.56275,3.35655 z "
     sodipodi:nodetypes="cscccsccscccsccscccsccscccsccsccccccscccsccscccsccscccsc" />
  <path
     id="l4"
     style="fill:#f7f7f7;fill-opacity:1"
     d="M 12.50025,25.35655 L 6.50025,25.41905 C 5.67308,25.42892 5.2217671,25.292036 4.6060471,25.312166 C 0.9881271,25.430456 0.6253,25.56578 0.4065,28.0128 C 0.32623,30.09265 0.37918,30.12753 0.719,28.29405 C 1.00557,26.7479 1.7328403,26.197206 4.5596703,25.888796 C 5.2253603,25.816196 5.87302,25.79226 6.81275,25.73155 L 12.50025,25.35655 z M 30.43775,25.3125 L 23.43775,25.40625 C 17.16549,25.47776 16.43206,25.70793 16.344,27.5 C 16.27364,28.93175 16.36154,29.00233 16.6565,27.78125 C 16.9818,26.43457 18.47147,25.98279 23.75025,25.6875 L 30.43775,25.3125 z M 35.50025,17.35655 L 29.50025,17.41905 C 24.22506,17.48184 23.49291,17.7544 23.4065,19.5128 C 23.33633,20.94075 23.425,21.01058 23.719,19.79405 C 24.03292,18.49514 25.47788,18.01166 29.81275,17.73155 L 35.50025,17.35655 z M 19.50025,17.35655 L 13.50025,17.41905 C 8.22506,17.48184 7.49291,17.7544 7.4065,19.5128 C 7.33633,20.94075 7.425,21.01058 7.719,19.79405 C 8.03292,18.49514 9.47788,18.01166 13.81275,17.73155 L 19.50025,17.35655 z M 28.50025,9.35655 L 22.50025,9.41905 C 17.22506,9.48184 16.49291,9.2544 16.4065,11.5128 C 16.33633,12.94075 16.425,13.01058 16.719,11.79405 C 17.03292,10.49514 18.47788,10.01166 22.81275,9.73155 L 28.50025,9.35655 z M 12.50025,9.35655 L 6.50025,9.41905 C 5.70884,9.4285 4.9278562,9.4281264 4.3277862,9.4512964 C 0.9280862,9.5825964 0.47995,10.0182 0.4065,11.5128 C 0.33633,12.94075 0.425,13.01058 0.719,11.79405 C 0.97062,10.75293 1.7403246,10.197336 4.3509746,9.8887964 C 4.9973846,9.8124264 5.95243,9.78714 6.81275,9.73155 L 12.50025,9.35655 z M 10.75025,1.2628 C 8.96275,1.48465 10.42525,1.66905 14.00025,1.66905 C 17.57525,1.66908 19.03775,1.48463 17.25025,1.2628 C 15.46275,1.041 12.53775,1.04098 10.75025,1.2628 z M 7.594,3.2628 C 7.34026,3.0091 7.1783,3.39481 7.12525,4.0128 C 7.10883,4.20416 7.08374,4.32609 7.094,4.5753 C 7.14198,5.74029 7.36853,5.99803 7.68775,5.2003 C 7.86484,4.7578 7.72259,3.39139 7.594,3.2628 z M 35.50025,1.35655 L 29.50025,1.41905 C 24.22506,1.48184 23.49291,1.7544 23.4065,3.5128 C 23.39092,3.8299 23.40591,3.82887 23.4065,4.0128 C 23.40823,4.55139 23.49897,4.58925 23.6565,4.0128 C 23.68746,3.89954 23.68143,3.9495 23.719,3.79405 C 24.03292,2.49514 25.47788,2.01166 29.81275,1.73155 L 35.50025,1.35655 z "
     sodipodi:nodetypes="ccscssccccssccccssccccsscccccsccccsssscccssccssscccsssscc" />
</svg>
