<?xml version="1.0" encoding="UTF-8" standalone="no"?>
<!-- Created with Inkscape (http://www.inkscape.org/) -->
<svg
   xmlns:dc="http://purl.org/dc/elements/1.1/"
   xmlns:cc="http://web.resource.org/cc/"
   xmlns:rdf="http://www.w3.org/1999/02/22-rdf-syntax-ns#"
   xmlns:svg="http://www.w3.org/2000/svg"
   xmlns="http://www.w3.org/2000/svg"
   xmlns:sodipodi="http://inkscape.sourceforge.net/DTD/sodipodi-0.dtd"
   xmlns:inkscape="http://www.inkscape.org/namespaces/inkscape"
   sodipodi:docname="broken-pieces.svg"
   sodipodi:docbase="/home/adam/workspace/Escape-j2se/src/org/spacebar/escape/j2se/resources"
   inkscape:version="0.43"
   sodipodi:version="0.32"
   id="svg8276"
   height="32px"
   width="32px">
  <defs
     id="defs3" />
  <sodipodi:namedview
     inkscape:window-y="49"
     inkscape:window-x="19"
     inkscape:window-height="657"
     inkscape:window-width="869"
     inkscape:document-units="px"
     inkscape:grid-bbox="true"
     showgrid="true"
     inkscape:current-layer="layer1"
     inkscape:cy="9.13632"
     inkscape:cx="16.348821"
     inkscape:zoom="11.197802"
     inkscape:pageshadow="2"
     inkscape:pageopacity="0.0"
     borderopacity="1.0"
     bordercolor="#666666"
     pagecolor="#ffffff"
     id="base" />
  <metadata
     id="metadata4">
    <rdf:RDF>
      <cc:Work
         rdf:about="">
        <dc:format>image/svg+xml</dc:format>
        <dc:type
           rdf:resource="http://purl.org/dc/dcmitype/StillImage" />
      </cc:Work>
    </rdf:RDF>
  </metadata>
  <g
     inkscape:groupmode="layer"
     inkscape:label="Layer 1"
     id="layer1">
    <g
       id="g8249"
       transform="translate(-63.50001,329.25)">
      <path
         style="fill:#707070"
         d="M 83.150744,-312.51905 C 82.876821,-313.19608 82.669376,-312.40002 82.689756,-310.75002 C 82.710135,-309.10002 82.934254,-308.54608 83.187798,-309.51905 C 83.441341,-310.49202 83.424667,-311.84202 83.150744,-312.51905 z M 68.494807,-313.30904 C 68.494807,-313.82658 68.044807,-314.25002 67.494807,-314.25002 C 66.944807,-314.25002 66.494807,-313.54846 66.494807,-312.691 C 66.494807,-311.83354 66.944807,-311.4101 67.494807,-311.75002 C 68.044807,-312.08994 68.494807,-312.7915 68.494807,-313.30904 z M 84.405787,-316.98616 C 84.128374,-317.67366 83.901401,-317.11116 83.901401,-315.73616 C 83.901401,-314.36116 84.128374,-313.79866 84.405787,-314.48616 C 84.683199,-315.17366 84.683199,-316.29866 84.405787,-316.98616 z M 68.494807,-316.25002 C 68.494807,-316.80002 68.044807,-317.25002 67.494807,-317.25002 C 66.944807,-317.25002 66.494807,-316.80002 66.494807,-316.25002 C 66.494807,-315.70002 66.944807,-315.25002 67.494807,-315.25002 C 68.044807,-315.25002 68.494807,-315.70002 68.494807,-316.25002 z M 71.514863,-317.72585 C 70.819143,-318.56414 69.292518,-319.18874 68.122363,-319.11384 C 66.146686,-318.98738 66.159792,-318.94615 68.305956,-318.53627 C 69.577088,-318.29351 70.870181,-317.43539 71.179495,-316.62933 C 71.488809,-315.82327 71.975417,-315.3973 72.260847,-315.68273 C 72.546276,-315.96815 72.210583,-316.88756 71.514863,-317.72585 z M 76.494807,-320.92951 C 76.494807,-321.17493 75.707307,-321.24618 74.744807,-321.08784 C 73.782307,-320.92949 72.319807,-321.21259 71.494807,-321.71694 C 70.230359,-322.48994 70.196874,-322.38445 71.281575,-321.04521 C 72.387973,-319.67919 76.494807,-319.58804 76.494807,-320.92951 z M 67.098974,-322.97919 C 66.766682,-323.31148 66.530334,-322.72085 66.573755,-321.66669 C 66.621739,-320.50174 66.858695,-320.26479 67.177921,-321.06252 C 67.466792,-321.78439 67.431266,-322.6469 67.098974,-322.97919 z M 73.994807,-323.25002 C 73.202868,-324.5314 72.494807,-324.5314 72.494807,-323.25002 C 72.494807,-322.70002 72.971365,-322.25002 73.553824,-322.25002 C 74.136283,-322.25002 74.334726,-322.70002 73.994807,-323.25002 z M 78.494807,-324.59155 C 78.494807,-325.34781 76.758404,-325.89062 73.9479,-326.01294 C 71.065005,-326.13841 69.63194,-325.83715 70.032057,-325.18975 C 70.379142,-324.62815 71.489717,-324.43102 72.5,-324.75167 C 73.510283,-325.07232 74.934912,-324.68786 75.665843,-323.89731 C 77.118731,-322.32591 78.494807,-322.66361 78.494807,-324.59155 z M 67.244807,-325.84503 L 64.994807,-327.75002 C 64.994807,-327.75002 68.482307,-324.79729 67.244807,-325.84503 z M 76.494807,-327.25002 C 76.494807,-327.80002 76.018249,-328.25002 75.43579,-328.25002 C 74.853331,-328.25002 74.654888,-327.80002 74.994807,-327.25002 C 75.786746,-325.96863 76.494807,-325.96863 76.494807,-327.25002 z "
         id="path8224"
         sodipodi:nodetypes="cccccccccccccccccccccccccccccccccccccccccccccccccc" />
      <path
         style="fill:#4e4e4e"
         d="M 64.214422,-328.80349 L 94.964177,-328.71419 L 94.78557,-297.87513 L 89.379124,-297.96444 C 83.362973,-297.96444 82.416259,-297.41082 82.973286,-299.16585 C 83.307721,-300.21957 83.113046,-301.37112 82.540673,-301.72487 C 81.923326,-302.10641 81.499996,-301.32708 81.499996,-299.80903 C 81.499996,-297.25323 81.042163,-297.78583 72.05348,-297.78583 L 63.946512,-297.60722 L 64.214422,-328.80349 z M 67.535179,-301.18427 C 66.965828,-302.24811 66.531624,-304.16061 66.570281,-305.43427 C 66.636606,-307.61955 66.688984,-307.63734 67.499996,-305.75001 C 68.2349,-304.03979 68.369609,-304.00357 68.42971,-305.50001 C 68.468367,-306.46251 69.166422,-307.25001 69.980944,-307.25001 C 71.637516,-307.25001 73.027189,-303.06624 72.139227,-300.75225 C 71.7877,-299.83618 72.135816,-299.25001 73.03138,-299.25001 C 73.839119,-299.25001 74.535522,-299.81251 74.578943,-300.50001 C 74.642101,-301.50001 74.758768,-301.50001 75.162277,-300.50001 C 75.439689,-299.81251 76.355917,-299.25001 77.198339,-299.25001 C 78.550578,-299.25001 78.559803,-299.5136 77.277077,-301.50001 C 76.32256,-302.97816 76.077326,-304.67621 76.5622,-306.44997 C 77.032961,-308.17209 76.883723,-309.35079 76.150129,-309.70456 C 75.517556,-310.00962 76.237496,-310.09454 77.749996,-309.89328 C 80.745142,-309.49473 81.462707,-311.20614 79.116779,-313.15309 C 78.050129,-314.03833 77.599586,-313.95192 77.148164,-312.77553 C 76.145516,-310.16268 74.812757,-311.10262 75.002311,-314.28892 C 75.101743,-315.96032 74.73487,-317.60485 74.187038,-317.94343 C 73.626457,-318.28989 73.502933,-318.05427 73.904504,-317.40452 C 74.94647,-315.71858 73.440069,-315.99427 71.369031,-317.86853 C 70.176559,-318.9477 68.719235,-319.27087 66.995778,-318.83831 C 64.649642,-318.24946 64.43233,-317.77695 64.642284,-313.72096 L 64.873597,-309.25236 L 67.109748,-311.35312 C 68.345573,-312.51411 69.182381,-314.30296 68.980365,-315.35194 C 68.544611,-317.61463 70.308928,-317.9115 71.15097,-315.71717 C 71.519238,-314.75748 70.385768,-312.86992 68.119585,-310.66903 C 64.46583,-307.12055 63.32162,-302.89216 65.749996,-301.91229 C 66.749996,-301.50878 66.749996,-301.39211 65.749996,-301.32896 C 63.634795,-301.19537 64.369524,-299.25001 66.535179,-299.25001 C 68.237428,-299.25001 68.401018,-299.56643 67.535179,-301.18427 z M 68.583329,-308.60933 C 68.812496,-308.80696 70.349996,-309.27063 71.999996,-309.63971 C 74.190912,-310.12978 74.595454,-310.03701 73.499996,-309.2957 C 72.149626,-308.38189 67.579843,-307.74395 68.583329,-308.60933 z M 70.968353,-303.13403 C 70.794919,-304.02282 70.590064,-305.20001 70.513121,-305.75001 C 70.436177,-306.30001 69.966062,-305.73701 69.468422,-304.4989 C 68.415553,-301.8794 69.313682,-298.33051 70.531005,-300.30019 C 70.944981,-300.97001 71.141787,-302.24524 70.968353,-303.13403 z M 81.950421,-305.81709 C 82.975945,-307.79379 83.381213,-308.00194 83.846022,-306.79066 C 84.171184,-305.9433 85.01385,-305.2569 85.718611,-305.26532 C 86.663457,-305.27661 86.692142,-305.47646 85.82783,-306.02624 C 83.95442,-307.21789 85.08108,-318.42095 87.258275,-320.25001 C 88.240299,-321.07501 90.03657,-323.15564 91.249986,-324.87363 L 93.456198,-327.99724 L 89.084625,-328.08499 C 85.40307,-328.15889 84.623576,-327.83058 84.146187,-326.00504 C 83.388832,-323.10891 84.047763,-322.65492 86.071425,-324.67858 C 86.988091,-325.59525 87.973268,-326.11007 88.260706,-325.82263 C 88.841521,-325.24182 84.471874,-321.33575 83.182608,-321.28328 C 82.733045,-321.26498 82.65087,-320.35001 82.999996,-319.25001 C 83.450471,-317.83069 83.179696,-317.25001 82.067384,-317.25001 C 80.219902,-317.25001 79.920158,-315.28663 81.749996,-315.17106 C 82.610979,-315.11668 82.644017,-314.94616 81.856154,-314.62311 C 81.227041,-314.36516 80.959623,-313.2084 81.261891,-312.05252 C 81.608896,-310.72557 81.179111,-309.48854 80.095892,-308.69647 C 79.004366,-307.89833 78.765838,-307.20374 79.440155,-306.78699 C 81.060282,-305.7857 80.700935,-304.23567 78.999996,-304.88838 C 77.173955,-305.5891 77.061785,-303.93298 78.749996,-301.19728 L 79.999996,-299.17168 L 80.32301,-301.23727 C 80.500668,-302.37335 81.233003,-304.43427 81.950421,-305.81709 z M 89.356759,-300.14032 C 90.343175,-300.76535 90.399459,-301.19411 89.562954,-301.7111 C 88.930142,-302.1022 87.757098,-301.87835 86.956191,-301.21365 C 85.930625,-300.36251 85.499996,-300.33705 85.499996,-301.12756 C 85.499996,-301.74491 85.949996,-302.25001 86.499996,-302.25001 C 87.049996,-302.25001 87.499996,-302.69497 87.499996,-303.23881 C 87.499996,-303.78265 86.426157,-304.13873 85.113687,-304.03011 C 82.863072,-303.84384 82.812748,-303.70232 84.228697,-301.54131 C 85.822551,-299.10878 87.154491,-298.7449 89.356759,-300.14032 z M 78.999996,-316.25001 C 79.339915,-316.80001 78.916472,-317.25001 78.059013,-317.25001 C 77.201554,-317.25001 76.499996,-316.80001 76.499996,-316.25001 C 76.499996,-314.9561 78.200317,-314.9561 78.999996,-316.25001 z M 79.8266,-320.78225 C 81.494967,-321.45863 83.499996,-325.02442 83.499996,-327.31511 C 83.499996,-327.8293 80.237496,-328.20395 76.249996,-328.14765 C 70.473396,-328.06609 69.670798,-327.88642 72.300742,-327.26357 C 74.116152,-326.83362 75.859408,-326.22393 76.174645,-325.90869 C 77.106292,-324.97705 69.088785,-326.42919 68.049996,-327.38025 C 65.801682,-329.43867 64.499996,-328.18119 64.499996,-323.95081 C 64.499996,-319.65488 64.502564,-319.65191 67.881884,-320.04643 C 69.741923,-320.26358 71.547991,-319.98137 71.895369,-319.4193 C 72.495437,-318.44837 75.228192,-318.91798 79.8266,-320.78225 z M 67.057294,-322.83177 C 65.990537,-323.6118 65.541245,-324.24312 66.058866,-324.2347 C 67.441123,-324.21221 70.019822,-322.4365 69.469463,-321.88614 C 69.209526,-321.62621 68.12405,-322.05174 67.057294,-322.83177 z M 71.958877,-322.31654 C 71.596343,-322.90313 71.569786,-323.65313 71.89986,-323.98321 C 72.229935,-324.31328 72.499996,-324.02802 72.499996,-323.34929 C 72.499996,-322.54867 73.290263,-322.33753 74.749996,-322.74813 C 76.511346,-323.24357 76.674229,-323.15294 75.499996,-322.33083 C 73.58662,-320.99122 72.779983,-320.98796 71.958877,-322.31654 z "
         id="path8222"
         sodipodi:nodetypes="ccccsssccccsssssssssssssssssssscccssssssccssccsssccsssscccsssssssssssscccccsssssssccssccssssssssccssccssssc" />
      <path
         style="fill:#393939;fill-opacity:1"
         d="M 63.680259,-302.50002 L 63.860507,-307.75002 L 64.237984,-302.92818 L 64.615461,-298.10635 L 73.06007,-298.42818 C 77.704605,-298.60519 81.503629,-298.41252 81.502345,-298.00002 C 81.501061,-297.58752 77.360708,-297.42863 72.410708,-297.42863 L 63.857224,-297.42863 L 63.680259,-302.50002 z M 82.499389,-298.00002 C 82.499047,-298.41252 84.81558,-298.5896 87.64724,-298.39353 C 92.341691,-298.06849 92.726822,-298.20077 92.014517,-299.89353 C 91.58486,-300.9146 91.300759,-302.99126 91.383183,-304.50832 C 91.504668,-306.74432 90.86717,-307.58416 88.016528,-308.94353 C 86.082444,-309.86583 84.500011,-311.23762 84.500011,-311.99194 C 84.500011,-313.09837 84.92954,-313.06257 86.722517,-311.80672 C 89.219814,-310.05755 91.950728,-309.71173 90.98993,-311.26633 C 90.644466,-311.8253 89.866436,-311.97648 89.260974,-311.60229 C 88.552589,-311.16448 88.387781,-311.51517 88.798687,-312.58597 C 89.261005,-313.79075 88.893917,-314.25002 87.468626,-314.25002 C 86.230346,-314.25002 85.5293,-314.89925 85.578958,-316.00002 C 85.626121,-317.04546 85.860975,-317.24676 86.162292,-316.50002 C 86.439704,-315.81252 87.301354,-315.25002 88.07707,-315.25002 C 89.519787,-315.25002 89.564568,-317.75267 88.162064,-320.00002 C 87.731693,-320.68964 87.834463,-321.25002 88.391304,-321.25002 C 88.946434,-321.25002 89.760491,-320.66151 90.200321,-319.94222 C 90.825415,-318.91996 91.416569,-319.0636 92.907942,-320.60015 C 94.788242,-322.53741 94.784602,-322.5577 92.656562,-322.00121 C 91.468941,-321.69064 90.74943,-321.84457 91.057648,-322.34328 C 91.365866,-322.84199 92.266487,-323.25002 93.059028,-323.25002 C 93.920759,-323.25002 94.500011,-324.23285 94.500011,-325.69498 L 94.500011,-328.13994 L 79.545466,-328.19018 L 64.59092,-328.24042 L 64.59092,-318.62401 C 64.59092,-313.33498 64.345465,-308.76214 64.045465,-308.46214 C 63.745465,-308.16214 63.857224,-312.53808 63.857224,-318.40474 L 64.125134,-328.8035 L 95.053495,-328.8035 L 95.142798,-297.60723 L 89.000011,-297.60723 C 85.425011,-297.60723 82.499731,-297.58752 82.499389,-298.00002 z M 94.059209,-304.70382 C 93.68425,-307.20423 92.946465,-309.25002 92.419686,-309.25002 C 91.892908,-309.25002 91.667245,-308.23752 91.918213,-307.00002 C 93.284261,-300.26417 93.648327,-299.065 94.16915,-299.58583 C 94.483642,-299.90032 94.434169,-302.20342 94.059209,-304.70382 z M 94.316433,-317.97312 L 94.000011,-320.69622 L 92.18098,-317.90295 C 90.422271,-315.20231 90.422271,-315.02081 92.18098,-312.42985 L 94.000011,-309.75002 L 94.316433,-312.50002 C 94.490466,-314.01252 94.490466,-316.47541 94.316433,-317.97312 z M 80.500011,-303.191 C 80.500011,-303.70854 80.944857,-304.40692 81.488557,-304.74294 C 82.055417,-305.09328 82.223064,-304.69188 81.881568,-303.80196 C 81.216777,-302.06954 80.500011,-301.75257 80.500011,-303.191 z M 86.710584,-305.85088 C 86.0014,-306.62041 85.862342,-307.25002 86.401567,-307.25002 C 87.440008,-307.25002 88.943295,-305.34781 88.350147,-304.78435 C 88.157572,-304.60141 87.419769,-305.08135 86.710584,-305.85088 z M 80.208928,-310.75002 C 79.818316,-311.85002 79.22006,-313.42502 78.87947,-314.25002 C 78.378191,-315.46425 78.587132,-315.43914 79.9762,-314.11822 C 80.919992,-313.22073 81.518248,-311.64573 81.305658,-310.61822 C 80.941048,-308.85595 80.87886,-308.86343 80.208928,-310.75002 z "
         id="path8218"
         sodipodi:nodetypes="cccccsccccsssssssssssssssssssscccccscccccccssscccccccccssccssccsssc" />
    </g>
  </g>
</svg>
