<?xml version="1.0" encoding="UTF-8" standalone="no"?>
<!-- Created with Inkscape (http://www.inkscape.org/) -->
<svg
   xmlns:dc="http://purl.org/dc/elements/1.1/"
   xmlns:cc="http://web.resource.org/cc/"
   xmlns:rdf="http://www.w3.org/1999/02/22-rdf-syntax-ns#"
   xmlns:svg="http://www.w3.org/2000/svg"
   xmlns="http://www.w3.org/2000/svg"
   xmlns:sodipodi="http://sodipodi.sourceforge.net/DTD/sodipodi-0.dtd"
   xmlns:inkscape="http://www.inkscape.org/namespaces/inkscape"
   sodipodi:docname="checkerboard.svg"
   sodipodi:docbase="/home/adam/workspace/escape-java-apps/src/org/spacebar/escape/j2se/resources"
   inkscape:version="0.45.1"
   sodipodi:version="0.32"
   id="svg15582"
   height="32px"
   width="32px"
   inkscape:output_extension="org.inkscape.output.svg.inkscape">
  <defs
     id="defs3" />
  <sodipodi:namedview
     inkscape:window-y="59"
     inkscape:window-x="54"
     inkscape:window-height="925"
     inkscape:window-width="1373"
     inkscape:document-units="px"
     inkscape:grid-bbox="true"
     showgrid="true"
     inkscape:current-layer="layer1"
     inkscape:cy="15.421294"
     inkscape:cx="26.575739"
     inkscape:zoom="22.475326"
     inkscape:pageshadow="2"
     inkscape:pageopacity="0.0"
     borderopacity="1.0"
     bordercolor="#666666"
     pagecolor="#ffffff"
     id="base"
     inkscape:grid-points="true" />
  <metadata
     id="metadata4">
    <rdf:RDF>
      <cc:Work
         rdf:about="">
        <dc:format>image/svg+xml</dc:format>
        <dc:type
           rdf:resource="http://purl.org/dc/dcmitype/StillImage" />
      </cc:Work>
    </rdf:RDF>
  </metadata>
  <g
     inkscape:groupmode="layer"
     inkscape:label="Layer 1"
     id="layer1">
    <path
       sodipodi:nodetypes="ccccc"
       style="color:#000000;fill:#000000;fill-opacity:1;fill-rule:nonzero;stroke:none;stroke-width:1.79999995;stroke-linecap:square;stroke-linejoin:miter;marker:none;marker-start:none;marker-mid:none;marker-end:none;stroke-miterlimit:4;stroke-dashoffset:0;stroke-opacity:1;visibility:visible;display:inline;overflow:visible"
       d="M 4,4 L 4,28 L 28,28 L 28,4 L 4,4 z "
       id="path13551" />
    <path
       sodipodi:nodetypes="ccccccccccccccccccccccccccccccccccccccccccccccccccc"
       d="M 8,5 L 8,27 L 10,27 L 10,5 L 8,5 z M 12,5 L 12,27 L 14,27 L 14,5 L 12,5 z M 16,5 L 16,27 L 18,27 L 18,5 L 16,5 z M 20,5 L 20,27 L 22,27 L 22,5 L 20,5 z M 5,8 L 5,5 L 27,5 L 27,8 L 5,8 z M 5,12 L 5,10 L 27,10 L 27,12 L 5,12 z M 5,16 L 5,14 L 27,14 L 27,16 L 5,16 z M 5,20 L 5,18 L 27,18 L 27,20 L 5,20 z M 5,24 L 5,22 L 27,22 L 27,24 L 5,24 z M 24,5 L 24,27 L 27,27 L 27,6 L 26,5 L 24,5 z "
       style="color:#000000;fill:#fff700;fill-opacity:1;fill-rule:nonzero;stroke:none;stroke-width:1.79999995;stroke-linecap:square;stroke-linejoin:miter;marker:none;marker-start:none;marker-mid:none;marker-end:none;stroke-miterlimit:4;stroke-dashoffset:0;stroke-opacity:1;visibility:visible;display:inline;overflow:visible"
       id="path11869" />
  </g>
</svg>
