<?xml version="1.0" encoding="UTF-8" standalone="no"?>
<!-- Created with Inkscape (http://www.inkscape.org/) -->
<svg
   xmlns:dc="http://purl.org/dc/elements/1.1/"
   xmlns:cc="http://web.resource.org/cc/"
   xmlns:rdf="http://www.w3.org/1999/02/22-rdf-syntax-ns#"
   xmlns:svg="http://www.w3.org/2000/svg"
   xmlns="http://www.w3.org/2000/svg"
   xmlns:sodipodi="http://sodipodi.sourceforge.net/DTD/sodipodi-0.dtd"
   xmlns:inkscape="http://www.inkscape.org/namespaces/inkscape"
   sodipodi:docname="common-light.svg"
   sodipodi:docbase="/home/adam/workspace/escape-java-apps/src/org/spacebar/escape/j2se/resources"
   inkscape:version="0.45.1"
   sodipodi:version="0.32"
   id="svg15582"
   height="32px"
   width="32px"
   inkscape:output_extension="org.inkscape.output.svg.inkscape">
  <defs
     id="defs3" />
  <sodipodi:namedview
     inkscape:window-y="59"
     inkscape:window-x="54"
     inkscape:window-height="925"
     inkscape:window-width="1373"
     inkscape:document-units="px"
     inkscape:grid-bbox="true"
     showgrid="true"
     inkscape:current-layer="layer1"
     inkscape:cy="16.355652"
     inkscape:cx="20.168713"
     inkscape:zoom="22.475326"
     inkscape:pageshadow="2"
     inkscape:pageopacity="0.0"
     borderopacity="1.0"
     bordercolor="#666666"
     pagecolor="#ffffff"
     id="base"
     inkscape:grid-points="true" />
  <metadata
     id="metadata4">
    <rdf:RDF>
      <cc:Work
         rdf:about="">
        <dc:format>image/svg+xml</dc:format>
        <dc:type
           rdf:resource="http://purl.org/dc/dcmitype/StillImage" />
      </cc:Work>
    </rdf:RDF>
  </metadata>
  <g
     inkscape:groupmode="layer"
     inkscape:label="Layer 1"
     id="layer1">
    <path
       sodipodi:nodetypes="ccccc"
       style="color:#000000;fill:#000000;fill-opacity:1;fill-rule:nonzero;stroke:none;stroke-width:1.79999995;stroke-linecap:square;stroke-linejoin:miter;marker:none;marker-start:none;marker-mid:none;marker-end:none;stroke-miterlimit:4;stroke-dashoffset:0;stroke-opacity:1;visibility:visible;display:inline;overflow:visible"
       d="M 6,6 L 6,26 L 26,26 L 26,6 L 6,6 z "
       id="path13551" />
    <path
       id="path10720"
       style="color:#000000;fill:#fff700;fill-opacity:1;fill-rule:nonzero;stroke:none;stroke-width:1.79999995;stroke-linecap:square;stroke-linejoin:miter;marker:none;marker-start:none;marker-mid:none;marker-end:none;stroke-miterlimit:4;stroke-dashoffset:0;stroke-opacity:1;visibility:visible;display:inline;overflow:visible"
       d="M 8,6.0000004 L 8,26 L 10,26 L 10,6.0000004 L 8,6.0000004 z M 12,6.0000004 L 12,26 L 14,26 L 14,6.0000004 L 12,6.0000004 z M 16,6.0000004 L 16,26 L 18,26 L 18,6.0000004 L 16,6.0000004 z M 20,6.0000004 L 20,26 L 22,26 L 22,6.0000004 L 20,6.0000004 z M 6,8 L 6,6 L 26,6 L 26,8 L 6,8 z M 6,12 L 6,10 L 26,10 L 26,12 L 6,12 z M 6,16 L 6,14 L 26,14 L 26,16 L 6,16 z M 6,20 L 6,18 L 26,18 L 26,20 L 6,20 z M 6,24 L 6,22 L 26,22 L 26,24 L 6,24 z M 24,6 L 24,26 L 26,26 L 26,6 L 24,6 z "
       sodipodi:nodetypes="cccccccccccccccccccccccccccccccccccccccccccccccccc" />
    <path
       style="fill:#575757;fill-opacity:1"
       d="M 10,16 L 10,10 L 16,10 L 22,10 L 22,16 L 22,22 L 16,22 L 10,22 L 10,16 z "
       id="path13619" />
    <path
       style="fill:#828282;fill-opacity:1"
       d="M 21.125,21.13788 L 21.625,10.76288 L 22,22.01288 L 10.3125,21.76288 L 21.125,21.13788 z "
       id="path13621"
       sodipodi:nodetypes="ccccc" />
    <path
       style="fill:#4b4b4b;fill-opacity:1"
       d="M 10.18498,15.76288 L 10,10.01288 L 16.25,10.20196 L 21.92548,10.39105 L 16.80058,10.75036 L 11.10116,11.10967 L 10.73556,16.31127 L 10.36996,21.51288 L 10.18498,15.76288 z "
       id="path13623" />
  </g>
</svg>
