<?xml version="1.0" encoding="UTF-8" standalone="no"?>
<!-- Created with Inkscape (http://www.inkscape.org/) -->
<svg
   xmlns:dc="http://purl.org/dc/elements/1.1/"
   xmlns:cc="http://web.resource.org/cc/"
   xmlns:rdf="http://www.w3.org/1999/02/22-rdf-syntax-ns#"
   xmlns:svg="http://www.w3.org/2000/svg"
   xmlns="http://www.w3.org/2000/svg"
   xmlns:sodipodi="http://sodipodi.sourceforge.net/DTD/sodipodi-0.dtd"
   xmlns:inkscape="http://www.inkscape.org/namespaces/inkscape"
   width="32"
   height="42"
   id="svg6448"
   sodipodi:version="0.32"
   inkscape:version="0.44.1"
   version="1.0"
   sodipodi:docbase="/home/adam/workspace/Escape-j2se/src/org/spacebar/escape/j2se/resources"
   sodipodi:docname="common-sleep-bot.svg">
  <defs
     id="defs6450" />
  <sodipodi:namedview
     id="base"
     pagecolor="#ffffff"
     bordercolor="#666666"
     borderopacity="1.0"
     inkscape:pageopacity="0.0"
     inkscape:pageshadow="2"
     inkscape:zoom="7.919596"
     inkscape:cx="3.4460146"
     inkscape:cy="34.691029"
     inkscape:document-units="px"
     inkscape:current-layer="svg6448"
     inkscape:window-width="906"
     inkscape:window-height="806"
     inkscape:window-x="109"
     inkscape:window-y="164"
     showguides="true"
     inkscape:guide-bbox="true" />
  <metadata
     id="metadata6453">
    <rdf:RDF>
      <cc:Work
         rdf:about="">
        <dc:format>image/svg+xml</dc:format>
        <dc:type
           rdf:resource="http://purl.org/dc/dcmitype/StillImage" />
      </cc:Work>
    </rdf:RDF>
  </metadata>
  <g
     id="g2971"
     transform="translate(-0.696442,9.509357e-3)">
    <path
       inkscape:export-ydpi="40.047569"
       inkscape:export-xdpi="40.047569"
       inkscape:export-filename="/home/adam/dalek-icon.png"
       id="path2241"
       d="M 11.255905,41.718428 C 10.64282,41.635879 7.940025,42.221658 6.316492,41.863342 C 3.847064,41.318336 3.21585,40.482676 3.747054,38.36617 C 4.096302,36.974669 30.335805,37.300996 30.42676,38.716722 C 30.573767,41.004887 31.983652,41.266714 28.529209,41.685276 C 24.514802,42.171687 13.310949,41.995131 11.255905,41.718428 z "
       style="fill:black;fill-opacity:0.36612022"
       sodipodi:nodetypes="csssss" />
    <rect
       ry="5.4090347"
       style="fill:#cbcbcb;fill-opacity:1;fill-rule:evenodd;stroke:none;stroke-width:1.25;stroke-linejoin:miter;stroke-miterlimit:4;stroke-dashoffset:0;stroke-opacity:1"
       id="rect8116"
       width="1.9548843"
       height="13.12565"
       x="3.908287"
       y="18.177044"
       rx="5.4090347"
       inkscape:export-filename="/home/adam/dalek-icon.png"
       inkscape:export-xdpi="40.047569"
       inkscape:export-ydpi="40.047569" />
    <path
       inkscape:export-ydpi="40.047569"
       inkscape:export-xdpi="40.047569"
       inkscape:export-filename="/home/adam/dalek-icon.png"
       id="path2239"
       d="M 4.087763,35.068994 C 3.486762,34.697561 2.825719,30.880483 2.825719,24.649065 C 2.825719,13.839894 2.143186,14.345001 5.010091,12.086266 C 6.62574,10.813346 12.773968,9.4387043 17.502656,9.4387043 C 23.885919,9.4387043 26.005437,9.8746022 28.434595,11.686972 C 30.39592,14.238693 29.274396,27.57596 29.23378,32.43732 C 29.167058,40.423279 27.527773,39.12065 16.723933,39.404451 C 6.478953,39.843673 9.135563,40.568206 4.087763,35.068994 z M 4.992465,21.477702 C 4.76681,18.965268 4.57901,20.755141 4.575131,25.455212 C 4.571255,30.155284 4.755881,32.210924 4.985406,30.023287 C 5.21494,27.835659 5.218112,23.990146 4.992465,21.477702 z "
       style="fill:#888;fill-opacity:1"
       sodipodi:nodetypes="cccccscccccc" />
    <path
       inkscape:export-ydpi="40.047569"
       inkscape:export-xdpi="40.047569"
       inkscape:export-filename="/home/adam/dalek-icon.png"
       id="path2237"
       d="M 3.922931,35.337846 C 3.252465,33.239854 2.577622,29.393971 2.577622,24.268276 C 2.577622,15.514094 2.250722,14.773598 5.010091,12.059841 C 6.62574,10.470897 12.08641,9.3974036 15.4001,9.1673886 C 22.447056,8.678217 27.761155,10.732588 29.890917,13.983007 L 28.310298,41.241427 L 16.524557,39.307081 C 6.663326,39.487063 6.767932,44.324762 3.922931,35.337846 z M 22.1641,38.117984 C 24.461047,37.502808 24.60832,36.987328 24.308808,30.611084 C 24.066017,25.442372 24.377813,25.392778 25.581202,24.631976 C 26.892885,23.802713 26.796822,23.615586 25.038804,23.575389 C 23.074312,23.530483 23.05283,23.438937 24.771754,22.437758 C 28.269397,20.400566 26.652145,19.852826 17.139469,19.852826 C 9.294826,19.852826 7.371981,19.813633 5.515559,18.133592 L 3.140745,15.783013 L 3.140745,25.396795 C 3.140745,33.220288 3.48886,33.438839 5.010091,34.764055 C 8.818292,38.081537 16.61117,39.605192 22.1641,38.117984 z M 26.326762,29.995053 C 26.072157,28.673158 25.863838,29.754708 25.863838,32.398499 C 25.863838,35.042289 26.072157,36.123839 26.326762,34.801944 C 26.581377,33.480049 26.581377,31.316948 26.326762,29.995053 z M 25.572903,17.447725 C 30.253607,15.109451 30.249281,13.923003 25.551657,11.625597 C 20.189013,9.0029691 10.036871,9.286314 11.535295,12.269796 C 11.931296,12.910554 11.351478,13.064493 10.071788,12.658343 C 8.053253,10.893336 3.553549,14.240418 5.588564,15.929324 C 10.017612,19.605111 19.770878,20.346152 25.572903,17.447725 z "
       style="fill:#767676;fill-opacity:1"
       sodipodi:nodetypes="ccccccccccccccccccccccccccccc" />
    <path
       inkscape:export-ydpi="40.047569"
       inkscape:export-xdpi="40.047569"
       inkscape:export-filename="/home/adam/dalek-icon.png"
       id="path2233"
       d="M 5.365437,40.677034 C 5.173088,39.942647 4.404002,36.9939 3.733527,34.895905 C 3.063062,32.797913 2.703891,29.494089 2.703891,24.368394 C 2.703891,15.614212 2.313857,14.873716 5.073226,12.159959 C 6.688874,10.571015 11.960141,9.1818488 15.273831,8.9518338 C 22.320787,8.4626622 28.329366,10.075091 30.459128,13.32551 C 32.626977,20.374051 30.926711,26.133031 30.632465,34.190765 C 29.563722,41.852289 26.784541,42.086247 23.53331,40.074437 C 20.76699,38.362682 10.932902,38.500186 10.020896,40.249603 C 9.193896,41.835961 5.782205,42.268222 5.365437,40.677034 z M 23.901067,37.765928 C 26.215894,36.885839 26.6411,36.056991 26.6411,32.424936 C 26.6411,29.099584 26.231895,29.911421 24.834639,29.911421 C 23.259411,29.911421 23.293604,29.710664 25.101688,28.343094 C 27.147789,26.795498 27.146956,26.77376 25.038804,26.698036 C 23.226115,26.632919 23.347505,26.37982 25.839951,25.027641 C 29.583953,22.996496 29.583953,22.225897 25.839951,23.003235 L 22.902408,23.613134 L 25.839951,21.921269 C 29.80397,19.63822 29.602595,17.984746 25.533294,19.403311 C 20.498386,21.158488 8.013393,20.103419 5.355599,17.698148 L 3.140745,15.693727 L 3.140745,25.307509 C 3.140745,35.621025 3.818173,35.319881 9.571895,37.615535 C 13.042694,39.000336 20.449835,39.078079 23.901067,37.765928 z M 28.463158,28.926856 C 28.208553,27.604961 28.000232,28.686511 28.000232,31.330301 C 28.000232,33.974092 28.208553,35.055642 28.463158,33.733747 C 28.717773,32.411852 28.717773,30.248751 28.463158,28.926856 z M 25.572903,17.358439 C 27.629183,16.331207 29.311595,15.010058 29.311595,14.422551 C 29.311595,10.685951 14.549543,8.3336215 11.091073,10.631374 C 10.085954,11.299159 10.958321,12.275665 8.71478,11.736758 C 7.376536,11.415306 4.142832,13.985486 4.883039,15.183171 C 7.297712,19.09018 19.53157,20.376418 25.572903,17.358439 z "
       style="fill:#565656;fill-opacity:1"
       sodipodi:nodetypes="cssssccssccssssscccscccsccssccssssc" />
    <path
       inkscape:export-ydpi="40.047569"
       inkscape:export-xdpi="40.047569"
       inkscape:export-filename="/home/adam/dalek-icon.png"
       id="path2231"
       d="M 5.364014,40.63447 C 5.171665,39.900083 3.96206,37.625245 3.291586,35.52725 C 2.254481,32.282012 1.475894,14.867364 2.380786,14.867364 C 2.55032,14.867364 4.574704,15.828742 6.879437,17.003761 C 12.47547,19.856779 21.579166,19.856779 27.175199,17.003761 C 29.565253,15.383082 30.618532,14.356382 31.298735,15.011557 C 32.613135,16.277593 31.528337,25.809858 31.479792,29.512309 C 31.403142,33.789905 30.707274,35.541127 30.376697,35.621088 C 30.264592,35.648204 30.388089,34.679594 30.331022,34.044911 C 29.932179,29.6091 30.728005,26.626601 28.477569,28.202866 C 27.20606,29.093464 25.431484,29.821388 24.534069,29.82048 C 23.636655,29.819561 24.556191,28.978356 26.57749,27.951134 C 28.598786,26.923901 30.465473,25.410424 30.725697,24.587838 C 31.090839,23.433618 30.6244,23.494569 28.682289,24.854888 C 27.298181,25.824342 25.431484,26.616794 24.534069,26.615886 C 23.636655,26.614968 24.556191,25.773763 26.57749,24.74654 C 28.598786,23.719307 30.465473,22.205831 30.725697,21.383244 C 31.090839,20.229024 30.6244,20.289975 28.682289,21.650293 C 27.298181,22.619747 25.431484,23.412201 24.534069,23.411293 C 23.636655,23.410374 24.58341,22.569167 26.63796,21.541947 C 28.692522,20.514714 30.523124,18.870586 30.705967,17.888314 C 31.005148,16.281093 30.635467,16.307808 27.011594,18.155364 C 21.689191,20.868885 12.394523,20.883711 7.105296,18.18711 L 3.140745,16.165866 L 3.140745,25.200619 C 3.140745,30.169738 3.611286,33.418169 4.186393,34.492765 C 6.538266,38.887279 20.679551,40.742884 27.400749,37.316233 L 29.274516,38.134435 C 28.75109,41.700794 27.777951,42.535415 24.963633,40.777845 C 22.537691,39.262819 10.4101,39.13361 9.498093,40.609261 C 8.557567,42.131059 5.780783,42.225658 5.364014,40.63447 z M 5.922514,38.028789 C 5.567561,37.673838 4.999421,38.178479 5.045802,39.30453 C 5.097054,40.548928 5.665846,40.928306 6.006837,40.076172 C 6.315408,39.305061 6.277465,38.383752 5.922514,38.028789 z "
       style="fill:#2e2e2e;fill-opacity:1"
       sodipodi:nodetypes="cssscscssssssssssssssscccsccssccssc" />
    <path
       inkscape:export-ydpi="40.047569"
       inkscape:export-xdpi="40.047569"
       inkscape:export-filename="/home/adam/dalek-icon.png"
       id="path2229"
       d="M 4.804495,40.677034 C 3.057873,34.927094 3.156692,34.773328 7.255432,36.862979 C 12.25602,39.412437 21.765364,39.429389 26.731107,36.897706 L 30.729965,34.735188 L 30.406671,37.924461 C 29.883245,41.490821 27.192013,42.870236 24.377695,41.112667 C 21.951754,39.597641 10.996037,39.468432 10.084031,40.944083 C 9.14469,42.463968 5.288037,42.268884 4.804495,40.677034 z M 8.304979,38.675849 C 6.229139,37.359979 5.27714,37.53792 5.27714,39.241782 C 5.27714,40.238473 6.026534,40.548102 7.503831,40.161777 C 9.196776,39.719062 9.388816,39.362884 8.304979,38.675849 z M 28.777496,38.683103 C 28.777496,37.566335 28.436741,37.527388 26.19437,38.387874 C 23.741702,39.329052 24.118475,40.845072 26.6411,40.185395 C 27.816119,39.878118 28.777496,39.202088 28.777496,38.683103 z M 2.462685,23.318816 C 2.459908,17.443728 2.637004,14.90399 2.856251,17.674971 C 3.075499,20.445941 3.077774,25.252832 2.861303,28.35695 C 2.644844,31.461059 2.465461,29.193904 2.462685,23.318816 z M 31.304031,23.318816 C 31.301254,17.443728 31.47835,14.90399 31.697598,17.674971 C 31.916846,20.445941 31.73162,25.252832 31.515149,28.35695 C 31.298691,31.461059 31.306808,29.193904 31.304031,23.318816 z "
       style="fill:black;fill-opacity:1"
       sodipodi:nodetypes="cscccssccssccssccssccssc" />
    <g
       transform="translate(0.625011,6.691886e-2)"
       id="g2961">
      <path
         inkscape:export-ydpi="40.047569"
         inkscape:export-xdpi="40.047569"
         inkscape:export-filename="/home/adam/dalek-icon.png"
         id="path6307"
         d="M 4.4633457,11.582359 C 5.1728166,11.088463 6.4482692,10.510274 7.0360631,10.053794 C 7.7632206,9.4890857 7.1869878,8.9516217 6.7109826,8.2249542 C 6.3655904,7.697676 5.8144119,7.3058321 5.2184732,7.3078345 C 4.0629127,7.311718 3.6528788,8.9548044 2.8504109,9.544908 C 2.077139,10.113541 1.5792009,9.8367087 1.1534817,9.1624367 C 0.61032498,8.3021634 1.6435421,7.1868927 2.1602745,7.3616264 C 3.2583985,7.7329599 4.3862454,6.2353901 5.287455,6.219018 C 6.0423138,6.2053053 6.7350621,6.8259961 7.6403766,7.5816348 C 8.5410083,8.3333653 8.3150332,9.309318 9.0254937,9.3075931 C 9.9163384,9.3054292 12.572769,8.8262782 14.270633,8.5903685 C 20.310169,7.7512097 27.026552,9.7609205 28.96625,12.098127 C 29.798855,13.101347 28.619649,13.320221 26.196614,11.559115 C 20.452111,7.3839072 9.6906777,9.4513514 4.7303959,12.117771 C 1.4578527,14.322609 1.4032567,13.712633 4.4633457,11.582359 z "
         style="fill:black;fill-opacity:1"
         sodipodi:nodetypes="csssssssssssscs" />
      <path
         inkscape:export-ydpi="40.047569"
         inkscape:export-xdpi="40.047569"
         inkscape:export-filename="/home/adam/dalek-icon.png"
         transform="matrix(1.068198,0,0,1.068198,-355.3122,-264.3017)"
         d="M 335.13506 255.4435 A 0.48045743 0.48045743 0 1 1  334.17414,255.4435 A 0.48045743 0.48045743 0 1 1  335.13506 255.4435 z"
         sodipodi:ry="0.48045743"
         sodipodi:rx="0.48045743"
         sodipodi:cy="255.4435"
         sodipodi:cx="334.6546"
         id="path6309"
         style="fill:#f11e1e;fill-opacity:1;fill-rule:evenodd;stroke:none;stroke-width:3.86249995;stroke-linejoin:round;stroke-miterlimit:4;stroke-dashoffset:0;stroke-opacity:1"
         sodipodi:type="arc" />
    </g>
  </g>
</svg>
