<?xml version="1.0" encoding="UTF-8" standalone="no"?>
<!-- Created with Inkscape (http://www.inkscape.org/) -->
<svg
   xmlns:dc="http://purl.org/dc/elements/1.1/"
   xmlns:cc="http://web.resource.org/cc/"
   xmlns:rdf="http://www.w3.org/1999/02/22-rdf-syntax-ns#"
   xmlns:svg="http://www.w3.org/2000/svg"
   xmlns="http://www.w3.org/2000/svg"
   xmlns:sodipodi="http://inkscape.sourceforge.net/DTD/sodipodi-0.dtd"
   xmlns:inkscape="http://www.inkscape.org/namespaces/inkscape"
   width="32"
   height="42"
   id="svg6448"
   sodipodi:version="0.32"
   inkscape:version="0.43"
   version="1.0"
   sodipodi:docbase="/home/adam/workspace/Escape-j2se/src/org/spacebar/escape/j2se/resources"
   sodipodi:docname="common-sleep-bot.svg">
  <defs
     id="defs6450" />
  <sodipodi:namedview
     id="base"
     pagecolor="#ffffff"
     bordercolor="#666666"
     borderopacity="1.0"
     inkscape:pageopacity="0.0"
     inkscape:pageshadow="2"
     inkscape:zoom="5.6"
     inkscape:cx="-5.2644508"
     inkscape:cy="13.031864"
     inkscape:document-units="px"
     inkscape:current-layer="layer1"
     inkscape:window-width="792"
     inkscape:window-height="541"
     inkscape:window-x="-234"
     inkscape:window-y="183" />
  <metadata
     id="metadata6453">
    <rdf:RDF>
      <cc:Work
         rdf:about="">
        <dc:format>image/svg+xml</dc:format>
        <dc:type
           rdf:resource="http://purl.org/dc/dcmitype/StillImage" />
      </cc:Work>
    </rdf:RDF>
  </metadata>
  <g
     inkscape:label="Layer 1"
     inkscape:groupmode="layer"
     id="layer1">
    <g
       id="g11680"
       transform="matrix(0.175647,0,0,0.175647,-34.51839,-49.47684)">
      <path
         inkscape:export-ydpi="40.047569"
         inkscape:export-xdpi="40.047569"
         inkscape:export-filename="/home/adam/dalek-icon.png"
         id="path6295"
         d="M 255.97079,517.35615 C 252.62597,516.24038 235.65494,518.42396 226.41178,516.38398 C 212.35274,513.28113 210.19685,510.32072 213.22112,498.27095 C 215.20947,490.34881 362.42998,490.27638 364.39613,498.11009 C 367.50286,510.48826 371.73375,508.72443 351.79572,513.93245 C 329.24199,519.82372 267.46483,519.78015 255.97079,517.35615 z "
         style="fill:#000000;fill-opacity:0.36612022"
         sodipodi:nodetypes="cssssc" />
      <rect
         ry="30.794916"
         style="fill:#cbcbcb;fill-opacity:1;fill-rule:evenodd;stroke:none;stroke-width:1.25;stroke-linejoin:miter;stroke-miterlimit:4;stroke-dashoffset:0;stroke-opacity:1"
         id="rect6297"
         width="11.12962"
         height="74.72744"
         x="214.13905"
         y="383.32947"
         rx="30.794916"
         inkscape:export-filename="/home/adam/dalek-icon.png"
         inkscape:export-xdpi="40.047569"
         inkscape:export-ydpi="40.047569" />
      <path
         inkscape:export-ydpi="40.047569"
         inkscape:export-xdpi="40.047569"
         inkscape:export-filename="/home/adam/dalek-icon.png"
         id="path6299"
         d="M 220.09304,515.16275 C 217.75981,512.82946 215.85076,504.69636 215.85076,497.08919 C 215.85076,489.48202 213.11408,481.56657 209.76926,479.49935 C 206.34762,477.38469 203.68775,448.16221 203.68775,412.68527 C 203.68775,351.1461 204.08992,360.69942 220.41189,347.8399 C 229.61016,340.59287 264.61348,332.76671 291.53502,332.76671 C 327.87645,332.76671 339.94337,335.24838 353.77314,345.56663 C 370.31708,357.90989 370.99182,349.1254 372.68753,407.11327 C 373.65461,440.1865 371.74319,472.74006 368.4399,479.45441 C 365.13655,486.16881 361.57583,497.13571 360.52719,503.82537 C 358.77298,515.01558 341.3259,502.61049 279.55333,504.18213 C 242.62491,505.12172 222.42627,517.49598 220.09304,515.16275 z M 220.31154,402.1209 C 219.02683,387.81702 217.95764,398.00719 217.93556,424.76581 C 217.91349,451.52443 218.96461,463.22768 220.27135,450.77294 C 221.57814,438.31826 221.5962,416.42484 220.31154,402.1209 z "
         style="fill:#888888;fill-opacity:1"
         sodipodi:nodetypes="cccccccccccccccc" />
      <path
         inkscape:export-ydpi="40.047569"
         inkscape:export-xdpi="40.047569"
         inkscape:export-filename="/home/adam/dalek-icon.png"
         id="path6301"
         d="M 219.63625,511.62751 C 218.49889,507.33634 214.4452,494.05269 210.62803,482.10831 C 206.81091,470.16394 203.68775,447.90175 203.68775,418.71995 C 203.68775,368.88032 204.70215,364.6645 220.41189,349.21444 C 229.61016,340.1682 258.90185,331.89991 277.76747,330.59038 C 317.88746,327.80541 353.17405,338.42311 365.29929,356.92852 L 353.06549,514.64047 L 289.20143,505.78442 C 237.60418,507.08441 221.19865,517.52225 219.63625,511.62751 z M 318.07373,496.85797 C 331.15079,493.35563 331.98925,490.42088 330.28406,454.11941 C 328.90179,424.69271 330.67692,425.12201 337.5281,420.79058 C 344.99582,416.06939 344.44891,415.00403 334.4401,414.77518 C 323.25578,414.51952 323.13348,413.99833 332.91972,408.29838 C 352.83263,396.70016 343.62523,393.58175 289.46731,393.58175 C 244.8059,393.58175 233.13981,391.56141 222.57076,381.99654 L 209.76926,370.41134 L 209.76926,425.14488 C 209.76926,469.68588 211.75116,470.21849 220.41189,477.76326 C 242.09288,496.65047 286.45958,505.325 318.07373,496.85797 z M 341.77275,450.6122 C 340.32322,443.08634 339.13721,449.24386 339.13721,464.29559 C 339.13721,479.34731 340.32322,485.50483 341.77275,477.97897 C 343.22233,470.45311 343.22233,458.13806 341.77275,450.6122 z M 337.48085,379.88894 C 364.12921,366.57659 364.10458,359.82186 337.35989,346.74218 C 306.82909,331.81094 242.04482,331.47801 251.65402,347.02592 C 248.8253,354.48635 244.25345,350.27951 236.96787,347.9672 C 221.16259,342.95075 212.11945,361.62898 223.70527,371.24432 C 248.92089,392.17145 304.44855,396.39037 337.48085,379.88894 z "
         style="fill:#767676;fill-opacity:1"
         sodipodi:nodetypes="cccccccccccccccccccccccccccccc" />
      <path
         inkscape:export-ydpi="40.047569"
         inkscape:export-xdpi="40.047569"
         inkscape:export-filename="/home/adam/dalek-icon.png"
         id="path6303"
         d="M 219.55944,511.42725 C 218.46435,507.24621 214.4452,494.05269 210.62803,482.10831 C 206.81091,470.16394 203.68775,447.90175 203.68775,418.71995 C 203.68775,368.88032 204.70215,364.6645 220.41189,349.21444 C 229.61016,340.1682 258.90185,331.89991 277.76747,330.59038 C 317.88746,327.80541 353.17405,338.42311 365.29929,356.92852 C 372.81414,368.39769 374.23345,383.42314 372.02537,428.13473 C 367.44758,520.83121 358.22614,531.11259 330.67625,513.90741 C 316.86479,505.28201 254.4913,504.54639 249.29903,512.94762 C 243.94439,521.61158 221.9322,520.48626 219.55944,511.42725 z M 327.96269,494.85363 C 341.14155,489.84308 343.56235,485.12425 343.56235,464.4461 C 343.56235,445.51408 341.23265,451.35604 333.27774,451.35604 C 324.30959,451.35604 324.50426,450.21308 334.79811,442.42718 C 346.44705,433.61635 346.44231,433.49259 334.4401,433.06148 C 324.12003,432.69075 324.81113,431.2498 339.00122,423.55152 C 360.31671,411.98773 360.31671,407.60053 339.00122,412.0261 L 322.27709,415.4984 L 339.00122,405.86621 C 361.56932,392.86827 360.42284,383.45465 337.25535,391.53088 C 308.59042,401.52352 237.5104,395.51676 222.37895,381.82298 L 209.76926,370.41134 L 209.76926,425.14488 C 209.76926,483.86217 213.62602,480.92771 246.38332,493.99741 C 266.1434,501.88141 308.31401,502.32402 327.96269,494.85363 z M 353.93576,444.5307 C 352.48623,437.00484 351.30021,443.16236 351.30021,458.21408 C 351.30021,473.26581 352.48623,479.42333 353.93576,471.89747 C 355.38534,464.37161 355.38534,452.05656 353.93576,444.5307 z M 337.48085,379.88894 C 349.18774,374.04066 358.76611,366.51905 358.76611,363.17423 C 358.76611,341.90088 275.23057,327.49186 256.30317,342.35265 C 250.89952,346.59532 245.8425,349.55735 243.85269,347.56754 C 238.31207,342.02687 215.47438,360.68592 219.68855,367.50462 C 233.43586,389.74815 303.08611,397.07101 337.48085,379.88894 z "
         style="fill:#565656"
         sodipodi:nodetypes="cssssssssccssssscccscccsccssccssssc" />
      <path
         inkscape:export-ydpi="40.047569"
         inkscape:export-xdpi="40.047569"
         inkscape:export-filename="/home/adam/dalek-icon.png"
         id="path6305"
         d="M 220.9891,511.9038 C 219.89401,507.72276 214.4452,494.05269 210.62803,482.10831 C 204.72355,463.6324 200.29087,366.21498 205.44263,366.21498 C 206.40783,366.21498 217.93313,371.68833 231.05452,378.37799 C 262.91406,394.6209 314.74356,394.6209 346.6031,378.37799 C 359.7245,371.68833 371.2498,366.21498 372.21499,366.21498 C 373.18019,366.21498 373.49175,392.89758 372.90737,425.50965 C 372.323,458.12171 370.79521,473.12995 369.51225,458.86129 C 367.24154,433.60717 366.83007,433.1631 354.0178,442.13715 C 346.7788,447.20754 336.67572,451.35178 331.56652,451.34661 C 326.45733,451.34138 331.69247,446.5522 343.2002,440.70398 C 354.70792,434.8557 365.33541,426.23912 366.81693,421.55594 C 368.89577,414.98469 366.24022,415.3317 355.18332,423.07632 C 347.30327,428.59565 336.67572,433.10727 331.56652,433.1021 C 326.45733,433.09687 331.69247,428.30769 343.2002,422.45947 C 354.70792,416.61119 365.33541,407.99461 366.81693,403.31143 C 368.89577,396.74018 366.24022,397.08719 355.18332,404.8318 C 347.30327,410.35113 336.67572,414.86276 331.56652,414.85759 C 326.45733,414.85236 331.84743,410.06317 343.54447,404.21496 C 355.24158,398.36668 365.66363,389.00627 366.7046,383.41396 C 368.40791,374.26367 366.30323,374.41577 345.67166,384.93434 C 315.36996,400.38306 262.45321,400.46747 232.34039,385.11508 L 209.76926,373.60766 L 209.76926,425.04465 C 209.76926,453.33502 212.44816,470.10081 215.72238,476.21874 C 229.11215,501.23775 309.62184,511.80215 347.88721,492.29341 L 358.55501,496.95163 C 355.57502,517.25576 350.03471,522.00745 334.01213,512.00119 C 320.20067,503.37579 251.15542,502.64017 245.96315,511.0414 C 240.60851,519.70536 223.36186,520.96281 220.9891,511.9038 z M 225.60653,496.35016 C 223.5857,494.32934 222.14834,497.92126 222.4124,504.33214 C 222.70419,511.41679 224.14526,512.8578 226.0866,508.0064 C 227.84337,503.61628 227.62735,498.37105 225.60653,496.35016 z "
         style="fill:#2e2e2e"
         sodipodi:nodetypes="csssssssssssssssssssscccsccssccssc" />
      <path
         inkscape:export-ydpi="40.047569"
         inkscape:export-xdpi="40.047569"
         inkscape:export-filename="/home/adam/dalek-icon.png"
         id="path6307"
         d="M 219.24138,511.42725 C 209.29745,478.69148 209.86005,477.81605 233.19515,489.71293 C 261.66468,504.2276 315.80363,504.32411 344.07478,489.91064 L 365.40347,479.03667 L 362.844,496.47508 C 359.86401,516.77921 346.69883,523.91367 330.67625,513.90741 C 316.86479,505.28201 254.4913,504.54639 249.29903,512.94762 C 243.95114,521.60069 221.9943,520.49003 219.24138,511.42725 z M 239.17047,500.03403 C 227.35222,492.54247 221.93226,493.55553 221.93226,503.25602 C 221.93226,508.93042 226.19874,510.69321 234.60934,508.49377 C 244.24768,505.97329 245.34101,503.94548 239.17047,500.03403 z M 355.72536,500.07533 C 355.72536,493.7173 353.78536,493.49557 341.01901,498.39452 C 327.05539,503.75287 329.20045,512.38393 343.56235,508.62823 C 350.25201,506.87883 355.72536,503.03003 355.72536,500.07533 z M 205.9089,423.98927 C 205.89309,390.541 206.90134,376.08167 208.14957,391.85752 C 209.3978,407.63331 209.41075,435.00008 208.17833,452.67256 C 206.94598,470.34499 205.92471,457.43754 205.9089,423.98927 z M 370.10952,423.98927 C 370.09371,390.541 371.10196,376.08167 372.35019,391.85752 C 373.59842,407.63331 373.61137,435.00008 372.37895,452.67256 C 371.1466,470.34499 370.12533,457.43754 370.10952,423.98927 z M 221.93226,347.62449 C 226.71679,346.23585 230.43711,344.06248 233.78356,341.46363 C 240.92738,335.91575 234.30002,323.26149 226.23138,323.28861 C 219.6525,323.31072 217.31808,332.6652 212.74944,336.0248 C 208.34702,339.26216 205.51214,337.68609 203.08842,333.8473 C 199.9961,328.94956 205.87845,322.60006 208.82033,323.59486 C 215.07221,325.70895 221.49331,317.18293 226.62411,317.08972 C 235.19707,316.93398 247.41984,334.18508 255.53052,334.16538 C 260.60231,334.15306 268.10113,331.93347 277.76747,330.59038 C 312.15198,325.81285 350.38994,337.25461 361.4331,350.56088 C 366.17332,356.27245 359.45982,357.51855 345.66491,347.49216 C 312.96009,323.72171 251.6927,335.49216 223.45264,350.67272 L 206.7285,360.85535 L 221.93226,347.62449 z "
         style="fill:#000000;fill-opacity:1"
         sodipodi:nodetypes="cscccssccssccssccssccssccssssssssssccc" />
      <path
         inkscape:export-ydpi="40.047569"
         inkscape:export-xdpi="40.047569"
         inkscape:export-filename="/home/adam/dalek-icon.png"
         transform="matrix(6.081504,0,0,6.081504,-1826.355,-1223.049)"
         d="M 335.13506 255.4435 A 0.48045743 0.48045743 0 1 1  334.17414,255.4435 A 0.48045743 0.48045743 0 1 1  335.13506 255.4435 z"
         sodipodi:ry="0.48045743"
         sodipodi:rx="0.48045743"
         sodipodi:cy="255.4435"
         sodipodi:cx="334.6546"
         id="path6309"
         style="fill:#f11e1e;fill-opacity:1;fill-rule:evenodd;stroke:none;stroke-width:3.86249995;stroke-linejoin:round;stroke-miterlimit:4;stroke-dashoffset:0;stroke-opacity:1"
         sodipodi:type="arc" />
    </g>
  </g>
</svg>
