<?xml version="1.0" encoding="UTF-8" standalone="no"?>
<!-- Created with Inkscape (http://www.inkscape.org/) -->
<svg
   xmlns:dc="http://purl.org/dc/elements/1.1/"
   xmlns:cc="http://web.resource.org/cc/"
   xmlns:rdf="http://www.w3.org/1999/02/22-rdf-syntax-ns#"
   xmlns:svg="http://www.w3.org/2000/svg"
   xmlns="http://www.w3.org/2000/svg"
   xmlns:sodipodi="http://sodipodi.sourceforge.net/DTD/sodipodi-0.dtd"
   xmlns:inkscape="http://www.inkscape.org/namespaces/inkscape"
   width="32"
   height="42"
   id="svg13968"
   sodipodi:version="0.32"
   inkscape:version="0.44.1"
   version="1.0"
   sodipodi:docbase="/home/adam/workspace/Escape-j2se/src/org/spacebar/escape/j2se/resources"
   sodipodi:docname="common-bot.svg">
  <defs
     id="defs13970" />
  <sodipodi:namedview
     id="base"
     pagecolor="#ffffff"
     bordercolor="#666666"
     borderopacity="1.0"
     inkscape:pageopacity="0.0"
     inkscape:pageshadow="2"
     inkscape:zoom="16.000001"
     inkscape:cx="23.563625"
     inkscape:cy="30.719125"
     inkscape:document-units="px"
     inkscape:current-layer="layer1"
     inkscape:window-width="993"
     inkscape:window-height="942"
     inkscape:window-x="0"
     inkscape:window-y="25" />
  <metadata
     id="metadata13973">
    <rdf:RDF>
      <cc:Work
         rdf:about="">
        <dc:format>image/svg+xml</dc:format>
        <dc:type
           rdf:resource="http://purl.org/dc/dcmitype/StillImage" />
      </cc:Work>
    </rdf:RDF>
  </metadata>
  <g
     inkscape:label="Layer 1"
     inkscape:groupmode="layer"
     id="layer1">
    <path
       sodipodi:nodetypes="csssss"
       style="fill:black;fill-opacity:0.36612022"
       d="M 10.273791,41.656556 C 9.6607061,41.574007 6.9579113,42.159786 5.334378,41.80147 C 2.8649498,41.256464 2.2337361,40.420804 2.7649401,38.304298 C 3.1141878,36.912797 29.353691,37.239124 29.444646,38.65485 C 29.591653,40.943015 31.001538,41.204842 27.547095,41.623404 C 23.532688,42.109815 12.328835,41.933259 10.273791,41.656556 z "
       id="path2241"
       inkscape:export-filename="/home/adam/dalek-icon.png"
       inkscape:export-xdpi="40.047569"
       inkscape:export-ydpi="40.047569" />
    <rect
       inkscape:export-ydpi="40.047569"
       inkscape:export-xdpi="40.047569"
       inkscape:export-filename="/home/adam/dalek-icon.png"
       rx="5.4090347"
       y="18.115171"
       x="2.9261723"
       height="13.12565"
       width="1.9548843"
       id="rect8116"
       style="fill:#cbcbcb;fill-opacity:1;fill-rule:evenodd;stroke:none;stroke-width:1.25;stroke-linejoin:miter;stroke-miterlimit:4;stroke-dashoffset:0;stroke-opacity:1"
       ry="5.4090347" />
    <path
       sodipodi:nodetypes="cccccscccccc"
       style="fill:#888;fill-opacity:1"
       d="M 3.1056492,35.007122 C 2.5046484,34.635689 1.8436049,28.675754 1.8436049,22.444336 C 1.8436049,11.635165 1.1610722,12.140272 4.0279772,9.8815356 C 5.6436258,8.6086165 11.791854,7.233975 16.520542,7.233975 C 22.903805,7.233975 25.023323,7.6698729 27.452481,9.4822426 C 29.493951,12.4468 28.292231,27.514836 28.251666,32.375448 C 28.185018,40.361408 26.545659,39.058778 15.741819,39.342579 C 5.4968393,39.781801 8.153449,40.506334 3.1056492,35.007122 z M 4.0103511,21.41583 C 3.7846956,18.903396 3.5968956,20.693269 3.5930173,25.39334 C 3.5891408,30.093412 3.7737669,32.149052 4.0032918,29.961415 C 4.2328256,27.773787 4.2359977,23.928274 4.0103511,21.41583 z "
       id="path2239"
       inkscape:export-filename="/home/adam/dalek-icon.png"
       inkscape:export-xdpi="40.047569"
       inkscape:export-ydpi="40.047569" />
    <path
       sodipodi:nodetypes="ccccccccccccccccccccccccccccc"
       style="fill:#767676;fill-opacity:1"
       d="M 2.9408169,35.275974 C 2.2703512,33.177982 1.5955085,27.457099 1.5955085,22.331404 C 1.5955085,13.577222 1.2686085,12.836726 4.0279772,10.122969 C 5.6436258,8.5340245 11.104296,7.4605314 14.417986,7.2305164 C 21.464942,6.7413448 26.779041,8.7957155 28.908803,12.046135 L 27.328184,41.179555 L 15.542443,39.245209 C 5.6812116,39.425191 5.7858181,44.26289 2.9408169,35.275974 z M 21.181986,38.056112 C 23.478933,37.440936 23.626206,36.925456 23.326694,30.549212 C 23.083903,25.3805 23.395699,23.455906 24.599088,22.695104 C 25.910771,21.865841 25.814708,21.678714 24.05669,21.638517 C 22.092198,21.593611 22.070716,21.502065 23.78964,20.500886 C 27.287283,18.463694 25.670031,17.915954 16.157355,17.915954 C 8.3127119,17.915954 6.3898673,17.876761 4.5334454,16.19672 L 2.1586312,13.846141 L 2.1586312,23.459923 C 2.1586312,31.283416 2.506746,33.376967 4.0279772,34.702183 C 7.8361781,38.019665 15.629056,39.54332 21.181986,38.056112 z M 25.344648,29.933181 C 25.090043,28.611286 24.881724,29.692836 24.881724,32.336627 C 24.881724,34.980417 25.090043,36.061967 25.344648,34.740072 C 25.599263,33.418177 25.599263,31.255076 25.344648,29.933181 z M 24.590789,15.510853 C 29.271493,13.172579 29.267167,11.986131 24.569543,9.6887244 C 19.206899,7.0660969 9.0547573,7.3494418 10.553181,10.332924 C 10.949182,10.973682 10.369364,11.127621 9.0896741,10.721471 C 7.0711388,8.9564643 2.571435,12.303546 4.6064496,13.992452 C 9.0354976,17.668239 18.788764,18.40928 24.590789,15.510853 z "
       id="path2237"
       inkscape:export-filename="/home/adam/dalek-icon.png"
       inkscape:export-xdpi="40.047569"
       inkscape:export-ydpi="40.047569" />
    <path
       sodipodi:nodetypes="cssssccssccssssscccscccsccssccssssc"
       style="fill:#565656;fill-opacity:1"
       d="M 4.3833233,40.615162 C 4.190974,39.880775 3.4218877,36.932028 2.7514133,34.834033 C 2.0809476,32.736041 1.7217775,27.646503 1.7217775,22.520808 C 1.7217775,13.766626 1.331743,13.02613 4.0911117,10.312373 C 5.7067603,8.7234281 10.978027,7.3342623 14.291717,7.1042473 C 21.338673,6.6150757 27.347252,8.2275047 29.477014,11.477924 C 31.644863,18.526465 29.944597,26.071159 29.650351,34.128893 C 28.581608,41.790417 25.802427,42.024375 22.551196,40.012565 C 19.784876,38.30081 9.9507885,38.438314 9.0387822,40.187731 C 8.2117821,41.774089 4.8000914,42.20635 4.3833233,40.615162 z M 22.918953,37.704056 C 25.23378,36.823967 25.658986,35.995119 25.658986,32.363064 C 25.658986,29.037712 25.249781,28.063835 23.852525,28.063835 C 22.277297,28.063835 22.31149,27.863078 24.119574,26.495508 C 26.165675,24.947912 26.164842,24.926174 24.05669,24.85045 C 22.244001,24.785333 22.365391,24.532234 24.857837,23.180055 C 28.601839,21.14891 28.601839,20.378311 24.857837,21.155649 L 21.920294,21.765548 L 24.857837,20.073683 C 28.821856,17.790634 28.620481,16.13716 24.55118,17.555725 C 19.516272,19.310902 7.0312792,18.255833 4.3734854,15.850562 L 2.1586312,13.846141 L 2.1586312,23.459923 C 2.1586312,33.773439 2.8360595,35.258009 8.589781,37.553663 C 12.06058,38.938464 19.467721,39.016207 22.918953,37.704056 z M 27.481044,28.864984 C 27.226439,27.543089 27.018118,28.624639 27.018118,31.268429 C 27.018118,33.91222 27.226439,34.99377 27.481044,33.671875 C 27.735659,32.34998 27.735659,30.186879 27.481044,28.864984 z M 24.590789,15.510853 C 26.647069,14.483621 28.329481,13.162472 28.329481,12.574965 C 28.329481,8.8383646 13.567429,6.486035 10.108959,8.7837875 C 9.1038401,9.4515728 9.9762067,10.428079 7.7326658,9.889171 C 6.3944218,9.5677194 3.1607184,12.1379 3.9009247,13.335585 C 6.3155985,17.242594 18.549456,18.528832 24.590789,15.510853 z "
       id="path2233"
       inkscape:export-filename="/home/adam/dalek-icon.png"
       inkscape:export-xdpi="40.047569"
       inkscape:export-ydpi="40.047569" />
    <path
       sodipodi:nodetypes="cssscscssssssssssssssscccsccssccssc"
       style="fill:#2e2e2e;fill-opacity:1"
       d="M 4.3819005,40.572598 C 4.1895513,39.838211 2.979946,37.563373 2.3094716,35.465378 C 1.2723674,32.22014 0.49378044,13.109063 1.3986716,13.109063 C 1.5682061,13.109063 3.5925905,14.070441 5.8973233,15.24546 C 11.493356,18.098478 20.597052,18.098478 26.193085,15.24546 C 28.583139,13.624781 29.636418,12.598081 30.316621,13.253256 C 31.631021,14.519292 30.546223,24.051557 30.497678,27.754008 C 30.421028,32.031604 29.72516,35.479255 29.394583,35.559216 C 29.282478,35.586332 29.405975,34.617722 29.348908,33.983039 C 28.950065,29.547228 29.745891,24.8683 27.495455,26.444565 C 26.223946,27.335163 24.44937,28.063087 23.551955,28.062179 C 22.654541,28.06126 23.574077,27.220055 25.595376,26.192833 C 27.616672,25.1656 29.483359,23.652123 29.743583,22.829537 C 30.108725,21.675317 29.642286,21.736268 27.700175,23.096587 C 26.316067,24.066041 24.44937,24.858493 23.551955,24.857585 C 22.654541,24.856667 23.574077,24.015462 25.595376,22.988239 C 27.616672,21.961006 29.483359,20.44753 29.743583,19.624943 C 30.108725,18.470723 29.642286,18.531674 27.700175,19.891992 C 26.316067,20.861446 24.44937,21.6539 23.551955,21.652992 C 22.654541,21.652073 23.601296,20.810866 25.655846,19.783646 C 27.710408,18.756413 29.54101,17.112285 29.723853,16.130013 C 30.023034,14.522792 29.653353,14.549507 26.02948,16.397063 C 20.707077,19.110584 11.412409,19.12541 6.1231825,16.428809 L 2.1586312,14.407565 L 2.1586312,23.442318 C 2.1586312,28.411437 2.629172,33.356297 3.2042789,34.430893 C 5.5561518,38.825407 19.697437,40.681012 26.418635,37.254361 L 28.292402,38.072563 C 27.768976,41.638922 26.795837,42.473543 23.981519,40.715973 C 21.555577,39.200947 9.4279861,39.071738 8.5159794,40.547389 C 7.575453,42.069187 4.7986687,42.163786 4.3819005,40.572598 z M 4.9404002,37.966917 C 4.5854474,37.611966 4.0173068,38.116607 4.0636881,39.242658 C 4.1149402,40.487056 4.6837325,40.866434 5.024723,40.0143 C 5.3332944,39.243189 5.2953511,38.32188 4.9404002,37.966917 z "
       id="path2231"
       inkscape:export-filename="/home/adam/dalek-icon.png"
       inkscape:export-xdpi="40.047569"
       inkscape:export-ydpi="40.047569" />
    <path
       sodipodi:nodetypes="cscccssccssccssccssccssccszzzsssssss"
       style="fill:black;fill-opacity:1"
       d="M 3.8223807,40.615162 C 2.0757592,34.865222 2.1745782,34.711456 6.2733185,36.801107 C 11.273906,39.350565 20.78325,39.367517 25.748993,36.835834 L 29.747851,34.673316 L 29.424557,37.862589 C 28.901131,41.428949 26.209899,42.808364 23.395581,41.050795 C 20.96964,39.535769 10.013923,39.40656 9.1019167,40.882211 C 8.1625759,42.402096 4.3059228,42.207012 3.8223807,40.615162 z M 7.3228655,38.613977 C 5.2470254,37.298107 4.2950257,37.476048 4.2950257,39.17991 C 4.2950257,40.176601 5.0444201,40.48623 6.5217167,40.099905 C 8.2146622,39.65719 8.4067024,39.301012 7.3228655,38.613977 z M 27.795382,38.621231 C 27.795382,37.504463 27.454627,37.465516 25.212256,38.326002 C 22.759588,39.26718 23.136361,40.7832 25.658986,40.123523 C 26.834005,39.816246 27.795382,39.140216 27.795382,38.621231 z M 1.4805706,23.256944 C 1.4777936,17.381856 1.6548897,14.842118 1.8741375,17.613099 C 2.0933854,20.384069 2.09566,25.19096 1.8791891,28.295078 C 1.6627305,31.399187 1.4833475,29.132032 1.4805706,23.256944 z M 30.321917,23.256944 C 30.31914,17.381856 30.496236,14.842118 30.715484,17.613099 C 30.934732,20.384069 30.749506,25.19096 30.533035,28.295078 C 30.316577,31.399187 30.324694,29.132032 30.321917,23.256944 z M 6.376671,8.7615629 C 7.7557081,8.4118256 7.9780815,7.0989341 7.9780815,6.4229584 C 7.9780815,5.8238177 7.4313311,4.7948389 7.4313311,4.225372 C 7.4313311,3.6716448 7.9163258,3.1976368 8.4043628,3.1976368 C 8.9080727,3.1976368 9.4383352,3.5682063 9.4383352,4.1386059 C 9.4383352,4.710156 8.9075633,5.7517567 8.9075633,6.4236627 C 8.9075633,6.9726457 9.2124672,7.4820378 10.196459,7.4796472 C 11.087304,7.4774832 12.404449,7.0876189 14.102313,6.8517092 C 20.141849,6.0125504 26.858232,8.0222612 28.79793,10.359468 C 29.630535,11.362688 28.451329,11.581561 26.028294,9.8204561 C 20.283791,5.6452479 8.7078376,7.2997211 4.5620759,10.379112 C 1.4996702,12.653807 1.7424065,9.9368577 6.376671,8.7615629 z "
       id="path2229"
       inkscape:export-filename="/home/adam/dalek-icon.png"
       inkscape:export-xdpi="40.047569"
       inkscape:export-ydpi="40.047569" />
    <path
       sodipodi:type="arc"
       style="fill:#f11e1e;fill-opacity:1;fill-rule:evenodd;stroke:none;stroke-width:3.86249995;stroke-linejoin:round;stroke-miterlimit:4;stroke-dashoffset:0;stroke-opacity:1"
       id="path2406"
       sodipodi:cx="334.6546"
       sodipodi:cy="255.4435"
       sodipodi:rx="0.48045743"
       sodipodi:ry="0.48045743"
       d="M 335.13506 255.4435 A 0.48045743 0.48045743 0 1 1  334.17414,255.4435 A 0.48045743 0.48045743 0 1 1  335.13506 255.4435 z"
       transform="matrix(1.068198,0,0,1.068198,-349.0472,-268.6569)"
       inkscape:export-filename="/home/adam/dalek-icon.png"
       inkscape:export-xdpi="40.047569"
       inkscape:export-ydpi="40.047569" />
  </g>
</svg>
