<?xml version="1.0" encoding="UTF-8" standalone="no"?>
<!-- Created with Inkscape (http://www.inkscape.org/) -->
<svg
   xmlns:dc="http://purl.org/dc/elements/1.1/"
   xmlns:cc="http://web.resource.org/cc/"
   xmlns:rdf="http://www.w3.org/1999/02/22-rdf-syntax-ns#"
   xmlns:svg="http://www.w3.org/2000/svg"
   xmlns="http://www.w3.org/2000/svg"
   xmlns:sodipodi="http://inkscape.sourceforge.net/DTD/sodipodi-0.dtd"
   xmlns:inkscape="http://www.inkscape.org/namespaces/inkscape"
   width="32px"
   height="32px"
   id="svg8437"
   sodipodi:version="0.32"
   inkscape:version="0.43"
   sodipodi:docbase="/home/adam/workspace/Escape-j2se/src/org/spacebar/escape/j2se/resources"
   sodipodi:docname="door-open.svg">
  <defs
     id="defs8439" />
  <sodipodi:namedview
     id="base"
     pagecolor="#ffffff"
     bordercolor="#666666"
     borderopacity="1.0"
     inkscape:pageopacity="0.0"
     inkscape:pageshadow="2"
     inkscape:zoom="11.313709"
     inkscape:cx="11.822707"
     inkscape:cy="24.893806"
     inkscape:current-layer="layer1"
     showgrid="true"
     inkscape:grid-bbox="true"
     inkscape:document-units="px"
     inkscape:window-width="792"
     inkscape:window-height="541"
     inkscape:window-x="124"
     inkscape:window-y="204" />
  <metadata
     id="metadata8442">
    <rdf:RDF>
      <cc:Work
         rdf:about="">
        <dc:format>image/svg+xml</dc:format>
        <dc:type
           rdf:resource="http://purl.org/dc/dcmitype/StillImage" />
      </cc:Work>
    </rdf:RDF>
  </metadata>
  <g
     id="layer1"
     inkscape:label="Layer 1"
     inkscape:groupmode="layer">
    <path
       id="path8415"
       d="M 0.19671937,20.750002 C 0.89060937,3.3401816 3.4344994,1.78e-06 15.999999,1.78e-06 C 28.565499,1.78e-06 31.109389,3.3401816 31.803279,20.750002 L 31.876019,32.000002 L 15.999999,32.000002 L 0.09207937,32.000002 L 0.19671937,20.750002 z "
       style="fill:#82522e"
       sodipodi:nodetypes="csccccc" />
    <path
       id="path8413"
       d="M 0.19671937,20.750002 C 0.89060937,3.3401816 3.4344994,1.78e-06 15.999999,1.78e-06 L 24.125834,16.000002 L 31.689169,32.000002 L 0.12332937,32.000002 L 0.19671937,20.750002 z M 1.6622794,27.750002 C 1.3848694,27.062502 1.1578894,27.625002 1.1578894,29.000002 C 1.1578894,30.375002 1.3848694,30.937502 1.6622794,30.250002 C 1.9396894,29.562502 1.9396894,28.437502 1.6622794,27.750002 z M 4.9999994,28.940992 C 4.9999994,28.423452 4.5499994,28.000002 3.9999994,28.000002 C 3.4499994,28.000002 2.9999994,28.701562 2.9999994,29.559022 C 2.9999994,30.416482 3.4499994,30.839922 3.9999994,30.500002 C 4.5499994,30.160082 4.9999994,29.458532 4.9999994,28.940992 z M 4.5615394,12.500002 C 4.2677094,11.400002 4.0211594,9.6859416 4.0136494,8.6909916 C 4.0061394,7.6960316 3.6091094,7.1235516 3.1313494,7.4188216 C 1.9634694,8.1406216 0.78381937,15.841202 1.6311194,17.212172 C 2.6700294,18.893152 5.1877994,14.844522 4.5615394,12.500002 z M 2.0306294,16.000002 C 2.0306294,15.175002 2.4668394,13.825002 2.9999994,13.000002 C 3.8616694,11.666672 3.9693694,11.666672 3.9693694,13.000002 C 3.9693694,13.825002 3.5331594,15.175002 2.9999994,16.000002 C 2.1383294,17.333342 2.0306294,17.333342 2.0306294,16.000002 z "
       style="fill:#6d4826"
       sodipodi:nodetypes="cscccccssccsssccsssccsssc" />
    <path
       id="path8411"
       d="M 0.19671937,20.750002 C 0.89060937,3.3401816 3.4344994,1.78e-06 15.999999,1.78e-06 L 24.125834,16.000002 L 31.720419,32.000002 L 0.10770437,32.000002 L 0.19671937,20.750002 z M 4.7504694,29.250002 C 4.9793794,28.562502 4.4541694,28.000002 3.5833294,28.000002 C 1.3703694,28.000002 1.2936694,18.208282 3.4999994,17.361632 C 4.5865594,16.944682 4.9999994,15.240502 4.9999994,11.178732 C 4.9999994,5.9360216 4.8911794,5.6802516 3.3264494,7.2449916 C 2.0279194,8.5435116 1.5500394,11.414852 1.1939194,20.058122 C 0.76860937,30.380732 0.86693937,31.172112 2.5346094,30.848852 C 3.5244194,30.656982 4.5215594,29.937502 4.7504694,29.250002 z "
       style="fill:#5b3920"
       sodipodi:nodetypes="cscccccssssssc" />
    <path
       id="path8409"
       d="M 0.19671937,20.750002 C 0.89060937,3.3401816 3.4344994,1.78e-06 15.999999,1.78e-06 L 24.125834,16.000002 L 31.677145,32.000002 L 0.10770437,32.000002 L 0.19671937,20.750002 z M 5.0657394,29.964822 C 6.6701494,29.106172 6.9684494,27.955072 6.8150194,23.214822 L 6.6300394,17.500002 L 6.2604994,22.815162 C 6.0137094,26.364862 5.4938794,27.999972 4.6954794,27.737862 C 2.9073494,27.150842 2.6161794,20.093742 4.2999694,18.151912 C 5.0877794,17.243362 6.0218094,13.581002 6.3755894,10.013332 L 7.0188094,3.5266516 L 4.3364094,6.2090516 C 1.8212794,8.7241716 1.6255994,9.5808016 1.1985494,19.945732 C 0.72087937,31.539222 0.96108937,32.161562 5.0657394,29.964822 z "
       style="fill:#473019"
       sodipodi:nodetypes="csccccccccsscccsc" />
    <path
       id="path8406"
       d="M 0.19671937,20.750002 C 0.89060937,3.3401816 3.4344994,1.78e-06 15.999999,1.78e-06 C 28.565499,1.78e-06 31.109389,3.3401816 31.803279,20.750002 L 31.872878,32.000002 L 0.12397985,32.000002 L 0.19671937,20.750002 z M 5.7499994,29.250002 C 7.2599994,27.740002 7.4570294,25.866102 7.1866894,15.586042 L 6.8733894,3.6720716 L 4.2636994,6.2817616 C 1.8363694,8.7090916 1.6221794,9.6639316 1.1985494,19.945732 C 0.79751937,29.679082 0.93768937,31.000002 2.3715494,31.000002 C 3.2671994,31.000002 4.7874994,30.212502 5.7499994,29.250002 z M 3.6666694,27.333342 C 2.5861594,26.252832 2.9049994,19.176752 4.0665294,18.458882 C 5.4411294,17.609342 6.7598794,18.883962 5.4586094,19.804382 C 4.2115894,20.686422 3.9089894,26.000002 5.1057894,26.000002 C 5.5975994,26.000002 5.9999994,26.450002 5.9999994,27.000002 C 5.9999994,28.137882 4.6623094,28.328982 3.6666694,27.333342 z "
       style="fill:#382b15"
       sodipodi:nodetypes="csccccccccssccssssc" />
    <path
       id="path8404"
       d="M 6.9999994,28.903882 C 8.6784294,27.526462 9.0892094,26.684812 8.2499994,26.342782 C 6.4912194,25.625982 6.6776494,18.179502 8.4999994,16.357152 C 10.176829,14.680322 10.552429,12.540552 9.0017194,13.498942 C 8.3783694,13.884192 8.0966894,12.310122 8.2517194,9.3079616 C 8.4883394,4.7258916 8.3825494,4.5111016 5.9999994,4.7361216 L 3.4999994,4.9722416 L 5.8607794,2.9861216 C 7.7540094,1.3933616 9.6980293,1.0000016 15.676529,1.0000016 C 19.776749,1.0000016 23.997239,1.4633416 25.055389,2.0296516 C 28.769099,4.0171616 30.320139,8.9362216 30.800489,20.250002 L 31.256899,31.000002 L 17.878449,30.977772 L 4.4999994,30.955532 L 6.9999994,28.903882 z M 3.6666694,27.333342 C 2.5861594,26.252832 2.9049994,19.176752 4.0665294,18.458882 C 5.4411294,17.609342 6.7598794,18.883962 5.4586094,19.804382 C 4.2115894,20.686422 3.9089894,26.000002 5.1057894,26.000002 C 5.5975994,26.000002 5.9999994,26.450002 5.9999994,27.000002 C 5.9999994,28.137882 4.6623094,28.328982 3.6666694,27.333342 z "
       style="fill:#271a0d" />
    <path
       id="path8402"
       d="M 9.1479294,26.435932 C 12.140999,22.001042 12.242329,21.517232 11.607909,14.691082 C 11.111169,9.3464016 10.398579,6.9887216 8.7493194,5.2331716 C 5.7670894,2.0587316 7.5331894,1.0352416 16.027489,1.0153216 C 27.360629,0.98873158 30.326209,5.0002516 30.431849,20.500002 L 30.499999,30.500002 L 18.263129,30.780682 L 6.0262594,31.061352 L 9.1479294,26.435932 z M 3.6666694,27.333342 C 2.6554994,26.322172 2.8696194,19.198622 3.9308994,18.542712 C 4.4428994,18.226282 5.1444594,18.424722 5.4899194,18.983692 C 5.8353794,19.542662 5.6503394,20.000002 5.0787194,20.000002 C 4.7736844,20.000002 3.7314964,21.004732 4.4381184,21.119502 C 5.9837014,21.370542 5.1789324,22.588192 4.4246894,24.000002 C 2.4515644,27.693352 4.7659894,28.432662 3.6666694,27.333342 z M 7.2273794,21.704182 C 7.2254194,20.548032 7.5761394,18.444682 7.7111294,18.803012 C 8.0776494,19.775922 8.5683394,19.649262 9.6481193,18.303012 C 10.958609,16.669102 11.899239,17.127022 10.425199,19.943352 C 9.9103433,20.927042 9.7564383,22.756722 10.245228,23.452702 C 10.571705,23.917562 8.7779364,23.851982 8.4953294,24.647532 C 8.2552144,25.323472 7.2636834,25.250422 7.4830884,24.824742 C 7.8542644,24.104612 9.0267354,22.497232 7.2273794,21.704182 z "
       style="fill:#1a1008"
       sodipodi:nodetypes="csssccccccsssssccssssssc" />
  </g>
</svg>
