<?xml version="1.0" encoding="UTF-8" standalone="no"?>
<!-- Created with Inkscape (http://www.inkscape.org/) -->
<svg
   xmlns:dc="http://purl.org/dc/elements/1.1/"
   xmlns:cc="http://web.resource.org/cc/"
   xmlns:rdf="http://www.w3.org/1999/02/22-rdf-syntax-ns#"
   xmlns:svg="http://www.w3.org/2000/svg"
   xmlns="http://www.w3.org/2000/svg"
   xmlns:sodipodi="http://inkscape.sourceforge.net/DTD/sodipodi-0.dtd"
   xmlns:inkscape="http://www.inkscape.org/namespaces/inkscape"
   width="6"
   height="5"
   id="svg2792"
   sodipodi:version="0.32"
   inkscape:version="0.43"
   version="1.0"
   sodipodi:docbase="/home/adam/workspace/Escape-j2se/src/org/spacebar/escape/j2se/resources"
   sodipodi:docname="rough-pieces.svg">
  <defs
     id="defs2794" />
  <sodipodi:namedview
     id="base"
     pagecolor="#ffffff"
     bordercolor="#666666"
     borderopacity="1.0"
     inkscape:pageopacity="0.0"
     inkscape:pageshadow="2"
     inkscape:zoom="45.254834"
     inkscape:cx="5.612006"
     inkscape:cy="1.7164211"
     inkscape:document-units="px"
     inkscape:current-layer="layer1"
     showgrid="true"
     gridspacingx="8px"
     gridspacingy="8px"
     inkscape:window-width="792"
     inkscape:window-height="541"
     inkscape:window-x="476"
     inkscape:window-y="240" />
  <metadata
     id="metadata2797">
    <rdf:RDF>
      <cc:Work
         rdf:about="">
        <dc:format>image/svg+xml</dc:format>
        <dc:type
           rdf:resource="http://purl.org/dc/dcmitype/StillImage" />
      </cc:Work>
    </rdf:RDF>
  </metadata>
  <g
     inkscape:label="Layer 1"
     inkscape:groupmode="layer"
     id="layer1">
    <path
       style="fill:#cbcbcb;fill-opacity:1"
       d="M 2.6875893,0.83593752 C 2.6835613,0.83642752 2.6760093,0.84315501 2.6719643,0.84375001 C 2.5583163,0.86044501 2.4353343,0.92024001 2.3204013,1.015625 C 1.9928013,1.28751 1.8915743,1.6744825 2.0235263,1.875 C 2.0252213,1.8774275 2.0295713,1.880445 2.0313393,1.8828125 C 2.0865663,1.95203 2.1774663,2 2.2969643,2 C 2.4863843,2.0000025 2.7820413,2.16875 2.9532143,2.375 C 3.2039743,2.677155 3.6391063,2.8143475 3.8438393,2.71875 C 3.8501543,2.7155775 3.8614313,2.70676 3.8672763,2.703125 C 3.8722493,2.69981 3.8847593,2.691855 3.8907143,2.6875 C 3.8915493,2.686765 3.8969843,2.681265 3.8985263,2.6796875 C 3.9008513,2.6773225 3.9100813,2.6681925 3.9141513,2.6640625 C 3.9162013,2.66146 3.9198393,2.651625 3.9219643,2.6484375 C 3.9230193,2.6467575 3.9287493,2.642355 3.9297763,2.640625 C 3.9317363,2.6371425 3.9359263,2.628295 3.9375893,2.625 C 3.9416493,2.615505 3.9429713,2.597585 3.9454013,2.5859375 C 3.9464863,2.579995 3.9525063,2.568695 3.9532143,2.5625 C 3.9541893,2.5520925 3.9532143,2.5416375 3.9532143,2.53125 C 3.9531743,2.53028 3.9531963,2.524605 3.9532143,2.5234375 C 3.9533793,2.5195075 3.9531263,2.5120975 3.9532143,2.5078125 C 3.9531893,2.50645 3.9533143,2.5012475 3.9532143,2.5 C 3.9514863,2.492005 3.9481413,2.477405 3.9454013,2.46875 C 3.9013943,2.338835 3.7505263,2.143005 3.5782143,2 C 3.3719563,1.82883 3.2032143,1.540675 3.2032143,1.359375 C 3.2032113,1.2185775 3.1650163,1.10226 3.1016513,1.015625 C 3.0972663,1.00987 3.0910093,0.99799253 3.0860263,0.99218753 C 3.0654593,0.96903253 3.0377713,0.94674503 3.0157143,0.92968751 C 2.9245843,0.86212751 2.8124043,0.82078251 2.6875893,0.83593752 z M 1.6172763,3.1953125 C 1.4422763,3.2477175 1.1787963,3.4664475 0.80477629,3.8515625 C 0.29499429,4.3764725 0.037256293,4.6705775 8.9293097e-05,4.828125 C -7.3706903e-05,4.82973 0.0001512931,4.8342325 8.9293097e-05,4.8359375 C 0.0001612931,4.844725 -3.8706903e-05,4.860825 8.9293097e-05,4.8671875 C -7.8706903e-05,4.8712875 3.1293097e-05,4.878835 8.9293097e-05,4.8828125 C 0.0001692931,4.883675 -7.5706903e-05,4.889945 8.9293097e-05,4.890625 C 0.0020942931,4.8947375 0.0067992931,4.9037625 0.0079012931,4.90625 C 0.0086692931,4.9075625 0.014831293,4.91268 0.015714293,4.9140625 C 0.020591293,4.9211275 0.026019293,4.9325625 0.031339293,4.9375 C 0.032901293,4.93914 0.038346293,4.9447 0.039151293,4.9453125 C 0.10578629,4.9913475 0.24665429,5 0.45321429,5 C 0.72820629,5.0000025 0.95321429,4.84573 0.95321429,4.65625 C 0.95320629,4.4667725 1.2016193,4.1513025 1.5000893,3.953125 C 1.8335393,3.73172 1.9691193,3.471315 1.8516513,3.28125 C 1.8497943,3.278245 1.8458663,3.26839 1.8438393,3.265625 C 1.8427863,3.2642975 1.8371113,3.2590875 1.8360263,3.2578125 C 1.8348863,3.25663 1.8293763,3.25114 1.8282143,3.25 C 1.8187763,3.2411775 1.8064693,3.2339425 1.7969643,3.2265625 C 1.7966193,3.22631 1.7976513,3.219455 1.7969643,3.21875 C 1.7961613,3.217895 1.7898413,3.2194475 1.7891513,3.21875 C 1.7806043,3.2132875 1.7672713,3.2068475 1.7579013,3.203125 C 1.7555243,3.2022675 1.7463863,3.197375 1.7422763,3.1953125 C 1.7395693,3.195335 1.7293843,3.19524 1.7266513,3.1953125 C 1.7239543,3.1953175 1.7137493,3.19526 1.7110263,3.1953125 C 1.7069913,3.19529 1.6981763,3.19536 1.6954013,3.1953125 C 1.6897763,3.1953625 1.6778163,3.1948175 1.6719643,3.1953125 C 1.6710743,3.19533 1.6651493,3.19534 1.6641513,3.1953125 C 1.6608893,3.19515 1.6512613,3.1951375 1.6485263,3.1953125 C 1.6478113,3.1952575 1.6413813,3.1953225 1.6407143,3.1953125 C 1.6325243,3.1971175 1.6258843,3.192735 1.6172763,3.1953125 z "
       id="path4646"
       sodipodi:nodetypes="cssssssssssssssssssssssssssccsssssssssssssssssssssssssssssc" />
    <path
       style="fill:#a6a6a6;fill-opacity:1"
       d="M 4.5625893,1.621795 C 4.2012613,1.62615 4.0983113,1.7750175 4.1563393,2.1921075 C 4.2519193,2.8790275 3.5819913,3.205855 2.9219643,2.79367 C 2.6759293,2.6400175 2.5134343,2.5442875 2.4063393,2.5358575 C 2.3974243,2.5354425 2.3832293,2.53504 2.3750893,2.5358575 C 2.3691263,2.536705 2.3571993,2.542115 2.3516513,2.54367 C 2.3245843,2.5526425 2.2992663,2.570705 2.2813393,2.5983575 C 2.2176043,2.7045 2.2032113,2.945185 2.2032143,3.3483575 C 2.2032143,3.8717375 2.0595843,4.251755 1.8282143,4.340545 C 1.6864163,4.3949575 1.5637843,4.5013675 1.5000893,4.60617 C 1.4751643,4.6490775 1.4546863,4.6987625 1.4532143,4.7389825 C 1.4532143,4.79998 1.4662543,4.856785 1.4844643,4.8952325 C 1.4863613,4.8989675 1.4902293,4.9073425 1.4922763,4.9108575 C 1.5060693,4.932995 1.5277663,4.9524975 1.5469643,4.965545 C 1.5499713,4.9674475 1.5594743,4.9716675 1.5625893,4.9733575 C 1.5641713,4.97415 1.5687943,4.98043 1.5704013,4.98117 C 1.5785563,4.98461 1.5929443,4.9868375 1.6016513,4.9889825 C 1.6122213,4.991245 1.6295043,4.99637 1.6407143,4.996795 C 1.6444813,4.996835 1.6525143,4.996955 1.6563393,4.996795 C 1.6621193,4.9964025 1.6738893,4.989825 1.6797763,4.9889825 C 1.6856993,4.98799 1.6972063,4.99042 1.7032143,4.9889825 C 1.7213093,4.9842275 1.7472213,4.974235 1.7657143,4.965545 C 1.8705943,4.913855 1.9825413,4.797495 2.0469643,4.6296075 C 2.1484443,4.365155 2.4028343,4.303905 2.9375893,4.4108575 C 3.5519443,4.5337275 3.8242593,4.4226375 4.4610263,3.7858575 C 5.3772463,2.86964 5.4442193,1.6217975 4.5782143,1.621795 C 4.5723463,1.621795 4.5683243,1.621725 4.5625893,1.621795 z "
       id="path4648"
       sodipodi:nodetypes="csssssssssssssssssssssssssc" />
    <path
       style="fill:#9c9c9c;fill-opacity:1"
       d="M 4.8282143,2.215545 C 4.8230863,2.216055 4.8179163,2.22229 4.8125893,2.2233575 C 4.8071993,2.2246075 4.7947143,2.22938 4.7891513,2.23117 C 4.7779193,2.235105 4.7618643,2.240805 4.7500893,2.246795 C 4.6118543,2.320565 4.4419143,2.5303175 4.3750893,2.7858575 C 4.3376543,2.9290075 4.2952663,3.034735 4.2344643,3.10617 C 4.2313713,3.10966 4.2220393,3.118465 4.2188393,3.121795 C 4.2155843,3.125045 4.2065843,3.1343275 4.2032143,3.13742 C 4.1946443,3.144955 4.1813113,3.1542875 4.1719643,3.1608575 C 4.1662563,3.164685 4.1545393,3.1729925 4.1485263,3.1764825 C 4.0037763,3.2564675 3.7661563,3.245015 3.3438393,3.1764825 C 2.9852093,3.118285 2.7636663,3.09893 2.6329013,3.13742 C 2.6266113,3.1394075 2.6153393,3.1429625 2.6094643,3.1452325 C 2.5750313,3.15942 2.5447043,3.1827425 2.5235263,3.2077325 C 2.5223863,3.209155 2.5168193,3.2140875 2.5157143,3.215545 C 2.5135763,3.2185325 2.5098993,3.22804 2.5079013,3.23117 C 2.5030813,3.23917 2.4962743,3.2535125 2.4922763,3.26242 C 2.4677013,3.3206 2.4532113,3.398215 2.4532143,3.496795 C 2.4532143,3.7530675 2.6500813,4.0120425 2.8907143,4.07492 C 3.1313393,4.1378025 3.3976593,4.2074075 3.4844643,4.2233575 C 3.4851193,4.2234775 3.4915863,4.2232875 3.4922763,4.2233575 C 3.4930343,4.2233275 3.4992993,4.223435 3.5000893,4.2233575 C 3.5035163,4.222655 3.5117693,4.2170075 3.5157143,4.215545 C 3.7694863,4.1046475 4.9341543,2.642225 4.9532143,2.3952325 C 4.9532143,2.33213 4.9431763,2.2826575 4.9219643,2.2546075 C 4.9209143,2.253345 4.9152413,2.2479825 4.9141513,2.246795 C 4.9130243,2.24568 4.9075043,2.240025 4.9063393,2.2389825 C 4.9027343,2.2360675 4.8946343,2.2334475 4.8907143,2.23117 C 4.8866913,2.2291 4.8793993,2.2248075 4.8750893,2.2233575 C 4.8736213,2.2229425 4.8687743,2.2237075 4.8672763,2.2233575 C 4.8642243,2.2227925 4.8548163,2.215845 4.8516513,2.215545 C 4.8500413,2.21546 4.8454743,2.215565 4.8438393,2.215545 C 4.8405163,2.2156325 4.8316313,2.215205 4.8282143,2.215545 z "
       id="path4650"
       sodipodi:nodetypes="csssssssssssssssssssssscssssssssc" />
  </g>
</svg>
