<?xml version="1.0" encoding="UTF-8" standalone="no"?>
<!-- Created with Inkscape (http://www.inkscape.org/) -->
<svg
   xmlns:dc="http://purl.org/dc/elements/1.1/"
   xmlns:cc="http://web.resource.org/cc/"
   xmlns:rdf="http://www.w3.org/1999/02/22-rdf-syntax-ns#"
   xmlns:svg="http://www.w3.org/2000/svg"
   xmlns="http://www.w3.org/2000/svg"
   xmlns:sodipodi="http://inkscape.sourceforge.net/DTD/sodipodi-0.dtd"
   xmlns:inkscape="http://www.inkscape.org/namespaces/inkscape"
   width="6"
   height="5"
   id="svg2792"
   sodipodi:version="0.32"
   inkscape:version="0.43"
   version="1.0"
   sodipodi:docbase="/home/adam/workspace/Escape-j2se/src/org/spacebar/escape/j2se/resources"
   sodipodi:docname="rough-pieces.svg">
  <defs
     id="defs2794" />
  <sodipodi:namedview
     id="base"
     pagecolor="#ffffff"
     bordercolor="#666666"
     borderopacity="1.0"
     inkscape:pageopacity="0.0"
     inkscape:pageshadow="2"
     inkscape:zoom="45.254834"
     inkscape:cx="8.5397604"
     inkscape:cy="3.2257358"
     inkscape:document-units="px"
     inkscape:current-layer="layer1"
     showgrid="true"
     gridspacingx="8px"
     gridspacingy="8px"
     inkscape:window-width="1078"
     inkscape:window-height="742"
     inkscape:window-x="470"
     inkscape:window-y="214" />
  <metadata
     id="metadata2797">
    <rdf:RDF>
      <cc:Work
         rdf:about="">
        <dc:format>image/svg+xml</dc:format>
        <dc:type
           rdf:resource="http://purl.org/dc/dcmitype/StillImage" />
      </cc:Work>
    </rdf:RDF>
  </metadata>
  <g
     inkscape:label="Layer 1"
     inkscape:groupmode="layer"
     id="layer1">
    <path
       sodipodi:nodetypes="cssssccsssssc"
       id="path2737"
       d="M 0.9571946,4.6557579 C 0.9571946,4.4664263 1.2012089,4.1494981 1.4994491,3.9514733 C 1.8326397,3.7302438 1.9680553,3.4722627 1.8506783,3.2823441 C 1.7149129,3.0626735 1.4135128,3.2266995 0.808809,3.8493445 C -0.1791045,4.8665654 -0.2198356,5 0.4575797,5 C 0.7323679,5 0.9571946,4.8450919 0.9571946,4.6557579 z M 3.954884,2.532512 C 3.954884,2.4119425 3.786264,2.1733515 3.580173,2.0023108 C 3.374081,1.8312702 3.205461,1.5431074 3.205461,1.3619471 C 3.205461,0.8617251 2.728522,0.6732778 2.320191,1.0121617 C 1.8597488,1.3942972 1.8476856,2.0023108 2.300549,2.0023108 C 2.489816,2.0023108 2.784613,2.1709309 2.955654,2.3770219 C 3.293266,2.7838208 3.954884,2.8867742 3.954884,2.532512 z "
       style="fill:#cbcbcb;fill-opacity:1" />
    <path
       sodipodi:nodetypes="cssssssssc"
       id="path2735"
       d="M 1.4568094,4.7423536 C 1.4568094,4.6006454 1.6254294,4.4199996 1.8315206,4.3409156 C 2.06272,4.252194 2.206232,3.8725017 2.206232,3.3495248 C 2.206232,2.4119552 2.256413,2.3730251 2.925952,2.7911577 C 3.585463,3.2030278 4.253736,2.8777609 4.158229,2.1913701 C 4.099322,1.7679891 4.204201,1.6275998 4.579402,1.6275998 C 5.444748,1.6275998 5.376827,2.8670666 4.461313,3.7825785 C 3.825029,4.4188655 3.550021,4.5318259 2.936139,4.4090505 C 2.401801,4.3021829 2.146495,4.3653842 2.045093,4.629633 C 1.883528,5.0506709 1.4568094,5.1324329 1.4568094,4.7423536 z "
       style="fill:#a6a6a6;fill-opacity:1" />
    <path
       sodipodi:nodetypes="csssssc"
       id="path2733"
       d="M 2.893202,4.078378 C 2.652762,4.0155464 2.456039,3.75462 2.456039,3.4985449 C 2.456039,3.1045312 2.592644,3.0551194 3.344599,3.177145 C 4.105373,3.3006025 4.253269,3.2444534 4.372966,2.7867285 C 4.495065,2.3198187 4.954113,2.0093579 4.954113,2.3936891 C 4.954113,2.6333995 3.655632,4.2523888 3.488071,4.2216 C 3.401333,4.2056623 3.133642,4.141212 2.893202,4.078378 z "
       style="fill:#9c9c9c;fill-opacity:1" />
  </g>
</svg>
