<?xml version="1.0" encoding="UTF-8" standalone="no"?>
<!-- Created with Inkscape (http://www.inkscape.org/) -->
<svg
   xmlns:dc="http://purl.org/dc/elements/1.1/"
   xmlns:cc="http://web.resource.org/cc/"
   xmlns:rdf="http://www.w3.org/1999/02/22-rdf-syntax-ns#"
   xmlns:svg="http://www.w3.org/2000/svg"
   xmlns="http://www.w3.org/2000/svg"
   xmlns:xlink="http://www.w3.org/1999/xlink"
   xmlns:sodipodi="http://inkscape.sourceforge.net/DTD/sodipodi-0.dtd"
   xmlns:inkscape="http://www.inkscape.org/namespaces/inkscape"
   width="744.09448819"
   height="1052.3622047"
   id="svg2"
   sodipodi:version="0.32"
   inkscape:version="0.43"
   sodipodi:docbase="/home/adam/workspace/Escape-j2se/src/org/spacebar/escape/j2se/resources"
   sodipodi:docname="some-spheres.svg">
  <defs
     id="defs4" />
  <sodipodi:namedview
     id="base"
     pagecolor="#ffffff"
     bordercolor="#666666"
     borderopacity="1.0"
     inkscape:pageopacity="0.0"
     inkscape:pageshadow="2"
     inkscape:zoom="2.8"
     inkscape:cx="530.03496"
     inkscape:cy="619.24703"
     inkscape:document-units="px"
     inkscape:current-layer="layer1"
     inkscape:window-width="722"
     inkscape:window-height="569"
     inkscape:window-x="272"
     inkscape:window-y="180" />
  <metadata
     id="metadata7">
    <rdf:RDF>
      <cc:Work
         rdf:about="">
        <dc:format>image/svg+xml</dc:format>
        <dc:type
           rdf:resource="http://purl.org/dc/dcmitype/StillImage" />
      </cc:Work>
    </rdf:RDF>
  </metadata>
  <g
     inkscape:label="Layer 1"
     inkscape:groupmode="layer"
     id="layer1">
    <g
       id="g1570"
       transform="translate(24.64286,42.14286)">
      <path
         style="fill:#ffffff"
         d="M 324.35715,397.71933 L 324.35715,381.71933 L 340.35715,381.71933 L 356.35715,381.71933 L 356.35715,397.71933 L 356.35715,413.71933 L 340.35715,413.71933 L 324.35715,413.71933 L 324.35715,397.71933 z "
         id="path1582" />
      <path
         style="fill:#435a8c"
         d="M 332.42823,412.0242 C 327.2483,409.29765 325.04242,405.61474 324.61706,398.98277 C 323.95095,388.5973 329.03631,382.6243 339.09371,381.97924 C 349.47918,381.31313 355.45218,386.39849 356.09724,396.45589 C 356.52076,403.05916 354.5771,407.81618 350.12059,411.08346 C 346.25111,413.92036 336.96829,414.41395 332.42823,412.0242 z M 333.22427,391.21933 C 338.71227,387.27659 344.15638,386.59056 348.38464,389.3089 C 350.13704,390.43552 349.906,389.99865 347.59137,387.8089 C 343.9513,384.36523 340.31526,383.86336 335.07503,386.08131 C 331.67223,387.52157 329.06829,390.07129 328.04053,392.96933 C 327.18587,395.3793 327.65375,395.22134 333.22427,391.21933 z "
         id="path1580" />
      <path
         style="fill:#274994"
         d="M 332.42823,412.0242 C 327.2483,409.29765 325.04242,405.61474 324.61706,398.98277 C 323.95095,388.5973 329.03631,382.6243 339.09371,381.97924 C 349.47918,381.31313 355.45218,386.39849 356.09724,396.45589 C 356.52076,403.05916 354.5771,407.81618 350.12059,411.08346 C 346.25111,413.92036 336.96829,414.41395 332.42823,412.0242 z M 347.21389,400.79242 C 349.29127,399.73262 351.51243,398.23716 352.1498,397.46917 C 353.10844,396.31408 352.78049,396.15035 350.25155,396.52152 C 348.57014,396.7683 346.10605,396.38772 344.7758,395.67579 C 342.8923,394.66778 341.804,394.64002 339.85715,395.55035 C 338.48215,396.19329 336.26172,397.22955 334.92286,397.85314 C 333.584,398.47674 331.51758,398.73304 330.33081,398.42269 C 328.27939,397.88623 328.25663,397.95078 329.86906,399.73249 C 332.81556,402.98834 341.82977,403.53919 347.21389,400.79242 z M 332.97293,392.28653 C 335.44562,390.39849 338.76078,388.56995 340.33995,388.22311 C 343.37695,387.55607 348.00095,389.38028 350.30243,392.15339 C 351.01721,393.01466 352.01984,393.71933 352.53049,393.71933 C 354.4759,393.71933 347.73933,386.35914 344.58925,385.04295 C 338.44724,382.47665 329.22995,386.82471 327.78639,392.96933 C 326.95398,396.51258 327.53914,396.43554 332.97293,392.28653 z "
         id="path1578" />
      <path
         style="fill:#263d6f"
         d="M 332.42823,412.0242 C 327.2483,409.29765 325.04242,405.61474 324.61706,398.98277 C 323.95095,388.5973 329.03631,382.6243 339.09371,381.97924 C 349.47918,381.31313 355.45218,386.39849 356.09724,396.45589 C 356.52076,403.05916 354.5771,407.81618 350.12059,411.08346 C 346.25111,413.92036 336.96829,414.41395 332.42823,412.0242 z M 348.41009,402.65764 C 350.36421,401.6798 352.49206,399.71865 353.13865,398.29954 C 354.20831,395.9519 354.1134,395.71243 352.08571,395.64282 C 350.86,395.60074 348.95715,395.3354 347.85715,395.05317 C 342.15226,393.58949 339.40605,393.64268 336.24344,395.27813 C 334.3856,396.23886 331.40602,396.97004 329.62214,396.90298 C 326.7042,396.79328 326.49484,396.96695 327.53575,398.6337 C 328.87067,400.77126 333.35119,403.59303 337.19979,404.71998 C 340.37969,405.65113 343.61868,405.05526 348.41009,402.65764 z M 332.97293,392.28653 C 335.44562,390.39849 338.76078,388.56995 340.33995,388.22311 C 343.37695,387.55607 348.00095,389.38028 350.30243,392.15339 C 351.01721,393.01466 352.01984,393.71933 352.53049,393.71933 C 354.4759,393.71933 347.73933,386.35914 344.58925,385.04295 C 338.44724,382.47665 329.22995,386.82471 327.78639,392.96933 C 326.95398,396.51258 327.53914,396.43554 332.97293,392.28653 z "
         id="path1576" />
      <path
         style="fill:#132a5c"
         d="M 332.42823,412.0242 C 327.2483,409.29765 325.04242,405.61474 324.61706,398.98277 C 323.95095,388.5973 329.03631,382.6243 339.09371,381.97924 C 349.47918,381.31313 355.45218,386.39849 356.09724,396.45589 C 356.52076,403.05916 354.5771,407.81618 350.12059,411.08346 C 346.25111,413.92036 336.96829,414.41395 332.42823,412.0242 z M 347.53976,405.89905 C 349.98771,404.91017 355.10196,397.45966 354.53273,395.71161 C 353.50584,392.55815 347.10429,385.82683 344.15416,384.79841 C 337.43953,382.45768 329.39669,386.9348 327.3806,394.13558 C 326.30395,397.981 326.34284,398.84788 327.65071,400.15574 C 328.49104,400.99607 329.33666,402.15786 329.52987,402.73749 C 330.43785,405.46144 343.11437,407.68674 347.53976,405.89905 z "
         id="path1574" />
      <path
         style="fill:#262626"
         d="M 333.80757,412.31273 C 323.71772,407.91787 321.33489,394.5063 329.2395,386.60168 C 335.72605,380.11513 344.98825,380.11513 351.4748,386.60168 C 363.88602,399.01291 349.92357,419.33242 333.80757,412.31273 z M 342.10715,412.03 C 341.14465,411.77848 339.56965,411.77848 338.60715,412.03 C 337.64465,412.28153 338.43215,412.48733 340.35715,412.48733 C 342.28215,412.48733 343.06965,412.28153 342.10715,412.03 z M 333.85715,410.18317 C 332.20715,409.34506 330.06965,407.72298 329.10715,406.57855 C 328.14465,405.43412 327.35715,404.965 327.35715,405.53607 C 327.35715,406.95762 333.50489,411.69599 335.35715,411.70208 C 336.18215,411.70479 335.50715,411.02128 333.85715,410.18317 z M 351.92458,407.61023 C 352.29793,407.00613 351.42299,407.28531 349.98027,408.23061 C 348.53756,409.17592 347.35715,410.13843 347.35715,410.36952 C 347.35715,411.0929 351.21112,408.76462 351.92458,407.61023 z M 350.35027,404.03104 C 352.27215,401.9346 354.18492,400.33183 354.60087,400.46933 C 356.04541,400.94684 355.30218,395.195 353.36896,390.93556 C 351.88468,387.66527 350.41121,386.1918 347.14092,384.70752 C 341.77199,382.27073 338.96101,382.2621 333.66582,384.66613 C 327.16044,387.6196 323.61171,396.24979 326.44796,402.21933 C 327.33347,404.08309 327.36912,404.06606 326.97129,401.96933 C 326.7365,400.73183 326.95226,399.71933 327.45077,399.71933 C 327.94928,399.71933 328.35715,400.37143 328.35715,401.16844 C 328.35715,402.80955 333.83156,407.24157 336.85715,408.04992 C 341.84636,409.38291 346.79532,407.90888 350.35027,404.03104 z "
         id="path1572" />
    </g>
    <g
       id="g1598"
       transform="translate(17.85714,-34.64286)">
      <path
         style="fill:#ffffff"
         d="M 258.28571,460.93362 L 258.28571,444.93362 L 274.28571,444.93362 L 290.28571,444.93362 L 290.28571,460.93362 L 290.28571,476.93362 L 274.28571,476.93362 L 258.28571,476.93362 L 258.28571,460.93362 z "
         id="path1610" />
      <path
         style="fill:#537d53"
         d="M 266.35679,475.23849 C 261.17686,472.51194 258.97098,468.82903 258.54562,462.19706 C 257.87951,451.81159 262.96487,445.83859 273.02227,445.19353 C 283.40774,444.52742 289.38074,449.61278 290.0258,459.67018 C 290.44932,466.27345 288.50566,471.03047 284.04915,474.29775 C 280.17967,477.13465 270.89685,477.62824 266.35679,475.23849 z M 267.15283,454.43362 C 272.64083,450.49088 278.08494,449.80485 282.3132,452.52319 C 284.0656,453.64981 283.83456,453.21294 281.51993,451.02319 C 277.87986,447.57952 274.24382,447.07765 269.00359,449.2956 C 265.60079,450.73586 262.99685,453.28558 261.96909,456.18362 C 261.11443,458.59359 261.58231,458.43563 267.15283,454.43362 z "
         id="path1608" />
      <path
         style="fill:#386a38"
         d="M 266.35679,475.23849 C 261.17686,472.51194 258.97098,468.82903 258.54562,462.19706 C 257.87951,451.81159 262.96487,445.83859 273.02227,445.19353 C 283.40774,444.52742 289.38074,449.61278 290.0258,459.67018 C 290.44932,466.27345 288.50566,471.03047 284.04915,474.29775 C 280.17967,477.13465 270.89685,477.62824 266.35679,475.23849 z M 281.14245,464.00671 C 283.21983,462.94691 285.44099,461.45145 286.07836,460.68346 C 287.03701,459.52837 286.70905,459.36464 284.18011,459.73581 C 282.4987,459.98259 280.03461,459.60201 278.70436,458.89008 C 276.82086,457.88207 275.73256,457.85431 273.78571,458.76464 C 272.41071,459.40758 270.19028,460.44384 268.85142,461.06743 C 267.51256,461.69103 265.44614,461.94733 264.25937,461.63698 C 262.20795,461.10052 262.18519,461.16507 263.79762,462.94678 C 266.74412,466.20263 275.75833,466.75348 281.14245,464.00671 z M 266.90149,455.50082 C 269.37418,453.61278 272.68934,451.78424 274.26851,451.4374 C 277.30551,450.77036 281.92951,452.59457 284.23099,455.36768 C 284.94577,456.22895 285.9484,456.93362 286.45905,456.93362 C 288.40446,456.93362 281.66789,449.57343 278.51781,448.25724 C 272.3758,445.69094 263.15851,450.039 261.71495,456.18362 C 260.88254,459.72687 261.4677,459.64983 266.90149,455.50082 z "
         id="path1606" />
      <path
         style="fill:#234d23"
         d="M 266.35679,475.23849 C 261.17686,472.51194 258.97098,468.82903 258.54562,462.19706 C 257.87951,451.81159 262.96487,445.83859 273.02227,445.19353 C 283.40774,444.52742 289.38074,449.61278 290.0258,459.67018 C 290.44932,466.27345 288.50566,471.03047 284.04915,474.29775 C 280.17967,477.13465 270.89685,477.62824 266.35679,475.23849 z M 281.46832,469.11334 C 283.91627,468.12446 289.03052,460.67395 288.46129,458.92591 C 287.4344,455.77244 281.03285,449.04112 278.08272,448.0127 C 271.36809,445.67197 263.32525,450.14909 261.30916,457.34987 C 260.23251,461.19529 260.2714,462.06217 261.57927,463.37003 C 262.4196,464.21036 263.26522,465.37215 263.45843,465.95178 C 264.36641,468.67573 277.04293,470.90103 281.46832,469.11334 z "
         id="path1604" />
      <path
         style="fill:#262626"
         d="M 267.73613,475.52702 C 257.64628,471.13216 255.26345,457.72059 263.16806,449.81597 C 269.65461,443.32942 278.91681,443.32942 285.40336,449.81597 C 297.81458,462.2272 283.85213,482.54671 267.73613,475.52702 z M 276.03571,475.24429 C 275.07321,474.99277 273.49821,474.99277 272.53571,475.24429 C 271.57321,475.49582 272.36071,475.70162 274.28571,475.70162 C 276.21071,475.70162 276.99821,475.49582 276.03571,475.24429 z M 267.78571,473.39746 C 266.13571,472.55935 263.99821,470.93727 263.03571,469.79284 C 262.07321,468.64841 261.28571,468.17929 261.28571,468.75036 C 261.28571,470.17191 267.43345,474.91028 269.28571,474.91637 C 270.11071,474.91908 269.43571,474.23557 267.78571,473.39746 z M 285.85314,470.82452 C 286.22649,470.22042 285.35155,470.4996 283.90883,471.4449 C 282.46612,472.39021 281.28571,473.35272 281.28571,473.58381 C 281.28571,474.30719 285.13968,471.97891 285.85314,470.82452 z M 284.27883,467.24533 C 286.20071,465.14889 288.11348,463.54612 288.52943,463.68362 C 289.97397,464.16114 289.23074,458.40929 287.29752,454.14985 C 285.81324,450.87956 284.33977,449.40609 281.06948,447.92181 C 275.70055,445.48502 272.88957,445.47639 267.59438,447.88042 C 261.089,450.83389 257.54027,459.46408 260.37652,465.43362 C 261.26203,467.29738 261.29768,467.28035 260.89986,465.18362 C 260.66506,463.94612 260.88082,462.93362 261.37933,462.93362 C 261.87784,462.93362 262.28571,463.58572 262.28571,464.38273 C 262.28571,466.02384 267.76012,470.45586 270.78571,471.26421 C 275.77492,472.5972 280.72388,471.12317 284.27883,467.24533 z "
         id="path1602" />
      <path
         style="fill:#000000"
         d="M 267.73613,475.52702 C 257.64628,471.13216 255.26345,457.72059 263.16806,449.81597 C 269.65461,443.32942 278.91681,443.32942 285.40336,449.81597 C 297.81458,462.2272 283.85213,482.54671 267.73613,475.52702 z M 283.1102,473.25217 C 289.31094,468.70802 291.05123,458.17726 286.60426,452.10913 C 282.06011,445.90839 271.52935,444.1681 265.46122,448.61507 C 259.26048,453.15922 257.52019,463.68998 261.96716,469.75811 C 266.51131,475.95885 277.04207,477.69914 283.1102,473.25217 z "
         id="path1600" />
    </g>
    <g
       id="g1584"
       transform="translate(46.07143,-7.857143)">
      <path
         style="fill:#ffffff"
         d="M 266.85715,418.07648 L 266.85715,402.07648 L 282.85715,402.07648 L 298.85715,402.07648 L 298.85715,418.07648 L 298.85715,434.07648 L 282.85715,434.07648 L 266.85715,434.07648 L 266.85715,418.07648 z "
         id="path1596" />
      <path
         style="fill:#844b4b"
         d="M 274.92823,432.38135 C 269.60428,429.57899 267.50624,425.95889 267.06625,418.81571 C 266.74075,413.5313 267.04273,412.04086 269.03948,409.07648 C 272.48367,403.96323 277.12737,401.88786 284.12059,402.33639 C 287.84477,402.57525 290.85229,403.41593 292.62059,404.71235 C 300.85861,410.75203 300.85861,425.40093 292.62059,431.44061 C 288.75111,434.27751 279.46829,434.7711 274.92823,432.38135 z M 275.72427,411.57648 C 281.21227,407.63374 286.65638,406.94771 290.88464,409.66605 C 292.63704,410.79267 292.406,410.3558 290.09137,408.16605 C 286.4513,404.72238 282.81526,404.22051 277.57503,406.43846 C 274.17223,407.87872 271.56829,410.42844 270.54053,413.32648 C 269.68587,415.73645 270.15375,415.57849 275.72427,411.57648 z "
         id="path1594" />
      <path
         style="fill:#883333"
         d="M 274.92823,432.38135 C 269.7483,429.6548 267.54242,425.97189 267.11706,419.33992 C 266.45095,408.95445 271.53631,402.98145 281.59371,402.33639 C 291.97918,401.67028 297.95218,406.75564 298.59724,416.81304 C 299.02076,423.41631 297.0771,428.17333 292.62059,431.44061 C 288.75111,434.27751 279.46829,434.7711 274.92823,432.38135 z M 289.71389,421.14957 C 291.79127,420.08977 294.01243,418.59431 294.6498,417.82632 C 295.60844,416.67122 295.28049,416.5075 292.75155,416.87867 C 291.07014,417.12545 288.60605,416.74487 287.2758,416.03294 C 285.3923,415.02492 284.304,414.99717 282.35715,415.9075 C 280.98215,416.55044 278.76172,417.5867 277.42286,418.21029 C 276.084,418.83389 274.01758,419.09019 272.83081,418.77984 C 270.77939,418.24338 270.75663,418.30793 272.36906,420.08964 C 275.31556,423.34549 284.32977,423.89634 289.71389,421.14957 z M 275.47293,412.64368 C 277.94562,410.75564 281.26078,408.9271 282.83995,408.58026 C 285.87695,407.91322 290.50095,409.73743 292.80243,412.51054 C 293.51721,413.37181 294.51984,414.07648 295.03049,414.07648 C 296.9759,414.07648 290.23933,406.71629 287.08925,405.4001 C 280.94724,402.8338 271.72995,407.18186 270.28639,413.32648 C 269.45398,416.86973 270.03914,416.79269 275.47293,412.64368 z "
         id="path1592" />
      <path
         style="fill:#672e2e"
         d="M 274.92823,432.38135 C 269.7483,429.6548 267.54242,425.97189 267.11706,419.33992 C 266.45095,408.95445 271.53631,402.98145 281.59371,402.33639 C 291.97918,401.67028 297.95218,406.75564 298.59724,416.81304 C 299.02076,423.41631 297.0771,428.17333 292.62059,431.44061 C 288.75111,434.27751 279.46829,434.7711 274.92823,432.38135 z M 290.91009,423.01479 C 292.86421,422.03695 294.99206,420.0758 295.63865,418.65669 C 296.70831,416.30905 296.6134,416.06958 294.58571,415.99997 C 293.36,415.95789 291.45715,415.69255 290.35715,415.41032 C 284.65226,413.94664 281.90605,413.99983 278.74344,415.63528 C 276.8856,416.59601 273.90602,417.32719 272.12214,417.26013 C 269.2042,417.15043 268.99484,417.3241 270.03575,418.99085 C 271.37067,421.12841 275.85119,423.95018 279.69979,425.07713 C 282.87969,426.00828 286.11868,425.41241 290.91009,423.01479 z M 275.47293,412.64368 C 277.94562,410.75564 281.26078,408.9271 282.83995,408.58026 C 285.87695,407.91322 290.50095,409.73743 292.80243,412.51054 C 293.51721,413.37181 294.51984,414.07648 295.03049,414.07648 C 296.9759,414.07648 290.23933,406.71629 287.08925,405.4001 C 280.94724,402.8338 271.72995,407.18186 270.28639,413.32648 C 269.45398,416.86973 270.03914,416.79269 275.47293,412.64368 z "
         id="path1590" />
      <path
         style="fill:#541b1b"
         d="M 274.92823,432.38135 C 269.7483,429.6548 267.54242,425.97189 267.11706,419.33992 C 266.45095,408.95445 271.53631,402.98145 281.59371,402.33639 C 291.97918,401.67028 297.95218,406.75564 298.59724,416.81304 C 299.02076,423.41631 297.0771,428.17333 292.62059,431.44061 C 288.75111,434.27751 279.46829,434.7711 274.92823,432.38135 z M 290.03976,426.25619 C 292.48771,425.26731 297.60196,417.81681 297.03273,416.06876 C 296.00584,412.9153 289.60429,406.18398 286.65416,405.15556 C 279.93953,402.81483 271.89669,407.29195 269.8806,414.49273 C 268.80395,418.33814 268.84284,419.20503 270.15071,420.51289 C 270.99104,421.35322 271.83666,422.51501 272.02987,423.09464 C 272.93785,425.81859 285.61437,428.04389 290.03976,426.25619 z "
         id="path1588" />
      <path
         style="fill:#262626"
         d="M 276.30757,432.66988 C 266.21772,428.27502 263.83489,414.86345 271.7395,406.95883 C 278.22605,400.47228 287.48825,400.47228 293.9748,406.95883 C 306.38602,419.37006 292.42357,439.68957 276.30757,432.66988 z M 284.60715,432.38715 C 283.64465,432.13563 282.06965,432.13563 281.10715,432.38715 C 280.14465,432.63868 280.93215,432.84448 282.85715,432.84448 C 284.78215,432.84448 285.56965,432.63868 284.60715,432.38715 z M 276.35715,430.54032 C 274.70715,429.70221 272.56965,428.08013 271.60715,426.9357 C 270.64465,425.79127 269.85715,425.32215 269.85715,425.89322 C 269.85715,427.31477 276.00489,432.05314 277.85715,432.05923 C 278.68215,432.06194 278.00715,431.37843 276.35715,430.54032 z M 294.42458,427.96738 C 294.79793,427.36328 293.92299,427.64246 292.48027,428.58776 C 291.03756,429.53307 289.85715,430.49558 289.85715,430.72667 C 289.85715,431.45005 293.71112,429.12177 294.42458,427.96738 z M 292.85027,424.38819 C 294.77215,422.29175 296.68492,420.68898 297.10087,420.82648 C 298.54541,421.30399 297.80218,415.55215 295.86896,411.29271 C 294.38468,408.02242 292.91121,406.54895 289.64092,405.06467 C 284.27199,402.62788 281.46101,402.61925 276.16582,405.02328 C 269.66044,407.97675 266.11171,416.60694 268.94796,422.57648 C 269.83347,424.44024 269.86912,424.42321 269.47129,422.32648 C 269.2365,421.08898 269.45226,420.07648 269.95077,420.07648 C 270.44928,420.07648 270.85715,420.72858 270.85715,421.52559 C 270.85715,423.1667 276.33156,427.59872 279.35715,428.40707 C 284.34636,429.74006 289.29532,428.26603 292.85027,424.38819 z "
         id="path1586" />
    </g>
    <g
       id="g2581"
       transform="translate(-11.42857,-2.857144)">
      <path
         sodipodi:nodetypes="cccccccc"
         id="path8632"
         d="M 436.39915,372.64528 L 447.14915,376.14528 L 451.14915,384.64528 L 438.14915,382.64528 L 424.64915,386.14528 L 423.14915,384.64528 L 425.14915,377.64528 L 436.39915,372.64528 z "
         style="fill:#8a8b8b;fill-opacity:1;fill-rule:evenodd;stroke:none;stroke-width:0.25pt;stroke-linecap:butt;stroke-linejoin:miter;stroke-opacity:1" />
      <path
         id="path7678"
         d="M 436.8679,374.67653 C 435.32441,374.76077 433.65736,375.2232 431.77415,376.02028 C 428.37135,377.46053 425.77065,379.99723 424.7429,382.89528 C 424.54926,383.44129 424.41305,383.87774 424.39915,384.14528 C 424.3983,384.18078 424.39556,384.24041 424.39915,384.27028 C 424.40151,384.2845 424.42687,384.31999 424.4304,384.33278 C 424.43246,384.33882 424.42804,384.35835 424.4304,384.36403 C 424.43839,384.37998 424.45085,384.41386 424.46165,384.42653 C 424.4734,384.4381 424.50947,384.44953 424.52415,384.45778 C 424.54505,384.4673 424.59153,384.4855 424.6179,384.48903 C 424.63178,384.49004 424.66509,384.48954 424.6804,384.48903 C 425.25758,384.44334 426.79699,383.39641 429.9304,381.14528 C 435.4184,377.20254 440.85839,376.52068 445.08665,379.23903 C 445.63427,379.59109 445.99197,379.79186 446.14915,379.83278 C 446.15602,379.83403 446.17451,379.83232 446.1804,379.83278 C 446.1831,379.83281 446.2092,379.83294 446.21165,379.83278 C 446.21262,379.83141 446.24217,379.83434 446.2429,379.83278 C 446.24337,379.83101 446.24267,379.80349 446.2429,379.80153 C 446.24214,379.79875 446.21266,379.77325 446.21165,379.77028 C 446.11236,379.5473 445.46763,378.86811 444.27415,377.73903 C 441.94223,375.53292 439.61933,374.52636 436.8679,374.67653 z "
         style="fill:#c3c3c3;fill-opacity:1" />
      <path
         sodipodi:nodetypes="cccccc"
         id="path7757"
         d="M 422.39915,386.64528 L 437.14915,382.64528 L 451.14915,384.64528 L 451.14915,394.64528 L 428.14915,396.64528 L 422.39915,386.64528 z "
         style="fill:#5d6060;fill-opacity:1;fill-rule:evenodd;stroke:none;stroke-width:0.25pt;stroke-linecap:butt;stroke-linejoin:miter;stroke-opacity:1" />
      <path
         sodipodi:nodetypes="cssssssssssc"
         id="path7672"
         d="M 438.6179,384.83278 C 437.9995,384.89013 437.3463,385.11921 436.5554,385.48903 C 435.1804,386.13197 432.95676,387.17793 431.6179,387.80153 C 430.27904,388.42513 428.21091,388.67437 427.02415,388.36403 C 426.22281,388.15447 425.35513,387.93425 425.4304,388.23903 C 425.48662,388.46669 425.87516,388.92487 426.5554,389.67653 C 429.5019,392.93238 438.51503,393.4858 443.89915,390.73903 C 445.97653,389.67923 448.19928,388.16326 448.83665,387.39528 C 449.12124,387.05236 449.74703,386.67879 449.21165,386.36403 C 448.94353,386.2064 448.22612,386.27219 446.96165,386.45778 C 445.28024,386.70456 442.7919,386.32596 441.46165,385.61403 C 440.34332,385.01552 439.52171,384.74896 438.6179,384.83278 z "
         style="fill:#686a6a;fill-opacity:1" />
      <path
         style="fill:#4b4d4d;fill-opacity:1"
         d="M 429.12349,401.95957 C 423.94356,399.23302 421.73768,395.55011 421.31232,388.91814 C 420.64621,378.53266 425.73157,372.55967 435.78897,371.9146 C 446.17444,371.2485 452.14744,376.33385 452.7925,386.39126 C 453.21602,392.99453 451.27236,397.75155 446.81585,401.01883 C 442.94637,403.85573 433.66355,404.34932 429.12349,401.95957 z M 445.10535,392.59301 C 447.05946,391.61517 449.18732,389.65402 449.83391,388.23491 C 450.90356,385.88727 450.80866,385.6478 448.78097,385.57819 C 447.55526,385.53611 445.65241,385.27077 444.55241,384.98854 C 438.84752,383.52486 436.10131,383.57805 432.93869,385.2135 C 431.08085,386.17423 428.10127,386.90541 426.3174,386.83834 C 423.39946,386.72865 423.1901,386.90232 424.231,388.56907 C 425.56593,390.70663 430.04644,393.52839 433.89505,394.65535 C 437.07495,395.5865 440.31394,394.99063 445.10535,392.59301 z M 429.66819,382.2219 C 432.14088,380.33386 435.45604,378.50532 437.03521,378.15847 C 440.07221,377.49144 444.6962,379.31564 446.99768,382.08876 C 447.71247,382.95003 448.7151,383.6547 449.22574,383.6547 C 451.17116,383.6547 444.43459,376.2945 441.28451,374.97831 C 435.14249,372.41202 425.92521,376.76007 424.48165,382.9047 C 423.64923,386.44794 424.2344,386.37091 429.66819,382.2219 z "
         id="path7668" />
      <path
         sodipodi:nodetypes="cssccssccsssccssccsssssssssc"
         style="fill:#272727;fill-opacity:1"
         d="M 430.50283,402.2481 C 420.41298,397.85324 418.31365,383.59846 425.93476,376.53705 C 432.46173,370.48942 441.6835,370.0505 448.17005,376.53705 C 460.58128,388.94828 447.23755,409.00263 430.50283,402.2481 z M 438.80241,401.96537 C 437.83991,401.71385 436.26491,401.71385 435.30241,401.96537 C 434.33991,402.2169 435.12741,402.4227 437.05241,402.4227 C 438.97741,402.4227 439.76491,402.2169 438.80241,401.96537 z M 430.55241,400.11854 C 428.90241,399.28043 426.76491,397.65835 425.80241,396.51391 C 424.83991,395.36948 424.05241,394.90037 424.05241,395.47144 C 424.05241,396.89298 430.20014,401.63136 432.05241,401.63745 C 432.87741,401.64016 432.20241,400.95665 430.55241,400.11854 z M 448.61984,397.54559 C 448.99319,396.9415 448.11825,397.22068 446.67553,398.16598 C 445.23281,399.11129 444.05241,400.0738 444.05241,400.30489 C 444.05241,401.02827 447.90638,398.69999 448.61984,397.54559 z M 447.04553,393.9664 C 448.9674,391.86997 450.88018,390.2672 451.29613,390.4047 C 452.74067,390.88221 451.99744,385.13036 450.06422,380.87092 C 448.57994,377.60064 447.10646,376.12716 443.83618,374.64289 C 438.46724,372.2061 435.65626,372.19747 430.36107,374.6015 C 423.8557,377.55496 420.30697,386.18516 423.14322,392.1547 C 424.02873,394.01846 424.06438,394.00143 423.66655,391.9047 C 423.43175,390.6672 423.64752,389.6547 424.14603,389.6547 C 424.64454,389.6547 425.05241,390.3068 425.05241,391.10381 C 425.05241,392.74492 430.52682,397.17693 433.55241,397.98529 C 438.54162,399.31828 443.49057,397.84425 447.04553,393.9664 z "
         id="path7666" />
    </g>
    <g
       id="g2589"
       transform="translate(31.42857,-2.499994)">
      <path
         sodipodi:nodetypes="cccccccc"
         id="path2591"
         d="M 436.39915,372.64528 L 447.14915,376.14528 L 451.14915,384.64528 L 438.14915,382.64528 L 424.64915,386.14528 L 423.14915,384.64528 L 425.14915,377.64528 L 436.39915,372.64528 z "
         style="fill:#844b4b;fill-opacity:1;fill-rule:evenodd;stroke:none;stroke-width:0.25pt;stroke-linecap:butt;stroke-linejoin:miter;stroke-opacity:1" />
      <path
         id="path2593"
         d="M 436.8679,374.67653 C 435.32441,374.76077 433.65736,375.2232 431.77415,376.02028 C 428.37135,377.46053 425.77065,379.99723 424.7429,382.89528 C 424.54926,383.44129 424.41305,383.87774 424.39915,384.14528 C 424.3983,384.18078 424.39556,384.24041 424.39915,384.27028 C 424.40151,384.2845 424.42687,384.31999 424.4304,384.33278 C 424.43246,384.33882 424.42804,384.35835 424.4304,384.36403 C 424.43839,384.37998 424.45085,384.41386 424.46165,384.42653 C 424.4734,384.4381 424.50947,384.44953 424.52415,384.45778 C 424.54505,384.4673 424.59153,384.4855 424.6179,384.48903 C 424.63178,384.49004 424.66509,384.48954 424.6804,384.48903 C 425.25758,384.44334 426.79699,383.39641 429.9304,381.14528 C 435.4184,377.20254 440.85839,376.52068 445.08665,379.23903 C 445.63427,379.59109 445.99197,379.79186 446.14915,379.83278 C 446.15602,379.83403 446.17451,379.83232 446.1804,379.83278 C 446.1831,379.83281 446.2092,379.83294 446.21165,379.83278 C 446.21262,379.83141 446.24217,379.83434 446.2429,379.83278 C 446.24337,379.83101 446.24267,379.80349 446.2429,379.80153 C 446.24214,379.79875 446.21266,379.77325 446.21165,379.77028 C 446.11236,379.5473 445.46763,378.86811 444.27415,377.73903 C 441.94223,375.53292 439.61933,374.52636 436.8679,374.67653 z "
         style="fill:#c3c3c3;fill-opacity:1" />
      <path
         sodipodi:nodetypes="cccccc"
         id="path2595"
         d="M 422.39915,386.64528 L 437.14915,382.64528 L 451.14915,384.64528 L 451.14915,394.64528 L 428.14915,396.64528 L 422.39915,386.64528 z "
         style="fill:#883333;fill-opacity:1;fill-rule:evenodd;stroke:none;stroke-width:0.25pt;stroke-linecap:butt;stroke-linejoin:miter;stroke-opacity:1" />
      <path
         sodipodi:nodetypes="cssssssssssc"
         id="path2597"
         d="M 438.6179,384.83278 C 437.9995,384.89013 437.3463,385.11921 436.5554,385.48903 C 435.1804,386.13197 432.95676,387.17793 431.6179,387.80153 C 430.27904,388.42513 428.21091,388.67437 427.02415,388.36403 C 426.22281,388.15447 425.35513,387.93425 425.4304,388.23903 C 425.48662,388.46669 425.87516,388.92487 426.5554,389.67653 C 429.5019,392.93238 438.51503,393.4858 443.89915,390.73903 C 445.97653,389.67923 448.19928,388.16326 448.83665,387.39528 C 449.12124,387.05236 449.74703,386.67879 449.21165,386.36403 C 448.94353,386.2064 448.22612,386.27219 446.96165,386.45778 C 445.28024,386.70456 442.7919,386.32596 441.46165,385.61403 C 440.34332,385.01552 439.52171,384.74896 438.6179,384.83278 z "
         style="fill:#844b4b;fill-opacity:1" />
      <path
         style="fill:#672e2e;fill-opacity:1"
         d="M 429.12349,401.95957 C 423.94356,399.23302 421.73768,395.55011 421.31232,388.91814 C 420.64621,378.53266 425.73157,372.55967 435.78897,371.9146 C 446.17444,371.2485 452.14744,376.33385 452.7925,386.39126 C 453.21602,392.99453 451.27236,397.75155 446.81585,401.01883 C 442.94637,403.85573 433.66355,404.34932 429.12349,401.95957 z M 445.10535,392.59301 C 447.05946,391.61517 449.18732,389.65402 449.83391,388.23491 C 450.90356,385.88727 450.80866,385.6478 448.78097,385.57819 C 447.55526,385.53611 445.65241,385.27077 444.55241,384.98854 C 438.84752,383.52486 436.10131,383.57805 432.93869,385.2135 C 431.08085,386.17423 428.10127,386.90541 426.3174,386.83834 C 423.39946,386.72865 423.1901,386.90232 424.231,388.56907 C 425.56593,390.70663 430.04644,393.52839 433.89505,394.65535 C 437.07495,395.5865 440.31394,394.99063 445.10535,392.59301 z M 429.66819,382.2219 C 432.14088,380.33386 435.45604,378.50532 437.03521,378.15847 C 440.07221,377.49144 444.6962,379.31564 446.99768,382.08876 C 447.71247,382.95003 448.7151,383.6547 449.22574,383.6547 C 451.17116,383.6547 444.43459,376.2945 441.28451,374.97831 C 435.14249,372.41202 425.92521,376.76007 424.48165,382.9047 C 423.64923,386.44794 424.2344,386.37091 429.66819,382.2219 z "
         id="path2599" />
      <path
         sodipodi:nodetypes="cssccssccsssccssccsssssssssc"
         style="fill:#333333;fill-opacity:1"
         d="M 430.50283,402.2481 C 420.41298,397.85324 418.31365,383.59846 425.93476,376.53705 C 432.46173,370.48942 441.6835,370.0505 448.17005,376.53705 C 460.58128,388.94828 447.23755,409.00263 430.50283,402.2481 z M 438.80241,401.96537 C 437.83991,401.71385 436.26491,401.71385 435.30241,401.96537 C 434.33991,402.2169 435.12741,402.4227 437.05241,402.4227 C 438.97741,402.4227 439.76491,402.2169 438.80241,401.96537 z M 430.55241,400.11854 C 428.90241,399.28043 426.76491,397.65835 425.80241,396.51391 C 424.83991,395.36948 424.05241,394.90037 424.05241,395.47144 C 424.05241,396.89298 430.20014,401.63136 432.05241,401.63745 C 432.87741,401.64016 432.20241,400.95665 430.55241,400.11854 z M 448.61984,397.54559 C 448.99319,396.9415 448.11825,397.22068 446.67553,398.16598 C 445.23281,399.11129 444.05241,400.0738 444.05241,400.30489 C 444.05241,401.02827 447.90638,398.69999 448.61984,397.54559 z M 447.04553,393.9664 C 448.9674,391.86997 450.88018,390.2672 451.29613,390.4047 C 452.74067,390.88221 451.99744,385.13036 450.06422,380.87092 C 448.57994,377.60064 447.10646,376.12716 443.83618,374.64289 C 438.46724,372.2061 435.65626,372.19747 430.36107,374.6015 C 423.8557,377.55496 420.30697,386.18516 423.14322,392.1547 C 424.02873,394.01846 424.06438,394.00143 423.66655,391.9047 C 423.43175,390.6672 423.64752,389.6547 424.14603,389.6547 C 424.64454,389.6547 425.05241,390.3068 425.05241,391.10381 C 425.05241,392.74492 430.52682,397.17693 433.55241,397.98529 C 438.54162,399.31828 443.49057,397.84425 447.04553,393.9664 z "
         id="path2601" />
    </g>
    <g
       id="g2603"
       transform="translate(-13.21428,31.78572)">
      <path
         sodipodi:nodetypes="cccccccc"
         id="path2605"
         d="M 436.39915,372.64528 L 447.14915,376.14528 L 451.14915,384.64528 L 438.14915,382.64528 L 424.64915,386.14528 L 423.14915,384.64528 L 425.14915,377.64528 L 436.39915,372.64528 z "
         style="fill:#537d53;fill-opacity:1;fill-rule:evenodd;stroke:none;stroke-width:0.25pt;stroke-linecap:butt;stroke-linejoin:miter;stroke-opacity:1" />
      <path
         id="path2607"
         d="M 436.8679,374.67653 C 435.32441,374.76077 433.65736,375.2232 431.77415,376.02028 C 428.37135,377.46053 425.77065,379.99723 424.7429,382.89528 C 424.54926,383.44129 424.41305,383.87774 424.39915,384.14528 C 424.3983,384.18078 424.39556,384.24041 424.39915,384.27028 C 424.40151,384.2845 424.42687,384.31999 424.4304,384.33278 C 424.43246,384.33882 424.42804,384.35835 424.4304,384.36403 C 424.43839,384.37998 424.45085,384.41386 424.46165,384.42653 C 424.4734,384.4381 424.50947,384.44953 424.52415,384.45778 C 424.54505,384.4673 424.59153,384.4855 424.6179,384.48903 C 424.63178,384.49004 424.66509,384.48954 424.6804,384.48903 C 425.25758,384.44334 426.79699,383.39641 429.9304,381.14528 C 435.4184,377.20254 440.85839,376.52068 445.08665,379.23903 C 445.63427,379.59109 445.99197,379.79186 446.14915,379.83278 C 446.15602,379.83403 446.17451,379.83232 446.1804,379.83278 C 446.1831,379.83281 446.2092,379.83294 446.21165,379.83278 C 446.21262,379.83141 446.24217,379.83434 446.2429,379.83278 C 446.24337,379.83101 446.24267,379.80349 446.2429,379.80153 C 446.24214,379.79875 446.21266,379.77325 446.21165,379.77028 C 446.11236,379.5473 445.46763,378.86811 444.27415,377.73903 C 441.94223,375.53292 439.61933,374.52636 436.8679,374.67653 z "
         style="fill:#c3c3c3;fill-opacity:1" />
      <path
         sodipodi:nodetypes="cccccc"
         id="path2609"
         d="M 422.39915,386.64528 L 437.14915,382.64528 L 451.14915,384.64528 L 451.14915,394.64528 L 428.14915,396.64528 L 422.39915,386.64528 z "
         style="fill:#3e7e3e;fill-opacity:1;fill-rule:evenodd;stroke:none;stroke-width:0.25pt;stroke-linecap:butt;stroke-linejoin:miter;stroke-opacity:1" />
      <path
         sodipodi:nodetypes="cssssssssssc"
         id="path2611"
         d="M 438.6179,384.83278 C 437.9995,384.89013 437.3463,385.11921 436.5554,385.48903 C 435.1804,386.13197 432.95676,387.17793 431.6179,387.80153 C 430.27904,388.42513 428.21091,388.67437 427.02415,388.36403 C 426.22281,388.15447 425.35513,387.93425 425.4304,388.23903 C 425.48662,388.46669 425.87516,388.92487 426.5554,389.67653 C 429.5019,392.93238 438.51503,393.4858 443.89915,390.73903 C 445.97653,389.67923 448.19928,388.16326 448.83665,387.39528 C 449.12124,387.05236 449.74703,386.67879 449.21165,386.36403 C 448.94353,386.2064 448.22612,386.27219 446.96165,386.45778 C 445.28024,386.70456 442.7919,386.32596 441.46165,385.61403 C 440.34332,385.01552 439.52171,384.74896 438.6179,384.83278 z "
         style="fill:#547e54;fill-opacity:1" />
      <path
         style="fill:#376137;fill-opacity:1"
         d="M 429.12349,401.95957 C 423.94356,399.23302 421.73768,395.55011 421.31232,388.91814 C 420.64621,378.53266 425.73157,372.55967 435.78897,371.9146 C 446.17444,371.2485 452.14744,376.33385 452.7925,386.39126 C 453.21602,392.99453 451.27236,397.75155 446.81585,401.01883 C 442.94637,403.85573 433.66355,404.34932 429.12349,401.95957 z M 445.10535,392.59301 C 447.05946,391.61517 449.18732,389.65402 449.83391,388.23491 C 450.90356,385.88727 450.80866,385.6478 448.78097,385.57819 C 447.55526,385.53611 445.65241,385.27077 444.55241,384.98854 C 438.84752,383.52486 436.10131,383.57805 432.93869,385.2135 C 431.08085,386.17423 428.10127,386.90541 426.3174,386.83834 C 423.39946,386.72865 423.1901,386.90232 424.231,388.56907 C 425.56593,390.70663 430.04644,393.52839 433.89505,394.65535 C 437.07495,395.5865 440.31394,394.99063 445.10535,392.59301 z M 429.66819,382.2219 C 432.14088,380.33386 435.45604,378.50532 437.03521,378.15847 C 440.07221,377.49144 444.6962,379.31564 446.99768,382.08876 C 447.71247,382.95003 448.7151,383.6547 449.22574,383.6547 C 451.17116,383.6547 444.43459,376.2945 441.28451,374.97831 C 435.14249,372.41202 425.92521,376.76007 424.48165,382.9047 C 423.64923,386.44794 424.2344,386.37091 429.66819,382.2219 z "
         id="path2613" />
      <path
         sodipodi:nodetypes="cssccssccsssccssccsssssssssc"
         style="fill:#272727;fill-opacity:1"
         d="M 430.50283,402.2481 C 420.41298,397.85324 418.31365,383.59846 425.93476,376.53705 C 432.46173,370.48942 441.6835,370.0505 448.17005,376.53705 C 460.58128,388.94828 447.23755,409.00263 430.50283,402.2481 z M 438.80241,401.96537 C 437.83991,401.71385 436.26491,401.71385 435.30241,401.96537 C 434.33991,402.2169 435.12741,402.4227 437.05241,402.4227 C 438.97741,402.4227 439.76491,402.2169 438.80241,401.96537 z M 430.55241,400.11854 C 428.90241,399.28043 426.76491,397.65835 425.80241,396.51391 C 424.83991,395.36948 424.05241,394.90037 424.05241,395.47144 C 424.05241,396.89298 430.20014,401.63136 432.05241,401.63745 C 432.87741,401.64016 432.20241,400.95665 430.55241,400.11854 z M 448.61984,397.54559 C 448.99319,396.9415 448.11825,397.22068 446.67553,398.16598 C 445.23281,399.11129 444.05241,400.0738 444.05241,400.30489 C 444.05241,401.02827 447.90638,398.69999 448.61984,397.54559 z M 447.04553,393.9664 C 448.9674,391.86997 450.88018,390.2672 451.29613,390.4047 C 452.74067,390.88221 451.99744,385.13036 450.06422,380.87092 C 448.57994,377.60064 447.10646,376.12716 443.83618,374.64289 C 438.46724,372.2061 435.65626,372.19747 430.36107,374.6015 C 423.8557,377.55496 420.30697,386.18516 423.14322,392.1547 C 424.02873,394.01846 424.06438,394.00143 423.66655,391.9047 C 423.43175,390.6672 423.64752,389.6547 424.14603,389.6547 C 424.64454,389.6547 425.05241,390.3068 425.05241,391.10381 C 425.05241,392.74492 430.52682,397.17693 433.55241,397.98529 C 438.54162,399.31828 443.49057,397.84425 447.04553,393.9664 z "
         id="path2615" />
    </g>
    <g
       id="g2617"
       transform="translate(33.21429,31.07143)">
      <path
         sodipodi:nodetypes="cccccccc"
         id="path2619"
         d="M 436.39915,372.64528 L 447.14915,376.14528 L 451.14915,384.64528 L 438.14915,382.64528 L 424.64915,386.14528 L 423.14915,384.64528 L 425.14915,377.64528 L 436.39915,372.64528 z "
         style="fill:#435a8c;fill-opacity:1;fill-rule:evenodd;stroke:none;stroke-width:0.25pt;stroke-linecap:butt;stroke-linejoin:miter;stroke-opacity:1" />
      <path
         id="path2621"
         d="M 436.8679,374.67653 C 435.32441,374.76077 433.65736,375.2232 431.77415,376.02028 C 428.37135,377.46053 425.77065,379.99723 424.7429,382.89528 C 424.54926,383.44129 424.41305,383.87774 424.39915,384.14528 C 424.3983,384.18078 424.39556,384.24041 424.39915,384.27028 C 424.40151,384.2845 424.42687,384.31999 424.4304,384.33278 C 424.43246,384.33882 424.42804,384.35835 424.4304,384.36403 C 424.43839,384.37998 424.45085,384.41386 424.46165,384.42653 C 424.4734,384.4381 424.50947,384.44953 424.52415,384.45778 C 424.54505,384.4673 424.59153,384.4855 424.6179,384.48903 C 424.63178,384.49004 424.66509,384.48954 424.6804,384.48903 C 425.25758,384.44334 426.79699,383.39641 429.9304,381.14528 C 435.4184,377.20254 440.85839,376.52068 445.08665,379.23903 C 445.63427,379.59109 445.99197,379.79186 446.14915,379.83278 C 446.15602,379.83403 446.17451,379.83232 446.1804,379.83278 C 446.1831,379.83281 446.2092,379.83294 446.21165,379.83278 C 446.21262,379.83141 446.24217,379.83434 446.2429,379.83278 C 446.24337,379.83101 446.24267,379.80349 446.2429,379.80153 C 446.24214,379.79875 446.21266,379.77325 446.21165,379.77028 C 446.11236,379.5473 445.46763,378.86811 444.27415,377.73903 C 441.94223,375.53292 439.61933,374.52636 436.8679,374.67653 z "
         style="fill:#c3c3c3;fill-opacity:1" />
      <path
         sodipodi:nodetypes="cccccc"
         id="path2623"
         d="M 422.39915,386.64528 L 437.14915,382.64528 L 451.14915,384.64528 L 451.14915,394.64528 L 428.14915,396.64528 L 422.39915,386.64528 z "
         style="fill:#274994;fill-opacity:1;fill-rule:evenodd;stroke:none;stroke-width:0.25pt;stroke-linecap:butt;stroke-linejoin:miter;stroke-opacity:1" />
      <path
         sodipodi:nodetypes="cssssssssssc"
         id="path2625"
         d="M 438.6179,384.83278 C 437.9995,384.89013 437.3463,385.11921 436.5554,385.48903 C 435.1804,386.13197 432.95676,387.17793 431.6179,387.80153 C 430.27904,388.42513 428.21091,388.67437 427.02415,388.36403 C 426.22281,388.15447 425.35513,387.93425 425.4304,388.23903 C 425.48662,388.46669 425.87516,388.92487 426.5554,389.67653 C 429.5019,392.93238 438.51503,393.4858 443.89915,390.73903 C 445.97653,389.67923 448.19928,388.16326 448.83665,387.39528 C 449.12124,387.05236 449.74703,386.67879 449.21165,386.36403 C 448.94353,386.2064 448.22612,386.27219 446.96165,386.45778 C 445.28024,386.70456 442.7919,386.32596 441.46165,385.61403 C 440.34332,385.01552 439.52171,384.74896 438.6179,384.83278 z "
         style="fill:#435a8c;fill-opacity:1" />
      <path
         style="fill:#263d6f;fill-opacity:1"
         d="M 429.12349,401.95957 C 423.94356,399.23302 421.73768,395.55011 421.31232,388.91814 C 420.64621,378.53266 425.73157,372.55967 435.78897,371.9146 C 446.17444,371.2485 452.14744,376.33385 452.7925,386.39126 C 453.21602,392.99453 451.27236,397.75155 446.81585,401.01883 C 442.94637,403.85573 433.66355,404.34932 429.12349,401.95957 z M 445.10535,392.59301 C 447.05946,391.61517 449.18732,389.65402 449.83391,388.23491 C 450.90356,385.88727 450.80866,385.6478 448.78097,385.57819 C 447.55526,385.53611 445.65241,385.27077 444.55241,384.98854 C 438.84752,383.52486 436.10131,383.57805 432.93869,385.2135 C 431.08085,386.17423 428.10127,386.90541 426.3174,386.83834 C 423.39946,386.72865 423.1901,386.90232 424.231,388.56907 C 425.56593,390.70663 430.04644,393.52839 433.89505,394.65535 C 437.07495,395.5865 440.31394,394.99063 445.10535,392.59301 z M 429.66819,382.2219 C 432.14088,380.33386 435.45604,378.50532 437.03521,378.15847 C 440.07221,377.49144 444.6962,379.31564 446.99768,382.08876 C 447.71247,382.95003 448.7151,383.6547 449.22574,383.6547 C 451.17116,383.6547 444.43459,376.2945 441.28451,374.97831 C 435.14249,372.41202 425.92521,376.76007 424.48165,382.9047 C 423.64923,386.44794 424.2344,386.37091 429.66819,382.2219 z "
         id="path2627" />
      <path
         sodipodi:nodetypes="cssccssccsssccssccsssssssssc"
         style="fill:#272727;fill-opacity:1"
         d="M 430.50283,402.2481 C 420.41298,397.85324 418.31365,383.59846 425.93476,376.53705 C 432.46173,370.48942 441.6835,370.0505 448.17005,376.53705 C 460.58128,388.94828 447.23755,409.00263 430.50283,402.2481 z M 438.80241,401.96537 C 437.83991,401.71385 436.26491,401.71385 435.30241,401.96537 C 434.33991,402.2169 435.12741,402.4227 437.05241,402.4227 C 438.97741,402.4227 439.76491,402.2169 438.80241,401.96537 z M 430.55241,400.11854 C 428.90241,399.28043 426.76491,397.65835 425.80241,396.51391 C 424.83991,395.36948 424.05241,394.90037 424.05241,395.47144 C 424.05241,396.89298 430.20014,401.63136 432.05241,401.63745 C 432.87741,401.64016 432.20241,400.95665 430.55241,400.11854 z M 448.61984,397.54559 C 448.99319,396.9415 448.11825,397.22068 446.67553,398.16598 C 445.23281,399.11129 444.05241,400.0738 444.05241,400.30489 C 444.05241,401.02827 447.90638,398.69999 448.61984,397.54559 z M 447.04553,393.9664 C 448.9674,391.86997 450.88018,390.2672 451.29613,390.4047 C 452.74067,390.88221 451.99744,385.13036 450.06422,380.87092 C 448.57994,377.60064 447.10646,376.12716 443.83618,374.64289 C 438.46724,372.2061 435.65626,372.19747 430.36107,374.6015 C 423.8557,377.55496 420.30697,386.18516 423.14322,392.1547 C 424.02873,394.01846 424.06438,394.00143 423.66655,391.9047 C 423.43175,390.6672 423.64752,389.6547 424.14603,389.6547 C 424.64454,389.6547 425.05241,390.3068 425.05241,391.10381 C 425.05241,392.74492 430.52682,397.17693 433.55241,397.98529 C 438.54162,399.31828 443.49057,397.84425 447.04553,393.9664 z "
         id="path2629" />
    </g>
    <image
       id="image2673"
       height="32"
       width="32"
       sodipodi:absref="/home/adam/workspace/Escape-j2se/src/org/spacebar/escape/j2se/resources/pure-rsphere.png"
       xlink:href="pure-rsphere.png"
       x="267.92856"
       y="362.79077" />
    <image
       id="image2716"
       height="32"
       width="32"
       sodipodi:absref="/home/adam/workspace/Escape-j2se/src/org/spacebar/escape/j2se/resources/pure-bsphere.png"
       xlink:href="pure-bsphere.png"
       x="340.42859"
       y="374.57648" />
    <image
       id="image2774"
       height="32"
       width="32"
       sodipodi:absref="/home/adam/workspace/Escape-j2se/src/org/spacebar/escape/j2se/resources/pure-gsphere.png"
       xlink:href="pure-gsphere.png"
       x="315.07144"
       y="356.00504" />
    <image
       id="image2862"
       height="32"
       width="32"
       sodipodi:absref="/home/adam/workspace/Escape-j2se/src/org/spacebar/escape/j2se/resources/pure-sphere.png"
       xlink:href="pure-sphere.png"
       x="311.5"
       y="427.79077" />
  </g>
</svg>
