<?xml version="1.0" encoding="UTF-8" standalone="no"?>
<!-- Created with Inkscape (http://www.inkscape.org/) -->
<svg
   xmlns:dc="http://purl.org/dc/elements/1.1/"
   xmlns:cc="http://web.resource.org/cc/"
   xmlns:rdf="http://www.w3.org/1999/02/22-rdf-syntax-ns#"
   xmlns:svg="http://www.w3.org/2000/svg"
   xmlns="http://www.w3.org/2000/svg"
   xmlns:sodipodi="http://inkscape.sourceforge.net/DTD/sodipodi-0.dtd"
   xmlns:inkscape="http://www.inkscape.org/namespaces/inkscape"
   sodipodi:docname="steel-pieces.svg"
   sodipodi:docbase="/home/adam/workspace/Escape-j2se/src/org/spacebar/escape/j2se/resources"
   inkscape:version="0.43"
   sodipodi:version="0.32"
   id="svg10596"
   height="32px"
   width="32px">
  <defs
     id="defs3" />
  <sodipodi:namedview
     inkscape:window-y="169"
     inkscape:window-x="125"
     inkscape:window-height="723"
     inkscape:window-width="824"
     inkscape:document-units="px"
     inkscape:grid-bbox="true"
     showgrid="true"
     inkscape:current-layer="svg10596"
     inkscape:cy="-0.4554445"
     inkscape:cx="15.812656"
     inkscape:zoom="8"
     inkscape:pageshadow="2"
     inkscape:pageopacity="0.0"
     borderopacity="1.0"
     bordercolor="#666666"
     pagecolor="#ffffff"
     id="base" />
  <metadata
     id="metadata4">
    <rdf:RDF>
      <cc:Work
         rdf:about="">
        <dc:format>image/svg+xml</dc:format>
        <dc:type
           rdf:resource="http://purl.org/dc/dcmitype/StillImage" />
      </cc:Work>
    </rdf:RDF>
  </metadata>
  <path
     sodipodi:nodetypes="cssc"
     id="path9332"
     d="M 4.1875,23.26477 C 3.46562,22.9759 2.60312,23.01142 2.27083,23.34371 C 1.93854,23.67601 2.52917,23.91235 3.58333,23.86893 C 4.74828,23.82095 4.98523,23.58399 4.1875,23.26477 z "
     style="fill:#ffffff;fill-opacity:1" />
  <path
     sodipodi:nodetypes="ccccccsscccccccsc"
     id="path9330"
     d="M 0.5,0.44788 L 31.99857,0.44788 L 32,31.94788 L 0.40962,31.94788 L 0.5,0.44788 z M 4.25,23.2856 C 3.5625,23.00819 2.4375,23.00819 1.75,23.2856 C 1.0625,23.56301 1.625,23.78999 3,23.78999 C 4.375,23.78999 4.9375,23.56301 4.25,23.2856 z M 5,11.92782 C 5,9.2085 8.73141,6.10286 13.97719,4.45614 L 18.5,3.03638 L 11,3.24213 L 3.5,3.44788 L 3.19736,9.28943 C 2.99523,13.19109 3.24429,14.91493 3.94736,14.48041 C 4.52631,14.1226 5,12.97393 5,11.92782 z "
     style="fill:#838383" />
  <path
     sodipodi:nodetypes="ccccccccsccccccssssccssssssscccsc"
     id="path9328"
     d="M 1,27.97393 C 1,24.01168 1.05942,23.94579 4.75,23.81624 L 8.5,23.6846 L 5,23.06624 L 1.5,22.44788 L 1.5,11.94788 L 1.5,1.44788 L 16,1.44788 C 24.4999,1.44788 30.81041,1.03408 31.25016,0.44788 C 31.66274,-0.10212 31.88774,6.64788 31.75016,15.44788 L 31.5,31.44788 L 16.25,31.72393 L 1,31.988251 L 1,27.97393 z M 6,28.16599 C 6,27.73595 7.20127,27.28468 8.66949,27.16316 C 13.252,26.7839 12.56214,25.94788 7.66667,25.94788 C 4.18519,25.94788 3,26.32883 3,27.44788 C 3,28.27288 3.675,28.94788 4.5,28.94788 C 5.325,28.94788 6,28.59603 6,28.16599 z M 11,16.15729 C 14.025,15.44329 18.3,14.54159 20.5,14.1535 C 23.91017,13.55193 24.54666,13.04237 24.81642,10.69788 C 25.1846,7.49807 25.39343,7.53111 17.12292,9.4807 C 13.53944,10.32543 9.43229,12.08923 7.74735,13.50702 C 6.09818,14.8947 4.59257,15.87378 4.40154,15.68275 C 4.21051,15.49172 4.48528,13.77423 5.01213,11.8661 C 6.07505,8.01653 9.50374,5.49729 15.64317,4.0549 C 19.01507,3.26271 18.45781,3.13615 11.21106,3.04833 L 2.92213,2.94788 L 3.09243,10.92571 C 3.2123,16.54102 3.594,18.68912 4.38137,18.1795 C 4.99662,17.78128 7.975,16.87129 11,16.15729 z "
     style="fill:#656565" />
  <path
     sodipodi:nodetypes="cccccccscccccsccccccccsscccsc"
     id="path9326"
     d="M 1,23.94788 L 11.5,23.63367 L 6.5,23.04078 L 1.5,22.44788 L 1.5,1.44788 L 32,1.08843 L 32,15.91117 C 32,28.50507 31.76215,30.82517 30.41821,31.34089 L 1,31.94788 L 1,23.94788 z M 8.5,27.47672 L 12.5,26.03567 L 7.75,25.99177 C 4.17494,25.95874 3,26.31891 3,27.44788 C 3,29.28837 3.46453,29.29081 8.5,27.47672 z M 30,11.94788 L 30,1.94788 L 2,1.94788 L 2,21.94788 L 30,21.94788 L 30,11.94788 z M 3,19.98306 C 3,18.32439 6.25683,17.24441 13.08695,16.63821 C 21.65906,15.87739 25,14.3509 25,11.19509 C 25,9.85763 25.9,7.61917 27,6.22075 L 29,3.67816 L 29,11.11302 C 29,15.56236 28.51813,19.02975 27.8,19.74788 C 26.32082,21.22706 3,21.44822 3,19.98306 z "
     style="fill:#4c4c4c" />
  <path
     id="path9324"
     d="M 1.66667,31.28121 C 0.46541,30.07996 0.96878,24.89709 2.33772,24.37178 C 3.07346,24.08945 9.71096,23.54107 17.08772,23.15317 L 30.5,22.44788 L 31.05233,11.44788 L 31.60465,0.44788 L 31.80233,15.59089 C 31.97209,28.59615 31.7767,30.81959 30.41821,31.34089 C 28.26286,32.16798 2.49996,32.1145 1.66667,31.28121 z M 8.5,27.47672 L 12.5,26.03567 L 7.75,25.99177 C 4.17494,25.95874 3,26.31891 3,27.44788 C 3,29.28837 3.46453,29.29081 8.5,27.47672 z M 3,20.11686 C 3,18.58485 7.44661,17.11054 13.79609,16.53731 C 17.25895,16.22469 20.94186,15.51418 21.98035,14.95839 C 23.01884,14.40261 25.0231,13.94788 26.43426,13.94788 C 28.44489,13.94788 29,14.4455 29,16.24788 C 29,20.392 27.32052,20.94788 14.8,20.94788 C 8.31,20.94788 3,20.57392 3,20.11686 z M 26.0318,8.19788 C 26.0493,7.78538 26.72429,6.57437 27.5318,5.50675 C 28.93989,3.64509 29,3.6758 29,6.25675 C 29,7.9822 28.46174,8.94788 27.5,8.94788 C 26.675,8.94788 26.01431,8.61038 26.0318,8.19788 z "
     style="fill:#383838" />
  <path
     id="path9322"
     d="M 2,30.94788 C 2,30.32883 7.33333,29.94788 16,29.94788 C 28.62324,29.94788 30.01121,29.77579 30.11401,28.19788 C 30.17671,27.23538 30.55051,20.59788 30.94468,13.44788 L 31.66134,0.44788 L 31.83067,14.99788 C 31.9492,25.18253 31.63997,29.90791 30.8,30.74788 C 29.2809,32.26698 2,32.45643 2,30.94788 z M 24.41269,27.37344 C 28.4592,25.8909 29.67857,26.04092 28.54112,27.88135 C 28.17858,28.46794 26.22102,28.91617 24.19098,28.87742 L 20.5,28.80696 L 24.41269,27.37344 z M 4,20.05487 C 4,18.71942 6.30497,18.07377 13.76257,17.32024 C 17.46816,16.94582 21.49047,15.99655 22.70104,15.21075 C 25.39695,13.46079 29.24495,14.43744 28.79801,16.7582 C 28.2295,19.71023 23.87689,20.91783 13.75,20.93314 C 8.3875,20.94125 4,20.54603 4,20.05487 z M 26.5,7.94788 C 26.83992,7.39788 27.56803,6.94788 28.11803,6.94788 C 28.66803,6.94788 28.83992,7.39788 28.5,7.94788 C 28.16008,8.49788 27.43197,8.94788 26.88197,8.94788 C 26.33197,8.94788 26.16008,8.49788 26.5,7.94788 z "
     style="fill:#0e0e0e" />
</svg>
