<?xml version="1.0" encoding="UTF-8" standalone="no"?>
<!-- Created with Inkscape (http://www.inkscape.org/) -->
<svg
   xmlns:dc="http://purl.org/dc/elements/1.1/"
   xmlns:cc="http://web.resource.org/cc/"
   xmlns:rdf="http://www.w3.org/1999/02/22-rdf-syntax-ns#"
   xmlns:svg="http://www.w3.org/2000/svg"
   xmlns="http://www.w3.org/2000/svg"
   xmlns:sodipodi="http://inkscape.sourceforge.net/DTD/sodipodi-0.dtd"
   xmlns:inkscape="http://www.inkscape.org/namespaces/inkscape"
   width="32px"
   height="32px"
   id="svg2525"
   sodipodi:version="0.32"
   inkscape:version="0.43"
   sodipodi:docbase="/home/adam/workspace/Escape-j2se/src/org/spacebar/escape/j2se/resources"
   sodipodi:docname="twist-back.svg">
  <defs
     id="defs2527" />
  <sodipodi:namedview
     id="base"
     pagecolor="#ffffff"
     bordercolor="#666666"
     borderopacity="1.0"
     inkscape:pageopacity="0.0"
     inkscape:pageshadow="2"
     inkscape:zoom="7.9180417"
     inkscape:cx="20.278777"
     inkscape:cy="17.243873"
     inkscape:current-layer="layer1"
     showgrid="true"
     inkscape:grid-bbox="true"
     inkscape:document-units="px"
     inkscape:window-width="792"
     inkscape:window-height="569"
     inkscape:window-x="-2"
     inkscape:window-y="28" />
  <metadata
     id="metadata2530">
    <rdf:RDF>
      <cc:Work
         rdf:about="">
        <dc:format>image/svg+xml</dc:format>
        <dc:type
           rdf:resource="http://purl.org/dc/dcmitype/StillImage" />
      </cc:Work>
    </rdf:RDF>
  </metadata>
  <g
     id="layer1"
     inkscape:label="Layer 1"
     inkscape:groupmode="layer">
    <rect
       style="fill:#727272;fill-opacity:1;stroke:none"
       id="rect1366"
       width="23"
       height="23"
       x="3"
       y="3"
       ry="1.6967616" />
    <rect
       style="fill:#979797;fill-opacity:1;stroke:none"
       id="rect1374"
       width="17"
       height="17"
       x="5"
       y="5"
       ry="2.0539746" />
    <path
       style="fill:#2a2a2a"
       d="M 0.5 0.5 L 0.21875 14.96875 C 0.070250307 22.670032 0.17792046 29.571199 0.4375 30.65625 C 0.4417303 30.672232 0.43318308 30.705837 0.4375 30.71875 C 0.83406999 31.752189 4.28202 31.99711 16.21875 31.78125 L 31.5 31.5 L 31.5 0.5 L 0.5 0.5 z M 2.84375 1 C 2.9129663 0.99301268 2.9913811 1 3.0625 1 L 27.9375 1 C 29.075402 1 30 1.9245981 30 3.0625 L 30 27.9375 C 30 29.075402 29.075401 30 27.9375 30 L 3.0625 30 C 1.9245981 30 1 29.075401 1 27.9375 L 1 3.0625 C 1 1.995717 1.805505 1.1048099 2.84375 1 z "
       id="path2427" />
  </g>
</svg>
