<?xml version="1.0" encoding="UTF-8" standalone="no"?>
<!-- Created with Inkscape (http://www.inkscape.org/) -->
<svg
   xmlns:dc="http://purl.org/dc/elements/1.1/"
   xmlns:cc="http://web.resource.org/cc/"
   xmlns:rdf="http://www.w3.org/1999/02/22-rdf-syntax-ns#"
   xmlns:svg="http://www.w3.org/2000/svg"
   xmlns="http://www.w3.org/2000/svg"
   xmlns:sodipodi="http://inkscape.sourceforge.net/DTD/sodipodi-0.dtd"
   xmlns:inkscape="http://www.inkscape.org/namespaces/inkscape"
   width="32px"
   height="32px"
   id="svg8941"
   sodipodi:version="0.32"
   inkscape:version="0.41"
   sodipodi:docbase="/home/agoode/workspace/Escape/src/org/spacebar/escape/j2se/resources/tiles"
   sodipodi:docname="01.svg">
  <defs
     id="defs3" />
  <sodipodi:namedview
     id="base"
     pagecolor="#ffffff"
     bordercolor="#666666"
     borderopacity="1.0"
     inkscape:pageopacity="0.0"
     inkscape:pageshadow="2"
     inkscape:zoom="11.197802"
     inkscape:cx="16.000000"
     inkscape:cy="15.999999"
     inkscape:current-layer="layer1"
     showgrid="true"
     inkscape:grid-bbox="true"
     inkscape:document-units="px"
     inkscape:window-width="640"
     inkscape:window-height="543"
     inkscape:window-x="598"
     inkscape:window-y="315" />
  <metadata
     id="metadata4">
    <rdf:RDF
       id="RDF5">
      <cc:Work
         rdf:about=""
         id="Work6">
        <dc:format
           id="format7">image/svg+xml</dc:format>
        <dc:type
           id="type9"
           rdf:resource="http://purl.org/dc/dcmitype/StillImage" />
      </cc:Work>
    </rdf:RDF>
  </metadata>
  <g
     id="layer1"
     inkscape:label="Layer 1"
     inkscape:groupmode="layer">
    <g
       inkscape:export-ydpi="90.000000"
       inkscape:export-xdpi="90.000000"
       inkscape:export-filename="/home/adam/workspace/Escape/src/org/spacebar/escape/j2se/resources/g32246.png"
       transform="translate(-64.00000,-316.3622)"
       id="g19004">
      <rect
         ry="3.1798909"
         rx="5.4090009"
         y="316.36218"
         x="64.000000"
         height="24.000000"
         width="24.000000"
         id="rect19006"
         style="fill:#ce0000;fill-opacity:1.0000000;fill-rule:evenodd;stroke:none;stroke-width:0.72500002;stroke-linecap:square;stroke-linejoin:miter;stroke-miterlimit:4.0000000;stroke-dashoffset:0.0000000;stroke-opacity:1.0000000" />
      <path
         sodipodi:nodetypes="ccccccccccc"
         id="path19008"
         d="M 64.000000,332.36218 L 66.580728,320.88380 L 72.886969,325.51155 L 73.166439,325.03858 L 69.116060,318.71850 L 85.937500,319.23718 L 84.500000,328.73718 L 84.562500,336.48718 L 75.125000,337.29968 L 70.812500,339.61218 L 64.000000,332.36218 z "
         style="fill:#b40000;fill-opacity:1.0000000" />
      <path
         id="path19010"
         d="M 64.000000,332.36218 L 64.000000,316.36218 L 80.000000,316.36218 L 96.000000,316.36218 L 96.000000,332.36218 L 96.000000,348.36218 L 80.000000,348.36218 L 64.000000,348.36218 L 64.000000,332.36218 z M 85.996527,333.11218 L 85.639500,327.86218 L 85.265165,332.36218 L 84.894720,337.25690 L 80.000000,337.62735 L 75.500000,338.00168 L 80.750000,338.35871 L 86.000000,338.36218 L 85.996527,333.11218 z M 79.500000,325.31536 C 85.492920,324.76918 85.494780,324.76800 81.077720,324.31536 C 76.083760,323.80360 74.108370,321.37150 78.666670,321.34687 C 80.225000,321.33845 82.175000,320.89534 83.000000,320.36218 C 84.044140,319.68740 82.276000,319.38815 77.181910,319.37749 L 69.863810,319.36218 L 71.950010,322.29197 C 74.519440,325.90040 73.156500,327.05972 69.617540,324.27597 L 67.000000,322.21702 L 67.070285,329.53960 C 67.118464,334.55905 67.410882,336.23313 68.000000,334.86218 C 68.472690,333.76218 68.891060,331.67283 68.929710,330.21917 C 68.968370,328.76551 69.669600,327.31921 70.488000,327.00516 C 71.306410,326.69111 71.928120,326.75546 71.869580,327.14817 C 71.811050,327.54088 71.892100,330.11218 72.049690,332.86218 L 72.336220,337.86218 L 72.918110,331.86218 L 73.500000,325.86218 L 79.500000,325.31536 z M 73.000000,325.05835 C 73.000000,324.89124 72.635723,323.84060 69.823223,321.53896 L 65.500000,317.86218 L 69.176777,322.18540 C 72.384387,325.67582 73.000000,325.82197 73.000000,325.05835 z "
         style="fill:#a20000;fill-opacity:1.0000000"
         sodipodi:nodetypes="cccccccccccccccccccccccccccccccccccccccccc" />
      <path
         id="path19012"
         d="M 64.000000,332.36218 L 64.000000,316.36218 L 80.000000,316.36218 L 96.000000,316.36218 L 96.000000,332.36218 L 96.000000,348.36218 L 80.000000,348.36218 L 64.000000,348.36218 L 64.000000,332.36218 z M 80.287850,338.36218 L 86.000000,338.36218 L 86.000620,333.11218 L 86.001240,327.86218 L 81.000620,328.20869 L 76.000000,328.55521 L 76.000000,332.45869 C 76.000000,334.60561 75.550000,336.36218 75.000000,336.36218 C 74.450000,336.36218 74.000000,334.11218 74.000000,331.36218 L 74.000000,326.36218 L 79.797050,326.36218 C 85.242630,326.36218 85.830920,326.11966 89.500000,322.36218 L 93.405900,318.36218 L 79.702950,318.36218 L 66.000000,318.36218 L 66.000000,332.57039 L 66.000000,346.77860 L 70.287850,342.57039 C 74.315360,338.61769 74.922530,338.36218 80.287850,338.36218 z "
         style="fill:#790000;fill-opacity:1.0000000" />
      <path
         id="path19014"
         d="M 64.449953,347.09236 C 64.170908,346.36518 64.068013,339.26590 64.221299,331.31620 L 64.500000,316.86218 L 80.000000,316.86218 L 95.500000,316.86218 L 95.500000,332.36218 L 95.500000,347.86218 L 80.228650,348.13834 C 68.291920,348.35420 64.846524,348.12580 64.449953,347.09236 z M 94.000000,346.56513 C 94.000000,346.12675 92.200000,344.01042 90.000000,341.86218 C 86.275500,338.22531 86.000000,337.57099 86.000000,332.36218 C 86.000000,327.15337 86.275500,326.49905 90.000000,322.86218 C 92.200000,320.71394 94.000000,318.59761 94.000000,318.15923 C 94.000000,317.72085 87.475000,317.36218 79.500000,317.36218 L 65.000000,317.36218 L 65.000000,332.36218 L 65.000000,347.36218 L 79.500000,347.36218 C 87.475000,347.36218 94.000000,347.00351 94.000000,346.56513 z M 74.180250,331.61218 L 74.000000,326.36218 L 79.250000,326.54243 L 84.500000,326.72268 L 79.802640,327.09507 L 75.105280,327.46746 L 74.732890,332.16482 L 74.360500,336.86218 L 74.180250,331.61218 z "
         style="fill:#4f0000;fill-opacity:1.0000000" />
    </g>
  </g>
</svg>
