<?xml version="1.0" encoding="UTF-8" standalone="no"?>
<!-- Created with Inkscape (http://www.inkscape.org/) -->
<svg
   xmlns:dc="http://purl.org/dc/elements/1.1/"
   xmlns:cc="http://web.resource.org/cc/"
   xmlns:rdf="http://www.w3.org/1999/02/22-rdf-syntax-ns#"
   xmlns:svg="http://www.w3.org/2000/svg"
   xmlns="http://www.w3.org/2000/svg"
   xmlns:xlink="http://www.w3.org/1999/xlink"
   xmlns:sodipodi="http://inkscape.sourceforge.net/DTD/sodipodi-0.dtd"
   xmlns:inkscape="http://www.inkscape.org/namespaces/inkscape"
   sodipodi:docname="05.svg"
   sodipodi:docbase="/home/adam/workspace/Escape/src/org/spacebar/escape/j2se/resources/tiles"
   inkscape:version="0.41"
   sodipodi:version="0.32"
   id="svg15313"
   height="32px"
   width="32px">
  <defs
     id="defs3">
    <linearGradient
       inkscape:collect="always"
       xlink:href="#linearGradient2685"
       id="linearGradient8140"
       gradientUnits="userSpaceOnUse"
       gradientTransform="scale(1.732051,0.577350)"
       spreadMethod="pad"
       x1="-12.766315"
       y1="296.69754"
       x2="-11.715828"
       y2="301.93048" />
    <linearGradient
       inkscape:collect="always"
       xlink:href="#linearGradient2615"
       id="linearGradient8138"
       gradientUnits="userSpaceOnUse"
       gradientTransform="scale(1.525896,0.655353)"
       x1="-15.950862"
       y1="262.63419"
       x2="-14.394111"
       y2="264.46930" />
    <linearGradient
       inkscape:collect="always"
       xlink:href="#linearGradient2685"
       id="linearGradient8136"
       gradientUnits="userSpaceOnUse"
       gradientTransform="scale(1.732051,0.577350)"
       spreadMethod="pad"
       x1="-12.766315"
       y1="296.69754"
       x2="-10.865437"
       y2="301.78308" />
    <linearGradient
       inkscape:collect="always"
       xlink:href="#linearGradient2615"
       id="linearGradient8134"
       gradientUnits="userSpaceOnUse"
       gradientTransform="scale(1.525896,0.655353)"
       x1="-15.950862"
       y1="262.63419"
       x2="-14.394111"
       y2="264.46930" />
    <linearGradient
       inkscape:collect="always"
       xlink:href="#linearGradient2685"
       id="linearGradient8132"
       gradientUnits="userSpaceOnUse"
       gradientTransform="scale(1.732051,0.577350)"
       spreadMethod="pad"
       x1="-12.266085"
       y1="298.17163"
       x2="-10.565296"
       y2="302.96234" />
    <linearGradient
       inkscape:collect="always"
       xlink:href="#linearGradient2615"
       id="linearGradient8130"
       gradientUnits="userSpaceOnUse"
       gradientTransform="scale(1.525896,0.655353)"
       x1="-15.950862"
       y1="262.63419"
       x2="-14.394111"
       y2="264.46930" />
    <linearGradient
       inkscape:collect="always"
       xlink:href="#linearGradient2685"
       id="linearGradient8128"
       gradientUnits="userSpaceOnUse"
       gradientTransform="scale(1.732051,0.577350)"
       spreadMethod="pad"
       x1="-12.116015"
       y1="297.28717"
       x2="-11.015503"
       y2="301.41449" />
    <linearGradient
       inkscape:collect="always"
       xlink:href="#linearGradient2615"
       id="linearGradient8126"
       gradientUnits="userSpaceOnUse"
       gradientTransform="scale(1.525896,0.655353)"
       x1="-15.950862"
       y1="262.63419"
       x2="-14.394111"
       y2="264.46930" />
    <linearGradient
       inkscape:collect="always"
       xlink:href="#linearGradient2685"
       id="linearGradient8124"
       gradientUnits="userSpaceOnUse"
       gradientTransform="scale(1.732051,0.577350)"
       spreadMethod="pad"
       x1="-12.641255"
       y1="297.50821"
       x2="-11.990957"
       y2="302.22537" />
    <linearGradient
       inkscape:collect="always"
       xlink:href="#linearGradient2615"
       id="linearGradient8122"
       gradientUnits="userSpaceOnUse"
       gradientTransform="scale(1.525896,0.655353)"
       x1="-15.950862"
       y1="262.63419"
       x2="-14.394111"
       y2="264.46930" />
    <linearGradient
       inkscape:collect="always"
       xlink:href="#linearGradient2685"
       id="linearGradient8120"
       gradientUnits="userSpaceOnUse"
       gradientTransform="scale(1.732051,0.577350)"
       spreadMethod="pad"
       x1="-13.241533"
       y1="297.43451"
       x2="-9.8899860"
       y2="303.10980" />
    <linearGradient
       inkscape:collect="always"
       xlink:href="#linearGradient2615"
       id="linearGradient8118"
       gradientUnits="userSpaceOnUse"
       gradientTransform="scale(1.525896,0.655353)"
       x1="-15.950862"
       y1="262.63419"
       x2="-14.394111"
       y2="264.46930" />
    <linearGradient
       inkscape:collect="always"
       xlink:href="#linearGradient2685"
       id="linearGradient8116"
       gradientUnits="userSpaceOnUse"
       gradientTransform="scale(1.732051,0.577350)"
       spreadMethod="pad"
       x1="-12.616244"
       y1="296.62378"
       x2="-11.715830"
       y2="302.37277" />
    <linearGradient
       inkscape:collect="always"
       xlink:href="#linearGradient2615"
       id="linearGradient8114"
       gradientUnits="userSpaceOnUse"
       gradientTransform="scale(1.525896,0.655353)"
       x1="-15.950862"
       y1="262.63419"
       x2="-14.394111"
       y2="264.46930" />
    <linearGradient
       inkscape:collect="always"
       xlink:href="#linearGradient2685"
       id="linearGradient8112"
       gradientUnits="userSpaceOnUse"
       gradientTransform="scale(1.732051,0.577350)"
       spreadMethod="pad"
       x1="-11.940928"
       y1="298.02402"
       x2="-10.065067"
       y2="302.22537" />
    <linearGradient
       inkscape:collect="always"
       xlink:href="#linearGradient2615"
       id="linearGradient8110"
       gradientUnits="userSpaceOnUse"
       gradientTransform="scale(1.525896,0.655353)"
       x1="-15.950862"
       y1="262.63419"
       x2="-14.394111"
       y2="264.46930" />
    <pattern
       inkscape:collect="always"
       xlink:href="#pattern6922"
       id="pattern7397"
       patternTransform="translate(0.000000,140.3622)" />
    <pattern
       inkscape:collect="always"
       xlink:href="#pattern6914"
       id="pattern6922"
       patternTransform="translate(0.000000,140.3622)" />
    <pattern
       patternUnits="userSpaceOnUse"
       width="32.000000"
       height="32.000000"
       patternTransform="translate(-16.00000,140.3622)"
       id="pattern6914">
      <rect
         inkscape:export-filename="/home/adam/brick.png"
         y="140.36218"
         x="-16.000000"
         height="32.000000"
         width="32.000000"
         id="rect6916"
         style="fill:#c4c4c4;fill-opacity:1.0000000;fill-rule:evenodd;stroke:none;stroke-width:0.72500002;stroke-linecap:square;stroke-linejoin:miter;stroke-miterlimit:4.0000000;stroke-dashoffset:0.0000000;stroke-opacity:1.0000000"
         inkscape:export-xdpi="360.00000"
         inkscape:export-ydpi="360.00000"
         transform="translate(16.00000,-140.3622)" />
    </pattern>
    <linearGradient
       id="linearGradient2615">
      <stop
         style="stop-color:#eaeaea;stop-opacity:1.0000000;"
         offset="0.0000000"
         id="stop2617" />
      <stop
         style="stop-color:#dfdfdf;stop-opacity:0;"
         offset="1"
         id="stop2619" />
    </linearGradient>
    <linearGradient
       id="linearGradient2685">
      <stop
         style="stop-color:#c8c8c8;stop-opacity:1.0000000;"
         offset="0.0000000"
         id="stop2687" />
      <stop
         style="stop-color:#919191;stop-opacity:1.0000000;"
         offset="1.0000000"
         id="stop2689" />
    </linearGradient>
  </defs>
  <sodipodi:namedview
     inkscape:window-y="456"
     inkscape:window-x="1028"
     inkscape:window-height="536"
     inkscape:window-width="640"
     inkscape:document-units="px"
     inkscape:grid-bbox="true"
     showgrid="true"
     inkscape:current-layer="g15512"
     inkscape:cy="15.999999"
     inkscape:cx="16.000000"
     inkscape:zoom="11.197802"
     inkscape:pageshadow="2"
     inkscape:pageopacity="0.0"
     borderopacity="1.0"
     bordercolor="#666666"
     pagecolor="#ffffff"
     id="base" />
  <metadata
     id="metadata4">
    <rdf:RDF
       id="RDF5">
      <cc:Work
         id="Work6"
         rdf:about="">
        <dc:format
           id="format7">image/svg+xml</dc:format>
        <dc:type
           rdf:resource="http://purl.org/dc/dcmitype/StillImage"
           id="type9" />
      </cc:Work>
    </rdf:RDF>
  </metadata>
  <g
     inkscape:groupmode="layer"
     inkscape:label="Layer 1"
     id="layer1">
    <g
       transform="translate(-17.42885,-3.110893)"
       id="g15512"
       inkscape:label="Layer 1"
       inkscape:groupmode="layer">
      <g
         inkscape:tile-cy="284.36218"
         inkscape:tile-cx="-79.000000"
         inkscape:tile-h="32.000000"
         inkscape:tile-w="32.000000"
         id="g14992"
         transform="translate(269.4289,-166.2641)"
         inkscape:export-filename="/home/adam/brick.png"
         inkscape:export-xdpi="360.00000"
         inkscape:export-ydpi="360.00000">
        <path
           style="fill:#f7f7f7;fill-opacity:1.0000000"
           d="M -144.00000,364.37500 L -144.00000,396.37500 L -112.00000,396.37500 L -112.00000,364.37500 L -144.00000,364.37500 z "
           transform="translate(-108.0000,-195.0000)"
           id="path14994" />
        <path
           style="fill:#dadada;fill-opacity:1.0000000"
           d="M -144.00000,364.37500 L -144.00000,369.90625 C -143.39993,369.88308 -143.29141,369.79067 -142.50000,369.78125 L -136.50000,369.71875 L -142.18750,370.09375 C -143.04782,370.14934 -143.35359,370.26735 -144.00000,370.34375 L -144.00000,385.90625 C -143.38428,385.88612 -143.32717,385.79109 -142.50000,385.78125 L -136.50000,385.71875 L -142.18750,386.09375 C -143.12723,386.15446 -143.33431,386.27112 -144.00000,386.34375 L -144.00000,396.37500 L -141.87500,396.37500 C -141.82195,395.75701 -141.65999,395.37127 -141.40625,395.62500 C -141.27766,395.75359 -141.41582,396.12267 -141.37500,396.37500 L -125.59375,396.37500 C -125.59434,396.19107 -125.60933,396.19207 -125.59375,395.87500 C -125.50734,394.11660 -124.77519,393.84401 -119.50000,393.78125 L -113.50000,393.71875 L -119.18750,394.09375 C -123.52237,394.37386 -124.96733,394.85731 -125.28125,396.15625 C -125.31882,396.31170 -125.31279,396.26171 -125.34375,396.37500 L -112.00000,396.37500 L -112.00000,386.34375 C -114.82683,386.65216 -115.99468,387.11007 -116.28125,388.65625 C -116.62107,390.48973 -116.67402,390.45482 -116.59375,388.37500 C -116.37495,385.92798 -115.61792,386.02451 -112.00000,385.90625 L -112.00000,370.34375 C -114.61065,370.65229 -116.02963,371.11510 -116.28125,372.15625 C -116.57525,373.37278 -116.66392,373.30292 -116.59375,371.87500 C -116.52030,370.38040 -115.39970,370.03752 -112.00000,369.90625 L -112.00000,364.37500 L -125.34375,364.37500 C -125.50128,364.95145 -125.59202,364.91356 -125.59375,364.37500 L -141.37500,364.37500 C -141.31033,364.77474 -141.13541,365.11997 -141.31250,365.56250 C -141.63172,366.36023 -141.85827,366.10246 -141.90625,364.93750 C -141.91651,364.68829 -141.89142,364.56633 -141.87500,364.37500 L -144.00000,364.37500 z M -120.50000,369.71875 L -126.18750,370.09375 C -130.52237,370.37386 -131.96733,370.85731 -132.28125,372.15625 C -132.57525,373.37278 -132.66392,373.30292 -132.59375,371.87500 C -132.50734,369.61660 -131.77519,369.84401 -126.50000,369.78125 L -120.50000,369.71875 z M -129.50000,377.71875 L -135.18750,378.09375 C -139.52237,378.37386 -140.96733,378.85731 -141.28125,380.15625 C -141.57525,381.37278 -141.66392,381.30292 -141.59375,379.87500 C -141.50734,378.11660 -140.77519,377.84401 -135.50000,377.78125 L -129.50000,377.71875 z M -113.50000,377.71875 L -119.18750,378.09375 C -123.52237,378.37386 -124.96733,378.85731 -125.28125,380.15625 C -125.57525,381.37278 -125.66392,381.30292 -125.59375,379.87500 C -125.50734,378.11660 -124.77519,377.84401 -119.50000,377.78125 L -113.50000,377.71875 z M -118.50000,385.68750 L -125.18750,386.06250 C -130.46628,386.35779 -131.95595,386.80954 -132.28125,388.15625 C -132.57621,389.37733 -132.66411,389.30672 -132.59375,387.87500 C -132.50569,386.08293 -131.77226,385.85273 -125.50000,385.78125 L -118.50000,385.68750 z M -138.25000,393.62500 C -136.46250,393.40318 -133.53750,393.40317 -131.75000,393.62500 C -129.96250,393.84683 -131.42500,394.03125 -135.00000,394.03125 C -138.57500,394.03125 -140.03750,393.84682 -138.25000,393.62500 z "
           transform="translate(-108.0000,-195.0000)"
           id="path14996"
           sodipodi:nodetypes="ccccccccccccccccccccccccccccccccccccccccccccccccccccccccccccccccccc" />
        <path
           style="fill:#c3c3c3;fill-opacity:1.0000000"
           d="M -144.00000,364.37500 L -144.00000,369.46875 L -142.25000,369.50000 C -138.53750,369.57490 -136.50434,369.82308 -137.75000,370.06250 C -139.05653,370.31362 -139.76113,370.96900 -139.37500,371.59375 C -138.93162,372.31117 -139.16337,372.36453 -140.09375,371.78125 C -140.75072,371.36938 -142.45863,371.05074 -144.00000,370.87500 L -144.00000,385.37500 L -142.34375,385.37500 C -134.55428,385.37500 -134.36880,386.49266 -142.12500,386.71875 C -143.10073,386.74719 -143.33786,386.88053 -144.00000,386.93750 L -144.00000,396.37500 L -141.84375,396.37500 C -141.85137,396.23399 -141.86700,396.28650 -141.87500,396.12500 C -142.01085,393.38175 -141.98344,393.35972 -135.25000,393.37500 C -131.38702,393.38377 -129.04690,393.75277 -129.78125,394.21875 C -130.48700,394.66656 -133.25087,394.82750 -135.93750,394.59375 C -140.28969,394.21508 -140.84703,394.39822 -141.25000,396.37500 L -125.84375,396.37500 C -125.85145,396.23561 -125.86708,396.28499 -125.87500,396.12500 C -126.01040,393.39067 -125.95914,393.37500 -119.43750,393.37500 C -115.83004,393.37500 -113.10328,393.71659 -113.37500,394.15625 C -113.64672,394.59590 -116.32497,394.81793 -119.34375,394.62500 C -124.21542,394.31368 -124.81735,394.47480 -125.21875,396.37500 L -112.00000,396.37500 L -112.00000,386.93750 C -114.53843,387.15589 -115.60136,387.60262 -116.09375,389.37500 C -116.73452,391.68150 -116.81429,391.62345 -116.90625,388.62500 L -116.75000,385.53125 L -112.00000,385.37500 L -112.00000,370.87500 C -112.27100,370.84410 -112.42502,370.73429 -112.68750,370.71875 C -115.24132,370.56753 -115.97464,370.95514 -116.31250,372.68750 C -116.65441,374.44064 -116.76472,374.35187 -116.87500,372.12500 L -116.82812,369.45313 L -112.00000,369.46875 L -112.00000,364.37500 L -125.21875,364.37500 C -125.23454,364.44974 -125.26589,364.48216 -125.28125,364.56250 C -125.64510,366.46510 -125.73429,366.35580 -125.84375,364.37500 L -141.25000,364.37500 C -141.26235,364.43556 -141.26908,364.46723 -141.28125,364.53125 C -141.65984,366.52272 -141.73361,366.41368 -141.84375,364.37500 L -144.00000,364.37500 z M -126.34375,369.37500 C -122.67709,369.37500 -119.96417,369.65167 -120.31250,370.00000 C -120.66083,370.34834 -123.24932,370.62500 -126.06250,370.62500 C -130.33538,370.62500 -131.31694,370.98178 -132.03125,372.75000 C -132.81546,374.69125 -132.87959,374.64710 -132.93750,372.12500 C -132.94803,371.66667 -133.16678,370.47917 -132.23055,369.71875 C -131.07522,368.78037 -127.45312,369.37500 -126.34375,369.37500 z M -135.34375,377.37500 C -131.67709,377.37500 -128.92905,377.61654 -129.25000,377.93750 C -129.57096,378.25845 -132.22303,378.57788 -135.15625,378.62500 C -139.64271,378.69709 -140.60918,379.03080 -141.15625,380.78125 C -141.71504,382.56916 -141.82061,382.48796 -141.90625,380.12500 C -142.00539,377.39003 -141.97398,377.37500 -135.34375,377.37500 z M -119.34375,377.37500 C -111.34691,377.37500 -111.29279,378.31585 -119.28125,378.50000 C -124.15003,378.61224 -124.95142,378.91147 -125.31250,380.75000 C -125.63855,382.41023 -125.76833,382.27892 -125.87500,380.12500 C -126.01062,377.38638 -125.98283,377.37500 -119.34375,377.37500 z M -132.93750,385.68750 L -125.75000,385.37500 C -121.76250,385.38343 -119.03748,385.74289 -119.68750,386.15625 C -120.33752,386.56962 -123.34435,386.81651 -126.37500,386.71875 C -131.29535,386.56004 -131.93596,386.75799 -132.31250,388.68750 C -132.65296,390.43212 -132.76505,390.34530 -132.87500,388.12500 L -132.93750,385.68750 z "
           transform="translate(-108.0000,-195.0000)"
           id="path14998"
           sodipodi:nodetypes="ccccccccccccccccccccccccccccccccccccccccccccccccssscccccccccccccccccc" />
        <path
           sodipodi:nodetypes="ccccccccccccccccccccccccccccccccccccccccccccccccccccccccccccccccccccccccccccccccccccccccccccccccccccccccccccccccccccccccccccc"
           style="fill:#9b9b9b;fill-opacity:1.0000000"
           d="M -144.00000,364.37500 L -144.00000,366.18750 C -143.91222,365.87498 -143.81469,365.56574 -143.75000,365.12500 C -143.70192,364.79743 -143.71828,364.64008 -143.68750,364.37500 L -144.00000,364.37500 z M -139.78125,367.40625 C -138.74056,368.14961 -128.68100,367.43944 -127.87500,366.56250 C -127.57903,366.24048 -127.62931,365.31410 -127.90625,364.37500 L -129.03125,364.37500 C -129.23614,365.54251 -130.02888,365.82192 -132.75000,365.71875 C -138.68582,365.49370 -140.69506,366.75352 -139.78125,367.40625 z M -118.40625,364.37500 C -118.57212,364.52582 -118.74798,364.59055 -118.90625,364.78125 C -120.13700,366.26421 -121.67391,366.31620 -123.78125,365.00000 C -124.59716,364.49039 -124.95712,364.68363 -124.78125,365.53125 C -124.63012,366.25963 -123.40631,367.10000 -122.06250,367.37500 C -120.71868,367.65000 -118.05144,367.50000 -116.00000,367.50000 C -113.29333,367.50000 -112.39747,367.60253 -112.00000,366.18750 L -112.00000,364.37500 L -113.90625,364.37500 C -114.04410,364.52665 -114.03451,364.45237 -114.18750,364.62500 C -115.69735,366.32869 -116.04321,366.45009 -115.62500,365.12500 C -115.52425,364.80577 -115.60515,364.60794 -115.62500,364.37500 L -118.40625,364.37500 z M -135.90625,370.46875 C -136.47426,370.34204 -137.26624,370.89590 -138.18750,372.15625 C -139.26259,373.62705 -142.23453,374.18284 -144.00000,373.59375 L -144.00000,375.21875 C -143.16925,375.27782 -142.47286,375.37500 -141.50000,375.37500 C -135.23333,375.37500 -135.00000,375.28526 -135.00000,372.87500 C -135.00000,371.40915 -135.33824,370.59546 -135.90625,370.46875 z M -120.31250,370.78125 C -121.30902,370.63500 -122.37067,371.20560 -122.68750,372.03125 C -123.02438,372.90915 -124.03661,373.31588 -125.12500,373.03125 C -126.14860,372.76357 -127.25449,372.97039 -127.56250,373.46875 C -127.87051,373.96712 -128.65746,374.35218 -129.31250,374.34375 C -130.02811,374.33455 -129.90129,373.95746 -129.00000,373.37500 C -127.78704,372.59113 -127.93056,372.38737 -129.75000,372.37500 C -133.32420,372.35068 -131.88666,374.81739 -128.00000,375.37500 L -119.00000,375.37500 L -119.00000,373.75000 C -119.00000,372.98743 -119.00000,371.37500 -120.31250,370.78125 z M -113.87500,372.56250 C -114.78761,372.49808 -116.00000,373.36435 -116.00000,374.40625 C -116.00000,374.78295 -114.22201,375.06075 -112.00000,375.21875 L -112.00000,373.59375 C -112.45089,373.44330 -112.89596,373.28389 -113.12500,372.96875 C -113.30992,372.71431 -113.57080,372.58397 -113.87500,372.56250 z M -129.21875,378.37500 C -129.77047,378.37500 -129.98337,379.27481 -129.68750,380.40625 C -129.24823,382.08599 -129.41234,382.26705 -130.56250,381.31250 C -131.33722,380.66953 -132.69065,380.41543 -133.56250,380.75000 C -134.43435,381.08456 -135.96634,380.91147 -136.96875,380.37500 C -138.28158,379.67239 -139.11077,379.80995 -139.96875,380.84375 C -140.62385,381.63310 -140.95733,382.62589 -140.68750,383.06250 C -140.41767,383.49909 -137.44959,383.62500 -133.93750,383.62500 L -128.03125,383.56250 L -127.81250,381.12500 C -128.03449,379.61250 -128.66703,378.37500 -129.21875,378.37500 z M -112.31250,378.93750 C -112.58243,378.77246 -113.08189,379.02816 -113.93750,379.56250 C -115.00192,380.22724 -115.59500,381.23510 -115.25000,381.81250 C -114.90500,382.38992 -115.26942,382.32587 -116.06250,381.68750 C -117.84084,380.25608 -124.94153,380.36219 -124.68750,381.81250 C -124.58599,382.39202 -122.70000,383.09714 -120.50000,383.37500 C -114.18734,384.17226 -112.00000,383.50065 -112.00000,380.75000 C -112.00000,379.69254 -112.04257,379.10254 -112.31250,378.93750 z M -118.81250,381.68750 C -118.01477,382.00672 -118.24130,382.23327 -119.40625,382.28125 C -120.46041,382.32467 -121.05104,382.08231 -120.71875,381.75000 C -120.38645,381.41771 -119.53438,381.39862 -118.81250,381.68750 z M -135.15625,386.43750 C -135.56850,386.20173 -136.16102,386.60336 -136.62500,387.81250 C -136.94237,388.63955 -137.83981,388.97428 -138.75000,388.62500 C -139.90622,388.18132 -140.12407,388.39927 -139.53125,389.43750 C -138.87475,390.58730 -138.97200,390.63719 -140.06250,389.62500 C -140.80318,388.93750 -141.86000,388.36657 -142.43750,388.37500 C -143.01500,388.38343 -142.82500,388.84184 -142.00000,389.37500 C -141.17500,389.90816 -140.99792,390.33533 -141.59375,390.34375 C -142.18959,390.35217 -142.96291,390.03709 -143.34375,389.65625 C -143.52670,389.47330 -143.77320,389.37894 -144.00000,389.25000 L -144.00000,391.46875 C -142.94079,391.57686 -139.80586,391.37500 -138.18750,391.37500 C -135.84301,391.37500 -135.13079,390.86696 -134.75000,388.87500 C -134.49591,387.54582 -134.74400,386.67327 -135.15625,386.43750 z M -119.75000,386.78125 C -120.16250,387.19375 -120.50000,388.02917 -120.50000,388.62500 C -120.50000,389.22083 -121.11094,389.90157 -121.87500,390.15625 C -122.83567,390.47647 -126.77533,390.05807 -128.25000,389.09375 C -130.43114,387.66744 -130.84429,387.62081 -130.37500,388.84375 C -130.04091,389.71437 -130.37037,390.39680 -131.15625,390.43750 C -131.90259,390.47616 -131.64669,390.83724 -130.59375,391.25000 C -129.54081,391.66277 -127.74081,391.91185 -126.59375,391.78125 C -125.44669,391.65066 -123.26250,391.48335 -121.75000,391.43750 C -119.45833,391.36806 -119.00000,390.90974 -119.00000,388.68750 C -119.00000,387.22084 -119.33750,386.36876 -119.75000,386.78125 z M -114.03125,388.71875 C -114.93659,388.77226 -115.65625,389.17914 -115.65625,389.90625 C -115.65625,390.85887 -114.65780,391.37500 -112.78125,391.37500 C -112.45041,391.37500 -112.27813,391.44036 -112.00000,391.46875 L -112.00000,389.25000 C -112.63000,388.89183 -113.36556,388.67941 -114.03125,388.71875 z M -128.78125,394.37500 C -128.89206,394.37500 -128.90237,394.87500 -128.93750,395.87500 C -128.94478,396.08232 -129.00198,396.20821 -129.03125,396.37500 L -127.90625,396.37500 C -127.95685,396.20340 -127.96190,396.04494 -128.03125,395.87500 C -128.43934,394.87500 -128.67044,394.37500 -128.78125,394.37500 z M -143.81250,394.53125 C -143.83910,394.52576 -143.96861,394.68370 -144.00000,394.68750 L -144.00000,396.37500 L -143.68750,396.37500 C -143.56157,395.29063 -143.53508,394.58849 -143.81250,394.53125 z M -121.81250,394.68750 C -122.53438,394.39863 -123.38645,394.41772 -123.71875,394.75000 C -124.05104,395.08230 -123.46041,395.32467 -122.40625,395.28125 C -121.24130,395.23327 -121.01477,395.00671 -121.81250,394.68750 z M -112.00000,394.68750 C -112.32754,394.72713 -112.97363,395.34899 -113.90625,396.37500 L -112.00000,396.37500 L -112.00000,394.68750 z M -116.37500,395.40625 C -116.93848,395.34717 -117.69227,395.72582 -118.40625,396.37500 L -115.62500,396.37500 C -115.67132,395.83147 -115.88892,395.45721 -116.37500,395.40625 z "
           transform="translate(-108.0000,-195.0000)"
           id="path15000" />
        <path
           style="fill:#5a5a5a;fill-opacity:1.0000000"
           d="M -128.65625,364.37500 C -128.68301,364.47799 -128.68608,364.42733 -128.71875,364.56250 C -129.03828,365.88464 -130.51221,366.36105 -135.31250,366.65625 L -141.50000,367.03125 L -135.00000,366.93750 C -129.22939,366.86261 -128.49350,366.65057 -128.40625,364.87500 C -128.39109,364.56649 -128.40369,364.56204 -128.40625,364.37500 L -128.65625,364.37500 z M -112.65625,364.37500 C -112.68301,364.47799 -112.68608,364.42733 -112.71875,364.56250 C -113.03828,365.88464 -114.51221,366.36105 -119.31250,366.65625 L -125.50000,367.03125 L -119.00000,366.93750 C -113.22939,366.86261 -112.49350,366.65057 -112.40625,364.87500 C -112.39109,364.56649 -112.40369,364.56204 -112.40625,364.37500 L -112.65625,364.37500 z M -135.43750,371.71875 C -135.48790,371.67116 -135.57175,371.95424 -135.71875,372.56250 C -136.03828,373.88464 -137.51221,374.36105 -142.31250,374.65625 L -144.00000,374.75000 L -144.00000,374.96875 L -142.00000,374.93750 C -136.22939,374.86261 -135.49350,374.65057 -135.40625,372.87500 C -135.37116,372.16104 -135.38710,371.76634 -135.43750,371.71875 z M -119.43750,371.71875 C -119.48790,371.67116 -119.57175,371.95424 -119.71875,372.56250 C -120.03828,373.88464 -121.51221,374.36105 -126.31250,374.65625 L -132.50000,375.03125 L -126.00000,374.93750 C -120.22939,374.86261 -119.49350,375.51298 -119.40625,372.87500 C -119.37116,372.16104 -119.38710,371.76634 -119.43750,371.71875 z M -112.00000,374.75000 L -116.50000,375.03125 L -112.00000,374.96875 L -112.00000,374.75000 z M -128.43750,379.71875 C -128.48790,379.67116 -128.57175,379.95424 -128.71875,380.56250 C -129.03828,381.88464 -130.51221,382.36105 -135.31250,382.65625 L -141.50000,383.03125 L -135.00000,382.93750 C -127.97939,383.23761 -128.49350,382.65057 -128.40625,380.87500 C -128.37116,380.16104 -128.38710,379.76634 -128.43750,379.71875 z M -112.43750,379.71875 C -112.48790,379.67116 -112.57175,379.95424 -112.71875,380.56250 C -113.03828,381.88464 -114.51221,382.36105 -119.31250,382.65625 L -125.50000,383.03125 L -119.00000,382.93750 C -113.22939,382.86261 -112.49350,382.65057 -112.40625,380.87500 C -112.37116,380.16104 -112.38710,379.76634 -112.43750,379.71875 z M -135.43750,387.71875 C -135.48790,387.67116 -135.57175,387.95424 -135.71875,388.56250 C -136.03828,389.88464 -137.51221,390.36105 -142.31250,390.65625 L -144.00000,390.75000 L -144.00000,390.96875 L -142.00000,390.93750 C -136.22939,390.86261 -135.49350,390.65057 -135.40625,388.87500 C -135.37116,388.16104 -135.38710,387.76634 -135.43750,387.71875 z M -119.43750,387.71875 C -119.48790,387.67116 -119.57175,387.95424 -119.71875,388.56250 C -120.03828,389.88464 -121.51221,390.36105 -126.31250,390.65625 L -132.50000,391.03125 L -126.00000,390.93750 C -120.22939,390.86261 -119.49350,390.65057 -119.40625,388.87500 C -119.37116,388.16104 -119.38710,387.76634 -119.43750,387.71875 z M -112.00000,390.75000 L -116.50000,391.03125 L -112.00000,390.96875 L -112.00000,390.75000 z M -128.43750,395.71875 C -128.47670,395.68174 -128.56261,396.01453 -128.65625,396.37500 L -128.40625,396.37500 C -128.40961,396.12919 -128.40888,395.74578 -128.43750,395.71875 z M -112.43750,395.71875 C -112.47670,395.68174 -112.56261,396.01453 -112.65625,396.37500 L -112.40625,396.37500 C -112.40961,396.12919 -112.40888,395.74578 -112.43750,395.71875 z "
           transform="translate(-108.0000,-195.0000)"
           id="path15002"
           sodipodi:nodetypes="cccccccccccccccccccccccccccccccccccccccccccccccccccccccccccccccccccccccccccc" />
      </g>
    </g>
    <g
       id="g14574"
       transform="translate(-591.9693,-140.3622)">
      <path
         style="fill:#c7c7c7"
         d="M 613.96928,152.36218 L 618.96928,152.36218 L 618.96928,156.36218 L 613.96928,156.36218 L 613.96928,152.36218 z "
         id="path14590"
         sodipodi:nodetypes="ccccc" />
      <path
         style="fill:#909090"
         d="M 613.96928,159.36218 C 613.96352,147.42215 611.18149,154.08801 614.96928,152.36218 C 618.29253,150.84801 619.96928,147.35107 619.96928,156.36218 L 616.96928,157.86218 L 613.96928,159.36218 z M 617.00000,153.80316 C 617.00000,153.56062 616.55000,153.36218 616.00000,153.36218 C 615.45000,153.36218 615.00000,153.83874 615.00000,154.42120 C 615.00000,155.00366 615.45000,155.20210 616.00000,154.86218 C 616.55000,154.52226 617.00000,154.04570 617.00000,153.80316 z "
         id="path14588"
         sodipodi:nodetypes="cccccccccc" />
      <path
         style="fill:#9e623a"
         d="M 592.22037,161.11218 C 592.74103,148.70320 594.49611,143.36843 598.68589,141.45944 C 602.15129,139.88049 614.17881,140.10535 618.13519,141.82304 C 619.98584,142.62651 620.79964,145.04968 621.82666,147.11218 C 623.24067,149.95184 623.75001,153.47181 623.92483,161.61218 L 623.96928,172.36218 L 607.95201,172.36218 L 594.96928,172.36218 L 592.22037,161.11218 z M 618.00000,154.36218 C 618.00000,153.81218 617.32500,153.36218 616.50000,153.36218 C 615.67500,153.36218 615.00000,153.81218 615.00000,154.36218 C 615.00000,154.91218 615.67500,155.36218 616.50000,155.36218 C 617.32500,155.36218 618.00000,154.91218 618.00000,154.36218 z "
         id="path14586"
         sodipodi:nodetypes="cccccccccccccc" />
      <path
         style="fill:#83522e"
         d="M 592.22037,161.11218 C 592.74103,148.70320 594.49611,143.36843 598.68589,141.45944 C 602.15129,139.88049 614.17881,140.10535 618.13519,141.82304 C 619.98584,142.62651 620.79964,145.04968 621.82666,147.11218 C 623.24067,149.95184 623.75001,153.47181 623.92483,161.61218 L 623.96928,172.36218 L 607.95201,172.36218 L 591.96928,172.36218 L 592.22037,161.11218 z M 601.74326,167.36218 C 602.00632,166.39740 601.85749,166.25470 601.32613,166.96224 C 600.87176,167.56727 599.82500,168.34683 599.00000,168.69460 C 597.94605,169.13888 598.07009,169.25781 599.41713,169.09455 C 600.47156,168.96675 601.51832,168.18718 601.74326,167.36218 z M 605.54112,168.29565 C 606.56718,166.63544 605.64623,166.40523 604.21057,167.96304 C 603.50139,168.73257 603.36233,169.36218 603.90156,169.36218 C 604.44078,169.36218 605.17858,168.88224 605.54112,168.29565 z M 610.17564,166.75455 C 609.62604,163.54813 609.68279,161.94156 610.41910,159.86218 C 610.80861,158.76218 610.40857,159.10106 609.53011,160.61524 C 608.27190,162.78400 608.17419,163.81913 609.06970,165.49242 C 609.95479,167.14623 609.90687,167.82664 608.85325,168.56548 C 607.76287,169.33010 607.79138,169.43018 609.00000,169.08068 C 609.82500,168.84211 610.35404,167.79536 610.17564,166.75455 z M 614.60011,163.28358 L 614.70023,157.86218 L 614.28590,162.84285 C 614.05802,165.58222 613.33797,168.20397 612.68579,168.66898 C 611.86184,169.25645 611.95772,169.39094 613.00000,169.10971 C 614.08222,168.81770 614.52788,167.19502 614.60011,163.28358 z M 620.82130,165.28517 C 620.99801,163.40252 621.56051,161.43468 622.07130,160.91218 C 622.58208,160.38968 623.00000,159.57004 623.00000,159.09075 C 623.00000,158.61147 622.32500,158.89432 621.50000,159.71932 C 620.67500,160.54432 620.00000,162.78897 620.00000,164.70742 C 620.00000,166.62587 619.63998,168.39052 619.19995,168.62885 C 618.75992,168.86719 618.87242,168.98253 619.44995,168.88517 C 620.02748,168.78781 620.64458,167.16781 620.82130,165.28517 z M 600.00000,163.16831 C 600.00000,162.64637 599.32500,162.89432 598.50000,163.71932 C 596.55058,165.66874 596.55058,166.98006 598.50000,165.36218 C 599.32500,164.67749 600.00000,163.69025 600.00000,163.16831 z M 601.53183,159.76668 C 601.60599,159.26920 601.47917,159.19968 601.25000,159.61218 C 601.02083,160.02468 599.97083,160.36218 598.91667,160.36218 C 597.86250,160.36218 597.00000,160.79768 597.00000,161.32996 C 597.00000,162.53816 601.34196,161.04038 601.53183,159.76668 z M 618.00000,154.36218 C 618.00000,153.81218 617.32500,153.36218 616.50000,153.36218 C 615.67500,153.36218 615.00000,153.81218 615.00000,154.36218 C 615.00000,154.91218 615.67500,155.36218 616.50000,155.36218 C 617.32500,155.36218 618.00000,154.91218 618.00000,154.36218 z "
         id="path14584"
         sodipodi:nodetypes="ccccccccccccccccccccccccccccccccccccccccccccccccccccc" />
      <path
         style="fill:#6e4a26"
         d="M 592.19672,161.11218 C 592.89061,143.70235 595.43450,140.36218 608.00000,140.36218 C 620.56550,140.36218 623.10939,143.70235 623.80328,161.11218 L 623.96928,172.36218 L 608.00000,172.36218 L 591.96928,172.36218 L 592.19672,161.11218 z M 593.60417,168.63301 C 593.27188,168.30072 593.03553,168.89135 593.07895,169.94551 C 593.12693,171.11046 593.36389,171.34741 593.68311,170.54968 C 593.97198,169.82780 593.93646,168.96531 593.60417,168.63301 z M 597.07895,170.11218 C 597.14211,169.11218 597.25877,169.11218 597.66228,170.11218 C 597.93969,170.79968 599.02917,171.36218 600.08333,171.36218 C 602.07059,171.36218 602.41897,169.77951 602.02039,162.56215 C 601.92015,160.74714 602.29674,158.70955 602.85725,158.03418 C 603.41776,157.35881 604.11367,153.21882 604.40372,148.83421 C 604.84713,142.13116 604.76820,141.49890 603.90785,144.86218 C 603.34507,147.06218 602.66369,150.43718 602.39365,152.36218 C 601.40731,159.39362 600.99414,160.36218 598.98095,160.36218 C 597.89143,160.36218 597.00000,160.83874 597.00000,161.42120 C 597.00000,162.00366 597.45000,162.20210 598.00000,161.86218 C 598.55000,161.52226 599.00000,161.94570 599.00000,162.80316 C 599.00000,163.66062 598.55000,164.36218 598.00000,164.36218 C 597.45000,164.36218 597.00000,164.79806 597.00000,165.33079 C 597.00000,167.18778 599.88627,165.17663 600.30535,163.02763 C 600.54723,161.78730 600.78582,162.46425 600.86382,164.61218 C 600.99202,168.14244 600.82421,168.36218 598.00000,168.36218 C 596.00000,168.36218 595.00000,168.86218 595.00000,169.86218 C 595.00000,171.66393 596.96601,171.90035 597.07895,170.11218 z M 606.00000,169.44397 C 606.00000,168.38895 606.23892,166.70145 606.53093,165.69397 C 606.84953,164.59474 606.58847,164.76199 605.87812,166.11218 C 605.22706,167.34968 604.31314,168.36218 603.84719,168.36218 C 603.38123,168.36218 603.00000,169.03718 603.00000,169.86218 C 603.00000,170.68718 603.67500,171.36218 604.50000,171.36218 C 605.32500,171.36218 606.00000,170.49898 606.00000,169.44397 z M 609.05497,170.36218 C 609.11264,171.37267 609.42104,171.20949 610.00000,169.86218 C 610.85943,167.86218 610.85943,167.86218 610.94503,169.86218 C 611.01623,171.52587 611.19363,171.60995 612.00000,170.36218 C 612.64625,169.36218 612.97448,169.27885 612.98469,170.11218 C 612.99311,170.79968 613.90000,171.36218 615.00000,171.36218 C 616.76015,171.36218 617.00000,170.69551 617.00000,165.80316 C 617.00000,162.35180 616.62086,160.47847 616.00000,160.86218 C 615.41988,161.22072 615.00000,160.24478 615.00000,158.53783 C 615.00000,156.41146 616.01110,156.06532 617.49423,155.67748 C 619.31488,155.20137 619.07046,153.86405 618.80229,148.69213 C 618.63140,145.39635 618.06532,142.99630 617.50000,143.17074 C 616.40045,143.51002 616.38451,144.04049 617.30159,149.77587 C 617.70056,152.27099 617.58010,153.34228 616.96925,152.73143 C 616.44228,152.20446 615.89612,149.43403 615.75556,146.57491 C 615.57717,142.94628 615.08278,141.37436 614.11833,141.36935 C 612.75331,141.36227 612.85074,144.22191 614.45879,151.36218 C 614.94294,153.51199 614.81649,153.44196 613.55601,150.86218 C 612.74982,149.21218 612.06991,146.58718 612.04510,145.02885 C 612.01634,143.22211 611.54709,142.34526 610.75000,142.60880 C 609.10249,143.15352 608.09077,151.99422 609.20635,156.09761 C 609.77178,158.17740 609.70086,160.05261 609.00780,161.34761 C 608.25816,162.74832 608.24506,163.95156 608.96482,165.29644 C 610.34735,167.87972 610.27420,168.36218 608.50000,168.36218 C 607.67500,168.36218 607.00689,169.14968 607.01531,170.11218 C 607.02840,171.60773 607.17157,171.64408 608.00000,170.36218 C 608.86167,169.02885 608.97888,169.02885 609.05497,170.36218 z M 610.70407,166.61218 C 610.30347,164.98448 610.44957,157.30308 610.97985,152.11218 C 611.38467,148.14945 613.83835,157.31961 613.92315,163.11218 C 613.98062,167.03819 613.63871,168.36218 612.56739,168.36218 C 611.77945,168.36218 610.94096,167.57468 610.70407,166.61218 z M 620.00000,169.86218 C 620.00000,169.03718 619.55000,168.36218 619.00000,168.36218 C 618.45000,168.36218 618.00000,169.03718 618.00000,169.86218 C 618.00000,170.68718 618.45000,171.36218 619.00000,171.36218 C 619.55000,171.36218 620.00000,170.68718 620.00000,169.86218 z M 622.71358,159.36218 C 622.68592,155.75039 622.48950,154.52846 622.27153,156.61218 C 622.05579,158.67468 621.45643,160.36218 620.93963,160.36218 C 619.84365,160.36218 619.71544,165.74512 620.72528,169.36218 L 621.42325,171.86218 L 622.09331,168.86218 C 622.46184,167.21218 622.74097,162.93718 622.71358,159.36218 z M 621.19495,163.86218 C 621.17457,162.21218 621.38201,161.41612 621.65594,162.09315 C 621.92986,162.77018 621.94653,164.12018 621.69299,165.09315 C 621.43945,166.06612 621.21533,165.51218 621.19495,163.86218 z M 607.45988,152.48890 C 607.72949,147.40859 608.21287,142.82677 608.53406,142.30707 C 608.85524,141.78738 608.48104,141.36218 607.70250,141.36218 C 606.63870,141.36218 606.12089,143.56211 605.61861,150.21560 C 605.03509,157.94538 605.47491,163.22061 606.60838,162.08713 C 606.80710,161.88842 607.19027,157.56921 607.45988,152.48890 z M 597.02693,154.11218 C 599.13353,149.47123 599.57369,144.83477 598.00000,143.86218 C 597.39558,143.48863 597.00000,144.86250 597.00000,147.33528 C 597.00000,149.58541 596.34796,152.98696 595.55103,154.89430 C 593.48017,159.85055 594.72055,159.19325 597.02693,154.11218 z M 601.32535,152.11218 C 601.64051,149.22468 602.20725,145.57993 602.58477,144.01274 C 603.16871,141.58866 602.99273,141.21693 601.40590,141.52253 C 599.88467,141.81549 599.59539,142.64009 599.83749,145.99330 C 600.00077,148.25465 599.45209,151.73775 598.61821,153.73352 C 597.19763,157.13343 597.21711,157.36218 598.92720,157.36218 C 600.38953,157.36218 600.86625,156.31855 601.32535,152.11218 z M 621.00207,147.47274 C 620.34405,146.34681 620.08464,147.66763 620.13997,151.86218 L 620.21913,157.86218 L 621.08122,153.47274 C 621.59773,150.84287 621.56600,148.43769 621.00207,147.47274 z M 595.92449,148.36218 C 595.94572,144.74924 594.41527,147.79338 593.66209,152.86218 L 593.06773,156.86218 L 594.48876,153.86218 C 595.27033,152.21218 595.91641,149.73718 595.92449,148.36218 z "
         id="path14582"
         sodipodi:nodetypes="ccccccccccccccccccccccccccccccccccccccccccccccccccccccccccccccccccccccccccccccccccccccccccccccccccccccccccccccccc" />
      <path
         style="fill:#5e4222"
         d="M 592.19672,161.11218 C 592.89061,143.70235 595.43450,140.36218 608.00000,140.36218 C 620.56550,140.36218 623.10939,143.70235 623.80328,161.11218 L 623.96928,172.36218 L 608.00000,172.36218 L 591.96928,172.36218 L 592.19672,161.11218 z M 623.00000,162.42120 C 623.00000,157.50366 622.56965,153.21425 622.04367,152.88917 C 621.51770,152.56410 621.32525,151.67816 621.61603,150.92041 C 622.30451,149.12626 619.47035,143.67902 617.23965,142.50903 C 616.28284,142.00720 612.23370,141.53597 608.24156,141.46186 C 596.14103,141.23725 593.97803,143.99626 593.22821,160.61218 L 592.74310,171.36218 L 607.87155,171.36218 L 623.00000,171.36218 L 623.00000,162.42120 z M 594.19774,163.11218 C 594.49250,157.99249 594.58067,157.85440 597.75000,157.54882 C 600.16439,157.31603 601.00000,157.63742 601.00000,158.79882 C 601.00000,159.69551 600.14714,160.36218 599.00000,160.36218 C 596.77728,160.36218 596.30847,161.87280 598.25000,162.77885 C 599.25000,163.24551 599.25000,163.47885 598.25000,163.94551 C 596.25460,164.87670 596.80560,166.28478 599.00000,165.86218 C 600.25373,165.62073 601.00000,166.01529 601.00000,166.91960 C 601.00000,167.90564 599.87580,168.36218 597.44774,168.36218 L 593.89548,168.36218 L 594.19774,163.11218 z M 603.12432,165.98867 C 603.91984,164.24270 603.88688,163.01932 602.99964,161.36150 C 602.03721,159.56320 602.06127,158.94235 603.11869,158.28883 C 604.03386,157.72322 604.80009,158.30400 605.59523,160.16600 L 606.74659,162.86218 L 607.50008,160.03896 C 607.98465,158.22335 608.59828,157.56046 609.21943,158.18160 C 609.84057,158.80275 609.78276,159.89958 609.05746,161.25482 C 608.26615,162.73338 608.23851,163.93932 608.96482,165.29644 C 610.22159,167.64474 610.26558,168.36218 609.15281,168.36218 C 608.68686,168.36218 607.85334,167.34968 607.30056,166.11218 L 606.29548,163.86218 L 605.58035,166.11218 C 605.18703,167.34968 604.23020,168.36218 603.45405,168.36218 C 602.33177,168.36218 602.26427,167.87628 603.12432,165.98867 z M 611.84651,163.27836 C 611.48486,157.97235 611.70564,157.06222 613.13948,157.94838 C 614.28916,158.65892 614.24912,168.36218 613.09651,168.36218 C 612.59960,168.36218 612.03710,166.07446 611.84651,163.27836 z M 617.17139,164.36218 C 617.43619,161.58545 617.16250,160.36218 616.27643,160.36218 C 615.57439,160.36218 615.00000,159.91218 615.00000,159.36218 C 615.00000,158.81218 615.47656,158.36218 616.05902,158.36218 C 616.64148,158.36218 616.83992,157.91218 616.50000,157.36218 C 616.16008,156.81218 616.58352,156.36218 617.44098,156.36218 C 618.29844,156.36218 619.00000,155.83718 619.00000,155.19551 C 619.00000,154.55385 619.28913,154.31797 619.64250,154.67135 C 619.99588,155.02472 619.73082,155.98160 619.05348,156.79774 C 618.02272,158.03973 618.16251,158.21605 619.91098,157.87932 C 621.25019,157.62142 622.00000,157.99480 622.00000,158.91960 C 622.00000,159.71302 621.55000,160.36218 621.00000,160.36218 C 620.45000,160.36218 620.00000,162.16218 620.00000,164.36218 C 620.00000,167.36741 619.60084,168.36218 618.39496,168.36218 C 617.12551,168.36218 616.86969,167.52585 617.17139,164.36218 z "
         id="path14580"
         sodipodi:nodetypes="cccccccccccccccccccccccccccccccccccccccccccccccccccccccccccccc" />
      <path
         style="fill:#3a2e16"
         d="M 592.19672,161.11218 C 592.89061,143.70235 595.43450,140.36218 608.00000,140.36218 C 620.56550,140.36218 623.10939,143.70235 623.80328,161.11218 L 623.96928,172.36218 L 608.00000,172.36218 L 591.96928,172.36218 L 592.19672,161.11218 z M 622.80049,160.61218 C 622.32014,149.29840 620.76910,144.37934 617.05539,142.39182 C 614.56170,141.05724 601.43830,141.05724 598.94461,142.39182 C 595.23090,144.37934 593.67986,149.29840 593.19951,160.61218 L 592.74310,171.36218 L 608.00000,171.36218 L 623.25690,171.36218 L 622.80049,160.61218 z M 595.00000,163.36218 C 595.00000,158.47329 595.06667,158.36218 598.00000,158.36218 C 599.65000,158.36218 601.00000,158.81218 601.00000,159.36218 C 601.00000,159.91218 600.10000,160.36218 599.00000,160.36218 C 596.77728,160.36218 596.30847,161.87280 598.25000,162.77885 C 599.25000,163.24551 599.25000,163.47885 598.25000,163.94551 C 596.30847,164.85156 596.77728,166.36218 599.00000,166.36218 C 600.10000,166.36218 601.00000,166.81218 601.00000,167.36218 C 601.00000,167.91218 599.65000,168.36218 598.00000,168.36218 C 595.06667,168.36218 595.00000,168.25107 595.00000,163.36218 z M 603.53756,166.61218 C 603.95091,165.64968 604.64265,164.20928 604.64265,163.38428 C 604.64265,162.55928 603.95091,161.07468 603.53756,160.11218 C 603.09678,159.08580 603.21589,158.36218 603.82562,158.36218 C 604.39740,158.36218 605.18703,159.37468 605.58035,160.61218 L 606.29548,162.86218 L 607.30056,160.61218 C 607.85334,159.37468 608.73501,158.36218 609.25980,158.36218 C 609.78818,158.36218 609.87860,159.14312 609.46244,160.11218 C 609.04909,161.07468 608.33525,162.51508 608.33525,163.34008 C 608.33525,164.16508 609.04909,165.64968 609.46244,166.61218 C 609.90322,167.63856 609.78411,168.36218 609.17438,168.36218 C 608.60260,168.36218 607.81297,167.34968 607.41965,166.11218 L 606.70452,163.86218 L 605.69944,166.11218 C 605.14666,167.34968 604.26499,168.36218 603.74020,168.36218 C 603.21182,168.36218 603.12140,167.58124 603.53756,166.61218 z M 612.00000,163.36218 C 612.00000,160.61218 612.45000,158.36218 613.00000,158.36218 C 613.55000,158.36218 614.00000,160.61218 614.00000,163.36218 C 614.00000,166.11218 613.55000,168.36218 613.00000,168.36218 C 612.45000,168.36218 612.00000,166.11218 612.00000,163.36218 z M 618.00000,164.36218 C 618.00000,162.16218 617.55000,160.36218 617.00000,160.36218 C 616.45000,160.36218 616.00000,159.91218 616.00000,159.36218 C 616.00000,158.81218 617.35000,158.36218 619.00000,158.36218 C 620.65000,158.36218 622.00000,158.81218 622.00000,159.36218 C 622.00000,159.91218 621.55000,160.36218 621.00000,160.36218 C 620.45000,160.36218 620.00000,162.16218 620.00000,164.36218 C 620.00000,166.56218 619.55000,168.36218 619.00000,168.36218 C 618.45000,168.36218 618.00000,166.56218 618.00000,164.36218 z "
         id="path14578"
         sodipodi:nodetypes="cccccccccccccccccccccccccccccccccccccccccccccccccccccccc" />
      <path
         style="fill:#000000"
         d="M 595.00000,163.36218 C 595.00000,158.47329 595.06667,158.36218 598.00000,158.36218 C 599.65000,158.36218 601.00000,158.81218 601.00000,159.36218 C 601.00000,159.91218 600.10000,160.36218 599.00000,160.36218 C 596.77728,160.36218 596.74597,162.02905 598.65625,162.49760 C 599.72801,162.76047 599.84309,163.64508 598.78125,163.94551 C 596.68347,164.53906 596.77728,166.36218 599.00000,166.36218 C 600.10000,166.36218 601.00000,166.81218 601.00000,167.36218 C 601.00000,167.91218 599.65000,168.36218 598.00000,168.36218 C 595.06667,168.36218 595.00000,168.25107 595.00000,163.36218 z M 603.53756,166.61218 C 603.95091,165.64968 604.66475,164.25347 604.66475,163.42847 C 604.66475,162.60347 603.95091,161.07468 603.53756,160.11218 C 603.09678,159.08580 603.21589,158.36218 603.82562,158.36218 C 604.39740,158.36218 605.18703,159.37468 605.58035,160.61218 L 606.51702,162.39343 L 607.30056,160.61218 C 607.85334,159.37468 608.73501,158.36218 609.25980,158.36218 C 609.78818,158.36218 609.87860,159.14312 609.46244,160.11218 C 609.04909,161.07468 608.31315,162.53718 608.31315,163.36218 C 608.31315,164.18718 609.04909,165.64968 609.46244,166.61218 C 609.90322,167.63856 609.78411,168.36218 609.17438,168.36218 C 608.60260,168.36218 607.81297,167.34968 607.41965,166.11218 L 606.51702,164.08093 L 605.69944,166.11218 C 605.14666,167.34968 604.26499,168.36218 603.74020,168.36218 C 603.21182,168.36218 603.12140,167.58124 603.53756,166.61218 z M 612.04420,163.27379 C 612.04912,160.52379 611.70000,158.36218 613.00000,158.36218 C 614.51404,158.36218 614.08839,160.47960 614.08839,163.22960 C 614.08839,167.16710 614.05000,168.36218 613.00000,168.36218 C 611.88750,168.36218 612.04420,166.71129 612.04420,163.27379 z M 618.00000,164.36218 C 618.00000,162.16218 618.23750,160.42468 617.68750,160.42468 C 617.13750,160.42468 616.00000,159.91218 616.00000,159.36218 C 616.00000,158.81218 617.35000,158.36218 619.00000,158.36218 C 620.65000,158.36218 622.00000,158.81218 622.00000,159.36218 C 622.00000,159.91218 620.92500,160.48718 620.37500,160.48718 C 619.82500,160.48718 620.00000,162.16218 620.00000,164.36218 C 620.00000,166.56218 619.55000,168.36218 619.00000,168.36218 C 618.45000,168.36218 618.00000,166.56218 618.00000,164.36218 z "
         id="path14576"
         sodipodi:nodetypes="ccccccccccccccccccccccccccccccccccccccccc" />
    </g>
  </g>
</svg>
