<?xml version="1.0" encoding="UTF-8" standalone="no"?>
<!-- Created with Inkscape (http://www.inkscape.org/) -->
<svg
   xmlns:dc="http://purl.org/dc/elements/1.1/"
   xmlns:cc="http://web.resource.org/cc/"
   xmlns:rdf="http://www.w3.org/1999/02/22-rdf-syntax-ns#"
   xmlns:svg="http://www.w3.org/2000/svg"
   xmlns="http://www.w3.org/2000/svg"
   xmlns:xlink="http://www.w3.org/1999/xlink"
   xmlns:sodipodi="http://inkscape.sourceforge.net/DTD/sodipodi-0.dtd"
   xmlns:inkscape="http://www.inkscape.org/namespaces/inkscape"
   sodipodi:docname="05.svg"
   sodipodi:docbase="/home/adam/workspace/Escape-j2se/src/org/spacebar/escape/j2se/resources/tiles"
   inkscape:version="0.43"
   sodipodi:version="0.32"
   id="svg15313"
   height="32px"
   width="32px">
  <defs
     id="defs3">
    <linearGradient
       inkscape:collect="always"
       xlink:href="#linearGradient2685"
       id="linearGradient8140"
       gradientUnits="userSpaceOnUse"
       gradientTransform="scale(1.732051,0.577350)"
       spreadMethod="pad"
       x1="-12.766315"
       y1="296.69754"
       x2="-11.715828"
       y2="301.93048" />
    <linearGradient
       inkscape:collect="always"
       xlink:href="#linearGradient2615"
       id="linearGradient8138"
       gradientUnits="userSpaceOnUse"
       gradientTransform="scale(1.525896,0.655353)"
       x1="-15.950862"
       y1="262.63419"
       x2="-14.394111"
       y2="264.46930" />
    <linearGradient
       inkscape:collect="always"
       xlink:href="#linearGradient2685"
       id="linearGradient8136"
       gradientUnits="userSpaceOnUse"
       gradientTransform="scale(1.732051,0.577350)"
       spreadMethod="pad"
       x1="-12.766315"
       y1="296.69754"
       x2="-10.865437"
       y2="301.78308" />
    <linearGradient
       inkscape:collect="always"
       xlink:href="#linearGradient2615"
       id="linearGradient8134"
       gradientUnits="userSpaceOnUse"
       gradientTransform="scale(1.525896,0.655353)"
       x1="-15.950862"
       y1="262.63419"
       x2="-14.394111"
       y2="264.46930" />
    <linearGradient
       inkscape:collect="always"
       xlink:href="#linearGradient2685"
       id="linearGradient8132"
       gradientUnits="userSpaceOnUse"
       gradientTransform="scale(1.732051,0.577350)"
       spreadMethod="pad"
       x1="-12.266085"
       y1="298.17163"
       x2="-10.565296"
       y2="302.96234" />
    <linearGradient
       inkscape:collect="always"
       xlink:href="#linearGradient2615"
       id="linearGradient8130"
       gradientUnits="userSpaceOnUse"
       gradientTransform="scale(1.525896,0.655353)"
       x1="-15.950862"
       y1="262.63419"
       x2="-14.394111"
       y2="264.46930" />
    <linearGradient
       inkscape:collect="always"
       xlink:href="#linearGradient2685"
       id="linearGradient8128"
       gradientUnits="userSpaceOnUse"
       gradientTransform="scale(1.732051,0.577350)"
       spreadMethod="pad"
       x1="-12.116015"
       y1="297.28717"
       x2="-11.015503"
       y2="301.41449" />
    <linearGradient
       inkscape:collect="always"
       xlink:href="#linearGradient2615"
       id="linearGradient8126"
       gradientUnits="userSpaceOnUse"
       gradientTransform="scale(1.525896,0.655353)"
       x1="-15.950862"
       y1="262.63419"
       x2="-14.394111"
       y2="264.46930" />
    <linearGradient
       inkscape:collect="always"
       xlink:href="#linearGradient2685"
       id="linearGradient8124"
       gradientUnits="userSpaceOnUse"
       gradientTransform="scale(1.732051,0.577350)"
       spreadMethod="pad"
       x1="-12.641255"
       y1="297.50821"
       x2="-11.990957"
       y2="302.22537" />
    <linearGradient
       inkscape:collect="always"
       xlink:href="#linearGradient2615"
       id="linearGradient8122"
       gradientUnits="userSpaceOnUse"
       gradientTransform="scale(1.525896,0.655353)"
       x1="-15.950862"
       y1="262.63419"
       x2="-14.394111"
       y2="264.46930" />
    <linearGradient
       inkscape:collect="always"
       xlink:href="#linearGradient2685"
       id="linearGradient8120"
       gradientUnits="userSpaceOnUse"
       gradientTransform="scale(1.732051,0.577350)"
       spreadMethod="pad"
       x1="-13.241533"
       y1="297.43451"
       x2="-9.8899860"
       y2="303.10980" />
    <linearGradient
       inkscape:collect="always"
       xlink:href="#linearGradient2615"
       id="linearGradient8118"
       gradientUnits="userSpaceOnUse"
       gradientTransform="scale(1.525896,0.655353)"
       x1="-15.950862"
       y1="262.63419"
       x2="-14.394111"
       y2="264.46930" />
    <linearGradient
       inkscape:collect="always"
       xlink:href="#linearGradient2685"
       id="linearGradient8116"
       gradientUnits="userSpaceOnUse"
       gradientTransform="scale(1.732051,0.577350)"
       spreadMethod="pad"
       x1="-12.616244"
       y1="296.62378"
       x2="-11.715830"
       y2="302.37277" />
    <linearGradient
       inkscape:collect="always"
       xlink:href="#linearGradient2615"
       id="linearGradient8114"
       gradientUnits="userSpaceOnUse"
       gradientTransform="scale(1.525896,0.655353)"
       x1="-15.950862"
       y1="262.63419"
       x2="-14.394111"
       y2="264.46930" />
    <linearGradient
       inkscape:collect="always"
       xlink:href="#linearGradient2685"
       id="linearGradient8112"
       gradientUnits="userSpaceOnUse"
       gradientTransform="scale(1.732051,0.577350)"
       spreadMethod="pad"
       x1="-11.940928"
       y1="298.02402"
       x2="-10.065067"
       y2="302.22537" />
    <linearGradient
       inkscape:collect="always"
       xlink:href="#linearGradient2615"
       id="linearGradient8110"
       gradientUnits="userSpaceOnUse"
       gradientTransform="scale(1.525896,0.655353)"
       x1="-15.950862"
       y1="262.63419"
       x2="-14.394111"
       y2="264.46930" />
    <pattern
       inkscape:collect="always"
       xlink:href="#pattern6922"
       id="pattern7397"
       patternTransform="translate(0.000000,140.3622)" />
    <pattern
       inkscape:collect="always"
       xlink:href="#pattern6914"
       id="pattern6922"
       patternTransform="translate(0.000000,140.3622)" />
    <pattern
       patternUnits="userSpaceOnUse"
       width="32.000000"
       height="32.000000"
       patternTransform="translate(-16.00000,140.3622)"
       id="pattern6914">
      <rect
         inkscape:export-filename="/home/adam/brick.png"
         y="140.36218"
         x="-16.000000"
         height="32.000000"
         width="32.000000"
         id="rect6916"
         style="fill:#c4c4c4;fill-opacity:1.0000000;fill-rule:evenodd;stroke:none;stroke-width:0.72500002;stroke-linecap:square;stroke-linejoin:miter;stroke-miterlimit:4.0000000;stroke-dashoffset:0.0000000;stroke-opacity:1.0000000"
         inkscape:export-xdpi="360.00000"
         inkscape:export-ydpi="360.00000"
         transform="translate(16.00000,-140.3622)" />
    </pattern>
    <linearGradient
       id="linearGradient2615">
      <stop
         style="stop-color:#eaeaea;stop-opacity:1.0000000;"
         offset="0.0000000"
         id="stop2617" />
      <stop
         style="stop-color:#dfdfdf;stop-opacity:0;"
         offset="1"
         id="stop2619" />
    </linearGradient>
    <linearGradient
       id="linearGradient2685">
      <stop
         style="stop-color:#c8c8c8;stop-opacity:1.0000000;"
         offset="0.0000000"
         id="stop2687" />
      <stop
         style="stop-color:#919191;stop-opacity:1.0000000;"
         offset="1.0000000"
         id="stop2689" />
    </linearGradient>
  </defs>
  <sodipodi:namedview
     inkscape:window-y="48"
     inkscape:window-x="194"
     inkscape:window-height="541"
     inkscape:window-width="792"
     inkscape:document-units="px"
     inkscape:grid-bbox="true"
     showgrid="true"
     inkscape:current-layer="layer1"
     inkscape:cy="15.999999"
     inkscape:cx="16"
     inkscape:zoom="11.197802"
     inkscape:pageshadow="2"
     inkscape:pageopacity="0.0"
     borderopacity="1.0"
     bordercolor="#666666"
     pagecolor="#ffffff"
     id="base" />
  <metadata
     id="metadata4">
    <rdf:RDF>
      <cc:Work
         rdf:about="">
        <dc:format>image/svg+xml</dc:format>
        <dc:type
           rdf:resource="http://purl.org/dc/dcmitype/StillImage" />
      </cc:Work>
    </rdf:RDF>
  </metadata>
  <g
     inkscape:groupmode="layer"
     inkscape:label="Layer 1"
     id="layer1">
    <g
       id="g14574"
       transform="translate(-591.9693,-140.3622)">
      <path
         style="fill:#c7c7c7"
         d="M 613.96928,152.36218 L 618.96928,152.36218 L 618.96928,156.36218 L 613.96928,156.36218 L 613.96928,152.36218 z "
         id="path14590"
         sodipodi:nodetypes="ccccc" />
      <path
         style="fill:#909090"
         d="M 613.96928,159.36218 C 613.96352,147.42215 611.18149,154.08801 614.96928,152.36218 C 618.29253,150.84801 619.96928,147.35107 619.96928,156.36218 L 616.96928,157.86218 L 613.96928,159.36218 z M 617.00000,153.80316 C 617.00000,153.56062 616.55000,153.36218 616.00000,153.36218 C 615.45000,153.36218 615.00000,153.83874 615.00000,154.42120 C 615.00000,155.00366 615.45000,155.20210 616.00000,154.86218 C 616.55000,154.52226 617.00000,154.04570 617.00000,153.80316 z "
         id="path14588"
         sodipodi:nodetypes="cccccccccc" />
      <path
         style="fill:#9e623a"
         d="M 592.22037,161.11218 C 592.74103,148.70320 594.49611,143.36843 598.68589,141.45944 C 602.15129,139.88049 614.17881,140.10535 618.13519,141.82304 C 619.98584,142.62651 620.79964,145.04968 621.82666,147.11218 C 623.24067,149.95184 623.75001,153.47181 623.92483,161.61218 L 623.96928,172.36218 L 607.95201,172.36218 L 594.96928,172.36218 L 592.22037,161.11218 z M 618.00000,154.36218 C 618.00000,153.81218 617.32500,153.36218 616.50000,153.36218 C 615.67500,153.36218 615.00000,153.81218 615.00000,154.36218 C 615.00000,154.91218 615.67500,155.36218 616.50000,155.36218 C 617.32500,155.36218 618.00000,154.91218 618.00000,154.36218 z "
         id="path14586"
         sodipodi:nodetypes="cccccccccccccc" />
      <path
         style="fill:#83522e"
         d="M 592.22037,161.11218 C 592.74103,148.70320 594.49611,143.36843 598.68589,141.45944 C 602.15129,139.88049 614.17881,140.10535 618.13519,141.82304 C 619.98584,142.62651 620.79964,145.04968 621.82666,147.11218 C 623.24067,149.95184 623.75001,153.47181 623.92483,161.61218 L 623.96928,172.36218 L 607.95201,172.36218 L 591.96928,172.36218 L 592.22037,161.11218 z M 601.74326,167.36218 C 602.00632,166.39740 601.85749,166.25470 601.32613,166.96224 C 600.87176,167.56727 599.82500,168.34683 599.00000,168.69460 C 597.94605,169.13888 598.07009,169.25781 599.41713,169.09455 C 600.47156,168.96675 601.51832,168.18718 601.74326,167.36218 z M 605.54112,168.29565 C 606.56718,166.63544 605.64623,166.40523 604.21057,167.96304 C 603.50139,168.73257 603.36233,169.36218 603.90156,169.36218 C 604.44078,169.36218 605.17858,168.88224 605.54112,168.29565 z M 610.17564,166.75455 C 609.62604,163.54813 609.68279,161.94156 610.41910,159.86218 C 610.80861,158.76218 610.40857,159.10106 609.53011,160.61524 C 608.27190,162.78400 608.17419,163.81913 609.06970,165.49242 C 609.95479,167.14623 609.90687,167.82664 608.85325,168.56548 C 607.76287,169.33010 607.79138,169.43018 609.00000,169.08068 C 609.82500,168.84211 610.35404,167.79536 610.17564,166.75455 z M 614.60011,163.28358 L 614.70023,157.86218 L 614.28590,162.84285 C 614.05802,165.58222 613.33797,168.20397 612.68579,168.66898 C 611.86184,169.25645 611.95772,169.39094 613.00000,169.10971 C 614.08222,168.81770 614.52788,167.19502 614.60011,163.28358 z M 620.82130,165.28517 C 620.99801,163.40252 621.56051,161.43468 622.07130,160.91218 C 622.58208,160.38968 623.00000,159.57004 623.00000,159.09075 C 623.00000,158.61147 622.32500,158.89432 621.50000,159.71932 C 620.67500,160.54432 620.00000,162.78897 620.00000,164.70742 C 620.00000,166.62587 619.63998,168.39052 619.19995,168.62885 C 618.75992,168.86719 618.87242,168.98253 619.44995,168.88517 C 620.02748,168.78781 620.64458,167.16781 620.82130,165.28517 z M 600.00000,163.16831 C 600.00000,162.64637 599.32500,162.89432 598.50000,163.71932 C 596.55058,165.66874 596.55058,166.98006 598.50000,165.36218 C 599.32500,164.67749 600.00000,163.69025 600.00000,163.16831 z M 601.53183,159.76668 C 601.60599,159.26920 601.47917,159.19968 601.25000,159.61218 C 601.02083,160.02468 599.97083,160.36218 598.91667,160.36218 C 597.86250,160.36218 597.00000,160.79768 597.00000,161.32996 C 597.00000,162.53816 601.34196,161.04038 601.53183,159.76668 z M 618.00000,154.36218 C 618.00000,153.81218 617.32500,153.36218 616.50000,153.36218 C 615.67500,153.36218 615.00000,153.81218 615.00000,154.36218 C 615.00000,154.91218 615.67500,155.36218 616.50000,155.36218 C 617.32500,155.36218 618.00000,154.91218 618.00000,154.36218 z "
         id="path14584"
         sodipodi:nodetypes="ccccccccccccccccccccccccccccccccccccccccccccccccccccc" />
      <path
         style="fill:#6e4a26"
         d="M 592.19672,161.11218 C 592.89061,143.70235 595.43450,140.36218 608.00000,140.36218 C 620.56550,140.36218 623.10939,143.70235 623.80328,161.11218 L 623.96928,172.36218 L 608.00000,172.36218 L 591.96928,172.36218 L 592.19672,161.11218 z M 593.60417,168.63301 C 593.27188,168.30072 593.03553,168.89135 593.07895,169.94551 C 593.12693,171.11046 593.36389,171.34741 593.68311,170.54968 C 593.97198,169.82780 593.93646,168.96531 593.60417,168.63301 z M 597.07895,170.11218 C 597.14211,169.11218 597.25877,169.11218 597.66228,170.11218 C 597.93969,170.79968 599.02917,171.36218 600.08333,171.36218 C 602.07059,171.36218 602.41897,169.77951 602.02039,162.56215 C 601.92015,160.74714 602.29674,158.70955 602.85725,158.03418 C 603.41776,157.35881 604.11367,153.21882 604.40372,148.83421 C 604.84713,142.13116 604.76820,141.49890 603.90785,144.86218 C 603.34507,147.06218 602.66369,150.43718 602.39365,152.36218 C 601.40731,159.39362 600.99414,160.36218 598.98095,160.36218 C 597.89143,160.36218 597.00000,160.83874 597.00000,161.42120 C 597.00000,162.00366 597.45000,162.20210 598.00000,161.86218 C 598.55000,161.52226 599.00000,161.94570 599.00000,162.80316 C 599.00000,163.66062 598.55000,164.36218 598.00000,164.36218 C 597.45000,164.36218 597.00000,164.79806 597.00000,165.33079 C 597.00000,167.18778 599.88627,165.17663 600.30535,163.02763 C 600.54723,161.78730 600.78582,162.46425 600.86382,164.61218 C 600.99202,168.14244 600.82421,168.36218 598.00000,168.36218 C 596.00000,168.36218 595.00000,168.86218 595.00000,169.86218 C 595.00000,171.66393 596.96601,171.90035 597.07895,170.11218 z M 606.00000,169.44397 C 606.00000,168.38895 606.23892,166.70145 606.53093,165.69397 C 606.84953,164.59474 606.58847,164.76199 605.87812,166.11218 C 605.22706,167.34968 604.31314,168.36218 603.84719,168.36218 C 603.38123,168.36218 603.00000,169.03718 603.00000,169.86218 C 603.00000,170.68718 603.67500,171.36218 604.50000,171.36218 C 605.32500,171.36218 606.00000,170.49898 606.00000,169.44397 z M 609.05497,170.36218 C 609.11264,171.37267 609.42104,171.20949 610.00000,169.86218 C 610.85943,167.86218 610.85943,167.86218 610.94503,169.86218 C 611.01623,171.52587 611.19363,171.60995 612.00000,170.36218 C 612.64625,169.36218 612.97448,169.27885 612.98469,170.11218 C 612.99311,170.79968 613.90000,171.36218 615.00000,171.36218 C 616.76015,171.36218 617.00000,170.69551 617.00000,165.80316 C 617.00000,162.35180 616.62086,160.47847 616.00000,160.86218 C 615.41988,161.22072 615.00000,160.24478 615.00000,158.53783 C 615.00000,156.41146 616.01110,156.06532 617.49423,155.67748 C 619.31488,155.20137 619.07046,153.86405 618.80229,148.69213 C 618.63140,145.39635 618.06532,142.99630 617.50000,143.17074 C 616.40045,143.51002 616.38451,144.04049 617.30159,149.77587 C 617.70056,152.27099 617.58010,153.34228 616.96925,152.73143 C 616.44228,152.20446 615.89612,149.43403 615.75556,146.57491 C 615.57717,142.94628 615.08278,141.37436 614.11833,141.36935 C 612.75331,141.36227 612.85074,144.22191 614.45879,151.36218 C 614.94294,153.51199 614.81649,153.44196 613.55601,150.86218 C 612.74982,149.21218 612.06991,146.58718 612.04510,145.02885 C 612.01634,143.22211 611.54709,142.34526 610.75000,142.60880 C 609.10249,143.15352 608.09077,151.99422 609.20635,156.09761 C 609.77178,158.17740 609.70086,160.05261 609.00780,161.34761 C 608.25816,162.74832 608.24506,163.95156 608.96482,165.29644 C 610.34735,167.87972 610.27420,168.36218 608.50000,168.36218 C 607.67500,168.36218 607.00689,169.14968 607.01531,170.11218 C 607.02840,171.60773 607.17157,171.64408 608.00000,170.36218 C 608.86167,169.02885 608.97888,169.02885 609.05497,170.36218 z M 610.70407,166.61218 C 610.30347,164.98448 610.44957,157.30308 610.97985,152.11218 C 611.38467,148.14945 613.83835,157.31961 613.92315,163.11218 C 613.98062,167.03819 613.63871,168.36218 612.56739,168.36218 C 611.77945,168.36218 610.94096,167.57468 610.70407,166.61218 z M 620.00000,169.86218 C 620.00000,169.03718 619.55000,168.36218 619.00000,168.36218 C 618.45000,168.36218 618.00000,169.03718 618.00000,169.86218 C 618.00000,170.68718 618.45000,171.36218 619.00000,171.36218 C 619.55000,171.36218 620.00000,170.68718 620.00000,169.86218 z M 622.71358,159.36218 C 622.68592,155.75039 622.48950,154.52846 622.27153,156.61218 C 622.05579,158.67468 621.45643,160.36218 620.93963,160.36218 C 619.84365,160.36218 619.71544,165.74512 620.72528,169.36218 L 621.42325,171.86218 L 622.09331,168.86218 C 622.46184,167.21218 622.74097,162.93718 622.71358,159.36218 z M 621.19495,163.86218 C 621.17457,162.21218 621.38201,161.41612 621.65594,162.09315 C 621.92986,162.77018 621.94653,164.12018 621.69299,165.09315 C 621.43945,166.06612 621.21533,165.51218 621.19495,163.86218 z M 607.45988,152.48890 C 607.72949,147.40859 608.21287,142.82677 608.53406,142.30707 C 608.85524,141.78738 608.48104,141.36218 607.70250,141.36218 C 606.63870,141.36218 606.12089,143.56211 605.61861,150.21560 C 605.03509,157.94538 605.47491,163.22061 606.60838,162.08713 C 606.80710,161.88842 607.19027,157.56921 607.45988,152.48890 z M 597.02693,154.11218 C 599.13353,149.47123 599.57369,144.83477 598.00000,143.86218 C 597.39558,143.48863 597.00000,144.86250 597.00000,147.33528 C 597.00000,149.58541 596.34796,152.98696 595.55103,154.89430 C 593.48017,159.85055 594.72055,159.19325 597.02693,154.11218 z M 601.32535,152.11218 C 601.64051,149.22468 602.20725,145.57993 602.58477,144.01274 C 603.16871,141.58866 602.99273,141.21693 601.40590,141.52253 C 599.88467,141.81549 599.59539,142.64009 599.83749,145.99330 C 600.00077,148.25465 599.45209,151.73775 598.61821,153.73352 C 597.19763,157.13343 597.21711,157.36218 598.92720,157.36218 C 600.38953,157.36218 600.86625,156.31855 601.32535,152.11218 z M 621.00207,147.47274 C 620.34405,146.34681 620.08464,147.66763 620.13997,151.86218 L 620.21913,157.86218 L 621.08122,153.47274 C 621.59773,150.84287 621.56600,148.43769 621.00207,147.47274 z M 595.92449,148.36218 C 595.94572,144.74924 594.41527,147.79338 593.66209,152.86218 L 593.06773,156.86218 L 594.48876,153.86218 C 595.27033,152.21218 595.91641,149.73718 595.92449,148.36218 z "
         id="path14582"
         sodipodi:nodetypes="ccccccccccccccccccccccccccccccccccccccccccccccccccccccccccccccccccccccccccccccccccccccccccccccccccccccccccccccccc" />
      <path
         style="fill:#5e4222"
         d="M 592.19672,161.11218 C 592.89061,143.70235 595.43450,140.36218 608.00000,140.36218 C 620.56550,140.36218 623.10939,143.70235 623.80328,161.11218 L 623.96928,172.36218 L 608.00000,172.36218 L 591.96928,172.36218 L 592.19672,161.11218 z M 623.00000,162.42120 C 623.00000,157.50366 622.56965,153.21425 622.04367,152.88917 C 621.51770,152.56410 621.32525,151.67816 621.61603,150.92041 C 622.30451,149.12626 619.47035,143.67902 617.23965,142.50903 C 616.28284,142.00720 612.23370,141.53597 608.24156,141.46186 C 596.14103,141.23725 593.97803,143.99626 593.22821,160.61218 L 592.74310,171.36218 L 607.87155,171.36218 L 623.00000,171.36218 L 623.00000,162.42120 z M 594.19774,163.11218 C 594.49250,157.99249 594.58067,157.85440 597.75000,157.54882 C 600.16439,157.31603 601.00000,157.63742 601.00000,158.79882 C 601.00000,159.69551 600.14714,160.36218 599.00000,160.36218 C 596.77728,160.36218 596.30847,161.87280 598.25000,162.77885 C 599.25000,163.24551 599.25000,163.47885 598.25000,163.94551 C 596.25460,164.87670 596.80560,166.28478 599.00000,165.86218 C 600.25373,165.62073 601.00000,166.01529 601.00000,166.91960 C 601.00000,167.90564 599.87580,168.36218 597.44774,168.36218 L 593.89548,168.36218 L 594.19774,163.11218 z M 603.12432,165.98867 C 603.91984,164.24270 603.88688,163.01932 602.99964,161.36150 C 602.03721,159.56320 602.06127,158.94235 603.11869,158.28883 C 604.03386,157.72322 604.80009,158.30400 605.59523,160.16600 L 606.74659,162.86218 L 607.50008,160.03896 C 607.98465,158.22335 608.59828,157.56046 609.21943,158.18160 C 609.84057,158.80275 609.78276,159.89958 609.05746,161.25482 C 608.26615,162.73338 608.23851,163.93932 608.96482,165.29644 C 610.22159,167.64474 610.26558,168.36218 609.15281,168.36218 C 608.68686,168.36218 607.85334,167.34968 607.30056,166.11218 L 606.29548,163.86218 L 605.58035,166.11218 C 605.18703,167.34968 604.23020,168.36218 603.45405,168.36218 C 602.33177,168.36218 602.26427,167.87628 603.12432,165.98867 z M 611.84651,163.27836 C 611.48486,157.97235 611.70564,157.06222 613.13948,157.94838 C 614.28916,158.65892 614.24912,168.36218 613.09651,168.36218 C 612.59960,168.36218 612.03710,166.07446 611.84651,163.27836 z M 617.17139,164.36218 C 617.43619,161.58545 617.16250,160.36218 616.27643,160.36218 C 615.57439,160.36218 615.00000,159.91218 615.00000,159.36218 C 615.00000,158.81218 615.47656,158.36218 616.05902,158.36218 C 616.64148,158.36218 616.83992,157.91218 616.50000,157.36218 C 616.16008,156.81218 616.58352,156.36218 617.44098,156.36218 C 618.29844,156.36218 619.00000,155.83718 619.00000,155.19551 C 619.00000,154.55385 619.28913,154.31797 619.64250,154.67135 C 619.99588,155.02472 619.73082,155.98160 619.05348,156.79774 C 618.02272,158.03973 618.16251,158.21605 619.91098,157.87932 C 621.25019,157.62142 622.00000,157.99480 622.00000,158.91960 C 622.00000,159.71302 621.55000,160.36218 621.00000,160.36218 C 620.45000,160.36218 620.00000,162.16218 620.00000,164.36218 C 620.00000,167.36741 619.60084,168.36218 618.39496,168.36218 C 617.12551,168.36218 616.86969,167.52585 617.17139,164.36218 z "
         id="path14580"
         sodipodi:nodetypes="cccccccccccccccccccccccccccccccccccccccccccccccccccccccccccccc" />
      <path
         style="fill:#3a2e16"
         d="M 592.19672,161.11218 C 592.89061,143.70235 595.43450,140.36218 608.00000,140.36218 C 620.56550,140.36218 623.10939,143.70235 623.80328,161.11218 L 623.96928,172.36218 L 608.00000,172.36218 L 591.96928,172.36218 L 592.19672,161.11218 z M 622.80049,160.61218 C 622.32014,149.29840 620.76910,144.37934 617.05539,142.39182 C 614.56170,141.05724 601.43830,141.05724 598.94461,142.39182 C 595.23090,144.37934 593.67986,149.29840 593.19951,160.61218 L 592.74310,171.36218 L 608.00000,171.36218 L 623.25690,171.36218 L 622.80049,160.61218 z M 595.00000,163.36218 C 595.00000,158.47329 595.06667,158.36218 598.00000,158.36218 C 599.65000,158.36218 601.00000,158.81218 601.00000,159.36218 C 601.00000,159.91218 600.10000,160.36218 599.00000,160.36218 C 596.77728,160.36218 596.30847,161.87280 598.25000,162.77885 C 599.25000,163.24551 599.25000,163.47885 598.25000,163.94551 C 596.30847,164.85156 596.77728,166.36218 599.00000,166.36218 C 600.10000,166.36218 601.00000,166.81218 601.00000,167.36218 C 601.00000,167.91218 599.65000,168.36218 598.00000,168.36218 C 595.06667,168.36218 595.00000,168.25107 595.00000,163.36218 z M 603.53756,166.61218 C 603.95091,165.64968 604.64265,164.20928 604.64265,163.38428 C 604.64265,162.55928 603.95091,161.07468 603.53756,160.11218 C 603.09678,159.08580 603.21589,158.36218 603.82562,158.36218 C 604.39740,158.36218 605.18703,159.37468 605.58035,160.61218 L 606.29548,162.86218 L 607.30056,160.61218 C 607.85334,159.37468 608.73501,158.36218 609.25980,158.36218 C 609.78818,158.36218 609.87860,159.14312 609.46244,160.11218 C 609.04909,161.07468 608.33525,162.51508 608.33525,163.34008 C 608.33525,164.16508 609.04909,165.64968 609.46244,166.61218 C 609.90322,167.63856 609.78411,168.36218 609.17438,168.36218 C 608.60260,168.36218 607.81297,167.34968 607.41965,166.11218 L 606.70452,163.86218 L 605.69944,166.11218 C 605.14666,167.34968 604.26499,168.36218 603.74020,168.36218 C 603.21182,168.36218 603.12140,167.58124 603.53756,166.61218 z M 612.00000,163.36218 C 612.00000,160.61218 612.45000,158.36218 613.00000,158.36218 C 613.55000,158.36218 614.00000,160.61218 614.00000,163.36218 C 614.00000,166.11218 613.55000,168.36218 613.00000,168.36218 C 612.45000,168.36218 612.00000,166.11218 612.00000,163.36218 z M 618.00000,164.36218 C 618.00000,162.16218 617.55000,160.36218 617.00000,160.36218 C 616.45000,160.36218 616.00000,159.91218 616.00000,159.36218 C 616.00000,158.81218 617.35000,158.36218 619.00000,158.36218 C 620.65000,158.36218 622.00000,158.81218 622.00000,159.36218 C 622.00000,159.91218 621.55000,160.36218 621.00000,160.36218 C 620.45000,160.36218 620.00000,162.16218 620.00000,164.36218 C 620.00000,166.56218 619.55000,168.36218 619.00000,168.36218 C 618.45000,168.36218 618.00000,166.56218 618.00000,164.36218 z "
         id="path14578"
         sodipodi:nodetypes="cccccccccccccccccccccccccccccccccccccccccccccccccccccccc" />
      <path
         style="fill:#000000"
         d="M 595.00000,163.36218 C 595.00000,158.47329 595.06667,158.36218 598.00000,158.36218 C 599.65000,158.36218 601.00000,158.81218 601.00000,159.36218 C 601.00000,159.91218 600.10000,160.36218 599.00000,160.36218 C 596.77728,160.36218 596.74597,162.02905 598.65625,162.49760 C 599.72801,162.76047 599.84309,163.64508 598.78125,163.94551 C 596.68347,164.53906 596.77728,166.36218 599.00000,166.36218 C 600.10000,166.36218 601.00000,166.81218 601.00000,167.36218 C 601.00000,167.91218 599.65000,168.36218 598.00000,168.36218 C 595.06667,168.36218 595.00000,168.25107 595.00000,163.36218 z M 603.53756,166.61218 C 603.95091,165.64968 604.66475,164.25347 604.66475,163.42847 C 604.66475,162.60347 603.95091,161.07468 603.53756,160.11218 C 603.09678,159.08580 603.21589,158.36218 603.82562,158.36218 C 604.39740,158.36218 605.18703,159.37468 605.58035,160.61218 L 606.51702,162.39343 L 607.30056,160.61218 C 607.85334,159.37468 608.73501,158.36218 609.25980,158.36218 C 609.78818,158.36218 609.87860,159.14312 609.46244,160.11218 C 609.04909,161.07468 608.31315,162.53718 608.31315,163.36218 C 608.31315,164.18718 609.04909,165.64968 609.46244,166.61218 C 609.90322,167.63856 609.78411,168.36218 609.17438,168.36218 C 608.60260,168.36218 607.81297,167.34968 607.41965,166.11218 L 606.51702,164.08093 L 605.69944,166.11218 C 605.14666,167.34968 604.26499,168.36218 603.74020,168.36218 C 603.21182,168.36218 603.12140,167.58124 603.53756,166.61218 z M 612.04420,163.27379 C 612.04912,160.52379 611.70000,158.36218 613.00000,158.36218 C 614.51404,158.36218 614.08839,160.47960 614.08839,163.22960 C 614.08839,167.16710 614.05000,168.36218 613.00000,168.36218 C 611.88750,168.36218 612.04420,166.71129 612.04420,163.27379 z M 618.00000,164.36218 C 618.00000,162.16218 618.23750,160.42468 617.68750,160.42468 C 617.13750,160.42468 616.00000,159.91218 616.00000,159.36218 C 616.00000,158.81218 617.35000,158.36218 619.00000,158.36218 C 620.65000,158.36218 622.00000,158.81218 622.00000,159.36218 C 622.00000,159.91218 620.92500,160.48718 620.37500,160.48718 C 619.82500,160.48718 620.00000,162.16218 620.00000,164.36218 C 620.00000,166.56218 619.55000,168.36218 619.00000,168.36218 C 618.45000,168.36218 618.00000,166.56218 618.00000,164.36218 z "
         id="path14576"
         sodipodi:nodetypes="ccccccccccccccccccccccccccccccccccccccccc" />
    </g>
  </g>
</svg>
