<?xml version="1.0" encoding="UTF-8" standalone="no"?>
<!-- Created with Inkscape (http://www.inkscape.org/) -->
<svg
   xmlns:dc="http://purl.org/dc/elements/1.1/"
   xmlns:cc="http://web.resource.org/cc/"
   xmlns:rdf="http://www.w3.org/1999/02/22-rdf-syntax-ns#"
   xmlns:svg="http://www.w3.org/2000/svg"
   xmlns="http://www.w3.org/2000/svg"
   xmlns:xlink="http://www.w3.org/1999/xlink"
   xmlns:sodipodi="http://inkscape.sourceforge.net/DTD/sodipodi-0.dtd"
   xmlns:inkscape="http://www.inkscape.org/namespaces/inkscape"
   sodipodi:docname="06.svg"
   sodipodi:docbase="/home/adam/workspace/Escape/src/org/spacebar/escape/j2se/resources/tiles"
   inkscape:version="0.41"
   sodipodi:version="0.32"
   id="svg21056"
   height="32px"
   width="32px">
  <defs
     id="defs3">
    <linearGradient
       inkscape:collect="always"
       xlink:href="#linearGradient2685"
       id="linearGradient8140"
       gradientUnits="userSpaceOnUse"
       gradientTransform="scale(1.732051,0.577350)"
       spreadMethod="pad"
       x1="-12.766315"
       y1="296.69754"
       x2="-11.715828"
       y2="301.93048" />
    <linearGradient
       inkscape:collect="always"
       xlink:href="#linearGradient2615"
       id="linearGradient8138"
       gradientUnits="userSpaceOnUse"
       gradientTransform="scale(1.525896,0.655353)"
       x1="-15.950862"
       y1="262.63419"
       x2="-14.394111"
       y2="264.46930" />
    <linearGradient
       inkscape:collect="always"
       xlink:href="#linearGradient2685"
       id="linearGradient8136"
       gradientUnits="userSpaceOnUse"
       gradientTransform="scale(1.732051,0.577350)"
       spreadMethod="pad"
       x1="-12.766315"
       y1="296.69754"
       x2="-10.865437"
       y2="301.78308" />
    <linearGradient
       inkscape:collect="always"
       xlink:href="#linearGradient2615"
       id="linearGradient8134"
       gradientUnits="userSpaceOnUse"
       gradientTransform="scale(1.525896,0.655353)"
       x1="-15.950862"
       y1="262.63419"
       x2="-14.394111"
       y2="264.46930" />
    <linearGradient
       inkscape:collect="always"
       xlink:href="#linearGradient2685"
       id="linearGradient8132"
       gradientUnits="userSpaceOnUse"
       gradientTransform="scale(1.732051,0.577350)"
       spreadMethod="pad"
       x1="-12.266085"
       y1="298.17163"
       x2="-10.565296"
       y2="302.96234" />
    <linearGradient
       inkscape:collect="always"
       xlink:href="#linearGradient2615"
       id="linearGradient8130"
       gradientUnits="userSpaceOnUse"
       gradientTransform="scale(1.525896,0.655353)"
       x1="-15.950862"
       y1="262.63419"
       x2="-14.394111"
       y2="264.46930" />
    <linearGradient
       inkscape:collect="always"
       xlink:href="#linearGradient2685"
       id="linearGradient8128"
       gradientUnits="userSpaceOnUse"
       gradientTransform="scale(1.732051,0.577350)"
       spreadMethod="pad"
       x1="-12.116015"
       y1="297.28717"
       x2="-11.015503"
       y2="301.41449" />
    <linearGradient
       inkscape:collect="always"
       xlink:href="#linearGradient2615"
       id="linearGradient8126"
       gradientUnits="userSpaceOnUse"
       gradientTransform="scale(1.525896,0.655353)"
       x1="-15.950862"
       y1="262.63419"
       x2="-14.394111"
       y2="264.46930" />
    <linearGradient
       inkscape:collect="always"
       xlink:href="#linearGradient2685"
       id="linearGradient8124"
       gradientUnits="userSpaceOnUse"
       gradientTransform="scale(1.732051,0.577350)"
       spreadMethod="pad"
       x1="-12.641255"
       y1="297.50821"
       x2="-11.990957"
       y2="302.22537" />
    <linearGradient
       inkscape:collect="always"
       xlink:href="#linearGradient2615"
       id="linearGradient8122"
       gradientUnits="userSpaceOnUse"
       gradientTransform="scale(1.525896,0.655353)"
       x1="-15.950862"
       y1="262.63419"
       x2="-14.394111"
       y2="264.46930" />
    <linearGradient
       inkscape:collect="always"
       xlink:href="#linearGradient2685"
       id="linearGradient8120"
       gradientUnits="userSpaceOnUse"
       gradientTransform="scale(1.732051,0.577350)"
       spreadMethod="pad"
       x1="-13.241533"
       y1="297.43451"
       x2="-9.8899860"
       y2="303.10980" />
    <linearGradient
       inkscape:collect="always"
       xlink:href="#linearGradient2615"
       id="linearGradient8118"
       gradientUnits="userSpaceOnUse"
       gradientTransform="scale(1.525896,0.655353)"
       x1="-15.950862"
       y1="262.63419"
       x2="-14.394111"
       y2="264.46930" />
    <linearGradient
       inkscape:collect="always"
       xlink:href="#linearGradient2685"
       id="linearGradient8116"
       gradientUnits="userSpaceOnUse"
       gradientTransform="scale(1.732051,0.577350)"
       spreadMethod="pad"
       x1="-12.616244"
       y1="296.62378"
       x2="-11.715830"
       y2="302.37277" />
    <linearGradient
       inkscape:collect="always"
       xlink:href="#linearGradient2615"
       id="linearGradient8114"
       gradientUnits="userSpaceOnUse"
       gradientTransform="scale(1.525896,0.655353)"
       x1="-15.950862"
       y1="262.63419"
       x2="-14.394111"
       y2="264.46930" />
    <linearGradient
       inkscape:collect="always"
       xlink:href="#linearGradient2685"
       id="linearGradient8112"
       gradientUnits="userSpaceOnUse"
       gradientTransform="scale(1.732051,0.577350)"
       spreadMethod="pad"
       x1="-11.940928"
       y1="298.02402"
       x2="-10.065067"
       y2="302.22537" />
    <linearGradient
       inkscape:collect="always"
       xlink:href="#linearGradient2615"
       id="linearGradient8110"
       gradientUnits="userSpaceOnUse"
       gradientTransform="scale(1.525896,0.655353)"
       x1="-15.950862"
       y1="262.63419"
       x2="-14.394111"
       y2="264.46930" />
    <pattern
       inkscape:collect="always"
       xlink:href="#pattern6922"
       id="pattern7397"
       patternTransform="translate(0.000000,140.3622)" />
    <pattern
       inkscape:collect="always"
       xlink:href="#pattern6914"
       id="pattern6922"
       patternTransform="translate(0.000000,140.3622)" />
    <pattern
       patternUnits="userSpaceOnUse"
       width="32.000000"
       height="32.000000"
       patternTransform="translate(-16.00000,140.3622)"
       id="pattern6914">
      <rect
         inkscape:export-filename="/home/adam/brick.png"
         y="140.36218"
         x="-16.000000"
         height="32.000000"
         width="32.000000"
         id="rect6916"
         style="fill:#c4c4c4;fill-opacity:1.0000000;fill-rule:evenodd;stroke:none;stroke-width:0.72500002;stroke-linecap:square;stroke-linejoin:miter;stroke-miterlimit:4.0000000;stroke-dashoffset:0.0000000;stroke-opacity:1.0000000"
         inkscape:export-xdpi="360.00000"
         inkscape:export-ydpi="360.00000"
         transform="translate(16.00000,-140.3622)" />
    </pattern>
    <linearGradient
       id="linearGradient2615">
      <stop
         style="stop-color:#eaeaea;stop-opacity:1.0000000;"
         offset="0.0000000"
         id="stop2617" />
      <stop
         style="stop-color:#dfdfdf;stop-opacity:0;"
         offset="1"
         id="stop2619" />
    </linearGradient>
    <linearGradient
       id="linearGradient2685">
      <stop
         style="stop-color:#c8c8c8;stop-opacity:1.0000000;"
         offset="0.0000000"
         id="stop2687" />
      <stop
         style="stop-color:#919191;stop-opacity:1.0000000;"
         offset="1.0000000"
         id="stop2689" />
    </linearGradient>
    <linearGradient
       inkscape:collect="always"
       xlink:href="#linearGradient2685"
       id="linearGradient21471"
       gradientUnits="userSpaceOnUse"
       gradientTransform="scale(1.732051,0.577350)"
       spreadMethod="pad"
       x1="-12.766315"
       y1="296.69754"
       x2="-11.715828"
       y2="301.93048" />
    <linearGradient
       inkscape:collect="always"
       xlink:href="#linearGradient2615"
       id="linearGradient21469"
       gradientUnits="userSpaceOnUse"
       gradientTransform="scale(1.525896,0.655353)"
       x1="-15.950862"
       y1="262.63419"
       x2="-14.394111"
       y2="264.46930" />
    <linearGradient
       inkscape:collect="always"
       xlink:href="#linearGradient2685"
       id="linearGradient21467"
       gradientUnits="userSpaceOnUse"
       gradientTransform="scale(1.732051,0.577350)"
       spreadMethod="pad"
       x1="-12.766315"
       y1="296.69754"
       x2="-10.865437"
       y2="301.78308" />
    <linearGradient
       inkscape:collect="always"
       xlink:href="#linearGradient2615"
       id="linearGradient21465"
       gradientUnits="userSpaceOnUse"
       gradientTransform="scale(1.525896,0.655353)"
       x1="-15.950862"
       y1="262.63419"
       x2="-14.394111"
       y2="264.46930" />
    <linearGradient
       inkscape:collect="always"
       xlink:href="#linearGradient2685"
       id="linearGradient21463"
       gradientUnits="userSpaceOnUse"
       gradientTransform="scale(1.732051,0.577350)"
       spreadMethod="pad"
       x1="-12.266085"
       y1="298.17163"
       x2="-10.565296"
       y2="302.96234" />
    <linearGradient
       inkscape:collect="always"
       xlink:href="#linearGradient2615"
       id="linearGradient21461"
       gradientUnits="userSpaceOnUse"
       gradientTransform="scale(1.525896,0.655353)"
       x1="-15.950862"
       y1="262.63419"
       x2="-14.394111"
       y2="264.46930" />
    <linearGradient
       inkscape:collect="always"
       xlink:href="#linearGradient2685"
       id="linearGradient21459"
       gradientUnits="userSpaceOnUse"
       gradientTransform="scale(1.732051,0.577350)"
       spreadMethod="pad"
       x1="-12.116015"
       y1="297.28717"
       x2="-11.015503"
       y2="301.41449" />
    <linearGradient
       inkscape:collect="always"
       xlink:href="#linearGradient2615"
       id="linearGradient21457"
       gradientUnits="userSpaceOnUse"
       gradientTransform="scale(1.525896,0.655353)"
       x1="-15.950862"
       y1="262.63419"
       x2="-14.394111"
       y2="264.46930" />
    <linearGradient
       inkscape:collect="always"
       xlink:href="#linearGradient2685"
       id="linearGradient21455"
       gradientUnits="userSpaceOnUse"
       gradientTransform="scale(1.732051,0.577350)"
       spreadMethod="pad"
       x1="-12.641255"
       y1="297.50821"
       x2="-11.990957"
       y2="302.22537" />
    <linearGradient
       inkscape:collect="always"
       xlink:href="#linearGradient2615"
       id="linearGradient21453"
       gradientUnits="userSpaceOnUse"
       gradientTransform="scale(1.525896,0.655353)"
       x1="-15.950862"
       y1="262.63419"
       x2="-14.394111"
       y2="264.46930" />
    <linearGradient
       inkscape:collect="always"
       xlink:href="#linearGradient2685"
       id="linearGradient21451"
       gradientUnits="userSpaceOnUse"
       gradientTransform="scale(1.732051,0.577350)"
       spreadMethod="pad"
       x1="-13.241533"
       y1="297.43451"
       x2="-9.8899860"
       y2="303.10980" />
    <linearGradient
       inkscape:collect="always"
       xlink:href="#linearGradient2615"
       id="linearGradient21449"
       gradientUnits="userSpaceOnUse"
       gradientTransform="scale(1.525896,0.655353)"
       x1="-15.950862"
       y1="262.63419"
       x2="-14.394111"
       y2="264.46930" />
    <linearGradient
       inkscape:collect="always"
       xlink:href="#linearGradient2685"
       id="linearGradient21447"
       gradientUnits="userSpaceOnUse"
       gradientTransform="scale(1.732051,0.577350)"
       spreadMethod="pad"
       x1="-12.616244"
       y1="296.62378"
       x2="-11.715830"
       y2="302.37277" />
    <linearGradient
       inkscape:collect="always"
       xlink:href="#linearGradient2615"
       id="linearGradient21445"
       gradientUnits="userSpaceOnUse"
       gradientTransform="scale(1.525896,0.655353)"
       x1="-15.950862"
       y1="262.63419"
       x2="-14.394111"
       y2="264.46930" />
    <linearGradient
       inkscape:collect="always"
       xlink:href="#linearGradient2685"
       id="linearGradient21443"
       gradientUnits="userSpaceOnUse"
       gradientTransform="scale(1.732051,0.577350)"
       spreadMethod="pad"
       x1="-11.940928"
       y1="298.02402"
       x2="-10.065067"
       y2="302.22537" />
    <linearGradient
       inkscape:collect="always"
       xlink:href="#linearGradient2615"
       id="linearGradient21441"
       gradientUnits="userSpaceOnUse"
       gradientTransform="scale(1.525896,0.655353)"
       x1="-15.950862"
       y1="262.63419"
       x2="-14.394111"
       y2="264.46930" />
    <pattern
       inkscape:collect="always"
       xlink:href="#pattern6922"
       id="pattern21439"
       patternTransform="translate(0.000000,140.3622)" />
    <pattern
       inkscape:collect="always"
       xlink:href="#pattern6914"
       id="pattern21437"
       patternTransform="translate(0.000000,140.3622)" />
    <pattern
       patternUnits="userSpaceOnUse"
       width="32.000000"
       height="32.000000"
       patternTransform="translate(-16.00000,140.3622)"
       id="pattern21433">
      <rect
         inkscape:export-filename="/home/adam/brick.png"
         y="140.36218"
         x="-16.000000"
         height="32.000000"
         width="32.000000"
         id="rect21435"
         style="fill:#c4c4c4;fill-opacity:1.0000000;fill-rule:evenodd;stroke:none;stroke-width:0.72500002;stroke-linecap:square;stroke-linejoin:miter;stroke-miterlimit:4.0000000;stroke-dashoffset:0.0000000;stroke-opacity:1.0000000"
         inkscape:export-xdpi="360.00000"
         inkscape:export-ydpi="360.00000"
         transform="translate(16.00000,-140.3622)" />
    </pattern>
    <linearGradient
       id="linearGradient21427">
      <stop
         style="stop-color:#eaeaea;stop-opacity:1.0000000;"
         offset="0.0000000"
         id="stop21429" />
      <stop
         style="stop-color:#dfdfdf;stop-opacity:0;"
         offset="1"
         id="stop21431" />
    </linearGradient>
    <linearGradient
       id="linearGradient21421">
      <stop
         style="stop-color:#c8c8c8;stop-opacity:1.0000000;"
         offset="0.0000000"
         id="stop21423" />
      <stop
         style="stop-color:#919191;stop-opacity:1.0000000;"
         offset="1.0000000"
         id="stop21425" />
    </linearGradient>
  </defs>
  <sodipodi:namedview
     inkscape:window-y="9"
     inkscape:window-x="217"
     inkscape:window-height="543"
     inkscape:window-width="640"
     inkscape:document-units="px"
     inkscape:grid-bbox="true"
     showgrid="true"
     inkscape:current-layer="layer1"
     inkscape:cy="15.999999"
     inkscape:cx="16.000000"
     inkscape:zoom="11.197802"
     inkscape:pageshadow="2"
     inkscape:pageopacity="0.0"
     borderopacity="1.0"
     bordercolor="#666666"
     pagecolor="#ffffff"
     id="base" />
  <metadata
     id="metadata4">
    <rdf:RDF
       id="RDF5">
      <cc:Work
         id="Work6"
         rdf:about="">
        <dc:format
           id="format7">image/svg+xml</dc:format>
        <dc:type
           rdf:resource="http://purl.org/dc/dcmitype/StillImage"
           id="type9" />
      </cc:Work>
    </rdf:RDF>
  </metadata>
  <g
     inkscape:groupmode="layer"
     inkscape:label="Layer 1"
     id="layer1">
    <g
       id="g21473"
       inkscape:label="Layer 1"
       inkscape:groupmode="layer">
      <g
         inkscape:tile-cy="284.36218"
         inkscape:tile-cx="-79.000000"
         inkscape:tile-h="32.000000"
         inkscape:tile-w="32.000000"
         id="g14992"
         transform="translate(252.0000,-169.3750)"
         inkscape:export-filename="/home/adam/brick.png"
         inkscape:export-xdpi="360.00000"
         inkscape:export-ydpi="360.00000">
        <path
           style="fill:#f7f7f7;fill-opacity:1.0000000"
           d="M -144.00000,364.37500 L -144.00000,396.37500 L -112.00000,396.37500 L -112.00000,364.37500 L -144.00000,364.37500 z "
           transform="translate(-108.0000,-195.0000)"
           id="path14994" />
        <path
           style="fill:#dadada;fill-opacity:1.0000000"
           d="M -144.00000,364.37500 L -144.00000,369.90625 C -143.39993,369.88308 -143.29141,369.79067 -142.50000,369.78125 L -136.50000,369.71875 L -142.18750,370.09375 C -143.04782,370.14934 -143.35359,370.26735 -144.00000,370.34375 L -144.00000,385.90625 C -143.38428,385.88612 -143.32717,385.79109 -142.50000,385.78125 L -136.50000,385.71875 L -142.18750,386.09375 C -143.12723,386.15446 -143.33431,386.27112 -144.00000,386.34375 L -144.00000,396.37500 L -141.87500,396.37500 C -141.82195,395.75701 -141.65999,395.37127 -141.40625,395.62500 C -141.27766,395.75359 -141.41582,396.12267 -141.37500,396.37500 L -125.59375,396.37500 C -125.59434,396.19107 -125.60933,396.19207 -125.59375,395.87500 C -125.50734,394.11660 -124.77519,393.84401 -119.50000,393.78125 L -113.50000,393.71875 L -119.18750,394.09375 C -123.52237,394.37386 -124.96733,394.85731 -125.28125,396.15625 C -125.31882,396.31170 -125.31279,396.26171 -125.34375,396.37500 L -112.00000,396.37500 L -112.00000,386.34375 C -114.82683,386.65216 -115.99468,387.11007 -116.28125,388.65625 C -116.62107,390.48973 -116.67402,390.45482 -116.59375,388.37500 C -116.37495,385.92798 -115.61792,386.02451 -112.00000,385.90625 L -112.00000,370.34375 C -114.61065,370.65229 -116.02963,371.11510 -116.28125,372.15625 C -116.57525,373.37278 -116.66392,373.30292 -116.59375,371.87500 C -116.52030,370.38040 -115.39970,370.03752 -112.00000,369.90625 L -112.00000,364.37500 L -125.34375,364.37500 C -125.50128,364.95145 -125.59202,364.91356 -125.59375,364.37500 L -141.37500,364.37500 C -141.31033,364.77474 -141.13541,365.11997 -141.31250,365.56250 C -141.63172,366.36023 -141.85827,366.10246 -141.90625,364.93750 C -141.91651,364.68829 -141.89142,364.56633 -141.87500,364.37500 L -144.00000,364.37500 z M -120.50000,369.71875 L -126.18750,370.09375 C -130.52237,370.37386 -131.96733,370.85731 -132.28125,372.15625 C -132.57525,373.37278 -132.66392,373.30292 -132.59375,371.87500 C -132.50734,369.61660 -131.77519,369.84401 -126.50000,369.78125 L -120.50000,369.71875 z M -129.50000,377.71875 L -135.18750,378.09375 C -139.52237,378.37386 -140.96733,378.85731 -141.28125,380.15625 C -141.57525,381.37278 -141.66392,381.30292 -141.59375,379.87500 C -141.50734,378.11660 -140.77519,377.84401 -135.50000,377.78125 L -129.50000,377.71875 z M -113.50000,377.71875 L -119.18750,378.09375 C -123.52237,378.37386 -124.96733,378.85731 -125.28125,380.15625 C -125.57525,381.37278 -125.66392,381.30292 -125.59375,379.87500 C -125.50734,378.11660 -124.77519,377.84401 -119.50000,377.78125 L -113.50000,377.71875 z M -118.50000,385.68750 L -125.18750,386.06250 C -130.46628,386.35779 -131.95595,386.80954 -132.28125,388.15625 C -132.57621,389.37733 -132.66411,389.30672 -132.59375,387.87500 C -132.50569,386.08293 -131.77226,385.85273 -125.50000,385.78125 L -118.50000,385.68750 z M -138.25000,393.62500 C -136.46250,393.40318 -133.53750,393.40317 -131.75000,393.62500 C -129.96250,393.84683 -131.42500,394.03125 -135.00000,394.03125 C -138.57500,394.03125 -140.03750,393.84682 -138.25000,393.62500 z "
           transform="translate(-108.0000,-195.0000)"
           id="path14996"
           sodipodi:nodetypes="ccccccccccccccccccccccccccccccccccccccccccccccccccccccccccccccccccc" />
        <path
           style="fill:#c3c3c3;fill-opacity:1.0000000"
           d="M -144.00000,364.37500 L -144.00000,369.46875 L -142.25000,369.50000 C -138.53750,369.57490 -136.50434,369.82308 -137.75000,370.06250 C -139.05653,370.31362 -139.76113,370.96900 -139.37500,371.59375 C -138.93162,372.31117 -139.16337,372.36453 -140.09375,371.78125 C -140.75072,371.36938 -142.45863,371.05074 -144.00000,370.87500 L -144.00000,385.37500 L -142.34375,385.37500 C -134.55428,385.37500 -134.36880,386.49266 -142.12500,386.71875 C -143.10073,386.74719 -143.33786,386.88053 -144.00000,386.93750 L -144.00000,396.37500 L -141.84375,396.37500 C -141.85137,396.23399 -141.86700,396.28650 -141.87500,396.12500 C -142.01085,393.38175 -141.98344,393.35972 -135.25000,393.37500 C -131.38702,393.38377 -129.04690,393.75277 -129.78125,394.21875 C -130.48700,394.66656 -133.25087,394.82750 -135.93750,394.59375 C -140.28969,394.21508 -140.84703,394.39822 -141.25000,396.37500 L -125.84375,396.37500 C -125.85145,396.23561 -125.86708,396.28499 -125.87500,396.12500 C -126.01040,393.39067 -125.95914,393.37500 -119.43750,393.37500 C -115.83004,393.37500 -113.10328,393.71659 -113.37500,394.15625 C -113.64672,394.59590 -116.32497,394.81793 -119.34375,394.62500 C -124.21542,394.31368 -124.81735,394.47480 -125.21875,396.37500 L -112.00000,396.37500 L -112.00000,386.93750 C -114.53843,387.15589 -115.60136,387.60262 -116.09375,389.37500 C -116.73452,391.68150 -116.81429,391.62345 -116.90625,388.62500 L -116.75000,385.53125 L -112.00000,385.37500 L -112.00000,370.87500 C -112.27100,370.84410 -112.42502,370.73429 -112.68750,370.71875 C -115.24132,370.56753 -115.97464,370.95514 -116.31250,372.68750 C -116.65441,374.44064 -116.76472,374.35187 -116.87500,372.12500 L -116.82812,369.45313 L -112.00000,369.46875 L -112.00000,364.37500 L -125.21875,364.37500 C -125.23454,364.44974 -125.26589,364.48216 -125.28125,364.56250 C -125.64510,366.46510 -125.73429,366.35580 -125.84375,364.37500 L -141.25000,364.37500 C -141.26235,364.43556 -141.26908,364.46723 -141.28125,364.53125 C -141.65984,366.52272 -141.73361,366.41368 -141.84375,364.37500 L -144.00000,364.37500 z M -126.34375,369.37500 C -122.67709,369.37500 -119.96417,369.65167 -120.31250,370.00000 C -120.66083,370.34834 -123.24932,370.62500 -126.06250,370.62500 C -130.33538,370.62500 -131.31694,370.98178 -132.03125,372.75000 C -132.81546,374.69125 -132.87959,374.64710 -132.93750,372.12500 C -132.94803,371.66667 -133.16678,370.47917 -132.23055,369.71875 C -131.07522,368.78037 -127.45312,369.37500 -126.34375,369.37500 z M -135.34375,377.37500 C -131.67709,377.37500 -128.92905,377.61654 -129.25000,377.93750 C -129.57096,378.25845 -132.22303,378.57788 -135.15625,378.62500 C -139.64271,378.69709 -140.60918,379.03080 -141.15625,380.78125 C -141.71504,382.56916 -141.82061,382.48796 -141.90625,380.12500 C -142.00539,377.39003 -141.97398,377.37500 -135.34375,377.37500 z M -119.34375,377.37500 C -111.34691,377.37500 -111.29279,378.31585 -119.28125,378.50000 C -124.15003,378.61224 -124.95142,378.91147 -125.31250,380.75000 C -125.63855,382.41023 -125.76833,382.27892 -125.87500,380.12500 C -126.01062,377.38638 -125.98283,377.37500 -119.34375,377.37500 z M -132.93750,385.68750 L -125.75000,385.37500 C -121.76250,385.38343 -119.03748,385.74289 -119.68750,386.15625 C -120.33752,386.56962 -123.34435,386.81651 -126.37500,386.71875 C -131.29535,386.56004 -131.93596,386.75799 -132.31250,388.68750 C -132.65296,390.43212 -132.76505,390.34530 -132.87500,388.12500 L -132.93750,385.68750 z "
           transform="translate(-108.0000,-195.0000)"
           id="path14998"
           sodipodi:nodetypes="ccccccccccccccccccccccccccccccccccccccccccccccccssscccccccccccccccccc" />
        <path
           sodipodi:nodetypes="ccccccccccccccccccccccccccccccccccccccccccccccccccccccccccccccccccccccccccccccccccccccccccccccccccccccccccccccccccccccccccccc"
           style="fill:#9b9b9b;fill-opacity:1.0000000"
           d="M -144.00000,364.37500 L -144.00000,366.18750 C -143.91222,365.87498 -143.81469,365.56574 -143.75000,365.12500 C -143.70192,364.79743 -143.71828,364.64008 -143.68750,364.37500 L -144.00000,364.37500 z M -139.78125,367.40625 C -138.74056,368.14961 -128.68100,367.43944 -127.87500,366.56250 C -127.57903,366.24048 -127.62931,365.31410 -127.90625,364.37500 L -129.03125,364.37500 C -129.23614,365.54251 -130.02888,365.82192 -132.75000,365.71875 C -138.68582,365.49370 -140.69506,366.75352 -139.78125,367.40625 z M -118.40625,364.37500 C -118.57212,364.52582 -118.74798,364.59055 -118.90625,364.78125 C -120.13700,366.26421 -121.67391,366.31620 -123.78125,365.00000 C -124.59716,364.49039 -124.95712,364.68363 -124.78125,365.53125 C -124.63012,366.25963 -123.40631,367.10000 -122.06250,367.37500 C -120.71868,367.65000 -118.05144,367.50000 -116.00000,367.50000 C -113.29333,367.50000 -112.39747,367.60253 -112.00000,366.18750 L -112.00000,364.37500 L -113.90625,364.37500 C -114.04410,364.52665 -114.03451,364.45237 -114.18750,364.62500 C -115.69735,366.32869 -116.04321,366.45009 -115.62500,365.12500 C -115.52425,364.80577 -115.60515,364.60794 -115.62500,364.37500 L -118.40625,364.37500 z M -135.90625,370.46875 C -136.47426,370.34204 -137.26624,370.89590 -138.18750,372.15625 C -139.26259,373.62705 -142.23453,374.18284 -144.00000,373.59375 L -144.00000,375.21875 C -143.16925,375.27782 -142.47286,375.37500 -141.50000,375.37500 C -135.23333,375.37500 -135.00000,375.28526 -135.00000,372.87500 C -135.00000,371.40915 -135.33824,370.59546 -135.90625,370.46875 z M -120.31250,370.78125 C -121.30902,370.63500 -122.37067,371.20560 -122.68750,372.03125 C -123.02438,372.90915 -124.03661,373.31588 -125.12500,373.03125 C -126.14860,372.76357 -127.25449,372.97039 -127.56250,373.46875 C -127.87051,373.96712 -128.65746,374.35218 -129.31250,374.34375 C -130.02811,374.33455 -129.90129,373.95746 -129.00000,373.37500 C -127.78704,372.59113 -127.93056,372.38737 -129.75000,372.37500 C -133.32420,372.35068 -131.88666,374.81739 -128.00000,375.37500 L -119.00000,375.37500 L -119.00000,373.75000 C -119.00000,372.98743 -119.00000,371.37500 -120.31250,370.78125 z M -113.87500,372.56250 C -114.78761,372.49808 -116.00000,373.36435 -116.00000,374.40625 C -116.00000,374.78295 -114.22201,375.06075 -112.00000,375.21875 L -112.00000,373.59375 C -112.45089,373.44330 -112.89596,373.28389 -113.12500,372.96875 C -113.30992,372.71431 -113.57080,372.58397 -113.87500,372.56250 z M -129.21875,378.37500 C -129.77047,378.37500 -129.98337,379.27481 -129.68750,380.40625 C -129.24823,382.08599 -129.41234,382.26705 -130.56250,381.31250 C -131.33722,380.66953 -132.69065,380.41543 -133.56250,380.75000 C -134.43435,381.08456 -135.96634,380.91147 -136.96875,380.37500 C -138.28158,379.67239 -139.11077,379.80995 -139.96875,380.84375 C -140.62385,381.63310 -140.95733,382.62589 -140.68750,383.06250 C -140.41767,383.49909 -137.44959,383.62500 -133.93750,383.62500 L -128.03125,383.56250 L -127.81250,381.12500 C -128.03449,379.61250 -128.66703,378.37500 -129.21875,378.37500 z M -112.31250,378.93750 C -112.58243,378.77246 -113.08189,379.02816 -113.93750,379.56250 C -115.00192,380.22724 -115.59500,381.23510 -115.25000,381.81250 C -114.90500,382.38992 -115.26942,382.32587 -116.06250,381.68750 C -117.84084,380.25608 -124.94153,380.36219 -124.68750,381.81250 C -124.58599,382.39202 -122.70000,383.09714 -120.50000,383.37500 C -114.18734,384.17226 -112.00000,383.50065 -112.00000,380.75000 C -112.00000,379.69254 -112.04257,379.10254 -112.31250,378.93750 z M -118.81250,381.68750 C -118.01477,382.00672 -118.24130,382.23327 -119.40625,382.28125 C -120.46041,382.32467 -121.05104,382.08231 -120.71875,381.75000 C -120.38645,381.41771 -119.53438,381.39862 -118.81250,381.68750 z M -135.15625,386.43750 C -135.56850,386.20173 -136.16102,386.60336 -136.62500,387.81250 C -136.94237,388.63955 -137.83981,388.97428 -138.75000,388.62500 C -139.90622,388.18132 -140.12407,388.39927 -139.53125,389.43750 C -138.87475,390.58730 -138.97200,390.63719 -140.06250,389.62500 C -140.80318,388.93750 -141.86000,388.36657 -142.43750,388.37500 C -143.01500,388.38343 -142.82500,388.84184 -142.00000,389.37500 C -141.17500,389.90816 -140.99792,390.33533 -141.59375,390.34375 C -142.18959,390.35217 -142.96291,390.03709 -143.34375,389.65625 C -143.52670,389.47330 -143.77320,389.37894 -144.00000,389.25000 L -144.00000,391.46875 C -142.94079,391.57686 -139.80586,391.37500 -138.18750,391.37500 C -135.84301,391.37500 -135.13079,390.86696 -134.75000,388.87500 C -134.49591,387.54582 -134.74400,386.67327 -135.15625,386.43750 z M -119.75000,386.78125 C -120.16250,387.19375 -120.50000,388.02917 -120.50000,388.62500 C -120.50000,389.22083 -121.11094,389.90157 -121.87500,390.15625 C -122.83567,390.47647 -126.77533,390.05807 -128.25000,389.09375 C -130.43114,387.66744 -130.84429,387.62081 -130.37500,388.84375 C -130.04091,389.71437 -130.37037,390.39680 -131.15625,390.43750 C -131.90259,390.47616 -131.64669,390.83724 -130.59375,391.25000 C -129.54081,391.66277 -127.74081,391.91185 -126.59375,391.78125 C -125.44669,391.65066 -123.26250,391.48335 -121.75000,391.43750 C -119.45833,391.36806 -119.00000,390.90974 -119.00000,388.68750 C -119.00000,387.22084 -119.33750,386.36876 -119.75000,386.78125 z M -114.03125,388.71875 C -114.93659,388.77226 -115.65625,389.17914 -115.65625,389.90625 C -115.65625,390.85887 -114.65780,391.37500 -112.78125,391.37500 C -112.45041,391.37500 -112.27813,391.44036 -112.00000,391.46875 L -112.00000,389.25000 C -112.63000,388.89183 -113.36556,388.67941 -114.03125,388.71875 z M -128.78125,394.37500 C -128.89206,394.37500 -128.90237,394.87500 -128.93750,395.87500 C -128.94478,396.08232 -129.00198,396.20821 -129.03125,396.37500 L -127.90625,396.37500 C -127.95685,396.20340 -127.96190,396.04494 -128.03125,395.87500 C -128.43934,394.87500 -128.67044,394.37500 -128.78125,394.37500 z M -143.81250,394.53125 C -143.83910,394.52576 -143.96861,394.68370 -144.00000,394.68750 L -144.00000,396.37500 L -143.68750,396.37500 C -143.56157,395.29063 -143.53508,394.58849 -143.81250,394.53125 z M -121.81250,394.68750 C -122.53438,394.39863 -123.38645,394.41772 -123.71875,394.75000 C -124.05104,395.08230 -123.46041,395.32467 -122.40625,395.28125 C -121.24130,395.23327 -121.01477,395.00671 -121.81250,394.68750 z M -112.00000,394.68750 C -112.32754,394.72713 -112.97363,395.34899 -113.90625,396.37500 L -112.00000,396.37500 L -112.00000,394.68750 z M -116.37500,395.40625 C -116.93848,395.34717 -117.69227,395.72582 -118.40625,396.37500 L -115.62500,396.37500 C -115.67132,395.83147 -115.88892,395.45721 -116.37500,395.40625 z "
           transform="translate(-108.0000,-195.0000)"
           id="path15000" />
        <path
           style="fill:#5a5a5a;fill-opacity:1.0000000"
           d="M -128.65625,364.37500 C -128.68301,364.47799 -128.68608,364.42733 -128.71875,364.56250 C -129.03828,365.88464 -130.51221,366.36105 -135.31250,366.65625 L -141.50000,367.03125 L -135.00000,366.93750 C -129.22939,366.86261 -128.49350,366.65057 -128.40625,364.87500 C -128.39109,364.56649 -128.40369,364.56204 -128.40625,364.37500 L -128.65625,364.37500 z M -112.65625,364.37500 C -112.68301,364.47799 -112.68608,364.42733 -112.71875,364.56250 C -113.03828,365.88464 -114.51221,366.36105 -119.31250,366.65625 L -125.50000,367.03125 L -119.00000,366.93750 C -113.22939,366.86261 -112.49350,366.65057 -112.40625,364.87500 C -112.39109,364.56649 -112.40369,364.56204 -112.40625,364.37500 L -112.65625,364.37500 z M -135.43750,371.71875 C -135.48790,371.67116 -135.57175,371.95424 -135.71875,372.56250 C -136.03828,373.88464 -137.51221,374.36105 -142.31250,374.65625 L -144.00000,374.75000 L -144.00000,374.96875 L -142.00000,374.93750 C -136.22939,374.86261 -135.49350,374.65057 -135.40625,372.87500 C -135.37116,372.16104 -135.38710,371.76634 -135.43750,371.71875 z M -119.43750,371.71875 C -119.48790,371.67116 -119.57175,371.95424 -119.71875,372.56250 C -120.03828,373.88464 -121.51221,374.36105 -126.31250,374.65625 L -132.50000,375.03125 L -126.00000,374.93750 C -120.22939,374.86261 -119.49350,375.51298 -119.40625,372.87500 C -119.37116,372.16104 -119.38710,371.76634 -119.43750,371.71875 z M -112.00000,374.75000 L -116.50000,375.03125 L -112.00000,374.96875 L -112.00000,374.75000 z M -128.43750,379.71875 C -128.48790,379.67116 -128.57175,379.95424 -128.71875,380.56250 C -129.03828,381.88464 -130.51221,382.36105 -135.31250,382.65625 L -141.50000,383.03125 L -135.00000,382.93750 C -127.97939,383.23761 -128.49350,382.65057 -128.40625,380.87500 C -128.37116,380.16104 -128.38710,379.76634 -128.43750,379.71875 z M -112.43750,379.71875 C -112.48790,379.67116 -112.57175,379.95424 -112.71875,380.56250 C -113.03828,381.88464 -114.51221,382.36105 -119.31250,382.65625 L -125.50000,383.03125 L -119.00000,382.93750 C -113.22939,382.86261 -112.49350,382.65057 -112.40625,380.87500 C -112.37116,380.16104 -112.38710,379.76634 -112.43750,379.71875 z M -135.43750,387.71875 C -135.48790,387.67116 -135.57175,387.95424 -135.71875,388.56250 C -136.03828,389.88464 -137.51221,390.36105 -142.31250,390.65625 L -144.00000,390.75000 L -144.00000,390.96875 L -142.00000,390.93750 C -136.22939,390.86261 -135.49350,390.65057 -135.40625,388.87500 C -135.37116,388.16104 -135.38710,387.76634 -135.43750,387.71875 z M -119.43750,387.71875 C -119.48790,387.67116 -119.57175,387.95424 -119.71875,388.56250 C -120.03828,389.88464 -121.51221,390.36105 -126.31250,390.65625 L -132.50000,391.03125 L -126.00000,390.93750 C -120.22939,390.86261 -119.49350,390.65057 -119.40625,388.87500 C -119.37116,388.16104 -119.38710,387.76634 -119.43750,387.71875 z M -112.00000,390.75000 L -116.50000,391.03125 L -112.00000,390.96875 L -112.00000,390.75000 z M -128.43750,395.71875 C -128.47670,395.68174 -128.56261,396.01453 -128.65625,396.37500 L -128.40625,396.37500 C -128.40961,396.12919 -128.40888,395.74578 -128.43750,395.71875 z M -112.43750,395.71875 C -112.47670,395.68174 -112.56261,396.01453 -112.65625,396.37500 L -112.40625,396.37500 C -112.40961,396.12919 -112.40888,395.74578 -112.43750,395.71875 z "
           transform="translate(-108.0000,-195.0000)"
           id="path15002"
           sodipodi:nodetypes="cccccccccccccccccccccccccccccccccccccccccccccccccccccccccccccccccccccccccccc" />
      </g>
    </g>
    <g
       id="g20700"
       transform="translate(-560.0000,-220.3622)">
      <path
         style="fill:#ffffff;fill-opacity:0.0000000"
         d="M 560.00000,236.36218 C 560.00000,231.02885 560.00000,225.69552 560.00000,220.36218 C 570.66667,220.36218 581.33333,220.36218 592.00000,220.36218 C 592.00000,231.02885 592.00000,241.69552 592.00000,252.36218 C 581.33333,252.36218 570.66667,252.36218 560.00000,252.36218 C 560.00000,247.02885 560.00000,241.69552 560.00000,236.36218 z "
         id="path20712" />
      <path
         style="fill:#000000;fill-opacity:0.27058825"
         d="M 578.84705,248.00092 C 577.13505,246.74095 575.47407,246.53779 573.55172,245.82552 C 572.15465,245.31530 567.96236,248.95600 567.71504,247.19539 C 566.70128,245.74874 566.01027,244.73833 564.57336,244.25104 C 562.81586,244.28897 561.85538,242.56472 563.07689,241.20126 C 563.77541,238.61416 563.95684,235.75759 563.13374,233.17883 C 562.10071,232.01170 562.10450,230.37392 562.74640,229.00387 C 563.27372,227.27350 562.95576,224.68838 564.05577,223.40832 C 565.93108,222.84278 570.53167,224.74786 571.92202,223.16849 C 572.10290,221.49653 574.18012,220.61325 575.65723,221.09109 C 576.22438,222.70306 578.14431,222.14846 579.49544,222.02887 C 581.36619,221.76451 581.64867,224.53540 583.64509,223.89853 C 585.20645,223.73893 585.13970,223.87012 586.68178,223.58796 C 586.34246,226.29153 587.27838,228.44504 587.32418,231.18060 C 587.22148,232.64219 589.44002,232.51184 589.02285,234.19842 C 589.03958,236.55600 588.04663,238.92631 586.19428,240.41740 C 584.73567,241.80778 584.47744,243.69253 584.47457,245.42075 C 583.65307,246.85348 582.27806,245.96772 581.18243,247.31394 C 580.46538,247.83475 579.91483,248.62473 578.84705,248.00092 z "
         id="path20710"
         sodipodi:nodetypes="ccccccccccccccccccc" />
      <path
         style="fill:#000000;fill-opacity:0.22352941"
         d="M 578.00000,247.44791 C 575.67616,246.29400 574.14407,246.46927 571.73634,245.58767 C 569.89604,245.35941 570.29765,245.47596 568.13994,246.44352 C 566.69778,246.77723 563.73793,244.54095 562.61798,243.38836 C 562.28871,241.95323 563.76105,240.58690 563.64682,239.00083 C 563.90119,236.61780 564.12450,234.10968 563.36796,231.79778 C 561.89257,230.72098 562.84423,228.85899 563.52125,227.58576 C 564.56789,225.54490 563.81677,223.75086 565.88248,223.41636 C 569.38184,224.33046 571.99742,223.36546 572.58750,221.82235 C 573.42102,221.09682 575.54179,220.27809 576.04982,221.63787 C 577.31205,222.82888 579.26220,222.01436 580.72777,222.78960 C 581.90404,224.01191 583.68441,224.03300 585.26390,223.65940 C 586.26686,223.45881 585.85560,224.14210 586.85856,223.94151 C 586.51924,226.64508 587.27838,228.44504 587.32418,231.18060 C 587.23729,232.64633 589.49954,232.53424 589.00674,234.25346 C 588.91869,236.35530 587.94917,238.39537 586.36639,239.78194 C 584.88554,241.17344 584.31714,243.01400 584.63918,244.82112 C 584.56293,246.85744 582.68269,245.89908 581.57284,247.00624 C 580.45043,247.74506 579.60521,248.45513 578.00000,247.44791 z "
         id="path20708"
         sodipodi:nodetypes="ccccccccccccccccccc" />
      <path
         style="fill:#000000;fill-opacity:0.40588233"
         d="M 576.75000,246.66246 C 574.81579,245.78945 572.96979,245.85848 570.87304,245.65442 C 569.16049,245.50435 570.79984,246.21433 568.74902,247.01310 C 567.22655,247.38589 563.74714,244.62386 562.55536,243.38578 C 562.49231,241.98177 563.87785,240.64846 563.73734,239.03287 C 564.00073,236.31155 564.24300,233.48002 563.52203,230.81182 C 562.13469,229.95733 563.15069,228.12041 563.87278,227.02054 C 565.24781,225.10509 563.60220,224.01658 565.67307,223.45815 C 567.71330,224.29034 572.29436,223.74983 572.84706,222.64567 C 574.58320,222.19576 576.02693,221.98726 577.76199,222.24742 C 579.23208,222.52980 580.68793,222.96022 581.97965,223.70628 C 584.09917,224.15544 584.60461,224.46733 586.68178,224.11829 C 586.34246,226.82186 587.27838,228.44504 587.32418,231.18060 C 587.23729,232.64633 589.49954,232.53424 589.00674,234.25346 C 588.91869,236.35530 587.94917,238.39537 586.36639,239.78194 C 584.88554,241.17344 584.06714,243.01400 584.38918,244.82112 C 584.31272,246.85363 582.69921,245.91057 581.57284,246.97207 C 580.45309,247.85032 580.21546,248.58548 578.61083,247.54949 C 578.19241,247.39498 577.15757,246.84335 576.75000,246.66246 z "
         id="path20706"
         sodipodi:nodetypes="ccccccccccccccccccc" />
      <path
         sodipodi:nodetypes="cccccccccccccccccccccccc"
         style="fill:#000000;fill-opacity:0.48823527"
         d="M 575.39917,246.64413 C 577.49963,246.06412 574.45807,244.88490 573.68136,244.51884 C 572.15963,243.87246 570.63939,244.71708 568.94857,244.96939 C 567.75434,246.34641 565.31599,244.58973 564.84374,242.61879 C 564.34895,241.14898 563.80985,239.16719 565.09896,237.95899 C 565.84919,236.25609 566.08585,234.22734 565.55301,232.43029 C 564.29690,231.18896 564.65218,229.21079 564.91956,227.63146 C 565.06673,225.95740 565.81028,223.81737 567.40423,223.98265 C 568.93407,224.14624 572.29380,225.48066 572.10722,223.21955 C 573.18490,221.64630 575.40148,222.79175 576.79732,223.29399 C 578.90743,224.30827 581.24661,225.56247 583.65688,224.93144 C 585.51730,224.93427 584.82113,227.51361 585.00751,228.73533 C 585.11961,230.55396 585.44601,232.61641 586.96783,233.80986 C 588.07845,234.75412 588.58967,237.51097 586.48047,237.39623 C 585.44166,237.97477 589.33385,239.27899 586.93025,239.33341 C 585.10431,239.04338 583.67568,240.53263 583.21831,242.17139 C 582.73308,243.67865 581.64634,245.58711 579.79777,245.38979 C 577.67542,245.46652 581.88956,246.91979 579.86439,247.17510 C 578.25985,247.26385 577.33605,246.47636 575.77477,246.05766 C 575.55232,245.86357 575.41639,246.68388 575.39917,246.64413 z M 584.15790,244.36218 C 583.96857,243.53471 583.95977,241.99464 584.19332,243.69616 C 584.58682,244.39920 584.34888,247.06149 584.18067,245.04704 C 584.16378,244.81918 584.15803,244.59061 584.15790,244.36218 z "
         id="path20704" />
      <path
         style="fill:#000000;fill-opacity:1.0000000"
         d="M 573.07806,244.29095 C 571.51395,243.66849 569.86679,242.76723 568.13297,243.04445 C 567.32705,243.55338 565.30772,245.41976 565.49594,243.25960 C 565.33167,238.19571 565.64771,233.11638 566.23977,228.08696 C 566.07763,226.34752 567.36321,225.21363 569.05984,225.37749 C 570.42614,225.49039 571.90382,225.11110 572.40288,223.78209 C 573.93500,223.13150 575.82104,223.27771 577.27747,224.06805 C 578.95492,225.54612 581.34417,225.27824 583.34655,225.92623 C 585.15053,226.78255 584.53392,229.14163 585.12894,230.69315 C 585.37967,232.35548 586.67785,233.39113 587.61008,234.64234 C 588.91549,236.67710 586.46561,237.57254 585.33355,238.69179 C 583.78182,240.36180 583.37401,242.71079 582.00167,244.48415 C 580.96303,246.04401 578.89321,244.11677 577.79795,245.42519 C 576.49783,245.89215 575.02511,244.98077 573.75261,244.58234 C 573.52638,244.48846 573.30153,244.39124 573.07806,244.29095 z "
         id="path20702" />
    </g>
  </g>
</svg>
