<?xml version="1.0" encoding="UTF-8" standalone="no"?>
<!-- Created with Inkscape (http://www.inkscape.org/) -->
<svg
   xmlns:dc="http://purl.org/dc/elements/1.1/"
   xmlns:cc="http://web.resource.org/cc/"
   xmlns:rdf="http://www.w3.org/1999/02/22-rdf-syntax-ns#"
   xmlns:svg="http://www.w3.org/2000/svg"
   xmlns="http://www.w3.org/2000/svg"
   xmlns:xlink="http://www.w3.org/1999/xlink"
   xmlns:sodipodi="http://inkscape.sourceforge.net/DTD/sodipodi-0.dtd"
   xmlns:inkscape="http://www.inkscape.org/namespaces/inkscape"
   sodipodi:docname="06.svg"
   sodipodi:docbase="/home/adam/workspace/Escape-j2se/src/org/spacebar/escape/j2se/resources/tiles"
   inkscape:version="0.43"
   sodipodi:version="0.32"
   id="svg21056"
   height="32px"
   width="32px">
  <defs
     id="defs3">
    <linearGradient
       inkscape:collect="always"
       xlink:href="#linearGradient2685"
       id="linearGradient8140"
       gradientUnits="userSpaceOnUse"
       gradientTransform="scale(1.732051,0.577350)"
       spreadMethod="pad"
       x1="-12.766315"
       y1="296.69754"
       x2="-11.715828"
       y2="301.93048" />
    <linearGradient
       inkscape:collect="always"
       xlink:href="#linearGradient2615"
       id="linearGradient8138"
       gradientUnits="userSpaceOnUse"
       gradientTransform="scale(1.525896,0.655353)"
       x1="-15.950862"
       y1="262.63419"
       x2="-14.394111"
       y2="264.46930" />
    <linearGradient
       inkscape:collect="always"
       xlink:href="#linearGradient2685"
       id="linearGradient8136"
       gradientUnits="userSpaceOnUse"
       gradientTransform="scale(1.732051,0.577350)"
       spreadMethod="pad"
       x1="-12.766315"
       y1="296.69754"
       x2="-10.865437"
       y2="301.78308" />
    <linearGradient
       inkscape:collect="always"
       xlink:href="#linearGradient2615"
       id="linearGradient8134"
       gradientUnits="userSpaceOnUse"
       gradientTransform="scale(1.525896,0.655353)"
       x1="-15.950862"
       y1="262.63419"
       x2="-14.394111"
       y2="264.46930" />
    <linearGradient
       inkscape:collect="always"
       xlink:href="#linearGradient2685"
       id="linearGradient8132"
       gradientUnits="userSpaceOnUse"
       gradientTransform="scale(1.732051,0.577350)"
       spreadMethod="pad"
       x1="-12.266085"
       y1="298.17163"
       x2="-10.565296"
       y2="302.96234" />
    <linearGradient
       inkscape:collect="always"
       xlink:href="#linearGradient2615"
       id="linearGradient8130"
       gradientUnits="userSpaceOnUse"
       gradientTransform="scale(1.525896,0.655353)"
       x1="-15.950862"
       y1="262.63419"
       x2="-14.394111"
       y2="264.46930" />
    <linearGradient
       inkscape:collect="always"
       xlink:href="#linearGradient2685"
       id="linearGradient8128"
       gradientUnits="userSpaceOnUse"
       gradientTransform="scale(1.732051,0.577350)"
       spreadMethod="pad"
       x1="-12.116015"
       y1="297.28717"
       x2="-11.015503"
       y2="301.41449" />
    <linearGradient
       inkscape:collect="always"
       xlink:href="#linearGradient2615"
       id="linearGradient8126"
       gradientUnits="userSpaceOnUse"
       gradientTransform="scale(1.525896,0.655353)"
       x1="-15.950862"
       y1="262.63419"
       x2="-14.394111"
       y2="264.46930" />
    <linearGradient
       inkscape:collect="always"
       xlink:href="#linearGradient2685"
       id="linearGradient8124"
       gradientUnits="userSpaceOnUse"
       gradientTransform="scale(1.732051,0.577350)"
       spreadMethod="pad"
       x1="-12.641255"
       y1="297.50821"
       x2="-11.990957"
       y2="302.22537" />
    <linearGradient
       inkscape:collect="always"
       xlink:href="#linearGradient2615"
       id="linearGradient8122"
       gradientUnits="userSpaceOnUse"
       gradientTransform="scale(1.525896,0.655353)"
       x1="-15.950862"
       y1="262.63419"
       x2="-14.394111"
       y2="264.46930" />
    <linearGradient
       inkscape:collect="always"
       xlink:href="#linearGradient2685"
       id="linearGradient8120"
       gradientUnits="userSpaceOnUse"
       gradientTransform="scale(1.732051,0.577350)"
       spreadMethod="pad"
       x1="-13.241533"
       y1="297.43451"
       x2="-9.8899860"
       y2="303.10980" />
    <linearGradient
       inkscape:collect="always"
       xlink:href="#linearGradient2615"
       id="linearGradient8118"
       gradientUnits="userSpaceOnUse"
       gradientTransform="scale(1.525896,0.655353)"
       x1="-15.950862"
       y1="262.63419"
       x2="-14.394111"
       y2="264.46930" />
    <linearGradient
       inkscape:collect="always"
       xlink:href="#linearGradient2685"
       id="linearGradient8116"
       gradientUnits="userSpaceOnUse"
       gradientTransform="scale(1.732051,0.577350)"
       spreadMethod="pad"
       x1="-12.616244"
       y1="296.62378"
       x2="-11.715830"
       y2="302.37277" />
    <linearGradient
       inkscape:collect="always"
       xlink:href="#linearGradient2615"
       id="linearGradient8114"
       gradientUnits="userSpaceOnUse"
       gradientTransform="scale(1.525896,0.655353)"
       x1="-15.950862"
       y1="262.63419"
       x2="-14.394111"
       y2="264.46930" />
    <linearGradient
       inkscape:collect="always"
       xlink:href="#linearGradient2685"
       id="linearGradient8112"
       gradientUnits="userSpaceOnUse"
       gradientTransform="scale(1.732051,0.577350)"
       spreadMethod="pad"
       x1="-11.940928"
       y1="298.02402"
       x2="-10.065067"
       y2="302.22537" />
    <linearGradient
       inkscape:collect="always"
       xlink:href="#linearGradient2615"
       id="linearGradient8110"
       gradientUnits="userSpaceOnUse"
       gradientTransform="scale(1.525896,0.655353)"
       x1="-15.950862"
       y1="262.63419"
       x2="-14.394111"
       y2="264.46930" />
    <pattern
       inkscape:collect="always"
       xlink:href="#pattern6922"
       id="pattern7397"
       patternTransform="translate(0.000000,140.3622)" />
    <pattern
       inkscape:collect="always"
       xlink:href="#pattern6914"
       id="pattern6922"
       patternTransform="translate(0.000000,140.3622)" />
    <pattern
       patternUnits="userSpaceOnUse"
       width="32.000000"
       height="32.000000"
       patternTransform="translate(-16.00000,140.3622)"
       id="pattern6914">
      <rect
         inkscape:export-filename="/home/adam/brick.png"
         y="140.36218"
         x="-16.000000"
         height="32.000000"
         width="32.000000"
         id="rect6916"
         style="fill:#c4c4c4;fill-opacity:1.0000000;fill-rule:evenodd;stroke:none;stroke-width:0.72500002;stroke-linecap:square;stroke-linejoin:miter;stroke-miterlimit:4.0000000;stroke-dashoffset:0.0000000;stroke-opacity:1.0000000"
         inkscape:export-xdpi="360.00000"
         inkscape:export-ydpi="360.00000"
         transform="translate(16.00000,-140.3622)" />
    </pattern>
    <linearGradient
       id="linearGradient2615">
      <stop
         style="stop-color:#eaeaea;stop-opacity:1.0000000;"
         offset="0.0000000"
         id="stop2617" />
      <stop
         style="stop-color:#dfdfdf;stop-opacity:0;"
         offset="1"
         id="stop2619" />
    </linearGradient>
    <linearGradient
       id="linearGradient2685">
      <stop
         style="stop-color:#c8c8c8;stop-opacity:1.0000000;"
         offset="0.0000000"
         id="stop2687" />
      <stop
         style="stop-color:#919191;stop-opacity:1.0000000;"
         offset="1.0000000"
         id="stop2689" />
    </linearGradient>
    <linearGradient
       inkscape:collect="always"
       xlink:href="#linearGradient2685"
       id="linearGradient21471"
       gradientUnits="userSpaceOnUse"
       gradientTransform="scale(1.732051,0.577350)"
       spreadMethod="pad"
       x1="-12.766315"
       y1="296.69754"
       x2="-11.715828"
       y2="301.93048" />
    <linearGradient
       inkscape:collect="always"
       xlink:href="#linearGradient2615"
       id="linearGradient21469"
       gradientUnits="userSpaceOnUse"
       gradientTransform="scale(1.525896,0.655353)"
       x1="-15.950862"
       y1="262.63419"
       x2="-14.394111"
       y2="264.46930" />
    <linearGradient
       inkscape:collect="always"
       xlink:href="#linearGradient2685"
       id="linearGradient21467"
       gradientUnits="userSpaceOnUse"
       gradientTransform="scale(1.732051,0.577350)"
       spreadMethod="pad"
       x1="-12.766315"
       y1="296.69754"
       x2="-10.865437"
       y2="301.78308" />
    <linearGradient
       inkscape:collect="always"
       xlink:href="#linearGradient2615"
       id="linearGradient21465"
       gradientUnits="userSpaceOnUse"
       gradientTransform="scale(1.525896,0.655353)"
       x1="-15.950862"
       y1="262.63419"
       x2="-14.394111"
       y2="264.46930" />
    <linearGradient
       inkscape:collect="always"
       xlink:href="#linearGradient2685"
       id="linearGradient21463"
       gradientUnits="userSpaceOnUse"
       gradientTransform="scale(1.732051,0.577350)"
       spreadMethod="pad"
       x1="-12.266085"
       y1="298.17163"
       x2="-10.565296"
       y2="302.96234" />
    <linearGradient
       inkscape:collect="always"
       xlink:href="#linearGradient2615"
       id="linearGradient21461"
       gradientUnits="userSpaceOnUse"
       gradientTransform="scale(1.525896,0.655353)"
       x1="-15.950862"
       y1="262.63419"
       x2="-14.394111"
       y2="264.46930" />
    <linearGradient
       inkscape:collect="always"
       xlink:href="#linearGradient2685"
       id="linearGradient21459"
       gradientUnits="userSpaceOnUse"
       gradientTransform="scale(1.732051,0.577350)"
       spreadMethod="pad"
       x1="-12.116015"
       y1="297.28717"
       x2="-11.015503"
       y2="301.41449" />
    <linearGradient
       inkscape:collect="always"
       xlink:href="#linearGradient2615"
       id="linearGradient21457"
       gradientUnits="userSpaceOnUse"
       gradientTransform="scale(1.525896,0.655353)"
       x1="-15.950862"
       y1="262.63419"
       x2="-14.394111"
       y2="264.46930" />
    <linearGradient
       inkscape:collect="always"
       xlink:href="#linearGradient2685"
       id="linearGradient21455"
       gradientUnits="userSpaceOnUse"
       gradientTransform="scale(1.732051,0.577350)"
       spreadMethod="pad"
       x1="-12.641255"
       y1="297.50821"
       x2="-11.990957"
       y2="302.22537" />
    <linearGradient
       inkscape:collect="always"
       xlink:href="#linearGradient2615"
       id="linearGradient21453"
       gradientUnits="userSpaceOnUse"
       gradientTransform="scale(1.525896,0.655353)"
       x1="-15.950862"
       y1="262.63419"
       x2="-14.394111"
       y2="264.46930" />
    <linearGradient
       inkscape:collect="always"
       xlink:href="#linearGradient2685"
       id="linearGradient21451"
       gradientUnits="userSpaceOnUse"
       gradientTransform="scale(1.732051,0.577350)"
       spreadMethod="pad"
       x1="-13.241533"
       y1="297.43451"
       x2="-9.8899860"
       y2="303.10980" />
    <linearGradient
       inkscape:collect="always"
       xlink:href="#linearGradient2615"
       id="linearGradient21449"
       gradientUnits="userSpaceOnUse"
       gradientTransform="scale(1.525896,0.655353)"
       x1="-15.950862"
       y1="262.63419"
       x2="-14.394111"
       y2="264.46930" />
    <linearGradient
       inkscape:collect="always"
       xlink:href="#linearGradient2685"
       id="linearGradient21447"
       gradientUnits="userSpaceOnUse"
       gradientTransform="scale(1.732051,0.577350)"
       spreadMethod="pad"
       x1="-12.616244"
       y1="296.62378"
       x2="-11.715830"
       y2="302.37277" />
    <linearGradient
       inkscape:collect="always"
       xlink:href="#linearGradient2615"
       id="linearGradient21445"
       gradientUnits="userSpaceOnUse"
       gradientTransform="scale(1.525896,0.655353)"
       x1="-15.950862"
       y1="262.63419"
       x2="-14.394111"
       y2="264.46930" />
    <linearGradient
       inkscape:collect="always"
       xlink:href="#linearGradient2685"
       id="linearGradient21443"
       gradientUnits="userSpaceOnUse"
       gradientTransform="scale(1.732051,0.577350)"
       spreadMethod="pad"
       x1="-11.940928"
       y1="298.02402"
       x2="-10.065067"
       y2="302.22537" />
    <linearGradient
       inkscape:collect="always"
       xlink:href="#linearGradient2615"
       id="linearGradient21441"
       gradientUnits="userSpaceOnUse"
       gradientTransform="scale(1.525896,0.655353)"
       x1="-15.950862"
       y1="262.63419"
       x2="-14.394111"
       y2="264.46930" />
    <pattern
       inkscape:collect="always"
       xlink:href="#pattern6922"
       id="pattern21439"
       patternTransform="translate(0.000000,140.3622)" />
    <pattern
       inkscape:collect="always"
       xlink:href="#pattern6914"
       id="pattern21437"
       patternTransform="translate(0.000000,140.3622)" />
    <pattern
       patternUnits="userSpaceOnUse"
       width="32.000000"
       height="32.000000"
       patternTransform="translate(-16.00000,140.3622)"
       id="pattern21433">
      <rect
         inkscape:export-filename="/home/adam/brick.png"
         y="140.36218"
         x="-16.000000"
         height="32.000000"
         width="32.000000"
         id="rect21435"
         style="fill:#c4c4c4;fill-opacity:1.0000000;fill-rule:evenodd;stroke:none;stroke-width:0.72500002;stroke-linecap:square;stroke-linejoin:miter;stroke-miterlimit:4.0000000;stroke-dashoffset:0.0000000;stroke-opacity:1.0000000"
         inkscape:export-xdpi="360.00000"
         inkscape:export-ydpi="360.00000"
         transform="translate(16.00000,-140.3622)" />
    </pattern>
    <linearGradient
       id="linearGradient21427">
      <stop
         style="stop-color:#eaeaea;stop-opacity:1.0000000;"
         offset="0.0000000"
         id="stop21429" />
      <stop
         style="stop-color:#dfdfdf;stop-opacity:0;"
         offset="1"
         id="stop21431" />
    </linearGradient>
    <linearGradient
       id="linearGradient21421">
      <stop
         style="stop-color:#c8c8c8;stop-opacity:1.0000000;"
         offset="0.0000000"
         id="stop21423" />
      <stop
         style="stop-color:#919191;stop-opacity:1.0000000;"
         offset="1.0000000"
         id="stop21425" />
    </linearGradient>
  </defs>
  <sodipodi:namedview
     inkscape:window-y="5"
     inkscape:window-x="0"
     inkscape:window-height="543"
     inkscape:window-width="792"
     inkscape:document-units="px"
     inkscape:grid-bbox="true"
     showgrid="true"
     inkscape:current-layer="layer1"
     inkscape:cy="23.144258"
     inkscape:cx="16"
     inkscape:zoom="11.197802"
     inkscape:pageshadow="2"
     inkscape:pageopacity="0.0"
     borderopacity="1.0"
     bordercolor="#666666"
     pagecolor="#ffffff"
     id="base" />
  <metadata
     id="metadata4">
    <rdf:RDF>
      <cc:Work
         rdf:about="">
        <dc:format>image/svg+xml</dc:format>
        <dc:type
           rdf:resource="http://purl.org/dc/dcmitype/StillImage" />
      </cc:Work>
    </rdf:RDF>
  </metadata>
  <g
     inkscape:groupmode="layer"
     inkscape:label="Layer 1"
     id="layer1">
    <g
       id="g20700"
       transform="translate(-560.0000,-220.3622)">
      <path
         style="fill:#000000;fill-opacity:0.27058825"
         d="M 578.84705,248.00092 C 577.13505,246.74095 575.47407,246.53779 573.55172,245.82552 C 572.15465,245.31530 567.96236,248.95600 567.71504,247.19539 C 566.70128,245.74874 566.01027,244.73833 564.57336,244.25104 C 562.81586,244.28897 561.85538,242.56472 563.07689,241.20126 C 563.77541,238.61416 563.95684,235.75759 563.13374,233.17883 C 562.10071,232.01170 562.10450,230.37392 562.74640,229.00387 C 563.27372,227.27350 562.95576,224.68838 564.05577,223.40832 C 565.93108,222.84278 570.53167,224.74786 571.92202,223.16849 C 572.10290,221.49653 574.18012,220.61325 575.65723,221.09109 C 576.22438,222.70306 578.14431,222.14846 579.49544,222.02887 C 581.36619,221.76451 581.64867,224.53540 583.64509,223.89853 C 585.20645,223.73893 585.13970,223.87012 586.68178,223.58796 C 586.34246,226.29153 587.27838,228.44504 587.32418,231.18060 C 587.22148,232.64219 589.44002,232.51184 589.02285,234.19842 C 589.03958,236.55600 588.04663,238.92631 586.19428,240.41740 C 584.73567,241.80778 584.47744,243.69253 584.47457,245.42075 C 583.65307,246.85348 582.27806,245.96772 581.18243,247.31394 C 580.46538,247.83475 579.91483,248.62473 578.84705,248.00092 z "
         id="path20710"
         sodipodi:nodetypes="ccccccccccccccccccc" />
      <path
         style="fill:#000000;fill-opacity:0.22352941"
         d="M 578.00000,247.44791 C 575.67616,246.29400 574.14407,246.46927 571.73634,245.58767 C 569.89604,245.35941 570.29765,245.47596 568.13994,246.44352 C 566.69778,246.77723 563.73793,244.54095 562.61798,243.38836 C 562.28871,241.95323 563.76105,240.58690 563.64682,239.00083 C 563.90119,236.61780 564.12450,234.10968 563.36796,231.79778 C 561.89257,230.72098 562.84423,228.85899 563.52125,227.58576 C 564.56789,225.54490 563.81677,223.75086 565.88248,223.41636 C 569.38184,224.33046 571.99742,223.36546 572.58750,221.82235 C 573.42102,221.09682 575.54179,220.27809 576.04982,221.63787 C 577.31205,222.82888 579.26220,222.01436 580.72777,222.78960 C 581.90404,224.01191 583.68441,224.03300 585.26390,223.65940 C 586.26686,223.45881 585.85560,224.14210 586.85856,223.94151 C 586.51924,226.64508 587.27838,228.44504 587.32418,231.18060 C 587.23729,232.64633 589.49954,232.53424 589.00674,234.25346 C 588.91869,236.35530 587.94917,238.39537 586.36639,239.78194 C 584.88554,241.17344 584.31714,243.01400 584.63918,244.82112 C 584.56293,246.85744 582.68269,245.89908 581.57284,247.00624 C 580.45043,247.74506 579.60521,248.45513 578.00000,247.44791 z "
         id="path20708"
         sodipodi:nodetypes="ccccccccccccccccccc" />
      <path
         style="fill:#000000;fill-opacity:0.40588233"
         d="M 576.75000,246.66246 C 574.81579,245.78945 572.96979,245.85848 570.87304,245.65442 C 569.16049,245.50435 570.79984,246.21433 568.74902,247.01310 C 567.22655,247.38589 563.74714,244.62386 562.55536,243.38578 C 562.49231,241.98177 563.87785,240.64846 563.73734,239.03287 C 564.00073,236.31155 564.24300,233.48002 563.52203,230.81182 C 562.13469,229.95733 563.15069,228.12041 563.87278,227.02054 C 565.24781,225.10509 563.60220,224.01658 565.67307,223.45815 C 567.71330,224.29034 572.29436,223.74983 572.84706,222.64567 C 574.58320,222.19576 576.02693,221.98726 577.76199,222.24742 C 579.23208,222.52980 580.68793,222.96022 581.97965,223.70628 C 584.09917,224.15544 584.60461,224.46733 586.68178,224.11829 C 586.34246,226.82186 587.27838,228.44504 587.32418,231.18060 C 587.23729,232.64633 589.49954,232.53424 589.00674,234.25346 C 588.91869,236.35530 587.94917,238.39537 586.36639,239.78194 C 584.88554,241.17344 584.06714,243.01400 584.38918,244.82112 C 584.31272,246.85363 582.69921,245.91057 581.57284,246.97207 C 580.45309,247.85032 580.21546,248.58548 578.61083,247.54949 C 578.19241,247.39498 577.15757,246.84335 576.75000,246.66246 z "
         id="path20706"
         sodipodi:nodetypes="ccccccccccccccccccc" />
      <path
         sodipodi:nodetypes="cccccccccccccccccccccccc"
         style="fill:#000000;fill-opacity:0.48823527"
         d="M 575.39917,246.64413 C 577.49963,246.06412 574.45807,244.88490 573.68136,244.51884 C 572.15963,243.87246 570.63939,244.71708 568.94857,244.96939 C 567.75434,246.34641 565.31599,244.58973 564.84374,242.61879 C 564.34895,241.14898 563.80985,239.16719 565.09896,237.95899 C 565.84919,236.25609 566.08585,234.22734 565.55301,232.43029 C 564.29690,231.18896 564.65218,229.21079 564.91956,227.63146 C 565.06673,225.95740 565.81028,223.81737 567.40423,223.98265 C 568.93407,224.14624 572.29380,225.48066 572.10722,223.21955 C 573.18490,221.64630 575.40148,222.79175 576.79732,223.29399 C 578.90743,224.30827 581.24661,225.56247 583.65688,224.93144 C 585.51730,224.93427 584.82113,227.51361 585.00751,228.73533 C 585.11961,230.55396 585.44601,232.61641 586.96783,233.80986 C 588.07845,234.75412 588.58967,237.51097 586.48047,237.39623 C 585.44166,237.97477 589.33385,239.27899 586.93025,239.33341 C 585.10431,239.04338 583.67568,240.53263 583.21831,242.17139 C 582.73308,243.67865 581.64634,245.58711 579.79777,245.38979 C 577.67542,245.46652 581.88956,246.91979 579.86439,247.17510 C 578.25985,247.26385 577.33605,246.47636 575.77477,246.05766 C 575.55232,245.86357 575.41639,246.68388 575.39917,246.64413 z M 584.15790,244.36218 C 583.96857,243.53471 583.95977,241.99464 584.19332,243.69616 C 584.58682,244.39920 584.34888,247.06149 584.18067,245.04704 C 584.16378,244.81918 584.15803,244.59061 584.15790,244.36218 z "
         id="path20704" />
      <path
         style="fill:#000000;fill-opacity:1.0000000"
         d="M 573.07806,244.29095 C 571.51395,243.66849 569.86679,242.76723 568.13297,243.04445 C 567.32705,243.55338 564.6826,244.52673 564.87082,242.36657 C 571.22568,234.71288 562.16488,229.72286 565.61465,227.19393 C 565.45251,225.45449 567.36321,225.21363 569.05984,225.37749 C 570.42614,225.49039 571.90382,225.1111 572.40288,223.78209 C 573.935,223.1315 575.82104,223.27771 577.27747,224.06805 C 578.95492,225.54612 581.34417,225.27824 583.34655,225.92623 C 585.15053,226.78255 584.53392,229.14163 585.12894,230.69315 C 585.37967,232.35548 586.67785,233.39113 587.61008,234.64234 C 588.91549,236.6771 586.46561,237.57254 585.33355,238.69179 C 583.78182,240.3618 583.37401,242.71079 582.00167,244.48415 C 580.96303,246.04401 578.89321,244.11677 577.79795,245.42519 C 576.49783,245.89215 575.02511,244.98077 573.75261,244.58234 C 573.52638,244.48846 573.30153,244.39124 573.07806,244.29095 z "
         id="path20702"
         sodipodi:nodetypes="ccccccccccccccc" />
    </g>
  </g>
</svg>
