<?xml version="1.0" encoding="UTF-8" standalone="no"?>
<!-- Created with Inkscape (http://www.inkscape.org/) -->
<svg
   xmlns:dc="http://purl.org/dc/elements/1.1/"
   xmlns:cc="http://web.resource.org/cc/"
   xmlns:rdf="http://www.w3.org/1999/02/22-rdf-syntax-ns#"
   xmlns:svg="http://www.w3.org/2000/svg"
   xmlns="http://www.w3.org/2000/svg"
   xmlns:xlink="http://www.w3.org/1999/xlink"
   xmlns:sodipodi="http://inkscape.sourceforge.net/DTD/sodipodi-0.dtd"
   xmlns:inkscape="http://www.inkscape.org/namespaces/inkscape"
   sodipodi:docname="08.svg"
   sodipodi:docbase="/home/adam/workspace/Escape-j2se/src/org/spacebar/escape/j2se/resources/tiles"
   inkscape:version="0.43"
   sodipodi:version="0.32"
   id="svg7726"
   height="32px"
   width="32px">
  <defs
     id="defs3">
    <linearGradient
       inkscape:collect="always"
       xlink:href="#linearGradient2685"
       id="linearGradient8140"
       gradientUnits="userSpaceOnUse"
       gradientTransform="scale(1.732051,0.577350)"
       spreadMethod="pad"
       x1="-12.766315"
       y1="296.69754"
       x2="-11.715828"
       y2="301.93048" />
    <linearGradient
       inkscape:collect="always"
       xlink:href="#linearGradient2615"
       id="linearGradient8138"
       gradientUnits="userSpaceOnUse"
       gradientTransform="scale(1.525896,0.655353)"
       x1="-15.950862"
       y1="262.63419"
       x2="-14.394111"
       y2="264.46930" />
    <linearGradient
       inkscape:collect="always"
       xlink:href="#linearGradient2685"
       id="linearGradient8136"
       gradientUnits="userSpaceOnUse"
       gradientTransform="scale(1.732051,0.577350)"
       spreadMethod="pad"
       x1="-12.766315"
       y1="296.69754"
       x2="-10.865437"
       y2="301.78308" />
    <linearGradient
       inkscape:collect="always"
       xlink:href="#linearGradient2615"
       id="linearGradient8134"
       gradientUnits="userSpaceOnUse"
       gradientTransform="scale(1.525896,0.655353)"
       x1="-15.950862"
       y1="262.63419"
       x2="-14.394111"
       y2="264.46930" />
    <linearGradient
       inkscape:collect="always"
       xlink:href="#linearGradient2685"
       id="linearGradient8132"
       gradientUnits="userSpaceOnUse"
       gradientTransform="scale(1.732051,0.577350)"
       spreadMethod="pad"
       x1="-12.266085"
       y1="298.17163"
       x2="-10.565296"
       y2="302.96234" />
    <linearGradient
       inkscape:collect="always"
       xlink:href="#linearGradient2615"
       id="linearGradient8130"
       gradientUnits="userSpaceOnUse"
       gradientTransform="scale(1.525896,0.655353)"
       x1="-15.950862"
       y1="262.63419"
       x2="-14.394111"
       y2="264.46930" />
    <linearGradient
       inkscape:collect="always"
       xlink:href="#linearGradient2685"
       id="linearGradient8128"
       gradientUnits="userSpaceOnUse"
       gradientTransform="scale(1.732051,0.577350)"
       spreadMethod="pad"
       x1="-12.116015"
       y1="297.28717"
       x2="-11.015503"
       y2="301.41449" />
    <linearGradient
       inkscape:collect="always"
       xlink:href="#linearGradient2615"
       id="linearGradient8126"
       gradientUnits="userSpaceOnUse"
       gradientTransform="scale(1.525896,0.655353)"
       x1="-15.950862"
       y1="262.63419"
       x2="-14.394111"
       y2="264.46930" />
    <linearGradient
       inkscape:collect="always"
       xlink:href="#linearGradient2685"
       id="linearGradient8124"
       gradientUnits="userSpaceOnUse"
       gradientTransform="scale(1.732051,0.577350)"
       spreadMethod="pad"
       x1="-12.641255"
       y1="297.50821"
       x2="-11.990957"
       y2="302.22537" />
    <linearGradient
       inkscape:collect="always"
       xlink:href="#linearGradient2615"
       id="linearGradient8122"
       gradientUnits="userSpaceOnUse"
       gradientTransform="scale(1.525896,0.655353)"
       x1="-15.950862"
       y1="262.63419"
       x2="-14.394111"
       y2="264.46930" />
    <linearGradient
       inkscape:collect="always"
       xlink:href="#linearGradient2685"
       id="linearGradient8120"
       gradientUnits="userSpaceOnUse"
       gradientTransform="scale(1.732051,0.577350)"
       spreadMethod="pad"
       x1="-13.241533"
       y1="297.43451"
       x2="-9.8899860"
       y2="303.10980" />
    <linearGradient
       inkscape:collect="always"
       xlink:href="#linearGradient2615"
       id="linearGradient8118"
       gradientUnits="userSpaceOnUse"
       gradientTransform="scale(1.525896,0.655353)"
       x1="-15.950862"
       y1="262.63419"
       x2="-14.394111"
       y2="264.46930" />
    <linearGradient
       inkscape:collect="always"
       xlink:href="#linearGradient2685"
       id="linearGradient8116"
       gradientUnits="userSpaceOnUse"
       gradientTransform="scale(1.732051,0.577350)"
       spreadMethod="pad"
       x1="-12.616244"
       y1="296.62378"
       x2="-11.715830"
       y2="302.37277" />
    <linearGradient
       inkscape:collect="always"
       xlink:href="#linearGradient2615"
       id="linearGradient8114"
       gradientUnits="userSpaceOnUse"
       gradientTransform="scale(1.525896,0.655353)"
       x1="-15.950862"
       y1="262.63419"
       x2="-14.394111"
       y2="264.46930" />
    <linearGradient
       inkscape:collect="always"
       xlink:href="#linearGradient2685"
       id="linearGradient8112"
       gradientUnits="userSpaceOnUse"
       gradientTransform="scale(1.732051,0.577350)"
       spreadMethod="pad"
       x1="-11.940928"
       y1="298.02402"
       x2="-10.065067"
       y2="302.22537" />
    <linearGradient
       inkscape:collect="always"
       xlink:href="#linearGradient2615"
       id="linearGradient8110"
       gradientUnits="userSpaceOnUse"
       gradientTransform="scale(1.525896,0.655353)"
       x1="-15.950862"
       y1="262.63419"
       x2="-14.394111"
       y2="264.46930" />
    <pattern
       inkscape:collect="always"
       xlink:href="#pattern6922"
       id="pattern7397"
       patternTransform="translate(0.000000,140.3622)" />
    <pattern
       inkscape:collect="always"
       xlink:href="#pattern6914"
       id="pattern6922"
       patternTransform="translate(0.000000,140.3622)" />
    <pattern
       patternUnits="userSpaceOnUse"
       width="32.000000"
       height="32.000000"
       patternTransform="translate(-16.00000,140.3622)"
       id="pattern6914">
      <rect
         inkscape:export-filename="/home/adam/brick.png"
         y="140.36218"
         x="-16.000000"
         height="32.000000"
         width="32.000000"
         id="rect6916"
         style="fill:#c4c4c4;fill-opacity:1.0000000;fill-rule:evenodd;stroke:none;stroke-width:0.72500002;stroke-linecap:square;stroke-linejoin:miter;stroke-miterlimit:4.0000000;stroke-dashoffset:0.0000000;stroke-opacity:1.0000000"
         inkscape:export-xdpi="360.00000"
         inkscape:export-ydpi="360.00000"
         transform="translate(16.00000,-140.3622)" />
    </pattern>
    <linearGradient
       id="linearGradient2615">
      <stop
         style="stop-color:#eaeaea;stop-opacity:1.0000000;"
         offset="0.0000000"
         id="stop2617" />
      <stop
         style="stop-color:#dfdfdf;stop-opacity:0;"
         offset="1"
         id="stop2619" />
    </linearGradient>
    <linearGradient
       id="linearGradient2685">
      <stop
         style="stop-color:#c8c8c8;stop-opacity:1.0000000;"
         offset="0.0000000"
         id="stop2687" />
      <stop
         style="stop-color:#919191;stop-opacity:1.0000000;"
         offset="1.0000000"
         id="stop2689" />
    </linearGradient>
    <linearGradient
       inkscape:collect="always"
       xlink:href="#linearGradient2685"
       id="linearGradient8141"
       gradientUnits="userSpaceOnUse"
       gradientTransform="scale(1.732051,0.577350)"
       spreadMethod="pad"
       x1="-12.766315"
       y1="296.69754"
       x2="-11.715828"
       y2="301.93048" />
    <linearGradient
       inkscape:collect="always"
       xlink:href="#linearGradient2615"
       id="linearGradient8139"
       gradientUnits="userSpaceOnUse"
       gradientTransform="scale(1.525896,0.655353)"
       x1="-15.950862"
       y1="262.63419"
       x2="-14.394111"
       y2="264.46930" />
    <linearGradient
       inkscape:collect="always"
       xlink:href="#linearGradient2685"
       id="linearGradient8137"
       gradientUnits="userSpaceOnUse"
       gradientTransform="scale(1.732051,0.577350)"
       spreadMethod="pad"
       x1="-12.766315"
       y1="296.69754"
       x2="-10.865437"
       y2="301.78308" />
    <linearGradient
       inkscape:collect="always"
       xlink:href="#linearGradient2615"
       id="linearGradient8135"
       gradientUnits="userSpaceOnUse"
       gradientTransform="scale(1.525896,0.655353)"
       x1="-15.950862"
       y1="262.63419"
       x2="-14.394111"
       y2="264.46930" />
    <linearGradient
       inkscape:collect="always"
       xlink:href="#linearGradient2685"
       id="linearGradient8133"
       gradientUnits="userSpaceOnUse"
       gradientTransform="scale(1.732051,0.577350)"
       spreadMethod="pad"
       x1="-12.266085"
       y1="298.17163"
       x2="-10.565296"
       y2="302.96234" />
    <linearGradient
       inkscape:collect="always"
       xlink:href="#linearGradient2615"
       id="linearGradient8131"
       gradientUnits="userSpaceOnUse"
       gradientTransform="scale(1.525896,0.655353)"
       x1="-15.950862"
       y1="262.63419"
       x2="-14.394111"
       y2="264.46930" />
    <linearGradient
       inkscape:collect="always"
       xlink:href="#linearGradient2685"
       id="linearGradient8129"
       gradientUnits="userSpaceOnUse"
       gradientTransform="scale(1.732051,0.577350)"
       spreadMethod="pad"
       x1="-12.116015"
       y1="297.28717"
       x2="-11.015503"
       y2="301.41449" />
    <linearGradient
       inkscape:collect="always"
       xlink:href="#linearGradient2615"
       id="linearGradient8127"
       gradientUnits="userSpaceOnUse"
       gradientTransform="scale(1.525896,0.655353)"
       x1="-15.950862"
       y1="262.63419"
       x2="-14.394111"
       y2="264.46930" />
    <linearGradient
       inkscape:collect="always"
       xlink:href="#linearGradient2685"
       id="linearGradient8125"
       gradientUnits="userSpaceOnUse"
       gradientTransform="scale(1.732051,0.577350)"
       spreadMethod="pad"
       x1="-12.641255"
       y1="297.50821"
       x2="-11.990957"
       y2="302.22537" />
    <linearGradient
       inkscape:collect="always"
       xlink:href="#linearGradient2615"
       id="linearGradient8123"
       gradientUnits="userSpaceOnUse"
       gradientTransform="scale(1.525896,0.655353)"
       x1="-15.950862"
       y1="262.63419"
       x2="-14.394111"
       y2="264.46930" />
    <linearGradient
       inkscape:collect="always"
       xlink:href="#linearGradient2685"
       id="linearGradient8121"
       gradientUnits="userSpaceOnUse"
       gradientTransform="scale(1.732051,0.577350)"
       spreadMethod="pad"
       x1="-13.241533"
       y1="297.43451"
       x2="-9.8899860"
       y2="303.10980" />
    <linearGradient
       inkscape:collect="always"
       xlink:href="#linearGradient2615"
       id="linearGradient8119"
       gradientUnits="userSpaceOnUse"
       gradientTransform="scale(1.525896,0.655353)"
       x1="-15.950862"
       y1="262.63419"
       x2="-14.394111"
       y2="264.46930" />
    <linearGradient
       inkscape:collect="always"
       xlink:href="#linearGradient2685"
       id="linearGradient8117"
       gradientUnits="userSpaceOnUse"
       gradientTransform="scale(1.732051,0.577350)"
       spreadMethod="pad"
       x1="-12.616244"
       y1="296.62378"
       x2="-11.715830"
       y2="302.37277" />
    <linearGradient
       inkscape:collect="always"
       xlink:href="#linearGradient2615"
       id="linearGradient8115"
       gradientUnits="userSpaceOnUse"
       gradientTransform="scale(1.525896,0.655353)"
       x1="-15.950862"
       y1="262.63419"
       x2="-14.394111"
       y2="264.46930" />
    <linearGradient
       inkscape:collect="always"
       xlink:href="#linearGradient2685"
       id="linearGradient8113"
       gradientUnits="userSpaceOnUse"
       gradientTransform="scale(1.732051,0.577350)"
       spreadMethod="pad"
       x1="-11.940928"
       y1="298.02402"
       x2="-10.065067"
       y2="302.22537" />
    <linearGradient
       inkscape:collect="always"
       xlink:href="#linearGradient2615"
       id="linearGradient8111"
       gradientUnits="userSpaceOnUse"
       gradientTransform="scale(1.525896,0.655353)"
       x1="-15.950862"
       y1="262.63419"
       x2="-14.394111"
       y2="264.46930" />
    <pattern
       inkscape:collect="always"
       xlink:href="#pattern6922"
       id="pattern8109"
       patternTransform="translate(0.000000,140.3622)" />
    <pattern
       inkscape:collect="always"
       xlink:href="#pattern6914"
       id="pattern8107"
       patternTransform="translate(0.000000,140.3622)" />
    <pattern
       patternUnits="userSpaceOnUse"
       width="32.000000"
       height="32.000000"
       patternTransform="translate(-16.00000,140.3622)"
       id="pattern8103">
      <rect
         inkscape:export-filename="/home/adam/brick.png"
         y="140.36218"
         x="-16.000000"
         height="32.000000"
         width="32.000000"
         id="rect8105"
         style="fill:#c4c4c4;fill-opacity:1.0000000;fill-rule:evenodd;stroke:none;stroke-width:0.72500002;stroke-linecap:square;stroke-linejoin:miter;stroke-miterlimit:4.0000000;stroke-dashoffset:0.0000000;stroke-opacity:1.0000000"
         inkscape:export-xdpi="360.00000"
         inkscape:export-ydpi="360.00000"
         transform="translate(16.00000,-140.3622)" />
    </pattern>
    <linearGradient
       id="linearGradient8097">
      <stop
         style="stop-color:#eaeaea;stop-opacity:1.0000000;"
         offset="0.0000000"
         id="stop8099" />
      <stop
         style="stop-color:#dfdfdf;stop-opacity:0;"
         offset="1"
         id="stop8101" />
    </linearGradient>
    <linearGradient
       id="linearGradient8091">
      <stop
         style="stop-color:#c8c8c8;stop-opacity:1.0000000;"
         offset="0.0000000"
         id="stop8093" />
      <stop
         style="stop-color:#919191;stop-opacity:1.0000000;"
         offset="1.0000000"
         id="stop8095" />
    </linearGradient>
  </defs>
  <sodipodi:namedview
     inkscape:window-y="172"
     inkscape:window-x="141"
     inkscape:window-height="541"
     inkscape:window-width="792"
     inkscape:document-units="px"
     inkscape:grid-bbox="true"
     showgrid="true"
     inkscape:current-layer="layer1"
     inkscape:cy="28.278269"
     inkscape:cx="21.89319"
     inkscape:zoom="11.197802"
     inkscape:pageshadow="2"
     inkscape:pageopacity="0.0"
     borderopacity="1.0"
     bordercolor="#666666"
     pagecolor="#ffffff"
     id="base" />
  <metadata
     id="metadata4">
    <rdf:RDF>
      <cc:Work
         rdf:about="">
        <dc:format>image/svg+xml</dc:format>
        <dc:type
           rdf:resource="http://purl.org/dc/dcmitype/StillImage" />
      </cc:Work>
    </rdf:RDF>
  </metadata>
  <g
     inkscape:groupmode="layer"
     inkscape:label="Layer 1"
     id="layer1">
    <g
       transform="translate(-511.8643,-76.24368)"
       id="g7689">
      <path
         sodipodi:nodetypes="cccccccccccczzccccc"
         id="path7722"
         d="M 529.37839,76.753992 C 526.29297,76.742662 524.49494,76.924642 523.44089,77.597742 C 522.44891,78.326912 522.19089,79.580412 522.19089,81.753992 C 522.19089,83.791762 522.14399,84.759912 521.56589,85.222742 C 521.08264,85.737932 520.11973,85.753992 518.15964,85.753992 C 517.06517,85.753992 516.18738,85.816542 515.50339,86.003992 C 514.91846,86.195712 514.42608,86.459372 514.09714,86.910242 C 513.36763,87.910162 513.19089,89.659922 513.19089,92.660244 C 513.19089,98.441874 513.97413,99.660244 517.69089,99.660244 C 521.14315,99.660244 522.19089,100.94200 522.19089,105.16024 C 522.19089,106.44442 522.75339,106.63467 523.44089,106.91208 C 525.50700,107.74578 533.37316,107.60875 534.94089,106.72458 C 535.66637,106.20506 536.25338,104.34936 536.25339,103.22274 C 536.25340,102.09613 538.21791,100.63354 538.69089,100.34774 C 539.16387,100.06194 539.96447,99.660244 541.09714,99.660244 C 541.89499,99.660244 543.79719,96.848324 543.79720,92.753994 C 543.79720,86.729112 544.30869,85.753992 539.84714,85.753992 C 535.90914,85.753992 535.88755,85.712562 536.19089,82.191492 C 536.55984,77.909082 535.14789,76.775182 529.37839,76.753992 z "
         style="opacity:1;fill:#000000;fill-opacity:0.32044199" />
      <path
         id="path7699"
         transform="translate(-33.50000,3.828125e-7)"
         d="M 561.00000,77.187500 C 559.02433,77.210478 557.19202,77.332937 555.50000,77.531250 C 554.61053,78.274216 554.34374,79.481170 554.34375,81.562500 C 554.34375,85.419850 554.32608,85.468752 550.46875,85.468750 C 550.18556,85.468750 550.03469,85.521803 549.78125,85.531250 C 549.72435,85.536461 549.71470,85.557625 549.65625,85.562500 C 548.80594,85.633428 548.19187,85.703267 547.68750,85.812500 C 547.14364,85.986297 546.69787,86.234871 546.37500,86.625000 C 545.94227,87.310059 545.83400,88.466951 545.68750,90.781250 C 545.50916,93.598677 545.61469,95.617059 545.90625,97.156250 C 546.47429,98.848737 547.56188,99.468750 549.84375,99.468750 C 553.06239,99.468750 554.14324,100.68089 554.28125,104.25000 C 554.43851,104.50267 554.50000,104.79496 554.50000,105.18750 C 554.50000,105.96325 554.79832,106.62554 555.06250,107.15625 C 555.23722,107.40084 555.38289,107.72742 555.59375,107.81250 C 556.27232,108.08631 558.02295,108.08479 559.53125,108.15625 C 560.47515,108.16700 561.33435,108.20436 562.40625,108.15625 C 563.82879,108.09240 564.84191,108.04663 565.71875,107.96875 C 566.31771,107.85624 566.96461,107.72355 567.21875,107.56250 C 567.96273,107.09103 568.56247,105.01865 568.56250,102.93750 C 568.56250,100.36183 571.61042,99.468750 573.25000,99.468750 C 576.33288,99.468750 577.20985,98.110733 577.31250,93.343750 C 577.30298,92.926026 577.33420,92.645903 577.31250,92.187500 C 577.19015,89.602731 577.01223,88.552608 576.75000,87.625000 C 576.38143,86.659922 575.87110,85.984660 574.87500,85.718750 C 574.85915,85.714520 574.82854,85.722851 574.81250,85.718750 C 574.12491,85.542943 573.24621,85.468750 572.15625,85.468750 C 568.21825,85.468750 568.19666,85.427319 568.50000,81.906250 C 568.68243,79.788786 568.43941,78.448495 567.43750,77.625000 C 565.28055,77.437853 563.15347,77.162454 561.00000,77.187500 z "
         style="fill:#939393" />
      <path
         id="path7697"
         transform="translate(-33.50000,3.828125e-7)"
         d="M 561.00000,77.187500 C 559.02433,77.210478 557.19202,77.332937 555.50000,77.531250 C 554.61053,78.274216 554.34374,79.481170 554.34375,81.562500 C 554.34375,85.419850 554.32608,85.468752 550.46875,85.468750 C 550.18556,85.468750 550.03469,85.521803 549.78125,85.531250 C 549.72435,85.536461 549.71470,85.557625 549.65625,85.562500 C 548.82835,85.631559 548.18845,85.702964 547.68750,85.812500 C 547.12843,85.991157 546.67007,86.247927 546.34375,86.656250 C 546.20409,86.869845 546.08230,87.108687 546.00000,87.437500 C 545.98021,87.516547 545.95497,87.569469 545.93750,87.656250 C 545.82743,88.202899 545.76203,88.898630 545.68750,89.812500 C 545.44771,92.752638 545.76121,96.143532 546.28125,98.187500 C 546.94801,99.153598 548.03224,99.468750 549.84375,99.468750 C 552.96070,99.468750 554.05467,100.63014 554.25000,103.93750 C 554.30192,104.19107 554.50000,104.36525 554.50000,104.65625 C 554.50000,105.72851 554.80284,106.60075 555.09375,107.18750 C 555.26174,107.41281 555.39387,107.73185 555.59375,107.81250 C 556.27232,108.08631 558.02295,108.08479 559.53125,108.15625 C 560.46204,108.16629 561.32067,108.20384 562.37500,108.15625 C 564.85391,108.04436 565.96395,107.86571 566.93750,107.62500 C 566.99836,107.59679 567.17167,107.59233 567.21875,107.56250 C 567.96273,107.09103 568.56247,105.01865 568.56250,102.93750 C 568.56250,100.36183 571.61042,99.468750 573.25000,99.468750 C 575.07785,99.468750 576.10235,98.937077 576.68750,97.593750 C 576.89507,96.275751 577.00000,94.640204 577.00000,92.562500 L 577.00000,88.343750 C 576.49755,86.040746 575.25346,85.468751 572.15625,85.468750 C 568.21825,85.468750 568.19666,85.427319 568.50000,81.906250 C 568.68243,79.788786 568.43941,78.448495 567.43750,77.625000 C 565.28055,77.437853 563.15347,77.162454 561.00000,77.187500 z M 559.25000,78.656250 C 560.48750,78.417897 562.51250,78.417898 563.75000,78.656250 C 564.98750,78.894603 563.97500,79.093748 561.50000,79.093750 C 559.02500,79.093750 558.01250,78.894604 559.25000,78.656250 z M 559.25000,80.656250 C 560.48750,80.417897 562.51250,80.417898 563.75000,80.656250 C 564.98750,80.894603 563.97500,81.093748 561.50000,81.093750 C 559.02500,81.093750 558.01250,80.894604 559.25000,80.656250 z M 559.25000,82.656250 C 560.48750,82.417897 562.51250,82.417898 563.75000,82.656250 C 564.98750,82.894603 563.97500,83.093748 561.50000,83.093750 C 559.02500,83.093750 558.01250,82.894604 559.25000,82.656250 z M 561.50000,84.187500 C 563.45571,84.187500 565.40293,84.928280 565.78125,86.375000 C 566.06890,87.475000 567.02977,88.375000 567.90625,88.375000 C 569.09881,88.375000 569.50000,89.381673 569.50000,92.375000 C 569.50000,95.368327 569.09882,96.375000 567.90625,96.375000 C 567.02976,96.375000 566.06892,97.275000 565.78125,98.375000 C 565.37150,99.941869 564.41737,100.37500 561.37500,100.37500 C 558.48839,100.37500 557.50000,99.965830 557.50000,98.781250 C 557.50000,97.904760 556.60000,96.943906 555.50000,96.656250 C 553.93313,96.246505 553.50000,95.292364 553.50000,92.250000 C 553.50000,89.363390 553.90916,88.375000 555.09375,88.375000 C 555.97024,88.375000 556.93108,87.475000 557.21875,86.375000 C 557.59708,84.928280 559.54429,84.187500 561.50000,84.187500 z M 561.50000,88.875000 C 558.59902,88.875000 557.92903,89.262308 557.65625,91.187500 C 557.47525,92.464999 557.59152,94.179870 557.90625,95.000000 C 558.28998,95.999963 559.56596,96.397981 561.75000,96.187500 C 564.74570,95.898800 565.00000,95.594319 565.00000,92.375000 C 565.00000,89.041667 564.83333,88.875000 561.50000,88.875000 z M 548.03125,89.593750 C 548.08305,89.634180 548.15916,89.815625 548.21875,90.125000 C 548.45711,91.362500 548.45709,93.387500 548.21875,94.625000 C 547.98040,95.862500 547.78127,94.850000 547.78125,92.375000 C 547.78125,90.518750 547.87584,89.472461 548.03125,89.593750 z M 550.03125,89.593750 C 550.08305,89.634180 550.15916,89.815625 550.21875,90.125000 C 550.45711,91.362500 550.45709,93.387500 550.21875,94.625000 C 549.98040,95.862500 549.78127,94.850000 549.78125,92.375000 C 549.78125,90.518750 549.87584,89.472461 550.03125,89.593750 z M 552.03125,89.593750 C 552.08305,89.634180 552.15916,89.815625 552.21875,90.125000 C 552.45711,91.362500 552.45709,93.387500 552.21875,94.625000 C 551.98040,95.862500 551.78127,94.850000 551.78125,92.375000 C 551.78125,90.518750 551.87584,89.472461 552.03125,89.593750 z M 571.03125,89.593750 C 571.08305,89.634180 571.15916,89.815625 571.21875,90.125000 C 571.45711,91.362500 571.45709,93.387500 571.21875,94.625000 C 570.98040,95.862500 570.78127,94.850000 570.78125,92.375000 C 570.78125,90.518750 570.87584,89.472461 571.03125,89.593750 z M 573.03125,89.593750 C 573.08305,89.634180 573.15916,89.815625 573.21875,90.125000 C 573.45711,91.362500 573.45709,93.387500 573.21875,94.625000 C 572.98040,95.862500 572.78127,94.850000 572.78125,92.375000 C 572.78125,90.518750 572.87584,89.472461 573.03125,89.593750 z M 575.03125,89.593750 C 575.08305,89.634180 575.15916,89.815625 575.21875,90.125000 C 575.45711,91.362500 575.45709,93.387500 575.21875,94.625000 C 574.98040,95.862500 574.78127,94.850000 574.78125,92.375000 C 574.78125,90.518750 574.87584,89.472461 575.03125,89.593750 z M 559.25000,101.65625 C 560.48750,101.41790 562.51250,101.41790 563.75000,101.65625 C 564.98750,101.89460 563.97500,102.09375 561.50000,102.09375 C 559.02500,102.09375 558.01250,101.89460 559.25000,101.65625 z M 559.25000,103.65625 C 560.48750,103.41790 562.51250,103.41790 563.75000,103.65625 C 564.98750,103.89460 563.97500,104.09375 561.50000,104.09375 C 559.02500,104.09375 558.01250,103.89460 559.25000,103.65625 z M 559.25000,105.65625 C 560.48750,105.41790 562.51250,105.41790 563.75000,105.65625 C 564.98750,105.89460 563.97500,106.09375 561.50000,106.09375 C 559.02500,106.09375 558.01250,105.89460 559.25000,105.65625 z "
         style="fill:#777777" />
      <path
         id="path7695"
         transform="translate(-33.50000,3.828125e-7)"
         d="M 561.68750,76.468750 C 558.60208,76.457415 556.80405,76.639403 555.75000,77.312500 C 554.75802,78.041668 554.50000,79.295168 554.50000,81.468750 C 554.50000,83.506523 554.45310,84.474672 553.87500,84.937500 C 553.39175,85.452685 552.42884,85.468751 550.46875,85.468750 C 549.37428,85.468750 548.49649,85.531300 547.81250,85.718750 C 547.22757,85.910474 546.73519,86.174128 546.40625,86.625000 C 545.67674,87.624921 545.50000,89.374684 545.50000,92.375000 C 545.50000,98.156629 546.28324,99.375000 550.00000,99.375000 C 553.45226,99.375000 554.50000,100.65676 554.50000,104.87500 C 554.50000,106.15918 555.06250,107.41009 555.75000,107.68750 C 557.81611,108.52120 565.68227,108.38417 567.25000,107.50000 C 567.97548,106.98048 568.56247,104.98102 568.56250,102.93750 C 568.56250,102.72779 568.68068,102.59424 568.71875,102.40625 C 568.76389,100.34501 569.04305,99.599060 569.59375,100.46875 C 569.68118,100.60683 569.70782,100.58597 569.78125,100.68750 C 570.16627,100.38108 570.53701,100.24071 571.00000,100.06250 C 571.48297,99.669110 572.27358,99.375000 573.40625,99.375000 C 574.20410,99.375000 574.84442,99.266461 575.37500,99.062500 C 576.89044,98.363683 577.34374,96.563084 577.34375,92.468750 C 577.34375,86.443867 576.61780,85.468752 572.15625,85.468750 C 568.21825,85.468750 568.19666,85.427319 568.50000,81.906250 C 568.86895,77.623839 567.45700,76.489942 561.68750,76.468750 z M 561.50000,78.562500 C 566.16933,78.562500 567.29590,78.799853 565.50000,79.375000 L 563.00000,80.156250 L 565.50000,80.375000 L 568.00000,80.562500 L 565.50000,81.375000 L 563.00000,82.156250 L 565.50000,82.375000 L 568.00000,82.562500 L 565.50000,83.375000 C 563.70779,83.948965 563.50677,84.178539 564.81250,84.250000 C 567.14801,84.377814 569.46595,86.695733 569.59375,89.031250 C 569.66521,90.337002 569.92603,90.167207 570.50000,88.375000 L 571.31250,85.875000 L 571.50000,88.375000 L 571.68750,90.875000 L 572.50000,88.375000 L 573.31250,85.875000 L 573.50000,88.375000 L 573.68750,90.875000 L 574.50000,88.375000 C 575.07515,86.579103 575.31248,87.705669 575.31250,92.375000 C 575.31250,97.044331 575.07515,98.170897 574.50000,96.375000 L 573.68750,93.875000 L 573.50000,96.375000 L 573.31250,98.875000 L 572.50000,96.375000 L 571.68750,93.875000 L 571.50000,96.375000 L 571.31250,98.875000 L 570.50000,96.375000 C 569.92603,94.582793 569.66522,94.381751 569.59375,95.687500 C 569.46594,98.023014 567.14803,100.34094 564.81250,100.46875 C 563.50675,100.54021 563.70779,100.80104 565.50000,101.37500 L 568.00000,102.15625 L 565.50000,102.37500 L 563.00000,102.56250 L 565.50000,103.37500 L 568.00000,104.15625 L 565.50000,104.37500 L 563.00000,104.56250 L 565.50000,105.37500 C 567.29590,105.95015 566.16933,106.15625 561.50000,106.15625 C 556.83067,106.15625 555.70410,105.95015 557.50000,105.37500 L 560.00000,104.56250 L 557.50000,104.37500 L 555.00000,104.15625 L 557.50000,103.37500 L 560.00000,102.56250 L 557.50000,102.37500 L 555.00000,102.15625 L 557.50000,101.37500 C 559.29221,100.80104 559.49323,100.54021 558.18750,100.46875 C 555.85199,100.34094 553.53405,98.023017 553.40625,95.687500 C 553.33479,94.381748 553.07397,94.582793 552.50000,96.375000 L 551.68750,98.875000 L 551.50000,96.375000 L 551.31250,93.875000 L 550.50000,96.375000 L 549.68750,98.875000 L 549.50000,96.375000 L 549.31250,93.875000 L 548.50000,96.375000 C 547.92485,98.170897 547.68752,97.044331 547.68750,92.375000 C 547.68750,87.705669 547.92485,86.579103 548.50000,88.375000 L 549.31250,90.875000 L 549.50000,88.375000 L 549.68750,85.875000 L 550.50000,88.375000 L 551.31250,90.875000 L 551.50000,88.375000 L 551.68750,85.875000 L 552.50000,88.375000 C 553.07397,90.167207 553.33478,90.336999 553.40625,89.031250 C 553.53406,86.695736 555.85197,84.377812 558.18750,84.250000 C 559.49325,84.178541 559.29221,83.948965 557.50000,83.375000 L 555.00000,82.562500 L 557.50000,82.375000 L 560.00000,82.156250 L 557.50000,81.375000 L 555.00000,80.562500 L 557.50000,80.375000 L 560.00000,80.156250 L 557.50000,79.375000 C 555.70410,78.799853 556.83067,78.562496 561.50000,78.562500 z M 561.06250,88.468750 C 560.62940,88.536878 560.18311,88.695996 559.75000,88.968750 C 557.52827,90.367893 556.97666,93.033072 558.53125,94.906250 C 560.07586,96.767391 562.92413,96.767388 564.46875,94.906250 C 566.79315,92.105520 564.09420,87.991854 561.06250,88.468750 z "
         style="fill:#565656" />
      <path
         id="path7693"
         transform="translate(-33.50000,3.828125e-7)"
         d="M 561.0625,88.46875 C 560.6294,88.536878 560.18311,88.695996 559.75,88.96875 C 557.52827,90.367893 556.97666,93.033072 558.53125,94.90625 C 560.07586,96.767391 562.92413,96.767388 564.46875,94.90625 C 566.79315,92.10552 564.0942,87.991854 561.0625,88.46875 z "
         style="fill:#e90000"
         sodipodi:nodetypes="csssc" />
      <path
         id="path7691"
         transform="translate(-33.50000,3.828125e-7)"
         d="M 560.1607,76.6875 C 559.4732,76.964913 560.0357,77.218753 561.4107,77.21875 C 562.7857,77.21875 563.3482,76.964909 562.6607,76.6875 C 561.9732,76.410088 560.8482,76.410084 560.1607,76.6875 z M 564.71875,90 C 564.28776,89.733633 563.95027,90.716091 563.96875,92.1875 C 563.99703,94.437762 563.56277,94.872032 561.3125,94.84375 C 559.8411,94.82526 558.85863,95.162764 559.125,95.59375 C 559.85818,96.780053 562.95794,96.510813 564.3125,95.15625 C 565.66707,93.801684 565.90506,90.733178 564.71875,90 z M 545.8125,90.96875 C 545.72108,91.195312 545.65625,91.6875 545.65625,92.375 C 545.65625,93.75 545.87883,94.3125 546.15625,93.625 C 546.43366,92.9375 546.43365,91.8125 546.15625,91.125 C 546.01755,90.78125 545.90392,90.742188 545.8125,90.96875 z M 576.8125,90.96875 C 576.72108,91.195312 576.65625,91.6875 576.65625,92.375 C 576.65625,93.75 576.87883,94.3125 577.15625,93.625 C 577.43366,92.9375 577.43365,91.8125 577.15625,91.125 C 577.01755,90.78125 576.90392,90.742188 576.8125,90.96875 z M 560.07139,107.6875 C 559.38389,107.96492 559.94639,108.21875 561.32139,108.21875 C 562.69639,108.21875 563.25889,107.96492 562.57139,107.6875 C 561.88389,107.41009 560.75889,107.41009 560.07139,107.6875 z "
         style="fill:#a50000"
         sodipodi:nodetypes="cssccssssccsssccsssccssc" />
    </g>
  </g>
</svg>
