<?xml version="1.0" encoding="UTF-8" standalone="no"?>
<!-- Created with Inkscape (http://www.inkscape.org/) -->
<svg
   xmlns:dc="http://purl.org/dc/elements/1.1/"
   xmlns:cc="http://web.resource.org/cc/"
   xmlns:rdf="http://www.w3.org/1999/02/22-rdf-syntax-ns#"
   xmlns:svg="http://www.w3.org/2000/svg"
   xmlns="http://www.w3.org/2000/svg"
   xmlns:xlink="http://www.w3.org/1999/xlink"
   xmlns:sodipodi="http://inkscape.sourceforge.net/DTD/sodipodi-0.dtd"
   xmlns:inkscape="http://www.inkscape.org/namespaces/inkscape"
   sodipodi:docname="08.svg"
   sodipodi:docbase="/home/adam/workspace/Escape/src/org/spacebar/escape/j2se/resources/tiles"
   inkscape:version="0.41"
   sodipodi:version="0.32"
   id="svg7726"
   height="32px"
   width="32px">
  <defs
     id="defs3">
    <linearGradient
       inkscape:collect="always"
       xlink:href="#linearGradient2685"
       id="linearGradient8140"
       gradientUnits="userSpaceOnUse"
       gradientTransform="scale(1.732051,0.577350)"
       spreadMethod="pad"
       x1="-12.766315"
       y1="296.69754"
       x2="-11.715828"
       y2="301.93048" />
    <linearGradient
       inkscape:collect="always"
       xlink:href="#linearGradient2615"
       id="linearGradient8138"
       gradientUnits="userSpaceOnUse"
       gradientTransform="scale(1.525896,0.655353)"
       x1="-15.950862"
       y1="262.63419"
       x2="-14.394111"
       y2="264.46930" />
    <linearGradient
       inkscape:collect="always"
       xlink:href="#linearGradient2685"
       id="linearGradient8136"
       gradientUnits="userSpaceOnUse"
       gradientTransform="scale(1.732051,0.577350)"
       spreadMethod="pad"
       x1="-12.766315"
       y1="296.69754"
       x2="-10.865437"
       y2="301.78308" />
    <linearGradient
       inkscape:collect="always"
       xlink:href="#linearGradient2615"
       id="linearGradient8134"
       gradientUnits="userSpaceOnUse"
       gradientTransform="scale(1.525896,0.655353)"
       x1="-15.950862"
       y1="262.63419"
       x2="-14.394111"
       y2="264.46930" />
    <linearGradient
       inkscape:collect="always"
       xlink:href="#linearGradient2685"
       id="linearGradient8132"
       gradientUnits="userSpaceOnUse"
       gradientTransform="scale(1.732051,0.577350)"
       spreadMethod="pad"
       x1="-12.266085"
       y1="298.17163"
       x2="-10.565296"
       y2="302.96234" />
    <linearGradient
       inkscape:collect="always"
       xlink:href="#linearGradient2615"
       id="linearGradient8130"
       gradientUnits="userSpaceOnUse"
       gradientTransform="scale(1.525896,0.655353)"
       x1="-15.950862"
       y1="262.63419"
       x2="-14.394111"
       y2="264.46930" />
    <linearGradient
       inkscape:collect="always"
       xlink:href="#linearGradient2685"
       id="linearGradient8128"
       gradientUnits="userSpaceOnUse"
       gradientTransform="scale(1.732051,0.577350)"
       spreadMethod="pad"
       x1="-12.116015"
       y1="297.28717"
       x2="-11.015503"
       y2="301.41449" />
    <linearGradient
       inkscape:collect="always"
       xlink:href="#linearGradient2615"
       id="linearGradient8126"
       gradientUnits="userSpaceOnUse"
       gradientTransform="scale(1.525896,0.655353)"
       x1="-15.950862"
       y1="262.63419"
       x2="-14.394111"
       y2="264.46930" />
    <linearGradient
       inkscape:collect="always"
       xlink:href="#linearGradient2685"
       id="linearGradient8124"
       gradientUnits="userSpaceOnUse"
       gradientTransform="scale(1.732051,0.577350)"
       spreadMethod="pad"
       x1="-12.641255"
       y1="297.50821"
       x2="-11.990957"
       y2="302.22537" />
    <linearGradient
       inkscape:collect="always"
       xlink:href="#linearGradient2615"
       id="linearGradient8122"
       gradientUnits="userSpaceOnUse"
       gradientTransform="scale(1.525896,0.655353)"
       x1="-15.950862"
       y1="262.63419"
       x2="-14.394111"
       y2="264.46930" />
    <linearGradient
       inkscape:collect="always"
       xlink:href="#linearGradient2685"
       id="linearGradient8120"
       gradientUnits="userSpaceOnUse"
       gradientTransform="scale(1.732051,0.577350)"
       spreadMethod="pad"
       x1="-13.241533"
       y1="297.43451"
       x2="-9.8899860"
       y2="303.10980" />
    <linearGradient
       inkscape:collect="always"
       xlink:href="#linearGradient2615"
       id="linearGradient8118"
       gradientUnits="userSpaceOnUse"
       gradientTransform="scale(1.525896,0.655353)"
       x1="-15.950862"
       y1="262.63419"
       x2="-14.394111"
       y2="264.46930" />
    <linearGradient
       inkscape:collect="always"
       xlink:href="#linearGradient2685"
       id="linearGradient8116"
       gradientUnits="userSpaceOnUse"
       gradientTransform="scale(1.732051,0.577350)"
       spreadMethod="pad"
       x1="-12.616244"
       y1="296.62378"
       x2="-11.715830"
       y2="302.37277" />
    <linearGradient
       inkscape:collect="always"
       xlink:href="#linearGradient2615"
       id="linearGradient8114"
       gradientUnits="userSpaceOnUse"
       gradientTransform="scale(1.525896,0.655353)"
       x1="-15.950862"
       y1="262.63419"
       x2="-14.394111"
       y2="264.46930" />
    <linearGradient
       inkscape:collect="always"
       xlink:href="#linearGradient2685"
       id="linearGradient8112"
       gradientUnits="userSpaceOnUse"
       gradientTransform="scale(1.732051,0.577350)"
       spreadMethod="pad"
       x1="-11.940928"
       y1="298.02402"
       x2="-10.065067"
       y2="302.22537" />
    <linearGradient
       inkscape:collect="always"
       xlink:href="#linearGradient2615"
       id="linearGradient8110"
       gradientUnits="userSpaceOnUse"
       gradientTransform="scale(1.525896,0.655353)"
       x1="-15.950862"
       y1="262.63419"
       x2="-14.394111"
       y2="264.46930" />
    <pattern
       inkscape:collect="always"
       xlink:href="#pattern6922"
       id="pattern7397"
       patternTransform="translate(0.000000,140.3622)" />
    <pattern
       inkscape:collect="always"
       xlink:href="#pattern6914"
       id="pattern6922"
       patternTransform="translate(0.000000,140.3622)" />
    <pattern
       patternUnits="userSpaceOnUse"
       width="32.000000"
       height="32.000000"
       patternTransform="translate(-16.00000,140.3622)"
       id="pattern6914">
      <rect
         inkscape:export-filename="/home/adam/brick.png"
         y="140.36218"
         x="-16.000000"
         height="32.000000"
         width="32.000000"
         id="rect6916"
         style="fill:#c4c4c4;fill-opacity:1.0000000;fill-rule:evenodd;stroke:none;stroke-width:0.72500002;stroke-linecap:square;stroke-linejoin:miter;stroke-miterlimit:4.0000000;stroke-dashoffset:0.0000000;stroke-opacity:1.0000000"
         inkscape:export-xdpi="360.00000"
         inkscape:export-ydpi="360.00000"
         transform="translate(16.00000,-140.3622)" />
    </pattern>
    <linearGradient
       id="linearGradient2615">
      <stop
         style="stop-color:#eaeaea;stop-opacity:1.0000000;"
         offset="0.0000000"
         id="stop2617" />
      <stop
         style="stop-color:#dfdfdf;stop-opacity:0;"
         offset="1"
         id="stop2619" />
    </linearGradient>
    <linearGradient
       id="linearGradient2685">
      <stop
         style="stop-color:#c8c8c8;stop-opacity:1.0000000;"
         offset="0.0000000"
         id="stop2687" />
      <stop
         style="stop-color:#919191;stop-opacity:1.0000000;"
         offset="1.0000000"
         id="stop2689" />
    </linearGradient>
    <linearGradient
       inkscape:collect="always"
       xlink:href="#linearGradient2685"
       id="linearGradient8141"
       gradientUnits="userSpaceOnUse"
       gradientTransform="scale(1.732051,0.577350)"
       spreadMethod="pad"
       x1="-12.766315"
       y1="296.69754"
       x2="-11.715828"
       y2="301.93048" />
    <linearGradient
       inkscape:collect="always"
       xlink:href="#linearGradient2615"
       id="linearGradient8139"
       gradientUnits="userSpaceOnUse"
       gradientTransform="scale(1.525896,0.655353)"
       x1="-15.950862"
       y1="262.63419"
       x2="-14.394111"
       y2="264.46930" />
    <linearGradient
       inkscape:collect="always"
       xlink:href="#linearGradient2685"
       id="linearGradient8137"
       gradientUnits="userSpaceOnUse"
       gradientTransform="scale(1.732051,0.577350)"
       spreadMethod="pad"
       x1="-12.766315"
       y1="296.69754"
       x2="-10.865437"
       y2="301.78308" />
    <linearGradient
       inkscape:collect="always"
       xlink:href="#linearGradient2615"
       id="linearGradient8135"
       gradientUnits="userSpaceOnUse"
       gradientTransform="scale(1.525896,0.655353)"
       x1="-15.950862"
       y1="262.63419"
       x2="-14.394111"
       y2="264.46930" />
    <linearGradient
       inkscape:collect="always"
       xlink:href="#linearGradient2685"
       id="linearGradient8133"
       gradientUnits="userSpaceOnUse"
       gradientTransform="scale(1.732051,0.577350)"
       spreadMethod="pad"
       x1="-12.266085"
       y1="298.17163"
       x2="-10.565296"
       y2="302.96234" />
    <linearGradient
       inkscape:collect="always"
       xlink:href="#linearGradient2615"
       id="linearGradient8131"
       gradientUnits="userSpaceOnUse"
       gradientTransform="scale(1.525896,0.655353)"
       x1="-15.950862"
       y1="262.63419"
       x2="-14.394111"
       y2="264.46930" />
    <linearGradient
       inkscape:collect="always"
       xlink:href="#linearGradient2685"
       id="linearGradient8129"
       gradientUnits="userSpaceOnUse"
       gradientTransform="scale(1.732051,0.577350)"
       spreadMethod="pad"
       x1="-12.116015"
       y1="297.28717"
       x2="-11.015503"
       y2="301.41449" />
    <linearGradient
       inkscape:collect="always"
       xlink:href="#linearGradient2615"
       id="linearGradient8127"
       gradientUnits="userSpaceOnUse"
       gradientTransform="scale(1.525896,0.655353)"
       x1="-15.950862"
       y1="262.63419"
       x2="-14.394111"
       y2="264.46930" />
    <linearGradient
       inkscape:collect="always"
       xlink:href="#linearGradient2685"
       id="linearGradient8125"
       gradientUnits="userSpaceOnUse"
       gradientTransform="scale(1.732051,0.577350)"
       spreadMethod="pad"
       x1="-12.641255"
       y1="297.50821"
       x2="-11.990957"
       y2="302.22537" />
    <linearGradient
       inkscape:collect="always"
       xlink:href="#linearGradient2615"
       id="linearGradient8123"
       gradientUnits="userSpaceOnUse"
       gradientTransform="scale(1.525896,0.655353)"
       x1="-15.950862"
       y1="262.63419"
       x2="-14.394111"
       y2="264.46930" />
    <linearGradient
       inkscape:collect="always"
       xlink:href="#linearGradient2685"
       id="linearGradient8121"
       gradientUnits="userSpaceOnUse"
       gradientTransform="scale(1.732051,0.577350)"
       spreadMethod="pad"
       x1="-13.241533"
       y1="297.43451"
       x2="-9.8899860"
       y2="303.10980" />
    <linearGradient
       inkscape:collect="always"
       xlink:href="#linearGradient2615"
       id="linearGradient8119"
       gradientUnits="userSpaceOnUse"
       gradientTransform="scale(1.525896,0.655353)"
       x1="-15.950862"
       y1="262.63419"
       x2="-14.394111"
       y2="264.46930" />
    <linearGradient
       inkscape:collect="always"
       xlink:href="#linearGradient2685"
       id="linearGradient8117"
       gradientUnits="userSpaceOnUse"
       gradientTransform="scale(1.732051,0.577350)"
       spreadMethod="pad"
       x1="-12.616244"
       y1="296.62378"
       x2="-11.715830"
       y2="302.37277" />
    <linearGradient
       inkscape:collect="always"
       xlink:href="#linearGradient2615"
       id="linearGradient8115"
       gradientUnits="userSpaceOnUse"
       gradientTransform="scale(1.525896,0.655353)"
       x1="-15.950862"
       y1="262.63419"
       x2="-14.394111"
       y2="264.46930" />
    <linearGradient
       inkscape:collect="always"
       xlink:href="#linearGradient2685"
       id="linearGradient8113"
       gradientUnits="userSpaceOnUse"
       gradientTransform="scale(1.732051,0.577350)"
       spreadMethod="pad"
       x1="-11.940928"
       y1="298.02402"
       x2="-10.065067"
       y2="302.22537" />
    <linearGradient
       inkscape:collect="always"
       xlink:href="#linearGradient2615"
       id="linearGradient8111"
       gradientUnits="userSpaceOnUse"
       gradientTransform="scale(1.525896,0.655353)"
       x1="-15.950862"
       y1="262.63419"
       x2="-14.394111"
       y2="264.46930" />
    <pattern
       inkscape:collect="always"
       xlink:href="#pattern6922"
       id="pattern8109"
       patternTransform="translate(0.000000,140.3622)" />
    <pattern
       inkscape:collect="always"
       xlink:href="#pattern6914"
       id="pattern8107"
       patternTransform="translate(0.000000,140.3622)" />
    <pattern
       patternUnits="userSpaceOnUse"
       width="32.000000"
       height="32.000000"
       patternTransform="translate(-16.00000,140.3622)"
       id="pattern8103">
      <rect
         inkscape:export-filename="/home/adam/brick.png"
         y="140.36218"
         x="-16.000000"
         height="32.000000"
         width="32.000000"
         id="rect8105"
         style="fill:#c4c4c4;fill-opacity:1.0000000;fill-rule:evenodd;stroke:none;stroke-width:0.72500002;stroke-linecap:square;stroke-linejoin:miter;stroke-miterlimit:4.0000000;stroke-dashoffset:0.0000000;stroke-opacity:1.0000000"
         inkscape:export-xdpi="360.00000"
         inkscape:export-ydpi="360.00000"
         transform="translate(16.00000,-140.3622)" />
    </pattern>
    <linearGradient
       id="linearGradient8097">
      <stop
         style="stop-color:#eaeaea;stop-opacity:1.0000000;"
         offset="0.0000000"
         id="stop8099" />
      <stop
         style="stop-color:#dfdfdf;stop-opacity:0;"
         offset="1"
         id="stop8101" />
    </linearGradient>
    <linearGradient
       id="linearGradient8091">
      <stop
         style="stop-color:#c8c8c8;stop-opacity:1.0000000;"
         offset="0.0000000"
         id="stop8093" />
      <stop
         style="stop-color:#919191;stop-opacity:1.0000000;"
         offset="1.0000000"
         id="stop8095" />
    </linearGradient>
  </defs>
  <sodipodi:namedview
     inkscape:window-y="179"
     inkscape:window-x="283"
     inkscape:window-height="536"
     inkscape:window-width="640"
     inkscape:document-units="px"
     inkscape:grid-bbox="true"
     showgrid="true"
     inkscape:current-layer="layer1"
     inkscape:cy="15.999999"
     inkscape:cx="16.000000"
     inkscape:zoom="11.197802"
     inkscape:pageshadow="2"
     inkscape:pageopacity="0.0"
     borderopacity="1.0"
     bordercolor="#666666"
     pagecolor="#ffffff"
     id="base" />
  <metadata
     id="metadata4">
    <rdf:RDF
       id="RDF5">
      <cc:Work
         id="Work6"
         rdf:about="">
        <dc:format
           id="format7">image/svg+xml</dc:format>
        <dc:type
           rdf:resource="http://purl.org/dc/dcmitype/StillImage"
           id="type9" />
      </cc:Work>
    </rdf:RDF>
  </metadata>
  <g
     inkscape:groupmode="layer"
     inkscape:label="Layer 1"
     id="layer1">
    <g
       id="g8143"
       inkscape:label="Layer 1"
       inkscape:groupmode="layer">
      <g
         inkscape:tile-cy="284.36218"
         inkscape:tile-cx="-79.000000"
         inkscape:tile-h="32.000000"
         inkscape:tile-w="32.000000"
         id="g14992"
         transform="translate(252.0000,-169.3750)"
         inkscape:export-filename="/home/adam/brick.png"
         inkscape:export-xdpi="360.00000"
         inkscape:export-ydpi="360.00000">
        <path
           style="fill:#f7f7f7;fill-opacity:1.0000000"
           d="M -144.00000,364.37500 L -144.00000,396.37500 L -112.00000,396.37500 L -112.00000,364.37500 L -144.00000,364.37500 z "
           transform="translate(-108.0000,-195.0000)"
           id="path14994" />
        <path
           style="fill:#dadada;fill-opacity:1.0000000"
           d="M -144.00000,364.37500 L -144.00000,369.90625 C -143.39993,369.88308 -143.29141,369.79067 -142.50000,369.78125 L -136.50000,369.71875 L -142.18750,370.09375 C -143.04782,370.14934 -143.35359,370.26735 -144.00000,370.34375 L -144.00000,385.90625 C -143.38428,385.88612 -143.32717,385.79109 -142.50000,385.78125 L -136.50000,385.71875 L -142.18750,386.09375 C -143.12723,386.15446 -143.33431,386.27112 -144.00000,386.34375 L -144.00000,396.37500 L -141.87500,396.37500 C -141.82195,395.75701 -141.65999,395.37127 -141.40625,395.62500 C -141.27766,395.75359 -141.41582,396.12267 -141.37500,396.37500 L -125.59375,396.37500 C -125.59434,396.19107 -125.60933,396.19207 -125.59375,395.87500 C -125.50734,394.11660 -124.77519,393.84401 -119.50000,393.78125 L -113.50000,393.71875 L -119.18750,394.09375 C -123.52237,394.37386 -124.96733,394.85731 -125.28125,396.15625 C -125.31882,396.31170 -125.31279,396.26171 -125.34375,396.37500 L -112.00000,396.37500 L -112.00000,386.34375 C -114.82683,386.65216 -115.99468,387.11007 -116.28125,388.65625 C -116.62107,390.48973 -116.67402,390.45482 -116.59375,388.37500 C -116.37495,385.92798 -115.61792,386.02451 -112.00000,385.90625 L -112.00000,370.34375 C -114.61065,370.65229 -116.02963,371.11510 -116.28125,372.15625 C -116.57525,373.37278 -116.66392,373.30292 -116.59375,371.87500 C -116.52030,370.38040 -115.39970,370.03752 -112.00000,369.90625 L -112.00000,364.37500 L -125.34375,364.37500 C -125.50128,364.95145 -125.59202,364.91356 -125.59375,364.37500 L -141.37500,364.37500 C -141.31033,364.77474 -141.13541,365.11997 -141.31250,365.56250 C -141.63172,366.36023 -141.85827,366.10246 -141.90625,364.93750 C -141.91651,364.68829 -141.89142,364.56633 -141.87500,364.37500 L -144.00000,364.37500 z M -120.50000,369.71875 L -126.18750,370.09375 C -130.52237,370.37386 -131.96733,370.85731 -132.28125,372.15625 C -132.57525,373.37278 -132.66392,373.30292 -132.59375,371.87500 C -132.50734,369.61660 -131.77519,369.84401 -126.50000,369.78125 L -120.50000,369.71875 z M -129.50000,377.71875 L -135.18750,378.09375 C -139.52237,378.37386 -140.96733,378.85731 -141.28125,380.15625 C -141.57525,381.37278 -141.66392,381.30292 -141.59375,379.87500 C -141.50734,378.11660 -140.77519,377.84401 -135.50000,377.78125 L -129.50000,377.71875 z M -113.50000,377.71875 L -119.18750,378.09375 C -123.52237,378.37386 -124.96733,378.85731 -125.28125,380.15625 C -125.57525,381.37278 -125.66392,381.30292 -125.59375,379.87500 C -125.50734,378.11660 -124.77519,377.84401 -119.50000,377.78125 L -113.50000,377.71875 z M -118.50000,385.68750 L -125.18750,386.06250 C -130.46628,386.35779 -131.95595,386.80954 -132.28125,388.15625 C -132.57621,389.37733 -132.66411,389.30672 -132.59375,387.87500 C -132.50569,386.08293 -131.77226,385.85273 -125.50000,385.78125 L -118.50000,385.68750 z M -138.25000,393.62500 C -136.46250,393.40318 -133.53750,393.40317 -131.75000,393.62500 C -129.96250,393.84683 -131.42500,394.03125 -135.00000,394.03125 C -138.57500,394.03125 -140.03750,393.84682 -138.25000,393.62500 z "
           transform="translate(-108.0000,-195.0000)"
           id="path14996"
           sodipodi:nodetypes="ccccccccccccccccccccccccccccccccccccccccccccccccccccccccccccccccccc" />
        <path
           style="fill:#c3c3c3;fill-opacity:1.0000000"
           d="M -144.00000,364.37500 L -144.00000,369.46875 L -142.25000,369.50000 C -138.53750,369.57490 -136.50434,369.82308 -137.75000,370.06250 C -139.05653,370.31362 -139.76113,370.96900 -139.37500,371.59375 C -138.93162,372.31117 -139.16337,372.36453 -140.09375,371.78125 C -140.75072,371.36938 -142.45863,371.05074 -144.00000,370.87500 L -144.00000,385.37500 L -142.34375,385.37500 C -134.55428,385.37500 -134.36880,386.49266 -142.12500,386.71875 C -143.10073,386.74719 -143.33786,386.88053 -144.00000,386.93750 L -144.00000,396.37500 L -141.84375,396.37500 C -141.85137,396.23399 -141.86700,396.28650 -141.87500,396.12500 C -142.01085,393.38175 -141.98344,393.35972 -135.25000,393.37500 C -131.38702,393.38377 -129.04690,393.75277 -129.78125,394.21875 C -130.48700,394.66656 -133.25087,394.82750 -135.93750,394.59375 C -140.28969,394.21508 -140.84703,394.39822 -141.25000,396.37500 L -125.84375,396.37500 C -125.85145,396.23561 -125.86708,396.28499 -125.87500,396.12500 C -126.01040,393.39067 -125.95914,393.37500 -119.43750,393.37500 C -115.83004,393.37500 -113.10328,393.71659 -113.37500,394.15625 C -113.64672,394.59590 -116.32497,394.81793 -119.34375,394.62500 C -124.21542,394.31368 -124.81735,394.47480 -125.21875,396.37500 L -112.00000,396.37500 L -112.00000,386.93750 C -114.53843,387.15589 -115.60136,387.60262 -116.09375,389.37500 C -116.73452,391.68150 -116.81429,391.62345 -116.90625,388.62500 L -116.75000,385.53125 L -112.00000,385.37500 L -112.00000,370.87500 C -112.27100,370.84410 -112.42502,370.73429 -112.68750,370.71875 C -115.24132,370.56753 -115.97464,370.95514 -116.31250,372.68750 C -116.65441,374.44064 -116.76472,374.35187 -116.87500,372.12500 L -116.82812,369.45313 L -112.00000,369.46875 L -112.00000,364.37500 L -125.21875,364.37500 C -125.23454,364.44974 -125.26589,364.48216 -125.28125,364.56250 C -125.64510,366.46510 -125.73429,366.35580 -125.84375,364.37500 L -141.25000,364.37500 C -141.26235,364.43556 -141.26908,364.46723 -141.28125,364.53125 C -141.65984,366.52272 -141.73361,366.41368 -141.84375,364.37500 L -144.00000,364.37500 z M -126.34375,369.37500 C -122.67709,369.37500 -119.96417,369.65167 -120.31250,370.00000 C -120.66083,370.34834 -123.24932,370.62500 -126.06250,370.62500 C -130.33538,370.62500 -131.31694,370.98178 -132.03125,372.75000 C -132.81546,374.69125 -132.87959,374.64710 -132.93750,372.12500 C -132.94803,371.66667 -133.16678,370.47917 -132.23055,369.71875 C -131.07522,368.78037 -127.45312,369.37500 -126.34375,369.37500 z M -135.34375,377.37500 C -131.67709,377.37500 -128.92905,377.61654 -129.25000,377.93750 C -129.57096,378.25845 -132.22303,378.57788 -135.15625,378.62500 C -139.64271,378.69709 -140.60918,379.03080 -141.15625,380.78125 C -141.71504,382.56916 -141.82061,382.48796 -141.90625,380.12500 C -142.00539,377.39003 -141.97398,377.37500 -135.34375,377.37500 z M -119.34375,377.37500 C -111.34691,377.37500 -111.29279,378.31585 -119.28125,378.50000 C -124.15003,378.61224 -124.95142,378.91147 -125.31250,380.75000 C -125.63855,382.41023 -125.76833,382.27892 -125.87500,380.12500 C -126.01062,377.38638 -125.98283,377.37500 -119.34375,377.37500 z M -132.93750,385.68750 L -125.75000,385.37500 C -121.76250,385.38343 -119.03748,385.74289 -119.68750,386.15625 C -120.33752,386.56962 -123.34435,386.81651 -126.37500,386.71875 C -131.29535,386.56004 -131.93596,386.75799 -132.31250,388.68750 C -132.65296,390.43212 -132.76505,390.34530 -132.87500,388.12500 L -132.93750,385.68750 z "
           transform="translate(-108.0000,-195.0000)"
           id="path14998"
           sodipodi:nodetypes="ccccccccccccccccccccccccccccccccccccccccccccccccssscccccccccccccccccc" />
        <path
           sodipodi:nodetypes="ccccccccccccccccccccccccccccccccccccccccccccccccccccccccccccccccccccccccccccccccccccccccccccccccccccccccccccccccccccccccccccc"
           style="fill:#9b9b9b;fill-opacity:1.0000000"
           d="M -144.00000,364.37500 L -144.00000,366.18750 C -143.91222,365.87498 -143.81469,365.56574 -143.75000,365.12500 C -143.70192,364.79743 -143.71828,364.64008 -143.68750,364.37500 L -144.00000,364.37500 z M -139.78125,367.40625 C -138.74056,368.14961 -128.68100,367.43944 -127.87500,366.56250 C -127.57903,366.24048 -127.62931,365.31410 -127.90625,364.37500 L -129.03125,364.37500 C -129.23614,365.54251 -130.02888,365.82192 -132.75000,365.71875 C -138.68582,365.49370 -140.69506,366.75352 -139.78125,367.40625 z M -118.40625,364.37500 C -118.57212,364.52582 -118.74798,364.59055 -118.90625,364.78125 C -120.13700,366.26421 -121.67391,366.31620 -123.78125,365.00000 C -124.59716,364.49039 -124.95712,364.68363 -124.78125,365.53125 C -124.63012,366.25963 -123.40631,367.10000 -122.06250,367.37500 C -120.71868,367.65000 -118.05144,367.50000 -116.00000,367.50000 C -113.29333,367.50000 -112.39747,367.60253 -112.00000,366.18750 L -112.00000,364.37500 L -113.90625,364.37500 C -114.04410,364.52665 -114.03451,364.45237 -114.18750,364.62500 C -115.69735,366.32869 -116.04321,366.45009 -115.62500,365.12500 C -115.52425,364.80577 -115.60515,364.60794 -115.62500,364.37500 L -118.40625,364.37500 z M -135.90625,370.46875 C -136.47426,370.34204 -137.26624,370.89590 -138.18750,372.15625 C -139.26259,373.62705 -142.23453,374.18284 -144.00000,373.59375 L -144.00000,375.21875 C -143.16925,375.27782 -142.47286,375.37500 -141.50000,375.37500 C -135.23333,375.37500 -135.00000,375.28526 -135.00000,372.87500 C -135.00000,371.40915 -135.33824,370.59546 -135.90625,370.46875 z M -120.31250,370.78125 C -121.30902,370.63500 -122.37067,371.20560 -122.68750,372.03125 C -123.02438,372.90915 -124.03661,373.31588 -125.12500,373.03125 C -126.14860,372.76357 -127.25449,372.97039 -127.56250,373.46875 C -127.87051,373.96712 -128.65746,374.35218 -129.31250,374.34375 C -130.02811,374.33455 -129.90129,373.95746 -129.00000,373.37500 C -127.78704,372.59113 -127.93056,372.38737 -129.75000,372.37500 C -133.32420,372.35068 -131.88666,374.81739 -128.00000,375.37500 L -119.00000,375.37500 L -119.00000,373.75000 C -119.00000,372.98743 -119.00000,371.37500 -120.31250,370.78125 z M -113.87500,372.56250 C -114.78761,372.49808 -116.00000,373.36435 -116.00000,374.40625 C -116.00000,374.78295 -114.22201,375.06075 -112.00000,375.21875 L -112.00000,373.59375 C -112.45089,373.44330 -112.89596,373.28389 -113.12500,372.96875 C -113.30992,372.71431 -113.57080,372.58397 -113.87500,372.56250 z M -129.21875,378.37500 C -129.77047,378.37500 -129.98337,379.27481 -129.68750,380.40625 C -129.24823,382.08599 -129.41234,382.26705 -130.56250,381.31250 C -131.33722,380.66953 -132.69065,380.41543 -133.56250,380.75000 C -134.43435,381.08456 -135.96634,380.91147 -136.96875,380.37500 C -138.28158,379.67239 -139.11077,379.80995 -139.96875,380.84375 C -140.62385,381.63310 -140.95733,382.62589 -140.68750,383.06250 C -140.41767,383.49909 -137.44959,383.62500 -133.93750,383.62500 L -128.03125,383.56250 L -127.81250,381.12500 C -128.03449,379.61250 -128.66703,378.37500 -129.21875,378.37500 z M -112.31250,378.93750 C -112.58243,378.77246 -113.08189,379.02816 -113.93750,379.56250 C -115.00192,380.22724 -115.59500,381.23510 -115.25000,381.81250 C -114.90500,382.38992 -115.26942,382.32587 -116.06250,381.68750 C -117.84084,380.25608 -124.94153,380.36219 -124.68750,381.81250 C -124.58599,382.39202 -122.70000,383.09714 -120.50000,383.37500 C -114.18734,384.17226 -112.00000,383.50065 -112.00000,380.75000 C -112.00000,379.69254 -112.04257,379.10254 -112.31250,378.93750 z M -118.81250,381.68750 C -118.01477,382.00672 -118.24130,382.23327 -119.40625,382.28125 C -120.46041,382.32467 -121.05104,382.08231 -120.71875,381.75000 C -120.38645,381.41771 -119.53438,381.39862 -118.81250,381.68750 z M -135.15625,386.43750 C -135.56850,386.20173 -136.16102,386.60336 -136.62500,387.81250 C -136.94237,388.63955 -137.83981,388.97428 -138.75000,388.62500 C -139.90622,388.18132 -140.12407,388.39927 -139.53125,389.43750 C -138.87475,390.58730 -138.97200,390.63719 -140.06250,389.62500 C -140.80318,388.93750 -141.86000,388.36657 -142.43750,388.37500 C -143.01500,388.38343 -142.82500,388.84184 -142.00000,389.37500 C -141.17500,389.90816 -140.99792,390.33533 -141.59375,390.34375 C -142.18959,390.35217 -142.96291,390.03709 -143.34375,389.65625 C -143.52670,389.47330 -143.77320,389.37894 -144.00000,389.25000 L -144.00000,391.46875 C -142.94079,391.57686 -139.80586,391.37500 -138.18750,391.37500 C -135.84301,391.37500 -135.13079,390.86696 -134.75000,388.87500 C -134.49591,387.54582 -134.74400,386.67327 -135.15625,386.43750 z M -119.75000,386.78125 C -120.16250,387.19375 -120.50000,388.02917 -120.50000,388.62500 C -120.50000,389.22083 -121.11094,389.90157 -121.87500,390.15625 C -122.83567,390.47647 -126.77533,390.05807 -128.25000,389.09375 C -130.43114,387.66744 -130.84429,387.62081 -130.37500,388.84375 C -130.04091,389.71437 -130.37037,390.39680 -131.15625,390.43750 C -131.90259,390.47616 -131.64669,390.83724 -130.59375,391.25000 C -129.54081,391.66277 -127.74081,391.91185 -126.59375,391.78125 C -125.44669,391.65066 -123.26250,391.48335 -121.75000,391.43750 C -119.45833,391.36806 -119.00000,390.90974 -119.00000,388.68750 C -119.00000,387.22084 -119.33750,386.36876 -119.75000,386.78125 z M -114.03125,388.71875 C -114.93659,388.77226 -115.65625,389.17914 -115.65625,389.90625 C -115.65625,390.85887 -114.65780,391.37500 -112.78125,391.37500 C -112.45041,391.37500 -112.27813,391.44036 -112.00000,391.46875 L -112.00000,389.25000 C -112.63000,388.89183 -113.36556,388.67941 -114.03125,388.71875 z M -128.78125,394.37500 C -128.89206,394.37500 -128.90237,394.87500 -128.93750,395.87500 C -128.94478,396.08232 -129.00198,396.20821 -129.03125,396.37500 L -127.90625,396.37500 C -127.95685,396.20340 -127.96190,396.04494 -128.03125,395.87500 C -128.43934,394.87500 -128.67044,394.37500 -128.78125,394.37500 z M -143.81250,394.53125 C -143.83910,394.52576 -143.96861,394.68370 -144.00000,394.68750 L -144.00000,396.37500 L -143.68750,396.37500 C -143.56157,395.29063 -143.53508,394.58849 -143.81250,394.53125 z M -121.81250,394.68750 C -122.53438,394.39863 -123.38645,394.41772 -123.71875,394.75000 C -124.05104,395.08230 -123.46041,395.32467 -122.40625,395.28125 C -121.24130,395.23327 -121.01477,395.00671 -121.81250,394.68750 z M -112.00000,394.68750 C -112.32754,394.72713 -112.97363,395.34899 -113.90625,396.37500 L -112.00000,396.37500 L -112.00000,394.68750 z M -116.37500,395.40625 C -116.93848,395.34717 -117.69227,395.72582 -118.40625,396.37500 L -115.62500,396.37500 C -115.67132,395.83147 -115.88892,395.45721 -116.37500,395.40625 z "
           transform="translate(-108.0000,-195.0000)"
           id="path15000" />
        <path
           style="fill:#5a5a5a;fill-opacity:1.0000000"
           d="M -128.65625,364.37500 C -128.68301,364.47799 -128.68608,364.42733 -128.71875,364.56250 C -129.03828,365.88464 -130.51221,366.36105 -135.31250,366.65625 L -141.50000,367.03125 L -135.00000,366.93750 C -129.22939,366.86261 -128.49350,366.65057 -128.40625,364.87500 C -128.39109,364.56649 -128.40369,364.56204 -128.40625,364.37500 L -128.65625,364.37500 z M -112.65625,364.37500 C -112.68301,364.47799 -112.68608,364.42733 -112.71875,364.56250 C -113.03828,365.88464 -114.51221,366.36105 -119.31250,366.65625 L -125.50000,367.03125 L -119.00000,366.93750 C -113.22939,366.86261 -112.49350,366.65057 -112.40625,364.87500 C -112.39109,364.56649 -112.40369,364.56204 -112.40625,364.37500 L -112.65625,364.37500 z M -135.43750,371.71875 C -135.48790,371.67116 -135.57175,371.95424 -135.71875,372.56250 C -136.03828,373.88464 -137.51221,374.36105 -142.31250,374.65625 L -144.00000,374.75000 L -144.00000,374.96875 L -142.00000,374.93750 C -136.22939,374.86261 -135.49350,374.65057 -135.40625,372.87500 C -135.37116,372.16104 -135.38710,371.76634 -135.43750,371.71875 z M -119.43750,371.71875 C -119.48790,371.67116 -119.57175,371.95424 -119.71875,372.56250 C -120.03828,373.88464 -121.51221,374.36105 -126.31250,374.65625 L -132.50000,375.03125 L -126.00000,374.93750 C -120.22939,374.86261 -119.49350,375.51298 -119.40625,372.87500 C -119.37116,372.16104 -119.38710,371.76634 -119.43750,371.71875 z M -112.00000,374.75000 L -116.50000,375.03125 L -112.00000,374.96875 L -112.00000,374.75000 z M -128.43750,379.71875 C -128.48790,379.67116 -128.57175,379.95424 -128.71875,380.56250 C -129.03828,381.88464 -130.51221,382.36105 -135.31250,382.65625 L -141.50000,383.03125 L -135.00000,382.93750 C -127.97939,383.23761 -128.49350,382.65057 -128.40625,380.87500 C -128.37116,380.16104 -128.38710,379.76634 -128.43750,379.71875 z M -112.43750,379.71875 C -112.48790,379.67116 -112.57175,379.95424 -112.71875,380.56250 C -113.03828,381.88464 -114.51221,382.36105 -119.31250,382.65625 L -125.50000,383.03125 L -119.00000,382.93750 C -113.22939,382.86261 -112.49350,382.65057 -112.40625,380.87500 C -112.37116,380.16104 -112.38710,379.76634 -112.43750,379.71875 z M -135.43750,387.71875 C -135.48790,387.67116 -135.57175,387.95424 -135.71875,388.56250 C -136.03828,389.88464 -137.51221,390.36105 -142.31250,390.65625 L -144.00000,390.75000 L -144.00000,390.96875 L -142.00000,390.93750 C -136.22939,390.86261 -135.49350,390.65057 -135.40625,388.87500 C -135.37116,388.16104 -135.38710,387.76634 -135.43750,387.71875 z M -119.43750,387.71875 C -119.48790,387.67116 -119.57175,387.95424 -119.71875,388.56250 C -120.03828,389.88464 -121.51221,390.36105 -126.31250,390.65625 L -132.50000,391.03125 L -126.00000,390.93750 C -120.22939,390.86261 -119.49350,390.65057 -119.40625,388.87500 C -119.37116,388.16104 -119.38710,387.76634 -119.43750,387.71875 z M -112.00000,390.75000 L -116.50000,391.03125 L -112.00000,390.96875 L -112.00000,390.75000 z M -128.43750,395.71875 C -128.47670,395.68174 -128.56261,396.01453 -128.65625,396.37500 L -128.40625,396.37500 C -128.40961,396.12919 -128.40888,395.74578 -128.43750,395.71875 z M -112.43750,395.71875 C -112.47670,395.68174 -112.56261,396.01453 -112.65625,396.37500 L -112.40625,396.37500 C -112.40961,396.12919 -112.40888,395.74578 -112.43750,395.71875 z "
           transform="translate(-108.0000,-195.0000)"
           id="path15002"
           sodipodi:nodetypes="cccccccccccccccccccccccccccccccccccccccccccccccccccccccccccccccccccccccccccc" />
      </g>
    </g>
    <g
       transform="translate(-511.8643,-76.24368)"
       id="g7689">
      <path
         sodipodi:nodetypes="cccccccccccczzccccc"
         id="path7722"
         d="M 529.37839,76.753992 C 526.29297,76.742662 524.49494,76.924642 523.44089,77.597742 C 522.44891,78.326912 522.19089,79.580412 522.19089,81.753992 C 522.19089,83.791762 522.14399,84.759912 521.56589,85.222742 C 521.08264,85.737932 520.11973,85.753992 518.15964,85.753992 C 517.06517,85.753992 516.18738,85.816542 515.50339,86.003992 C 514.91846,86.195712 514.42608,86.459372 514.09714,86.910242 C 513.36763,87.910162 513.19089,89.659922 513.19089,92.660244 C 513.19089,98.441874 513.97413,99.660244 517.69089,99.660244 C 521.14315,99.660244 522.19089,100.94200 522.19089,105.16024 C 522.19089,106.44442 522.75339,106.63467 523.44089,106.91208 C 525.50700,107.74578 533.37316,107.60875 534.94089,106.72458 C 535.66637,106.20506 536.25338,104.34936 536.25339,103.22274 C 536.25340,102.09613 538.21791,100.63354 538.69089,100.34774 C 539.16387,100.06194 539.96447,99.660244 541.09714,99.660244 C 541.89499,99.660244 543.79719,96.848324 543.79720,92.753994 C 543.79720,86.729112 544.30869,85.753992 539.84714,85.753992 C 535.90914,85.753992 535.88755,85.712562 536.19089,82.191492 C 536.55984,77.909082 535.14789,76.775182 529.37839,76.753992 z "
         style="opacity:0.36956522;fill:#000000;fill-opacity:1.0000000" />
      <path
         id="path7699"
         transform="translate(-33.50000,3.828125e-7)"
         d="M 561.00000,77.187500 C 559.02433,77.210478 557.19202,77.332937 555.50000,77.531250 C 554.61053,78.274216 554.34374,79.481170 554.34375,81.562500 C 554.34375,85.419850 554.32608,85.468752 550.46875,85.468750 C 550.18556,85.468750 550.03469,85.521803 549.78125,85.531250 C 549.72435,85.536461 549.71470,85.557625 549.65625,85.562500 C 548.80594,85.633428 548.19187,85.703267 547.68750,85.812500 C 547.14364,85.986297 546.69787,86.234871 546.37500,86.625000 C 545.94227,87.310059 545.83400,88.466951 545.68750,90.781250 C 545.50916,93.598677 545.61469,95.617059 545.90625,97.156250 C 546.47429,98.848737 547.56188,99.468750 549.84375,99.468750 C 553.06239,99.468750 554.14324,100.68089 554.28125,104.25000 C 554.43851,104.50267 554.50000,104.79496 554.50000,105.18750 C 554.50000,105.96325 554.79832,106.62554 555.06250,107.15625 C 555.23722,107.40084 555.38289,107.72742 555.59375,107.81250 C 556.27232,108.08631 558.02295,108.08479 559.53125,108.15625 C 560.47515,108.16700 561.33435,108.20436 562.40625,108.15625 C 563.82879,108.09240 564.84191,108.04663 565.71875,107.96875 C 566.31771,107.85624 566.96461,107.72355 567.21875,107.56250 C 567.96273,107.09103 568.56247,105.01865 568.56250,102.93750 C 568.56250,100.36183 571.61042,99.468750 573.25000,99.468750 C 576.33288,99.468750 577.20985,98.110733 577.31250,93.343750 C 577.30298,92.926026 577.33420,92.645903 577.31250,92.187500 C 577.19015,89.602731 577.01223,88.552608 576.75000,87.625000 C 576.38143,86.659922 575.87110,85.984660 574.87500,85.718750 C 574.85915,85.714520 574.82854,85.722851 574.81250,85.718750 C 574.12491,85.542943 573.24621,85.468750 572.15625,85.468750 C 568.21825,85.468750 568.19666,85.427319 568.50000,81.906250 C 568.68243,79.788786 568.43941,78.448495 567.43750,77.625000 C 565.28055,77.437853 563.15347,77.162454 561.00000,77.187500 z "
         style="fill:#939393" />
      <path
         id="path7697"
         transform="translate(-33.50000,3.828125e-7)"
         d="M 561.00000,77.187500 C 559.02433,77.210478 557.19202,77.332937 555.50000,77.531250 C 554.61053,78.274216 554.34374,79.481170 554.34375,81.562500 C 554.34375,85.419850 554.32608,85.468752 550.46875,85.468750 C 550.18556,85.468750 550.03469,85.521803 549.78125,85.531250 C 549.72435,85.536461 549.71470,85.557625 549.65625,85.562500 C 548.82835,85.631559 548.18845,85.702964 547.68750,85.812500 C 547.12843,85.991157 546.67007,86.247927 546.34375,86.656250 C 546.20409,86.869845 546.08230,87.108687 546.00000,87.437500 C 545.98021,87.516547 545.95497,87.569469 545.93750,87.656250 C 545.82743,88.202899 545.76203,88.898630 545.68750,89.812500 C 545.44771,92.752638 545.76121,96.143532 546.28125,98.187500 C 546.94801,99.153598 548.03224,99.468750 549.84375,99.468750 C 552.96070,99.468750 554.05467,100.63014 554.25000,103.93750 C 554.30192,104.19107 554.50000,104.36525 554.50000,104.65625 C 554.50000,105.72851 554.80284,106.60075 555.09375,107.18750 C 555.26174,107.41281 555.39387,107.73185 555.59375,107.81250 C 556.27232,108.08631 558.02295,108.08479 559.53125,108.15625 C 560.46204,108.16629 561.32067,108.20384 562.37500,108.15625 C 564.85391,108.04436 565.96395,107.86571 566.93750,107.62500 C 566.99836,107.59679 567.17167,107.59233 567.21875,107.56250 C 567.96273,107.09103 568.56247,105.01865 568.56250,102.93750 C 568.56250,100.36183 571.61042,99.468750 573.25000,99.468750 C 575.07785,99.468750 576.10235,98.937077 576.68750,97.593750 C 576.89507,96.275751 577.00000,94.640204 577.00000,92.562500 L 577.00000,88.343750 C 576.49755,86.040746 575.25346,85.468751 572.15625,85.468750 C 568.21825,85.468750 568.19666,85.427319 568.50000,81.906250 C 568.68243,79.788786 568.43941,78.448495 567.43750,77.625000 C 565.28055,77.437853 563.15347,77.162454 561.00000,77.187500 z M 559.25000,78.656250 C 560.48750,78.417897 562.51250,78.417898 563.75000,78.656250 C 564.98750,78.894603 563.97500,79.093748 561.50000,79.093750 C 559.02500,79.093750 558.01250,78.894604 559.25000,78.656250 z M 559.25000,80.656250 C 560.48750,80.417897 562.51250,80.417898 563.75000,80.656250 C 564.98750,80.894603 563.97500,81.093748 561.50000,81.093750 C 559.02500,81.093750 558.01250,80.894604 559.25000,80.656250 z M 559.25000,82.656250 C 560.48750,82.417897 562.51250,82.417898 563.75000,82.656250 C 564.98750,82.894603 563.97500,83.093748 561.50000,83.093750 C 559.02500,83.093750 558.01250,82.894604 559.25000,82.656250 z M 561.50000,84.187500 C 563.45571,84.187500 565.40293,84.928280 565.78125,86.375000 C 566.06890,87.475000 567.02977,88.375000 567.90625,88.375000 C 569.09881,88.375000 569.50000,89.381673 569.50000,92.375000 C 569.50000,95.368327 569.09882,96.375000 567.90625,96.375000 C 567.02976,96.375000 566.06892,97.275000 565.78125,98.375000 C 565.37150,99.941869 564.41737,100.37500 561.37500,100.37500 C 558.48839,100.37500 557.50000,99.965830 557.50000,98.781250 C 557.50000,97.904760 556.60000,96.943906 555.50000,96.656250 C 553.93313,96.246505 553.50000,95.292364 553.50000,92.250000 C 553.50000,89.363390 553.90916,88.375000 555.09375,88.375000 C 555.97024,88.375000 556.93108,87.475000 557.21875,86.375000 C 557.59708,84.928280 559.54429,84.187500 561.50000,84.187500 z M 561.50000,88.875000 C 558.59902,88.875000 557.92903,89.262308 557.65625,91.187500 C 557.47525,92.464999 557.59152,94.179870 557.90625,95.000000 C 558.28998,95.999963 559.56596,96.397981 561.75000,96.187500 C 564.74570,95.898800 565.00000,95.594319 565.00000,92.375000 C 565.00000,89.041667 564.83333,88.875000 561.50000,88.875000 z M 548.03125,89.593750 C 548.08305,89.634180 548.15916,89.815625 548.21875,90.125000 C 548.45711,91.362500 548.45709,93.387500 548.21875,94.625000 C 547.98040,95.862500 547.78127,94.850000 547.78125,92.375000 C 547.78125,90.518750 547.87584,89.472461 548.03125,89.593750 z M 550.03125,89.593750 C 550.08305,89.634180 550.15916,89.815625 550.21875,90.125000 C 550.45711,91.362500 550.45709,93.387500 550.21875,94.625000 C 549.98040,95.862500 549.78127,94.850000 549.78125,92.375000 C 549.78125,90.518750 549.87584,89.472461 550.03125,89.593750 z M 552.03125,89.593750 C 552.08305,89.634180 552.15916,89.815625 552.21875,90.125000 C 552.45711,91.362500 552.45709,93.387500 552.21875,94.625000 C 551.98040,95.862500 551.78127,94.850000 551.78125,92.375000 C 551.78125,90.518750 551.87584,89.472461 552.03125,89.593750 z M 571.03125,89.593750 C 571.08305,89.634180 571.15916,89.815625 571.21875,90.125000 C 571.45711,91.362500 571.45709,93.387500 571.21875,94.625000 C 570.98040,95.862500 570.78127,94.850000 570.78125,92.375000 C 570.78125,90.518750 570.87584,89.472461 571.03125,89.593750 z M 573.03125,89.593750 C 573.08305,89.634180 573.15916,89.815625 573.21875,90.125000 C 573.45711,91.362500 573.45709,93.387500 573.21875,94.625000 C 572.98040,95.862500 572.78127,94.850000 572.78125,92.375000 C 572.78125,90.518750 572.87584,89.472461 573.03125,89.593750 z M 575.03125,89.593750 C 575.08305,89.634180 575.15916,89.815625 575.21875,90.125000 C 575.45711,91.362500 575.45709,93.387500 575.21875,94.625000 C 574.98040,95.862500 574.78127,94.850000 574.78125,92.375000 C 574.78125,90.518750 574.87584,89.472461 575.03125,89.593750 z M 559.25000,101.65625 C 560.48750,101.41790 562.51250,101.41790 563.75000,101.65625 C 564.98750,101.89460 563.97500,102.09375 561.50000,102.09375 C 559.02500,102.09375 558.01250,101.89460 559.25000,101.65625 z M 559.25000,103.65625 C 560.48750,103.41790 562.51250,103.41790 563.75000,103.65625 C 564.98750,103.89460 563.97500,104.09375 561.50000,104.09375 C 559.02500,104.09375 558.01250,103.89460 559.25000,103.65625 z M 559.25000,105.65625 C 560.48750,105.41790 562.51250,105.41790 563.75000,105.65625 C 564.98750,105.89460 563.97500,106.09375 561.50000,106.09375 C 559.02500,106.09375 558.01250,105.89460 559.25000,105.65625 z "
         style="fill:#777777" />
      <path
         id="path7695"
         transform="translate(-33.50000,3.828125e-7)"
         d="M 561.68750,76.468750 C 558.60208,76.457415 556.80405,76.639403 555.75000,77.312500 C 554.75802,78.041668 554.50000,79.295168 554.50000,81.468750 C 554.50000,83.506523 554.45310,84.474672 553.87500,84.937500 C 553.39175,85.452685 552.42884,85.468751 550.46875,85.468750 C 549.37428,85.468750 548.49649,85.531300 547.81250,85.718750 C 547.22757,85.910474 546.73519,86.174128 546.40625,86.625000 C 545.67674,87.624921 545.50000,89.374684 545.50000,92.375000 C 545.50000,98.156629 546.28324,99.375000 550.00000,99.375000 C 553.45226,99.375000 554.50000,100.65676 554.50000,104.87500 C 554.50000,106.15918 555.06250,107.41009 555.75000,107.68750 C 557.81611,108.52120 565.68227,108.38417 567.25000,107.50000 C 567.97548,106.98048 568.56247,104.98102 568.56250,102.93750 C 568.56250,102.72779 568.68068,102.59424 568.71875,102.40625 C 568.76389,100.34501 569.04305,99.599060 569.59375,100.46875 C 569.68118,100.60683 569.70782,100.58597 569.78125,100.68750 C 570.16627,100.38108 570.53701,100.24071 571.00000,100.06250 C 571.48297,99.669110 572.27358,99.375000 573.40625,99.375000 C 574.20410,99.375000 574.84442,99.266461 575.37500,99.062500 C 576.89044,98.363683 577.34374,96.563084 577.34375,92.468750 C 577.34375,86.443867 576.61780,85.468752 572.15625,85.468750 C 568.21825,85.468750 568.19666,85.427319 568.50000,81.906250 C 568.86895,77.623839 567.45700,76.489942 561.68750,76.468750 z M 561.50000,78.562500 C 566.16933,78.562500 567.29590,78.799853 565.50000,79.375000 L 563.00000,80.156250 L 565.50000,80.375000 L 568.00000,80.562500 L 565.50000,81.375000 L 563.00000,82.156250 L 565.50000,82.375000 L 568.00000,82.562500 L 565.50000,83.375000 C 563.70779,83.948965 563.50677,84.178539 564.81250,84.250000 C 567.14801,84.377814 569.46595,86.695733 569.59375,89.031250 C 569.66521,90.337002 569.92603,90.167207 570.50000,88.375000 L 571.31250,85.875000 L 571.50000,88.375000 L 571.68750,90.875000 L 572.50000,88.375000 L 573.31250,85.875000 L 573.50000,88.375000 L 573.68750,90.875000 L 574.50000,88.375000 C 575.07515,86.579103 575.31248,87.705669 575.31250,92.375000 C 575.31250,97.044331 575.07515,98.170897 574.50000,96.375000 L 573.68750,93.875000 L 573.50000,96.375000 L 573.31250,98.875000 L 572.50000,96.375000 L 571.68750,93.875000 L 571.50000,96.375000 L 571.31250,98.875000 L 570.50000,96.375000 C 569.92603,94.582793 569.66522,94.381751 569.59375,95.687500 C 569.46594,98.023014 567.14803,100.34094 564.81250,100.46875 C 563.50675,100.54021 563.70779,100.80104 565.50000,101.37500 L 568.00000,102.15625 L 565.50000,102.37500 L 563.00000,102.56250 L 565.50000,103.37500 L 568.00000,104.15625 L 565.50000,104.37500 L 563.00000,104.56250 L 565.50000,105.37500 C 567.29590,105.95015 566.16933,106.15625 561.50000,106.15625 C 556.83067,106.15625 555.70410,105.95015 557.50000,105.37500 L 560.00000,104.56250 L 557.50000,104.37500 L 555.00000,104.15625 L 557.50000,103.37500 L 560.00000,102.56250 L 557.50000,102.37500 L 555.00000,102.15625 L 557.50000,101.37500 C 559.29221,100.80104 559.49323,100.54021 558.18750,100.46875 C 555.85199,100.34094 553.53405,98.023017 553.40625,95.687500 C 553.33479,94.381748 553.07397,94.582793 552.50000,96.375000 L 551.68750,98.875000 L 551.50000,96.375000 L 551.31250,93.875000 L 550.50000,96.375000 L 549.68750,98.875000 L 549.50000,96.375000 L 549.31250,93.875000 L 548.50000,96.375000 C 547.92485,98.170897 547.68752,97.044331 547.68750,92.375000 C 547.68750,87.705669 547.92485,86.579103 548.50000,88.375000 L 549.31250,90.875000 L 549.50000,88.375000 L 549.68750,85.875000 L 550.50000,88.375000 L 551.31250,90.875000 L 551.50000,88.375000 L 551.68750,85.875000 L 552.50000,88.375000 C 553.07397,90.167207 553.33478,90.336999 553.40625,89.031250 C 553.53406,86.695736 555.85197,84.377812 558.18750,84.250000 C 559.49325,84.178541 559.29221,83.948965 557.50000,83.375000 L 555.00000,82.562500 L 557.50000,82.375000 L 560.00000,82.156250 L 557.50000,81.375000 L 555.00000,80.562500 L 557.50000,80.375000 L 560.00000,80.156250 L 557.50000,79.375000 C 555.70410,78.799853 556.83067,78.562496 561.50000,78.562500 z M 561.06250,88.468750 C 560.62940,88.536878 560.18311,88.695996 559.75000,88.968750 C 557.52827,90.367893 556.97666,93.033072 558.53125,94.906250 C 560.07586,96.767391 562.92413,96.767388 564.46875,94.906250 C 566.79315,92.105520 564.09420,87.991854 561.06250,88.468750 z "
         style="fill:#565656" />
      <path
         id="path7693"
         transform="translate(-33.50000,3.828125e-7)"
         d="M 560.25000,76.687500 C 559.56250,76.964913 560.12500,77.218753 561.50000,77.218750 C 562.87500,77.218750 563.43750,76.964909 562.75000,76.687500 C 562.06250,76.410088 560.93750,76.410084 560.25000,76.687500 z M 561.06250,88.468750 C 560.62940,88.536878 560.18311,88.695996 559.75000,88.968750 C 557.52827,90.367893 556.97666,93.033072 558.53125,94.906250 C 560.07586,96.767391 562.92413,96.767388 564.46875,94.906250 C 566.79315,92.105520 564.09420,87.991854 561.06250,88.468750 z M 545.81250,90.968750 C 545.72108,91.195312 545.65625,91.687500 545.65625,92.375000 C 545.65625,93.750000 545.87883,94.312500 546.15625,93.625000 C 546.43366,92.937500 546.43365,91.812500 546.15625,91.125000 C 546.01755,90.781250 545.90392,90.742188 545.81250,90.968750 z M 576.81250,90.968750 C 576.72108,91.195312 576.65625,91.687500 576.65625,92.375000 C 576.65625,93.750000 576.87883,94.312500 577.15625,93.625000 C 577.43366,92.937500 577.43365,91.812500 577.15625,91.125000 C 577.01755,90.781250 576.90392,90.742188 576.81250,90.968750 z M 560.25000,107.68750 C 559.56250,107.96492 560.12500,108.21875 561.50000,108.21875 C 562.87500,108.21875 563.43750,107.96492 562.75000,107.68750 C 562.06250,107.41009 560.93750,107.41009 560.25000,107.68750 z "
         style="fill:#e90000" />
      <path
         id="path7691"
         transform="translate(-33.50000,3.828125e-7)"
         d="M 560.25000,76.687500 C 559.56250,76.964913 560.12500,77.218753 561.50000,77.218750 C 562.87500,77.218750 563.43750,76.964909 562.75000,76.687500 C 562.06250,76.410088 560.93750,76.410084 560.25000,76.687500 z M 564.71875,90.000000 C 564.28776,89.733633 563.95027,90.716091 563.96875,92.187500 C 563.99703,94.437762 563.56277,94.872032 561.31250,94.843750 C 559.84110,94.825260 558.85863,95.162764 559.12500,95.593750 C 559.85818,96.780053 562.95794,96.510813 564.31250,95.156250 C 565.66707,93.801684 565.90506,90.733178 564.71875,90.000000 z M 545.81250,90.968750 C 545.72108,91.195312 545.65625,91.687500 545.65625,92.375000 C 545.65625,93.750000 545.87883,94.312500 546.15625,93.625000 C 546.43366,92.937500 546.43365,91.812500 546.15625,91.125000 C 546.01755,90.781250 545.90392,90.742188 545.81250,90.968750 z M 576.81250,90.968750 C 576.72108,91.195312 576.65625,91.687500 576.65625,92.375000 C 576.65625,93.750000 576.87883,94.312500 577.15625,93.625000 C 577.43366,92.937500 577.43365,91.812500 577.15625,91.125000 C 577.01755,90.781250 576.90392,90.742188 576.81250,90.968750 z M 560.25000,107.68750 C 559.56250,107.96492 560.12500,108.21875 561.50000,108.21875 C 562.87500,108.21875 563.43750,107.96492 562.75000,107.68750 C 562.06250,107.41009 560.93750,107.41009 560.25000,107.68750 z "
         style="fill:#a50000" />
    </g>
  </g>
</svg>
