<?xml version="1.0" encoding="UTF-8" standalone="no"?>
<!-- Created with Inkscape (http://www.inkscape.org/) -->
<svg
   xmlns:dc="http://purl.org/dc/elements/1.1/"
   xmlns:cc="http://web.resource.org/cc/"
   xmlns:rdf="http://www.w3.org/1999/02/22-rdf-syntax-ns#"
   xmlns:svg="http://www.w3.org/2000/svg"
   xmlns="http://www.w3.org/2000/svg"
   xmlns:xlink="http://www.w3.org/1999/xlink"
   xmlns:sodipodi="http://inkscape.sourceforge.net/DTD/sodipodi-0.dtd"
   xmlns:inkscape="http://www.inkscape.org/namespaces/inkscape"
   sodipodi:docname="10.svg"
   sodipodi:docbase="/home/adam/workspace/Escape/src/org/spacebar/escape/j2se/resources/tiles"
   inkscape:version="0.41"
   sodipodi:version="0.32"
   id="svg15930"
   height="32px"
   width="32px">
  <defs
     id="defs3">
    <linearGradient
       inkscape:collect="always"
       xlink:href="#linearGradient2685"
       id="linearGradient8140"
       gradientUnits="userSpaceOnUse"
       gradientTransform="scale(1.732051,0.577350)"
       spreadMethod="pad"
       x1="-12.766315"
       y1="296.69754"
       x2="-11.715828"
       y2="301.93048" />
    <linearGradient
       inkscape:collect="always"
       xlink:href="#linearGradient2615"
       id="linearGradient8138"
       gradientUnits="userSpaceOnUse"
       gradientTransform="scale(1.525896,0.655353)"
       x1="-15.950862"
       y1="262.63419"
       x2="-14.394111"
       y2="264.46930" />
    <linearGradient
       inkscape:collect="always"
       xlink:href="#linearGradient2685"
       id="linearGradient8136"
       gradientUnits="userSpaceOnUse"
       gradientTransform="scale(1.732051,0.577350)"
       spreadMethod="pad"
       x1="-12.766315"
       y1="296.69754"
       x2="-10.865437"
       y2="301.78308" />
    <linearGradient
       inkscape:collect="always"
       xlink:href="#linearGradient2615"
       id="linearGradient8134"
       gradientUnits="userSpaceOnUse"
       gradientTransform="scale(1.525896,0.655353)"
       x1="-15.950862"
       y1="262.63419"
       x2="-14.394111"
       y2="264.46930" />
    <linearGradient
       inkscape:collect="always"
       xlink:href="#linearGradient2685"
       id="linearGradient8132"
       gradientUnits="userSpaceOnUse"
       gradientTransform="scale(1.732051,0.577350)"
       spreadMethod="pad"
       x1="-12.266085"
       y1="298.17163"
       x2="-10.565296"
       y2="302.96234" />
    <linearGradient
       inkscape:collect="always"
       xlink:href="#linearGradient2615"
       id="linearGradient8130"
       gradientUnits="userSpaceOnUse"
       gradientTransform="scale(1.525896,0.655353)"
       x1="-15.950862"
       y1="262.63419"
       x2="-14.394111"
       y2="264.46930" />
    <linearGradient
       inkscape:collect="always"
       xlink:href="#linearGradient2685"
       id="linearGradient8128"
       gradientUnits="userSpaceOnUse"
       gradientTransform="scale(1.732051,0.577350)"
       spreadMethod="pad"
       x1="-12.116015"
       y1="297.28717"
       x2="-11.015503"
       y2="301.41449" />
    <linearGradient
       inkscape:collect="always"
       xlink:href="#linearGradient2615"
       id="linearGradient8126"
       gradientUnits="userSpaceOnUse"
       gradientTransform="scale(1.525896,0.655353)"
       x1="-15.950862"
       y1="262.63419"
       x2="-14.394111"
       y2="264.46930" />
    <linearGradient
       inkscape:collect="always"
       xlink:href="#linearGradient2685"
       id="linearGradient8124"
       gradientUnits="userSpaceOnUse"
       gradientTransform="scale(1.732051,0.577350)"
       spreadMethod="pad"
       x1="-12.641255"
       y1="297.50821"
       x2="-11.990957"
       y2="302.22537" />
    <linearGradient
       inkscape:collect="always"
       xlink:href="#linearGradient2615"
       id="linearGradient8122"
       gradientUnits="userSpaceOnUse"
       gradientTransform="scale(1.525896,0.655353)"
       x1="-15.950862"
       y1="262.63419"
       x2="-14.394111"
       y2="264.46930" />
    <linearGradient
       inkscape:collect="always"
       xlink:href="#linearGradient2685"
       id="linearGradient8120"
       gradientUnits="userSpaceOnUse"
       gradientTransform="scale(1.732051,0.577350)"
       spreadMethod="pad"
       x1="-13.241533"
       y1="297.43451"
       x2="-9.8899860"
       y2="303.10980" />
    <linearGradient
       inkscape:collect="always"
       xlink:href="#linearGradient2615"
       id="linearGradient8118"
       gradientUnits="userSpaceOnUse"
       gradientTransform="scale(1.525896,0.655353)"
       x1="-15.950862"
       y1="262.63419"
       x2="-14.394111"
       y2="264.46930" />
    <linearGradient
       inkscape:collect="always"
       xlink:href="#linearGradient2685"
       id="linearGradient8116"
       gradientUnits="userSpaceOnUse"
       gradientTransform="scale(1.732051,0.577350)"
       spreadMethod="pad"
       x1="-12.616244"
       y1="296.62378"
       x2="-11.715830"
       y2="302.37277" />
    <linearGradient
       inkscape:collect="always"
       xlink:href="#linearGradient2615"
       id="linearGradient8114"
       gradientUnits="userSpaceOnUse"
       gradientTransform="scale(1.525896,0.655353)"
       x1="-15.950862"
       y1="262.63419"
       x2="-14.394111"
       y2="264.46930" />
    <linearGradient
       inkscape:collect="always"
       xlink:href="#linearGradient2685"
       id="linearGradient8112"
       gradientUnits="userSpaceOnUse"
       gradientTransform="scale(1.732051,0.577350)"
       spreadMethod="pad"
       x1="-11.940928"
       y1="298.02402"
       x2="-10.065067"
       y2="302.22537" />
    <linearGradient
       inkscape:collect="always"
       xlink:href="#linearGradient2615"
       id="linearGradient8110"
       gradientUnits="userSpaceOnUse"
       gradientTransform="scale(1.525896,0.655353)"
       x1="-15.950862"
       y1="262.63419"
       x2="-14.394111"
       y2="264.46930" />
    <pattern
       inkscape:collect="always"
       xlink:href="#pattern6922"
       id="pattern7397"
       patternTransform="translate(0.000000,140.3622)" />
    <pattern
       inkscape:collect="always"
       xlink:href="#pattern6914"
       id="pattern6922"
       patternTransform="translate(0.000000,140.3622)" />
    <pattern
       patternUnits="userSpaceOnUse"
       width="32.000000"
       height="32.000000"
       patternTransform="translate(-16.00000,140.3622)"
       id="pattern6914">
      <rect
         inkscape:export-filename="/home/adam/brick.png"
         y="140.36218"
         x="-16.000000"
         height="32.000000"
         width="32.000000"
         id="rect6916"
         style="fill:#c4c4c4;fill-opacity:1.0000000;fill-rule:evenodd;stroke:none;stroke-width:0.72500002;stroke-linecap:square;stroke-linejoin:miter;stroke-miterlimit:4.0000000;stroke-dashoffset:0.0000000;stroke-opacity:1.0000000"
         inkscape:export-xdpi="360.00000"
         inkscape:export-ydpi="360.00000"
         transform="translate(16.00000,-140.3622)" />
    </pattern>
    <linearGradient
       id="linearGradient2615">
      <stop
         style="stop-color:#eaeaea;stop-opacity:1.0000000;"
         offset="0.0000000"
         id="stop2617" />
      <stop
         style="stop-color:#dfdfdf;stop-opacity:0;"
         offset="1"
         id="stop2619" />
    </linearGradient>
    <linearGradient
       id="linearGradient2685">
      <stop
         style="stop-color:#c8c8c8;stop-opacity:1.0000000;"
         offset="0.0000000"
         id="stop2687" />
      <stop
         style="stop-color:#919191;stop-opacity:1.0000000;"
         offset="1.0000000"
         id="stop2689" />
    </linearGradient>
  </defs>
  <sodipodi:namedview
     inkscape:window-y="491"
     inkscape:window-x="586"
     inkscape:window-height="536"
     inkscape:window-width="640"
     inkscape:document-units="px"
     inkscape:grid-bbox="true"
     showgrid="true"
     inkscape:current-layer="layer1"
     inkscape:cy="15.999999"
     inkscape:cx="16.000000"
     inkscape:zoom="11.197802"
     inkscape:pageshadow="2"
     inkscape:pageopacity="0.0"
     borderopacity="1.0"
     bordercolor="#666666"
     pagecolor="#ffffff"
     id="base" />
  <metadata
     id="metadata4">
    <rdf:RDF
       id="RDF5">
      <cc:Work
         id="Work6"
         rdf:about="">
        <dc:format
           id="format7">image/svg+xml</dc:format>
        <dc:type
           rdf:resource="http://purl.org/dc/dcmitype/StillImage"
           id="type9" />
      </cc:Work>
    </rdf:RDF>
  </metadata>
  <g
     inkscape:groupmode="layer"
     inkscape:label="Layer 1"
     id="layer1">
    <g
       id="g16238"
       inkscape:label="Layer 1"
       inkscape:groupmode="layer">
      <g
         inkscape:tile-cy="284.36218"
         inkscape:tile-cx="-79.000000"
         inkscape:tile-h="32.000000"
         inkscape:tile-w="32.000000"
         id="g14992"
         transform="translate(252.0000,-169.3750)"
         inkscape:export-filename="/home/adam/brick.png"
         inkscape:export-xdpi="360.00000"
         inkscape:export-ydpi="360.00000">
        <path
           style="fill:#f7f7f7;fill-opacity:1.0000000"
           d="M -144.00000,364.37500 L -144.00000,396.37500 L -112.00000,396.37500 L -112.00000,364.37500 L -144.00000,364.37500 z "
           transform="translate(-108.0000,-195.0000)"
           id="path14994" />
        <path
           style="fill:#dadada;fill-opacity:1.0000000"
           d="M -144.00000,364.37500 L -144.00000,369.90625 C -143.39993,369.88308 -143.29141,369.79067 -142.50000,369.78125 L -136.50000,369.71875 L -142.18750,370.09375 C -143.04782,370.14934 -143.35359,370.26735 -144.00000,370.34375 L -144.00000,385.90625 C -143.38428,385.88612 -143.32717,385.79109 -142.50000,385.78125 L -136.50000,385.71875 L -142.18750,386.09375 C -143.12723,386.15446 -143.33431,386.27112 -144.00000,386.34375 L -144.00000,396.37500 L -141.87500,396.37500 C -141.82195,395.75701 -141.65999,395.37127 -141.40625,395.62500 C -141.27766,395.75359 -141.41582,396.12267 -141.37500,396.37500 L -125.59375,396.37500 C -125.59434,396.19107 -125.60933,396.19207 -125.59375,395.87500 C -125.50734,394.11660 -124.77519,393.84401 -119.50000,393.78125 L -113.50000,393.71875 L -119.18750,394.09375 C -123.52237,394.37386 -124.96733,394.85731 -125.28125,396.15625 C -125.31882,396.31170 -125.31279,396.26171 -125.34375,396.37500 L -112.00000,396.37500 L -112.00000,386.34375 C -114.82683,386.65216 -115.99468,387.11007 -116.28125,388.65625 C -116.62107,390.48973 -116.67402,390.45482 -116.59375,388.37500 C -116.37495,385.92798 -115.61792,386.02451 -112.00000,385.90625 L -112.00000,370.34375 C -114.61065,370.65229 -116.02963,371.11510 -116.28125,372.15625 C -116.57525,373.37278 -116.66392,373.30292 -116.59375,371.87500 C -116.52030,370.38040 -115.39970,370.03752 -112.00000,369.90625 L -112.00000,364.37500 L -125.34375,364.37500 C -125.50128,364.95145 -125.59202,364.91356 -125.59375,364.37500 L -141.37500,364.37500 C -141.31033,364.77474 -141.13541,365.11997 -141.31250,365.56250 C -141.63172,366.36023 -141.85827,366.10246 -141.90625,364.93750 C -141.91651,364.68829 -141.89142,364.56633 -141.87500,364.37500 L -144.00000,364.37500 z M -120.50000,369.71875 L -126.18750,370.09375 C -130.52237,370.37386 -131.96733,370.85731 -132.28125,372.15625 C -132.57525,373.37278 -132.66392,373.30292 -132.59375,371.87500 C -132.50734,369.61660 -131.77519,369.84401 -126.50000,369.78125 L -120.50000,369.71875 z M -129.50000,377.71875 L -135.18750,378.09375 C -139.52237,378.37386 -140.96733,378.85731 -141.28125,380.15625 C -141.57525,381.37278 -141.66392,381.30292 -141.59375,379.87500 C -141.50734,378.11660 -140.77519,377.84401 -135.50000,377.78125 L -129.50000,377.71875 z M -113.50000,377.71875 L -119.18750,378.09375 C -123.52237,378.37386 -124.96733,378.85731 -125.28125,380.15625 C -125.57525,381.37278 -125.66392,381.30292 -125.59375,379.87500 C -125.50734,378.11660 -124.77519,377.84401 -119.50000,377.78125 L -113.50000,377.71875 z M -118.50000,385.68750 L -125.18750,386.06250 C -130.46628,386.35779 -131.95595,386.80954 -132.28125,388.15625 C -132.57621,389.37733 -132.66411,389.30672 -132.59375,387.87500 C -132.50569,386.08293 -131.77226,385.85273 -125.50000,385.78125 L -118.50000,385.68750 z M -138.25000,393.62500 C -136.46250,393.40318 -133.53750,393.40317 -131.75000,393.62500 C -129.96250,393.84683 -131.42500,394.03125 -135.00000,394.03125 C -138.57500,394.03125 -140.03750,393.84682 -138.25000,393.62500 z "
           transform="translate(-108.0000,-195.0000)"
           id="path14996"
           sodipodi:nodetypes="ccccccccccccccccccccccccccccccccccccccccccccccccccccccccccccccccccc" />
        <path
           style="fill:#c3c3c3;fill-opacity:1.0000000"
           d="M -144.00000,364.37500 L -144.00000,369.46875 L -142.25000,369.50000 C -138.53750,369.57490 -136.50434,369.82308 -137.75000,370.06250 C -139.05653,370.31362 -139.76113,370.96900 -139.37500,371.59375 C -138.93162,372.31117 -139.16337,372.36453 -140.09375,371.78125 C -140.75072,371.36938 -142.45863,371.05074 -144.00000,370.87500 L -144.00000,385.37500 L -142.34375,385.37500 C -134.55428,385.37500 -134.36880,386.49266 -142.12500,386.71875 C -143.10073,386.74719 -143.33786,386.88053 -144.00000,386.93750 L -144.00000,396.37500 L -141.84375,396.37500 C -141.85137,396.23399 -141.86700,396.28650 -141.87500,396.12500 C -142.01085,393.38175 -141.98344,393.35972 -135.25000,393.37500 C -131.38702,393.38377 -129.04690,393.75277 -129.78125,394.21875 C -130.48700,394.66656 -133.25087,394.82750 -135.93750,394.59375 C -140.28969,394.21508 -140.84703,394.39822 -141.25000,396.37500 L -125.84375,396.37500 C -125.85145,396.23561 -125.86708,396.28499 -125.87500,396.12500 C -126.01040,393.39067 -125.95914,393.37500 -119.43750,393.37500 C -115.83004,393.37500 -113.10328,393.71659 -113.37500,394.15625 C -113.64672,394.59590 -116.32497,394.81793 -119.34375,394.62500 C -124.21542,394.31368 -124.81735,394.47480 -125.21875,396.37500 L -112.00000,396.37500 L -112.00000,386.93750 C -114.53843,387.15589 -115.60136,387.60262 -116.09375,389.37500 C -116.73452,391.68150 -116.81429,391.62345 -116.90625,388.62500 L -116.75000,385.53125 L -112.00000,385.37500 L -112.00000,370.87500 C -112.27100,370.84410 -112.42502,370.73429 -112.68750,370.71875 C -115.24132,370.56753 -115.97464,370.95514 -116.31250,372.68750 C -116.65441,374.44064 -116.76472,374.35187 -116.87500,372.12500 L -116.82812,369.45313 L -112.00000,369.46875 L -112.00000,364.37500 L -125.21875,364.37500 C -125.23454,364.44974 -125.26589,364.48216 -125.28125,364.56250 C -125.64510,366.46510 -125.73429,366.35580 -125.84375,364.37500 L -141.25000,364.37500 C -141.26235,364.43556 -141.26908,364.46723 -141.28125,364.53125 C -141.65984,366.52272 -141.73361,366.41368 -141.84375,364.37500 L -144.00000,364.37500 z M -126.34375,369.37500 C -122.67709,369.37500 -119.96417,369.65167 -120.31250,370.00000 C -120.66083,370.34834 -123.24932,370.62500 -126.06250,370.62500 C -130.33538,370.62500 -131.31694,370.98178 -132.03125,372.75000 C -132.81546,374.69125 -132.87959,374.64710 -132.93750,372.12500 C -132.94803,371.66667 -133.16678,370.47917 -132.23055,369.71875 C -131.07522,368.78037 -127.45312,369.37500 -126.34375,369.37500 z M -135.34375,377.37500 C -131.67709,377.37500 -128.92905,377.61654 -129.25000,377.93750 C -129.57096,378.25845 -132.22303,378.57788 -135.15625,378.62500 C -139.64271,378.69709 -140.60918,379.03080 -141.15625,380.78125 C -141.71504,382.56916 -141.82061,382.48796 -141.90625,380.12500 C -142.00539,377.39003 -141.97398,377.37500 -135.34375,377.37500 z M -119.34375,377.37500 C -111.34691,377.37500 -111.29279,378.31585 -119.28125,378.50000 C -124.15003,378.61224 -124.95142,378.91147 -125.31250,380.75000 C -125.63855,382.41023 -125.76833,382.27892 -125.87500,380.12500 C -126.01062,377.38638 -125.98283,377.37500 -119.34375,377.37500 z M -132.93750,385.68750 L -125.75000,385.37500 C -121.76250,385.38343 -119.03748,385.74289 -119.68750,386.15625 C -120.33752,386.56962 -123.34435,386.81651 -126.37500,386.71875 C -131.29535,386.56004 -131.93596,386.75799 -132.31250,388.68750 C -132.65296,390.43212 -132.76505,390.34530 -132.87500,388.12500 L -132.93750,385.68750 z "
           transform="translate(-108.0000,-195.0000)"
           id="path14998"
           sodipodi:nodetypes="ccccccccccccccccccccccccccccccccccccccccccccccccssscccccccccccccccccc" />
        <path
           sodipodi:nodetypes="ccccccccccccccccccccccccccccccccccccccccccccccccccccccccccccccccccccccccccccccccccccccccccccccccccccccccccccccccccccccccccccc"
           style="fill:#9b9b9b;fill-opacity:1.0000000"
           d="M -144.00000,364.37500 L -144.00000,366.18750 C -143.91222,365.87498 -143.81469,365.56574 -143.75000,365.12500 C -143.70192,364.79743 -143.71828,364.64008 -143.68750,364.37500 L -144.00000,364.37500 z M -139.78125,367.40625 C -138.74056,368.14961 -128.68100,367.43944 -127.87500,366.56250 C -127.57903,366.24048 -127.62931,365.31410 -127.90625,364.37500 L -129.03125,364.37500 C -129.23614,365.54251 -130.02888,365.82192 -132.75000,365.71875 C -138.68582,365.49370 -140.69506,366.75352 -139.78125,367.40625 z M -118.40625,364.37500 C -118.57212,364.52582 -118.74798,364.59055 -118.90625,364.78125 C -120.13700,366.26421 -121.67391,366.31620 -123.78125,365.00000 C -124.59716,364.49039 -124.95712,364.68363 -124.78125,365.53125 C -124.63012,366.25963 -123.40631,367.10000 -122.06250,367.37500 C -120.71868,367.65000 -118.05144,367.50000 -116.00000,367.50000 C -113.29333,367.50000 -112.39747,367.60253 -112.00000,366.18750 L -112.00000,364.37500 L -113.90625,364.37500 C -114.04410,364.52665 -114.03451,364.45237 -114.18750,364.62500 C -115.69735,366.32869 -116.04321,366.45009 -115.62500,365.12500 C -115.52425,364.80577 -115.60515,364.60794 -115.62500,364.37500 L -118.40625,364.37500 z M -135.90625,370.46875 C -136.47426,370.34204 -137.26624,370.89590 -138.18750,372.15625 C -139.26259,373.62705 -142.23453,374.18284 -144.00000,373.59375 L -144.00000,375.21875 C -143.16925,375.27782 -142.47286,375.37500 -141.50000,375.37500 C -135.23333,375.37500 -135.00000,375.28526 -135.00000,372.87500 C -135.00000,371.40915 -135.33824,370.59546 -135.90625,370.46875 z M -120.31250,370.78125 C -121.30902,370.63500 -122.37067,371.20560 -122.68750,372.03125 C -123.02438,372.90915 -124.03661,373.31588 -125.12500,373.03125 C -126.14860,372.76357 -127.25449,372.97039 -127.56250,373.46875 C -127.87051,373.96712 -128.65746,374.35218 -129.31250,374.34375 C -130.02811,374.33455 -129.90129,373.95746 -129.00000,373.37500 C -127.78704,372.59113 -127.93056,372.38737 -129.75000,372.37500 C -133.32420,372.35068 -131.88666,374.81739 -128.00000,375.37500 L -119.00000,375.37500 L -119.00000,373.75000 C -119.00000,372.98743 -119.00000,371.37500 -120.31250,370.78125 z M -113.87500,372.56250 C -114.78761,372.49808 -116.00000,373.36435 -116.00000,374.40625 C -116.00000,374.78295 -114.22201,375.06075 -112.00000,375.21875 L -112.00000,373.59375 C -112.45089,373.44330 -112.89596,373.28389 -113.12500,372.96875 C -113.30992,372.71431 -113.57080,372.58397 -113.87500,372.56250 z M -129.21875,378.37500 C -129.77047,378.37500 -129.98337,379.27481 -129.68750,380.40625 C -129.24823,382.08599 -129.41234,382.26705 -130.56250,381.31250 C -131.33722,380.66953 -132.69065,380.41543 -133.56250,380.75000 C -134.43435,381.08456 -135.96634,380.91147 -136.96875,380.37500 C -138.28158,379.67239 -139.11077,379.80995 -139.96875,380.84375 C -140.62385,381.63310 -140.95733,382.62589 -140.68750,383.06250 C -140.41767,383.49909 -137.44959,383.62500 -133.93750,383.62500 L -128.03125,383.56250 L -127.81250,381.12500 C -128.03449,379.61250 -128.66703,378.37500 -129.21875,378.37500 z M -112.31250,378.93750 C -112.58243,378.77246 -113.08189,379.02816 -113.93750,379.56250 C -115.00192,380.22724 -115.59500,381.23510 -115.25000,381.81250 C -114.90500,382.38992 -115.26942,382.32587 -116.06250,381.68750 C -117.84084,380.25608 -124.94153,380.36219 -124.68750,381.81250 C -124.58599,382.39202 -122.70000,383.09714 -120.50000,383.37500 C -114.18734,384.17226 -112.00000,383.50065 -112.00000,380.75000 C -112.00000,379.69254 -112.04257,379.10254 -112.31250,378.93750 z M -118.81250,381.68750 C -118.01477,382.00672 -118.24130,382.23327 -119.40625,382.28125 C -120.46041,382.32467 -121.05104,382.08231 -120.71875,381.75000 C -120.38645,381.41771 -119.53438,381.39862 -118.81250,381.68750 z M -135.15625,386.43750 C -135.56850,386.20173 -136.16102,386.60336 -136.62500,387.81250 C -136.94237,388.63955 -137.83981,388.97428 -138.75000,388.62500 C -139.90622,388.18132 -140.12407,388.39927 -139.53125,389.43750 C -138.87475,390.58730 -138.97200,390.63719 -140.06250,389.62500 C -140.80318,388.93750 -141.86000,388.36657 -142.43750,388.37500 C -143.01500,388.38343 -142.82500,388.84184 -142.00000,389.37500 C -141.17500,389.90816 -140.99792,390.33533 -141.59375,390.34375 C -142.18959,390.35217 -142.96291,390.03709 -143.34375,389.65625 C -143.52670,389.47330 -143.77320,389.37894 -144.00000,389.25000 L -144.00000,391.46875 C -142.94079,391.57686 -139.80586,391.37500 -138.18750,391.37500 C -135.84301,391.37500 -135.13079,390.86696 -134.75000,388.87500 C -134.49591,387.54582 -134.74400,386.67327 -135.15625,386.43750 z M -119.75000,386.78125 C -120.16250,387.19375 -120.50000,388.02917 -120.50000,388.62500 C -120.50000,389.22083 -121.11094,389.90157 -121.87500,390.15625 C -122.83567,390.47647 -126.77533,390.05807 -128.25000,389.09375 C -130.43114,387.66744 -130.84429,387.62081 -130.37500,388.84375 C -130.04091,389.71437 -130.37037,390.39680 -131.15625,390.43750 C -131.90259,390.47616 -131.64669,390.83724 -130.59375,391.25000 C -129.54081,391.66277 -127.74081,391.91185 -126.59375,391.78125 C -125.44669,391.65066 -123.26250,391.48335 -121.75000,391.43750 C -119.45833,391.36806 -119.00000,390.90974 -119.00000,388.68750 C -119.00000,387.22084 -119.33750,386.36876 -119.75000,386.78125 z M -114.03125,388.71875 C -114.93659,388.77226 -115.65625,389.17914 -115.65625,389.90625 C -115.65625,390.85887 -114.65780,391.37500 -112.78125,391.37500 C -112.45041,391.37500 -112.27813,391.44036 -112.00000,391.46875 L -112.00000,389.25000 C -112.63000,388.89183 -113.36556,388.67941 -114.03125,388.71875 z M -128.78125,394.37500 C -128.89206,394.37500 -128.90237,394.87500 -128.93750,395.87500 C -128.94478,396.08232 -129.00198,396.20821 -129.03125,396.37500 L -127.90625,396.37500 C -127.95685,396.20340 -127.96190,396.04494 -128.03125,395.87500 C -128.43934,394.87500 -128.67044,394.37500 -128.78125,394.37500 z M -143.81250,394.53125 C -143.83910,394.52576 -143.96861,394.68370 -144.00000,394.68750 L -144.00000,396.37500 L -143.68750,396.37500 C -143.56157,395.29063 -143.53508,394.58849 -143.81250,394.53125 z M -121.81250,394.68750 C -122.53438,394.39863 -123.38645,394.41772 -123.71875,394.75000 C -124.05104,395.08230 -123.46041,395.32467 -122.40625,395.28125 C -121.24130,395.23327 -121.01477,395.00671 -121.81250,394.68750 z M -112.00000,394.68750 C -112.32754,394.72713 -112.97363,395.34899 -113.90625,396.37500 L -112.00000,396.37500 L -112.00000,394.68750 z M -116.37500,395.40625 C -116.93848,395.34717 -117.69227,395.72582 -118.40625,396.37500 L -115.62500,396.37500 C -115.67132,395.83147 -115.88892,395.45721 -116.37500,395.40625 z "
           transform="translate(-108.0000,-195.0000)"
           id="path15000" />
        <path
           style="fill:#5a5a5a;fill-opacity:1.0000000"
           d="M -128.65625,364.37500 C -128.68301,364.47799 -128.68608,364.42733 -128.71875,364.56250 C -129.03828,365.88464 -130.51221,366.36105 -135.31250,366.65625 L -141.50000,367.03125 L -135.00000,366.93750 C -129.22939,366.86261 -128.49350,366.65057 -128.40625,364.87500 C -128.39109,364.56649 -128.40369,364.56204 -128.40625,364.37500 L -128.65625,364.37500 z M -112.65625,364.37500 C -112.68301,364.47799 -112.68608,364.42733 -112.71875,364.56250 C -113.03828,365.88464 -114.51221,366.36105 -119.31250,366.65625 L -125.50000,367.03125 L -119.00000,366.93750 C -113.22939,366.86261 -112.49350,366.65057 -112.40625,364.87500 C -112.39109,364.56649 -112.40369,364.56204 -112.40625,364.37500 L -112.65625,364.37500 z M -135.43750,371.71875 C -135.48790,371.67116 -135.57175,371.95424 -135.71875,372.56250 C -136.03828,373.88464 -137.51221,374.36105 -142.31250,374.65625 L -144.00000,374.75000 L -144.00000,374.96875 L -142.00000,374.93750 C -136.22939,374.86261 -135.49350,374.65057 -135.40625,372.87500 C -135.37116,372.16104 -135.38710,371.76634 -135.43750,371.71875 z M -119.43750,371.71875 C -119.48790,371.67116 -119.57175,371.95424 -119.71875,372.56250 C -120.03828,373.88464 -121.51221,374.36105 -126.31250,374.65625 L -132.50000,375.03125 L -126.00000,374.93750 C -120.22939,374.86261 -119.49350,375.51298 -119.40625,372.87500 C -119.37116,372.16104 -119.38710,371.76634 -119.43750,371.71875 z M -112.00000,374.75000 L -116.50000,375.03125 L -112.00000,374.96875 L -112.00000,374.75000 z M -128.43750,379.71875 C -128.48790,379.67116 -128.57175,379.95424 -128.71875,380.56250 C -129.03828,381.88464 -130.51221,382.36105 -135.31250,382.65625 L -141.50000,383.03125 L -135.00000,382.93750 C -127.97939,383.23761 -128.49350,382.65057 -128.40625,380.87500 C -128.37116,380.16104 -128.38710,379.76634 -128.43750,379.71875 z M -112.43750,379.71875 C -112.48790,379.67116 -112.57175,379.95424 -112.71875,380.56250 C -113.03828,381.88464 -114.51221,382.36105 -119.31250,382.65625 L -125.50000,383.03125 L -119.00000,382.93750 C -113.22939,382.86261 -112.49350,382.65057 -112.40625,380.87500 C -112.37116,380.16104 -112.38710,379.76634 -112.43750,379.71875 z M -135.43750,387.71875 C -135.48790,387.67116 -135.57175,387.95424 -135.71875,388.56250 C -136.03828,389.88464 -137.51221,390.36105 -142.31250,390.65625 L -144.00000,390.75000 L -144.00000,390.96875 L -142.00000,390.93750 C -136.22939,390.86261 -135.49350,390.65057 -135.40625,388.87500 C -135.37116,388.16104 -135.38710,387.76634 -135.43750,387.71875 z M -119.43750,387.71875 C -119.48790,387.67116 -119.57175,387.95424 -119.71875,388.56250 C -120.03828,389.88464 -121.51221,390.36105 -126.31250,390.65625 L -132.50000,391.03125 L -126.00000,390.93750 C -120.22939,390.86261 -119.49350,390.65057 -119.40625,388.87500 C -119.37116,388.16104 -119.38710,387.76634 -119.43750,387.71875 z M -112.00000,390.75000 L -116.50000,391.03125 L -112.00000,390.96875 L -112.00000,390.75000 z M -128.43750,395.71875 C -128.47670,395.68174 -128.56261,396.01453 -128.65625,396.37500 L -128.40625,396.37500 C -128.40961,396.12919 -128.40888,395.74578 -128.43750,395.71875 z M -112.43750,395.71875 C -112.47670,395.68174 -112.56261,396.01453 -112.65625,396.37500 L -112.40625,396.37500 C -112.40961,396.12919 -112.40888,395.74578 -112.43750,395.71875 z "
           transform="translate(-108.0000,-195.0000)"
           id="path15002"
           sodipodi:nodetypes="cccccccccccccccccccccccccccccccccccccccccccccccccccccccccccccccccccccccccccc" />
      </g>
    </g>
    <g
       transform="translate(-384.7193,-92.36218)"
       id="g15633">
      <path
         transform="translate(-57.81652,11.11968)"
         d="M 464.13112,110.02318 L 452.63823,109.98880 L 444.53584,101.83778 L 444.57022,90.344891 L 452.72124,82.242501 L 464.21413,82.276885 L 472.31652,90.427901 L 472.28214,101.92080 L 464.13112,110.02318 z "
         inkscape:randomized="0.0000000"
         inkscape:rounded="0.0000000"
         inkscape:flatsided="true"
         sodipodi:arg2="1.5737881"
         sodipodi:arg1="1.1810890"
         sodipodi:r2="6.5575213"
         sodipodi:r1="15.016256"
         sodipodi:cy="96.132843"
         sodipodi:cx="458.42618"
         sodipodi:sides="8"
         id="path15655"
         style="color:#000000;fill:#ee0000;fill-opacity:1.0000000;fill-rule:nonzero;stroke:none;stroke-width:1.0000000;stroke-linecap:square;stroke-linejoin:miter;stroke-miterlimit:4.0000000;stroke-dashoffset:0.0000000;stroke-opacity:0.40659341;marker:none;marker-start:none;marker-mid:none;marker-end:none;visibility:visible;display:inline;overflow:visible"
         sodipodi:type="star" />
      <path
         transform="matrix(0.871804,0.000000,0.000000,0.871804,0.732487,23.44351)"
         d="M 464.14731,110.01290 C 462.65953,110.62835 454.13227,110.61212 452.64863,109.98756 C 451.16499,109.36300 445.12946,103.34872 444.51676,101.85931 C 443.90406,100.36990 443.96676,91.817881 444.58413,90.331764 C 445.20151,88.845646 451.20931,82.826179 452.69821,82.219644 C 454.18712,81.613109 462.70901,81.658114 464.19366,82.277318 C 465.67830,82.896522 471.73442,88.922375 472.34097,90.411710 C 472.94751,91.901045 472.89080,100.42596 472.27035,101.91153 C 471.64990,103.39711 465.63509,109.39744 464.14731,110.01290 z "
         inkscape:randomized="0.0020000000"
         inkscape:rounded="0.14000000"
         inkscape:flatsided="true"
         sodipodi:arg2="1.5737881"
         sodipodi:arg1="1.1810890"
         sodipodi:r2="6.5575213"
         sodipodi:r1="15.016256"
         sodipodi:cy="96.132843"
         sodipodi:cx="458.42618"
         sodipodi:sides="8"
         id="use15660"
         style="color:#000000;fill:#bf0000;fill-opacity:1.0000000;fill-rule:nonzero;stroke:none;stroke-width:1.0000000;stroke-linecap:square;stroke-linejoin:miter;stroke-miterlimit:4.0000000;stroke-dashoffset:0.0000000;stroke-opacity:0.40659341;marker:none;marker-start:none;marker-mid:none;marker-end:none;visibility:visible;display:inline;overflow:visible"
         sodipodi:type="star" />
      <path
         sodipodi:nodetypes="ccccccccc"
         id="path15635"
         d="M 394.00000,120.36218 C 394.33992,119.81218 397.20320,119.36218 400.36285,119.36218 C 405.54837,119.36218 406.41884,119.04114 409.30383,116.06458 C 412.05702,113.22401 412.50000,112.05411 412.50000,107.62359 C 412.50000,104.79474 412.95000,102.20210 413.50000,101.86218 C 414.12314,101.47706 414.50000,103.44906 414.50000,107.09496 C 414.50000,113.54929 415.17842,111.90997 410.21215,117.15398 C 406.09458,121.19506 407.08946,121.53896 399.65313,121.36218 C 395.72700,121.36218 393.61307,120.98824 394.00000,120.36218 z "
         style="fill:#8a0000" />
      <path
         sodipodi:nodetypes="ccccccccccccccccccccccccccccccccccccccccccccccccccccccccccccccccccccccccccccccccczscccccccccccczzcc"
         style="fill:#ffffff;fill-opacity:1.0000000"
         id="path15892"
         d="M 391.96267,111.38242 C 392.28025,111.15397 392.52917,110.84088 392.73557,110.51152 C 392.93037,110.17407 393.09733,109.80141 393.08952,109.40365 C 393.08102,108.80934 393.00400,108.21233 392.83203,107.64241 C 392.72856,107.29980 392.46570,107.04054 392.22284,106.79070 C 391.80229,106.38623 391.34165,106.01305 390.81967,105.74734 C 390.35028,105.53451 389.86796,105.25118 389.62848,104.77440 C 389.49149,104.48212 389.42304,104.13101 389.53508,103.81965 C 389.64754,103.52177 389.97429,103.38498 390.26985,103.35131 C 390.52972,103.32408 390.79683,103.31734 391.05380,103.37009 C 391.30975,103.42638 391.42030,103.68472 391.54474,103.88595 C 391.64109,104.05968 391.81648,104.18629 392.01794,104.19771 C 392.26735,104.21812 392.52419,104.23115 392.76959,104.17363 C 392.93062,104.14669 393.00692,103.97365 392.96285,103.82649 C 392.89643,103.54273 392.76118,103.27995 392.62389,103.02475 C 392.38966,102.60825 391.99553,102.28670 391.53766,102.14778 C 391.00851,101.98329 390.44228,101.98482 389.89616,102.04427 C 389.45656,102.09681 389.00396,102.26027 388.72165,102.61889 C 388.49521,102.90331 388.36261,103.24988 388.25695,103.59421 C 388.10992,104.08789 388.13370,104.62582 388.31378,105.10763 C 388.42213,105.43350 388.60083,105.74038 388.86756,105.96172 C 389.35912,106.38184 389.92553,106.70057 390.45056,107.07531 C 390.82056,107.34236 391.21377,107.60473 391.47445,107.98762 C 391.71414,108.34727 391.70953,108.79867 391.70784,109.21392 C 391.69624,109.53610 391.66217,109.89972 391.41288,110.13364 C 391.14597,110.36600 390.77199,110.38236 390.43561,110.39072 C 390.15934,110.39125 389.88306,110.39081 389.60679,110.39095 C 389.46621,110.00481 389.33934,109.61337 389.18473,109.23259 C 389.12610,109.08253 389.00479,108.94347 388.83308,108.93488 C 388.57304,108.91141 388.31012,108.91620 388.04963,108.93125 C 387.84838,108.91089 387.81835,109.12799 387.88628,109.27140 C 387.96696,109.58257 388.02637,109.89895 388.10076,110.21135 C 388.23620,110.56721 388.47363,110.87649 388.73531,111.14923 C 388.95914,111.36978 389.18906,111.63101 389.51825,111.67742 C 389.89260,111.73134 390.27261,111.71123 390.64964,111.71205 C 391.07414,111.70560 391.52391,111.67302 391.88777,111.43053 C 391.91301,111.41492 391.93796,111.39884 391.96267,111.38242 z M 397.09475,107.52328 C 397.09475,106.12621 397.09475,104.72914 397.09475,103.33207 C 397.68299,103.33207 398.27123,103.33207 398.85947,103.33207 C 398.85947,102.89089 398.85947,102.44971 398.85947,102.00853 C 397.24181,102.00853 395.62415,102.00853 394.00649,102.00853 C 394.00649,102.44971 394.00649,102.89089 394.00649,103.33207 C 394.59473,103.33207 395.18297,103.33207 395.77121,103.33207 C 395.77121,106.12621 395.77121,108.92035 395.77121,111.71449 C 396.21239,111.71449 396.65357,111.71449 397.09475,111.71449 C 397.09475,110.31742 397.09475,108.92035 397.09475,107.52328 z M 404.34355,111.23655 C 404.82144,110.82051 405.10497,110.22616 405.24523,109.61686 C 405.45045,108.73410 405.46975,107.82168 405.47712,106.91949 C 405.47299,105.99573 405.45827,105.06189 405.25705,104.15619 C 405.12194,103.54647 404.85199,102.94713 404.38245,102.52201 C 404.15101,102.30867 403.89645,102.08229 403.57031,102.04365 C 403.17558,101.99234 402.77588,102.01011 402.37886,102.01276 C 402.10802,102.01587 401.82081,102.05557 401.60382,102.23214 C 401.33413,102.44891 401.08501,102.69211 400.85335,102.94897 C 400.53090,103.30621 400.33542,103.76221 400.25515,104.23387 C 400.12303,104.98612 400.12949,105.75361 400.12042,106.51473 C 400.12428,107.39844 400.11028,108.28579 400.21132,109.16522 C 400.27304,109.69657 400.41812,110.23793 400.76095,110.66056 C 400.99789,110.95589 401.27694,111.21549 401.56435,111.46076 C 401.76287,111.63303 402.02647,111.70142 402.28456,111.70633 C 402.68098,111.71728 403.07899,111.72471 403.47456,111.69233 C 403.73619,111.67480 403.98064,111.55713 404.17445,111.38351 C 404.23195,111.33584 404.28793,111.28638 404.34355,111.23655 z M 401.94848,109.91565 C 401.54696,109.24606 401.43303,108.45160 401.38661,107.68499 C 401.34932,106.94522 401.37668,106.20304 401.43780,105.46531 C 401.47615,105.01663 401.58085,104.57055 401.78960,104.16914 C 401.91109,103.94100 402.00671,103.68543 402.20390,103.50976 C 402.39311,103.36483 402.64415,103.37441 402.87010,103.35623 C 403.08272,103.35728 403.32366,103.35233 403.50102,103.48751 C 403.73364,103.77352 403.83803,104.13870 403.93019,104.48937 C 404.15058,105.42956 404.19385,106.40290 404.16254,107.36516 C 404.12621,108.13856 404.04997,108.92159 403.79922,109.65848 C 403.72551,109.85825 403.64128,110.06011 403.50486,110.22585 C 403.32295,110.35687 403.08596,110.37507 402.86896,110.39000 C 402.61544,110.39331 402.31665,110.39709 402.13873,110.18373 C 402.06493,110.10227 402.00576,110.00906 401.94848,109.91565 z M 408.41837,109.59676 C 408.41837,108.89084 408.41837,108.18493 408.41837,107.47902 C 409.30738,107.44475 410.08678,107.51575 410.66556,107.35412 C 411.24434,107.19250 411.63556,106.80992 411.89215,106.51023 C 412.28072,106.05641 412.52330,105.47127 412.52723,104.86977 C 412.53145,104.34754 412.41304,103.82369 412.19161,103.35119 C 411.97452,102.88796 411.57005,102.52644 411.09543,102.34100 C 410.43945,102.07839 409.72259,102.03210 409.02371,102.01184 C 408.38079,102.00517 407.73779,102.01000 407.09483,102.00853 C 407.09483,105.24385 407.09483,108.47917 407.09483,111.71449 C 407.53601,111.71449 407.97719,111.71449 408.41837,111.71449 C 408.41837,111.00858 408.41837,110.30267 408.41837,109.59676 z M 408.41837,104.73509 C 408.41837,104.26742 408.41837,103.79974 408.41837,103.33207 C 408.86060,103.33601 409.30330,103.32180 409.74508,103.34503 C 410.12195,103.37174 410.53891,103.45062 410.79159,103.75887 C 410.99802,104.01868 411.10223,104.26357 411.14426,104.67215 C 411.18670,105.08470 410.98776,105.76022 410.84249,105.98462 C 410.68999,106.22019 409.21762,106.10963 408.41837,106.13811 C 408.41837,105.67044 408.41837,105.20276 408.41837,104.73509 z " />
    </g>
  </g>
</svg>
