<?xml version="1.0" encoding="UTF-8" standalone="no"?>
<!-- Created with Inkscape (http://www.inkscape.org/) -->
<svg
   xmlns:dc="http://purl.org/dc/elements/1.1/"
   xmlns:cc="http://web.resource.org/cc/"
   xmlns:rdf="http://www.w3.org/1999/02/22-rdf-syntax-ns#"
   xmlns:svg="http://www.w3.org/2000/svg"
   xmlns="http://www.w3.org/2000/svg"
   xmlns:xlink="http://www.w3.org/1999/xlink"
   xmlns:sodipodi="http://inkscape.sourceforge.net/DTD/sodipodi-0.dtd"
   xmlns:inkscape="http://www.inkscape.org/namespaces/inkscape"
   sodipodi:docname="10.svg"
   sodipodi:docbase="/home/adam/workspace/Escape-j2se/src/org/spacebar/escape/j2se/resources/tiles"
   inkscape:version="0.43"
   sodipodi:version="0.32"
   id="svg15930"
   height="32px"
   width="32px">
  <defs
     id="defs3">
    <linearGradient
       inkscape:collect="always"
       xlink:href="#linearGradient2685"
       id="linearGradient8140"
       gradientUnits="userSpaceOnUse"
       gradientTransform="scale(1.732051,0.577350)"
       spreadMethod="pad"
       x1="-12.766315"
       y1="296.69754"
       x2="-11.715828"
       y2="301.93048" />
    <linearGradient
       inkscape:collect="always"
       xlink:href="#linearGradient2615"
       id="linearGradient8138"
       gradientUnits="userSpaceOnUse"
       gradientTransform="scale(1.525896,0.655353)"
       x1="-15.950862"
       y1="262.63419"
       x2="-14.394111"
       y2="264.46930" />
    <linearGradient
       inkscape:collect="always"
       xlink:href="#linearGradient2685"
       id="linearGradient8136"
       gradientUnits="userSpaceOnUse"
       gradientTransform="scale(1.732051,0.577350)"
       spreadMethod="pad"
       x1="-12.766315"
       y1="296.69754"
       x2="-10.865437"
       y2="301.78308" />
    <linearGradient
       inkscape:collect="always"
       xlink:href="#linearGradient2615"
       id="linearGradient8134"
       gradientUnits="userSpaceOnUse"
       gradientTransform="scale(1.525896,0.655353)"
       x1="-15.950862"
       y1="262.63419"
       x2="-14.394111"
       y2="264.46930" />
    <linearGradient
       inkscape:collect="always"
       xlink:href="#linearGradient2685"
       id="linearGradient8132"
       gradientUnits="userSpaceOnUse"
       gradientTransform="scale(1.732051,0.577350)"
       spreadMethod="pad"
       x1="-12.266085"
       y1="298.17163"
       x2="-10.565296"
       y2="302.96234" />
    <linearGradient
       inkscape:collect="always"
       xlink:href="#linearGradient2615"
       id="linearGradient8130"
       gradientUnits="userSpaceOnUse"
       gradientTransform="scale(1.525896,0.655353)"
       x1="-15.950862"
       y1="262.63419"
       x2="-14.394111"
       y2="264.46930" />
    <linearGradient
       inkscape:collect="always"
       xlink:href="#linearGradient2685"
       id="linearGradient8128"
       gradientUnits="userSpaceOnUse"
       gradientTransform="scale(1.732051,0.577350)"
       spreadMethod="pad"
       x1="-12.116015"
       y1="297.28717"
       x2="-11.015503"
       y2="301.41449" />
    <linearGradient
       inkscape:collect="always"
       xlink:href="#linearGradient2615"
       id="linearGradient8126"
       gradientUnits="userSpaceOnUse"
       gradientTransform="scale(1.525896,0.655353)"
       x1="-15.950862"
       y1="262.63419"
       x2="-14.394111"
       y2="264.46930" />
    <linearGradient
       inkscape:collect="always"
       xlink:href="#linearGradient2685"
       id="linearGradient8124"
       gradientUnits="userSpaceOnUse"
       gradientTransform="scale(1.732051,0.577350)"
       spreadMethod="pad"
       x1="-12.641255"
       y1="297.50821"
       x2="-11.990957"
       y2="302.22537" />
    <linearGradient
       inkscape:collect="always"
       xlink:href="#linearGradient2615"
       id="linearGradient8122"
       gradientUnits="userSpaceOnUse"
       gradientTransform="scale(1.525896,0.655353)"
       x1="-15.950862"
       y1="262.63419"
       x2="-14.394111"
       y2="264.46930" />
    <linearGradient
       inkscape:collect="always"
       xlink:href="#linearGradient2685"
       id="linearGradient8120"
       gradientUnits="userSpaceOnUse"
       gradientTransform="scale(1.732051,0.577350)"
       spreadMethod="pad"
       x1="-13.241533"
       y1="297.43451"
       x2="-9.8899860"
       y2="303.10980" />
    <linearGradient
       inkscape:collect="always"
       xlink:href="#linearGradient2615"
       id="linearGradient8118"
       gradientUnits="userSpaceOnUse"
       gradientTransform="scale(1.525896,0.655353)"
       x1="-15.950862"
       y1="262.63419"
       x2="-14.394111"
       y2="264.46930" />
    <linearGradient
       inkscape:collect="always"
       xlink:href="#linearGradient2685"
       id="linearGradient8116"
       gradientUnits="userSpaceOnUse"
       gradientTransform="scale(1.732051,0.577350)"
       spreadMethod="pad"
       x1="-12.616244"
       y1="296.62378"
       x2="-11.715830"
       y2="302.37277" />
    <linearGradient
       inkscape:collect="always"
       xlink:href="#linearGradient2615"
       id="linearGradient8114"
       gradientUnits="userSpaceOnUse"
       gradientTransform="scale(1.525896,0.655353)"
       x1="-15.950862"
       y1="262.63419"
       x2="-14.394111"
       y2="264.46930" />
    <linearGradient
       inkscape:collect="always"
       xlink:href="#linearGradient2685"
       id="linearGradient8112"
       gradientUnits="userSpaceOnUse"
       gradientTransform="scale(1.732051,0.577350)"
       spreadMethod="pad"
       x1="-11.940928"
       y1="298.02402"
       x2="-10.065067"
       y2="302.22537" />
    <linearGradient
       inkscape:collect="always"
       xlink:href="#linearGradient2615"
       id="linearGradient8110"
       gradientUnits="userSpaceOnUse"
       gradientTransform="scale(1.525896,0.655353)"
       x1="-15.950862"
       y1="262.63419"
       x2="-14.394111"
       y2="264.46930" />
    <pattern
       inkscape:collect="always"
       xlink:href="#pattern6922"
       id="pattern7397"
       patternTransform="translate(0.000000,140.3622)" />
    <pattern
       inkscape:collect="always"
       xlink:href="#pattern6914"
       id="pattern6922"
       patternTransform="translate(0.000000,140.3622)" />
    <pattern
       patternUnits="userSpaceOnUse"
       width="32.000000"
       height="32.000000"
       patternTransform="translate(-16.00000,140.3622)"
       id="pattern6914">
      <rect
         inkscape:export-filename="/home/adam/brick.png"
         y="140.36218"
         x="-16.000000"
         height="32.000000"
         width="32.000000"
         id="rect6916"
         style="fill:#c4c4c4;fill-opacity:1.0000000;fill-rule:evenodd;stroke:none;stroke-width:0.72500002;stroke-linecap:square;stroke-linejoin:miter;stroke-miterlimit:4.0000000;stroke-dashoffset:0.0000000;stroke-opacity:1.0000000"
         inkscape:export-xdpi="360.00000"
         inkscape:export-ydpi="360.00000"
         transform="translate(16.00000,-140.3622)" />
    </pattern>
    <linearGradient
       id="linearGradient2615">
      <stop
         style="stop-color:#eaeaea;stop-opacity:1.0000000;"
         offset="0.0000000"
         id="stop2617" />
      <stop
         style="stop-color:#dfdfdf;stop-opacity:0;"
         offset="1"
         id="stop2619" />
    </linearGradient>
    <linearGradient
       id="linearGradient2685">
      <stop
         style="stop-color:#c8c8c8;stop-opacity:1.0000000;"
         offset="0.0000000"
         id="stop2687" />
      <stop
         style="stop-color:#919191;stop-opacity:1.0000000;"
         offset="1.0000000"
         id="stop2689" />
    </linearGradient>
  </defs>
  <sodipodi:namedview
     inkscape:window-y="256"
     inkscape:window-x="293"
     inkscape:window-height="541"
     inkscape:window-width="792"
     inkscape:document-units="px"
     inkscape:grid-bbox="true"
     showgrid="true"
     inkscape:current-layer="layer1"
     inkscape:cy="15.999999"
     inkscape:cx="16"
     inkscape:zoom="11.197802"
     inkscape:pageshadow="2"
     inkscape:pageopacity="0.0"
     borderopacity="1.0"
     bordercolor="#666666"
     pagecolor="#ffffff"
     id="base" />
  <metadata
     id="metadata4">
    <rdf:RDF>
      <cc:Work
         rdf:about="">
        <dc:format>image/svg+xml</dc:format>
        <dc:type
           rdf:resource="http://purl.org/dc/dcmitype/StillImage" />
      </cc:Work>
    </rdf:RDF>
  </metadata>
  <g
     inkscape:groupmode="layer"
     inkscape:label="Layer 1"
     id="layer1">
    <g
       transform="translate(-384.7193,-92.36218)"
       id="g15633">
      <path
         transform="translate(-57.81652,11.11968)"
         d="M 464.13112,110.02318 L 452.63823,109.98880 L 444.53584,101.83778 L 444.57022,90.344891 L 452.72124,82.242501 L 464.21413,82.276885 L 472.31652,90.427901 L 472.28214,101.92080 L 464.13112,110.02318 z "
         inkscape:randomized="0.0000000"
         inkscape:rounded="0.0000000"
         inkscape:flatsided="true"
         sodipodi:arg2="1.5737881"
         sodipodi:arg1="1.1810890"
         sodipodi:r2="6.5575213"
         sodipodi:r1="15.016256"
         sodipodi:cy="96.132843"
         sodipodi:cx="458.42618"
         sodipodi:sides="8"
         id="path15655"
         style="color:#000000;fill:#ee0000;fill-opacity:1.0000000;fill-rule:nonzero;stroke:none;stroke-width:1.0000000;stroke-linecap:square;stroke-linejoin:miter;stroke-miterlimit:4.0000000;stroke-dashoffset:0.0000000;stroke-opacity:0.40659341;marker:none;marker-start:none;marker-mid:none;marker-end:none;visibility:visible;display:inline;overflow:visible"
         sodipodi:type="star" />
      <path
         transform="matrix(0.871804,0.000000,0.000000,0.871804,0.732487,23.44351)"
         d="M 464.14731,110.01290 C 462.65953,110.62835 454.13227,110.61212 452.64863,109.98756 C 451.16499,109.36300 445.12946,103.34872 444.51676,101.85931 C 443.90406,100.36990 443.96676,91.817881 444.58413,90.331764 C 445.20151,88.845646 451.20931,82.826179 452.69821,82.219644 C 454.18712,81.613109 462.70901,81.658114 464.19366,82.277318 C 465.67830,82.896522 471.73442,88.922375 472.34097,90.411710 C 472.94751,91.901045 472.89080,100.42596 472.27035,101.91153 C 471.64990,103.39711 465.63509,109.39744 464.14731,110.01290 z "
         inkscape:randomized="0.0020000000"
         inkscape:rounded="0.14000000"
         inkscape:flatsided="true"
         sodipodi:arg2="1.5737881"
         sodipodi:arg1="1.1810890"
         sodipodi:r2="6.5575213"
         sodipodi:r1="15.016256"
         sodipodi:cy="96.132843"
         sodipodi:cx="458.42618"
         sodipodi:sides="8"
         id="use15660"
         style="color:#000000;fill:#bf0000;fill-opacity:1.0000000;fill-rule:nonzero;stroke:none;stroke-width:1.0000000;stroke-linecap:square;stroke-linejoin:miter;stroke-miterlimit:4.0000000;stroke-dashoffset:0.0000000;stroke-opacity:0.40659341;marker:none;marker-start:none;marker-mid:none;marker-end:none;visibility:visible;display:inline;overflow:visible"
         sodipodi:type="star" />
      <path
         sodipodi:nodetypes="ccccccccc"
         id="path15635"
         d="M 394.00000,120.36218 C 394.33992,119.81218 397.20320,119.36218 400.36285,119.36218 C 405.54837,119.36218 406.41884,119.04114 409.30383,116.06458 C 412.05702,113.22401 412.50000,112.05411 412.50000,107.62359 C 412.50000,104.79474 412.95000,102.20210 413.50000,101.86218 C 414.12314,101.47706 414.50000,103.44906 414.50000,107.09496 C 414.50000,113.54929 415.17842,111.90997 410.21215,117.15398 C 406.09458,121.19506 407.08946,121.53896 399.65313,121.36218 C 395.72700,121.36218 393.61307,120.98824 394.00000,120.36218 z "
         style="fill:#8a0000" />
      <path
         sodipodi:nodetypes="ccccccccccccccccccccccccccccccccccccccccccccccccccccccccccccccccccccccccccccccccczscccccccccccczzcc"
         style="fill:#ffffff;fill-opacity:1.0000000"
         id="path15892"
         d="M 391.96267,111.38242 C 392.28025,111.15397 392.52917,110.84088 392.73557,110.51152 C 392.93037,110.17407 393.09733,109.80141 393.08952,109.40365 C 393.08102,108.80934 393.00400,108.21233 392.83203,107.64241 C 392.72856,107.29980 392.46570,107.04054 392.22284,106.79070 C 391.80229,106.38623 391.34165,106.01305 390.81967,105.74734 C 390.35028,105.53451 389.86796,105.25118 389.62848,104.77440 C 389.49149,104.48212 389.42304,104.13101 389.53508,103.81965 C 389.64754,103.52177 389.97429,103.38498 390.26985,103.35131 C 390.52972,103.32408 390.79683,103.31734 391.05380,103.37009 C 391.30975,103.42638 391.42030,103.68472 391.54474,103.88595 C 391.64109,104.05968 391.81648,104.18629 392.01794,104.19771 C 392.26735,104.21812 392.52419,104.23115 392.76959,104.17363 C 392.93062,104.14669 393.00692,103.97365 392.96285,103.82649 C 392.89643,103.54273 392.76118,103.27995 392.62389,103.02475 C 392.38966,102.60825 391.99553,102.28670 391.53766,102.14778 C 391.00851,101.98329 390.44228,101.98482 389.89616,102.04427 C 389.45656,102.09681 389.00396,102.26027 388.72165,102.61889 C 388.49521,102.90331 388.36261,103.24988 388.25695,103.59421 C 388.10992,104.08789 388.13370,104.62582 388.31378,105.10763 C 388.42213,105.43350 388.60083,105.74038 388.86756,105.96172 C 389.35912,106.38184 389.92553,106.70057 390.45056,107.07531 C 390.82056,107.34236 391.21377,107.60473 391.47445,107.98762 C 391.71414,108.34727 391.70953,108.79867 391.70784,109.21392 C 391.69624,109.53610 391.66217,109.89972 391.41288,110.13364 C 391.14597,110.36600 390.77199,110.38236 390.43561,110.39072 C 390.15934,110.39125 389.88306,110.39081 389.60679,110.39095 C 389.46621,110.00481 389.33934,109.61337 389.18473,109.23259 C 389.12610,109.08253 389.00479,108.94347 388.83308,108.93488 C 388.57304,108.91141 388.31012,108.91620 388.04963,108.93125 C 387.84838,108.91089 387.81835,109.12799 387.88628,109.27140 C 387.96696,109.58257 388.02637,109.89895 388.10076,110.21135 C 388.23620,110.56721 388.47363,110.87649 388.73531,111.14923 C 388.95914,111.36978 389.18906,111.63101 389.51825,111.67742 C 389.89260,111.73134 390.27261,111.71123 390.64964,111.71205 C 391.07414,111.70560 391.52391,111.67302 391.88777,111.43053 C 391.91301,111.41492 391.93796,111.39884 391.96267,111.38242 z M 397.09475,107.52328 C 397.09475,106.12621 397.09475,104.72914 397.09475,103.33207 C 397.68299,103.33207 398.27123,103.33207 398.85947,103.33207 C 398.85947,102.89089 398.85947,102.44971 398.85947,102.00853 C 397.24181,102.00853 395.62415,102.00853 394.00649,102.00853 C 394.00649,102.44971 394.00649,102.89089 394.00649,103.33207 C 394.59473,103.33207 395.18297,103.33207 395.77121,103.33207 C 395.77121,106.12621 395.77121,108.92035 395.77121,111.71449 C 396.21239,111.71449 396.65357,111.71449 397.09475,111.71449 C 397.09475,110.31742 397.09475,108.92035 397.09475,107.52328 z M 404.34355,111.23655 C 404.82144,110.82051 405.10497,110.22616 405.24523,109.61686 C 405.45045,108.73410 405.46975,107.82168 405.47712,106.91949 C 405.47299,105.99573 405.45827,105.06189 405.25705,104.15619 C 405.12194,103.54647 404.85199,102.94713 404.38245,102.52201 C 404.15101,102.30867 403.89645,102.08229 403.57031,102.04365 C 403.17558,101.99234 402.77588,102.01011 402.37886,102.01276 C 402.10802,102.01587 401.82081,102.05557 401.60382,102.23214 C 401.33413,102.44891 401.08501,102.69211 400.85335,102.94897 C 400.53090,103.30621 400.33542,103.76221 400.25515,104.23387 C 400.12303,104.98612 400.12949,105.75361 400.12042,106.51473 C 400.12428,107.39844 400.11028,108.28579 400.21132,109.16522 C 400.27304,109.69657 400.41812,110.23793 400.76095,110.66056 C 400.99789,110.95589 401.27694,111.21549 401.56435,111.46076 C 401.76287,111.63303 402.02647,111.70142 402.28456,111.70633 C 402.68098,111.71728 403.07899,111.72471 403.47456,111.69233 C 403.73619,111.67480 403.98064,111.55713 404.17445,111.38351 C 404.23195,111.33584 404.28793,111.28638 404.34355,111.23655 z M 401.94848,109.91565 C 401.54696,109.24606 401.43303,108.45160 401.38661,107.68499 C 401.34932,106.94522 401.37668,106.20304 401.43780,105.46531 C 401.47615,105.01663 401.58085,104.57055 401.78960,104.16914 C 401.91109,103.94100 402.00671,103.68543 402.20390,103.50976 C 402.39311,103.36483 402.64415,103.37441 402.87010,103.35623 C 403.08272,103.35728 403.32366,103.35233 403.50102,103.48751 C 403.73364,103.77352 403.83803,104.13870 403.93019,104.48937 C 404.15058,105.42956 404.19385,106.40290 404.16254,107.36516 C 404.12621,108.13856 404.04997,108.92159 403.79922,109.65848 C 403.72551,109.85825 403.64128,110.06011 403.50486,110.22585 C 403.32295,110.35687 403.08596,110.37507 402.86896,110.39000 C 402.61544,110.39331 402.31665,110.39709 402.13873,110.18373 C 402.06493,110.10227 402.00576,110.00906 401.94848,109.91565 z M 408.41837,109.59676 C 408.41837,108.89084 408.41837,108.18493 408.41837,107.47902 C 409.30738,107.44475 410.08678,107.51575 410.66556,107.35412 C 411.24434,107.19250 411.63556,106.80992 411.89215,106.51023 C 412.28072,106.05641 412.52330,105.47127 412.52723,104.86977 C 412.53145,104.34754 412.41304,103.82369 412.19161,103.35119 C 411.97452,102.88796 411.57005,102.52644 411.09543,102.34100 C 410.43945,102.07839 409.72259,102.03210 409.02371,102.01184 C 408.38079,102.00517 407.73779,102.01000 407.09483,102.00853 C 407.09483,105.24385 407.09483,108.47917 407.09483,111.71449 C 407.53601,111.71449 407.97719,111.71449 408.41837,111.71449 C 408.41837,111.00858 408.41837,110.30267 408.41837,109.59676 z M 408.41837,104.73509 C 408.41837,104.26742 408.41837,103.79974 408.41837,103.33207 C 408.86060,103.33601 409.30330,103.32180 409.74508,103.34503 C 410.12195,103.37174 410.53891,103.45062 410.79159,103.75887 C 410.99802,104.01868 411.10223,104.26357 411.14426,104.67215 C 411.18670,105.08470 410.98776,105.76022 410.84249,105.98462 C 410.68999,106.22019 409.21762,106.10963 408.41837,106.13811 C 408.41837,105.67044 408.41837,105.20276 408.41837,104.73509 z " />
    </g>
  </g>
</svg>
