<?xml version="1.0" encoding="UTF-8" standalone="no"?>
<!-- Created with Inkscape (http://www.inkscape.org/) -->
<svg
   xmlns:dc="http://purl.org/dc/elements/1.1/"
   xmlns:cc="http://web.resource.org/cc/"
   xmlns:rdf="http://www.w3.org/1999/02/22-rdf-syntax-ns#"
   xmlns:svg="http://www.w3.org/2000/svg"
   xmlns="http://www.w3.org/2000/svg"
   xmlns:sodipodi="http://inkscape.sourceforge.net/DTD/sodipodi-0.dtd"
   xmlns:inkscape="http://www.inkscape.org/namespaces/inkscape"
   sodipodi:docname="12.svg"
   sodipodi:docbase="/home/adam/workspace/Escape-j2se/src/org/spacebar/escape/j2se/resources/tiles"
   inkscape:version="0.43"
   sodipodi:version="0.32"
   id="svg13785"
   height="32px"
   width="32px">
  <defs
     id="defs3" />
  <sodipodi:namedview
     inkscape:window-y="136"
     inkscape:window-x="48"
     inkscape:window-height="569"
     inkscape:window-width="722"
     inkscape:document-units="px"
     inkscape:grid-bbox="true"
     showgrid="true"
     inkscape:current-layer="layer1"
     inkscape:cy="15.999997"
     inkscape:cx="16"
     inkscape:zoom="11.197802"
     inkscape:pageshadow="2"
     inkscape:pageopacity="0.0"
     borderopacity="1.0"
     bordercolor="#666666"
     pagecolor="#ffffff"
     id="base" />
  <metadata
     id="metadata4">
    <rdf:RDF>
      <cc:Work
         rdf:about="">
        <dc:format>image/svg+xml</dc:format>
        <dc:type
           rdf:resource="http://purl.org/dc/dcmitype/StillImage" />
      </cc:Work>
    </rdf:RDF>
  </metadata>
  <g
     inkscape:groupmode="layer"
     inkscape:label="Layer 1"
     id="layer1">
    <g
       id="use13758"
       transform="matrix(-1,0,0,1,161,-588.4867)">
      <path
         style="fill:#fefe56"
         d="M 135.884,608.49582 L 135.884,602.49582 L 142.884,602.49582 L 144.884,598.49582 L 152.884,605.49582 L 144.884,612.49582 L 142.884,608.49582 L 135.884,608.49582 z "
         id="path14068"
         sodipodi:nodetypes="cccccccc" />
      <path
         style="fill:#b1b1b1;fill-opacity:1"
         d="M 149.40614,611.43646 C 152.27551,608.84415 154.48101,607.69304 154.39786,605.80518 C 154.3068,603.73773 153.73689,604.30862 153.36069,605.87865 C 152.5986,609.05918 147.95239,611.36218 145.24482,613.36218 C 143.92423,613.36218 144.57564,614.37473 149.40614,611.43646 z M 143,610.36218 C 143,609.81218 141.33258,609.05282 139.13258,609.05282 C 137.08497,609.05282 135.35355,606.6744 135.35355,609.38991 C 135.35355,609.93991 137.15355,610.38991 139.35355,610.38991 C 141.55355,610.38991 143,610.91218 143,610.36218 z "
         id="path14070"
         sodipodi:nodetypes="cccccccccc" />
      <path
         style="fill:#3a3a3a"
         d="M 143,611.36218 C 143,609.69551 142.33333,609.36218 139,609.36218 C 135,609.36218 135,609.36218 135,605.36218 C 135,601.36218 135,601.36218 139,601.36218 C 142.33333,601.36218 143,601.02885 143,599.36218 C 143,597.77544 143.45979,597.114 144.95239,597.36218 C 146.445,597.61037 154.95239,604.53376 154.95239,605.36218 C 154.95239,606.1906 146.40238,613.137 144.95239,613.36218 C 143.5024,613.58736 143,612.91064 143,611.36218 z M 152.37418,605.36218 L 145,599.36218 L 145,601.36218 C 145,603.02885 144.33333,603.36218 141,603.36218 L 137,603.36218 L 137,605.36218 L 137,607.36218 L 141,607.36218 C 144.33333,607.36218 145,607.69551 145,609.36218 L 145,611.36218 L 152.37418,605.36218 z "
         id="path14072"
         sodipodi:nodetypes="cccccscscccccccccccc" />
    </g>
  </g>
</svg>
