<?xml version="1.0" encoding="UTF-8" standalone="no"?>
<!-- Created with Inkscape (http://www.inkscape.org/) -->
<svg
   xmlns:dc="http://purl.org/dc/elements/1.1/"
   xmlns:cc="http://web.resource.org/cc/"
   xmlns:rdf="http://www.w3.org/1999/02/22-rdf-syntax-ns#"
   xmlns:svg="http://www.w3.org/2000/svg"
   xmlns="http://www.w3.org/2000/svg"
   xmlns:sodipodi="http://inkscape.sourceforge.net/DTD/sodipodi-0.dtd"
   xmlns:inkscape="http://www.inkscape.org/namespaces/inkscape"
   sodipodi:docname="14.svg"
   sodipodi:docbase="/home/adam/workspace/Escape/src/org/spacebar/escape/j2se/resources/tiles"
   inkscape:version="0.41"
   sodipodi:version="0.32"
   id="svg13785"
   height="32px"
   width="32px">
  <defs
     id="defs3" />
  <sodipodi:namedview
     inkscape:window-y="363"
     inkscape:window-x="817"
     inkscape:window-height="536"
     inkscape:window-width="640"
     inkscape:document-units="px"
     inkscape:grid-bbox="true"
     showgrid="true"
     inkscape:current-layer="layer1"
     inkscape:cy="22.476755"
     inkscape:cx="16.000000"
     inkscape:zoom="11.197802"
     inkscape:pageshadow="2"
     inkscape:pageopacity="0.0"
     borderopacity="1.0"
     bordercolor="#666666"
     pagecolor="#ffffff"
     id="base" />
  <metadata
     id="metadata4">
    <rdf:RDF
       id="RDF5">
      <cc:Work
         id="Work6"
         rdf:about="">
        <dc:format
           id="format7">image/svg+xml</dc:format>
        <dc:type
           rdf:resource="http://purl.org/dc/dcmitype/StillImage"
           id="type9" />
      </cc:Work>
    </rdf:RDF>
  </metadata>
  <g
     inkscape:groupmode="layer"
     inkscape:label="Layer 1"
     id="layer1">
    <g
       transform="translate(-79.79464,-732.3622)"
       id="g14027">
      <g
         transform="translate(-11.10461,89.87755)"
         id="g13762">
        <path
           sodipodi:nodetypes="cccccccccccccccccc"
           id="path13764"
           d="M 90.899250,658.48463 L 90.899250,642.48463 L 106.89925,642.48463 L 122.89925,642.48463 L 122.89925,658.48463 L 122.89925,674.48463 L 106.89925,674.48463 L 90.899250,674.48463 L 90.899250,658.48463 z M 112.39925,662.48463 L 115.27343,659.48463 L 112.39925,656.48463 C 109.03821,652.97646 106.89925,652.72336 106.89925,655.48463 C 106.89925,657.15130 107.23258,656.48463 103.89925,656.48463 C 100.56592,656.48463 98.899250,657.81796 98.899250,659.48463 C 98.899250,661.15130 100.56592,662.48463 103.89925,662.48463 C 107.23258,662.48463 106.89925,661.81796 106.89925,663.48463 C 106.89925,666.24590 109.03821,665.99280 112.39925,662.48463 z "
           style="fill:#c2c2c2" />
        <path
           sodipodi:nodetypes="ccccccccccccccccccccccccccc"
           id="path13766"
           d="M 90.899250,658.48463 L 90.899250,642.48463 L 106.89925,642.48463 L 122.89925,642.48463 L 122.89925,658.48463 L 122.89925,674.48463 L 106.89925,674.48463 L 90.899250,674.48463 L 90.899250,658.48463 z M 94.899250,658.36218 L 94.899250,646.48463 L 106.77681,646.48463 C 116.11468,646.48463 118.92055,646.16390 119.89925,644.98463 C 120.99617,643.66293 119.40604,643.48463 106.52169,643.48463 L 91.899250,643.48463 L 91.899250,658.10707 C 91.899250,670.99142 92.077550,672.58155 93.399250,671.48463 C 94.578520,670.50592 94.899250,667.70006 94.899250,658.36218 z M 112.39925,662.48463 L 115.27343,659.48463 L 112.39925,656.48463 C 109.03821,652.97646 106.89925,652.72336 106.89925,655.48463 C 106.89925,657.15130 107.23258,656.48463 103.89925,656.48463 C 100.56592,656.48463 98.899250,657.81796 98.899250,659.48463 C 98.899250,661.15130 100.56592,662.48463 103.89925,662.48463 C 107.23258,662.48463 106.89925,661.81796 106.89925,663.48463 C 106.89925,666.24590 109.03821,665.99280 112.39925,662.48463 z "
           style="fill:#b1b1b1" />
        <path
           sodipodi:nodetypes="ccccccccccc"
           id="path13768"
           d="M 92.724940,672.17018 C 94.701270,670.06647 94.899250,668.79170 94.899250,658.17018 L 94.899250,646.48463 L 106.58480,646.48463 C 117.20632,646.48463 118.48109,646.28665 120.58480,644.31032 L 122.89925,642.63600 L 122.89925,658.31032 L 122.89925,674.48463 L 106.72494,674.48463 L 91.238120,674.48463 L 92.724940,672.17018 z "
           style="fill:#989898" />
        <path
           sodipodi:nodetypes="ccccccccc"
           id="path13770"
           d="M 92.399250,672.48463 C 94.030970,670.68160 95.479220,670.48463 107.10461,670.48463 L 120.00000,670.48463 L 119.83755,657.88242 C 119.70339,647.47478 119.95583,644.99947 121.28718,643.66813 C 122.76994,642.18537 122.89925,643.35665 122.89925,658.27034 L 122.89925,674.48463 L 106.74426,674.48463 C 90.652620,674.48463 90.596370,674.47679 92.399250,672.48463 z "
           style="fill:#676767" />
      </g>
      <g
         transform="matrix(0.000000,1.000000,1.000000,0.000000,-509.1363,604.0486)"
         id="use13772">
        <path
           sodipodi:nodetypes="cccccccc"
           id="path14186"
           d="M 135.88400,608.49582 L 135.88400,602.49582 L 142.88400,602.49582 L 144.88400,598.49582 L 152.88400,605.49582 L 144.88400,612.49582 L 142.88400,608.49582 L 135.88400,608.49582 z "
           style="fill:#fefe56" />
        <path
           sodipodi:nodetypes="cccccccccc"
           id="path14188"
           d="M 149.40614,611.43646 C 152.27551,608.84415 154.48101,607.69304 154.39786,605.80518 C 154.30680,603.73773 153.73689,604.30862 153.36069,605.87865 C 152.59860,609.05918 147.95239,611.36218 145.24482,613.36218 C 143.92423,613.36218 144.57564,614.37473 149.40614,611.43646 z M 143.00000,610.36218 C 143.00000,609.81218 141.33258,609.05282 139.13258,609.05282 C 137.08497,609.05282 135.35355,606.67440 135.35355,609.38991 C 135.35355,609.93991 137.15355,610.38991 139.35355,610.38991 C 141.55355,610.38991 143.00000,610.91218 143.00000,610.36218 z "
           style="fill:#b1b1b1;fill-opacity:1.0000000" />
        <path
           sodipodi:nodetypes="cccccscscccccccccccc"
           id="path14190"
           d="M 143.00000,611.36218 C 143.00000,609.69551 142.33333,609.36218 139.00000,609.36218 C 135.00000,609.36218 135.00000,609.36218 135.00000,605.36218 C 135.00000,601.36218 135.00000,601.36218 139.00000,601.36218 C 142.33333,601.36218 143.00000,601.02885 143.00000,599.36218 C 143.00000,597.77544 143.45979,597.11400 144.95239,597.36218 C 146.44500,597.61037 154.95239,604.53376 154.95239,605.36218 C 154.95239,606.19060 146.40238,613.13700 144.95239,613.36218 C 143.50240,613.58736 143.00000,612.91064 143.00000,611.36218 z M 152.37418,605.36218 L 145.00000,599.36218 L 145.00000,601.36218 C 145.00000,603.02885 144.33333,603.36218 141.00000,603.36218 L 137.00000,603.36218 L 137.00000,605.36218 L 137.00000,607.36218 L 141.00000,607.36218 C 144.33333,607.36218 145.00000,607.69551 145.00000,609.36218 L 145.00000,611.36218 L 152.37418,605.36218 z "
           style="fill:#3a3a3a" />
      </g>
    </g>
  </g>
</svg>
