<?xml version="1.0" encoding="UTF-8" standalone="no"?>
<!-- Created with Inkscape (http://www.inkscape.org/) -->
<svg
   xmlns:dc="http://purl.org/dc/elements/1.1/"
   xmlns:cc="http://web.resource.org/cc/"
   xmlns:rdf="http://www.w3.org/1999/02/22-rdf-syntax-ns#"
   xmlns:svg="http://www.w3.org/2000/svg"
   xmlns="http://www.w3.org/2000/svg"
   xmlns:xlink="http://www.w3.org/1999/xlink"
   xmlns:sodipodi="http://inkscape.sourceforge.net/DTD/sodipodi-0.dtd"
   xmlns:inkscape="http://www.inkscape.org/namespaces/inkscape"
   width="32px"
   height="32px"
   id="svg3133"
   sodipodi:version="0.32"
   inkscape:version="0.41"
   sodipodi:docbase="/home/adam/workspace/Escape/src/org/spacebar/escape/j2se/resources/tiles"
   sodipodi:docname="17.svg">
  <defs
     id="defs3" />
  <sodipodi:namedview
     id="base"
     pagecolor="#ffffff"
     bordercolor="#666666"
     borderopacity="1.0"
     inkscape:pageopacity="0.0"
     inkscape:pageshadow="2"
     inkscape:zoom="11.197802"
     inkscape:cx="16.000000"
     inkscape:cy="15.999999"
     inkscape:current-layer="layer1"
     showgrid="true"
     inkscape:grid-bbox="true"
     inkscape:document-units="px"
     inkscape:window-width="640"
     inkscape:window-height="536"
     inkscape:window-x="984"
     inkscape:window-y="0" />
  <metadata
     id="metadata4">
    <rdf:RDF
       id="RDF5">
      <cc:Work
         rdf:about=""
         id="Work6">
        <dc:format
           id="format7">image/svg+xml</dc:format>
        <dc:type
           id="type9"
           rdf:resource="http://purl.org/dc/dcmitype/StillImage" />
      </cc:Work>
    </rdf:RDF>
  </metadata>
  <g
     id="layer1"
     inkscape:label="Layer 1"
     inkscape:groupmode="layer">
    <g
       transform="translate(-256.0000,-28.36218)"
       id="g10428">
      <path
         id="path10458"
         d="M 260.00000,32.362183 L 284.00000,32.362183 L 284.00000,42.362183 L 260.00000,42.362183 L 260.00000,32.362183 z "
         style="fill:#fef642"
         sodipodi:nodetypes="ccccc" />
      <path
         id="path10452"
         d="M 260.00000,32.362183 L 284.00000,32.362183 L 284.00000,42.362183 L 260.00000,42.362183 L 260.00000,32.362183 z M 283.00000,37.862183 C 283.00000,35.028850 282.61905,34.362183 281.00000,34.362183 C 279.44444,34.362183 279.00000,35.028850 279.00000,37.362183 C 279.00000,39.012183 278.55000,40.362183 278.00000,40.362183 C 277.45000,40.362183 277.00000,39.462183 277.00000,38.362183 C 277.00000,37.262183 276.55000,36.362183 276.00000,36.362183 C 275.45000,36.362183 275.00000,37.262183 275.00000,38.362183 C 275.00000,39.462183 274.55000,40.362183 274.00000,40.362183 C 273.45000,40.362183 273.00000,39.012183 273.00000,37.362183 C 273.00000,35.712183 272.55000,34.362183 272.00000,34.362183 C 271.45000,34.362183 271.00000,35.712183 271.00000,37.362183 C 271.00000,40.028850 270.66667,40.362183 268.00000,40.362183 C 265.33333,40.362183 265.00000,40.028850 265.00000,37.362183 C 265.00000,35.362183 264.50000,34.362183 263.50000,34.362183 C 262.45238,34.362183 262.00000,35.417739 262.00000,37.862183 L 262.00000,41.362183 L 272.50000,41.362183 L 283.00000,41.362183 L 283.00000,37.862183 z M 269.00000,37.362183 C 269.00000,36.812183 268.55000,36.362183 268.00000,36.362183 C 267.45000,36.362183 267.00000,36.812183 267.00000,37.362183 C 267.00000,37.912183 267.45000,38.362183 268.00000,38.362183 C 268.55000,38.362183 269.00000,37.912183 269.00000,37.362183 z "
         style="fill:#e6da00"
         sodipodi:nodetypes="ccccccccccccccccccccccccccccc" />
      <path
         id="path10450"
         d="M 256.00000,44.362183 L 256.00000,28.362183 L 272.00000,28.362183 L 288.00000,28.362183 L 288.00000,44.362183 L 288.00000,60.362183 L 272.00000,60.362183 L 256.00000,60.362183 L 256.00000,44.362183 z M 283.00000,37.362183 L 283.00000,33.362183 L 272.00000,33.362183 L 261.00000,33.362183 L 261.00000,37.362183 L 261.00000,41.362183 L 272.00000,41.362183 L 283.00000,41.362183 L 283.00000,37.362183 z "
         style="fill:#8e8e8e"
         sodipodi:nodetypes="cccccccccccccccccc" />
      <path
         id="path10446"
         d="M 256.00000,59.362183 C 256.00000,58.812183 256.45000,58.362183 257.00000,58.362183 C 257.61905,58.362183 258.00000,53.028850 258.00000,44.362183 L 258.00000,30.362183 L 272.00000,30.362183 C 280.66667,30.362183 286.00000,29.981231 286.00000,29.362183 C 286.00000,28.812183 286.45000,28.362183 287.00000,28.362183 C 287.62500,28.362183 288.00000,34.362183 288.00000,44.362183 L 288.00000,60.362183 L 272.00000,60.362183 C 262.00000,60.362183 256.00000,59.987183 256.00000,59.362183 z M 284.00196,37.612183 L 284.00000,32.362183 L 261.00000,33.483264 L 261.00000,37.922723 L 261.00000,42.362183 L 272.50000,42.362183 L 284.00000,42.362183 L 284.00196,37.612183 z "
         style="fill:#676767;fill-opacity:1.0000000"
         sodipodi:nodetypes="ccccccccccccccccccc" />
      <path
         id="path10444"
         d="M 256.50000,59.362183 C 256.83992,58.812183 260.05100,58.362183 263.63574,58.362183 L 270.15345,58.362183 L 267.07673,55.773289 C 263.30262,52.597586 263.00811,48.642639 266.31445,45.536497 C 269.21897,42.807842 272.36478,42.773680 276.09563,45.430277 C 279.83028,48.089581 279.90995,51.802963 276.31291,55.557464 L 273.62582,58.362183 L 279.81291,58.362183 L 286.00000,58.362183 L 286.00000,43.921200 C 286.00000,35.372567 286.40803,29.228041 287.00000,28.862183 C 287.65081,28.459960 288.00000,33.851799 288.00000,44.303166 L 288.00000,60.362183 L 271.94098,60.362183 C 261.48962,60.362183 256.09778,60.012993 256.50000,59.362183 z M 260.18025,37.612183 L 260.00000,32.362183 L 271.75000,32.575939 L 284.00000,32.362183 L 283.00000,33.362183 L 261.10695,33.426685 L 260.73372,38.144434 L 260.36050,42.862183 L 260.18025,37.612183 z "
         style="fill:#575757;fill-opacity:1.0000000"
         sodipodi:nodetypes="ccccccccccccccccccccccccc" />
      <path
         sodipodi:nodetypes="cccccccccccccc"
         id="path10438"
         d="M 271.22474,59.614211 L 286.94947,59.311654 L 287.25203,43.586918 L 287.55172,28.426685 L 287.77729,44.112183 L 288.00000,60.362183 L 271.75000,60.139476 L 256.04165,59.862197 L 271.22474,59.614211 z M 266.45454,54.907638 C 263.33993,51.793026 263.33993,48.931340 266.45454,45.816728 C 269.56916,42.702117 272.43084,42.702117 275.54546,45.816728 C 278.66007,48.931340 278.66007,51.793026 275.54546,54.907638 C 272.43084,58.022249 269.56916,58.022249 266.45454,54.907638 z "
         style="fill:#3a3a3a" />
      <path
         sodipodi:type="arc"
         style="color:#000000;fill:#7f0000;fill-opacity:1.0000000;fill-rule:nonzero;stroke:none;stroke-width:1.8000000;stroke-linecap:square;stroke-linejoin:miter;stroke-miterlimit:4.0000000;stroke-dashoffset:0.0000000;stroke-opacity:1.0000000;marker:none;marker-start:none;marker-mid:none;marker-end:none;visibility:visible;display:inline;overflow:visible"
         id="path3344"
         sodipodi:cx="270.46835"
         sodipodi:cy="49.994125"
         sodipodi:rx="6.6733203"
         sodipodi:ry="6.6733203"
         d="M 277.14167 49.994125 A 6.6733203 6.6733203 0 1 1  263.79503,49.994125 A 6.6733203 6.6733203 0 1 1  277.14167 49.994125 z"
         transform="translate(0.206291,3.869761e-7)" />
      <path
         id="path10436"
         d="M 266.39204,54.720138 C 263.27743,51.605526 263.27743,48.743840 266.39204,45.629228 C 269.50666,42.514617 272.36834,42.514617 275.48296,45.629228 C 278.59757,48.743840 278.59757,51.605526 275.48296,54.720138 C 272.36834,57.834749 269.50666,57.834749 266.39204,54.720138 z "
         style="fill:#670000;fill-opacity:1.0000000"
         sodipodi:nodetypes="ccccc" />
      <path
         style="fill:#9b0000;fill-opacity:1.0000000"
         d="M 266.33911,45.240118 C 267.45033,43.866586 269.70905,43.547862 269.78901,43.677237 C 270.27234,44.459286 269.83614,45.073374 268.57340,44.899127 C 267.30071,44.723509 266.06709,46.917830 265.71985,47.877681 C 265.38399,48.806069 264.72400,49.011920 264.44461,48.142196 C 264.41884,47.540901 265.20614,46.640528 266.33911,45.240118 z M 273.21339,48.851792 C 273.27096,47.835448 274.16018,50.455804 273.22052,51.578775 C 272.28086,52.701746 269.32462,52.792025 270.45959,52.573874 C 271.59846,52.354973 272.40977,52.123726 273.00572,51.314554 C 273.53446,50.596627 273.15575,49.869146 273.21339,48.851792 z "
         id="path10434"
         sodipodi:nodetypes="ccczczczzsz" />
      <path
         sodipodi:nodetypes="cccccc"
         style="fill:#490000"
         d="M 268.31250,55.862183 C 267.96594,55.301440 268.93795,55.362183 270.28600,55.362183 C 273.21700,55.362183 276.00000,52.494556 276.00000,49.474425 C 276.00000,48.242218 276.07251,47.145725 276.62500,47.487183 C 278.39882,48.583464 278.06597,52.387126 275.54546,54.907638 C 273.02494,57.428149 269.40878,57.636002 268.31250,55.862183 z "
         id="path10432" />
      <path
         style="fill:#4d0000;fill-opacity:1.0000000"
         d="M 268.88388,48.040934 C 270.02188,46.957394 271.72223,47.021878 273.12194,48.311100 C 270.65218,47.763796 267.95045,48.356979 269.38578,52.157678 C 267.93086,52.091387 267.73424,49.135560 268.88388,48.040934 z "
         id="path3054"
         sodipodi:nodetypes="cccz" />
      <g
         id="g3111"
         transform="translate(-0.485421,0.000000)">
        <path
           sodipodi:type="star"
           style="color:#000000;fill:#323232;fill-opacity:1.0000000;fill-rule:nonzero;stroke:none;stroke-width:1.8000000;stroke-linecap:square;stroke-linejoin:miter;stroke-miterlimit:4.0000000;stroke-dashoffset:0.0000000;stroke-opacity:1.0000000;marker:none;marker-start:none;marker-mid:none;marker-end:none;visibility:visible;display:inline;overflow:visible"
           id="path3101"
           sodipodi:sides="6"
           sodipodi:cx="294.64932"
           sodipodi:cy="64.742584"
           sodipodi:r1="0.56911224"
           sodipodi:r2="3.7777965"
           sodipodi:arg1="0.10634939"
           sodipodi:arg2="0.62994817"
           inkscape:flatsided="true"
           inkscape:rounded="0.0000000"
           inkscape:randomized="0.0000000"
           d="M 295.21522,64.802995 L 294.87995,65.262871 L 294.31406,65.202460 L 294.08343,64.682174 L 294.41869,64.222298 L 294.98459,64.282709 L 295.21522,64.802995 z "
           transform="translate(-34.77137,-20.50659)" />
        <path
           sodipodi:type="star"
           style="color:#000000;fill:#8c8c8c;fill-opacity:1.0000000;fill-rule:nonzero;stroke:none;stroke-width:1.8000000;stroke-linecap:square;stroke-linejoin:miter;stroke-miterlimit:4.0000000;stroke-dashoffset:0.0000000;stroke-opacity:1.0000000;marker:none;marker-start:none;marker-mid:none;marker-end:none;visibility:visible;display:inline;overflow:visible"
           id="path3097"
           sodipodi:sides="6"
           sodipodi:cx="294.64932"
           sodipodi:cy="64.742584"
           sodipodi:r1="0.60063612"
           sodipodi:r2="3.7777965"
           sodipodi:arg1="-0.014876205"
           sodipodi:arg2="0.50872258"
           inkscape:flatsided="true"
           inkscape:rounded="0.0000000"
           inkscape:randomized="0.0000000"
           d="M 295.24989,64.733649 L 294.95735,65.258225 L 294.35678,65.267160 L 294.04875,64.751519 L 294.34130,64.226943 L 294.94187,64.218008 L 295.24989,64.733649 z "
           transform="translate(-34.87539,-20.64528)" />
      </g>
      <use
         x="0.0000000"
         y="0.0000000"
         xlink:href="#g3111"
         id="use3127"
         transform="translate(0.000000,11.78945)"
         width="744.09448"
         height="1052.3622" />
      <use
         x="0.0000000"
         y="0.0000000"
         xlink:href="#g3111"
         id="use3129"
         transform="translate(25.31209,0.000000)"
         width="744.09448"
         height="1052.3622" />
      <use
         x="0.0000000"
         y="0.0000000"
         xlink:href="#g3111"
         id="use3131"
         transform="translate(25.31209,11.78945)"
         width="744.09448"
         height="1052.3622" />
      <path
         sodipodi:type="arc"
         style="color:#000000;fill:none;fill-opacity:1.0000000;fill-rule:nonzero;stroke:#000000;stroke-width:1.8000000;stroke-linecap:square;stroke-linejoin:miter;stroke-miterlimit:4.0000000;stroke-dashoffset:0.0000000;stroke-opacity:1.0000000;marker:none;marker-start:none;marker-mid:none;marker-end:none;visibility:visible;display:inline;overflow:visible"
         id="path2245"
         sodipodi:cx="301.97879"
         sodipodi:cy="37.354591"
         sodipodi:rx="2.1190996"
         sodipodi:ry="2.1190996"
         d="M 304.09789 37.354591 A 2.1190996 2.1190996 0 1 1  299.85969,37.354591 A 2.1190996 2.1190996 0 1 1  304.09789 37.354591 z"
         transform="translate(-33.87914,0.107242)" />
      <path
         style="fill:#000000;fill-opacity:1.0000000;fill-rule:evenodd;stroke:none;stroke-width:1.0000000px;stroke-linecap:butt;stroke-linejoin:miter;stroke-opacity:1.0000000"
         d="M 307.00000,40.362183 L 307.00000,35.205933 C 307.00000,34.706664 307.80744,34.419628 308.38036,34.430045 C 308.95356,34.440467 308.47882,35.404595 309.25536,35.491625 C 310.00105,35.575197 309.43330,34.225088 310.82636,34.509930 C 312.27011,34.805135 313.00000,35.805057 313.00000,36.561057 L 313.00000,39.052823 C 312.89047,40.019607 312.61175,40.146701 312.28125,40.362183 L 311.12500,40.362183 L 311.09375,37.268433 C 311.08189,36.094383 308.80081,35.921357 308.78125,37.169321 L 308.75000,39.163309 C 308.69308,39.915529 308.54777,40.162390 308.24778,40.362183 L 307.00000,40.362183 z "
         id="path3026"
         sodipodi:nodetypes="czzzzsccczzccc"
         transform="translate(-34.00000,3.828125e-7)" />
    </g>
  </g>
</svg>
