<?xml version="1.0" encoding="UTF-8" standalone="no"?>
<!-- Created with Inkscape (http://www.inkscape.org/) -->
<svg
   xmlns:dc="http://purl.org/dc/elements/1.1/"
   xmlns:cc="http://web.resource.org/cc/"
   xmlns:rdf="http://www.w3.org/1999/02/22-rdf-syntax-ns#"
   xmlns:svg="http://www.w3.org/2000/svg"
   xmlns="http://www.w3.org/2000/svg"
   xmlns:sodipodi="http://inkscape.sourceforge.net/DTD/sodipodi-0.dtd"
   xmlns:inkscape="http://www.inkscape.org/namespaces/inkscape"
   width="32px"
   height="32px"
   id="svg3133"
   sodipodi:version="0.32"
   inkscape:version="0.43"
   sodipodi:docbase="/home/adam/workspace/Escape-j2se/src/org/spacebar/escape/j2se/resources/tiles"
   sodipodi:docname="17.svg">
  <defs
     id="defs3" />
  <sodipodi:namedview
     id="base"
     pagecolor="#ffffff"
     bordercolor="#666666"
     borderopacity="1.0"
     inkscape:pageopacity="0.0"
     inkscape:pageshadow="2"
     inkscape:zoom="16"
     inkscape:cx="21.827907"
     inkscape:cy="23.424246"
     inkscape:current-layer="layer1"
     showgrid="true"
     inkscape:grid-bbox="true"
     inkscape:document-units="px"
     inkscape:window-width="792"
     inkscape:window-height="541"
     inkscape:window-x="42"
     inkscape:window-y="-16"
     inkscape:grid-points="true"
     gridspacingx="0.5px"
     gridspacingy="0.5px"
     gridtolerance="1px" />
  <metadata
     id="metadata4">
    <rdf:RDF>
      <cc:Work
         rdf:about="">
        <dc:format>image/svg+xml</dc:format>
        <dc:type
           rdf:resource="http://purl.org/dc/dcmitype/StillImage" />
      </cc:Work>
    </rdf:RDF>
  </metadata>
  <g
     id="layer1"
     inkscape:label="Layer 1"
     inkscape:groupmode="layer">
    <path
       sodipodi:nodetypes="ccccc"
       style="fill:#fef642"
       d="M 5.5,5 L 27.5,5 L 27.5,13.5 L 5.5,13.5 L 5.5,5 z "
       id="path10458" />
    <path
       sodipodi:nodetypes="ccccccccccccccccccccccccccccc"
       style="fill:#e6da00"
       d="M 5,4.5 L 27.5,4.5 L 27.5,13.5 L 5.5,13.5 L 5,13 L 5,4.5 z M 27,9.500003 C 27,6.66667 26.61905,6.000003 25,6.000003 C 23.44444,6.000003 23,6.66667 23,9.000003 C 23,10.650003 22.55,12.000003 22,12.000003 C 21.45,12.000003 21,11.100003 21,10.000003 C 21,8.900003 20.55,8.000003 20,8.000003 C 19.45,8.000003 19,8.900003 19,10.000003 C 19,11.100003 18.55,12.000003 18,12.000003 C 17.45,12.000003 17,10.650003 17,9.000003 C 17,7.350003 16.55,6.000003 16,6.000003 C 15.45,6.000003 15,7.350003 15,9.000003 C 15,11.66667 14.66667,12.000003 12,12.000003 C 9.33333,12.000003 9,11.66667 9,9.000003 C 9,7.000003 8.5,6.000003 7.5,6.000003 C 6.45238,6.000003 6,7.055559 6,9.500003 L 6,13.5 L 27.5,13.5 L 27,9.500003 z M 13,9.000003 C 13,8.450003 12.55,8.000003 12,8.000003 C 11.45,8.000003 11,8.450003 11,9.000003 C 11,9.550003 11.45,10.000003 12,10.000003 C 12.55,10.000003 13,9.550003 13,9.000003 z "
       id="path10452" />
    <path
       sodipodi:nodetypes="ccccccccccccccccc"
       style="fill:#575757;fill-opacity:1"
       d="M 14.15345,30.000003 L 11.07673,27.411109 C 7.30262,24.235406 7.00811,20.280459 10.31445,17.174317 C 13.21897,14.445662 16.36478,14.4115 20.09563,17.068097 C 23.83028,19.727401 23.90995,23.440783 20.31291,27.195284 L 17.62582,30.000003 L 16,31 L 14.15345,30.000003 z M 4.18025,9.250003 L 4,4.000003 L 15.75,4.213759 L 28,4 L 27.5,5 L 5.10695,5.064505 L 4.73372,9.782254 L 4.3605,14.500003 L 4.18025,9.250003 z "
       id="path10444" />
    <path
       sodipodi:nodetypes="ccccccc"
       style="fill:#8e8e8e"
       d="M 27,5 L 28,4 L 28,14 L 5,14 L 5,13.000003 L 27,13.000003 L 27,5 z "
       id="path10450" />
    <path
       style="fill:#3a3a3a"
       d="M 10.45454,26.545458 C 7.33993,23.430846 7.33993,20.56916 10.45454,17.454548 C 13.56916,14.339937 16.43084,14.339937 19.54546,17.454548 C 22.66007,20.56916 22.66007,23.430846 19.54546,26.545458 C 16.43084,29.660069 13.56916,29.660069 10.45454,26.545458 z "
       id="path10438"
       sodipodi:nodetypes="ccccc" />
    <path
       transform="translate(-255.7937,-28.36218)"
       d="M 277.14167 49.994125 A 6.6733203 6.6733203 0 1 1  263.79503,49.994125 A 6.6733203 6.6733203 0 1 1  277.14167 49.994125 z"
       sodipodi:ry="6.6733203"
       sodipodi:rx="6.6733203"
       sodipodi:cy="49.994125"
       sodipodi:cx="270.46835"
       id="path3344"
       style="color:#000000;fill:#7f0000;fill-opacity:1;fill-rule:nonzero;stroke:none;stroke-width:1.79999995;stroke-linecap:square;stroke-linejoin:miter;marker:none;marker-start:none;marker-mid:none;marker-end:none;stroke-miterlimit:4;stroke-dashoffset:0;stroke-opacity:1;visibility:visible;display:inline;overflow:visible"
       sodipodi:type="arc" />
    <path
       sodipodi:nodetypes="ccccc"
       style="fill:#670000;fill-opacity:1"
       d="M 10.39204,26.357958 C 7.27743,23.243346 7.27743,20.38166 10.39204,17.267048 C 13.50666,14.152437 16.36834,14.152437 19.48296,17.267048 C 22.59757,20.38166 22.59757,23.243346 19.48296,26.357958 C 16.36834,29.472569 13.50666,29.472569 10.39204,26.357958 z "
       id="path10436" />
    <path
       sodipodi:nodetypes="ccczczczzsz"
       id="path10434"
       d="M 10.33911,16.877938 C 11.45033,15.504406 13.70905,15.185682 13.78901,15.315057 C 14.27234,16.097106 13.83614,16.711194 12.5734,16.536947 C 11.30071,16.361329 10.06709,18.55565 9.71985,19.515501 C 9.38399,20.443889 8.724,20.64974 8.44461,19.780016 C 8.41884,19.178721 9.20614,18.278348 10.33911,16.877938 z M 17.21339,20.489612 C 17.27096,19.473268 18.16018,22.093624 17.22052,23.216595 C 16.28086,24.339566 13.32462,24.429845 14.45959,24.211694 C 15.59846,23.992793 16.40977,23.761546 17.00572,22.952374 C 17.53446,22.234447 17.15575,21.506966 17.21339,20.489612 z "
       style="fill:#9b0000;fill-opacity:1" />
    <path
       id="path10432"
       d="M 12.3125,27.500003 C 11.96594,26.93926 12.93795,27.000003 14.286,27.000003 C 17.217,27.000003 20,24.132376 20,21.112245 C 20,19.880038 20.07251,18.783545 20.625,19.125003 C 22.39882,20.221284 22.06597,24.024946 19.54546,26.545458 C 17.02494,29.065969 13.40878,29.273822 12.3125,27.500003 z "
       style="fill:#490000"
       sodipodi:nodetypes="cccccc" />
    <path
       sodipodi:nodetypes="cccz"
       id="path3054"
       d="M 12.88388,19.678754 C 14.02188,18.595214 15.72223,18.659698 17.12194,19.94892 C 14.65218,19.401616 11.95045,19.994799 13.38578,23.795498 C 11.93086,23.729207 11.73424,20.77338 12.88388,19.678754 z "
       style="fill:#4d0000;fill-opacity:1" />
    <path
       transform="translate(-289.8791,-28.25494)"
       d="M 304.09789 37.354591 A 2.1190996 2.1190996 0 1 1  299.85969,37.354591 A 2.1190996 2.1190996 0 1 1  304.09789 37.354591 z"
       sodipodi:ry="2.1190996"
       sodipodi:rx="2.1190996"
       sodipodi:cy="37.354591"
       sodipodi:cx="301.97879"
       id="path2245"
       style="color:#000000;fill:none;fill-opacity:1;fill-rule:nonzero;stroke:#000000;stroke-width:1.79999995;stroke-linecap:square;stroke-linejoin:miter;marker:none;marker-start:none;marker-mid:none;marker-end:none;stroke-miterlimit:4;stroke-dashoffset:0;stroke-opacity:1;visibility:visible;display:inline;overflow:visible"
       sodipodi:type="arc" />
    <path
       sodipodi:nodetypes="czzzzsccczzccc"
       id="path3026"
       d="M 17,12.000003 L 17,6.843753 C 17,6.344484 17.80744,6.057448 18.38036,6.067865 C 18.95356,6.078287 18.47882,7.042415 19.25536,7.129445 C 20.00105,7.213017 19.4333,5.862908 20.82636,6.14775 C 22.27011,6.442955 23,7.442877 23,8.198877 L 23,10.690643 C 22.89047,11.657427 22.61175,11.784521 22.28125,12.000003 L 21.125,12.000003 L 21.09375,8.906253 C 21.08189,7.732203 18.80081,7.559177 18.78125,8.807141 L 18.75,10.801129 C 18.69308,11.553349 18.54777,11.80021 18.24778,12.000003 L 17,12.000003 z "
       style="fill:#000000;fill-opacity:1;fill-rule:evenodd;stroke:none;stroke-width:1px;stroke-linecap:butt;stroke-linejoin:miter;stroke-opacity:1" />
  </g>
</svg>
