<?xml version="1.0" encoding="UTF-8" standalone="no"?>
<!-- Created with Inkscape (http://www.inkscape.org/) -->
<svg
   xmlns:dc="http://purl.org/dc/elements/1.1/"
   xmlns:cc="http://web.resource.org/cc/"
   xmlns:rdf="http://www.w3.org/1999/02/22-rdf-syntax-ns#"
   xmlns:svg="http://www.w3.org/2000/svg"
   xmlns="http://www.w3.org/2000/svg"
   xmlns:sodipodi="http://inkscape.sourceforge.net/DTD/sodipodi-0.dtd"
   xmlns:inkscape="http://www.inkscape.org/namespaces/inkscape"
   sodipodi:docname="20.svg"
   sodipodi:docbase="/home/adam/workspace/Escape/src/org/spacebar/escape/j2se/resources/tiles"
   inkscape:version="0.41"
   sodipodi:version="0.32"
   id="svg8276"
   height="32px"
   width="32px">
  <defs
     id="defs3" />
  <sodipodi:namedview
     inkscape:window-y="483"
     inkscape:window-x="978"
     inkscape:window-height="536"
     inkscape:window-width="640"
     inkscape:document-units="px"
     inkscape:grid-bbox="true"
     showgrid="true"
     inkscape:current-layer="layer1"
     inkscape:cy="15.999999"
     inkscape:cx="16.000000"
     inkscape:zoom="11.197802"
     inkscape:pageshadow="2"
     inkscape:pageopacity="0.0"
     borderopacity="1.0"
     bordercolor="#666666"
     pagecolor="#ffffff"
     id="base" />
  <metadata
     id="metadata4">
    <rdf:RDF
       id="RDF5">
      <cc:Work
         id="Work6"
         rdf:about="">
        <dc:format
           id="format7">image/svg+xml</dc:format>
        <dc:type
           rdf:resource="http://purl.org/dc/dcmitype/StillImage"
           id="type9" />
      </cc:Work>
    </rdf:RDF>
  </metadata>
  <g
     inkscape:groupmode="layer"
     inkscape:label="Layer 1"
     id="layer1">
    <g
       transform="translate(-288.0000,-460.3622)"
       id="g8264">
      <g
         id="use8228"
         transform="translate(224.0000,144.0000)"
         inkscape:export-filename="/home/adam/workspace/Escape/src/org/spacebar/escape/j2se/resources/g32246.png"
         inkscape:export-xdpi="90.000000"
         inkscape:export-ydpi="90.000000">
        <rect
           style="fill:#b1b1b1;fill-opacity:1.0000000;fill-rule:evenodd;stroke:none;stroke-width:0.72500002;stroke-linecap:square;stroke-linejoin:miter;stroke-miterlimit:4.0000000;stroke-dashoffset:0.0000000;stroke-opacity:1.0000000"
           id="rect8237"
           width="24.000000"
           height="24.000000"
           x="64.000000"
           y="316.36218"
           rx="5.4090009"
           ry="3.1798909" />
        <path
           style="fill:#939393;fill-opacity:1.0000000"
           d="M 64.000000,332.36218 L 66.580728,320.88380 L 72.886969,325.51155 L 73.166439,325.03858 L 69.116060,318.71850 L 85.937500,319.23718 L 84.500000,328.73718 L 84.562500,336.48718 L 75.125000,337.29968 L 70.812500,339.61218 L 64.000000,332.36218 z "
           id="path8239"
           sodipodi:nodetypes="ccccccccccc" />
        <path
           sodipodi:nodetypes="cccccccccccccccccccccccccccccccccccccccccc"
           style="fill:#7f7f7f;fill-opacity:1.0000000"
           d="M 64.000000,332.36218 L 64.000000,316.36218 L 80.000000,316.36218 L 96.000000,316.36218 L 96.000000,332.36218 L 96.000000,348.36218 L 80.000000,348.36218 L 64.000000,348.36218 L 64.000000,332.36218 z M 85.996527,333.11218 L 85.639500,327.86218 L 85.265165,332.36218 L 84.894720,337.25690 L 80.000000,337.62735 L 75.500000,338.00168 L 80.750000,338.35871 L 86.000000,338.36218 L 85.996527,333.11218 z M 79.500000,325.31536 C 85.492920,324.76918 85.494780,324.76800 81.077720,324.31536 C 76.083760,323.80360 74.108370,321.37150 78.666670,321.34687 C 80.225000,321.33845 82.175000,320.89534 83.000000,320.36218 C 84.044140,319.68740 82.276000,319.38815 77.181910,319.37749 L 69.863810,319.36218 L 71.950010,322.29197 C 74.519440,325.90040 73.156500,327.05972 69.617540,324.27597 L 67.000000,322.21702 L 67.070285,329.53960 C 67.118464,334.55905 67.410882,336.23313 68.000000,334.86218 C 68.472690,333.76218 68.891060,331.67283 68.929710,330.21917 C 68.968370,328.76551 69.669600,327.31921 70.488000,327.00516 C 71.306410,326.69111 71.928120,326.75546 71.869580,327.14817 C 71.811050,327.54088 71.892100,330.11218 72.049690,332.86218 L 72.336220,337.86218 L 72.918110,331.86218 L 73.500000,325.86218 L 79.500000,325.31536 z M 73.000000,325.05835 C 73.000000,324.89124 72.635723,323.84060 69.823223,321.53896 L 65.500000,317.86218 L 69.176777,322.18540 C 72.384387,325.67582 73.000000,325.82197 73.000000,325.05835 z "
           id="path8241" />
        <path
           style="fill:#676767;fill-opacity:1.0000000"
           d="M 64.000000,332.36218 L 64.000000,316.36218 L 80.000000,316.36218 L 96.000000,316.36218 L 96.000000,332.36218 L 96.000000,348.36218 L 80.000000,348.36218 L 64.000000,348.36218 L 64.000000,332.36218 z M 80.287850,338.36218 L 86.000000,338.36218 L 86.000620,333.11218 L 86.001240,327.86218 L 81.000620,328.20869 L 76.000000,328.55521 L 76.000000,332.45869 C 76.000000,334.60561 75.550000,336.36218 75.000000,336.36218 C 74.450000,336.36218 74.000000,334.11218 74.000000,331.36218 L 74.000000,326.36218 L 79.797050,326.36218 C 85.242630,326.36218 85.830920,326.11966 89.500000,322.36218 L 93.405900,318.36218 L 79.702950,318.36218 L 66.000000,318.36218 L 66.000000,332.57039 L 66.000000,346.77860 L 70.287850,342.57039 C 74.315360,338.61769 74.922530,338.36218 80.287850,338.36218 z "
           id="path8243" />
        <path
           style="fill:#4b4b4b;fill-opacity:1.0000000"
           d="M 64.449953,347.09236 C 64.170908,346.36518 64.068013,339.26590 64.221299,331.31620 L 64.500000,316.86218 L 80.000000,316.86218 L 95.500000,316.86218 L 95.500000,332.36218 L 95.500000,347.86218 L 80.228650,348.13834 C 68.291920,348.35420 64.846524,348.12580 64.449953,347.09236 z M 94.000000,346.56513 C 94.000000,346.12675 92.200000,344.01042 90.000000,341.86218 C 86.275500,338.22531 86.000000,337.57099 86.000000,332.36218 C 86.000000,327.15337 86.275500,326.49905 90.000000,322.86218 C 92.200000,320.71394 94.000000,318.59761 94.000000,318.15923 C 94.000000,317.72085 87.475000,317.36218 79.500000,317.36218 L 65.000000,317.36218 L 65.000000,332.36218 L 65.000000,347.36218 L 79.500000,347.36218 C 87.475000,347.36218 94.000000,347.00351 94.000000,346.56513 z M 74.180250,331.61218 L 74.000000,326.36218 L 79.250000,326.54243 L 84.500000,326.72268 L 79.802640,327.09507 L 75.105280,327.46746 L 74.732890,332.16482 L 74.360500,336.86218 L 74.180250,331.61218 z "
           id="path8245" />
      </g>
      <g
         transform="translate(224.5000,789.6122)"
         id="g8249">
        <path
           sodipodi:nodetypes="cccccccccccccccccccccccccccccccccccccccccccccccccc"
           id="path8224"
           d="M 83.150744,-312.51905 C 82.876821,-313.19608 82.669376,-312.40002 82.689756,-310.75002 C 82.710135,-309.10002 82.934254,-308.54608 83.187798,-309.51905 C 83.441341,-310.49202 83.424667,-311.84202 83.150744,-312.51905 z M 68.494807,-313.30904 C 68.494807,-313.82658 68.044807,-314.25002 67.494807,-314.25002 C 66.944807,-314.25002 66.494807,-313.54846 66.494807,-312.69100 C 66.494807,-311.83354 66.944807,-311.41010 67.494807,-311.75002 C 68.044807,-312.08994 68.494807,-312.79150 68.494807,-313.30904 z M 84.405787,-316.98616 C 84.128374,-317.67366 83.901401,-317.11116 83.901401,-315.73616 C 83.901401,-314.36116 84.128374,-313.79866 84.405787,-314.48616 C 84.683199,-315.17366 84.683199,-316.29866 84.405787,-316.98616 z M 68.494807,-316.25002 C 68.494807,-316.80002 68.044807,-317.25002 67.494807,-317.25002 C 66.944807,-317.25002 66.494807,-316.80002 66.494807,-316.25002 C 66.494807,-315.70002 66.944807,-315.25002 67.494807,-315.25002 C 68.044807,-315.25002 68.494807,-315.70002 68.494807,-316.25002 z M 71.514863,-317.72585 C 70.819143,-318.56414 69.292518,-319.18874 68.122363,-319.11384 C 66.146686,-318.98738 66.159792,-318.94615 68.305956,-318.53627 C 69.577088,-318.29351 70.870181,-317.43539 71.179495,-316.62933 C 71.488809,-315.82327 71.975417,-315.39730 72.260847,-315.68273 C 72.546276,-315.96815 72.210583,-316.88756 71.514863,-317.72585 z M 76.494807,-320.92951 C 76.494807,-321.17493 75.707307,-321.24618 74.744807,-321.08784 C 73.782307,-320.92949 72.319807,-321.21259 71.494807,-321.71694 C 70.230359,-322.48994 70.196874,-322.38445 71.281575,-321.04521 C 72.387973,-319.67919 76.494807,-319.58804 76.494807,-320.92951 z M 67.098974,-322.97919 C 66.766682,-323.31148 66.530334,-322.72085 66.573755,-321.66669 C 66.621739,-320.50174 66.858695,-320.26479 67.177921,-321.06252 C 67.466792,-321.78439 67.431266,-322.64690 67.098974,-322.97919 z M 73.994807,-323.25002 C 73.202868,-324.53140 72.494807,-324.53140 72.494807,-323.25002 C 72.494807,-322.70002 72.971365,-322.25002 73.553824,-322.25002 C 74.136283,-322.25002 74.334726,-322.70002 73.994807,-323.25002 z M 78.494807,-324.59155 C 78.494807,-325.34781 76.758404,-325.89062 73.947900,-326.01294 C 71.065005,-326.13841 69.631940,-325.83715 70.032057,-325.18975 C 70.379142,-324.62815 71.489717,-324.43102 72.500000,-324.75167 C 73.510283,-325.07232 74.934912,-324.68786 75.665843,-323.89731 C 77.118731,-322.32591 78.494807,-322.66361 78.494807,-324.59155 z M 67.244807,-325.84503 L 64.994807,-327.75002 C 64.994807,-327.75002 68.482307,-324.79729 67.244807,-325.84503 z M 76.494807,-327.25002 C 76.494807,-327.80002 76.018249,-328.25002 75.435790,-328.25002 C 74.853331,-328.25002 74.654888,-327.80002 74.994807,-327.25002 C 75.786746,-325.96863 76.494807,-325.96863 76.494807,-327.25002 z "
           style="fill:#707070" />
        <path
           id="path8222"
           d="M 63.499996,-313.25001 L 63.499996,-329.25001 L 79.499996,-329.25001 L 95.499996,-329.25001 L 95.499996,-313.25001 L 95.499996,-297.25001 L 88.932608,-297.25001 C 82.916457,-297.25001 82.416259,-297.41082 82.973286,-299.16585 C 83.307721,-300.21957 83.113046,-301.37112 82.540673,-301.72487 C 81.923326,-302.10641 81.499996,-301.32708 81.499996,-299.80903 C 81.499996,-297.25323 81.488679,-297.25001 72.499996,-297.25001 L 63.499996,-297.25001 L 63.499996,-313.25001 z M 67.535179,-301.18427 C 66.965828,-302.24811 66.531624,-304.16061 66.570281,-305.43427 C 66.636606,-307.61955 66.688984,-307.63734 67.499996,-305.75001 C 68.234900,-304.03979 68.369609,-304.00357 68.429710,-305.50001 C 68.468367,-306.46251 69.166422,-307.25001 69.980944,-307.25001 C 71.637516,-307.25001 73.027189,-303.06624 72.139227,-300.75225 C 71.787700,-299.83618 72.135816,-299.25001 73.031380,-299.25001 C 73.839119,-299.25001 74.535522,-299.81251 74.578943,-300.50001 C 74.642101,-301.50001 74.758768,-301.50001 75.162277,-300.50001 C 75.439689,-299.81251 76.355917,-299.25001 77.198339,-299.25001 C 78.550578,-299.25001 78.559803,-299.51360 77.277077,-301.50001 C 76.322560,-302.97816 76.077326,-304.67621 76.562200,-306.44997 C 77.032961,-308.17209 76.883723,-309.35079 76.150129,-309.70456 C 75.517556,-310.00962 76.237496,-310.09454 77.749996,-309.89328 C 80.745142,-309.49473 81.462707,-311.20614 79.116779,-313.15309 C 78.050129,-314.03833 77.599586,-313.95192 77.148164,-312.77553 C 76.145516,-310.16268 74.812757,-311.10262 75.002311,-314.28892 C 75.101743,-315.96032 74.734870,-317.60485 74.187038,-317.94343 C 73.626457,-318.28989 73.502933,-318.05427 73.904504,-317.40452 C 74.946470,-315.71858 73.440069,-315.99427 71.369031,-317.86853 C 70.176559,-318.94770 68.719235,-319.27087 66.995778,-318.83831 C 64.649642,-318.24946 64.432330,-317.77695 64.642284,-313.72096 L 64.873597,-309.25236 L 67.109748,-311.35312 C 68.345573,-312.51411 69.182381,-314.30296 68.980365,-315.35194 C 68.544611,-317.61463 70.308928,-317.91150 71.150970,-315.71717 C 71.519238,-314.75748 70.385768,-312.86992 68.119585,-310.66903 C 64.465830,-307.12055 63.321620,-302.89216 65.749996,-301.91229 C 66.749996,-301.50878 66.749996,-301.39211 65.749996,-301.32896 C 63.634795,-301.19537 64.369524,-299.25001 66.535179,-299.25001 C 68.237428,-299.25001 68.401018,-299.56643 67.535179,-301.18427 z M 68.583329,-308.60933 C 68.812496,-308.80696 70.349996,-309.27063 71.999996,-309.63971 C 74.190912,-310.12978 74.595454,-310.03701 73.499996,-309.29570 C 72.149626,-308.38189 67.579843,-307.74395 68.583329,-308.60933 z M 70.968353,-303.13403 C 70.794919,-304.02282 70.590064,-305.20001 70.513121,-305.75001 C 70.436177,-306.30001 69.966062,-305.73701 69.468422,-304.49890 C 68.415553,-301.87940 69.313682,-298.33051 70.531005,-300.30019 C 70.944981,-300.97001 71.141787,-302.24524 70.968353,-303.13403 z M 81.950421,-305.81709 C 82.975945,-307.79379 83.381213,-308.00194 83.846022,-306.79066 C 84.171184,-305.94330 85.013850,-305.25690 85.718611,-305.26532 C 86.663457,-305.27661 86.692142,-305.47646 85.827830,-306.02624 C 83.954420,-307.21789 85.081080,-318.42095 87.258275,-320.25001 C 88.240299,-321.07501 90.036570,-323.15564 91.249986,-324.87363 L 93.456198,-327.99724 L 89.084625,-328.08499 C 85.403070,-328.15889 84.623576,-327.83058 84.146187,-326.00504 C 83.388832,-323.10891 84.047763,-322.65492 86.071425,-324.67858 C 86.988091,-325.59525 87.973268,-326.11007 88.260706,-325.82263 C 88.841521,-325.24182 84.471874,-321.33575 83.182608,-321.28328 C 82.733045,-321.26498 82.650870,-320.35001 82.999996,-319.25001 C 83.450471,-317.83069 83.179696,-317.25001 82.067384,-317.25001 C 80.219902,-317.25001 79.920158,-315.28663 81.749996,-315.17106 C 82.610979,-315.11668 82.644017,-314.94616 81.856154,-314.62311 C 81.227041,-314.36516 80.959623,-313.20840 81.261891,-312.05252 C 81.608896,-310.72557 81.179111,-309.48854 80.095892,-308.69647 C 79.004366,-307.89833 78.765838,-307.20374 79.440155,-306.78699 C 81.060282,-305.78570 80.700935,-304.23567 78.999996,-304.88838 C 77.173955,-305.58910 77.061785,-303.93298 78.749996,-301.19728 L 79.999996,-299.17168 L 80.323010,-301.23727 C 80.500668,-302.37335 81.233003,-304.43427 81.950421,-305.81709 z M 89.356759,-300.14032 C 90.343175,-300.76535 90.399459,-301.19411 89.562954,-301.71110 C 88.930142,-302.10220 87.757098,-301.87835 86.956191,-301.21365 C 85.930625,-300.36251 85.499996,-300.33705 85.499996,-301.12756 C 85.499996,-301.74491 85.949996,-302.25001 86.499996,-302.25001 C 87.049996,-302.25001 87.499996,-302.69497 87.499996,-303.23881 C 87.499996,-303.78265 86.426157,-304.13873 85.113687,-304.03011 C 82.863072,-303.84384 82.812748,-303.70232 84.228697,-301.54131 C 85.822551,-299.10878 87.154491,-298.74490 89.356759,-300.14032 z M 78.999996,-316.25001 C 79.339915,-316.80001 78.916472,-317.25001 78.059013,-317.25001 C 77.201554,-317.25001 76.499996,-316.80001 76.499996,-316.25001 C 76.499996,-314.95610 78.200317,-314.95610 78.999996,-316.25001 z M 79.826600,-320.78225 C 81.494967,-321.45863 83.499996,-325.02442 83.499996,-327.31511 C 83.499996,-327.82930 80.237496,-328.20395 76.249996,-328.14765 C 70.473396,-328.06609 69.670798,-327.88642 72.300742,-327.26357 C 74.116152,-326.83362 75.859408,-326.22393 76.174645,-325.90869 C 77.106292,-324.97705 69.088785,-326.42919 68.049996,-327.38025 C 65.801682,-329.43867 64.499996,-328.18119 64.499996,-323.95081 C 64.499996,-319.65488 64.502564,-319.65191 67.881884,-320.04643 C 69.741923,-320.26358 71.547991,-319.98137 71.895369,-319.41930 C 72.495437,-318.44837 75.228192,-318.91798 79.826600,-320.78225 z M 67.057294,-322.83177 C 65.990537,-323.61180 65.541245,-324.24312 66.058866,-324.23470 C 67.441123,-324.21221 70.019822,-322.43650 69.469463,-321.88614 C 69.209526,-321.62621 68.124050,-322.05174 67.057294,-322.83177 z M 71.958877,-322.31654 C 71.596343,-322.90313 71.569786,-323.65313 71.899860,-323.98321 C 72.229935,-324.31328 72.499996,-324.02802 72.499996,-323.34929 C 72.499996,-322.54867 73.290263,-322.33753 74.749996,-322.74813 C 76.511346,-323.24357 76.674229,-323.15294 75.499996,-322.33083 C 73.586620,-320.99122 72.779983,-320.98796 71.958877,-322.31654 z "
           style="fill:#4e4e4e" />
        <path
           id="path8218"
           d="M 63.680259,-302.50002 L 63.860507,-307.75002 L 64.237984,-302.92818 L 64.615461,-298.10635 L 73.060070,-298.42818 C 77.704605,-298.60519 81.503629,-298.41252 81.502345,-298.00002 C 81.501061,-297.58752 77.450011,-297.25002 72.500011,-297.25002 L 63.500011,-297.25002 L 63.680259,-302.50002 z M 82.499389,-298.00002 C 82.499047,-298.41252 84.815580,-298.58960 87.647240,-298.39353 C 92.341691,-298.06849 92.726822,-298.20077 92.014517,-299.89353 C 91.584860,-300.91460 91.300759,-302.99126 91.383183,-304.50832 C 91.504668,-306.74432 90.867170,-307.58416 88.016528,-308.94353 C 86.082444,-309.86583 84.500011,-311.23762 84.500011,-311.99194 C 84.500011,-313.09837 84.929540,-313.06257 86.722517,-311.80672 C 89.219814,-310.05755 91.950728,-309.71173 90.989930,-311.26633 C 90.644466,-311.82530 89.866436,-311.97648 89.260974,-311.60229 C 88.552589,-311.16448 88.387781,-311.51517 88.798687,-312.58597 C 89.261005,-313.79075 88.893917,-314.25002 87.468626,-314.25002 C 86.230346,-314.25002 85.529300,-314.89925 85.578958,-316.00002 C 85.626121,-317.04546 85.860975,-317.24676 86.162292,-316.50002 C 86.439704,-315.81252 87.301354,-315.25002 88.077070,-315.25002 C 89.519787,-315.25002 89.564568,-317.75267 88.162064,-320.00002 C 87.731693,-320.68964 87.834463,-321.25002 88.391304,-321.25002 C 88.946434,-321.25002 89.760491,-320.66151 90.200321,-319.94222 C 90.825415,-318.91996 91.416569,-319.06360 92.907942,-320.60015 C 94.788242,-322.53741 94.784602,-322.55770 92.656562,-322.00121 C 91.468941,-321.69064 90.749430,-321.84457 91.057648,-322.34328 C 91.365866,-322.84199 92.266487,-323.25002 93.059028,-323.25002 C 93.920759,-323.25002 94.500011,-324.23285 94.500011,-325.69498 L 94.500011,-328.13994 L 79.545466,-328.19018 L 64.590920,-328.24042 L 64.590920,-318.62401 C 64.590920,-313.33498 64.345465,-308.76214 64.045465,-308.46214 C 63.745465,-308.16214 63.500011,-312.71669 63.500011,-318.58335 L 63.500011,-329.25002 L 79.500011,-329.25002 L 95.500011,-329.25002 L 95.500011,-313.25002 L 95.500011,-297.25002 L 89.000011,-297.25002 C 85.425011,-297.25002 82.499731,-297.58752 82.499389,-298.00002 z M 94.059209,-304.70382 C 93.684250,-307.20423 92.946465,-309.25002 92.419686,-309.25002 C 91.892908,-309.25002 91.667245,-308.23752 91.918213,-307.00002 C 93.284261,-300.26417 93.648327,-299.06500 94.169150,-299.58583 C 94.483642,-299.90032 94.434169,-302.20342 94.059209,-304.70382 z M 94.316433,-317.97312 L 94.000011,-320.69622 L 92.180980,-317.90295 C 90.422271,-315.20231 90.422271,-315.02081 92.180980,-312.42985 L 94.000011,-309.75002 L 94.316433,-312.50002 C 94.490466,-314.01252 94.490466,-316.47541 94.316433,-317.97312 z M 80.500011,-303.19100 C 80.500011,-303.70854 80.944857,-304.40692 81.488557,-304.74294 C 82.055417,-305.09328 82.223064,-304.69188 81.881568,-303.80196 C 81.216777,-302.06954 80.500011,-301.75257 80.500011,-303.19100 z M 86.710584,-305.85088 C 86.001400,-306.62041 85.862342,-307.25002 86.401567,-307.25002 C 87.440008,-307.25002 88.943295,-305.34781 88.350147,-304.78435 C 88.157572,-304.60141 87.419769,-305.08135 86.710584,-305.85088 z M 80.208928,-310.75002 C 79.818316,-311.85002 79.220060,-313.42502 78.879470,-314.25002 C 78.378191,-315.46425 78.587132,-315.43914 79.976200,-314.11822 C 80.919992,-313.22073 81.518248,-311.64573 81.305658,-310.61822 C 80.941048,-308.85595 80.878860,-308.86343 80.208928,-310.75002 z "
           style="fill:#393939;fill-opacity:1.0000000" />
      </g>
    </g>
  </g>
</svg>
