<?xml version="1.0" encoding="UTF-8" standalone="no"?>
<!-- Created with Inkscape (http://www.inkscape.org/) -->
<svg
   xmlns:dc="http://purl.org/dc/elements/1.1/"
   xmlns:cc="http://web.resource.org/cc/"
   xmlns:rdf="http://www.w3.org/1999/02/22-rdf-syntax-ns#"
   xmlns:svg="http://www.w3.org/2000/svg"
   xmlns="http://www.w3.org/2000/svg"
   xmlns:sodipodi="http://inkscape.sourceforge.net/DTD/sodipodi-0.dtd"
   xmlns:inkscape="http://www.inkscape.org/namespaces/inkscape"
   sodipodi:docname="21.svg"
   sodipodi:docbase="/home/adam/workspace/Escape/src/org/spacebar/escape/j2se/resources/tiles"
   inkscape:version="0.41"
   sodipodi:version="0.32"
   id="svg2449"
   height="32px"
   width="32px">
  <defs
     id="defs3" />
  <sodipodi:namedview
     inkscape:window-y="483"
     inkscape:window-x="946"
     inkscape:window-height="536"
     inkscape:window-width="640"
     inkscape:document-units="px"
     inkscape:grid-bbox="true"
     showgrid="true"
     inkscape:current-layer="layer1"
     inkscape:cy="15.999999"
     inkscape:cx="16.000000"
     inkscape:zoom="11.197802"
     inkscape:pageshadow="2"
     inkscape:pageopacity="0.0"
     borderopacity="1.0"
     bordercolor="#666666"
     pagecolor="#ffffff"
     id="base" />
  <metadata
     id="metadata4">
    <rdf:RDF
       id="RDF5">
      <cc:Work
         id="Work6"
         rdf:about="">
        <dc:format
           id="format7">image/svg+xml</dc:format>
        <dc:type
           rdf:resource="http://purl.org/dc/dcmitype/StillImage"
           id="type9" />
      </cc:Work>
    </rdf:RDF>
  </metadata>
  <g
     inkscape:groupmode="layer"
     inkscape:label="Layer 1"
     id="layer1">
    <g
       transform="translate(-528.0000,-556.3622)"
       id="g2425">
      <path
         id="path2435"
         d="M 528.00000,572.36218 L 528.00000,556.36218 L 544.00000,556.36218 L 560.00000,556.36218 L 560.00000,572.36218 L 560.00000,588.36218 L 544.00000,588.36218 L 528.00000,588.36218 L 528.00000,572.36218 z "
         style="fill:#c2c2c2" />
      <path
         id="path2433"
         d="M 528.00000,572.36218 L 528.00000,556.36218 L 544.00000,556.36218 L 560.00000,556.36218 L 560.00000,572.36218 L 560.00000,588.36218 L 544.00000,588.36218 L 528.00000,588.36218 L 528.00000,572.36218 z M 538.00000,576.03649 C 538.00000,575.85737 536.76250,574.61987 535.25000,573.28649 L 532.50000,570.86218 L 534.92431,573.61218 C 537.19020,576.18247 538.00000,576.82077 538.00000,576.03649 z M 548.00000,573.86218 C 549.29174,572.48718 550.12363,571.36218 549.84863,571.36218 C 549.57363,571.36218 548.29174,572.48718 547.00000,573.86218 C 545.70826,575.23718 544.87637,576.36218 545.15137,576.36218 C 545.42637,576.36218 546.70826,575.23718 548.00000,573.86218 z M 543.75000,572.67285 C 542.78750,572.42133 541.21250,572.42133 540.25000,572.67285 C 539.28750,572.92438 540.07500,573.13018 542.00000,573.13018 C 543.92500,573.13018 544.71250,572.92438 543.75000,572.67285 z "
         style="fill:#979797" />
      <path
         id="path2431"
         d="M 528.00000,572.36218 L 528.00000,556.36218 L 544.00000,556.36218 L 560.00000,556.36218 L 560.00000,572.36218 L 560.00000,588.36218 L 544.00000,588.36218 L 528.00000,588.36218 L 528.00000,572.36218 z M 550.00000,574.68787 L 550.00000,571.01355 L 547.68555,573.18787 C 544.98592,575.72403 543.82536,575.98086 544.63837,573.86218 C 545.08446,572.69970 544.40236,572.36218 541.60699,572.36218 C 538.90054,572.36218 538.00000,572.78020 538.00000,574.03649 C 538.00000,575.42243 537.56941,575.30629 535.50000,573.36218 L 533.00000,571.01355 L 533.00000,574.68787 L 533.00000,578.36218 L 541.50000,578.36218 L 550.00000,578.36218 L 550.00000,574.68787 z M 538.00000,566.93787 C 538.00000,568.46013 538.71130,568.86218 541.40451,568.86218 C 543.27699,568.86218 544.60043,568.52468 544.34549,568.11218 C 544.09055,567.69968 544.18100,566.87834 544.54648,566.28697 C 544.97164,565.59904 546.07346,566.02201 547.60550,567.46129 L 550.00000,569.71081 L 550.00000,565.53649 L 550.00000,561.36218 L 541.50000,561.36218 L 533.00000,561.36218 L 533.00000,565.53649 L 533.00000,569.71081 L 535.50000,567.36218 C 537.82022,565.18244 538.00000,565.15193 538.00000,566.93787 z "
         style="fill:#727272" />
      <path
         id="path2429"
         d="M 528.00000,572.36218 L 528.00000,556.36218 L 544.00000,556.36218 L 560.00000,556.36218 L 560.00000,572.36218 L 560.00000,588.36218 L 544.00000,588.36218 L 528.00000,588.36218 L 528.00000,572.36218 z M 554.00000,570.86218 L 554.00000,559.36218 L 542.50000,559.36218 L 531.00000,559.36218 L 531.00000,570.86218 L 531.00000,582.36218 L 542.50000,582.36218 L 554.00000,582.36218 L 554.00000,570.86218 z M 535.24439,573.12929 L 532.98879,570.72134 L 535.49439,568.36745 C 537.56695,566.42039 538.00000,566.30293 538.00000,567.68787 C 538.00000,568.93470 538.89361,569.36218 541.50000,569.36218 C 544.10639,569.36218 545.00000,568.93470 545.00000,567.68787 C 545.00000,566.30293 545.43305,566.42039 547.50561,568.36745 L 550.01121,570.72134 L 547.75561,573.12929 C 545.92071,575.08812 545.43970,575.24114 545.17668,573.94971 C 544.72828,571.74809 538.27172,571.74809 537.82332,573.94971 C 537.56031,575.24114 537.07929,575.08812 535.24439,573.12929 z "
         style="fill:#555555" />
      <path
         sodipodi:nodetypes="ccccccccccccccccccccccscscccccssscc"
         id="path2427"
         d="M 528.44995,587.09236 C 528.17091,586.36517 528.06801,579.26590 528.22130,571.31619 L 528.50000,556.86218 L 544.00000,556.86218 L 559.50000,556.86218 L 559.50000,572.36218 L 559.50000,587.86218 L 544.22865,588.13834 C 532.29192,588.35420 528.84652,588.12580 528.44995,587.09236 z M 558.00000,571.86218 L 558.00000,557.36218 L 543.50000,557.36218 L 529.00000,557.36218 L 529.00000,571.86218 L 529.00000,586.36218 L 543.50000,586.36218 L 558.00000,586.36218 L 558.00000,571.86218 z M 535.24439,573.12929 L 532.98879,570.72134 L 535.49439,568.36745 C 537.56695,566.42039 538.00000,566.30293 538.00000,567.68787 C 538.00000,568.31128 537.45080,569.09945 538.00000,569.36218 C 538.54921,569.62490 540.19681,569.36218 541.50000,569.36218 C 542.80319,569.36218 544.45079,569.62490 545.00000,569.36218 C 545.54920,569.09945 545.00000,568.31128 545.00000,567.68787 C 545.00000,566.30293 545.43305,566.42039 547.50561,568.36745 L 550.01121,570.72134 L 547.75561,573.12929 C 545.92071,575.08812 545.43970,575.24114 545.17668,573.94971 C 545.06458,573.39930 545.67537,572.63738 545.00000,572.36218 C 544.32463,572.08698 542.36312,572.29850 541.50000,572.29850 C 540.63688,572.29850 538.67537,572.08698 538.00000,572.36218 C 537.32463,572.63738 537.93542,573.39931 537.82332,573.94971 C 537.56031,575.24114 537.07929,575.08812 535.24439,573.12929 z "
         style="fill:#2a2a2a" />
    </g>
  </g>
</svg>
