<?xml version="1.0" encoding="UTF-8" standalone="no"?>
<!-- Created with Inkscape (http://www.inkscape.org/) -->
<svg
   xmlns:dc="http://purl.org/dc/elements/1.1/"
   xmlns:cc="http://web.resource.org/cc/"
   xmlns:rdf="http://www.w3.org/1999/02/22-rdf-syntax-ns#"
   xmlns:svg="http://www.w3.org/2000/svg"
   xmlns="http://www.w3.org/2000/svg"
   xmlns:sodipodi="http://inkscape.sourceforge.net/DTD/sodipodi-0.dtd"
   xmlns:inkscape="http://www.inkscape.org/namespaces/inkscape"
   sodipodi:docname="21.svg"
   sodipodi:docbase="/home/adam/workspace/Escape-j2se/src/org/spacebar/escape/j2se/resources/tiles"
   inkscape:version="0.43"
   sodipodi:version="0.32"
   id="svg2449"
   height="32px"
   width="32px">
  <defs
     id="defs3" />
  <sodipodi:namedview
     inkscape:window-y="94"
     inkscape:window-x="0"
     inkscape:window-height="621"
     inkscape:window-width="1012"
     inkscape:document-units="px"
     inkscape:grid-bbox="true"
     showgrid="true"
     inkscape:current-layer="layer1"
     inkscape:cy="13.792888"
     inkscape:cx="15.010133"
     inkscape:zoom="31.672167"
     inkscape:pageshadow="2"
     inkscape:pageopacity="0.0"
     borderopacity="1.0"
     bordercolor="#666666"
     pagecolor="#ffffff"
     id="base" />
  <metadata
     id="metadata4">
    <rdf:RDF>
      <cc:Work
         rdf:about="">
        <dc:format>image/svg+xml</dc:format>
        <dc:type
           rdf:resource="http://purl.org/dc/dcmitype/StillImage" />
      </cc:Work>
    </rdf:RDF>
  </metadata>
  <g
     inkscape:groupmode="layer"
     inkscape:label="Layer 1"
     id="layer1">
    <path
       style="fill:#727272"
       d="M 22,14.65135 L 23.875368,13.910677 L 22,13.34861 L 19.6055,11.09909 C 18.07346,9.65981 16.97164,9.23684 16.54648,9.92477 C 16.181,10.51614 16.09055,11.33748 16.34549,11.74998 C 16.60043,12.16248 15.27699,12.49998 13.40451,12.49998 C 10.7113,12.49998 10,12.09793 10,10.57567 C 10,8.78973 9.82022,8.82024 7.5,10.99998 L 5,13.34861 L 2.9013739,14.044632 L 5,14.65135 L 7.5,16.99998 C 9.56941,18.94409 10,19.06023 10,17.67429 C 10,16.418 10.90054,15.99998 13.60699,15.99998 C 16.40236,15.99998 17.08446,16.3375 16.63837,17.49998 C 15.82536,19.61866 16.98592,19.36183 19.68555,16.82567 L 22,14.65135 z "
       id="path2431"
       sodipodi:nodetypes="ccccsssccccccssscc" />
    <path
       style="fill:#555555"
       d="M 7.24439,16.76709 L 4.98879,14.35914 L 7.49439,12.00525 C 9.56695,10.05819 10,9.94073 10,11.32567 C 10,12.5725 10.89361,12.99998 13.5,12.99998 C 16.10639,12.99998 17,12.5725 17,11.32567 C 17,9.94073 17.43305,10.05819 19.50561,12.00525 L 22.01121,14.35914 L 19.75561,16.76709 C 17.92071,18.72592 17.4397,18.87894 17.17668,17.58751 C 16.72828,15.38589 10.27172,15.38589 9.82332,17.58751 C 9.56031,18.87894 9.07929,18.72592 7.24439,16.76709 z "
       id="path2429"
       sodipodi:nodetypes="cccssscccssc" />
    <path
       style="fill:#2a2a2a"
       d="M 7.24439,16.76709 L 4.98879,14.35914 L 7.49439,12.00525 C 9.56695,10.05819 10,9.94073 10,11.32567 C 10,11.94908 9.4508,12.73725 10,12.99998 C 10.54921,13.2627 12.19681,12.99998 13.5,12.99998 C 14.80319,12.99998 16.45079,13.2627 17,12.99998 C 17.5492,12.73725 17,11.94908 17,11.32567 C 17,9.94073 17.43305,10.05819 19.50561,12.00525 L 22.01121,14.35914 L 19.75561,16.76709 C 17.92071,18.72592 17.4397,18.87894 17.17668,17.58751 C 17.06458,17.0371 17.67537,16.27518 17,15.99998 C 16.32463,15.72478 14.36312,15.9363 13.5,15.9363 C 12.63688,15.9363 10.67537,15.72478 10,15.99998 C 9.32463,16.27518 9.93542,17.03711 9.82332,17.58751 C 9.56031,18.87894 9.07929,18.72592 7.24439,16.76709 z "
       id="path2427"
       sodipodi:nodetypes="ccccscscccccssscc" />
    <path
       style="fill:#c2c2c2;fill-opacity:1"
       d="M 10,19.67429 C 10,19.49517 8.7625,18.25767 7.25,16.92429 L 5.384057,15.352464 L 6.92431,17.24998 C 9.1902,19.82027 10,20.45857 10,19.67429 z M 20,17.49998 C 21.29174,16.12498 22.12363,14.99998 21.84863,14.99998 C 21.57363,14.99998 20.29174,16.12498 19,17.49998 C 17.70826,18.87498 16.87637,19.99998 17.15137,19.99998 C 17.42637,19.99998 18.70826,18.87498 20,17.49998 z M 15.75,16.31065 C 14.7875,16.05913 13.2125,16.05913 12.25,16.31065 C 11.2875,16.56218 12.075,16.76798 14,16.76798 C 15.925,16.76798 16.7125,16.56218 15.75,16.31065 z "
       id="path2433"
       sodipodi:nodetypes="ccccccsssccssc" />
  </g>
</svg>
