<?xml version="1.0" encoding="UTF-8" standalone="no"?>
<!-- Created with Inkscape (http://www.inkscape.org/) -->
<svg
   xmlns:dc="http://purl.org/dc/elements/1.1/"
   xmlns:cc="http://web.resource.org/cc/"
   xmlns:rdf="http://www.w3.org/1999/02/22-rdf-syntax-ns#"
   xmlns:svg="http://www.w3.org/2000/svg"
   xmlns="http://www.w3.org/2000/svg"
   xmlns:sodipodi="http://inkscape.sourceforge.net/DTD/sodipodi-0.dtd"
   xmlns:inkscape="http://www.inkscape.org/namespaces/inkscape"
   width="32px"
   height="32px"
   id="svg2511"
   sodipodi:version="0.32"
   inkscape:version="0.43"
   sodipodi:docbase="/home/adam/workspace/Escape-j2se/src/org/spacebar/escape/j2se/resources/tiles"
   sodipodi:docname="22.svg">
  <defs
     id="defs3" />
  <sodipodi:namedview
     id="base"
     pagecolor="#ffffff"
     bordercolor="#666666"
     borderopacity="1.0"
     inkscape:pageopacity="0.0"
     inkscape:pageshadow="2"
     inkscape:zoom="11.197802"
     inkscape:cx="18.820782"
     inkscape:cy="20.083288"
     inkscape:current-layer="layer1"
     showgrid="true"
     inkscape:grid-bbox="true"
     inkscape:document-units="px"
     inkscape:window-width="722"
     inkscape:window-height="569"
     inkscape:window-x="-7"
     inkscape:window-y="84" />
  <metadata
     id="metadata4">
    <rdf:RDF>
      <cc:Work
         rdf:about="">
        <dc:format>image/svg+xml</dc:format>
        <dc:type
           rdf:resource="http://purl.org/dc/dcmitype/StillImage" />
      </cc:Work>
    </rdf:RDF>
  </metadata>
  <g
     id="layer1"
     inkscape:label="Layer 1"
     inkscape:groupmode="layer">
    <g
       transform="translate(-527.0000,-604.3622)"
       id="g2437">
      <path
         sodipodi:nodetypes="cccccccccccsz"
         id="path2445"
         d="M 540,626.01717 C 540,625.82741 538.9875,624.81491 537.75,623.76717 L 535.5,621.86218 L 537.40499,624.11218 C 539.19521,626.22663 540,626.81742 540,626.01717 z M 543.87578,624.0025 C 546.54924,621.04836 545.74777,620.93731 542.9963,623.86612 C 541.70659,625.23895 541.11007,626.36218 541.6707,626.36218 C 542.23133,626.36218 542.87724,625.10587 543.87578,624.0025 z M 542.576,616.21176 C 542.18806,615.37582 542.40658,616.28651 542.40658,618.42532 C 542.40658,620.07532 542.31816,620.63082 542.77899,620.3306 C 543.36056,619.95172 542.95184,617.02163 542.576,616.21176 z "
         style="fill:#c2c2c2;fill-opacity:1" />
      <path
         id="path2443"
         d="M 540.65137,626.36218 L 540.5,626.29898 L 537.69424,623.83058 C 535.40872,621.81987 535.2233,621.36218 536.69424,621.36218 C 538.08165,621.36218 538.5,620.57344 538.5,617.95767 C 538.5,616.08519 538.1625,614.76175 537.75,615.01669 C 537.3375,615.27163 536.51616,615.18118 535.92479,614.8157 C 535.23686,614.39054 535.65983,613.28872 537.09911,611.75668 L 539.34863,609.36218 L 540,607.34148 L 540.65137,609.36218 L 543,611.86218 C 544.94411,613.93159 545.06025,614.36218 543.67431,614.36218 C 542.42748,614.36218 542,615.25579 542,617.86218 C 542,620.46857 542.42748,621.36218 543.67431,621.36218 C 545.06025,621.36218 544.94411,621.79277 543,623.86218 L 540.65137,626.36218 z "
         style="fill:#727272"
         sodipodi:nodetypes="cccsssscccccssscc" />
      <path
         id="path2441"
         d="M 538.00527,623.86779 C 536.0582,621.79523 535.94075,621.36218 537.32569,621.36218 C 538.57252,621.36218 539,620.46857 539,617.86218 C 539,615.25579 538.57252,614.36218 537.32569,614.36218 C 535.94075,614.36218 536.0582,613.92913 538.00527,611.85657 L 540.35916,609.35097 L 542.76711,611.60657 C 544.72594,613.44147 544.87896,613.92249 543.58753,614.1855 C 541.38591,614.6339 541.38591,621.09046 543.58753,621.53886 C 544.87896,621.80187 544.72594,622.28289 542.76711,624.11779 L 540.35916,626.37339 L 538.00527,623.86779 z "
         style="fill:#555555"
         sodipodi:nodetypes="cssscccssccc" />
      <path
         sodipodi:nodetypes="ccscscccccssscccc"
         id="path2439"
         d="M 538.00527,623.86779 C 536.0582,621.79523 535.94075,621.36218 537.32569,621.36218 C 537.94911,621.36218 538.73728,621.91138 539,621.36218 C 539.26272,620.81298 539,619.16538 539,617.86218 C 539,616.55899 539.26272,614.91138 539,614.36218 C 538.73728,613.81298 537.94911,614.36218 537.32569,614.36218 C 535.94075,614.36218 536.0582,613.92913 538.00527,611.85657 L 540.35916,609.35097 L 542.76711,611.60657 C 544.72594,613.44147 544.87896,613.92249 543.58753,614.1855 C 543.03713,614.2976 542.2752,613.68682 542,614.36218 C 541.7248,615.03755 541.93631,616.99906 541.93631,617.86218 C 541.93631,618.7253 541.7248,620.68682 542,621.36218 C 542.2752,622.03755 543.03713,621.42676 543.58753,621.53886 C 544.87896,621.80187 544.72594,622.28289 542.76711,624.11779 L 540.35916,626.37339 L 538.00527,623.86779 z "
         style="fill:#2a2a2a" />
    </g>
    <g
       id="g1399"
       transform="translate(-527.0000,-604.3622)">
      <path
         style="fill:#c2c2c2;fill-opacity:1"
         d="M 543.26324,611.29894 L 541.03675,609.58837 L 542.92431,611.61218 C 544.92817,613.88524 545.12949,612.94467 543.26324,611.29894 z "
         id="path1401"
         sodipodi:nodetypes="cccc" />
      <path
         sodipodi:nodetypes="cccsssscccccssscc"
         style="fill:#727272"
         d="M 540.65137,626.36218 L 540.5,626.29898 L 537.69424,623.83058 C 535.40872,621.81987 535.2233,621.36218 536.69424,621.36218 C 538.08165,621.36218 538.5,620.57344 538.5,617.95767 C 538.5,616.08519 538.1625,614.76175 537.75,615.01669 C 537.3375,615.27163 536.51616,615.18118 535.92479,614.8157 C 535.23686,614.39054 535.65983,613.28872 537.09911,611.75668 L 539.34863,609.36218 L 540,607.34148 L 540.65137,609.36218 L 543,611.86218 C 544.94411,613.93159 545.06025,614.36218 543.67431,614.36218 C 542.42748,614.36218 542,615.25579 542,617.86218 C 542,620.46857 542.42748,621.36218 543.67431,621.36218 C 545.06025,621.36218 544.94411,621.79277 543,623.86218 L 540.65137,626.36218 z "
         id="path1403" />
      <path
         sodipodi:nodetypes="cssscccssccc"
         style="fill:#555555"
         d="M 538.00527,623.86779 C 536.0582,621.79523 535.94075,621.36218 537.32569,621.36218 C 538.57252,621.36218 539,620.46857 539,617.86218 C 539,615.25579 538.57252,614.36218 537.32569,614.36218 C 535.94075,614.36218 536.0582,613.92913 538.00527,611.85657 L 540.35916,609.35097 L 542.76711,611.60657 C 544.72594,613.44147 544.87896,613.92249 543.58753,614.1855 C 541.38591,614.6339 541.38591,621.09046 543.58753,621.53886 C 544.87896,621.80187 544.72594,622.28289 542.76711,624.11779 L 540.35916,626.37339 L 538.00527,623.86779 z "
         id="path1405" />
      <path
         style="fill:#2a2a2a"
         d="M 538.00527,623.86779 C 536.0582,621.79523 535.94075,621.36218 537.32569,621.36218 C 537.94911,621.36218 538.73728,621.91138 539,621.36218 C 539.26272,620.81298 539,619.16538 539,617.86218 C 539,616.55899 539.26272,614.91138 539,614.36218 C 538.73728,613.81298 537.94911,614.36218 537.32569,614.36218 C 535.94075,614.36218 536.0582,613.92913 538.00527,611.85657 L 540.35916,609.35097 L 542.76711,611.60657 C 544.72594,613.44147 544.87896,613.92249 543.58753,614.1855 C 543.03713,614.2976 542.2752,613.68682 542,614.36218 C 541.7248,615.03755 541.93631,616.99906 541.93631,617.86218 C 541.93631,618.7253 541.7248,620.68682 542,621.36218 C 542.2752,622.03755 543.03713,621.42676 543.58753,621.53886 C 544.87896,621.80187 544.72594,622.28289 542.76711,624.11779 L 540.35916,626.37339 L 538.00527,623.86779 z "
         id="path1407"
         sodipodi:nodetypes="ccscscccccssscccc" />
    </g>
  </g>
</svg>
