<?xml version="1.0" encoding="UTF-8" standalone="no"?>
<!-- Created with Inkscape (http://www.inkscape.org/) -->
<svg
   xmlns:dc="http://purl.org/dc/elements/1.1/"
   xmlns:cc="http://web.resource.org/cc/"
   xmlns:rdf="http://www.w3.org/1999/02/22-rdf-syntax-ns#"
   xmlns:svg="http://www.w3.org/2000/svg"
   xmlns="http://www.w3.org/2000/svg"
   xmlns:sodipodi="http://inkscape.sourceforge.net/DTD/sodipodi-0.dtd"
   xmlns:inkscape="http://www.inkscape.org/namespaces/inkscape"
   width="32px"
   height="32px"
   id="svg2511"
   sodipodi:version="0.32"
   inkscape:version="0.41"
   sodipodi:docbase="/home/adam/workspace/Escape/src/org/spacebar/escape/j2se/resources/tiles"
   sodipodi:docname="22.svg">
  <defs
     id="defs3" />
  <sodipodi:namedview
     id="base"
     pagecolor="#ffffff"
     bordercolor="#666666"
     borderopacity="1.0"
     inkscape:pageopacity="0.0"
     inkscape:pageshadow="2"
     inkscape:zoom="11.197802"
     inkscape:cx="16.000000"
     inkscape:cy="15.999999"
     inkscape:current-layer="layer1"
     showgrid="true"
     inkscape:grid-bbox="true"
     inkscape:document-units="px"
     inkscape:window-width="640"
     inkscape:window-height="536"
     inkscape:window-x="946"
     inkscape:window-y="483" />
  <metadata
     id="metadata4">
    <rdf:RDF
       id="RDF5">
      <cc:Work
         rdf:about=""
         id="Work6">
        <dc:format
           id="format7">image/svg+xml</dc:format>
        <dc:type
           id="type9"
           rdf:resource="http://purl.org/dc/dcmitype/StillImage" />
      </cc:Work>
    </rdf:RDF>
  </metadata>
  <g
     id="layer1"
     inkscape:label="Layer 1"
     inkscape:groupmode="layer">
    <g
       transform="translate(-527.0000,-604.3622)"
       id="g2437">
      <path
         id="path2447"
         d="M 527.00000,620.36218 L 527.00000,604.36218 L 543.00000,604.36218 L 559.00000,604.36218 L 559.00000,620.36218 L 559.00000,636.36218 L 543.00000,636.36218 L 527.00000,636.36218 L 527.00000,620.36218 z "
         style="fill:#c2c2c2;fill-opacity:1.0000000" />
      <path
         sodipodi:nodetypes="ccccccccccccccccccccccccz"
         id="path2445"
         d="M 527.00000,620.36218 L 527.00000,604.36218 L 543.00000,604.36218 L 559.00000,604.36218 L 559.00000,620.36218 L 559.00000,636.36218 L 543.00000,636.36218 L 527.00000,636.36218 L 527.00000,620.36218 z M 540.00000,626.01717 C 540.00000,625.82741 538.98750,624.81491 537.75000,623.76717 L 535.50000,621.86218 L 537.40499,624.11218 C 539.19521,626.22663 540.00000,626.81742 540.00000,626.01717 z M 543.87578,624.00250 C 546.54924,621.04836 545.74777,620.93731 542.99630,623.86612 C 541.70659,625.23895 541.11007,626.36218 541.67070,626.36218 C 542.23133,626.36218 542.87724,625.10587 543.87578,624.00250 z M 542.82858,615.66894 C 542.42233,614.77894 545.12949,612.94467 543.26324,611.29894 L 540.50000,608.86218 L 542.92431,611.61218 C 544.92817,613.88524 542.37500,616.22337 542.37500,618.36218 C 542.37500,620.01218 542.45000,620.36218 543.00000,620.36218 C 543.55000,620.36218 543.29914,616.69983 542.82858,615.66894 z "
         style="fill:#979797" />
      <path
         id="path2443"
         d="M 527.00000,620.36218 L 527.00000,604.36218 L 543.00000,604.36218 L 559.00000,604.36218 L 559.00000,620.36218 L 559.00000,636.36218 L 543.00000,636.36218 L 527.00000,636.36218 L 527.00000,620.36218 z M 537.69424,623.83058 C 535.40872,621.81987 535.22330,621.36218 536.69424,621.36218 C 538.08165,621.36218 538.50000,620.57344 538.50000,617.95767 C 538.50000,616.08519 538.16250,614.76175 537.75000,615.01669 C 537.33750,615.27163 536.51616,615.18118 535.92479,614.81570 C 535.23686,614.39054 535.65983,613.28872 537.09911,611.75668 L 539.34863,609.36218 L 535.67431,609.36218 L 532.00000,609.36218 L 532.00000,617.86218 L 532.00000,626.36218 L 536.25000,626.33058 L 540.50000,626.29898 L 537.69424,623.83058 z M 549.00000,617.86218 L 549.00000,609.36218 L 544.82569,609.36218 L 540.65137,609.36218 L 543.00000,611.86218 C 544.94411,613.93159 545.06025,614.36218 543.67431,614.36218 C 542.42748,614.36218 542.00000,615.25579 542.00000,617.86218 C 542.00000,620.46857 542.42748,621.36218 543.67431,621.36218 C 545.06025,621.36218 544.94411,621.79277 543.00000,623.86218 L 540.65137,626.36218 L 544.82569,626.36218 L 549.00000,626.36218 L 549.00000,617.86218 z "
         style="fill:#727272" />
      <path
         id="path2441"
         d="M 527.00000,620.36218 L 527.00000,604.36218 L 543.00000,604.36218 L 559.00000,604.36218 L 559.00000,620.36218 L 559.00000,636.36218 L 543.00000,636.36218 L 527.00000,636.36218 L 527.00000,620.36218 z M 553.00000,618.86218 L 553.00000,607.36218 L 541.50000,607.36218 L 530.00000,607.36218 L 530.00000,618.86218 L 530.00000,630.36218 L 541.50000,630.36218 L 553.00000,630.36218 L 553.00000,618.86218 z M 538.00527,623.86779 C 536.05820,621.79523 535.94075,621.36218 537.32569,621.36218 C 538.57252,621.36218 539.00000,620.46857 539.00000,617.86218 C 539.00000,615.25579 538.57252,614.36218 537.32569,614.36218 C 535.94075,614.36218 536.05820,613.92913 538.00527,611.85657 L 540.35916,609.35097 L 542.76711,611.60657 C 544.72594,613.44147 544.87896,613.92249 543.58753,614.18550 C 541.38591,614.63390 541.38591,621.09046 543.58753,621.53886 C 544.87896,621.80187 544.72594,622.28289 542.76711,624.11779 L 540.35916,626.37339 L 538.00527,623.86779 z "
         style="fill:#555555" />
      <path
         sodipodi:nodetypes="ccccccccccccccccccccscscccccssscccc"
         id="path2439"
         d="M 527.44995,635.09236 C 527.17091,634.36517 527.06801,627.26590 527.22130,619.31619 L 527.50000,604.86218 L 543.00000,604.86218 L 558.50000,604.86218 L 558.50000,620.36218 L 558.50000,635.86218 L 543.22865,636.13834 C 531.29192,636.35420 527.84652,636.12580 527.44995,635.09236 z M 557.00000,619.86218 L 557.00000,605.36218 L 542.50000,605.36218 L 528.00000,605.36218 L 528.00000,619.86218 L 528.00000,634.36218 L 542.50000,634.36218 L 557.00000,634.36218 L 557.00000,619.86218 z M 538.00527,623.86779 C 536.05820,621.79523 535.94075,621.36218 537.32569,621.36218 C 537.94911,621.36218 538.73728,621.91138 539.00000,621.36218 C 539.26272,620.81298 539.00000,619.16538 539.00000,617.86218 C 539.00000,616.55899 539.26272,614.91138 539.00000,614.36218 C 538.73728,613.81298 537.94911,614.36218 537.32569,614.36218 C 535.94075,614.36218 536.05820,613.92913 538.00527,611.85657 L 540.35916,609.35097 L 542.76711,611.60657 C 544.72594,613.44147 544.87896,613.92249 543.58753,614.18550 C 543.03713,614.29760 542.27520,613.68682 542.00000,614.36218 C 541.72480,615.03755 541.93631,616.99906 541.93631,617.86218 C 541.93631,618.72530 541.72480,620.68682 542.00000,621.36218 C 542.27520,622.03755 543.03713,621.42676 543.58753,621.53886 C 544.87896,621.80187 544.72594,622.28289 542.76711,624.11779 L 540.35916,626.37339 L 538.00527,623.86779 z "
         style="fill:#2a2a2a" />
    </g>
  </g>
</svg>
