<?xml version="1.0" encoding="UTF-8" standalone="no"?>
<!-- Created with Inkscape (http://www.inkscape.org/) -->
<svg
   xmlns:dc="http://purl.org/dc/elements/1.1/"
   xmlns:cc="http://web.resource.org/cc/"
   xmlns:rdf="http://www.w3.org/1999/02/22-rdf-syntax-ns#"
   xmlns:svg="http://www.w3.org/2000/svg"
   xmlns="http://www.w3.org/2000/svg"
   xmlns:sodipodi="http://inkscape.sourceforge.net/DTD/sodipodi-0.dtd"
   xmlns:inkscape="http://www.inkscape.org/namespaces/inkscape"
   sodipodi:docname="23.svg"
   sodipodi:docbase="/home/adam/workspace/Escape-j2se/src/org/spacebar/escape/j2se/resources/tiles"
   inkscape:version="0.43"
   sodipodi:version="0.32"
   id="svg10336"
   height="32px"
   width="32px">
  <defs
     id="defs3" />
  <sodipodi:namedview
     inkscape:window-y="70"
     inkscape:window-x="165"
     inkscape:window-height="569"
     inkscape:window-width="722"
     inkscape:document-units="px"
     inkscape:grid-bbox="true"
     showgrid="true"
     inkscape:current-layer="layer1"
     inkscape:cy="15.999999"
     inkscape:cx="16"
     inkscape:zoom="11.197802"
     inkscape:pageshadow="2"
     inkscape:pageopacity="0.0"
     borderopacity="1.0"
     bordercolor="#666666"
     pagecolor="#ffffff"
     id="base" />
  <metadata
     id="metadata4">
    <rdf:RDF>
      <cc:Work
         rdf:about="">
        <dc:format>image/svg+xml</dc:format>
        <dc:type
           rdf:resource="http://purl.org/dc/dcmitype/StillImage" />
      </cc:Work>
    </rdf:RDF>
  </metadata>
  <g
     inkscape:groupmode="layer"
     inkscape:label="Layer 1"
     id="layer1">
    <path
       style="fill:#074f00;fill-opacity:1;fill-rule:evenodd;stroke:none;stroke-width:1px;stroke-linecap:butt;stroke-linejoin:miter;stroke-opacity:1"
       d="M 13,9.999983 L 17,9.999983 L 17,19.999983 L 19,19.999983 L 19,21.999983 L 13,21.999983 L 13,19.999983 L 15,19.999983 L 15,11.999983 L 13,11.999983 L 13,9.999983 z "
       id="path10316"
       sodipodi:nodetypes="ccccccccccc" />
    <path
       style="fill:#077f00;fill-opacity:1;fill-rule:evenodd;stroke:none;stroke-width:1px;stroke-linecap:butt;stroke-linejoin:miter;stroke-opacity:1"
       d="M 11,11.999986 L 13,11.999986 L 13,19.999983 L 11,19.999983 L 11,11.999986 z M 13,9.999986 L 19,9.999986 L 19,11.999986 L 13,11.999986 L 13,9.999986 z M 21,11.999986 L 21,19.999983 L 19,19.999983 L 19,11.999986 L 21,11.999986 z M 13,21.999983 L 19,21.999983 L 19,19.999983 L 13,19.999983 L 13,21.999983 z "
       id="path10306"
       sodipodi:nodetypes="cccccccccccccccccccc" />
  </g>
</svg>
