<?xml version="1.0" encoding="UTF-8" standalone="no"?>
<!-- Created with Inkscape (http://www.inkscape.org/) -->
<svg
   xmlns:dc="http://purl.org/dc/elements/1.1/"
   xmlns:cc="http://web.resource.org/cc/"
   xmlns:rdf="http://www.w3.org/1999/02/22-rdf-syntax-ns#"
   xmlns:svg="http://www.w3.org/2000/svg"
   xmlns="http://www.w3.org/2000/svg"
   xmlns:sodipodi="http://inkscape.sourceforge.net/DTD/sodipodi-0.dtd"
   xmlns:inkscape="http://www.inkscape.org/namespaces/inkscape"
   sodipodi:docname="25.svg"
   sodipodi:docbase="/home/adam/workspace/Escape-j2se/src/org/spacebar/escape/j2se/resources/tiles"
   inkscape:version="0.43"
   sodipodi:version="0.32"
   id="svg15582"
   height="32px"
   width="32px">
  <defs
     id="defs3" />
  <sodipodi:namedview
     inkscape:window-y="46"
     inkscape:window-x="29"
     inkscape:window-height="569"
     inkscape:window-width="722"
     inkscape:document-units="px"
     inkscape:grid-bbox="true"
     showgrid="true"
     inkscape:current-layer="layer1"
     inkscape:cy="10.122026"
     inkscape:cx="10.30179"
     inkscape:zoom="5.598901"
     inkscape:pageshadow="2"
     inkscape:pageopacity="0.0"
     borderopacity="1.0"
     bordercolor="#666666"
     pagecolor="#ffffff"
     id="base" />
  <metadata
     id="metadata4">
    <rdf:RDF>
      <cc:Work
         rdf:about="">
        <dc:format>image/svg+xml</dc:format>
        <dc:type
           rdf:resource="http://purl.org/dc/dcmitype/StillImage" />
      </cc:Work>
    </rdf:RDF>
  </metadata>
  <g
     inkscape:groupmode="layer"
     inkscape:label="Layer 1"
     id="layer1">
    <path
       style="fill:#7a7a7a;fill-opacity:1"
       d="M 0.22461,16.24998 L 0.5,0.49998 L 16.25,0.22459 L 32,-2e-05 L 32,15.97459 L 32,31.99998 L 15.97461,31.99998 L 0,31.99998 L 0.22461,16.24998 z M 4,3.62242 C 4,3.41477 3.2125,2.62727 2.25,1.87242 C 0.66394,0.62855 0.62857,0.66392 1.87244,2.24998 C 3.17881,3.91573 4,4.44546 4,3.62242 z "
       id="path8876"
       sodipodi:nodetypes="ccccccccccccc" />
    <path
       style="fill:#686868;fill-opacity:1"
       d="M 1.31257,30.20709 C 2.58918,28.79645 2.99534,25.75828 3.21756,15.95709 L 3.5,3.49998 L 7,3.1701 C 8.925,2.98866 10.85986,2.20116 11.29969,1.4201 C 12.18398,-0.10122 19.60366,-0.47524 20.36163,1.49998 C 21.15212,3.55996 27.84051,3.45429 30.17126,1.34499 C 31.93574,-0.25184 32,0.25764 32,15.84499 L 32,31.99998 L 15.84501,31.99998 C 0.37542,31.99998 -0.24114,31.92391 1.31257,30.20709 z "
       id="path8874"
       sodipodi:nodetypes="ccccccccccc" />
    <path
       style="fill:#575757;fill-opacity:1"
       d="M 1.79085,29.72261 C 3.6781,27.71372 3.96391,26.09268 4.21517,15.97261 L 4.5,4.49998 L 7.25038,4.18352 C 8.7631,4.00947 10.46643,2.99697 11.03557,1.93352 C 11.7901,0.52366 13.13903,0.13393486 16.01613,0.13393486 C 20.8732,0.13393486 20.91308,0.12853 21.28902,16.99998 L 21.56756,29.49998 L 21.78378,16.74998 L 22,3.99998 L 24.68555,3.99998 C 26.1626,3.99998 28.4126,3.02154 29.68555,1.82567 L 32,-2e-05 L 32,15.82567 L 32,31.99998 L 15.82569,31.99998 L 0,31.99998 L 1.79085,29.72261 z "
       id="path8872"
       sodipodi:nodetypes="cccccccccccccccccc" />
    <path
       style="fill:#454545;fill-opacity:1"
       d="M 2,30.49998 C 2.7149,29.63857 4.89568,28.99998 7.12244,28.99998 L 11,28.99998 L 11,16.08177 C 11,8.97675 11.27314,2.45175 11.60699,1.58177 C 12.01665,0.51421 13.47956,0.26788972 16.10699,0.26788972 L 20,0.26788972 L 20,14.75719 L 20,29.51439 L 24.5,29.15649 L 29,28.79859 L 29,16.02173 C 29,5.88447 29.30989,2.98768 30.5,1.99998 C 31.82245,0.90245 32,2.6043 32,16.37753 L 32,31.99998 L 16.37756,31.99998 C 2.60432,31.99998 0.90247,31.82243 2,30.49998 z "
       id="path8870"
       sodipodi:nodetypes="ccccscccccccscccc" />
  </g>
</svg>
