<?xml version="1.0" encoding="UTF-8" standalone="no"?>
<!-- Created with Inkscape (http://www.inkscape.org/) -->
<svg
   xmlns:dc="http://purl.org/dc/elements/1.1/"
   xmlns:cc="http://web.resource.org/cc/"
   xmlns:rdf="http://www.w3.org/1999/02/22-rdf-syntax-ns#"
   xmlns:svg="http://www.w3.org/2000/svg"
   xmlns="http://www.w3.org/2000/svg"
   xmlns:sodipodi="http://inkscape.sourceforge.net/DTD/sodipodi-0.dtd"
   xmlns:inkscape="http://www.inkscape.org/namespaces/inkscape"
   sodipodi:docname="26.svg"
   sodipodi:docbase="/home/adam/workspace/Escape/src/org/spacebar/escape/j2se/resources/tiles"
   inkscape:version="0.41"
   sodipodi:version="0.32"
   id="svg15582"
   height="32px"
   width="32px">
  <defs
     id="defs3" />
  <sodipodi:namedview
     inkscape:window-y="285"
     inkscape:window-x="875"
     inkscape:window-height="536"
     inkscape:window-width="640"
     inkscape:document-units="px"
     inkscape:grid-bbox="true"
     showgrid="true"
     inkscape:current-layer="layer1"
     inkscape:cy="15.999999"
     inkscape:cx="16.000000"
     inkscape:zoom="11.197802"
     inkscape:pageshadow="2"
     inkscape:pageopacity="0.0"
     borderopacity="1.0"
     bordercolor="#666666"
     pagecolor="#ffffff"
     id="base" />
  <metadata
     id="metadata4">
    <rdf:RDF
       id="RDF5">
      <cc:Work
         id="Work6"
         rdf:about="">
        <dc:format
           id="format7">image/svg+xml</dc:format>
        <dc:type
           rdf:resource="http://purl.org/dc/dcmitype/StillImage"
           id="type9" />
      </cc:Work>
    </rdf:RDF>
  </metadata>
  <g
     inkscape:groupmode="layer"
     inkscape:label="Layer 1"
     id="layer1">
    <g
       transform="translate(-608.0000,-668.3622)"
       id="g8794">
      <path
         id="path8806"
         d="M 608.00000,684.36218 L 608.00000,668.36218 L 624.00000,668.36218 L 640.00000,668.36218 L 640.00000,684.36218 L 640.00000,700.36218 L 624.00000,700.36218 L 608.00000,700.36218 L 608.00000,684.36218 z "
         style="fill:#8c8c8c;fill-opacity:1.0000000" />
      <path
         sodipodi:nodetypes="ccccccccccccc"
         id="path8804"
         d="M 608.22461,684.61218 L 608.50000,668.86218 L 624.25000,668.58679 L 640.00000,668.36218 L 640.00000,684.33679 L 640.00000,700.36218 L 623.97461,700.36218 L 608.00000,700.36218 L 608.22461,684.61218 z M 612.00000,671.98462 C 612.00000,671.77697 611.21250,670.98947 610.25000,670.23462 C 608.66394,668.99075 608.62857,669.02612 609.87244,670.61218 C 611.17881,672.27793 612.00000,672.80766 612.00000,671.98462 z "
         style="fill:#7a7a7a;fill-opacity:1.0000000" />
      <path
         id="path8802"
         d="M 609.31257,698.56929 C 610.58918,697.15865 610.99534,694.12048 611.21756,684.31929 L 611.50000,671.86218 L 614.67553,671.55438 C 616.42207,671.38508 618.38967,670.59758 619.04797,669.80438 C 620.66394,667.85726 627.60881,667.90036 628.36163,669.86218 C 629.15212,671.92216 635.84051,671.81649 638.17126,669.70719 C 639.93574,668.11036 640.00000,668.61984 640.00000,684.20719 L 640.00000,700.36218 L 623.84501,700.36218 C 608.37542,700.36218 607.75886,700.28611 609.31257,698.56929 z "
         style="fill:#686868;fill-opacity:1.0000000" />
      <path
         sodipodi:nodetypes="ccccccccccccccccccccc"
         id="path8800"
         d="M 609.79085,698.08481 C 611.67810,696.07592 611.96391,694.45488 612.21517,684.33481 L 612.50000,672.86218 L 615.28512,672.54237 C 616.81694,672.36647 618.61269,671.35397 619.27567,670.29237 C 620.11754,668.94432 621.60919,668.36218 624.22150,668.36218 C 628.24852,668.36218 628.54526,668.82779 629.32002,676.36218 L 629.67993,679.86218 L 629.83996,676.11218 C 629.98347,672.74948 630.27737,672.36218 632.68555,672.36218 C 634.16260,672.36218 636.41260,671.38374 637.68555,670.18787 L 640.00000,668.36218 L 640.00000,684.18787 L 640.00000,700.36218 L 623.82569,700.36218 L 608.00000,700.36218 L 609.79085,698.08481 z M 634.50000,689.73061 C 627.33736,688.98690 619.22259,688.92217 619.65166,689.61218 C 619.90817,690.02468 624.02898,690.29016 628.80902,690.20214 C 633.58906,690.11412 636.15000,689.90193 634.50000,689.73061 z "
         style="fill:#575757;fill-opacity:1.0000000" />
      <path
         id="path8798"
         d="M 610.00000,698.86218 C 610.98863,697.67095 613.89568,697.36218 624.12244,697.36218 L 637.00000,697.36218 L 637.00000,694.06218 C 637.00000,692.24718 637.54000,690.22218 638.20000,689.56218 C 639.13333,688.62885 637.13333,688.36218 629.20000,688.36218 L 619.00000,688.36218 L 619.00000,679.94397 C 619.00000,669.04035 619.29904,668.36218 624.10699,668.36218 L 628.00000,668.36218 L 628.00000,674.46917 C 628.00000,679.62710 628.24582,680.48183 629.58179,679.96917 C 630.45177,679.63532 632.47677,679.36218 634.08179,679.36218 C 636.80434,679.36218 637.00000,679.10220 637.00000,675.48462 C 637.00000,673.25786 637.63860,671.07708 638.50000,670.36218 C 639.82245,669.26465 640.00000,670.96650 640.00000,684.73973 L 640.00000,700.36218 L 624.37756,700.36218 C 610.60432,700.36218 608.90247,700.18463 610.00000,698.86218 z "
         style="fill:#454545;fill-opacity:1.0000000" />
      <path
         id="path8796"
         d="M 620.00000,678.36218 L 620.00000,668.36218 L 624.00000,668.36218 L 628.00000,668.36218 L 628.00000,674.36218 L 628.00000,680.36218 L 634.00000,680.36218 L 640.00000,680.36218 L 640.00000,684.36218 L 640.00000,688.36218 L 630.00000,688.36218 L 620.00000,688.36218 L 620.00000,678.36218 z "
         style="fill:#333333;fill-opacity:1.0000000" />
      <path
         sodipodi:nodetypes="czzcczzcc"
         id="path9713"
         d="M 640.00000,686.36218 L 624.00000,686.36218 C 623.05719,686.36218 622.00000,685.30499 622.00000,684.36218 L 622.00000,668.36218 L 626.00000,668.36218 L 626.00000,680.36218 C 626.00000,681.30499 627.05719,682.36218 628.00000,682.36218 L 640.00000,682.36218 L 640.00000,686.36218 z "
         style="fill:#232323;fill-opacity:1.0000000;fill-rule:evenodd;stroke:none;stroke-width:1.0000000px;stroke-linecap:butt;stroke-linejoin:miter;stroke-opacity:1.0000000" />
    </g>
  </g>
</svg>
