<?xml version="1.0" encoding="UTF-8" standalone="no"?>
<!-- Created with Inkscape (http://www.inkscape.org/) -->
<svg
   xmlns:dc="http://purl.org/dc/elements/1.1/"
   xmlns:cc="http://web.resource.org/cc/"
   xmlns:rdf="http://www.w3.org/1999/02/22-rdf-syntax-ns#"
   xmlns:svg="http://www.w3.org/2000/svg"
   xmlns="http://www.w3.org/2000/svg"
   xmlns:sodipodi="http://inkscape.sourceforge.net/DTD/sodipodi-0.dtd"
   xmlns:inkscape="http://www.inkscape.org/namespaces/inkscape"
   sodipodi:docname="27.svg"
   sodipodi:docbase="/home/adam/workspace/Escape/src/org/spacebar/escape/j2se/resources/tiles"
   inkscape:version="0.41"
   sodipodi:version="0.32"
   id="svg15582"
   height="32px"
   width="32px">
  <defs
     id="defs3" />
  <sodipodi:namedview
     inkscape:window-y="285"
     inkscape:window-x="875"
     inkscape:window-height="536"
     inkscape:window-width="640"
     inkscape:document-units="px"
     inkscape:grid-bbox="true"
     showgrid="true"
     inkscape:current-layer="layer1"
     inkscape:cy="15.999999"
     inkscape:cx="16.000000"
     inkscape:zoom="11.197802"
     inkscape:pageshadow="2"
     inkscape:pageopacity="0.0"
     borderopacity="1.0"
     bordercolor="#666666"
     pagecolor="#ffffff"
     id="base" />
  <metadata
     id="metadata4">
    <rdf:RDF
       id="RDF5">
      <cc:Work
         id="Work6"
         rdf:about="">
        <dc:format
           id="format7">image/svg+xml</dc:format>
        <dc:type
           rdf:resource="http://purl.org/dc/dcmitype/StillImage"
           id="type9" />
      </cc:Work>
    </rdf:RDF>
  </metadata>
  <g
     inkscape:groupmode="layer"
     inkscape:label="Layer 1"
     id="layer1">
    <g
       transform="translate(-640.0000,-668.3622)"
       id="g8770">
      <path
         id="path8782"
         d="M 640.00000,684.36218 L 640.00000,668.36218 L 656.00000,668.36218 L 672.00000,668.36218 L 672.00000,684.36218 L 672.00000,700.36218 L 656.00000,700.36218 L 640.00000,700.36218 L 640.00000,684.36218 z "
         style="fill:#8c8c8c;fill-opacity:1.0000000" />
      <path
         sodipodi:nodetypes="ccccccccccccc"
         id="path8780"
         d="M 640.22461,684.61218 L 640.50000,668.86218 L 656.25000,668.58679 L 672.00000,668.36218 L 672.00000,684.33679 L 672.00000,700.36218 L 655.97461,700.36218 L 640.00000,700.36218 L 640.22461,684.61218 z M 644.00000,671.98462 C 644.00000,671.77697 643.21250,670.98947 642.25000,670.23462 C 640.66394,668.99075 640.62857,669.02612 641.87244,670.61218 C 643.17881,672.27793 644.00000,672.80766 644.00000,671.98462 z "
         style="fill:#7a7a7a;fill-opacity:1.0000000" />
      <path
         sodipodi:nodetypes="cccccccccccc"
         id="path8778"
         d="M 641.34501,698.53344 C 643.43452,696.22456 643.53515,690.50477 641.50000,689.72381 C 639.49588,688.95475 639.98343,680.51680 641.42012,679.66187 C 642.20118,679.22204 642.98868,677.28718 643.17012,675.36218 C 643.47121,672.16759 643.80541,671.83339 647.00000,671.53230 C 648.92500,671.35086 650.85986,670.56336 651.29969,669.78230 C 652.37572,667.87145 659.39582,667.92926 661.00000,669.86218 C 662.65772,671.85961 667.89058,671.77118 670.17126,669.70719 C 671.93574,668.11036 672.00000,668.61984 672.00000,684.20719 L 672.00000,700.36218 L 655.84501,700.36218 C 640.25766,700.36218 639.74818,700.29792 641.34501,698.53344 z "
         style="fill:#686868;fill-opacity:1.0000000" />
      <path
         sodipodi:nodetypes="cccccccccccccccccccccccc"
         id="path8776"
         d="M 641.82569,698.04773 C 643.02156,696.77478 644.00000,694.52478 644.00000,693.04773 C 644.00000,690.36320 644.00296,690.36218 651.80000,690.36218 C 656.53333,690.36218 660.07179,689.89038 660.80000,689.16218 C 661.52820,688.43397 662.00000,684.89551 662.00000,680.16218 C 662.00000,672.36514 662.00102,672.36218 664.68555,672.36218 C 666.16260,672.36218 668.41260,671.38374 669.68555,670.18787 L 672.00000,668.36218 L 672.00000,684.18787 L 672.00000,700.36218 L 655.82569,700.36218 L 640.00000,700.36218 L 641.82569,698.04773 z M 640.70046,688.72931 C 640.31521,688.34405 640.00000,686.31968 640.00000,684.23070 C 640.00000,681.49952 640.54317,680.14185 641.93354,679.39775 C 642.99699,678.82861 644.00949,677.12528 644.18354,675.61256 C 644.44480,673.34190 645.04906,672.80885 647.64795,672.55643 C 649.76719,672.35060 650.96204,671.61533 651.30433,670.30643 C 651.70296,668.78206 652.69271,668.36218 655.88733,668.36218 C 660.83875,668.36218 661.22375,669.34276 660.79650,680.86554 L 660.50000,688.86218 L 650.95046,689.14597 C 645.69821,689.30206 641.08571,689.11456 640.70046,688.72931 z "
         style="fill:#575757;fill-opacity:1.0000000" />
      <path
         id="path8774"
         d="M 642.00000,698.86218 C 642.98863,697.67095 645.89568,697.36218 656.12244,697.36218 L 669.00000,697.36218 L 669.00000,684.48462 C 669.00000,674.25786 669.30877,671.35081 670.50000,670.36218 C 671.82245,669.26465 672.00000,670.96650 672.00000,684.73973 L 672.00000,700.36218 L 656.37756,700.36218 C 642.60432,700.36218 640.90247,700.18463 642.00000,698.86218 z M 640.00000,684.50538 C 640.00000,680.07584 640.98265,679.36218 647.08179,679.36218 C 650.97274,679.36218 651.00000,679.33492 651.00000,675.44397 C 651.00000,669.34483 651.71366,668.36218 656.14320,668.36218 L 660.07242,668.36218 L 659.78621,678.11218 L 659.50000,687.86218 L 649.75000,688.14839 L 640.00000,688.43460 L 640.00000,684.50538 z "
         style="fill:#454545;fill-opacity:1.0000000" />
      <path
         id="path8772"
         d="M 640.00000,684.36218 L 640.00000,680.36218 L 646.00000,680.36218 L 652.00000,680.36218 L 652.00000,674.36218 L 652.00000,668.36218 L 656.00000,668.36218 L 660.00000,668.36218 L 660.00000,677.16218 C 660.00000,682.67329 659.55151,686.41066 658.80000,687.16218 C 658.04849,687.91369 654.31111,688.36218 648.80000,688.36218 L 640.00000,688.36218 L 640.00000,684.36218 z "
         style="fill:#333333;fill-opacity:1.0000000" />
      <path
         sodipodi:nodetypes="czzcczzcc"
         id="path9715"
         d="M 658.00000,668.36218 L 658.00000,684.36218 C 658.00000,685.30499 656.94281,686.36218 656.00000,686.36218 L 640.00000,686.36218 L 640.00000,682.36218 L 652.00000,682.36218 C 652.94281,682.36218 654.00000,681.30499 654.00000,680.36218 L 654.00000,668.36218 L 658.00000,668.36218 z "
         style="fill:#232323;fill-opacity:1.0000000;fill-rule:evenodd;stroke:none;stroke-width:1.0000000px;stroke-linecap:butt;stroke-linejoin:miter;stroke-opacity:1.0000000" />
    </g>
  </g>
</svg>
