<?xml version="1.0" encoding="UTF-8" standalone="no"?>
<!-- Created with Inkscape (http://www.inkscape.org/) -->
<svg
   xmlns:dc="http://purl.org/dc/elements/1.1/"
   xmlns:cc="http://web.resource.org/cc/"
   xmlns:rdf="http://www.w3.org/1999/02/22-rdf-syntax-ns#"
   xmlns:svg="http://www.w3.org/2000/svg"
   xmlns="http://www.w3.org/2000/svg"
   xmlns:sodipodi="http://inkscape.sourceforge.net/DTD/sodipodi-0.dtd"
   xmlns:inkscape="http://www.inkscape.org/namespaces/inkscape"
   sodipodi:docname="27.svg"
   sodipodi:docbase="/home/adam/workspace/Escape-j2se/src/org/spacebar/escape/j2se/resources/tiles"
   inkscape:version="0.43"
   sodipodi:version="0.32"
   id="svg15582"
   height="32px"
   width="32px">
  <defs
     id="defs3" />
  <sodipodi:namedview
     inkscape:window-y="121"
     inkscape:window-x="7"
     inkscape:window-height="569"
     inkscape:window-width="722"
     inkscape:document-units="px"
     inkscape:grid-bbox="true"
     showgrid="true"
     inkscape:current-layer="layer1"
     inkscape:cy="18.23258"
     inkscape:cx="21.000981"
     inkscape:zoom="11.197802"
     inkscape:pageshadow="2"
     inkscape:pageopacity="0.0"
     borderopacity="1.0"
     bordercolor="#666666"
     pagecolor="#ffffff"
     id="base" />
  <metadata
     id="metadata4">
    <rdf:RDF>
      <cc:Work
         rdf:about="">
        <dc:format>image/svg+xml</dc:format>
        <dc:type
           rdf:resource="http://purl.org/dc/dcmitype/StillImage" />
      </cc:Work>
    </rdf:RDF>
  </metadata>
  <g
     inkscape:groupmode="layer"
     inkscape:label="Layer 1"
     id="layer1">
    <path
       style="fill:#7a7a7a;fill-opacity:1"
       d="M 0.22461,16.24998 L 0.5,0.49998 L 16.25,0.22459 L 32,-2e-05 L 32,15.97459 L 32,31.99998 L 15.97461,31.99998 L 0,31.99998 L 0.22461,16.24998 z M 4,3.62242 C 4,3.41477 3.2125,2.62727 2.25,1.87242 C 0.66394,0.62855 0.62857,0.66392 1.87244,2.24998 C 3.17881,3.91573 4,4.44546 4,3.62242 z "
       id="path8780"
       sodipodi:nodetypes="ccccccccccccc" />
    <path
       style="fill:#686868;fill-opacity:1"
       d="M 1.34501,30.17124 C 3.43452,27.86236 3.53515,22.14257 1.5,21.36161 C -0.50412,20.59255 -0.01657,12.1546 1.42012,11.29967 C 2.20118,10.85984 2.98868,8.92498 3.17012,6.99998 C 3.47121,3.80539 3.80541,3.47119 7,3.1701 C 8.925,2.98866 10.85986,2.3797665 11.29969,1.5987065 C 12.37572,-0.31214352 19.39582,-0.25433352 21,1.6785865 C 22.65772,3.6760165 27.89058,3.40898 30.17126,1.34499 C 31.93574,-0.25184 32,0.25764 32,15.84499 L 32,31.99998 L 15.84501,31.99998 C 0.25766,31.99998 -0.25182,31.93572 1.34501,30.17124 z "
       id="path8778"
       sodipodi:nodetypes="cccccccccccc" />
    <path
       style="fill:#575757;fill-opacity:1"
       d="M 1.82569,29.68553 C 3.02156,28.41258 4,26.16258 4,24.68553 C 4,22.001 4.00296,21.99998 11.8,21.99998 C 16.53333,21.99998 20.07179,21.52818 20.8,20.79998 C 21.5282,20.07177 22,16.53331 22,11.79998 C 22,4.00294 22.00102,3.99998 24.68555,3.99998 C 26.1626,3.99998 28.4126,3.02154 29.68555,1.82567 L 32,-2e-05 L 32,15.82567 L 32,31.99998 L 15.82569,31.99998 L 0,31.99998 L 1.82569,29.68553 z M 0.70046,20.36711 C 0.31521,19.98185 0,17.95748 0,15.8685 C 0,13.13732 0.54317,11.77965 1.93354,11.03555 C 2.99699,10.46641 4.00949,8.76308 4.18354,7.25036 C 4.4448,4.9797 5.04906,4.44665 7.64795,4.19423 C 9.76719,3.9884 10.96204,3.25313 11.30433,1.94423 C 11.70296,0.41986 12.69271,0.17858648 15.88733,0.17858648 C 20.83875,0.17858648 21.22375,0.98056 20.7965,12.50334 L 20.5,20.49998 L 10.95046,20.78377 C 5.69821,20.93986 1.08571,20.75236 0.70046,20.36711 z "
       id="path8776"
       sodipodi:nodetypes="cccccccccccccccccccccccc" />
    <path
       style="fill:#454545;fill-opacity:1"
       d="M 2,30.49998 C 2.98863,29.30875 5.89568,28.99998 16.12244,28.99998 L 29,28.99998 L 29,16.12242 C 29,5.89566 29.30877,2.98861 30.5,1.99998 C 31.82245,0.90245 32,2.6043 32,16.37753 L 32,31.99998 L 16.37756,31.99998 C 2.60432,31.99998 0.90247,31.82243 2,30.49998 z M 0,16.14318 C 0,11.71364 0.98265,10.99998 7.08179,10.99998 C 10.97274,10.99998 11,10.97272 11,7.08177 C 11,0.98263 11.71366,0.17858648 16.1432,0.17858648 L 20.07242,0.17858648 L 19.78621,9.74998 L 19.5,19.49998 L 9.75,19.78619 L 0,20.0724 L 0,16.14318 z "
       id="path8774"
       sodipodi:nodetypes="ccccscccccssccccccc" />
  </g>
</svg>
