<?xml version="1.0" encoding="UTF-8" standalone="no"?>
<!-- Created with Inkscape (http://www.inkscape.org/) -->
<svg
   xmlns:dc="http://purl.org/dc/elements/1.1/"
   xmlns:cc="http://web.resource.org/cc/"
   xmlns:rdf="http://www.w3.org/1999/02/22-rdf-syntax-ns#"
   xmlns:svg="http://www.w3.org/2000/svg"
   xmlns="http://www.w3.org/2000/svg"
   xmlns:sodipodi="http://sodipodi.sourceforge.net/DTD/sodipodi-0.dtd"
   xmlns:inkscape="http://www.inkscape.org/namespaces/inkscape"
   sodipodi:docname="28.svg"
   sodipodi:docbase="/home/adam/workspace/Escape-j2se/src/org/spacebar/escape/j2se/resources/tiles"
   inkscape:version="0.44.1"
   sodipodi:version="0.32"
   id="svg15582"
   height="32px"
   width="32px">
  <defs
     id="defs3" />
  <sodipodi:namedview
     inkscape:window-y="217"
     inkscape:window-x="309"
     inkscape:window-height="620"
     inkscape:window-width="906"
     inkscape:document-units="px"
     inkscape:grid-bbox="true"
     showgrid="true"
     inkscape:current-layer="layer1"
     inkscape:cy="14.780677"
     inkscape:cx="17.931875"
     inkscape:zoom="22.395604"
     inkscape:pageshadow="2"
     inkscape:pageopacity="0.0"
     borderopacity="1.0"
     bordercolor="#666666"
     pagecolor="#ffffff"
     id="base" />
  <metadata
     id="metadata4">
    <rdf:RDF>
      <cc:Work
         rdf:about="">
        <dc:format>image/svg+xml</dc:format>
        <dc:type
           rdf:resource="http://purl.org/dc/dcmitype/StillImage" />
      </cc:Work>
    </rdf:RDF>
  </metadata>
  <g
     inkscape:groupmode="layer"
     inkscape:label="Layer 1"
     id="layer1">
    <path
       style="fill:#7a7a7a;fill-opacity:1"
       d="M 0.22461,16.24998 L 0.5,0.49998 L 16.25,0.22459 L 32,-2e-05 L 32,15.97459 L 32,31.99998 L 15.97461,31.99998 L 0,31.99998 L 0.22461,16.24998 z M 4,3.62242 C 4,3.41477 3.2125,2.62727 2.25,1.87242 C 0.66394,0.62855 0.62857,0.66392 1.87244,2.24998 C 3.17881,3.91573 4,4.44546 4,3.62242 z "
       id="path8852"
       sodipodi:nodetypes="ccccccccccccc" />
    <path
       style="fill:#686868;fill-opacity:1"
       d="M 1.31257,30.20709 C 2.58918,28.79645 2.99534,25.75828 3.21756,15.95709 L 3.5,3.49998 L 15.95711,3.21754 C 25.7583,2.99532 28.79647,2.58916 30.20711,1.31255 C 31.92394,-0.24116 32,0.3754 32,15.84499 L 32,31.99998 L 15.84501,31.99998 C 0.37542,31.99998 -0.24114,31.92391 1.31257,30.20709 z "
       id="path8850" />
    <path
       style="fill:#575757;fill-opacity:1"
       d="M 1.79085,29.72261 C 3.6781,27.71372 3.96391,26.09268 4.21517,15.97261 L 4.5,4.49998 L 15.97263,4.21515 C 26.09271,3.96389 27.71374,3.67808 29.72263,1.79083 L 32,-2e-05 L 32,15.82567 L 32,31.99998 L 15.82569,31.99998 L 0,31.99998 L 1.79085,29.72261 z M 25.30684,21.71914 C 28.38106,21.33492 28.36032,21.31409 24.75,21.16002 L 21,20.99998 L 21.1681,25.24998 L 21.33621,29.49998 L 21.72494,25.8091 C 22.07231,22.51102 22.45351,22.07575 25.30684,21.71914 z "
       id="path8848"
       sodipodi:nodetypes="cccccccccccccccccc" />
    <path
       style="fill:#3b3b3b;fill-opacity:1"
       d="M 2,30.49998 C 2.7149,29.63857 4.89568,28.99998 7.12244,28.99998 L 11,28.99998 L 11,21.19998 C 11,16.46665 11.069935,12.570977 11.798135,11.842767 C 12.526345,11.114567 16.46667,10.99998 21.2,10.99998 L 29,10.99998 L 29,7.12242 C 29,4.89566 29.6386,2.71488 30.5,1.99998 C 31.82245,0.90245 32,2.6043 32,16.37753 L 32,31.99998 L 16.37756,31.99998 C 2.60432,31.99998 0.90247,31.82243 2,30.49998 z M 29.16393,24.40671 L 29.51441,19.99998 L 24.75721,19.99998 L 20,19.99998 L 20,24.75719 L 20,29.51439 L 24.40673,29.16391 L 28.81345,28.81343 L 29.16393,24.40671 z "
       id="path8846"
       sodipodi:nodetypes="ccccscccsccccccccccccc" />
  </g>
</svg>
