<?xml version="1.0" encoding="UTF-8" standalone="no"?>
<!-- Created with Inkscape (http://www.inkscape.org/) -->
<svg
   xmlns:dc="http://purl.org/dc/elements/1.1/"
   xmlns:cc="http://web.resource.org/cc/"
   xmlns:rdf="http://www.w3.org/1999/02/22-rdf-syntax-ns#"
   xmlns:svg="http://www.w3.org/2000/svg"
   xmlns="http://www.w3.org/2000/svg"
   xmlns:sodipodi="http://sodipodi.sourceforge.net/DTD/sodipodi-0.dtd"
   xmlns:inkscape="http://www.inkscape.org/namespaces/inkscape"
   sodipodi:docname="29.svg"
   sodipodi:docbase="/home/adam/workspace/Escape-j2se/src/org/spacebar/escape/j2se/resources/tiles"
   inkscape:version="0.44.1"
   sodipodi:version="0.32"
   id="svg15582"
   height="32px"
   width="32px">
  <defs
     id="defs3" />
  <sodipodi:namedview
     inkscape:window-y="41"
     inkscape:window-x="297"
     inkscape:window-height="824"
     inkscape:window-width="906"
     inkscape:document-units="px"
     inkscape:grid-bbox="true"
     showgrid="true"
     inkscape:current-layer="layer1"
     inkscape:cy="16.123164"
     inkscape:cx="17.465183"
     inkscape:zoom="22.395604"
     inkscape:pageshadow="2"
     inkscape:pageopacity="0.0"
     borderopacity="1.0"
     bordercolor="#666666"
     pagecolor="#ffffff"
     id="base" />
  <metadata
     id="metadata4">
    <rdf:RDF>
      <cc:Work
         rdf:about="">
        <dc:format>image/svg+xml</dc:format>
        <dc:type
           rdf:resource="http://purl.org/dc/dcmitype/StillImage" />
      </cc:Work>
    </rdf:RDF>
  </metadata>
  <g
     inkscape:groupmode="layer"
     inkscape:label="Layer 1"
     id="layer1">
    <path
       style="fill:#7a7a7a;fill-opacity:1"
       d="M 0.22461,16.24998 L 0.5,0.49998 L 16.25,0.22459 L 32,-2e-05 L 32,15.97459 L 32,31.99998 L 15.97461,31.99998 L 0,31.99998 L 0.22461,16.24998 z M 4,3.62242 C 4,3.41477 3.2125,2.62727 2.25,1.87242 C 0.66394,0.62855 0.62857,0.66392 1.87244,2.24998 C 3.17881,3.91573 4,4.44546 4,3.62242 z "
       id="path8828"
       sodipodi:nodetypes="ccccccccccccc" />
    <path
       style="fill:#686868;fill-opacity:1"
       d="M 1.34501,30.17124 C 3.44878,27.84661 3.7317665,21.42622 1.6786065,20.63835 C -0.29208352,19.88213 -0.33554352,12.67157 1.6208065,11.04795 C 2.4140065,10.38965 3.0229,8.42205 3.1922,6.67551 L 3.5,3.49998 L 15.95711,3.21754 C 25.7583,2.99532 28.79647,2.58916 30.20711,1.31255 C 31.92394,-0.24116 32,0.3754 32,15.84499 L 32,31.99998 L 15.84501,31.99998 C 0.25766,31.99998 -0.25182,31.93572 1.34501,30.17124 z "
       id="path8826"
       sodipodi:nodetypes="csscccscccc" />
    <path
       style="fill:#575757;fill-opacity:1"
       d="M 1.82569,29.68553 C 3.02156,28.41258 4,26.16258 4,24.68553 C 4,22.35457 4.42912,21.97924 7.25,21.84288 C 9.58636,21.72994 9.09439,21.5191 5.5,21.09288 L 0.5,20.49998 L 0.37424648,16.31425 C 0.13117648,12.97132 0.29154,11.91432 1.87918,11.06464 C 2.97253,10.4795 4.00949,8.76308 4.18354,7.25036 L 4.5,4.49998 L 15.97263,4.21515 C 26.09271,3.96389 27.71374,3.67808 29.72263,1.79083 L 32,-2e-05 L 32,15.82567 L 32,31.99998 L 15.82569,31.99998 L 0,31.99998 L 1.82569,29.68553 z M 21.73221,15.74998 C 21.52167,13.41248 21.34941,15.32498 21.34941,19.99998 C 21.34941,24.67498 21.52167,26.58748 21.73221,24.24998 C 21.94274,21.91248 21.94274,18.08748 21.73221,15.74998 z "
       id="path8824"
       sodipodi:nodetypes="ccccccccccccccccccccc" />
    <path
       style="fill:#3b3b3b;fill-opacity:1"
       d="M 2,30.49998 C 2.7149,29.63857 4.89568,28.99998 7.12244,28.99998 L 11,28.99998 L 11,24.49998 L 11,19.99998 L 5.5,19.99998 L 0.17860648,19.99998 L 0.17860648,16.01903 C 0.17860648,11.2021 1.08797,10.76574 12.01178,11.20136 L 21.15211,11.49998 L 21.194161,28.99998 L 24.53893,28.99998 L 29,28.99998 L 29,16.12242 C 29,5.89566 29.30877,2.98861 30.5,1.99998 C 31.82245,0.90245 32,2.6043 32,16.37753 L 32,31.99998 L 16.37756,31.99998 C 2.60432,31.99998 0.90247,31.82243 2,30.49998 z "
       id="path8822"
       sodipodi:nodetypes="ccccccccccccccscccc" />
  </g>
</svg>
