<?xml version="1.0" encoding="UTF-8" standalone="no"?>
<!-- Created with Inkscape (http://www.inkscape.org/) -->
<svg
   xmlns:dc="http://purl.org/dc/elements/1.1/"
   xmlns:cc="http://web.resource.org/cc/"
   xmlns:rdf="http://www.w3.org/1999/02/22-rdf-syntax-ns#"
   xmlns:svg="http://www.w3.org/2000/svg"
   xmlns="http://www.w3.org/2000/svg"
   xmlns:sodipodi="http://inkscape.sourceforge.net/DTD/sodipodi-0.dtd"
   xmlns:inkscape="http://www.inkscape.org/namespaces/inkscape"
   sodipodi:docname="29.svg"
   sodipodi:docbase="/home/adam/workspace/Escape/src/org/spacebar/escape/j2se/resources/tiles"
   inkscape:version="0.41"
   sodipodi:version="0.32"
   id="svg15582"
   height="32px"
   width="32px">
  <defs
     id="defs3" />
  <sodipodi:namedview
     inkscape:window-y="285"
     inkscape:window-x="875"
     inkscape:window-height="536"
     inkscape:window-width="640"
     inkscape:document-units="px"
     inkscape:grid-bbox="true"
     showgrid="true"
     inkscape:current-layer="layer1"
     inkscape:cy="15.999999"
     inkscape:cx="16.000000"
     inkscape:zoom="11.197802"
     inkscape:pageshadow="2"
     inkscape:pageopacity="0.0"
     borderopacity="1.0"
     bordercolor="#666666"
     pagecolor="#ffffff"
     id="base" />
  <metadata
     id="metadata4">
    <rdf:RDF
       id="RDF5">
      <cc:Work
         id="Work6"
         rdf:about="">
        <dc:format
           id="format7">image/svg+xml</dc:format>
        <dc:type
           rdf:resource="http://purl.org/dc/dcmitype/StillImage"
           id="type9" />
      </cc:Work>
    </rdf:RDF>
  </metadata>
  <g
     inkscape:groupmode="layer"
     inkscape:label="Layer 1"
     id="layer1">
    <g
       transform="translate(-576.0000,-668.3622)"
       id="g8818">
      <path
         id="path8830"
         d="M 576.00000,684.36218 L 576.00000,668.36218 L 592.00000,668.36218 L 608.00000,668.36218 L 608.00000,684.36218 L 608.00000,700.36218 L 592.00000,700.36218 L 576.00000,700.36218 L 576.00000,684.36218 z "
         style="fill:#8c8c8c;fill-opacity:1.0000000" />
      <path
         sodipodi:nodetypes="ccccccccccccc"
         id="path8828"
         d="M 576.22461,684.61218 L 576.50000,668.86218 L 592.25000,668.58679 L 608.00000,668.36218 L 608.00000,684.33679 L 608.00000,700.36218 L 591.97461,700.36218 L 576.00000,700.36218 L 576.22461,684.61218 z M 580.00000,671.98462 C 580.00000,671.77697 579.21250,670.98947 578.25000,670.23462 C 576.66394,668.99075 576.62857,669.02612 577.87244,670.61218 C 579.17881,672.27793 580.00000,672.80766 580.00000,671.98462 z "
         style="fill:#7a7a7a;fill-opacity:1.0000000" />
      <path
         id="path8826"
         d="M 577.34501,698.53344 C 579.44878,696.20881 579.55316,689.78842 577.50000,689.00055 C 575.52931,688.24433 575.48585,681.03377 577.44220,679.41015 C 578.23540,678.75185 579.02290,676.78425 579.19220,675.03771 L 579.50000,671.86218 L 591.95711,671.57974 C 601.75830,671.35752 604.79647,670.95136 606.20711,669.67475 C 607.92394,668.12104 608.00000,668.73760 608.00000,684.20719 L 608.00000,700.36218 L 591.84501,700.36218 C 576.25766,700.36218 575.74818,700.29792 577.34501,698.53344 z "
         style="fill:#686868;fill-opacity:1.0000000" />
      <path
         sodipodi:nodetypes="ccccccccccccccccccccc"
         id="path8824"
         d="M 577.82569,698.04773 C 579.02156,696.77478 580.00000,694.52478 580.00000,693.04773 C 580.00000,690.71677 580.42912,690.34144 583.25000,690.20508 C 585.58636,690.09214 585.09439,689.88130 581.50000,689.45508 L 576.50000,688.86218 L 576.19564,684.67645 C 575.95257,681.33352 576.29154,680.27652 577.87918,679.42684 C 578.97253,678.84170 580.00949,677.12528 580.18354,675.61256 L 580.50000,672.86218 L 591.97263,672.57735 C 602.09271,672.32609 603.71374,672.04028 605.72263,670.15303 L 608.00000,668.36218 L 608.00000,684.18787 L 608.00000,700.36218 L 591.82569,700.36218 L 576.00000,700.36218 L 577.82569,698.04773 z M 597.73221,684.11218 C 597.52167,681.77468 597.34941,683.68718 597.34941,688.36218 C 597.34941,693.03718 597.52167,694.94968 597.73221,692.61218 C 597.94274,690.27468 597.94274,686.44968 597.73221,684.11218 z "
         style="fill:#575757;fill-opacity:1.0000000" />
      <path
         id="path8822"
         d="M 578.00000,698.86218 C 578.71490,698.00077 580.89568,697.36218 583.12244,697.36218 L 587.00000,697.36218 L 587.00000,692.86218 L 587.00000,688.36218 L 581.50000,688.36218 L 576.00000,688.36218 L 576.00000,684.38123 C 576.00000,679.56430 577.08797,679.12794 588.01178,679.56356 L 595.50000,679.86218 L 595.78893,688.61218 L 596.07787,697.36218 L 600.53893,697.36218 L 605.00000,697.36218 L 605.00000,684.48462 C 605.00000,674.25786 605.30877,671.35081 606.50000,670.36218 C 607.82245,669.26465 608.00000,670.96650 608.00000,684.73973 L 608.00000,700.36218 L 592.37756,700.36218 C 578.60432,700.36218 576.90247,700.18463 578.00000,698.86218 z "
         style="fill:#454545;fill-opacity:1.0000000" />
      <path
         id="path8820"
         d="M 588.00000,694.36218 L 588.00000,688.36218 L 582.00000,688.36218 L 576.00000,688.36218 L 576.00000,684.36218 L 576.00000,680.36218 L 584.80000,680.36218 C 590.31111,680.36218 594.04849,680.81066 594.80000,681.56218 C 595.55151,682.31369 596.00000,686.05107 596.00000,691.56218 L 596.00000,700.36218 L 592.00000,700.36218 L 588.00000,700.36218 L 588.00000,694.36218 z "
         style="fill:#333333;fill-opacity:1.0000000" />
      <path
         sodipodi:nodetypes="czzcczzcc"
         id="path9711"
         d="M 594.00000,700.36218 L 594.00000,684.36218 C 594.00000,683.41937 592.94281,682.36218 592.00000,682.36218 L 576.00000,682.36218 L 576.00000,686.36218 L 588.00000,686.36218 C 588.94281,686.36218 590.00000,687.41937 590.00000,688.36218 L 590.00000,700.36218 L 594.00000,700.36218 z "
         style="fill:#232323;fill-opacity:1.0000000;fill-rule:evenodd;stroke:none;stroke-width:1.0000000px;stroke-linecap:butt;stroke-linejoin:miter;stroke-opacity:1.0000000" />
    </g>
  </g>
</svg>
