<?xml version="1.0" encoding="UTF-8" standalone="no"?>
<!-- Created with Inkscape (http://www.inkscape.org/) -->
<svg
   xmlns:dc="http://purl.org/dc/elements/1.1/"
   xmlns:cc="http://web.resource.org/cc/"
   xmlns:rdf="http://www.w3.org/1999/02/22-rdf-syntax-ns#"
   xmlns:svg="http://www.w3.org/2000/svg"
   xmlns="http://www.w3.org/2000/svg"
   xmlns:sodipodi="http://sodipodi.sourceforge.net/DTD/sodipodi-0.dtd"
   xmlns:inkscape="http://www.inkscape.org/namespaces/inkscape"
   sodipodi:docname="30.svg"
   sodipodi:docbase="/home/adam/workspace/Escape-j2se/src/org/spacebar/escape/j2se/resources/tiles"
   inkscape:version="0.44.1"
   sodipodi:version="0.32"
   id="svg15582"
   height="32px"
   width="32px">
  <defs
     id="defs3" />
  <sodipodi:namedview
     inkscape:window-y="98"
     inkscape:window-x="4"
     inkscape:window-height="620"
     inkscape:window-width="906"
     inkscape:document-units="px"
     inkscape:grid-bbox="true"
     showgrid="true"
     inkscape:current-layer="layer1"
     inkscape:cy="17.339548"
     inkscape:cx="21.090285"
     inkscape:zoom="11.197802"
     inkscape:pageshadow="2"
     inkscape:pageopacity="0.0"
     borderopacity="1.0"
     bordercolor="#666666"
     pagecolor="#ffffff"
     id="base" />
  <metadata
     id="metadata4">
    <rdf:RDF>
      <cc:Work
         rdf:about="">
        <dc:format>image/svg+xml</dc:format>
        <dc:type
           rdf:resource="http://purl.org/dc/dcmitype/StillImage" />
      </cc:Work>
    </rdf:RDF>
  </metadata>
  <g
     inkscape:groupmode="layer"
     inkscape:label="Layer 1"
     id="layer1">
    <path
       style="fill:#7a7a7a;fill-opacity:1"
       d="M 0.22461,16.24998 L 0.5,0.49998 L 16.25,0.22459 L 32,-2e-05 L 32,15.97459 L 32,31.99998 L 15.97461,31.99998 L 0,31.99998 L 0.22461,16.24998 z M 4,3.62242 C 4,3.41477 3.2125,2.62727 2.25,1.87242 C 0.66394,0.62855 0.62857,0.66392 1.87244,2.24998 C 3.17881,3.91573 4,4.44546 4,3.62242 z "
       id="path8734"
       sodipodi:nodetypes="ccccccccccccc" />
    <path
       style="fill:#686868;fill-opacity:1"
       d="M 1.34501,30.17124 C 3.45431,27.84049 3.55998,21.1521 1.5,20.36161 C -0.47522,19.60364 0,11.99998 1.42012,11.29967 C 2.20118,10.85984 2.98868,8.92498 3.17012,6.99998 L 3.5,3.49998 L 15.95711,3.21754 C 25.7583,2.99532 28.79647,2.58916 30.20711,1.31255 C 31.92394,-0.24116 32,0.3754 32,15.84499 L 32,31.99998 L 15.84501,31.99998 C 0.25766,31.99998 -0.25182,31.93572 1.34501,30.17124 z "
       id="path8732"
       sodipodi:nodetypes="ccccccccccc" />
    <path
       style="fill:#575757;fill-opacity:1"
       d="M 1.82569,29.68553 C 3.02156,28.41258 4,26.16258 4,24.68553 L 4,21.99998 L 16.75,21.78376 L 29.5,21.56754 L 17,21.289 C 0.12855,20.91306 0.17860648,20.87318 0.17860648,16.01611 C 0.17860648,13.13901 0.52368,11.79008 1.93354,11.03555 C 2.99699,10.46641 4.00949,8.76308 4.18354,7.25036 L 4.5,4.49998 L 15.97263,4.21515 C 26.09271,3.96389 27.71374,3.67808 29.72263,1.79083 L 32,-2e-05 L 32,15.82567 L 32,31.99998 L 15.82569,31.99998 L 0,31.99998 L 1.82569,29.68553 z "
       id="path8730"
       sodipodi:nodetypes="cccccccccccccccccc" />
    <path
       style="fill:#3b3b3b;fill-opacity:1"
       d="M 2,30.49998 C 2.9877,29.30987 5.88449,28.99998 16.02175,28.99998 L 28.79861,28.99998 L 29.15651,24.49998 L 29.51441,19.99998 L 14.75721,19.99998 L 0.17860648,19.99998 L 0.17860648,16.10697 C 0.17860648,13.47954 0.51423,12.01663 1.58179,11.60697 C 2.45177,11.27312 8.97677,10.99998 16.08179,10.99998 L 29,10.99998 L 29,7.12242 C 29,4.89566 29.6386,2.71488 30.5,1.99998 C 31.82245,0.90245 32,2.6043 32,16.37753 L 32,31.99998 L 16.37756,31.99998 C 2.60432,31.99998 0.90247,31.82243 2,30.49998 z "
       id="path8728"
       sodipodi:nodetypes="ccccccccscccscccc" />
  </g>
</svg>
