<?xml version="1.0" encoding="UTF-8" standalone="no"?>
<!-- Created with Inkscape (http://www.inkscape.org/) -->
<svg
   xmlns:dc="http://purl.org/dc/elements/1.1/"
   xmlns:cc="http://web.resource.org/cc/"
   xmlns:rdf="http://www.w3.org/1999/02/22-rdf-syntax-ns#"
   xmlns:svg="http://www.w3.org/2000/svg"
   xmlns="http://www.w3.org/2000/svg"
   xmlns:sodipodi="http://inkscape.sourceforge.net/DTD/sodipodi-0.dtd"
   xmlns:inkscape="http://www.inkscape.org/namespaces/inkscape"
   sodipodi:docname="31.svg"
   sodipodi:docbase="/home/adam/workspace/Escape/src/org/spacebar/escape/j2se/resources/tiles"
   inkscape:version="0.41"
   sodipodi:version="0.32"
   id="svg15582"
   height="32px"
   width="32px">
  <defs
     id="defs3" />
  <sodipodi:namedview
     inkscape:window-y="285"
     inkscape:window-x="875"
     inkscape:window-height="536"
     inkscape:window-width="640"
     inkscape:document-units="px"
     inkscape:grid-bbox="true"
     showgrid="true"
     inkscape:current-layer="layer1"
     inkscape:cy="15.999999"
     inkscape:cx="16.000000"
     inkscape:zoom="11.197802"
     inkscape:pageshadow="2"
     inkscape:pageopacity="0.0"
     borderopacity="1.0"
     bordercolor="#666666"
     pagecolor="#ffffff"
     id="base" />
  <metadata
     id="metadata4">
    <rdf:RDF
       id="RDF5">
      <cc:Work
         id="Work6"
         rdf:about="">
        <dc:format
           id="format7">image/svg+xml</dc:format>
        <dc:type
           rdf:resource="http://purl.org/dc/dcmitype/StillImage"
           id="type9" />
      </cc:Work>
    </rdf:RDF>
  </metadata>
  <g
     inkscape:groupmode="layer"
     inkscape:label="Layer 1"
     id="layer1">
    <g
       transform="translate(-480.0000,-780.3622)"
       id="g14084">
      <g
         transform="translate(-144.0000,32.00000)"
         id="use12264">
        <path
           id="path15671"
           d="M 624.00000,764.36218 L 624.00000,748.36218 L 640.00000,748.36218 L 656.00000,748.36218 L 656.00000,764.36218 L 656.00000,780.36218 L 640.00000,780.36218 L 624.00000,780.36218 L 624.00000,764.36218 z "
           style="fill:#8c8c8c;fill-opacity:1.0000000" />
        <path
           sodipodi:nodetypes="ccccccccccccc"
           id="path15673"
           d="M 624.22461,764.61218 L 624.50000,748.86218 L 640.25000,748.58679 L 656.00000,748.36218 L 656.00000,764.33679 L 656.00000,780.36218 L 639.97461,780.36218 L 624.00000,780.36218 L 624.22461,764.61218 z M 628.00000,751.98462 C 628.00000,751.77697 627.21250,750.98947 626.25000,750.23462 C 624.66394,748.99075 624.62857,749.02612 625.87244,750.61218 C 627.17881,752.27793 628.00000,752.80766 628.00000,751.98462 z "
           style="fill:#7a7a7a;fill-opacity:1.0000000" />
        <path
           sodipodi:nodetypes="cccccccccccc"
           id="path15675"
           d="M 625.34501,778.53344 C 627.44878,776.20881 627.55316,769.78842 625.50000,769.00055 C 623.51603,768.23923 624.00000,760.36218 625.42012,759.66187 C 626.20118,759.22204 626.98868,757.28718 627.17012,755.36218 C 627.47121,752.16759 627.80541,751.83339 631.00000,751.53230 C 632.92500,751.35086 634.85986,750.56336 635.29969,749.78230 C 636.40273,747.82348 644.00000,748.36218 644.36163,749.86218 C 645.15212,751.92216 651.84051,751.81649 654.17126,749.70719 C 655.93574,748.11036 656.00000,748.61984 656.00000,764.20719 L 656.00000,780.36218 L 639.84501,780.36218 C 624.25766,780.36218 623.74818,780.29792 625.34501,778.53344 z "
           style="fill:#686868;fill-opacity:1.0000000" />
        <path
           sodipodi:nodetypes="ccccccccccccccccccccccccccccc"
           id="path15677"
           d="M 625.82569,778.04773 C 627.02156,776.77478 628.00000,774.52478 628.00000,773.04773 C 628.00000,770.71677 628.42912,770.34144 631.25000,770.20508 C 633.58636,770.09214 633.09439,769.88130 629.50000,769.45508 L 624.50000,768.86218 L 624.19564,764.67645 C 623.95257,761.33352 624.29154,760.27652 625.87918,759.42684 C 626.97253,758.84170 628.00949,757.12528 628.18354,755.61256 C 628.44480,753.34190 629.04906,752.80885 631.64795,752.55643 C 633.76719,752.35060 634.96204,751.61533 635.30433,750.30643 C 635.70296,748.78206 636.69271,748.36218 639.88733,748.36218 C 644.29137,748.36218 644.53414,748.71967 645.32002,756.36218 L 645.67993,759.86218 L 645.83996,756.11218 C 645.98347,752.74948 646.27737,752.36218 648.68555,752.36218 C 650.16260,752.36218 652.41260,751.38374 653.68555,750.18787 L 656.00000,748.36218 L 656.00000,764.18787 L 656.00000,780.36218 L 639.82569,780.36218 L 624.00000,780.36218 L 625.82569,778.04773 z M 649.30684,770.08134 C 652.38106,769.69712 652.36032,769.67629 648.75000,769.52222 L 645.00000,769.36218 L 645.16810,773.61218 L 645.33621,777.86218 L 645.72494,774.17130 C 646.07231,770.87322 646.45351,770.43795 649.30684,770.08134 z "
           style="fill:#575757;fill-opacity:1.0000000" />
        <path
           id="path15679"
           d="M 626.00000,778.86218 C 626.71490,778.00077 628.89568,777.36218 631.12244,777.36218 L 635.00000,777.36218 L 635.00000,772.86218 L 635.00000,768.36218 L 629.50000,768.36218 L 624.00000,768.36218 L 624.00000,764.46917 C 624.00000,760.07918 624.99426,759.36218 631.08179,759.36218 C 634.97274,759.36218 635.00000,759.33492 635.00000,755.44397 C 635.00000,749.35644 635.71700,748.36218 640.10699,748.36218 L 644.00000,748.36218 L 644.00000,754.46917 C 644.00000,759.62710 644.24582,760.48183 645.58179,759.96917 C 646.45177,759.63532 648.47677,759.36218 650.08179,759.36218 C 652.80434,759.36218 653.00000,759.10220 653.00000,755.48462 C 653.00000,753.25786 653.63860,751.07708 654.50000,750.36218 C 655.82245,749.26465 656.00000,750.96650 656.00000,764.73973 L 656.00000,780.36218 L 640.37756,780.36218 C 626.60432,780.36218 624.90247,780.18463 626.00000,778.86218 z M 653.16393,772.76891 L 653.51441,768.36218 L 648.75721,768.36218 L 644.00000,768.36218 L 644.00000,773.11939 L 644.00000,777.87659 L 648.40673,777.52611 L 652.81345,777.17563 L 653.16393,772.76891 z "
           style="fill:#454545;fill-opacity:1.0000000" />
        <path
           id="path15681"
           d="M 636.00000,774.36218 L 636.00000,768.36218 L 630.00000,768.36218 L 624.00000,768.36218 L 624.00000,764.36218 L 624.00000,760.36218 L 630.00000,760.36218 L 636.00000,760.36218 L 636.00000,754.36218 L 636.00000,748.36218 L 640.00000,748.36218 L 644.00000,748.36218 L 644.00000,754.36218 L 644.00000,760.36218 L 650.00000,760.36218 L 656.00000,760.36218 L 656.00000,764.36218 L 656.00000,768.36218 L 650.00000,768.36218 L 644.00000,768.36218 L 644.00000,774.36218 L 644.00000,780.36218 L 640.00000,780.36218 L 636.00000,780.36218 L 636.00000,774.36218 z "
           style="fill:#333333;fill-opacity:1.0000000" />
        <path
           sodipodi:nodetypes="ccccczzcccccczzcc"
           id="path15683"
           transform="translate(0.000000,-32.00000)"
           d="M 638.00000,780.37500 L 638.00000,792.37500 C 638.00000,793.31781 636.94281,794.37500 636.00000,794.37500 L 624.00000,794.37500 L 624.00000,798.37500 L 636.00000,798.36218 C 636.94281,798.36118 638.00000,799.41937 638.00000,800.36218 L 638.00000,812.37500 L 642.00000,812.37500 L 642.00000,800.37500 C 642.00000,799.43219 643.05719,798.37500 644.00000,798.37500 L 656.00000,798.37500 L 656.00000,794.37500 L 644.00000,794.36218 C 643.05719,794.36118 642.00000,793.30499 642.00000,792.36218 L 642.00000,780.37500 L 638.00000,780.37500 z "
           style="fill:#232323;fill-opacity:1.0000000;fill-rule:evenodd;stroke:none;stroke-width:1.0000000px;stroke-linecap:butt;stroke-linejoin:miter;stroke-opacity:1.0000000" />
      </g>
      <g
         id="g14056">
        <g
           transform="translate(-35.00000,-39.98718)"
           id="g13880">
          <path
             id="path13723"
             d="M 521.00000,826.34937 L 521.00000,846.34937 L 541.00000,846.34937 L 541.00000,826.34937 L 521.00000,826.34937 z M 523.00000,828.34937 L 539.00000,828.34937 L 539.00000,844.34937 L 523.00000,844.34937 L 523.00000,828.34937 z "
             style="color:#000000;fill:#000000;fill-opacity:1.0000000;fill-rule:nonzero;stroke:none;stroke-width:1.8000000;stroke-linecap:square;stroke-linejoin:miter;stroke-miterlimit:4.0000000;stroke-dashoffset:0.0000000;stroke-opacity:1.0000000;marker:none;marker-start:none;marker-mid:none;marker-end:none;visibility:visible;display:inline;overflow:visible" />
          <rect
             inkscape:tile-cy="826.36218"
             inkscape:tile-cx="635.00000"
             inkscape:tile-h="2.0000000"
             inkscape:tile-w="2.0000000"
             y="826.34937"
             x="521.00000"
             height="2.0000000"
             width="2.0000000"
             id="rect13725"
             style="color:#000000;fill:#fff700;fill-opacity:1.0000000;fill-rule:nonzero;stroke:none;stroke-width:1.8000000;stroke-linecap:square;stroke-linejoin:miter;stroke-miterlimit:4.0000000;stroke-dashoffset:0.0000000;stroke-opacity:1.0000000;marker:none;marker-start:none;marker-mid:none;marker-end:none;visibility:visible;display:inline;overflow:visible" />
          <rect
             y="830.34937"
             x="521.00000"
             height="2.0000000"
             width="2.0000000"
             id="use13729"
             style="color:#000000;fill:#fff700;fill-opacity:1.0000000;fill-rule:nonzero;stroke:none;stroke-width:1.8000000;stroke-linecap:square;stroke-linejoin:miter;stroke-miterlimit:4.0000000;stroke-dashoffset:0.0000000;stroke-opacity:1.0000000;marker:none;marker-start:none;marker-mid:none;marker-end:none;visibility:visible;display:inline;overflow:visible" />
          <rect
             y="834.34937"
             x="521.00000"
             height="2.0000000"
             width="2.0000000"
             id="use13733"
             style="color:#000000;fill:#fff700;fill-opacity:1.0000000;fill-rule:nonzero;stroke:none;stroke-width:1.8000000;stroke-linecap:square;stroke-linejoin:miter;stroke-miterlimit:4.0000000;stroke-dashoffset:0.0000000;stroke-opacity:1.0000000;marker:none;marker-start:none;marker-mid:none;marker-end:none;visibility:visible;display:inline;overflow:visible" />
          <rect
             y="838.34937"
             x="521.00000"
             height="2.0000000"
             width="2.0000000"
             id="use13737"
             style="color:#000000;fill:#fff700;fill-opacity:1.0000000;fill-rule:nonzero;stroke:none;stroke-width:1.8000000;stroke-linecap:square;stroke-linejoin:miter;stroke-miterlimit:4.0000000;stroke-dashoffset:0.0000000;stroke-opacity:1.0000000;marker:none;marker-start:none;marker-mid:none;marker-end:none;visibility:visible;display:inline;overflow:visible" />
          <rect
             y="842.34937"
             x="521.00000"
             height="2.0000000"
             width="2.0000000"
             id="use13741"
             style="color:#000000;fill:#fff700;fill-opacity:1.0000000;fill-rule:nonzero;stroke:none;stroke-width:1.8000000;stroke-linecap:square;stroke-linejoin:miter;stroke-miterlimit:4.0000000;stroke-dashoffset:0.0000000;stroke-opacity:1.0000000;marker:none;marker-start:none;marker-mid:none;marker-end:none;visibility:visible;display:inline;overflow:visible" />
          <rect
             y="844.34937"
             x="523.00000"
             height="2.0000000"
             width="2.0000000"
             id="use13743"
             style="color:#000000;fill:#fff700;fill-opacity:1.0000000;fill-rule:nonzero;stroke:none;stroke-width:1.8000000;stroke-linecap:square;stroke-linejoin:miter;stroke-miterlimit:4.0000000;stroke-dashoffset:0.0000000;stroke-opacity:1.0000000;marker:none;marker-start:none;marker-mid:none;marker-end:none;visibility:visible;display:inline;overflow:visible" />
          <rect
             y="826.34937"
             x="525.00000"
             height="2.0000000"
             width="2.0000000"
             id="use13745"
             style="color:#000000;fill:#fff700;fill-opacity:1.0000000;fill-rule:nonzero;stroke:none;stroke-width:1.8000000;stroke-linecap:square;stroke-linejoin:miter;stroke-miterlimit:4.0000000;stroke-dashoffset:0.0000000;stroke-opacity:1.0000000;marker:none;marker-start:none;marker-mid:none;marker-end:none;visibility:visible;display:inline;overflow:visible" />
          <rect
             y="844.34937"
             x="527.00000"
             height="2.0000000"
             width="2.0000000"
             id="use13751"
             style="color:#000000;fill:#fff700;fill-opacity:1.0000000;fill-rule:nonzero;stroke:none;stroke-width:1.8000000;stroke-linecap:square;stroke-linejoin:miter;stroke-miterlimit:4.0000000;stroke-dashoffset:0.0000000;stroke-opacity:1.0000000;marker:none;marker-start:none;marker-mid:none;marker-end:none;visibility:visible;display:inline;overflow:visible" />
          <rect
             y="826.34937"
             x="529.00000"
             height="2.0000000"
             width="2.0000000"
             id="use13753"
             style="color:#000000;fill:#fff700;fill-opacity:1.0000000;fill-rule:nonzero;stroke:none;stroke-width:1.8000000;stroke-linecap:square;stroke-linejoin:miter;stroke-miterlimit:4.0000000;stroke-dashoffset:0.0000000;stroke-opacity:1.0000000;marker:none;marker-start:none;marker-mid:none;marker-end:none;visibility:visible;display:inline;overflow:visible" />
          <rect
             y="844.34937"
             x="531.00000"
             height="2.0000000"
             width="2.0000000"
             id="use13759"
             style="color:#000000;fill:#fff700;fill-opacity:1.0000000;fill-rule:nonzero;stroke:none;stroke-width:1.8000000;stroke-linecap:square;stroke-linejoin:miter;stroke-miterlimit:4.0000000;stroke-dashoffset:0.0000000;stroke-opacity:1.0000000;marker:none;marker-start:none;marker-mid:none;marker-end:none;visibility:visible;display:inline;overflow:visible" />
          <rect
             y="826.34937"
             x="533.00000"
             height="2.0000000"
             width="2.0000000"
             id="use13761"
             style="color:#000000;fill:#fff700;fill-opacity:1.0000000;fill-rule:nonzero;stroke:none;stroke-width:1.8000000;stroke-linecap:square;stroke-linejoin:miter;stroke-miterlimit:4.0000000;stroke-dashoffset:0.0000000;stroke-opacity:1.0000000;marker:none;marker-start:none;marker-mid:none;marker-end:none;visibility:visible;display:inline;overflow:visible" />
          <rect
             y="844.34937"
             x="535.00000"
             height="2.0000000"
             width="2.0000000"
             id="use13767"
             style="color:#000000;fill:#fff700;fill-opacity:1.0000000;fill-rule:nonzero;stroke:none;stroke-width:1.8000000;stroke-linecap:square;stroke-linejoin:miter;stroke-miterlimit:4.0000000;stroke-dashoffset:0.0000000;stroke-opacity:1.0000000;marker:none;marker-start:none;marker-mid:none;marker-end:none;visibility:visible;display:inline;overflow:visible" />
          <rect
             y="826.34937"
             x="537.00000"
             height="2.0000000"
             width="2.0000000"
             id="use13769"
             style="color:#000000;fill:#fff700;fill-opacity:1.0000000;fill-rule:nonzero;stroke:none;stroke-width:1.8000000;stroke-linecap:square;stroke-linejoin:miter;stroke-miterlimit:4.0000000;stroke-dashoffset:0.0000000;stroke-opacity:1.0000000;marker:none;marker-start:none;marker-mid:none;marker-end:none;visibility:visible;display:inline;overflow:visible" />
          <rect
             y="828.34937"
             x="539.00000"
             height="2.0000000"
             width="2.0000000"
             id="use13771"
             style="color:#000000;fill:#fff700;fill-opacity:1.0000000;fill-rule:nonzero;stroke:none;stroke-width:1.8000000;stroke-linecap:square;stroke-linejoin:miter;stroke-miterlimit:4.0000000;stroke-dashoffset:0.0000000;stroke-opacity:1.0000000;marker:none;marker-start:none;marker-mid:none;marker-end:none;visibility:visible;display:inline;overflow:visible" />
          <rect
             y="832.34937"
             x="539.00000"
             height="2.0000000"
             width="2.0000000"
             id="use13775"
             style="color:#000000;fill:#fff700;fill-opacity:1.0000000;fill-rule:nonzero;stroke:none;stroke-width:1.8000000;stroke-linecap:square;stroke-linejoin:miter;stroke-miterlimit:4.0000000;stroke-dashoffset:0.0000000;stroke-opacity:1.0000000;marker:none;marker-start:none;marker-mid:none;marker-end:none;visibility:visible;display:inline;overflow:visible" />
          <rect
             y="836.34937"
             x="539.00000"
             height="2.0000000"
             width="2.0000000"
             id="use13779"
             style="color:#000000;fill:#fff700;fill-opacity:1.0000000;fill-rule:nonzero;stroke:none;stroke-width:1.8000000;stroke-linecap:square;stroke-linejoin:miter;stroke-miterlimit:4.0000000;stroke-dashoffset:0.0000000;stroke-opacity:1.0000000;marker:none;marker-start:none;marker-mid:none;marker-end:none;visibility:visible;display:inline;overflow:visible" />
          <rect
             y="840.34937"
             x="539.00000"
             height="2.0000000"
             width="2.0000000"
             id="use13781"
             style="color:#000000;fill:#fff700;fill-opacity:1.0000000;fill-rule:nonzero;stroke:none;stroke-width:1.8000000;stroke-linecap:square;stroke-linejoin:miter;stroke-miterlimit:4.0000000;stroke-dashoffset:0.0000000;stroke-opacity:1.0000000;marker:none;marker-start:none;marker-mid:none;marker-end:none;visibility:visible;display:inline;overflow:visible" />
          <rect
             y="844.34937"
             x="539.00000"
             height="2.0000000"
             width="2.0000000"
             id="use13785"
             style="color:#000000;fill:#fff700;fill-opacity:1.0000000;fill-rule:nonzero;stroke:none;stroke-width:1.8000000;stroke-linecap:square;stroke-linejoin:miter;stroke-miterlimit:4.0000000;stroke-dashoffset:0.0000000;stroke-opacity:1.0000000;marker:none;marker-start:none;marker-mid:none;marker-end:none;visibility:visible;display:inline;overflow:visible" />
        </g>
        <g
           transform="translate(-8.000000,-40.00465)"
           id="g14029">
          <rect
             transform="translate(16.00000,4.647383e-3)"
             y="828.36218"
             x="480.00000"
             height="16.000000"
             width="16.000000"
             id="rect14053"
             style="color:#000000;fill:#ffece1;fill-opacity:1.0000000;fill-rule:nonzero;stroke:none;stroke-width:1.8000000;stroke-linecap:square;stroke-linejoin:miter;stroke-miterlimit:4.0000000;stroke-dashoffset:0.0000000;stroke-opacity:1.0000000;marker:none;marker-start:none;marker-mid:none;marker-end:none;visibility:visible;display:inline;overflow:visible" />
          <path
             id="path14051"
             d="M 496.82900,836.86451 L 497.15801,829.36218 L 502.99722,829.36218 C 506.20878,829.36218 509.54823,829.08904 510.41821,828.75519 C 511.78044,828.23246 512.00000,829.27352 512.00000,836.25519 L 512.00000,844.36218 L 504.25000,844.36451 L 496.50000,844.36683 L 496.82900,836.86451 z "
             style="fill:#ffd7bf;fill-opacity:1.0000000" />
          <path
             sodipodi:nodetypes="cccccccccccccczz"
             id="path14049"
             d="M 496.80000,843.16218 C 497.46000,842.50218 498.00000,839.35218 498.00000,836.16218 L 498.00000,830.36218 L 503.80000,830.36218 C 506.99000,830.36218 510.14000,829.82218 510.80000,829.16218 C 511.73333,828.22885 512.00000,829.78440 512.00000,836.16218 L 512.00000,844.36218 L 503.80000,844.36218 C 497.42222,844.36218 495.86667,844.09551 496.80000,843.16218 z M 507.95361,837.17217 C 508.00399,834.33452 507.77187,833.38514 507.07103,833.81828 C 506.48197,834.18234 505.91161,835.75141 505.91161,836.81895 C 505.91161,838.07359 505.71141,838.49476 504.45677,838.49476 C 503.38923,838.49476 501.82016,838.84415 501.45610,839.43321 C 501.02296,840.13405 501.86142,840.27700 505.03096,840.27160 C 508.15631,840.26620 507.90402,839.96607 507.95361,837.17217 z "
             style="fill:#ffc7a7;fill-opacity:1.0000000" />
          <path
             sodipodi:nodetypes="ccccccccc"
             id="path14047"
             d="M 497.50000,843.36218 C 497.83992,842.81218 500.79148,842.36218 504.05902,842.36218 L 510.00000,842.36218 L 510.01531,836.61218 C 510.02373,833.44968 510.46684,830.18718 511.00000,829.36218 C 511.66926,828.32657 511.97411,830.41631 511.98469,836.11218 L 512.00000,844.36218 L 504.44098,844.36218 C 499.65628,844.36218 497.10880,843.99516 497.50000,843.36218 z "
             style="fill:#ffbf9f;fill-opacity:1.0000000" />
          <path
             sodipodi:nodetypes="cccccccccczzcccz"
             id="path14045"
             d="M 503.70871,843.62051 L 510.91742,843.27623 L 511.25747,835.56920 L 511.59751,828.48718 L 511.79876,836.11218 L 512.00000,844.36218 L 504.25000,844.16348 L 496.50000,843.96479 L 503.70871,843.62051 z M 499.96567,835.22830 C 499.97047,832.00277 501.31997,832.37685 503.57322,832.37204 C 505.82681,832.36724 506.95581,832.35419 507.00000,833.29882 C 507.04419,834.24345 505.52145,834.31799 504.14645,834.31799 C 502.14645,834.31799 501.95581,834.37604 501.95581,836.37604 C 501.95581,837.75104 501.52149,839.36218 500.93664,839.36218 C 500.33934,839.36218 499.96112,838.28013 499.96567,835.22830 z "
             style="fill:#ffb383;fill-opacity:1.0000000" />
        </g>
      </g>
    </g>
  </g>
</svg>
