<?xml version="1.0" encoding="UTF-8" standalone="no"?>
<!-- Created with Inkscape (http://www.inkscape.org/) -->
<svg
   xmlns:dc="http://purl.org/dc/elements/1.1/"
   xmlns:cc="http://web.resource.org/cc/"
   xmlns:rdf="http://www.w3.org/1999/02/22-rdf-syntax-ns#"
   xmlns:svg="http://www.w3.org/2000/svg"
   xmlns="http://www.w3.org/2000/svg"
   xmlns:sodipodi="http://sodipodi.sourceforge.net/DTD/sodipodi-0.dtd"
   xmlns:inkscape="http://www.inkscape.org/namespaces/inkscape"
   sodipodi:docname="31.svg"
   sodipodi:docbase="/home/adam/workspace/escape-java-apps/src/org/spacebar/escape/j2se/resources/tiles"
   inkscape:version="0.45.1"
   sodipodi:version="0.32"
   id="svg15582"
   height="32px"
   width="32px"
   inkscape:output_extension="org.inkscape.output.svg.inkscape">
  <defs
     id="defs3" />
  <sodipodi:namedview
     inkscape:window-y="113"
     inkscape:window-x="84"
     inkscape:window-height="800"
     inkscape:window-width="1042"
     inkscape:document-units="px"
     inkscape:grid-bbox="true"
     showgrid="true"
     inkscape:current-layer="g14056"
     inkscape:cy="14.649023"
     inkscape:cx="11.776262"
     inkscape:zoom="15.836083"
     inkscape:pageshadow="2"
     inkscape:pageopacity="0.0"
     borderopacity="1.0"
     bordercolor="#666666"
     pagecolor="#ffffff"
     id="base" />
  <metadata
     id="metadata4">
    <rdf:RDF>
      <cc:Work
         rdf:about="">
        <dc:format>image/svg+xml</dc:format>
        <dc:type
           rdf:resource="http://purl.org/dc/dcmitype/StillImage" />
      </cc:Work>
    </rdf:RDF>
  </metadata>
  <g
     inkscape:groupmode="layer"
     inkscape:label="Layer 1"
     id="layer1">
    <g
       id="g14056"
       transform="translate(-480,-780.3622)">
      <g
         id="g14029"
         transform="translate(-8,-40.00465)">
        <rect
           style="color:black;fill:#ffece1;fill-opacity:1;fill-rule:nonzero;stroke:none;stroke-width:1.79999995;stroke-linecap:square;stroke-linejoin:miter;marker:none;marker-start:none;marker-mid:none;marker-end:none;stroke-miterlimit:4;stroke-dashoffset:0;stroke-opacity:1;visibility:visible;display:inline;overflow:visible"
           id="rect14053"
           width="16"
           height="16"
           x="480"
           y="828.36218"
           transform="translate(16,4.647383e-3)" />
        <path
           style="fill:#ffd7bf;fill-opacity:1"
           d="M 496.829,836.86451 L 497.15801,829.36218 L 502.99722,829.36218 C 506.20878,829.36218 509.54823,829.08904 510.41821,828.75519 C 511.78044,828.23246 512,829.27352 512,836.25519 L 512,844.36218 L 504.25,844.36451 L 496.5,844.36683 L 496.829,836.86451 z "
           id="path14051" />
        <path
           style="fill:#ffc7a7;fill-opacity:1"
           d="M 496.8,843.16218 C 497.46,842.50218 498,839.35218 498,836.16218 L 498,830.36218 L 503.8,830.36218 C 506.99,830.36218 510.14,829.82218 510.8,829.16218 C 511.73333,828.22885 512,829.7844 512,836.16218 L 512,844.36218 L 503.8,844.36218 C 497.42222,844.36218 495.86667,844.09551 496.8,843.16218 z M 507.95361,837.17217 C 508.00399,834.33452 507.77187,833.38514 507.07103,833.81828 C 506.48197,834.18234 505.91161,835.75141 505.91161,836.81895 C 505.91161,838.07359 505.71141,838.49476 504.45677,838.49476 C 503.38923,838.49476 501.82016,838.84415 501.4561,839.43321 C 501.02296,840.13405 501.86142,840.277 505.03096,840.2716 C 508.15631,840.2662 507.90402,839.96607 507.95361,837.17217 z "
           id="path14049"
           sodipodi:nodetypes="cccccccccccccczz" />
        <path
           style="fill:#ffbf9f;fill-opacity:1"
           d="M 497.5,843.36218 C 497.83992,842.81218 500.79148,842.36218 504.05902,842.36218 L 510,842.36218 L 510.01531,836.61218 C 510.02373,833.44968 510.46684,830.18718 511,829.36218 C 511.66926,828.32657 511.97411,830.41631 511.98469,836.11218 L 512,844.36218 L 504.44098,844.36218 C 499.65628,844.36218 497.1088,843.99516 497.5,843.36218 z "
           id="path14047"
           sodipodi:nodetypes="ccccccccc" />
        <path
           style="fill:#ffb383;fill-opacity:1"
           d="M 503.70871,843.62051 L 510.91742,843.27623 L 511.25747,835.5692 L 511.59751,828.48718 L 511.79876,836.11218 L 512,844.36218 L 504.25,844.16348 L 496.5,843.96479 L 503.70871,843.62051 z M 499.96567,835.2283 C 499.97047,832.00277 501.31997,832.37685 503.57322,832.37204 C 505.82681,832.36724 506.95581,832.35419 507,833.29882 C 507.04419,834.24345 505.52145,834.31799 504.14645,834.31799 C 502.14645,834.31799 501.95581,834.37604 501.95581,836.37604 C 501.95581,837.75104 501.52149,839.36218 500.93664,839.36218 C 500.33934,839.36218 499.96112,838.28013 499.96567,835.2283 z "
           id="path14045"
           sodipodi:nodetypes="cccccccccczzcccz" />
      </g>
    </g>
  </g>
</svg>
