<?xml version="1.0" encoding="UTF-8" standalone="no"?>
<!-- Created with Inkscape (http://www.inkscape.org/) -->
<svg
   xmlns:dc="http://purl.org/dc/elements/1.1/"
   xmlns:cc="http://web.resource.org/cc/"
   xmlns:rdf="http://www.w3.org/1999/02/22-rdf-syntax-ns#"
   xmlns:svg="http://www.w3.org/2000/svg"
   xmlns="http://www.w3.org/2000/svg"
   xmlns:sodipodi="http://sodipodi.sourceforge.net/DTD/sodipodi-0.dtd"
   xmlns:inkscape="http://www.inkscape.org/namespaces/inkscape"
   sodipodi:docname="33.svg"
   sodipodi:docbase="/home/adam/workspace/Escape-j2se/src/org/spacebar/escape/j2se/resources/tiles"
   inkscape:version="0.44.1"
   sodipodi:version="0.32"
   id="svg15582"
   height="32px"
   width="32px">
  <defs
     id="defs3" />
  <sodipodi:namedview
     inkscape:window-y="285"
     inkscape:window-x="363"
     inkscape:window-height="620"
     inkscape:window-width="906"
     inkscape:document-units="px"
     inkscape:grid-bbox="true"
     showgrid="true"
     inkscape:current-layer="layer1"
     inkscape:cy="15.999999"
     inkscape:cx="16"
     inkscape:zoom="11.197802"
     inkscape:pageshadow="2"
     inkscape:pageopacity="0.0"
     borderopacity="1.0"
     bordercolor="#666666"
     pagecolor="#ffffff"
     id="base" />
  <metadata
     id="metadata4">
    <rdf:RDF>
      <cc:Work
         rdf:about="">
        <dc:format>image/svg+xml</dc:format>
        <dc:type
           rdf:resource="http://purl.org/dc/dcmitype/StillImage" />
      </cc:Work>
    </rdf:RDF>
  </metadata>
  <g
     inkscape:groupmode="layer"
     inkscape:label="Layer 1"
     id="layer1">
    <path
       style="fill:#cb0000;fill-opacity:1"
       d="M 13.05019,19.57335 C 12.3931,18.78161 12.0005,16.86911 12.17774,15.32335 C 12.43473,13.08207 13.06919,12.44761 15.31047,12.19062 C 20.47792,11.59811 22.85977,16.01983 19.17126,19.35789 C 16.92046,21.39483 14.62883,21.4755 13.05019,19.57335 z "
       id="path13625" />
    <path
       style="fill:#a70000;fill-opacity:1"
       d="M 13.39497,18.84294 C 12.89853,18.03968 13.23317,17.88838 14.4627,18.36019 C 16.91161,19.29993 19.1974,17.21019 18.41544,14.74647 C 17.99837,13.43238 18.15958,12.99347 18.89287,13.44667 C 20.35581,14.35082 20.30463,17.30825 18.8,18.81288 C 17.26919,20.34369 14.33258,20.36002 13.39497,18.84294 z "
       id="path13627" />
    <path
       style="fill:red;fill-opacity:1"
       d="M 17.55169,13.02672 C 18.15934,13.67126 15.24554,12.63372 13.89021,13.72822 C 12.51974,14.83495 13.56729,17.7832 12.96004,17.01674 C 12.39066,16.29808 11.87894,14.98075 13.39666,13.46303 C 14.91438,11.94531 16.92914,12.36637 17.55169,13.02672 z "
       id="path13629"
       sodipodi:nodetypes="czzzz" />
  </g>
</svg>
