<?xml version="1.0" encoding="UTF-8" standalone="no"?>
<!-- Created with Inkscape (http://www.inkscape.org/) -->
<svg
   xmlns:dc="http://purl.org/dc/elements/1.1/"
   xmlns:cc="http://web.resource.org/cc/"
   xmlns:rdf="http://www.w3.org/1999/02/22-rdf-syntax-ns#"
   xmlns:svg="http://www.w3.org/2000/svg"
   xmlns="http://www.w3.org/2000/svg"
   xmlns:xlink="http://www.w3.org/1999/xlink"
   xmlns:sodipodi="http://inkscape.sourceforge.net/DTD/sodipodi-0.dtd"
   xmlns:inkscape="http://www.inkscape.org/namespaces/inkscape"
   width="32px"
   height="32px"
   id="svg6030"
   sodipodi:version="0.32"
   inkscape:version="0.43"
   sodipodi:docbase="/home/adam/workspace/Escape-j2se/src/org/spacebar/escape/j2se/resources/tiles"
   sodipodi:docname="43.svg">
  <defs
     id="defs3">
    <linearGradient
       y2="301.93048"
       x2="-11.715828"
       y1="296.69754"
       x1="-12.766315"
       spreadMethod="pad"
       gradientTransform="scale(1.732051,0.577350)"
       gradientUnits="userSpaceOnUse"
       id="linearGradient8140"
       xlink:href="#linearGradient2685"
       inkscape:collect="always" />
    <linearGradient
       y2="264.46930"
       x2="-14.394111"
       y1="262.63419"
       x1="-15.950862"
       gradientTransform="scale(1.525896,0.655353)"
       gradientUnits="userSpaceOnUse"
       id="linearGradient8138"
       xlink:href="#linearGradient2615"
       inkscape:collect="always" />
    <linearGradient
       y2="301.78308"
       x2="-10.865437"
       y1="296.69754"
       x1="-12.766315"
       spreadMethod="pad"
       gradientTransform="scale(1.732051,0.577350)"
       gradientUnits="userSpaceOnUse"
       id="linearGradient8136"
       xlink:href="#linearGradient2685"
       inkscape:collect="always" />
    <linearGradient
       y2="264.46930"
       x2="-14.394111"
       y1="262.63419"
       x1="-15.950862"
       gradientTransform="scale(1.525896,0.655353)"
       gradientUnits="userSpaceOnUse"
       id="linearGradient8134"
       xlink:href="#linearGradient2615"
       inkscape:collect="always" />
    <linearGradient
       y2="302.96234"
       x2="-10.565296"
       y1="298.17163"
       x1="-12.266085"
       spreadMethod="pad"
       gradientTransform="scale(1.732051,0.577350)"
       gradientUnits="userSpaceOnUse"
       id="linearGradient8132"
       xlink:href="#linearGradient2685"
       inkscape:collect="always" />
    <linearGradient
       y2="264.46930"
       x2="-14.394111"
       y1="262.63419"
       x1="-15.950862"
       gradientTransform="scale(1.525896,0.655353)"
       gradientUnits="userSpaceOnUse"
       id="linearGradient8130"
       xlink:href="#linearGradient2615"
       inkscape:collect="always" />
    <linearGradient
       y2="301.41449"
       x2="-11.015503"
       y1="297.28717"
       x1="-12.116015"
       spreadMethod="pad"
       gradientTransform="scale(1.732051,0.577350)"
       gradientUnits="userSpaceOnUse"
       id="linearGradient8128"
       xlink:href="#linearGradient2685"
       inkscape:collect="always" />
    <linearGradient
       y2="264.46930"
       x2="-14.394111"
       y1="262.63419"
       x1="-15.950862"
       gradientTransform="scale(1.525896,0.655353)"
       gradientUnits="userSpaceOnUse"
       id="linearGradient8126"
       xlink:href="#linearGradient2615"
       inkscape:collect="always" />
    <linearGradient
       y2="302.22537"
       x2="-11.990957"
       y1="297.50821"
       x1="-12.641255"
       spreadMethod="pad"
       gradientTransform="scale(1.732051,0.577350)"
       gradientUnits="userSpaceOnUse"
       id="linearGradient8124"
       xlink:href="#linearGradient2685"
       inkscape:collect="always" />
    <linearGradient
       y2="264.46930"
       x2="-14.394111"
       y1="262.63419"
       x1="-15.950862"
       gradientTransform="scale(1.525896,0.655353)"
       gradientUnits="userSpaceOnUse"
       id="linearGradient8122"
       xlink:href="#linearGradient2615"
       inkscape:collect="always" />
    <linearGradient
       y2="303.10980"
       x2="-9.8899860"
       y1="297.43451"
       x1="-13.241533"
       spreadMethod="pad"
       gradientTransform="scale(1.732051,0.577350)"
       gradientUnits="userSpaceOnUse"
       id="linearGradient8120"
       xlink:href="#linearGradient2685"
       inkscape:collect="always" />
    <linearGradient
       y2="264.46930"
       x2="-14.394111"
       y1="262.63419"
       x1="-15.950862"
       gradientTransform="scale(1.525896,0.655353)"
       gradientUnits="userSpaceOnUse"
       id="linearGradient8118"
       xlink:href="#linearGradient2615"
       inkscape:collect="always" />
    <linearGradient
       y2="302.37277"
       x2="-11.715830"
       y1="296.62378"
       x1="-12.616244"
       spreadMethod="pad"
       gradientTransform="scale(1.732051,0.577350)"
       gradientUnits="userSpaceOnUse"
       id="linearGradient8116"
       xlink:href="#linearGradient2685"
       inkscape:collect="always" />
    <linearGradient
       y2="264.46930"
       x2="-14.394111"
       y1="262.63419"
       x1="-15.950862"
       gradientTransform="scale(1.525896,0.655353)"
       gradientUnits="userSpaceOnUse"
       id="linearGradient8114"
       xlink:href="#linearGradient2615"
       inkscape:collect="always" />
    <linearGradient
       y2="302.22537"
       x2="-10.065067"
       y1="298.02402"
       x1="-11.940928"
       spreadMethod="pad"
       gradientTransform="scale(1.732051,0.577350)"
       gradientUnits="userSpaceOnUse"
       id="linearGradient8112"
       xlink:href="#linearGradient2685"
       inkscape:collect="always" />
    <linearGradient
       y2="264.46930"
       x2="-14.394111"
       y1="262.63419"
       x1="-15.950862"
       gradientTransform="scale(1.525896,0.655353)"
       gradientUnits="userSpaceOnUse"
       id="linearGradient8110"
       xlink:href="#linearGradient2615"
       inkscape:collect="always" />
    <pattern
       patternTransform="translate(0.000000,140.3622)"
       id="pattern7397"
       xlink:href="#pattern6922"
       inkscape:collect="always" />
    <pattern
       patternTransform="translate(0.000000,140.3622)"
       id="pattern6922"
       xlink:href="#pattern6914"
       inkscape:collect="always" />
    <pattern
       id="pattern6914"
       patternTransform="translate(-16.00000,140.3622)"
       height="32.000000"
       width="32.000000"
       patternUnits="userSpaceOnUse">
      <rect
         transform="translate(16.00000,-140.3622)"
         inkscape:export-ydpi="360.00000"
         inkscape:export-xdpi="360.00000"
         style="fill:#c4c4c4;fill-opacity:1.0000000;fill-rule:evenodd;stroke:none;stroke-width:0.72500002;stroke-linecap:square;stroke-linejoin:miter;stroke-miterlimit:4.0000000;stroke-dashoffset:0.0000000;stroke-opacity:1.0000000"
         id="rect6916"
         width="32.000000"
         height="32.000000"
         x="-16.000000"
         y="140.36218"
         inkscape:export-filename="/home/adam/brick.png" />
    </pattern>
    <linearGradient
       id="linearGradient2615">
      <stop
         id="stop2617"
         offset="0.0000000"
         style="stop-color:#eaeaea;stop-opacity:1.0000000;" />
      <stop
         id="stop2619"
         offset="1"
         style="stop-color:#dfdfdf;stop-opacity:0;" />
    </linearGradient>
    <linearGradient
       id="linearGradient2685">
      <stop
         id="stop2687"
         offset="0.0000000"
         style="stop-color:#c8c8c8;stop-opacity:1.0000000;" />
      <stop
         id="stop2689"
         offset="1.0000000"
         style="stop-color:#919191;stop-opacity:1.0000000;" />
    </linearGradient>
  </defs>
  <sodipodi:namedview
     id="base"
     pagecolor="#ffffff"
     bordercolor="#666666"
     borderopacity="1.0"
     inkscape:pageopacity="0.0"
     inkscape:pageshadow="2"
     inkscape:zoom="11.197802"
     inkscape:cx="16"
     inkscape:cy="15.999999"
     inkscape:current-layer="g6227"
     showgrid="true"
     inkscape:grid-bbox="true"
     inkscape:document-units="px"
     inkscape:window-width="792"
     inkscape:window-height="541"
     inkscape:window-x="615"
     inkscape:window-y="141" />
  <metadata
     id="metadata4">
    <rdf:RDF>
      <cc:Work
         rdf:about="">
        <dc:format>image/svg+xml</dc:format>
        <dc:type
           rdf:resource="http://purl.org/dc/dcmitype/StillImage" />
      </cc:Work>
    </rdf:RDF>
  </metadata>
  <g
     id="layer1"
     inkscape:label="Layer 1"
     inkscape:groupmode="layer">
    <g
       inkscape:groupmode="layer"
       inkscape:label="Layer 1"
       id="g6227"
       transform="translate(14.72031,10.90972)" />
    <g
       id="g5988"
       transform="translate(-207.9453,-252.3931)">
      <path
         sodipodi:nodetypes="ccccz"
         id="path5990"
         d="M 222.23131,254.44766 C 218.57506,255.07266 208.16881,261.38516 210.16881,265.38516 C 212.16881,269.38516 219.85631,265.69766 221.85631,265.69766 C 223.85631,265.69766 237.85631,264.69766 235.85631,260.69766 C 233.85631,256.69766 225.88756,253.82266 222.23131,254.44766 z "
         style="fill:#c3c3c3;fill-opacity:1.0000000;fill-rule:evenodd;stroke:none;stroke-width:1.0000000px;stroke-linecap:butt;stroke-linejoin:miter;stroke-opacity:1.0000000" />
      <path
         style="fill:#854040;fill-opacity:1.0000000"
         d="M 216.37005,282.97675 C 214.64857,282.19736 212.93452,281.06524 212.56103,280.46093 C 212.18755,279.85662 209.82167,277.02334 209.03875,274.96411 C 207.14298,269.97784 207.77040,262.97960 210.46986,259.00173 C 211.99012,256.76150 215.60000,254.17680 218.62500,253.34721 C 223.84657,251.91523 234.15802,255.13122 236.57102,258.68697 C 239.22900,262.60372 240.84390,270.01235 238.96125,274.96411 C 238.17833,277.02334 235.58850,280.34587 233.96231,281.54817 C 230.25553,284.28871 220.93890,285.04526 216.37005,282.97675 z M 216.86712,261.86218 C 222.35512,257.91944 227.79923,257.23341 232.02749,259.95175 C 233.77989,261.07837 233.54885,260.64150 231.23422,258.45175 C 227.59415,255.00808 223.95811,254.50621 218.71788,256.72416 C 215.31508,258.16442 212.71114,260.71414 211.68338,263.61218 C 210.82872,266.02215 211.29660,265.86419 216.86712,261.86218 z "
         id="path5992"
         sodipodi:nodetypes="ccccccccccccccc" />
      <path
         style="fill:#893434;fill-opacity:1.0000000"
         d="M 216.07108,282.66705 C 210.89115,279.94050 208.68527,276.25759 208.25991,269.62562 C 207.59380,259.24015 212.67916,253.26715 222.73656,252.62209 C 233.12203,251.95598 239.09503,257.04134 239.74009,267.09874 C 240.16361,273.70201 238.21995,278.45903 233.76344,281.72631 C 229.89396,284.56321 220.61114,285.05680 216.07108,282.66705 z M 230.85674,271.43527 C 232.93412,270.37547 235.15528,268.88000 235.79265,268.11202 C 236.75129,266.95693 236.42334,266.79320 233.89440,267.16437 C 232.21299,267.41115 229.74890,267.03057 228.41864,266.31864 C 226.43772,265.25848 225.50231,265.25999 223.25000,266.32700 C 221.73750,267.04352 219.51707,268.07978 218.31571,268.62979 C 217.11435,269.17980 215.16043,269.37589 213.97366,269.06554 C 211.92224,268.52908 211.89948,268.59363 213.51191,270.37534 C 216.45841,273.63119 225.47261,274.18204 230.85674,271.43527 z M 216.61578,262.92938 C 219.08847,261.04134 222.40363,259.21280 223.98280,258.86596 C 227.01980,258.19892 231.64380,260.02313 233.94528,262.79624 C 234.66006,263.65751 235.66269,264.36218 236.17334,264.36218 C 238.11875,264.36218 231.38218,257.00199 228.23210,255.68580 C 222.09009,253.11950 212.87280,257.46756 211.42924,263.61218 C 210.59683,267.15543 211.18199,267.07839 216.61578,262.92938 z "
         id="path5994" />
      <path
         style="fill:#682f2f;fill-opacity:1.0000000"
         d="M 216.07108,282.66705 C 210.89115,279.94050 208.68527,276.25759 208.25991,269.62562 C 207.59380,259.24015 212.67916,253.26715 222.73656,252.62209 C 233.12203,251.95598 239.09503,257.04134 239.74009,267.09874 C 240.16361,273.70201 238.21995,278.45903 233.76344,281.72631 C 229.89396,284.56321 220.61114,285.05680 216.07108,282.66705 z M 232.05294,273.30049 C 234.00706,272.32265 236.13491,270.36150 236.78150,268.94239 C 237.85116,266.59475 237.75625,266.35528 235.72856,266.28567 C 234.50285,266.24359 232.60000,265.97825 231.50000,265.69602 C 225.79511,264.23234 223.04890,264.28553 219.88629,265.92098 C 218.02845,266.88171 215.04887,267.61289 213.26499,267.54583 C 210.34705,267.43613 210.13769,267.60980 211.17860,269.27655 C 212.51352,271.41411 216.99404,274.23588 220.84264,275.36283 C 224.02255,276.29398 227.26153,275.69811 232.05294,273.30049 z M 216.61578,262.92938 C 219.08847,261.04134 222.40363,259.21280 223.98280,258.86596 C 227.01980,258.19892 231.64380,260.02313 233.94528,262.79624 C 234.66006,263.65751 235.66269,264.36218 236.17334,264.36218 C 238.11875,264.36218 231.38218,257.00199 228.23210,255.68580 C 222.09009,253.11950 212.87280,257.46756 211.42924,263.61218 C 210.59683,267.15543 211.18199,267.07839 216.61578,262.92938 z "
         id="path5996" />
      <path
         style="fill:#551c1c;fill-opacity:1.0000000"
         d="M 216.07108,282.66705 C 210.89115,279.94050 208.68527,276.25759 208.25991,269.62562 C 207.59380,259.24015 212.67916,253.26715 222.73656,252.62209 C 233.12203,251.95598 239.09503,257.04134 239.74009,267.09874 C 240.16361,273.70201 238.21995,278.45903 233.76344,281.72631 C 229.89396,284.56321 220.61114,285.05680 216.07108,282.66705 z M 231.18261,276.54190 C 233.63056,275.55302 238.74481,268.10251 238.17558,266.35447 C 237.14869,263.20100 230.74714,256.46968 227.79701,255.44126 C 221.08238,253.10053 213.03954,257.57765 211.02345,264.77843 C 209.94680,268.62385 209.98569,269.49073 211.29356,270.79859 C 212.13389,271.63892 212.97951,272.80071 213.17272,273.38034 C 214.08070,276.10429 226.75722,278.32959 231.18261,276.54190 z "
         id="path5998" />
      <path
         style="fill:#2d1313;fill-opacity:1.0000000"
         d="M 217.45042,282.95558 C 207.36057,278.56072 204.97774,265.14914 212.88235,257.24453 C 219.36890,250.75798 228.63110,250.75798 235.11765,257.24453 C 247.52887,269.65576 233.56642,289.97527 217.45042,282.95558 z M 225.75000,282.67285 C 224.78750,282.42133 223.21250,282.42133 222.25000,282.67285 C 221.28750,282.92438 222.07500,283.13018 224.00000,283.13018 C 225.92500,283.13018 226.71250,282.92438 225.75000,282.67285 z M 217.50000,280.82602 C 215.85000,279.98791 213.71250,278.36583 212.75000,277.22140 C 211.78750,276.07696 211.00000,275.60785 211.00000,276.17892 C 211.00000,277.60047 217.14774,282.33884 219.00000,282.34493 C 219.82500,282.34764 219.15000,281.66413 217.50000,280.82602 z M 235.56743,278.25308 C 235.94078,277.64898 235.06584,277.92816 233.62312,278.87346 C 232.18041,279.81877 231.00000,280.78128 231.00000,281.01237 C 231.00000,281.73575 234.85397,279.40747 235.56743,278.25308 z M 233.99312,274.67388 C 235.91500,272.57745 237.82777,270.97468 238.24372,271.11218 C 239.68826,271.58970 238.94503,265.83785 237.01181,261.57841 C 235.52753,258.30812 234.05406,256.83465 230.78377,255.35037 C 225.41484,252.91358 222.60386,252.90495 217.30867,255.30898 C 210.80329,258.26245 207.25456,266.89264 210.09081,272.86218 C 210.97632,274.72594 211.01197,274.70891 210.61415,272.61218 C 210.37935,271.37468 210.59511,270.36218 211.09362,270.36218 C 211.59213,270.36218 212.00000,271.01428 212.00000,271.81129 C 212.00000,273.45240 217.47441,277.88441 220.50000,278.69277 C 225.48921,280.02576 230.43817,278.55173 233.99312,274.67388 z "
         id="path6000" />
    </g>
  </g>
</svg>
