<?xml version="1.0" encoding="UTF-8" standalone="no"?>
<!-- Created with Inkscape (http://www.inkscape.org/) -->
<svg
   xmlns:dc="http://purl.org/dc/elements/1.1/"
   xmlns:cc="http://web.resource.org/cc/"
   xmlns:rdf="http://www.w3.org/1999/02/22-rdf-syntax-ns#"
   xmlns:svg="http://www.w3.org/2000/svg"
   xmlns="http://www.w3.org/2000/svg"
   xmlns:sodipodi="http://inkscape.sourceforge.net/DTD/sodipodi-0.dtd"
   xmlns:inkscape="http://www.inkscape.org/namespaces/inkscape"
   sodipodi:docname="46.svg"
   sodipodi:docbase="/home/adam/workspace/Escape-j2se/src/org/spacebar/escape/j2se/resources/tiles"
   inkscape:version="0.43"
   sodipodi:version="0.32"
   id="svg9200"
   height="32px"
   width="32px">
  <defs
     id="defs3" />
  <sodipodi:namedview
     inkscape:window-y="102"
     inkscape:window-x="553"
     inkscape:window-height="541"
     inkscape:window-width="792"
     inkscape:document-units="px"
     inkscape:grid-bbox="true"
     showgrid="true"
     inkscape:current-layer="layer1"
     inkscape:cy="15.999999"
     inkscape:cx="16"
     inkscape:zoom="11.197802"
     inkscape:pageshadow="2"
     inkscape:pageopacity="0.0"
     borderopacity="1.0"
     bordercolor="#666666"
     pagecolor="#ffffff"
     id="base" />
  <metadata
     id="metadata4">
    <rdf:RDF>
      <cc:Work
         rdf:about="">
        <dc:format>image/svg+xml</dc:format>
        <dc:type
           rdf:resource="http://purl.org/dc/dcmitype/StillImage" />
      </cc:Work>
    </rdf:RDF>
  </metadata>
  <g
     inkscape:groupmode="layer"
     inkscape:label="Layer 1"
     id="layer1">
    <g
       style="opacity:1.0000000"
       id="g7307"
       transform="translate(-425.4965,-209.3703)">
      <path
         style="fill:#c19a56"
         d="M 437.68304,235.43074 C 437.36767,234.60890 428.32327,239.88814 427.81114,238.27458 C 427.46645,237.18856 427.76095,233.67500 427.24335,233.67500 C 426.72575,233.67500 427.83166,222.50581 427.91596,218.47957 C 428.03971,212.56822 425.79114,211.71501 427.24657,210.90058 C 428.50632,210.19565 431.35591,212.37553 432.35883,213.20788 C 433.19600,213.90267 451.26874,211.50000 450.90596,213.42500 L 450.31921,221.40357 C 452.57136,221.42432 456.84821,219.75123 457.11168,223.83679 C 457.32497,227.14407 451.35116,226.64858 449.86168,228.74035 C 447.28470,232.35939 454.09482,237.49706 453.47998,238.84649 C 452.05328,241.97776 448.26752,242.29636 447.48811,239.31589 C 446.97064,237.33708 445.58753,236.71208 443.07188,238.69089 C 440.05441,241.06443 438.44840,237.42525 437.68304,235.43074 z "
         id="path7333"
         sodipodi:nodetypes="cccccccccccccc" />
      <path
         style="fill:#a38052"
         d="M 438.56936,238.73275 C 438.17981,237.71758 433.81921,238.36608 433.81921,239.33069 C 433.81921,239.43923 432.63963,238.16772 431.19792,238.34162 C 429.22508,238.57957 428.03888,237.97115 427.20959,236.15105 C 426.60356,234.82096 427.89679,233.85991 428.23157,232.98750 C 428.56634,232.11509 427.35593,228.68003 426.61120,226.42349 C 425.53192,223.15322 429.88085,222.65297 428.98850,221.57775 C 428.13054,220.54397 427.26488,215.88885 427.08721,214.56210 C 426.65511,211.33553 429.05529,208.21859 430.82226,210.63506 C 431.78806,211.95587 442.64527,214.45859 445.60888,214.08831 C 450.98311,211.80746 455.26477,210.23493 455.92623,212.87037 C 456.46426,215.01407 456.10845,215.96092 454.21221,217.43149 L 451.81921,219.28732 L 454.08015,219.91315 C 456.40205,220.55586 457.77617,223.73251 457.13312,226.97091 C 456.87847,228.25329 456.03004,228.71688 454.29456,228.52190 C 452.09832,228.27516 452.02279,228.36883 453.62466,229.35262 C 455.04188,230.22301 455.17910,230.76390 454.26279,231.86799 C 453.62076,232.64159 453.35818,233.95917 453.67928,234.79595 C 454.00038,235.63273 453.39493,236.73135 452.87397,238.10157 C 451.66505,241.28128 448.11214,241.81386 447.32022,238.78556 C 446.80275,236.80675 445.46881,236.62997 442.95316,238.60878 C 439.99849,240.93292 439.27099,240.56115 438.56936,238.73275 z M 450.50671,238.61689 C 449.78483,238.32802 448.92233,238.36354 448.59004,238.69583 C 448.25775,239.02813 448.84838,239.26447 449.90254,239.22105 C 451.06749,239.17307 451.30444,238.93611 450.50671,238.61689 z M 440.68084,236.80000 C 439.94381,234.87933 439.31921,234.87933 439.31921,236.80000 C 439.31921,237.62500 439.75509,238.30000 440.28782,238.30000 C 440.82056,238.30000 440.99742,237.62500 440.68084,236.80000 z M 430.60442,235.31735 C 431.04771,233.62222 430.84303,233.48448 429.19305,234.36752 C 428.13163,234.93558 427.52735,235.82777 427.85022,236.35017 C 428.80932,237.90203 430.05020,237.43670 430.60442,235.31735 z M 449.31921,233.80000 C 449.31921,232.08244 447.65465,230.97465 446.31651,231.80167 C 445.65111,232.21291 445.66799,233.08319 446.36668,234.38870 C 447.48490,236.47811 449.31921,236.11237 449.31921,233.80000 z M 438.69301,233.17554 C 440.96651,232.13967 441.36994,229.30000 439.24361,229.30000 C 438.76971,229.30000 438.64977,229.99786 438.97708,230.85080 C 439.44851,232.07934 439.06103,232.27331 437.11236,231.78422 C 435.28333,231.32516 434.65254,231.56858 434.65254,232.73342 C 434.65254,234.59517 435.39821,234.67676 438.69301,233.17554 z M 447.69278,226.83112 C 447.39628,226.05846 446.51593,225.67102 445.73645,225.97013 C 443.98425,226.64251 443.89844,227.98240 445.56921,228.58172 C 447.37377,229.22903 448.31515,228.45299 447.69278,226.83112 z M 453.62705,224.23083 C 454.33912,221.50788 453.03875,221.84199 451.70219,224.72539 C 450.82755,226.61227 450.86041,227.02955 451.85365,226.64841 C 452.55131,226.38069 453.34934,225.29278 453.62705,224.23083 z M 436.31921,221.14026 C 436.31921,220.71264 435.67492,220.61001 434.88745,220.91219 C 434.09998,221.21437 433.52286,222.35349 433.60498,223.44356 C 433.74511,225.30391 433.83296,225.31790 435.03674,223.67162 C 435.74210,222.70699 436.31921,221.56787 436.31921,221.14026 z M 440.31921,221.92245 C 440.31921,221.71479 439.53171,220.92729 438.56921,220.17245 C 436.98315,218.92857 436.94778,218.96394 438.19166,220.55000 C 439.49802,222.21575 440.31921,222.74548 440.31921,221.92245 z M 433.51865,219.53315 C 432.85896,219.31325 432.31921,218.49583 432.31921,217.71667 C 432.31921,216.24560 431.11751,215.83503 430.02106,216.93148 C 428.77430,218.17824 431.30527,221.24258 433.03390,220.57924 C 434.09289,220.17287 434.27284,219.78454 433.51865,219.53315 z M 447.81921,218.01456 C 448.91921,217.34655 449.87586,216.04759 449.94510,215.12799 C 450.05089,213.72289 449.69103,213.62909 447.69088,214.54043 C 446.38181,215.13688 445.53375,215.84788 445.80631,216.12043 C 446.07886,216.39298 445.80066,217.21989 445.18809,217.95799 C 443.81477,219.61274 445.14059,219.64125 447.81921,218.01456 z M 439.90991,214.55736 C 439.21641,213.86387 437.31921,215.27291 437.31921,216.48146 C 437.31921,217.14456 437.89299,217.06869 438.84338,216.27994 C 439.68167,215.58422 440.16161,214.80906 439.90991,214.55736 z M 430.31921,212.13333 C 430.31921,211.67500 429.64421,211.30000 428.81921,211.30000 C 427.99421,211.30000 427.31921,211.67500 427.31921,212.13333 C 427.31921,212.59167 427.99421,212.96667 428.81921,212.96667 C 429.64421,212.96667 430.31921,212.59167 430.31921,212.13333 z "
         id="path7329"
         sodipodi:nodetypes="cccccccccccccccccccccccccccccccccccccccccccccccccccccccccccccccccccccccccccccccccc" />
      <path
         style="fill:#8a6e3d"
         d="M 439.15070,240.06007 C 437.76123,238.74513 434.88888,238.39700 433.86629,239.41959 C 433.53954,239.74633 432.14414,239.79803 430.76540,239.53447 C 428.00334,239.00646 425.82260,235.91255 426.93913,234.10596 C 427.83984,232.64858 428.03987,227.35411 427.17399,227.88954 C 426.02955,228.59722 425.25118,225.08689 426.27816,223.84946 C 426.94378,223.04744 426.89746,222.27825 426.13780,221.51859 C 425.29270,220.67349 425.29655,220.03223 426.15292,219.00037 C 426.78483,218.23896 427.00648,217.32061 426.64547,216.95959 C 426.28445,216.59858 425.86900,215.17692 425.72223,213.80035 C 425.37073,210.50351 429.05436,208.21731 430.82226,210.63506 C 431.78806,211.95587 432.30661,212.00992 433.90143,210.95604 C 436.38756,209.31315 441.12714,209.55883 445.09054,211.53604 C 447.77990,212.87766 448.40478,212.90182 449.40005,211.70260 C 451.45080,209.23159 455.02199,209.97964 455.79039,213.04118 C 456.32803,215.18331 456.02208,216.08533 454.39040,217.16873 L 452.30242,218.55509 L 454.87601,220.94022 C 456.68322,222.61509 457.35575,224.14049 457.13441,226.06268 C 456.86149,228.43286 456.41683,228.76766 453.81921,228.55890 C 450.94460,228.32788 450.91902,228.36001 453.20717,229.32771 C 455.43257,230.26887 455.48456,230.45981 453.97083,232.13247 C 452.86308,233.35651 452.67201,234.25281 453.37002,234.95081 C 454.06401,235.64480 454.06758,236.83164 453.38112,238.63716 C 452.11141,241.97675 447.43108,242.44379 446.61226,239.31261 C 446.09403,237.33091 446.08451,237.33094 443.28737,239.32267 C 441.01866,240.93814 440.22756,241.07916 439.15070,240.06007 z M 450.50671,238.61689 C 449.78483,238.32802 448.92233,238.36354 448.59004,238.69583 C 448.25775,239.02813 448.84838,239.26447 449.90254,239.22105 C 451.06749,239.17307 451.30444,238.93611 450.50671,238.61689 z M 440.68084,236.80000 C 439.94381,234.87933 439.31921,234.87933 439.31921,236.80000 C 439.31921,237.62500 439.75509,238.30000 440.28782,238.30000 C 440.82056,238.30000 440.99742,237.62500 440.68084,236.80000 z M 430.93646,234.87412 C 431.99888,232.58214 431.93753,232.51678 429.68646,233.54244 C 427.26028,234.64788 426.81313,235.46059 427.98588,236.63333 C 429.11963,237.76709 429.77720,237.37503 430.93646,234.87412 z M 449.31921,233.80000 C 449.31921,232.08244 447.65465,230.97465 446.31651,231.80167 C 445.65111,232.21291 445.66799,233.08319 446.36668,234.38870 C 447.48490,236.47811 449.31921,236.11237 449.31921,233.80000 z M 438.65100,233.19469 C 441.34643,231.96657 441.33291,227.97378 438.63683,229.00836 C 437.45041,229.46363 437.41410,229.74061 438.45640,230.38479 C 439.17409,230.82835 439.44770,231.50485 439.06442,231.88813 C 438.68113,232.27141 437.77907,232.09662 437.05984,231.49970 C 436.22769,230.80908 435.21885,230.75169 434.28567,231.34189 C 433.20026,232.02837 433.15935,232.27335 434.12823,232.28469 C 434.84819,232.29311 435.15913,232.75000 434.81921,233.30000 C 434.00690,234.61434 435.63331,234.56964 438.65100,233.19469 z M 447.66855,226.76798 C 447.02411,225.08861 446.38088,224.97482 444.44923,226.19848 C 443.34229,226.89971 443.43419,227.26496 444.92788,228.10088 C 447.17871,229.36050 448.42989,228.75200 447.66855,226.76798 z M 453.31921,225.27480 C 453.31921,224.82863 453.59431,223.74667 453.93055,222.87045 C 454.37735,221.70611 454.10974,221.44315 452.93629,221.89344 C 452.05322,222.23231 451.59185,222.93213 451.91104,223.44859 C 452.23023,223.96505 451.93900,225.05320 451.26386,225.86670 C 450.25186,227.08608 450.32454,227.23519 451.67777,226.71590 C 452.58056,226.36947 453.31921,225.72097 453.31921,225.27480 z M 429.31921,223.70894 C 429.31921,223.51855 428.64421,223.62179 427.81921,223.93837 C 426.99421,224.25496 426.31921,224.97093 426.31921,225.52943 C 426.31921,226.11474 426.95462,226.01755 427.81921,225.30000 C 428.64421,224.61531 429.31921,223.89933 429.31921,223.70894 z M 436.62052,220.90819 C 436.86966,220.16889 437.63063,220.29931 438.90659,221.30000 C 440.68529,222.69497 440.72047,222.67428 439.40900,221.00449 C 438.63338,220.01696 437.39588,219.44034 436.65900,219.72311 C 434.74098,220.45912 432.31921,219.32624 432.31921,217.69301 C 432.31921,216.12589 430.73583,215.81688 429.87154,217.21533 C 429.56040,217.71876 430.42130,219.45631 431.78464,221.07655 C 433.14798,222.69679 434.16349,224.20278 434.04133,224.42319 C 433.91916,224.64361 434.36548,224.19224 435.03315,223.42016 C 435.70081,222.64808 436.41513,221.51769 436.62052,220.90819 z M 447.74080,218.15377 C 449.12443,217.52335 450.00687,216.60363 449.70176,216.10997 C 449.39666,215.61630 449.74827,214.48756 450.48312,213.60167 C 451.64929,212.19578 451.39407,212.21073 448.47628,213.71921 C 446.63767,214.66975 445.39626,215.71039 445.71760,216.03173 C 446.03894,216.35307 445.80066,217.21989 445.18809,217.95799 C 443.82487,219.60057 444.45872,219.64919 447.74080,218.15377 z M 439.90991,214.55736 C 439.21641,213.86387 437.31921,215.27291 437.31921,216.48146 C 437.31921,217.14456 437.89299,217.06869 438.84338,216.27994 C 439.68167,215.58422 440.16161,214.80906 439.90991,214.55736 z M 453.66429,212.75687 C 453.33860,211.90815 452.85766,211.42821 452.59554,211.69034 C 452.33341,211.95247 452.41556,212.64688 452.77809,213.23347 C 453.76414,214.82893 454.34047,214.51898 453.66429,212.75687 z M 430.31921,212.13333 C 430.31921,211.67500 429.64421,211.30000 428.81921,211.30000 C 427.99421,211.30000 427.31921,211.67500 427.31921,212.13333 C 427.31921,212.59167 427.99421,212.96667 428.81921,212.96667 C 429.64421,212.96667 430.31921,212.59167 430.31921,212.13333 z "
         id="path7325" />
      <path
         style="fill:#604c2a"
         d="M 439.11840,240.02776 C 437.75566,238.73995 434.87903,238.40685 433.86629,239.41959 C 433.53954,239.74633 432.14414,239.79803 430.76540,239.53447 C 427.97384,239.00082 425.82638,235.90643 426.96692,234.06101 C 427.93761,232.49040 428.17157,227.27321 427.24566,227.84546 C 426.30145,228.42901 425.15188,225.37977 425.87498,224.20976 C 426.18423,223.70939 426.97319,223.33553 427.62823,223.37895 C 428.48698,223.43587 428.47052,223.59860 427.56921,223.96228 C 426.88171,224.23969 426.31921,224.93427 426.31921,225.50578 C 426.31921,226.11036 426.97900,225.99731 427.89701,225.23543 C 429.31104,224.06189 429.23319,223.74339 427.14701,222.16698 C 425.39000,220.83930 425.10149,220.12473 425.97039,219.25281 C 426.75848,218.46199 426.83531,217.10449 426.21399,214.94882 C 425.48840,212.43139 425.64680,211.54935 427.00394,210.55000 C 429.24440,208.90021 430.25655,208.97314 430.97135,210.83589 C 431.49980,212.21298 431.80776,212.20991 433.95016,210.80616 C 435.66976,209.67943 436.85445,209.51608 438.17620,210.22347 C 439.44391,210.90192 440.38018,210.83903 441.19877,210.02044 C 442.11337,209.10584 442.51831,209.34536 442.96859,211.06725 C 443.66300,213.72267 445.82160,213.89382 450.31934,211.65005 C 453.44379,210.09137 453.70122,210.10194 454.97298,211.84118 C 456.86443,214.42789 456.65096,216.05209 454.25071,217.33666 C 452.20486,218.43157 452.21105,218.47042 454.81591,220.88452 C 456.67777,222.61004 457.35724,224.12755 457.13441,226.06268 C 456.86149,228.43286 456.41683,228.76766 453.81921,228.55890 C 450.94460,228.32788 450.91902,228.36001 453.20717,229.32771 C 455.47480,230.28673 455.50931,230.43246 453.89203,232.21953 C 452.72780,233.50599 452.53881,234.31769 453.29474,234.78488 C 454.55084,235.56119 453.64002,239.41107 451.93443,240.53469 C 449.65243,242.03803 447.34994,241.27061 446.72985,238.80000 C 446.08378,236.22583 444.31921,235.31776 444.31921,237.55945 C 444.31921,238.25215 443.44134,239.36714 442.36840,240.03721 C 440.83295,240.99611 440.14096,240.99410 439.11840,240.02776 z M 452.31921,238.68337 C 452.31921,238.47252 451.41921,238.30000 450.31921,238.30000 C 449.21921,238.30000 448.31921,238.70787 448.31921,239.20638 C 448.31921,239.70489 449.21921,239.87741 450.31921,239.58975 C 451.41921,239.30209 452.31921,238.89422 452.31921,238.68337 z M 440.66855,236.76798 C 439.82162,234.56092 438.42870,235.00269 439.02652,237.28875 C 439.31256,238.38257 439.92578,239.04316 440.38923,238.75673 C 440.85268,238.47030 440.97837,237.57536 440.66855,236.76798 z M 430.93646,234.87412 C 431.99888,232.58214 431.93753,232.51678 429.68646,233.54244 C 427.26028,234.64788 426.81313,235.46059 427.98588,236.63333 C 429.11963,237.76709 429.77720,237.37503 430.93646,234.87412 z M 449.31921,233.80000 C 449.31921,232.08244 447.65465,230.97465 446.31651,231.80167 C 445.65111,232.21291 445.66799,233.08319 446.36668,234.38870 C 447.48490,236.47811 449.31921,236.11237 449.31921,233.80000 z M 438.65100,233.19469 C 441.34643,231.96657 441.33291,227.97378 438.63683,229.00836 C 437.45041,229.46363 437.41410,229.74061 438.45640,230.38479 C 439.17409,230.82835 439.44770,231.50485 439.06442,231.88813 C 438.68113,232.27141 437.77907,232.09662 437.05984,231.49970 C 436.22769,230.80908 435.21885,230.75169 434.28567,231.34189 C 433.20026,232.02837 433.15935,232.27335 434.12823,232.28469 C 434.84819,232.29311 435.15913,232.75000 434.81921,233.30000 C 434.00690,234.61434 435.63331,234.56964 438.65100,233.19469 z M 447.66855,226.76798 C 447.02411,225.08861 446.38088,224.97482 444.44923,226.19848 C 443.34229,226.89971 443.43419,227.26496 444.92788,228.10088 C 447.17871,229.36050 448.42989,228.75200 447.66855,226.76798 z M 453.31921,225.27480 C 453.31921,224.82863 453.59431,223.74667 453.93055,222.87045 C 454.37735,221.70611 454.10974,221.44315 452.93629,221.89344 C 452.05322,222.23231 451.59185,222.93213 451.91104,223.44859 C 452.23023,223.96505 451.93900,225.05320 451.26386,225.86670 C 450.25186,227.08608 450.32454,227.23519 451.67777,226.71590 C 452.58056,226.36947 453.31921,225.72097 453.31921,225.27480 z M 436.62052,220.90819 C 436.86966,220.16889 437.63063,220.29931 438.90659,221.30000 C 440.68529,222.69497 440.72047,222.67428 439.40900,221.00449 C 438.63338,220.01696 437.39588,219.44034 436.65900,219.72311 C 434.74098,220.45912 432.31921,219.32624 432.31921,217.69301 C 432.31921,216.12589 430.73583,215.81688 429.87154,217.21533 C 429.56040,217.71876 430.42130,219.45631 431.78464,221.07655 C 433.14798,222.69679 434.16349,224.20278 434.04133,224.42319 C 433.91916,224.64361 434.36548,224.19224 435.03315,223.42016 C 435.70081,222.64808 436.41513,221.51769 436.62052,220.90819 z M 447.74080,218.15377 C 449.12443,217.52335 450.00687,216.60363 449.70176,216.10997 C 449.39666,215.61630 449.74827,214.48756 450.48312,213.60167 C 451.64929,212.19578 451.39407,212.21073 448.47628,213.71921 C 446.63767,214.66975 445.39626,215.71039 445.71760,216.03173 C 446.03894,216.35307 445.80066,217.21989 445.18809,217.95799 C 443.82487,219.60057 444.45872,219.64919 447.74080,218.15377 z M 439.90991,214.55736 C 439.21641,213.86387 437.31921,215.27291 437.31921,216.48146 C 437.31921,217.14456 437.89299,217.06869 438.84338,216.27994 C 439.68167,215.58422 440.16161,214.80906 439.90991,214.55736 z M 454.27337,213.21435 C 453.65946,212.06725 452.90450,211.38137 452.59569,211.69019 C 452.28688,211.99900 452.60343,212.93754 453.29915,213.77583 C 455.09697,215.94207 455.58322,215.66182 454.27337,213.21435 z M 430.31921,212.30000 C 430.31921,211.04803 429.12537,210.43715 427.72719,210.97369 C 426.95912,211.26842 426.53332,211.83742 426.78096,212.23812 C 427.34506,213.15084 430.31921,213.20286 430.31921,212.30000 z "
         id="path7321" />
      <path
         style="fill:#1b8618"
         d="M 439.11840,240.02776 C 437.75566,238.73995 434.87903,238.40685 433.86629,239.41959 C 433.53954,239.74633 432.14414,239.79803 430.76540,239.53447 C 427.97384,239.00082 425.82638,235.90643 426.96692,234.06101 C 427.93761,232.49040 428.17157,227.27321 427.24566,227.84546 C 426.30145,228.42901 425.15188,225.37977 425.87498,224.20976 C 426.18423,223.70939 426.97319,223.33553 427.62823,223.37895 C 428.48698,223.43587 428.47052,223.59860 427.56921,223.96228 C 426.88171,224.23969 426.31921,224.93427 426.31921,225.50578 C 426.31921,226.11036 426.97900,225.99731 427.89701,225.23543 C 429.31104,224.06189 429.23319,223.74339 427.14701,222.16698 C 425.39000,220.83930 425.10149,220.12473 425.97039,219.25281 C 426.75848,218.46199 426.83531,217.10449 426.21399,214.94882 C 425.48615,212.42358 425.64624,211.54978 427.02237,210.53652 C 429.03981,209.05107 430.54047,209.35633 431.08284,211.36250 C 431.38464,212.47881 431.26902,212.51314 430.56539,211.51613 C 429.63743,210.20126 426.31921,210.84886 426.31921,212.34484 C 426.31921,213.78646 430.70762,213.01063 433.54282,211.06777 C 435.58189,209.67048 436.73724,209.45335 438.13963,210.20389 C 439.44988,210.90512 440.36922,210.84998 441.19877,210.02044 C 442.11337,209.10584 442.51831,209.34536 442.96859,211.06725 C 443.66300,213.72267 445.82160,213.89382 450.31934,211.65005 C 453.44379,210.09137 453.70122,210.10194 454.97298,211.84118 C 456.86443,214.42789 456.65096,216.05209 454.25071,217.33666 C 452.20486,218.43157 452.21105,218.47042 454.81591,220.88452 C 456.67777,222.61004 457.35724,224.12755 457.13441,226.06268 C 456.86149,228.43286 456.41683,228.76766 453.81921,228.55890 C 450.94460,228.32788 450.91902,228.36001 453.20717,229.32771 C 455.47480,230.28673 455.50931,230.43246 453.89203,232.21953 C 452.72780,233.50599 452.53881,234.31769 453.29474,234.78488 C 454.55084,235.56119 453.64002,239.41107 451.93443,240.53469 C 449.65243,242.03803 447.34994,241.27061 446.72985,238.80000 C 446.08378,236.22583 444.31921,235.31776 444.31921,237.55945 C 444.31921,238.25215 443.44134,239.36714 442.36840,240.03721 C 440.83295,240.99611 440.14096,240.99410 439.11840,240.02776 z M 451.16116,239.41884 C 452.14664,238.79424 451.83884,238.44133 450.00246,238.09028 C 448.19442,237.74465 447.64464,237.98447 448.01749,238.95612 C 448.61264,240.50704 449.28750,240.60638 451.16116,239.41884 z M 440.92620,237.71821 C 440.59235,236.84823 440.31921,235.63323 440.31921,235.01821 C 440.31921,234.24908 439.99680,234.22241 439.28643,234.93278 C 438.11062,236.10859 439.02171,239.30000 440.53319,239.30000 C 441.08319,239.30000 441.26004,238.58820 440.92620,237.71821 z M 430.31921,236.50000 C 430.31921,235.51000 430.88171,234.10492 431.56921,233.37759 C 432.60401,232.28285 432.38882,232.27174 430.31921,233.31305 C 427.04484,234.96053 427.17996,234.77356 427.90266,236.65687 C 428.74570,238.85380 430.31921,238.75165 430.31921,236.50000 z M 449.17297,234.97621 C 449.97526,234.00951 449.95434,233.33513 449.09542,232.47621 C 447.32852,230.70931 445.61607,231.05681 445.02910,233.30138 C 444.74124,234.40214 444.91376,235.05058 445.41247,234.74236 C 445.91118,234.43415 446.31921,234.65852 446.31921,235.24098 C 446.31921,236.70860 447.85334,236.56626 449.17297,234.97621 z M 440.63229,230.38922 C 440.31224,229.16534 439.56866,228.65078 438.63683,229.00836 C 437.45041,229.46363 437.41410,229.74061 438.45640,230.38479 C 439.17409,230.82835 439.44770,231.50485 439.06442,231.88813 C 438.68113,232.27141 437.77907,232.09662 437.05984,231.49970 C 436.22769,230.80908 435.21885,230.75169 434.28567,231.34189 C 433.28937,231.97201 433.21997,232.27428 434.06921,232.28469 C 434.75671,232.29311 435.26592,232.63750 435.20079,233.05000 C 434.88424,235.05483 435.55301,235.23046 438.23083,233.84571 C 440.34958,232.75006 441.00352,231.80882 440.63229,230.38922 z M 448.30390,228.55000 C 448.26430,226.61084 446.51928,225.28599 444.84896,225.92696 C 443.10607,226.59577 443.10685,226.67155 444.87004,227.96083 C 446.90464,229.44856 448.32723,229.69265 448.30390,228.55000 z M 453.70176,225.10997 C 453.39666,224.61630 453.69087,223.55710 454.35557,222.75620 C 455.67086,221.17136 455.33396,220.97337 452.90674,221.90479 C 452.03992,222.23742 451.59719,222.94077 451.92291,223.46780 C 452.24863,223.99482 451.69223,225.33533 450.68645,226.44670 C 448.88011,228.44269 448.89074,228.45235 451.55713,227.23746 C 453.04178,226.56101 454.00687,225.60363 453.70176,225.10997 z M 435.72985,222.80000 C 436.37838,220.21608 437.74055,219.55469 438.81921,221.30000 C 439.15913,221.85000 439.96081,222.30000 440.60073,222.30000 C 441.24065,222.30000 440.76331,221.59893 439.53996,220.74207 C 438.31662,219.88520 436.90710,219.43666 436.40770,219.74531 C 435.01282,220.60739 432.31921,219.25528 432.31921,217.69301 C 432.31921,216.12884 430.73643,215.81591 429.87498,217.20976 C 428.70945,219.09564 430.51087,221.37222 432.68763,220.76430 C 434.20016,220.34188 434.42518,220.44213 433.46245,221.10949 C 432.49923,221.77720 432.43144,222.25133 433.22876,222.74410 C 433.84645,223.12585 434.09294,223.85710 433.77650,224.36910 C 433.46007,224.88109 433.62895,225.30000 434.15179,225.30000 C 434.67462,225.30000 435.38475,224.17500 435.72985,222.80000 z M 442.81213,223.31145 C 443.16247,222.74459 442.76107,222.57695 441.87115,222.91844 C 440.13873,223.58323 439.82176,224.30000 441.26019,224.30000 C 441.77773,224.30000 442.47611,223.85515 442.81213,223.31145 z M 449.76582,216.21361 C 449.42548,215.66294 449.74827,214.48756 450.48312,213.60167 C 451.66496,212.17690 451.44022,212.18687 448.53651,213.68806 C 446.73103,214.62147 445.50087,215.78492 445.80283,216.27349 C 446.10478,216.76206 445.89449,217.44446 445.33552,217.78992 C 442.85807,219.32107 444.62684,220.19228 447.35191,218.78309 C 449.01989,217.92054 450.10615,216.76428 449.76582,216.21361 z M 439.88058,214.52803 C 439.00983,213.65728 436.53711,215.70427 437.00062,216.91215 C 437.45862,218.10568 437.78319,218.04774 438.85572,216.58096 C 439.57070,215.60316 440.03189,214.67934 439.88058,214.52803 z M 454.73576,212.94313 C 454.09284,211.26771 452.31921,210.64890 452.31921,212.10000 C 452.31921,213.07287 454.55016,215.40238 455.02608,214.92646 C 455.21319,214.73935 455.08255,213.84685 454.73576,212.94313 z "
         id="path7319" />
      <path
         style="stroke-opacity:1.0000000;stroke-miterlimit:4.0000000;stroke-width:0.30000001;stroke:none;fill:#2b562a"
         d="M 439.10947,239.94740 C 438.39000,239.22794 437.13037,238.86113 436.31028,239.13226 C 434.99553,239.56695 434.99300,239.39908 436.28895,237.71262 C 437.59668,236.01082 437.48645,236.02601 435.28895,237.85042 C 433.90129,239.00247 431.83244,239.73861 430.56702,239.53058 C 427.95561,239.10127 425.79212,235.72360 427.01560,233.98608 C 428.14965,232.37557 427.97186,230.24525 426.47673,227.52933 C 425.14711,225.11405 425.66461,223.24878 427.62823,223.37895 C 428.48698,223.43587 428.47052,223.59860 427.56921,223.96228 C 426.88171,224.23969 426.31921,224.93427 426.31921,225.50578 C 426.31921,226.11036 426.97900,225.99731 427.89701,225.23543 C 429.31104,224.06189 429.23319,223.74339 427.14701,222.16698 C 425.39000,220.83930 425.10149,220.12473 425.97039,219.25281 C 426.75848,218.46199 426.83531,217.10449 426.21399,214.94882 C 425.48615,212.42358 425.64624,211.54978 427.02237,210.53652 C 429.03981,209.05107 430.54047,209.35633 431.08284,211.36250 C 431.38464,212.47881 431.26902,212.51314 430.56539,211.51613 C 429.63743,210.20126 426.31921,210.84886 426.31921,212.34484 C 426.31921,213.78646 430.70762,213.01063 433.54282,211.06777 C 435.58189,209.67048 436.73724,209.45335 438.13963,210.20389 C 439.44988,210.90512 440.36922,210.84998 441.19877,210.02044 C 442.11337,209.10584 442.51831,209.34536 442.96859,211.06725 C 443.66300,213.72267 445.82160,213.89382 450.31934,211.65005 C 453.44379,210.09137 453.70122,210.10194 454.97298,211.84118 C 456.86443,214.42789 456.65096,216.05209 454.25071,217.33666 C 452.20486,218.43157 452.21105,218.47042 454.81591,220.88452 C 456.67777,222.61004 457.35724,224.12755 457.13441,226.06268 C 456.86149,228.43286 456.41683,228.76766 453.81921,228.55890 C 450.94460,228.32788 450.91902,228.36001 453.20717,229.32771 C 455.47480,230.28673 455.50931,230.43246 453.89203,232.21953 C 452.72780,233.50599 452.53881,234.31769 453.29474,234.78488 C 454.55084,235.56119 453.64002,239.41107 451.93443,240.53469 C 449.65243,242.03803 447.34994,241.27061 446.72985,238.80000 C 446.08378,236.22583 444.31921,235.31776 444.31921,237.55945 C 444.31921,238.25215 443.44134,239.36714 442.36840,240.03721 C 440.81787,241.00553 440.14917,240.98710 439.10947,239.94740 z M 451.16116,239.41884 C 452.14664,238.79424 451.83884,238.44133 450.00246,238.09028 C 448.19442,237.74465 447.64464,237.98447 448.01749,238.95612 C 448.61264,240.50704 449.28750,240.60638 451.16116,239.41884 z M 440.92620,237.71821 C 440.59235,236.84823 440.31921,235.63323 440.31921,235.01821 C 440.31921,234.24908 439.99680,234.22241 439.28643,234.93278 C 438.11062,236.10859 439.02171,239.30000 440.53319,239.30000 C 441.08319,239.30000 441.26004,238.58820 440.92620,237.71821 z M 430.31921,236.50000 C 430.31921,235.51000 430.88171,234.10492 431.56921,233.37759 C 432.60401,232.28285 432.38882,232.27174 430.31921,233.31305 C 427.04484,234.96053 427.17996,234.77356 427.90266,236.65687 C 428.74570,238.85380 430.31921,238.75165 430.31921,236.50000 z M 432.92338,235.57083 C 432.59109,235.23854 432.35474,235.82917 432.39816,236.88333 C 432.44614,238.04828 432.68310,238.28523 433.00232,237.48750 C 433.29119,236.76562 433.25567,235.90313 432.92338,235.57083 z M 449.17297,234.97621 C 449.97526,234.00951 449.95434,233.33513 449.09542,232.47621 C 447.32852,230.70931 445.61607,231.05681 445.02910,233.30138 C 444.74124,234.40214 444.91376,235.05058 445.41247,234.74236 C 445.91118,234.43415 446.31921,234.65852 446.31921,235.24098 C 446.31921,236.70860 447.85334,236.56626 449.17297,234.97621 z M 440.63229,230.38922 C 440.31224,229.16534 439.56866,228.65078 438.63683,229.00836 C 437.45041,229.46363 437.41410,229.74061 438.45640,230.38479 C 439.17409,230.82835 439.44770,231.50485 439.06442,231.88813 C 438.68113,232.27141 437.77907,232.09662 437.05984,231.49970 C 436.22769,230.80908 435.21885,230.75169 434.28567,231.34189 C 433.28937,231.97201 433.21997,232.27428 434.06921,232.28469 C 434.75671,232.29311 435.26592,232.63750 435.20079,233.05000 C 434.88424,235.05483 435.55301,235.23046 438.23083,233.84571 C 440.34958,232.75006 441.00352,231.80882 440.63229,230.38922 z M 430.31921,230.80000 C 431.00390,229.97500 431.33910,229.30000 431.06410,229.30000 C 430.78910,229.30000 430.00390,229.97500 429.31921,230.80000 C 428.63452,231.62500 428.29932,232.30000 428.57432,232.30000 C 428.84932,232.30000 429.63452,231.62500 430.31921,230.80000 z M 448.30390,228.55000 C 448.26430,226.61084 446.51928,225.28599 444.84896,225.92696 C 443.10607,226.59577 443.10685,226.67155 444.87004,227.96083 C 446.90464,229.44856 448.32723,229.69265 448.30390,228.55000 z M 453.70176,225.10997 C 453.39666,224.61630 453.69087,223.55710 454.35557,222.75620 C 455.67086,221.17136 455.33396,220.97337 452.90674,221.90479 C 452.03992,222.23742 451.59719,222.94077 451.92291,223.46780 C 452.24863,223.99482 451.69223,225.33533 450.68645,226.44670 C 448.88011,228.44269 448.89074,228.45235 451.55713,227.23746 C 453.04178,226.56101 454.00687,225.60363 453.70176,225.10997 z M 435.31921,223.80000 C 435.31921,221.98369 436.95435,221.80883 437.65693,223.55000 C 437.96309,224.30875 438.19234,224.12458 438.24026,223.08139 C 438.29459,221.89874 438.86496,221.54728 440.06921,221.95443 C 441.24919,222.35337 441.08576,221.99855 439.56746,220.86511 C 438.32899,219.94057 436.90710,219.43666 436.40770,219.74531 C 435.01282,220.60739 432.31921,219.25528 432.31921,217.69301 C 432.31921,216.12884 430.73643,215.81591 429.87498,217.20976 C 428.70945,219.09564 430.51087,221.37222 432.68763,220.76430 C 434.20016,220.34188 434.42518,220.44213 433.46245,221.10949 C 432.49923,221.77720 432.43144,222.25133 433.22876,222.74410 C 433.84645,223.12585 434.09294,223.85710 433.77650,224.36910 C 433.46007,224.88109 433.67773,225.30000 434.26019,225.30000 C 434.84265,225.30000 435.31921,224.62500 435.31921,223.80000 z M 449.92338,222.57083 C 449.59109,222.23854 449.35474,222.82917 449.39816,223.88333 C 449.44614,225.04828 449.68310,225.28523 450.00232,224.48750 C 450.29120,223.76562 450.25567,222.90313 449.92338,222.57083 z M 442.81213,223.31145 C 443.16247,222.74459 442.76107,222.57695 441.87115,222.91844 C 440.13873,223.58323 439.82176,224.30000 441.26019,224.30000 C 441.77773,224.30000 442.47611,223.85515 442.81213,223.31145 z M 449.76582,216.21361 C 449.42548,215.66294 449.74827,214.48756 450.48312,213.60167 C 451.66496,212.17690 451.44022,212.18687 448.53651,213.68806 C 446.73103,214.62147 445.50087,215.78492 445.80283,216.27349 C 446.10478,216.76206 445.89449,217.44446 445.33552,217.78992 C 442.85807,219.32107 444.62684,220.19228 447.35191,218.78309 C 449.01989,217.92054 450.10615,216.76428 449.76582,216.21361 z M 441.70077,217.74806 C 442.04226,216.85814 441.87462,216.45674 441.30776,216.80708 C 440.76406,217.14310 440.31921,217.84148 440.31921,218.35902 C 440.31921,219.79745 441.03598,219.48048 441.70077,217.74806 z M 439.88058,214.52803 C 439.00983,213.65728 436.53711,215.70427 437.00062,216.91215 C 437.45862,218.10568 437.78319,218.04774 438.85572,216.58096 C 439.57070,215.60316 440.03189,214.67934 439.88058,214.52803 z M 454.73576,212.94313 C 454.09284,211.26771 452.31921,210.64890 452.31921,212.10000 C 452.31921,213.07287 454.55016,215.40238 455.02608,214.92646 C 455.21319,214.73935 455.08255,213.84685 454.73576,212.94313 z "
         id="path7317" />
      <path
         style="fill:#343434"
         d="M 439.11840,240.02776 C 437.75566,238.73995 434.87903,238.40685 433.86629,239.41959 C 433.53954,239.74633 432.14414,239.79803 430.76540,239.53447 C 427.92813,238.99209 425.75490,235.77646 427.01560,233.98608 C 428.14965,232.37557 427.97186,230.24525 426.47673,227.52933 C 425.14711,225.11405 425.66461,223.24878 427.62823,223.37895 C 428.48698,223.43587 428.47052,223.59860 427.56921,223.96228 C 426.88171,224.23969 426.31921,224.93427 426.31921,225.50578 C 426.31921,226.11036 426.97900,225.99731 427.89701,225.23543 C 429.31207,224.06104 429.23979,223.74870 427.19630,222.20729 C 425.36903,220.82898 425.15386,220.20416 426.10982,219.05229 C 426.76544,218.26232 426.98198,217.29610 426.59101,216.90514 C 426.20005,216.51417 426.60844,216.47376 427.49854,216.81532 C 429.31187,217.51116 430.78487,215.86247 429.78920,214.25144 C 429.33921,213.52335 428.74562,213.53115 427.84697,214.27697 C 426.88467,215.07560 426.38064,214.90248 425.88157,213.60190 C 425.45583,212.49245 425.84874,211.38597 426.95591,210.57638 C 429.24752,208.90072 430.25371,208.96574 430.97135,210.83589 C 431.49980,212.21298 431.80776,212.20991 433.95016,210.80616 C 435.66976,209.67943 436.85445,209.51608 438.17620,210.22347 C 439.42563,210.89214 440.37103,210.84818 441.13323,210.08598 C 441.96045,209.25876 442.43940,209.46727 442.96349,210.88278 C 444.11839,214.00208 445.40321,214.22412 449.61003,212.03140 C 453.48178,210.01333 453.63205,210.00735 454.95648,211.81861 C 456.86420,214.42758 456.65682,216.04895 454.25071,217.33666 C 452.20063,218.43383 452.20509,218.46490 454.75071,220.82410 C 456.16338,222.13332 457.31921,223.52599 457.31921,223.91892 C 457.31921,224.31185 457.02311,224.33724 456.66122,223.97534 C 456.29932,223.61345 455.39932,223.81855 454.66122,224.43112 C 452.96770,225.83662 452.89342,224.15889 454.56921,222.35282 C 455.59674,221.24540 455.46327,221.13802 453.81921,221.74944 C 452.71921,222.15853 451.14421,222.60478 450.31921,222.74110 C 449.49421,222.87742 448.65441,223.84644 448.45299,224.89448 C 448.09285,226.76834 448.12192,226.76835 450.20299,224.89501 C 452.74404,222.60760 453.03336,223.85339 450.58849,226.55494 C 448.90404,228.41624 448.93533,228.43203 451.75907,227.14545 C 454.04923,226.10198 454.74777,226.08567 455.07521,227.06799 C 455.30336,227.75245 455.97112,228.01513 456.55913,227.65172 C 457.14713,227.28832 457.34444,227.45016 456.99759,228.01138 C 456.65073,228.57260 455.11870,228.85751 453.59308,228.64451 C 450.87443,228.26495 450.86675,228.27795 453.20717,229.29743 C 455.47465,230.28514 455.50920,230.43258 453.89203,232.21953 C 452.72780,233.50599 452.53881,234.31769 453.29474,234.78488 C 454.55084,235.56119 453.64002,239.41107 451.93443,240.53469 C 449.65243,242.03803 447.34994,241.27061 446.72985,238.80000 C 446.08378,236.22583 444.31921,235.31776 444.31921,237.55945 C 444.31921,238.25215 443.44134,239.36714 442.36840,240.03721 C 440.83295,240.99611 440.14096,240.99410 439.11840,240.02776 z M 451.16116,239.41884 C 452.14664,238.79424 451.83884,238.44133 450.00246,238.09028 C 448.19442,237.74465 447.64464,237.98447 448.01749,238.95612 C 448.61264,240.50704 449.28750,240.60638 451.16116,239.41884 z M 441.24892,238.55000 C 441.21027,238.13750 440.87277,237.03690 440.49892,236.10422 C 439.87016,234.53555 439.63181,234.55129 437.31921,236.31427 C 434.91052,238.15051 434.90139,238.19905 437.06921,237.64343 C 438.40352,237.30143 439.31921,237.52118 439.31921,238.18337 C 439.31921,238.79752 439.76921,239.30000 440.31921,239.30000 C 440.86921,239.30000 441.28758,238.96250 441.24892,238.55000 z M 430.31921,236.50000 C 430.31921,235.51000 430.88171,234.10492 431.56921,233.37759 C 432.60401,232.28285 432.38882,232.27174 430.31921,233.31305 C 427.04484,234.96053 427.17996,234.77356 427.90266,236.65687 C 428.74570,238.85380 430.31921,238.75165 430.31921,236.50000 z M 433.63208,235.21287 C 432.30426,233.88505 430.83277,235.70391 431.87306,237.38713 C 432.35688,238.16998 432.84923,238.16998 433.63208,237.38713 C 434.41492,236.60429 434.41492,235.99571 433.63208,235.21287 z M 452.84620,236.34367 C 452.52113,235.81770 451.59457,235.64084 450.78719,235.95066 C 448.72007,236.74389 448.96366,237.30000 451.37823,237.30000 C 452.51069,237.30000 453.17127,236.86965 452.84620,236.34367 z M 443.31921,234.24098 C 443.31921,233.72344 442.86921,233.30000 442.31921,233.30000 C 441.76921,233.30000 441.31921,234.00156 441.31921,234.85902 C 441.31921,235.71648 441.76921,236.13992 442.31921,235.80000 C 442.86921,235.46008 443.31921,234.75852 443.31921,234.24098 z M 450.81921,233.30000 C 453.34900,230.65947 453.46129,230.30164 451.75630,230.31366 C 448.04035,230.33985 445.50054,231.49859 445.00492,233.39383 C 444.73037,234.44374 444.91376,235.05058 445.41247,234.74236 C 445.91118,234.43415 446.31921,234.65852 446.31921,235.24098 C 446.31921,237.06548 447.84017,236.40945 450.81921,233.30000 z M 448.81921,232.30000 C 448.47929,231.75000 448.67773,231.30000 449.26019,231.30000 C 449.84265,231.30000 450.31921,231.75000 450.31921,232.30000 C 450.31921,233.58139 449.61115,233.58139 448.81921,232.30000 z M 440.62217,230.35053 C 440.12709,228.45734 439.94980,228.43832 436.96056,229.95768 C 432.81334,232.06561 432.84393,232.02239 434.27730,233.74950 C 436.13740,235.99079 441.36483,233.19045 440.62217,230.35053 z M 430.86033,231.23347 C 431.93660,229.49203 430.71081,229.12323 429.33927,230.77583 C 428.55052,231.72622 428.47465,232.30000 429.13775,232.30000 C 429.72263,232.30000 430.49779,231.82006 430.86033,231.23347 z M 443.85367,229.05934 C 441.96337,228.00148 440.78891,228.63294 441.75110,230.18980 C 442.09879,230.75237 443.09310,230.94026 443.96069,230.60733 C 445.36960,230.06669 445.35816,229.90131 443.85367,229.05934 z M 434.31921,227.80000 C 435.00390,226.97500 435.33910,226.30000 435.06410,226.30000 C 434.78910,226.30000 434.00390,226.97500 433.31921,227.80000 C 432.63452,228.62500 432.29932,229.30000 432.57432,229.30000 C 432.84932,229.30000 433.63452,228.62500 434.31921,227.80000 z M 438.88105,226.52850 C 438.54585,226.19330 437.49480,226.73233 436.54540,227.72634 C 434.89518,229.45409 434.92200,229.48091 437.15486,228.33580 C 438.43946,227.67699 439.21625,226.86370 438.88105,226.52850 z M 448.30390,228.55000 C 448.26990,226.88492 446.57465,225.25432 445.23926,225.60224 C 444.45823,225.80572 444.17549,225.77720 444.61095,225.53886 C 445.96918,224.79544 443.25334,222.38805 441.72015,222.97639 C 440.60874,223.40288 440.97627,224.21140 443.28416,226.41694 C 446.19510,229.19879 448.33571,230.10841 448.30390,228.55000 z M 432.31921,224.18499 C 432.31921,222.82528 431.86476,223.08522 429.24352,225.94421 L 426.81921,228.58842 L 429.56921,226.82920 C 431.08171,225.86163 432.31921,224.67174 432.31921,224.18499 z M 435.35101,223.55000 C 435.38082,221.91003 435.46395,221.90676 436.67326,223.49804 C 437.87399,225.07803 438.08634,225.05285 439.72761,223.13599 C 440.84229,221.83414 440.99973,221.25144 440.15536,221.55282 C 439.42048,221.81513 438.06431,221.64217 437.14165,221.16846 C 434.81091,219.97182 431.95083,221.15121 433.28501,222.75879 C 433.84428,223.43267 434.00576,224.28011 433.64387,224.64201 C 433.28197,225.00390 433.51088,225.30000 434.15254,225.30000 C 434.79421,225.30000 435.33352,224.51250 435.35101,223.55000 z M 447.31921,221.30000 C 447.31921,220.75000 446.75671,220.28198 446.06921,220.25996 C 445.38171,220.23794 446.07006,219.54157 447.59888,218.71248 C 449.12770,217.88338 450.10146,216.75669 449.76279,216.20871 C 449.42412,215.66074 449.74827,214.48756 450.48312,213.60167 C 451.64929,212.19578 451.39407,212.21073 448.47628,213.71921 C 446.63767,214.66975 445.39626,215.71039 445.71760,216.03173 C 446.03894,216.35307 445.84800,217.16285 445.29328,217.83124 C 444.73856,218.49964 444.56561,219.77854 444.90895,220.67325 C 445.59182,222.45281 447.31921,222.90198 447.31921,221.30000 z M 433.31921,220.30000 C 434.31921,219.65375 434.40254,219.32552 433.56921,219.31531 C 432.88171,219.30689 432.31921,218.62500 432.31921,217.80000 C 432.31921,215.62291 430.22124,215.95863 429.62705,218.23080 C 429.32683,219.37885 428.55397,219.94358 427.72067,219.62382 C 426.94987,219.32803 426.31921,219.58417 426.31921,220.19301 C 426.31921,221.55296 431.26346,221.62853 433.31921,220.30000 z M 442.77106,220.41852 C 442.56124,220.20870 442.78970,219.28940 443.27874,218.37562 C 443.96515,217.09304 443.70454,216.67931 442.13581,216.56114 C 440.90568,216.46847 439.91002,217.14873 439.61293,218.28484 C 439.29906,219.48506 438.52681,219.97230 437.47067,219.63647 C 436.40887,219.29884 436.23143,219.41281 436.97372,219.95567 C 438.08148,220.76582 443.55539,221.20284 442.77106,220.41852 z M 451.31921,220.30000 C 451.31921,219.75000 450.84265,219.30000 450.26019,219.30000 C 449.67773,219.30000 449.47929,219.75000 449.81921,220.30000 C 450.61115,221.58139 451.31921,221.58139 451.31921,220.30000 z M 434.52370,215.23995 C 434.22252,213.18784 433.62950,212.35069 432.72334,212.69841 C 431.98016,212.98360 430.99459,212.54236 430.53319,211.71789 C 429.64104,210.12369 426.31921,210.75124 426.31921,212.51398 C 426.31921,213.06398 426.90438,213.28943 427.61959,213.01497 C 429.01013,212.48138 433.92116,214.71135 433.54453,215.70534 C 433.05717,216.99158 433.36048,218.30000 434.14602,218.30000 C 434.60076,218.30000 434.77072,216.92298 434.52370,215.23995 z M 439.88058,214.52803 C 439.00983,213.65728 436.53711,215.70427 437.00062,216.91215 C 437.45862,218.10568 437.78319,218.04774 438.85572,216.58096 C 439.57070,215.60316 440.03189,214.67934 439.88058,214.52803 z M 454.21402,215.92675 C 455.41676,214.47753 454.72875,211.30000 453.21222,211.30000 C 451.94158,211.30000 452.10778,212.67214 453.56921,214.24718 C 454.58864,215.34587 454.50232,215.48304 453.10123,214.99085 C 451.32929,214.36839 449.87987,215.52732 451.01306,216.66052 C 452.00132,217.64878 452.96895,217.42696 454.21402,215.92675 z M 442.61190,213.31125 C 442.32586,212.21743 441.71264,211.55684 441.24919,211.84327 C 440.26492,212.45159 441.15765,215.30000 442.33258,215.30000 C 442.77224,215.30000 442.89794,214.40506 442.61190,213.31125 z M 437.86298,211.37082 C 436.87975,209.77991 435.29608,211.07616 435.99567,212.89924 C 436.38043,213.90191 436.92475,214.09446 437.56486,213.45435 C 438.10391,212.91530 438.23806,211.97771 437.86298,211.37082 z "
         id="path7315" />
      <path
         style="fill:#2f2514"
         d="M 446.38730,237.55000 C 444.77998,234.50537 444.39929,234.21660 444.36341,236.01482 C 444.31331,238.52503 440.80789,240.87291 439.00529,239.60361 C 437.57001,238.59295 435.24157,238.58824 433.63831,239.59274 C 432.98881,239.99968 432.18690,239.89494 431.85628,239.35999 C 431.52567,238.82504 430.62908,238.62760 429.86388,238.92123 C 428.13880,239.58321 425.85760,235.63061 427.01560,233.98608 C 428.14965,232.37557 427.97186,230.24525 426.47673,227.52933 C 425.14711,225.11405 425.66461,223.24878 427.62823,223.37895 C 428.48698,223.43587 428.47052,223.59860 427.56921,223.96228 C 426.88171,224.23969 426.31921,224.93427 426.31921,225.50578 C 426.31921,226.11036 426.97900,225.99731 427.89701,225.23543 C 429.31207,224.06104 429.23979,223.74870 427.19630,222.20729 C 425.36903,220.82898 425.15386,220.20416 426.10982,219.05229 C 426.76544,218.26232 426.98198,217.29610 426.59101,216.90514 C 426.20005,216.51417 426.60844,216.47376 427.49854,216.81532 C 429.31187,217.51116 430.78487,215.86247 429.78920,214.25144 C 429.33921,213.52335 428.74562,213.53115 427.84697,214.27697 C 426.88467,215.07560 426.38064,214.90248 425.88157,213.60190 C 425.45583,212.49245 425.84874,211.38597 426.95591,210.57638 C 429.24752,208.90072 430.25371,208.96574 430.97135,210.83589 C 431.49980,212.21298 431.80776,212.20991 433.95016,210.80616 C 435.72759,209.64154 436.83369,209.50498 438.26871,210.27297 C 439.57627,210.97276 440.40075,210.97708 440.82762,210.28639 C 441.74731,208.79830 443.31921,210.10588 443.31921,212.35902 C 443.31921,214.83056 444.41837,214.80022 449.54007,212.18732 C 453.50877,210.16264 453.73620,210.14978 455.00023,211.87845 C 456.76575,214.29294 456.67858,214.88729 454.22343,217.17460 C 452.14794,219.10821 452.14681,219.13736 454.10578,220.18578 C 455.19375,220.76804 456.38564,222.03073 456.75441,222.99174 C 457.12319,223.95275 457.10504,224.41916 456.71407,224.02820 C 456.32311,223.63723 455.39932,223.81855 454.66122,224.43112 C 452.96770,225.83662 452.89342,224.15889 454.56921,222.35282 C 455.59674,221.24540 455.46327,221.13802 453.81921,221.74944 C 452.71921,222.15853 451.14421,222.60478 450.31921,222.74110 C 449.49421,222.87742 448.65441,223.84644 448.45299,224.89448 C 448.09285,226.76834 448.12192,226.76835 450.20299,224.89501 C 452.75631,222.59655 453.02269,223.84889 450.56921,226.61677 C 448.86802,228.53595 448.88375,228.55713 451.13313,227.37612 C 452.77621,226.51343 453.81759,226.46873 454.72514,227.22193 C 455.42809,227.80533 456.37147,227.94905 456.82155,227.54132 C 457.27162,227.13360 457.30265,227.38435 456.89051,228.09856 C 456.38158,228.98047 455.75789,229.07904 454.94664,228.40576 C 454.28966,227.86052 453.16668,227.77623 452.45114,228.21847 C 451.50734,228.80176 451.77569,229.18611 453.42851,229.61833 C 455.61795,230.19088 455.63822,230.29001 453.94791,232.15779 C 452.79980,233.42643 452.55884,234.33007 453.25407,234.75974 C 454.83139,235.73458 454.55828,237.06093 452.31921,239.30000 C 449.52524,242.09397 448.64980,241.83571 446.38730,237.55000 z M 451.16116,239.41884 C 452.14664,238.79424 451.83884,238.44133 450.00246,238.09028 C 448.19442,237.74465 447.64464,237.98447 448.01749,238.95612 C 448.61264,240.50704 449.28750,240.60638 451.16116,239.41884 z M 441.24892,238.55000 C 441.21027,238.13750 440.87277,237.03690 440.49892,236.10422 C 439.87016,234.53555 439.63181,234.55129 437.31921,236.31427 C 434.91052,238.15051 434.90139,238.19905 437.06921,237.64343 C 438.40352,237.30143 439.31921,237.52118 439.31921,238.18337 C 439.31921,238.79752 439.76921,239.30000 440.31921,239.30000 C 440.86921,239.30000 441.28758,238.96250 441.24892,238.55000 z M 430.31921,236.50000 C 430.31921,235.51000 430.88171,234.10492 431.56921,233.37759 C 432.60401,232.28285 432.38882,232.27174 430.31921,233.31305 C 427.04484,234.96053 427.17996,234.77356 427.90266,236.65687 C 428.74570,238.85380 430.31921,238.75165 430.31921,236.50000 z M 433.63208,235.21287 C 432.30426,233.88505 430.83277,235.70391 431.87306,237.38713 C 432.35688,238.16998 432.84923,238.16998 433.63208,237.38713 C 434.41492,236.60429 434.41492,235.99571 433.63208,235.21287 z M 452.84620,236.34367 C 452.52113,235.81770 451.59457,235.64084 450.78719,235.95066 C 448.72007,236.74389 448.96366,237.30000 451.37823,237.30000 C 452.51069,237.30000 453.17127,236.86965 452.84620,236.34367 z M 443.31921,234.24098 C 443.31921,233.72344 442.86921,233.30000 442.31921,233.30000 C 441.76921,233.30000 441.31921,234.00156 441.31921,234.85902 C 441.31921,235.71648 441.76921,236.13992 442.31921,235.80000 C 442.86921,235.46008 443.31921,234.75852 443.31921,234.24098 z M 450.88212,233.16342 L 453.81921,230.02684 L 449.94531,230.62066 C 445.24561,231.34106 444.95906,231.58990 445.79529,234.22464 C 446.67913,237.00937 447.42684,236.85338 450.88212,233.16342 z M 448.81921,232.30000 C 448.47929,231.75000 448.67773,231.30000 449.26019,231.30000 C 449.84265,231.30000 450.31921,231.75000 450.31921,232.30000 C 450.31921,233.58139 449.61115,233.58139 448.81921,232.30000 z M 440.62217,230.35053 C 440.12709,228.45734 439.94980,228.43832 436.96056,229.95768 C 432.81334,232.06561 432.84393,232.02239 434.27730,233.74950 C 436.13740,235.99079 441.36483,233.19045 440.62217,230.35053 z M 430.86033,231.23347 C 431.93660,229.49203 430.71081,229.12323 429.33927,230.77583 C 428.55052,231.72622 428.47465,232.30000 429.13775,232.30000 C 429.72263,232.30000 430.49779,231.82006 430.86033,231.23347 z M 443.85367,229.05934 C 441.96337,228.00148 440.78891,228.63294 441.75110,230.18980 C 442.09879,230.75237 443.09310,230.94026 443.96069,230.60733 C 445.36960,230.06669 445.35816,229.90131 443.85367,229.05934 z M 434.31921,227.80000 C 435.00390,226.97500 435.33910,226.30000 435.06410,226.30000 C 434.78910,226.30000 434.00390,226.97500 433.31921,227.80000 C 432.63452,228.62500 432.29932,229.30000 432.57432,229.30000 C 432.84932,229.30000 433.63452,228.62500 434.31921,227.80000 z M 438.88105,226.52850 C 438.54585,226.19330 437.49480,226.73233 436.54540,227.72634 C 434.89518,229.45409 434.92200,229.48091 437.15486,228.33580 C 438.43946,227.67699 439.21625,226.86370 438.88105,226.52850 z M 448.30390,228.55000 C 448.26990,226.88492 446.57465,225.25432 445.23926,225.60224 C 444.45823,225.80572 444.17549,225.77720 444.61095,225.53886 C 445.96918,224.79544 443.25334,222.38805 441.72015,222.97639 C 440.60874,223.40288 440.97627,224.21140 443.28416,226.41694 C 446.19510,229.19879 448.33571,230.10841 448.30390,228.55000 z M 432.31921,224.18499 C 432.31921,222.82528 431.86476,223.08522 429.24352,225.94421 L 426.81921,228.58842 L 429.56921,226.82920 C 431.08171,225.86163 432.31921,224.67174 432.31921,224.18499 z M 435.35101,223.55000 C 435.38082,221.91003 435.46395,221.90676 436.67326,223.49804 C 437.87399,225.07803 438.08634,225.05285 439.72761,223.13599 C 440.84229,221.83414 440.99973,221.25144 440.15536,221.55282 C 439.42048,221.81513 438.06431,221.64217 437.14165,221.16846 C 434.81091,219.97182 431.95083,221.15121 433.28501,222.75879 C 433.84428,223.43267 434.00576,224.28011 433.64387,224.64201 C 433.28197,225.00390 433.51088,225.30000 434.15254,225.30000 C 434.79421,225.30000 435.33352,224.51250 435.35101,223.55000 z M 447.31921,221.30000 C 447.31921,220.75000 446.75671,220.28198 446.06921,220.25996 C 445.38171,220.23794 446.07006,219.54157 447.59888,218.71248 C 449.12770,217.88338 450.10146,216.75669 449.76279,216.20871 C 449.42412,215.66074 449.74827,214.48756 450.48312,213.60167 C 451.64929,212.19578 451.39407,212.21073 448.47628,213.71921 C 446.63767,214.66975 445.39626,215.71039 445.71760,216.03173 C 446.03894,216.35307 445.84800,217.16285 445.29328,217.83124 C 444.73856,218.49964 444.56561,219.77854 444.90895,220.67325 C 445.59182,222.45281 447.31921,222.90198 447.31921,221.30000 z M 433.31921,220.30000 C 434.31921,219.65375 434.40254,219.32552 433.56921,219.31531 C 432.88171,219.30689 432.31921,218.62500 432.31921,217.80000 C 432.31921,215.62291 430.22124,215.95863 429.62705,218.23080 C 429.32683,219.37885 428.55397,219.94358 427.72067,219.62382 C 426.94987,219.32803 426.31921,219.58417 426.31921,220.19301 C 426.31921,221.55296 431.26346,221.62853 433.31921,220.30000 z M 442.77106,220.41852 C 442.56124,220.20870 442.78970,219.28940 443.27874,218.37562 C 443.96515,217.09304 443.70454,216.67931 442.13581,216.56114 C 440.90568,216.46847 439.91002,217.14873 439.61293,218.28484 C 439.29906,219.48506 438.52681,219.97230 437.47067,219.63647 C 436.40887,219.29884 436.23143,219.41281 436.97372,219.95567 C 438.08148,220.76582 443.55539,221.20284 442.77106,220.41852 z M 451.31921,220.30000 C 451.31921,219.75000 450.84265,219.30000 450.26019,219.30000 C 449.67773,219.30000 449.47929,219.75000 449.81921,220.30000 C 450.61115,221.58139 451.31921,221.58139 451.31921,220.30000 z M 434.52370,215.23995 C 434.22252,213.18784 433.62950,212.35069 432.72334,212.69841 C 431.98016,212.98360 430.99459,212.54236 430.53319,211.71789 C 429.64104,210.12369 426.31921,210.75124 426.31921,212.51398 C 426.31921,213.06398 426.90438,213.28943 427.61959,213.01497 C 429.01013,212.48138 433.92116,214.71135 433.54453,215.70534 C 433.05717,216.99158 433.36048,218.30000 434.14602,218.30000 C 434.60076,218.30000 434.77072,216.92298 434.52370,215.23995 z M 439.88058,214.52803 C 439.00983,213.65728 436.53711,215.70427 437.00062,216.91215 C 437.45862,218.10568 437.78319,218.04774 438.85572,216.58096 C 439.57070,215.60316 440.03189,214.67934 439.88058,214.52803 z M 454.21402,215.92675 C 455.41676,214.47753 454.72875,211.30000 453.21222,211.30000 C 451.94158,211.30000 452.10778,212.67214 453.56921,214.24718 C 454.58864,215.34587 454.50232,215.48304 453.10123,214.99085 C 451.32929,214.36839 449.87987,215.52732 451.01306,216.66052 C 452.00132,217.64878 452.96895,217.42696 454.21402,215.92675 z M 442.61190,213.31125 C 442.32586,212.21743 441.71264,211.55684 441.24919,211.84327 C 440.26492,212.45159 441.15765,215.30000 442.33258,215.30000 C 442.77224,215.30000 442.89794,214.40506 442.61190,213.31125 z M 437.86298,211.37082 C 436.87975,209.77991 435.29608,211.07616 435.99567,212.89924 C 436.38043,213.90191 436.92475,214.09446 437.56486,213.45435 C 438.10391,212.91530 438.23806,211.97771 437.86298,211.37082 z "
         id="path7313" />
      <path
         style="fill:#182e18"
         d="M 446.38730,237.55000 C 444.77998,234.50537 444.39929,234.21660 444.36341,236.01482 C 444.31331,238.52503 440.80789,240.87291 439.00529,239.60361 C 437.57001,238.59295 435.24157,238.58824 433.63831,239.59274 C 432.98881,239.99968 432.18690,239.89494 431.85628,239.35999 C 431.52567,238.82504 430.62908,238.62760 429.86388,238.92123 C 428.13880,239.58321 425.85760,235.63061 427.01560,233.98608 C 428.14965,232.37557 427.97186,230.24525 426.47673,227.52933 C 425.14711,225.11405 425.66461,223.24878 427.62823,223.37895 C 428.48698,223.43587 428.47052,223.59860 427.56921,223.96228 C 426.88171,224.23969 426.31921,224.93427 426.31921,225.50578 C 426.31921,226.11036 426.97900,225.99731 427.89701,225.23543 C 429.31207,224.06104 429.23979,223.74870 427.19630,222.20729 C 425.36903,220.82898 425.15386,220.20416 426.10982,219.05229 C 426.76544,218.26232 426.98198,217.29610 426.59101,216.90514 C 426.20005,216.51417 426.60844,216.47376 427.49854,216.81532 C 429.31187,217.51116 430.78487,215.86247 429.78920,214.25144 C 429.33921,213.52335 428.74562,213.53115 427.84697,214.27697 C 426.88467,215.07560 426.38064,214.90248 425.88157,213.60190 C 425.45583,212.49245 425.84874,211.38597 426.95591,210.57638 C 429.24752,208.90072 430.25371,208.96574 430.97135,210.83589 C 431.49980,212.21298 431.80776,212.20991 433.95016,210.80616 C 435.72759,209.64154 436.83369,209.50498 438.26871,210.27297 C 439.57627,210.97276 440.40075,210.97708 440.82762,210.28639 C 441.74731,208.79830 443.31921,210.10588 443.31921,212.35902 C 443.31921,214.83056 444.41837,214.80022 449.54007,212.18732 C 453.50877,210.16264 453.73620,210.14978 455.00023,211.87845 C 456.76575,214.29294 456.67858,214.88729 454.22343,217.17460 C 452.14794,219.10821 452.14681,219.13736 454.10578,220.18578 C 455.19375,220.76804 456.38564,222.03073 456.75441,222.99174 C 457.12319,223.95275 457.10504,224.41916 456.71407,224.02820 C 456.32311,223.63723 455.39932,223.81855 454.66122,224.43112 C 452.96770,225.83662 452.89342,224.15889 454.56921,222.35282 C 455.59674,221.24540 455.46327,221.13802 453.81921,221.74944 C 452.71921,222.15853 451.14421,222.60478 450.31921,222.74110 C 449.49421,222.87742 448.65441,223.84644 448.45299,224.89448 C 448.09285,226.76834 448.12192,226.76835 450.20299,224.89501 C 452.75631,222.59655 453.02269,223.84889 450.56921,226.61677 C 448.86802,228.53595 448.88375,228.55713 451.13313,227.37612 C 452.77621,226.51343 453.81759,226.46873 454.72514,227.22193 C 455.42809,227.80533 456.37147,227.94905 456.82155,227.54132 C 457.27162,227.13360 457.30265,227.38435 456.89051,228.09856 C 456.38158,228.98047 455.75789,229.07904 454.94664,228.40576 C 454.28966,227.86052 453.16668,227.77623 452.45114,228.21847 C 451.50734,228.80176 451.77569,229.18611 453.42851,229.61833 C 455.61795,230.19088 455.63822,230.29001 453.94791,232.15779 C 452.79980,233.42643 452.55884,234.33007 453.25407,234.75974 C 454.83139,235.73458 454.55828,237.06093 452.31921,239.30000 C 449.52524,242.09397 448.64980,241.83571 446.38730,237.55000 z M 451.16116,239.41884 C 452.14664,238.79424 451.83884,238.44133 450.00246,238.09028 C 448.19442,237.74465 447.64464,237.98447 448.01749,238.95612 C 448.61264,240.50704 449.28750,240.60638 451.16116,239.41884 z M 440.76237,237.05000 C 439.78975,233.88582 439.70411,233.86350 437.26288,236.13785 L 435.07433,238.17680 L 437.19677,237.62177 C 438.42423,237.30078 439.31921,237.53759 439.31921,238.18337 C 439.31921,238.79752 439.79953,239.30000 440.38660,239.30000 C 441.03177,239.30000 441.18041,238.41000 440.76237,237.05000 z M 430.31921,236.50000 C 430.31921,235.51000 430.88171,234.10492 431.56921,233.37759 C 432.60401,232.28285 432.38882,232.27174 430.31921,233.31305 C 427.04484,234.96053 427.17996,234.77356 427.90266,236.65687 C 428.74570,238.85380 430.31921,238.75165 430.31921,236.50000 z M 433.63208,235.21287 C 432.30426,233.88505 430.83277,235.70391 431.87306,237.38713 C 432.35688,238.16998 432.84923,238.16998 433.63208,237.38713 C 434.41492,236.60429 434.41492,235.99571 433.63208,235.21287 z M 452.84620,236.34367 C 452.52113,235.81770 451.59457,235.64084 450.78719,235.95066 C 448.72007,236.74389 448.96366,237.30000 451.37823,237.30000 C 452.51069,237.30000 453.17127,236.86965 452.84620,236.34367 z M 443.31921,234.24098 C 443.31921,233.72344 442.86921,233.30000 442.31921,233.30000 C 441.76921,233.30000 441.31921,234.00156 441.31921,234.85902 C 441.31921,235.71648 441.76921,236.13992 442.31921,235.80000 C 442.86921,235.46008 443.31921,234.75852 443.31921,234.24098 z M 450.81921,233.30000 L 453.69339,230.30000 L 450.75630,230.37895 C 449.14090,230.42237 448.38171,230.68487 449.06921,230.96228 C 449.75671,231.23969 450.31921,231.94891 450.31921,232.53832 C 450.31921,233.12801 449.53217,232.92435 448.56921,232.08548 C 445.94076,229.79572 444.15390,230.84309 445.53130,233.86614 C 446.94600,236.97107 447.34280,236.92858 450.81921,233.30000 z M 440.62217,230.35053 C 440.12709,228.45734 439.94980,228.43832 436.96056,229.95768 C 432.81334,232.06561 432.84393,232.02239 434.27730,233.74950 C 436.13740,235.99079 441.36483,233.19045 440.62217,230.35053 z M 430.86033,231.23347 C 431.93660,229.49203 430.71081,229.12323 429.33927,230.77583 C 428.55052,231.72622 428.47465,232.30000 429.13775,232.30000 C 429.72263,232.30000 430.49779,231.82006 430.86033,231.23347 z M 443.85367,229.05934 C 441.96337,228.00148 440.78891,228.63294 441.75110,230.18980 C 442.09879,230.75237 443.09310,230.94026 443.96069,230.60733 C 445.36960,230.06669 445.35816,229.90131 443.85367,229.05934 z M 435.63651,223.99318 C 435.20559,221.96397 435.27717,221.92968 436.59387,223.53446 C 437.92697,225.15923 439.31921,224.97228 439.31921,223.16852 C 439.31921,221.82138 435.55850,220.27094 433.86613,220.92037 C 432.73402,221.35480 432.56461,221.89076 433.28501,222.75879 C 433.84428,223.43267 434.00576,224.28011 433.64387,224.64201 C 433.28197,225.00390 433.58062,225.30000 434.30753,225.30000 C 435.23023,225.30000 435.05415,225.97919 433.72420,227.55000 L 431.81921,229.80000 L 433.96073,227.99318 C 435.35296,226.81855 435.93930,225.41900 435.63651,223.99318 z M 438.88105,226.52850 C 438.54585,226.19330 437.49480,226.73233 436.54540,227.72634 C 434.89518,229.45409 434.92200,229.48091 437.15486,228.33580 C 438.43946,227.67699 439.21625,226.86370 438.88105,226.52850 z M 448.30390,228.55000 C 448.26445,226.61802 446.49783,225.28509 444.73926,225.86046 C 443.32673,226.32262 443.17784,226.23245 444.17597,225.51933 C 445.13984,224.83070 445.20751,224.34900 444.40966,223.85590 C 443.79197,223.47415 443.52627,222.77399 443.81921,222.30000 C 444.11215,221.82601 443.82497,221.11257 443.18101,220.71459 C 442.44979,220.26267 442.27809,220.42445 442.72372,221.14549 C 443.58898,222.54552 442.36792,222.62398 440.31921,221.30000 C 439.03097,220.46747 439.06129,220.32846 440.53403,220.31531 C 441.47717,220.30689 442.68063,219.49320 443.20837,218.50711 C 443.97829,217.06849 443.76635,216.68396 442.13581,216.56114 C 440.90568,216.46847 439.91002,217.14873 439.61293,218.28484 C 439.29742,219.49132 438.53232,219.97008 437.47067,219.62533 C 436.56237,219.33037 437.16921,220.03355 438.81921,221.18793 C 440.46921,222.34232 441.41497,223.28979 440.92090,223.29341 C 440.42682,223.29704 441.43523,224.65000 443.16179,226.30000 C 446.17939,229.18378 448.33610,230.12748 448.30390,228.55000 z M 432.31921,224.18499 C 432.31921,222.82528 431.86476,223.08522 429.24352,225.94421 L 426.81921,228.58842 L 429.56921,226.82920 C 431.08171,225.86163 432.31921,224.67174 432.31921,224.18499 z M 433.43263,219.50447 C 432.82025,219.30035 432.31921,218.49583 432.31921,217.71667 C 432.31921,215.60278 430.20891,216.00580 429.62705,218.23080 C 429.32683,219.37885 428.55397,219.94358 427.72067,219.62382 C 426.94987,219.32803 426.31921,219.55117 426.31921,220.11969 C 426.31921,220.68820 427.10671,221.32600 428.06921,221.53702 C 430.07757,221.97732 435.11929,220.06669 433.43263,219.50447 z M 447.31921,221.30000 C 447.31921,220.75000 446.75671,220.28198 446.06921,220.25996 C 445.38171,220.23794 446.07006,219.54157 447.59888,218.71248 C 449.12770,217.88338 450.10146,216.75669 449.76279,216.20871 C 449.42412,215.66074 449.74827,214.48756 450.48312,213.60167 C 451.64929,212.19578 451.39407,212.21073 448.47628,213.71921 C 446.63767,214.66975 445.39626,215.71039 445.71760,216.03173 C 446.03894,216.35307 445.84800,217.16285 445.29328,217.83124 C 444.73856,218.49964 444.56561,219.77854 444.90895,220.67325 C 445.59182,222.45281 447.31921,222.90198 447.31921,221.30000 z M 451.31921,220.30000 C 451.31921,219.75000 450.84265,219.30000 450.26019,219.30000 C 449.67773,219.30000 449.47929,219.75000 449.81921,220.30000 C 450.61115,221.58139 451.31921,221.58139 451.31921,220.30000 z M 434.52370,215.23995 C 434.22252,213.18784 433.62950,212.35069 432.72334,212.69841 C 431.98016,212.98360 430.99459,212.54236 430.53319,211.71789 C 429.64104,210.12369 426.31921,210.75124 426.31921,212.51398 C 426.31921,213.06398 426.90438,213.28943 427.61959,213.01497 C 429.01013,212.48138 433.92116,214.71135 433.54453,215.70534 C 433.05717,216.99158 433.36048,218.30000 434.14602,218.30000 C 434.60076,218.30000 434.77072,216.92298 434.52370,215.23995 z M 439.88058,214.52803 C 439.00983,213.65728 436.53711,215.70427 437.00062,216.91215 C 437.45862,218.10568 437.78319,218.04774 438.85572,216.58096 C 439.57070,215.60316 440.03189,214.67934 439.88058,214.52803 z M 454.21402,215.92675 C 455.41676,214.47753 454.72875,211.30000 453.21222,211.30000 C 451.94158,211.30000 452.10778,212.67214 453.56921,214.24718 C 454.58864,215.34587 454.50232,215.48304 453.10123,214.99085 C 451.32929,214.36839 449.87987,215.52732 451.01306,216.66052 C 452.00132,217.64878 452.96895,217.42696 454.21402,215.92675 z M 442.61190,213.31125 C 442.32586,212.21743 441.71264,211.55684 441.24919,211.84327 C 440.26492,212.45159 441.15765,215.30000 442.33258,215.30000 C 442.77224,215.30000 442.89794,214.40506 442.61190,213.31125 z M 437.86298,211.37082 C 436.87975,209.77991 435.29608,211.07616 435.99567,212.89924 C 436.38043,213.90191 436.92475,214.09446 437.56486,213.45435 C 438.10391,212.91530 438.23806,211.97771 437.86298,211.37082 z "
         id="path7311" />
      <path
         style="fill:#000000"
         d="M 446.38730,237.55000 C 444.77998,234.50537 444.39929,234.21660 444.36341,236.01482 C 444.31331,238.52503 440.80789,240.87291 439.00529,239.60361 C 437.57001,238.59295 435.24157,238.58824 433.63831,239.59274 C 432.98881,239.99968 432.18690,239.89494 431.85628,239.35999 C 431.52567,238.82504 430.62908,238.62760 429.86388,238.92123 C 428.04710,239.61840 425.73349,235.48572 427.14842,234.07079 C 427.70640,233.51281 428.04684,232.54863 427.90496,231.92815 C 427.76308,231.30767 427.83575,231.13750 428.06644,231.55000 C 428.82549,232.90726 430.84529,232.33438 432.62361,230.25745 C 433.58550,229.13405 434.80535,228.48242 435.33440,228.80939 C 435.87147,229.14131 436.03328,228.71844 435.70077,227.85194 C 434.96371,225.93120 433.70638,225.84866 433.00555,227.67500 C 432.21473,229.73583 427.42554,229.36720 426.24125,227.15433 C 424.97137,224.78153 425.99237,222.97710 428.17036,223.74499 C 429.07723,224.06472 428.71639,223.46283 427.36850,222.40746 C 425.39893,220.86533 425.15182,220.20662 426.10982,219.05229 C 426.76544,218.26232 426.98198,217.29610 426.59101,216.90514 C 426.20005,216.51417 426.60844,216.47376 427.49854,216.81532 C 429.31187,217.51116 430.78487,215.86247 429.78920,214.25144 C 429.33921,213.52335 428.74562,213.53115 427.84697,214.27697 C 426.88467,215.07560 426.38064,214.90248 425.88157,213.60190 C 425.45583,212.49245 425.84874,211.38597 426.95591,210.57638 C 429.24752,208.90072 430.25371,208.96574 430.97135,210.83589 C 431.49980,212.21298 431.80776,212.20991 433.95016,210.80616 C 435.66976,209.67943 436.85445,209.51608 438.17620,210.22347 C 439.42563,210.89214 440.37103,210.84818 441.13323,210.08598 C 441.96045,209.25876 442.42539,209.41314 442.90997,210.67591 C 443.27094,211.61660 443.28569,212.66685 442.94275,213.00979 C 442.59980,213.35274 442.31921,212.82823 442.31921,211.84422 C 442.31921,210.38234 442.04996,210.27857 440.84709,211.27686 C 439.55098,212.35254 439.55113,212.67478 440.84838,213.97202 C 442.14626,215.26990 442.99126,215.13894 447.94134,212.87272 C 451.03210,211.45772 453.71568,210.30000 453.90487,210.30000 C 454.88717,210.30000 456.22915,214.37112 455.70075,215.74811 C 455.17056,217.12975 454.85123,217.06644 453.29401,215.27095 C 452.00400,213.78355 451.28956,213.53896 450.75611,214.40209 C 450.33699,215.08025 450.72666,216.12477 451.65089,216.80058 C 452.55137,217.45903 453.03158,218.25430 452.71802,218.56786 C 452.40446,218.88141 453.03352,219.61192 454.11591,220.19120 C 456.50066,221.46748 457.94117,224.47590 455.76828,223.64208 C 454.97028,223.33586 454.31921,223.65828 454.31921,224.35968 C 454.31921,225.06019 454.03008,225.34421 453.67671,224.99083 C 453.32333,224.63746 453.60343,223.66246 454.29915,222.82417 C 455.66904,221.17355 455.35414,220.96563 452.90674,221.90479 C 452.03992,222.23742 451.59185,222.93213 451.91104,223.44859 C 452.23023,223.96505 451.89368,225.10781 451.16314,225.98805 C 449.99963,227.39000 450.10253,227.50355 451.99289,226.90357 C 453.19169,226.52309 454.44126,226.68846 454.80415,227.27564 C 455.16344,227.85698 455.94584,228.03075 456.54282,227.66180 C 457.21783,227.24462 457.33808,227.46045 456.86085,228.23262 C 456.35088,229.05778 455.75910,229.13989 455.09661,228.47740 C 454.43413,227.81492 453.13026,227.81851 451.20948,228.48810 C 447.86576,229.65372 447.77439,229.89803 449.89064,232.01429 C 451.31921,233.44286 451.61142,233.43636 453.10492,231.94286 C 454.62873,230.41905 454.61148,230.30000 452.86683,230.30000 C 451.83231,230.30000 451.26647,230.01941 451.60942,229.67646 C 451.95236,229.33352 452.98861,229.34290 453.91220,229.69731 C 455.48096,230.29930 455.47951,230.46539 453.89019,232.22157 C 452.77491,233.45394 452.55580,234.32819 453.25407,234.75974 C 454.83139,235.73458 454.55828,237.06093 452.31921,239.30000 C 449.52524,242.09397 448.64980,241.83571 446.38730,237.55000 z M 452.15100,239.20032 C 452.51851,239.14550 451.69421,238.74035 450.31921,238.30000 L 447.81921,237.49936 L 450.56921,237.39968 C 452.08171,237.34486 453.31921,236.85000 453.31921,236.30000 C 453.31921,234.94438 449.98889,235.03032 448.59735,236.42186 C 447.09707,237.92214 448.19738,240.56073 450.03004,239.85747 C 450.82905,239.55086 451.78348,239.25514 452.15100,239.20032 z M 434.31921,236.44098 C 434.31921,233.56573 432.32987,232.22899 429.91601,233.48226 C 427.09846,234.94512 427.19026,234.80038 427.90266,236.65687 C 428.76969,238.91631 430.31921,238.72532 430.31921,236.35902 C 430.31921,235.29148 430.76406,234.14310 431.30776,233.80708 C 431.87462,233.45674 432.04226,233.85814 431.70077,234.74806 C 430.91639,236.79212 432.03044,239.59650 433.31215,238.80437 C 433.86603,238.46205 434.31921,237.39852 434.31921,236.44098 z M 440.76237,237.05000 C 439.82323,233.99473 439.79911,233.98335 437.41659,235.47126 C 434.75259,237.13496 434.68988,238.63452 437.31921,237.80000 C 438.46652,237.43586 439.31921,237.62030 439.31921,238.23261 C 439.31921,238.81968 439.79953,239.30000 440.38660,239.30000 C 441.03177,239.30000 441.18041,238.41000 440.76237,237.05000 z M 443.02106,237.66852 C 442.67374,237.32120 442.82496,236.22351 443.35710,235.22921 C 443.99020,234.04624 443.97560,233.20567 443.31485,232.79731 C 442.75948,232.45407 442.03512,232.87676 441.70516,233.73662 C 441.05178,235.43930 441.83496,238.30000 442.95449,238.30000 C 443.33842,238.30000 443.36838,238.01583 443.02106,237.66852 z M 449.10556,235.11365 C 450.02069,234.19853 449.93062,233.52809 448.71160,232.18109 C 446.36879,229.59231 444.13131,230.79351 445.53947,233.88406 C 446.77897,236.60448 447.40044,236.81877 449.10556,235.11365 z M 440.62217,230.35053 C 440.12709,228.45734 439.94980,228.43832 436.96056,229.95768 C 432.81334,232.06561 432.84393,232.02239 434.27730,233.74950 C 436.13740,235.99079 441.36483,233.19045 440.62217,230.35053 z M 445.77216,230.13949 C 448.52522,228.88510 448.71743,228.47586 447.47395,226.51613 C 447.00630,225.77911 445.84149,225.49984 444.73926,225.86046 C 443.20637,226.36200 443.11583,226.27897 444.29025,225.44871 C 445.09932,224.87673 445.44770,224.09515 445.06442,223.71187 C 444.68113,223.32859 443.66423,223.59869 442.80463,224.31210 C 441.42052,225.46081 441.56075,225.82489 444.03047,227.49470 L 446.81921,229.38019 L 444.06921,228.73169 C 441.94025,228.22964 441.31921,228.44642 441.31921,229.69159 C 441.31921,231.60125 442.33885,231.70381 445.77216,230.13949 z M 432.73281,224.66455 C 433.32184,223.12956 430.76597,222.76811 429.84620,224.25633 C 429.52113,224.78231 428.59457,224.95916 427.78719,224.64934 C 426.97980,224.33951 426.31921,224.61073 426.31921,225.25203 C 426.31921,225.89333 426.84568,226.09266 427.48915,225.69497 C 428.26953,225.21267 428.45200,225.51157 428.03715,226.59264 C 427.50587,227.97716 427.76458,228.05420 429.81220,227.12124 C 431.13054,226.52056 432.44482,225.41505 432.73281,224.66455 z M 439.31921,227.41663 C 439.31921,226.93078 438.41921,226.29791 437.31921,226.01025 C 436.21382,225.72119 435.33281,224.66258 435.34962,223.64362 C 435.37817,221.91266 435.44231,221.90693 436.39931,223.55000 C 437.64830,225.69439 439.31921,225.83745 439.31921,223.80000 C 439.31921,222.97500 439.79577,222.30000 440.37823,222.30000 C 440.96069,222.30000 441.15913,222.75000 440.81921,223.30000 C 439.97806,224.66101 441.64989,224.56932 443.04107,223.17815 C 443.65809,222.56113 443.92274,221.43039 443.62919,220.66541 C 443.33564,219.90043 443.70830,218.53208 444.45733,217.62464 C 445.62166,216.21409 445.60162,216.05195 444.31921,216.50689 C 443.49421,216.79956 442.09679,216.41189 441.21383,215.64540 C 439.27719,213.96422 436.22189,214.88282 437.00062,216.91215 C 437.45976,218.10865 437.77831,218.05440 438.84296,216.59841 C 439.98554,215.03583 440.07152,215.14489 439.60812,217.56902 C 439.22021,219.59820 439.48631,220.30000 440.64362,220.30000 C 441.50027,220.30000 442.52655,220.82647 442.92424,221.46994 C 443.43177,222.29114 443.07676,222.41287 441.73325,221.87832 C 439.10997,220.83457 435.15974,220.42396 433.57864,221.03069 C 432.58020,221.41382 432.54151,221.86293 433.41613,222.91678 C 434.04751,223.67755 434.28400,224.30000 433.94165,224.30000 C 433.59931,224.30000 434.10671,225.16250 435.06921,226.21667 C 436.91135,228.23424 439.31921,228.91409 439.31921,227.41663 z M 449.99455,227.64201 C 449.63266,227.28011 449.84678,226.36924 450.47039,225.61784 C 451.09399,224.86645 451.31899,223.96645 450.97039,223.61784 C 450.62178,223.26924 450.82140,222.39983 451.41398,221.68581 C 453.03622,219.73113 451.59393,218.08261 449.32426,219.29730 C 448.29380,219.84878 446.85861,220.28198 446.13495,220.25996 C 445.41129,220.23794 446.07006,219.54157 447.59888,218.71248 C 449.12770,217.88338 450.10146,216.75669 449.76279,216.20871 C 449.42412,215.66074 449.74827,214.48756 450.48312,213.60167 C 451.64929,212.19578 451.39407,212.21073 448.47628,213.71921 C 446.63767,214.66975 445.39626,215.71039 445.71760,216.03173 C 446.03894,216.35307 445.84800,217.16285 445.29328,217.83124 C 444.21618,219.12907 444.97820,222.30000 446.36718,222.30000 C 446.82588,222.30000 447.48383,221.84266 447.82929,221.28369 C 448.17476,220.72472 448.86710,220.52058 449.36783,220.83005 C 449.89217,221.15411 449.79594,222.16503 449.14091,223.21390 C 448.03140,224.99050 448.56080,228.30000 449.95449,228.30000 C 450.33842,228.30000 450.35645,228.00390 449.99455,227.64201 z M 433.09759,219.14187 C 432.17783,218.55820 432.34015,218.32633 433.67620,218.31531 C 434.95602,218.30476 435.34453,217.80837 434.92620,216.71821 C 434.59235,215.84823 434.31921,214.45008 434.31921,213.61122 C 434.31921,212.67850 433.74680,212.30568 432.84566,212.65148 C 432.03520,212.96248 430.99459,212.54236 430.53319,211.71789 C 429.64104,210.12369 426.31921,210.75124 426.31921,212.51398 C 426.31921,213.06398 426.90438,213.28943 427.61959,213.01497 C 428.33480,212.74052 429.79730,213.02988 430.86959,213.65798 C 433.18994,215.01716 433.96795,217.48618 431.81564,216.66026 C 430.97734,216.33857 430.06933,216.78759 429.72065,217.69625 C 429.38217,218.57831 428.47838,219.30000 427.71222,219.30000 C 425.70859,219.30000 425.99294,221.08182 428.06921,221.53702 C 430.65759,222.10448 434.71822,220.17030 433.09759,219.14187 z M 454.73576,212.94313 C 454.09284,211.26771 452.31921,210.64890 452.31921,212.10000 C 452.31921,213.07287 454.55016,215.40238 455.02608,214.92646 C 455.21319,214.73935 455.08255,213.84685 454.73576,212.94313 z M 438.31921,212.85902 C 438.31921,211.26639 436.50485,209.78103 435.62914,210.65674 C 434.80650,211.47938 436.09066,214.30000 437.28782,214.30000 C 437.85509,214.30000 438.31921,213.65156 438.31921,212.85902 z "
         id="path7309" />
    </g>
  </g>
</svg>
