<?xml version="1.0" encoding="UTF-8" standalone="no"?>
<!-- Created with Inkscape (http://www.inkscape.org/) -->
<svg
   xmlns:dc="http://purl.org/dc/elements/1.1/"
   xmlns:cc="http://web.resource.org/cc/"
   xmlns:rdf="http://www.w3.org/1999/02/22-rdf-syntax-ns#"
   xmlns:svg="http://www.w3.org/2000/svg"
   xmlns="http://www.w3.org/2000/svg"
   xmlns:sodipodi="http://inkscape.sourceforge.net/DTD/sodipodi-0.dtd"
   xmlns:inkscape="http://www.inkscape.org/namespaces/inkscape"
   sodipodi:docname="52.svg"
   sodipodi:docbase="/home/adam/workspace/Escape/src/org/spacebar/escape/j2se/resources/tiles"
   inkscape:version="0.41"
   sodipodi:version="0.32"
   id="svg10614"
   height="32px"
   width="32px">
  <defs
     id="defs3" />
  <sodipodi:namedview
     inkscape:window-y="379"
     inkscape:window-x="153"
     inkscape:window-height="536"
     inkscape:window-width="640"
     inkscape:document-units="px"
     inkscape:grid-bbox="true"
     showgrid="true"
     inkscape:current-layer="layer1"
     inkscape:cy="15.821393"
     inkscape:cx="17.428852"
     inkscape:zoom="11.197802"
     inkscape:pageshadow="2"
     inkscape:pageopacity="0.0"
     borderopacity="1.0"
     bordercolor="#666666"
     pagecolor="#ffffff"
     id="base" />
  <metadata
     id="metadata4">
    <rdf:RDF
       id="RDF5">
      <cc:Work
         id="Work6"
         rdf:about="">
        <dc:format
           id="format7">image/svg+xml</dc:format>
        <dc:type
           rdf:resource="http://purl.org/dc/dcmitype/StillImage"
           id="type9" />
      </cc:Work>
    </rdf:RDF>
  </metadata>
  <g
     inkscape:groupmode="layer"
     inkscape:label="Layer 1"
     id="layer1">
    <g
       transform="translate(-448.0000,-348.4143)"
       id="g10548">
      <path
         id="path10550"
         d="M 448.00000,364.36218 L 448.00000,348.36218 L 464.00000,348.36218 L 480.00000,348.36218 L 480.00000,364.36218 L 480.00000,380.36218 L 464.00000,380.36218 L 448.00000,380.36218 L 448.00000,364.36218 z "
         style="fill:#ffffff;fill-opacity:1.0000000" />
      <path
         id="path10552"
         d="M 448.35441,364.61218 L 448.47959,348.86218 L 464.23980,348.60562 L 480.00000,348.34906 L 480.00000,364.35562 L 480.00000,380.36218 L 464.11461,380.36218 L 448.22922,380.36218 L 448.35441,364.61218 z M 452.18750,371.67907 C 451.46562,371.39020 450.60312,371.42572 450.27083,371.75801 C 449.93854,372.09031 450.52917,372.32665 451.58333,372.28323 C 452.74828,372.23525 452.98523,371.99829 452.18750,371.67907 z "
         style="fill:#cfccf4;fill-opacity:1.0000000" />
      <path
         id="path10554"
         d="M 448.45481,364.61218 L 448.50000,348.86218 L 464.24928,348.86218 L 479.99857,348.86218 L 479.99928,364.61218 L 480.00000,380.36218 L 464.20481,380.36218 L 448.40962,380.36218 L 448.45481,364.61218 z M 452.25000,371.69990 C 451.56250,371.42249 450.43750,371.42249 449.75000,371.69990 C 449.06250,371.97731 449.62500,372.20429 451.00000,372.20429 C 452.37500,372.20429 452.93750,371.97731 452.25000,371.69990 z M 453.00000,360.34212 C 453.00000,357.62280 456.73141,354.51716 461.97719,352.87044 L 466.50000,351.45068 L 459.00000,351.65643 L 451.50000,351.86218 L 451.19736,357.70373 C 450.99523,361.60539 451.24429,363.32923 451.94736,362.89471 C 452.52631,362.53690 453.00000,361.38823 453.00000,360.34212 z "
         style="fill:#3d32d4;fill-opacity:1.0000000" />
      <path
         id="path10556"
         d="M 449.00000,376.38823 C 449.00000,372.42598 449.05942,372.36009 452.75000,372.23054 L 456.50000,372.09890 L 453.00000,371.48054 L 449.50000,370.86218 L 449.50000,360.36218 L 449.50000,349.86218 L 464.00000,349.86218 C 472.49990,349.86218 478.81041,349.44838 479.25016,348.86218 C 479.66274,348.31218 479.88774,355.06218 479.75016,363.86218 L 479.50000,379.86218 L 464.25000,380.13823 L 449.00000,380.41427 L 449.00000,376.38823 z M 454.00000,376.58029 C 454.00000,376.15025 455.20127,375.69898 456.66949,375.57746 C 461.25200,375.19820 460.56214,374.36218 455.66667,374.36218 C 452.18519,374.36218 451.00000,374.74313 451.00000,375.86218 C 451.00000,376.68718 451.67500,377.36218 452.50000,377.36218 C 453.32500,377.36218 454.00000,377.01033 454.00000,376.58029 z M 459.00000,364.57159 C 462.02500,363.85759 466.30000,362.95589 468.50000,362.56780 C 471.91017,361.96623 472.54666,361.45667 472.81642,359.11218 C 473.18460,355.91237 473.39343,355.94541 465.12292,357.89500 C 461.53944,358.73973 457.43229,360.50353 455.74735,361.92132 C 454.09818,363.30900 452.59257,364.28808 452.40154,364.09705 C 452.21051,363.90602 452.48528,362.18853 453.01213,360.28040 C 454.07505,356.43083 457.50374,353.91159 463.64317,352.46920 C 467.01507,351.67701 466.45781,351.55045 459.21106,351.46263 L 450.92213,351.36218 L 451.09243,359.34001 C 451.21230,364.95532 451.59400,367.10342 452.38137,366.59380 C 452.99662,366.19558 455.97500,365.28559 459.00000,364.57159 z "
         style="fill:#2b22a5;fill-opacity:1.0000000" />
      <path
         id="path10558"
         d="M 449.00000,376.36218 L 449.00000,372.36218 L 454.25000,372.20508 L 459.50000,372.04797 L 454.50000,371.45508 L 449.50000,370.86218 L 449.50000,360.36218 L 449.50000,349.86218 L 464.75000,349.68246 L 480.00000,349.50273 L 480.00000,364.32547 C 480.00000,376.91937 479.76215,379.23947 478.41821,379.75519 C 477.54823,380.08904 470.57323,380.36218 462.91821,380.36218 L 449.00000,380.36218 L 449.00000,376.36218 z M 456.50000,375.89102 L 460.50000,374.44997 L 455.75000,374.40607 C 452.17494,374.37304 451.00000,374.73321 451.00000,375.86218 C 451.00000,377.70267 451.46453,377.70511 456.50000,375.89102 z M 478.00000,360.36218 L 478.00000,350.36218 L 464.00000,350.36218 L 450.00000,350.36218 L 450.00000,360.36218 L 450.00000,370.36218 L 464.00000,370.36218 L 478.00000,370.36218 L 478.00000,360.36218 z M 451.00000,368.39736 C 451.00000,366.73869 454.25683,365.65871 461.08695,365.05251 C 469.65906,364.29169 473.00000,362.76520 473.00000,359.60939 C 473.00000,358.27193 473.90000,356.03347 475.00000,354.63505 L 477.00000,352.09246 L 477.00000,359.52732 C 477.00000,363.97666 476.51813,367.44405 475.80000,368.16218 C 474.32082,369.64136 451.00000,369.86252 451.00000,368.39736 z "
         style="fill:#201a79;fill-opacity:1.0000000" />
      <path
         id="path10560"
         d="M 449.66667,379.69551 C 448.46541,378.49426 448.96878,373.31139 450.33772,372.78608 C 451.07346,372.50375 457.71096,371.95537 465.08772,371.56747 L 478.50000,370.86218 L 479.05233,359.86218 L 479.60465,348.86218 L 479.80233,364.00519 C 479.97209,377.01045 479.77670,379.23389 478.41821,379.75519 C 476.26286,380.58228 450.49996,380.52880 449.66667,379.69551 z M 456.50000,375.89102 L 460.50000,374.44997 L 455.75000,374.40607 C 452.17494,374.37304 451.00000,374.73321 451.00000,375.86218 C 451.00000,377.70267 451.46453,377.70511 456.50000,375.89102 z M 451.00000,368.53116 C 451.00000,366.99915 455.44661,365.52484 461.79609,364.95161 C 465.25895,364.63899 468.94186,363.92848 469.98035,363.37269 C 471.01884,362.81691 473.02310,362.36218 474.43426,362.36218 C 476.44489,362.36218 477.00000,362.85980 477.00000,364.66218 C 477.00000,368.80630 475.32052,369.36218 462.80000,369.36218 C 456.31000,369.36218 451.00000,368.98822 451.00000,368.53116 z M 474.03180,356.61218 C 474.04930,356.19968 474.72429,354.98867 475.53180,353.92105 C 476.93989,352.05939 477.00000,352.09010 477.00000,354.67105 C 477.00000,356.39650 476.46174,357.36218 475.50000,357.36218 C 474.67500,357.36218 474.01431,357.02468 474.03180,356.61218 z "
         style="fill:#1a1561;fill-opacity:1.0000000" />
      <path
         id="path10562"
         d="M 450.00000,379.36218 C 450.00000,378.74313 455.33333,378.36218 464.00000,378.36218 C 476.62324,378.36218 478.01121,378.19009 478.11401,376.61218 C 478.17671,375.64968 478.55051,369.01218 478.94468,361.86218 L 479.66134,348.86218 L 479.83067,363.41218 C 479.94920,373.59683 479.63997,378.32221 478.80000,379.16218 C 477.28090,380.68128 450.00000,380.87073 450.00000,379.36218 z M 472.41269,375.78774 C 476.45920,374.30520 477.67857,374.45522 476.54112,376.29565 C 476.17858,376.88224 474.22102,377.33047 472.19098,377.29172 L 468.50000,377.22126 L 472.41269,375.78774 z M 452.00000,368.46917 C 452.00000,367.13372 454.30497,366.48807 461.76257,365.73454 C 465.46816,365.36012 469.49047,364.41085 470.70104,363.62505 C 473.39695,361.87509 477.24495,362.85174 476.79801,365.17250 C 476.22950,368.12453 471.87689,369.33213 461.75000,369.34744 C 456.38750,369.35555 452.00000,368.96033 452.00000,368.46917 z M 474.50000,356.36218 C 474.83992,355.81218 475.56803,355.36218 476.11803,355.36218 C 476.66803,355.36218 476.83992,355.81218 476.50000,356.36218 C 476.16008,356.91218 475.43197,357.36218 474.88197,357.36218 C 474.33197,357.36218 474.16008,356.91218 474.50000,356.36218 z "
         style="fill:#0a0824;fill-opacity:1.0000000" />
    </g>
  </g>
</svg>
