<?xml version="1.0" encoding="UTF-8" standalone="no"?>
<!-- Created with Inkscape (http://www.inkscape.org/) -->
<svg
   xmlns:dc="http://purl.org/dc/elements/1.1/"
   xmlns:cc="http://web.resource.org/cc/"
   xmlns:rdf="http://www.w3.org/1999/02/22-rdf-syntax-ns#"
   xmlns:svg="http://www.w3.org/2000/svg"
   xmlns="http://www.w3.org/2000/svg"
   xmlns:sodipodi="http://inkscape.sourceforge.net/DTD/sodipodi-0.dtd"
   xmlns:inkscape="http://www.inkscape.org/namespaces/inkscape"
   width="32px"
   height="32px"
   id="svg6539"
   sodipodi:version="0.32"
   inkscape:version="0.43"
   sodipodi:docbase="/home/adam/workspace/Escape-j2se/src/org/spacebar/escape/j2se/resources/tiles"
   sodipodi:docname="55.svg"
   inkscape:export-filename="/home/adam/heart-framer.png"
   inkscape:export-xdpi="281.25000"
   inkscape:export-ydpi="281.25000">
  <defs
     id="defs3" />
  <sodipodi:namedview
     id="base"
     pagecolor="#ffffff"
     bordercolor="#666666"
     borderopacity="1.0"
     inkscape:pageopacity="0.0"
     inkscape:pageshadow="2"
     inkscape:zoom="4.28125"
     inkscape:cx="34.867093"
     inkscape:cy="30.750594"
     inkscape:current-layer="layer1"
     showgrid="true"
     inkscape:grid-bbox="true"
     inkscape:document-units="px"
     inkscape:window-width="792"
     inkscape:window-height="541"
     inkscape:window-x="601"
     inkscape:window-y="178" />
  <metadata
     id="metadata4">
    <rdf:RDF>
      <cc:Work
         rdf:about="">
        <dc:format>image/svg+xml</dc:format>
        <dc:type
           rdf:resource="http://purl.org/dc/dcmitype/StillImage" />
      </cc:Work>
    </rdf:RDF>
  </metadata>
  <g
     id="layer1"
     inkscape:label="Layer 1"
     inkscape:groupmode="layer">
    <g
       id="g6491"
       transform="matrix(1,0,0,0.996865,-431.8549,-666.1668)">
      <path
         sodipodi:nodetypes="czzzzzzzz"
         id="rect6070"
         d="M 435,668.36218 L 461,668.36218 C 462.41421,668.36218 463.3171,668.82323 463.34375,670.23718 L 463.85493,697.36218 C 463.88158,698.77617 462.41317,700.41653 461,700.36218 L 435,699.36218 C 433.58683,699.30783 433.03843,698.36145 433,697.36218 L 432,671.36218 C 431.94565,669.94901 433.58579,668.36218 435,668.36218 z "
         style="color:#000000;fill:#ffffff;fill-opacity:1;fill-rule:nonzero;stroke:none;stroke-width:1.79999995;stroke-linecap:square;stroke-linejoin:miter;marker:none;marker-start:none;marker-mid:none;marker-end:none;stroke-miterlimit:4;stroke-dashoffset:0;stroke-opacity:1;visibility:visible;display:inline;overflow:visible" />
      <path
         style="fill:#fee4df"
         d="M 432.91161,670.40637 C 433.78044,669.03473 443.23958,669.79968 448,669.36218 L 463,669.36218 C 464.4375,669.98718 463.5216,679.27885 463.85493,684.36218 L 463,699.36218 L 448,699.36218 C 448,699.36218 435,701.36218 433,699.36218 C 431,697.36218 432.07544,671.72646 432.91161,670.40637 z M 458.8,695.16218 C 459.60899,694.35319 459.93559,690.52452 459.80233,683.41218 L 459.60465,672.86218 L 459.05233,683.86218 L 458.5,694.86218 L 447.5,695.41451 L 436.5,695.96683 L 447.05,696.16451 C 454.16234,696.29777 457.99101,695.97117 458.8,695.16218 z M 448,691.01717 C 448,690.82741 446.9875,689.81491 445.75,688.76717 L 443.5,686.86218 L 445.40499,689.11218 C 447.19521,691.22663 448,691.81742 448,691.01717 z M 441.47546,683.68439 C 439.76805,681.07855 439.7822,680.95696 442.00212,679.15938 C 444.53914,677.10502 443.87865,675.3221 441.20204,676.99968 C 438.82254,678.49103 438.51282,682.16636 440.57463,684.44464 C 443.06342,687.19473 443.52197,686.80775 441.47546,683.68439 z M 450,680.39412 C 450,679.86168 451.2375,678.7547 452.75,677.93415 C 454.96261,676.7338 455.12455,676.43443 453.57874,676.40222 C 451.60072,676.361 448,679.01693 448,680.51717 C 448,680.98192 448.45,681.36218 449,681.36218 C 449.55,681.36218 450,680.92655 450,680.39412 z "
         id="path6505"
         sodipodi:nodetypes="cccccczzccccccccccccccccccccccccc" />
      <path
         style="fill:#fbd0c7"
         d="M 433.875,697.29968 C 433.3749,695.92085 434,691.2518 434,684.50316 C 434,676.70462 434.40294,672.35924 435.2,671.56218 C 435.99706,670.76512 440.34244,670.36218 448.14098,670.36218 C 454.88962,670.36218 460.14476,669.93697 460.5,669.36218 C 460.83992,668.81218 463.85493,671.09787 463.85493,684.36218 L 463,699.36218 L 448,700.36218 C 434.73569,700.36218 434.3751,698.67851 433.875,697.29968 z M 459.17126,695.70719 C 460.72759,694.29873 461,692.44552 461,683.26621 C 461,668.28814 459.1397,668.12607 458.78207,683.07299 L 458.5,694.86218 L 446.71081,695.14425 C 431.86248,695.49952 431.87883,697.36218 446.73028,697.36218 C 455.20175,697.36218 457.71142,697.02833 459.17126,695.70719 z M 455.59537,678.88615 C 454.74923,675.51487 451.73285,675.61505 448.98717,679.10562 C 446.91524,681.73965 446.77421,681.77388 445.45065,679.96381 C 444.69246,678.92692 443.88875,677.57987 443.66463,676.97037 C 442.99786,675.15706 439.54841,677.73893 439.16412,680.33895 C 438.92897,681.9299 440.07797,683.88485 442.9952,686.85729 L 447.16217,691.10312 L 451.69551,686.25662 C 455.39286,682.30386 456.11203,680.94467 455.59537,678.88615 z "
         id="path6503"
         sodipodi:nodetypes="cccccccczcccccccccccccccc" />
      <path
         style="fill:#efa5a5"
         d="M 447.69603,698.36218 L 461.5,697.86218 L 462,683.61002 C 462.31698,674.57469 462.63396,669.62774 462,669.36218 C 461.45,669.13179 463.85493,669.76068 463.85493,684.36218 L 463,699.36218 L 448,700.36218 C 433.60784,700.36218 439.58605,698.65593 447.69603,698.36218 z M 435,684.59391 C 435,677.50257 435.41438,673.3478 436.2,672.56218 C 436.98562,671.77656 441.14039,671.36218 448.23174,671.36218 L 459.06347,671.36218 L 458.78174,683.11218 L 458.5,694.86218 L 446.75,695.14391 L 435,695.42565 L 435,684.59391 z M 457,680.34977 C 457,676.34771 452.41264,675.14375 449.48596,678.3777 L 447.66194,680.39321 L 445.28603,678.16116 C 443.42736,676.41504 442.53892,676.16176 441.20506,676.99777 C 437.929,679.05108 438.56109,682.33926 443.12598,686.99055 L 447.42373,691.36964 L 452.21187,686.6535 C 454.84534,684.05962 457,681.22295 457,680.34977 z "
         id="path6501"
         sodipodi:nodetypes="cccccccccccccccccccccccccc" />
      <path
         style="fill:#d5afad"
         d="M 447.69603,698.36218 L 461.5,697.86218 L 462,683.61002 C 462.31698,674.57469 462.63396,669.62774 462,669.36218 C 461.45,669.13179 463.85493,669.76068 463.85493,684.36218 L 463,699.36218 L 448,700.36218 C 433.60784,700.36218 429.27355,698.71843 447.69603,698.36218 z M 435,684.66917 C 435,677.51929 435.41336,673.34882 436.2,672.56218 C 436.98519,671.77699 441.13333,671.36218 448.2,671.36218 C 457.13333,671.36218 459,671.62144 459,672.86218 L 437,674.36218 L 436.5,689.0989 L 436.5,691.06179 L 442.03759,691.21199 C 448,691.36218 447.70965,691.22566 452.42432,686.43902 C 456.02199,682.78642 458.40295,681.90303 458,680.36218 L 454.5,686.56154 L 452.5,688.62546 L 450.5,690.66257 C 450.5,690.66257 456.9178,692.14031 448,692.41145 L 436.5,692.76111 C 436.5,692.76111 437.45177,694.63532 436.58179,694.96917 C 435.19899,695.4998 435,694.20407 435,684.66917 z M 445.67638,678.55707 C 443.22793,675.85157 443.57281,675.34511 447.75,675.51201 C 451.19955,675.64984 451.25964,675.69938 448.5,676.13033 C 446.26918,676.4787 445.9393,676.76084 447.21338,677.23074 C 448.29058,677.62803 448.63454,678.33547 448.13975,679.13605 C 447.53474,680.11499 446.96511,679.9811 445.67638,678.55707 z "
         id="path6499"
         sodipodi:nodetypes="ccccccccccccccccccccccccccccccc" />
      <path
         style="fill:#ec9393"
         d="M 436.21763,683.86218 L 436.5,672.86218 L 447.75,672.57943 C 455.0037,672.39712 459,672.66354 459,673.32943 C 459,673.97266 454.75683,674.39978 447.75,674.46186 C 440.56917,674.52549 437.40426,674.85113 439,675.36218 L 441.5,676.16282 L 439,676.27781 C 437.0049,676.36958 436.80294,676.58858 438,677.36218 C 438.825,677.89534 439.0275,678.33845 438.45,678.34687 C 437.8725,678.35529 437.4,679.48718 437.4,680.86218 C 437.4,682.23718 437.8725,683.36907 438.45,683.37749 C 439.0275,683.38591 438.825,683.82902 438,684.36218 C 436.80294,685.13578 437.0049,685.35478 439,685.44655 L 441.5,685.56154 L 439,686.36218 C 436.66846,687.10887 436.73584,687.17841 440,687.39414 L 443.5,687.62546 L 440,688.36218 L 436.5,689.0989 L 441,689.38073 L 445.5,689.66257 L 441,690.36218 L 436.5,691.06179 L 442.54179,691.21199 C 448.44092,691.35863 448.68605,691.25777 452.92331,686.94032 C 456.36204,683.43651 457.16071,681.9832 456.77019,679.94032 C 456.47219,678.38145 456.73083,677.36218 457.42439,677.36218 C 458.06862,677.36218 458.57143,678.8964 458.57143,680.86218 C 458.57143,682.78718 458.10536,684.36907 457.53571,684.37749 C 456.96607,684.38591 457.175,684.82902 458,685.36218 C 459.19706,686.13578 458.9951,686.35478 457,686.44655 L 454.5,686.56154 L 457,687.36218 C 459.33154,688.10887 459.26416,688.17841 456,688.39414 L 452.5,688.62546 L 456,689.36218 L 458.5625,690.0989 L 455,690.38073 L 450.5,690.66257 L 455,691.36218 C 458.48957,691.9047 456.9178,692.14031 448,692.41145 L 436.5,692.76111 L 448,693.32977 L 458.125,693.89843 L 447.71763,694.38031 L 435.93526,694.86218 L 436.21763,683.86218 z M 445.47866,677.3386 C 443.72492,675.40073 443.7662,675.3651 447.59501,675.51201 C 451.06152,675.64502 451.16314,675.71445 448.5,676.13033 C 445.97955,676.52393 445.80909,676.71218 447.43362,677.308 C 448.56645,677.72347 448.93241,678.28592 448.31727,678.6661 C 447.73978,679.023 446.46241,678.42563 445.47866,677.3386 z M 455.75,675.6999 C 456.4375,675.42249 457.5625,675.42249 458.25,675.6999 C 458.9375,675.97731 458.375,676.20429 457,676.20429 C 455.625,676.20429 455.0625,675.97731 455.75,675.6999 z "
         id="path6497"
         sodipodi:nodetypes="cccccccccccccccccccccccccccccccccccccccccccccccccccccccccc" />
      <path
         style="fill:#d68e8e"
         d="M 436.4509,683.86218 L 436.5,672.86218 L 448,672.8084 L 459.5,672.75462 L 448.28245,673.09085 L 437.0649,673.42708 L 436.73334,684.14463 L 436.40179,694.86218 L 436.4509,683.86218 z M 452.12498,687.64851 C 456.29204,683.75071 457.0935,682.45256 456.75533,680.14851 C 456.53041,678.61603 456.71845,677.36218 457.17319,677.36218 C 457.62794,677.36218 458,678.84349 458,680.65397 C 458,683.21028 457.04196,684.88601 453.71215,688.15397 C 451.35383,690.46849 448.89811,692.36218 448.25499,692.36218 C 447.61187,692.36218 449.35337,690.24103 452.12498,687.64851 z M 445.87245,677.61218 C 444.62857,676.02612 444.66394,675.99075 446.25,677.23462 C 447.91575,678.54099 448.44548,679.36218 447.62245,679.36218 C 447.41479,679.36218 446.62729,678.57468 445.87245,677.61218 z "
         id="path6495"
         sodipodi:nodetypes="cccccccccccccccccccc" />
      <path
         style="fill:#aa7575"
         d="M 463,699.36218 L 463.03971,683.36218 L 463.57942,670.0434 L 463.78971,684.11218 L 463.85493,698.36218 C 463.85951,699.36228 463.00012,700.36218 462,700.36218 L 448,700.36218 L 433,700.36218 L 463,699.36218 z M 452,687.86218 C 454.42903,685.38718 456.64142,683.36218 456.91642,683.36218 C 457.19142,683.36218 455.42903,685.38718 453,687.86218 C 450.57097,690.33718 448.35858,692.36218 448.08358,692.36218 C 447.80858,692.36218 449.57097,690.33718 452,687.86218 z M 457.15789,680.36218 C 457.15789,678.98718 457.38487,678.42468 457.66228,679.11218 C 457.93969,679.79968 457.93969,680.92468 457.66228,681.61218 C 457.38487,682.29968 457.15789,681.73718 457.15789,680.36218 z M 445.87245,677.61218 C 444.62857,676.02612 444.66394,675.99075 446.25,677.23462 C 447.91575,678.54099 448.44548,679.36218 447.62245,679.36218 C 447.41479,679.36218 446.62729,678.57468 445.87245,677.61218 z "
         id="path6493"
         sodipodi:nodetypes="ccccsscccccccccccccccc" />
    </g>
  </g>
</svg>
