<?xml version="1.0" encoding="UTF-8" standalone="no"?>
<!-- Created with Inkscape (http://www.inkscape.org/) -->
<svg
   xmlns:dc="http://purl.org/dc/elements/1.1/"
   xmlns:cc="http://web.resource.org/cc/"
   xmlns:rdf="http://www.w3.org/1999/02/22-rdf-syntax-ns#"
   xmlns:svg="http://www.w3.org/2000/svg"
   xmlns="http://www.w3.org/2000/svg"
   xmlns:xlink="http://www.w3.org/1999/xlink"
   xmlns:sodipodi="http://inkscape.sourceforge.net/DTD/sodipodi-0.dtd"
   xmlns:inkscape="http://www.inkscape.org/namespaces/inkscape"
   sodipodi:docname="56.svg"
   sodipodi:docbase="/home/adam/workspace/Escape/src/org/spacebar/escape/j2se/resources/tiles"
   inkscape:version="0.41"
   sodipodi:version="0.32"
   id="svg6779"
   height="32px"
   width="32px">
  <defs
     id="defs3">
    <linearGradient
       inkscape:collect="always"
       xlink:href="#linearGradient2685"
       id="linearGradient8140"
       gradientUnits="userSpaceOnUse"
       gradientTransform="scale(1.732051,0.577350)"
       spreadMethod="pad"
       x1="-12.766315"
       y1="296.69754"
       x2="-11.715828"
       y2="301.93048" />
    <linearGradient
       inkscape:collect="always"
       xlink:href="#linearGradient2615"
       id="linearGradient8138"
       gradientUnits="userSpaceOnUse"
       gradientTransform="scale(1.525896,0.655353)"
       x1="-15.950862"
       y1="262.63419"
       x2="-14.394111"
       y2="264.46930" />
    <linearGradient
       inkscape:collect="always"
       xlink:href="#linearGradient2685"
       id="linearGradient8136"
       gradientUnits="userSpaceOnUse"
       gradientTransform="scale(1.732051,0.577350)"
       spreadMethod="pad"
       x1="-12.766315"
       y1="296.69754"
       x2="-10.865437"
       y2="301.78308" />
    <linearGradient
       inkscape:collect="always"
       xlink:href="#linearGradient2615"
       id="linearGradient8134"
       gradientUnits="userSpaceOnUse"
       gradientTransform="scale(1.525896,0.655353)"
       x1="-15.950862"
       y1="262.63419"
       x2="-14.394111"
       y2="264.46930" />
    <linearGradient
       inkscape:collect="always"
       xlink:href="#linearGradient2685"
       id="linearGradient8132"
       gradientUnits="userSpaceOnUse"
       gradientTransform="scale(1.732051,0.577350)"
       spreadMethod="pad"
       x1="-12.266085"
       y1="298.17163"
       x2="-10.565296"
       y2="302.96234" />
    <linearGradient
       inkscape:collect="always"
       xlink:href="#linearGradient2615"
       id="linearGradient8130"
       gradientUnits="userSpaceOnUse"
       gradientTransform="scale(1.525896,0.655353)"
       x1="-15.950862"
       y1="262.63419"
       x2="-14.394111"
       y2="264.46930" />
    <linearGradient
       inkscape:collect="always"
       xlink:href="#linearGradient2685"
       id="linearGradient8128"
       gradientUnits="userSpaceOnUse"
       gradientTransform="scale(1.732051,0.577350)"
       spreadMethod="pad"
       x1="-12.116015"
       y1="297.28717"
       x2="-11.015503"
       y2="301.41449" />
    <linearGradient
       inkscape:collect="always"
       xlink:href="#linearGradient2615"
       id="linearGradient8126"
       gradientUnits="userSpaceOnUse"
       gradientTransform="scale(1.525896,0.655353)"
       x1="-15.950862"
       y1="262.63419"
       x2="-14.394111"
       y2="264.46930" />
    <linearGradient
       inkscape:collect="always"
       xlink:href="#linearGradient2685"
       id="linearGradient8124"
       gradientUnits="userSpaceOnUse"
       gradientTransform="scale(1.732051,0.577350)"
       spreadMethod="pad"
       x1="-12.641255"
       y1="297.50821"
       x2="-11.990957"
       y2="302.22537" />
    <linearGradient
       inkscape:collect="always"
       xlink:href="#linearGradient2615"
       id="linearGradient8122"
       gradientUnits="userSpaceOnUse"
       gradientTransform="scale(1.525896,0.655353)"
       x1="-15.950862"
       y1="262.63419"
       x2="-14.394111"
       y2="264.46930" />
    <linearGradient
       inkscape:collect="always"
       xlink:href="#linearGradient2685"
       id="linearGradient8120"
       gradientUnits="userSpaceOnUse"
       gradientTransform="scale(1.732051,0.577350)"
       spreadMethod="pad"
       x1="-13.241533"
       y1="297.43451"
       x2="-9.8899860"
       y2="303.10980" />
    <linearGradient
       inkscape:collect="always"
       xlink:href="#linearGradient2615"
       id="linearGradient8118"
       gradientUnits="userSpaceOnUse"
       gradientTransform="scale(1.525896,0.655353)"
       x1="-15.950862"
       y1="262.63419"
       x2="-14.394111"
       y2="264.46930" />
    <linearGradient
       inkscape:collect="always"
       xlink:href="#linearGradient2685"
       id="linearGradient8116"
       gradientUnits="userSpaceOnUse"
       gradientTransform="scale(1.732051,0.577350)"
       spreadMethod="pad"
       x1="-12.616244"
       y1="296.62378"
       x2="-11.715830"
       y2="302.37277" />
    <linearGradient
       inkscape:collect="always"
       xlink:href="#linearGradient2615"
       id="linearGradient8114"
       gradientUnits="userSpaceOnUse"
       gradientTransform="scale(1.525896,0.655353)"
       x1="-15.950862"
       y1="262.63419"
       x2="-14.394111"
       y2="264.46930" />
    <linearGradient
       inkscape:collect="always"
       xlink:href="#linearGradient2685"
       id="linearGradient8112"
       gradientUnits="userSpaceOnUse"
       gradientTransform="scale(1.732051,0.577350)"
       spreadMethod="pad"
       x1="-11.940928"
       y1="298.02402"
       x2="-10.065067"
       y2="302.22537" />
    <linearGradient
       inkscape:collect="always"
       xlink:href="#linearGradient2615"
       id="linearGradient8110"
       gradientUnits="userSpaceOnUse"
       gradientTransform="scale(1.525896,0.655353)"
       x1="-15.950862"
       y1="262.63419"
       x2="-14.394111"
       y2="264.46930" />
    <pattern
       inkscape:collect="always"
       xlink:href="#pattern6922"
       id="pattern7397"
       patternTransform="translate(0.000000,140.3622)" />
    <pattern
       inkscape:collect="always"
       xlink:href="#pattern6914"
       id="pattern6922"
       patternTransform="translate(0.000000,140.3622)" />
    <pattern
       patternUnits="userSpaceOnUse"
       width="32.000000"
       height="32.000000"
       patternTransform="translate(-16.00000,140.3622)"
       id="pattern6914">
      <rect
         inkscape:export-filename="/home/adam/brick.png"
         y="140.36218"
         x="-16.000000"
         height="32.000000"
         width="32.000000"
         id="rect6916"
         style="fill:#c4c4c4;fill-opacity:1.0000000;fill-rule:evenodd;stroke:none;stroke-width:0.72500002;stroke-linecap:square;stroke-linejoin:miter;stroke-miterlimit:4.0000000;stroke-dashoffset:0.0000000;stroke-opacity:1.0000000"
         inkscape:export-xdpi="360.00000"
         inkscape:export-ydpi="360.00000"
         transform="translate(16.00000,-140.3622)" />
    </pattern>
    <linearGradient
       id="linearGradient2615">
      <stop
         style="stop-color:#eaeaea;stop-opacity:1.0000000;"
         offset="0.0000000"
         id="stop2617" />
      <stop
         style="stop-color:#dfdfdf;stop-opacity:0;"
         offset="1"
         id="stop2619" />
    </linearGradient>
    <linearGradient
       id="linearGradient2685">
      <stop
         style="stop-color:#c8c8c8;stop-opacity:1.0000000;"
         offset="0.0000000"
         id="stop2687" />
      <stop
         style="stop-color:#919191;stop-opacity:1.0000000;"
         offset="1.0000000"
         id="stop2689" />
    </linearGradient>
  </defs>
  <sodipodi:namedview
     inkscape:window-y="0"
     inkscape:window-x="969"
     inkscape:window-height="536"
     inkscape:window-width="640"
     inkscape:grid-points="false"
     inkscape:document-units="px"
     inkscape:grid-bbox="true"
     showgrid="true"
     inkscape:current-layer="layer1"
     inkscape:cy="15.999999"
     inkscape:cx="16.000000"
     inkscape:zoom="11.197802"
     inkscape:pageshadow="2"
     inkscape:pageopacity="0.0"
     borderopacity="1.0"
     bordercolor="#666666"
     pagecolor="#ffffff"
     id="base" />
  <metadata
     id="metadata4">
    <rdf:RDF
       id="RDF5">
      <cc:Work
         id="Work6"
         rdf:about="">
        <dc:format
           id="format7">image/svg+xml</dc:format>
        <dc:type
           rdf:resource="http://purl.org/dc/dcmitype/StillImage"
           id="type9" />
      </cc:Work>
    </rdf:RDF>
  </metadata>
  <g
     inkscape:groupmode="layer"
     inkscape:label="Layer 1"
     id="layer1">
    <g
       id="g7019"
       inkscape:label="Layer 1"
       inkscape:groupmode="layer">
      <g
         inkscape:tile-cy="284.36218"
         inkscape:tile-cx="-79.000000"
         inkscape:tile-h="32.000000"
         inkscape:tile-w="32.000000"
         id="g14992"
         transform="translate(252.0000,-169.3750)"
         inkscape:export-filename="/home/adam/brick.png"
         inkscape:export-xdpi="360.00000"
         inkscape:export-ydpi="360.00000">
        <path
           style="fill:#f7f7f7;fill-opacity:1.0000000"
           d="M -144.00000,364.37500 L -144.00000,396.37500 L -112.00000,396.37500 L -112.00000,364.37500 L -144.00000,364.37500 z "
           transform="translate(-108.0000,-195.0000)"
           id="path14994" />
        <path
           style="fill:#dadada;fill-opacity:1.0000000"
           d="M -144.00000,364.37500 L -144.00000,369.90625 C -143.39993,369.88308 -143.29141,369.79067 -142.50000,369.78125 L -136.50000,369.71875 L -142.18750,370.09375 C -143.04782,370.14934 -143.35359,370.26735 -144.00000,370.34375 L -144.00000,385.90625 C -143.38428,385.88612 -143.32717,385.79109 -142.50000,385.78125 L -136.50000,385.71875 L -142.18750,386.09375 C -143.12723,386.15446 -143.33431,386.27112 -144.00000,386.34375 L -144.00000,396.37500 L -141.87500,396.37500 C -141.82195,395.75701 -141.65999,395.37127 -141.40625,395.62500 C -141.27766,395.75359 -141.41582,396.12267 -141.37500,396.37500 L -125.59375,396.37500 C -125.59434,396.19107 -125.60933,396.19207 -125.59375,395.87500 C -125.50734,394.11660 -124.77519,393.84401 -119.50000,393.78125 L -113.50000,393.71875 L -119.18750,394.09375 C -123.52237,394.37386 -124.96733,394.85731 -125.28125,396.15625 C -125.31882,396.31170 -125.31279,396.26171 -125.34375,396.37500 L -112.00000,396.37500 L -112.00000,386.34375 C -114.82683,386.65216 -115.99468,387.11007 -116.28125,388.65625 C -116.62107,390.48973 -116.67402,390.45482 -116.59375,388.37500 C -116.37495,385.92798 -115.61792,386.02451 -112.00000,385.90625 L -112.00000,370.34375 C -114.61065,370.65229 -116.02963,371.11510 -116.28125,372.15625 C -116.57525,373.37278 -116.66392,373.30292 -116.59375,371.87500 C -116.52030,370.38040 -115.39970,370.03752 -112.00000,369.90625 L -112.00000,364.37500 L -125.34375,364.37500 C -125.50128,364.95145 -125.59202,364.91356 -125.59375,364.37500 L -141.37500,364.37500 C -141.31033,364.77474 -141.13541,365.11997 -141.31250,365.56250 C -141.63172,366.36023 -141.85827,366.10246 -141.90625,364.93750 C -141.91651,364.68829 -141.89142,364.56633 -141.87500,364.37500 L -144.00000,364.37500 z M -120.50000,369.71875 L -126.18750,370.09375 C -130.52237,370.37386 -131.96733,370.85731 -132.28125,372.15625 C -132.57525,373.37278 -132.66392,373.30292 -132.59375,371.87500 C -132.50734,369.61660 -131.77519,369.84401 -126.50000,369.78125 L -120.50000,369.71875 z M -129.50000,377.71875 L -135.18750,378.09375 C -139.52237,378.37386 -140.96733,378.85731 -141.28125,380.15625 C -141.57525,381.37278 -141.66392,381.30292 -141.59375,379.87500 C -141.50734,378.11660 -140.77519,377.84401 -135.50000,377.78125 L -129.50000,377.71875 z M -113.50000,377.71875 L -119.18750,378.09375 C -123.52237,378.37386 -124.96733,378.85731 -125.28125,380.15625 C -125.57525,381.37278 -125.66392,381.30292 -125.59375,379.87500 C -125.50734,378.11660 -124.77519,377.84401 -119.50000,377.78125 L -113.50000,377.71875 z M -118.50000,385.68750 L -125.18750,386.06250 C -130.46628,386.35779 -131.95595,386.80954 -132.28125,388.15625 C -132.57621,389.37733 -132.66411,389.30672 -132.59375,387.87500 C -132.50569,386.08293 -131.77226,385.85273 -125.50000,385.78125 L -118.50000,385.68750 z M -138.25000,393.62500 C -136.46250,393.40318 -133.53750,393.40317 -131.75000,393.62500 C -129.96250,393.84683 -131.42500,394.03125 -135.00000,394.03125 C -138.57500,394.03125 -140.03750,393.84682 -138.25000,393.62500 z "
           transform="translate(-108.0000,-195.0000)"
           id="path14996"
           sodipodi:nodetypes="ccccccccccccccccccccccccccccccccccccccccccccccccccccccccccccccccccc" />
        <path
           style="fill:#c3c3c3;fill-opacity:1.0000000"
           d="M -144.00000,364.37500 L -144.00000,369.46875 L -142.25000,369.50000 C -138.53750,369.57490 -136.50434,369.82308 -137.75000,370.06250 C -139.05653,370.31362 -139.76113,370.96900 -139.37500,371.59375 C -138.93162,372.31117 -139.16337,372.36453 -140.09375,371.78125 C -140.75072,371.36938 -142.45863,371.05074 -144.00000,370.87500 L -144.00000,385.37500 L -142.34375,385.37500 C -134.55428,385.37500 -134.36880,386.49266 -142.12500,386.71875 C -143.10073,386.74719 -143.33786,386.88053 -144.00000,386.93750 L -144.00000,396.37500 L -141.84375,396.37500 C -141.85137,396.23399 -141.86700,396.28650 -141.87500,396.12500 C -142.01085,393.38175 -141.98344,393.35972 -135.25000,393.37500 C -131.38702,393.38377 -129.04690,393.75277 -129.78125,394.21875 C -130.48700,394.66656 -133.25087,394.82750 -135.93750,394.59375 C -140.28969,394.21508 -140.84703,394.39822 -141.25000,396.37500 L -125.84375,396.37500 C -125.85145,396.23561 -125.86708,396.28499 -125.87500,396.12500 C -126.01040,393.39067 -125.95914,393.37500 -119.43750,393.37500 C -115.83004,393.37500 -113.10328,393.71659 -113.37500,394.15625 C -113.64672,394.59590 -116.32497,394.81793 -119.34375,394.62500 C -124.21542,394.31368 -124.81735,394.47480 -125.21875,396.37500 L -112.00000,396.37500 L -112.00000,386.93750 C -114.53843,387.15589 -115.60136,387.60262 -116.09375,389.37500 C -116.73452,391.68150 -116.81429,391.62345 -116.90625,388.62500 L -116.75000,385.53125 L -112.00000,385.37500 L -112.00000,370.87500 C -112.27100,370.84410 -112.42502,370.73429 -112.68750,370.71875 C -115.24132,370.56753 -115.97464,370.95514 -116.31250,372.68750 C -116.65441,374.44064 -116.76472,374.35187 -116.87500,372.12500 L -116.82812,369.45313 L -112.00000,369.46875 L -112.00000,364.37500 L -125.21875,364.37500 C -125.23454,364.44974 -125.26589,364.48216 -125.28125,364.56250 C -125.64510,366.46510 -125.73429,366.35580 -125.84375,364.37500 L -141.25000,364.37500 C -141.26235,364.43556 -141.26908,364.46723 -141.28125,364.53125 C -141.65984,366.52272 -141.73361,366.41368 -141.84375,364.37500 L -144.00000,364.37500 z M -126.34375,369.37500 C -122.67709,369.37500 -119.96417,369.65167 -120.31250,370.00000 C -120.66083,370.34834 -123.24932,370.62500 -126.06250,370.62500 C -130.33538,370.62500 -131.31694,370.98178 -132.03125,372.75000 C -132.81546,374.69125 -132.87959,374.64710 -132.93750,372.12500 C -132.94803,371.66667 -133.16678,370.47917 -132.23055,369.71875 C -131.07522,368.78037 -127.45312,369.37500 -126.34375,369.37500 z M -135.34375,377.37500 C -131.67709,377.37500 -128.92905,377.61654 -129.25000,377.93750 C -129.57096,378.25845 -132.22303,378.57788 -135.15625,378.62500 C -139.64271,378.69709 -140.60918,379.03080 -141.15625,380.78125 C -141.71504,382.56916 -141.82061,382.48796 -141.90625,380.12500 C -142.00539,377.39003 -141.97398,377.37500 -135.34375,377.37500 z M -119.34375,377.37500 C -111.34691,377.37500 -111.29279,378.31585 -119.28125,378.50000 C -124.15003,378.61224 -124.95142,378.91147 -125.31250,380.75000 C -125.63855,382.41023 -125.76833,382.27892 -125.87500,380.12500 C -126.01062,377.38638 -125.98283,377.37500 -119.34375,377.37500 z M -132.93750,385.68750 L -125.75000,385.37500 C -121.76250,385.38343 -119.03748,385.74289 -119.68750,386.15625 C -120.33752,386.56962 -123.34435,386.81651 -126.37500,386.71875 C -131.29535,386.56004 -131.93596,386.75799 -132.31250,388.68750 C -132.65296,390.43212 -132.76505,390.34530 -132.87500,388.12500 L -132.93750,385.68750 z "
           transform="translate(-108.0000,-195.0000)"
           id="path14998"
           sodipodi:nodetypes="ccccccccccccccccccccccccccccccccccccccccccccccccssscccccccccccccccccc" />
        <path
           sodipodi:nodetypes="ccccccccccccccccccccccccccccccccccccccccccccccccccccccccccccccccccccccccccccccccccccccccccccccccccccccccccccccccccccccccccccc"
           style="fill:#9b9b9b;fill-opacity:1.0000000"
           d="M -144.00000,364.37500 L -144.00000,366.18750 C -143.91222,365.87498 -143.81469,365.56574 -143.75000,365.12500 C -143.70192,364.79743 -143.71828,364.64008 -143.68750,364.37500 L -144.00000,364.37500 z M -139.78125,367.40625 C -138.74056,368.14961 -128.68100,367.43944 -127.87500,366.56250 C -127.57903,366.24048 -127.62931,365.31410 -127.90625,364.37500 L -129.03125,364.37500 C -129.23614,365.54251 -130.02888,365.82192 -132.75000,365.71875 C -138.68582,365.49370 -140.69506,366.75352 -139.78125,367.40625 z M -118.40625,364.37500 C -118.57212,364.52582 -118.74798,364.59055 -118.90625,364.78125 C -120.13700,366.26421 -121.67391,366.31620 -123.78125,365.00000 C -124.59716,364.49039 -124.95712,364.68363 -124.78125,365.53125 C -124.63012,366.25963 -123.40631,367.10000 -122.06250,367.37500 C -120.71868,367.65000 -118.05144,367.50000 -116.00000,367.50000 C -113.29333,367.50000 -112.39747,367.60253 -112.00000,366.18750 L -112.00000,364.37500 L -113.90625,364.37500 C -114.04410,364.52665 -114.03451,364.45237 -114.18750,364.62500 C -115.69735,366.32869 -116.04321,366.45009 -115.62500,365.12500 C -115.52425,364.80577 -115.60515,364.60794 -115.62500,364.37500 L -118.40625,364.37500 z M -135.90625,370.46875 C -136.47426,370.34204 -137.26624,370.89590 -138.18750,372.15625 C -139.26259,373.62705 -142.23453,374.18284 -144.00000,373.59375 L -144.00000,375.21875 C -143.16925,375.27782 -142.47286,375.37500 -141.50000,375.37500 C -135.23333,375.37500 -135.00000,375.28526 -135.00000,372.87500 C -135.00000,371.40915 -135.33824,370.59546 -135.90625,370.46875 z M -120.31250,370.78125 C -121.30902,370.63500 -122.37067,371.20560 -122.68750,372.03125 C -123.02438,372.90915 -124.03661,373.31588 -125.12500,373.03125 C -126.14860,372.76357 -127.25449,372.97039 -127.56250,373.46875 C -127.87051,373.96712 -128.65746,374.35218 -129.31250,374.34375 C -130.02811,374.33455 -129.90129,373.95746 -129.00000,373.37500 C -127.78704,372.59113 -127.93056,372.38737 -129.75000,372.37500 C -133.32420,372.35068 -131.88666,374.81739 -128.00000,375.37500 L -119.00000,375.37500 L -119.00000,373.75000 C -119.00000,372.98743 -119.00000,371.37500 -120.31250,370.78125 z M -113.87500,372.56250 C -114.78761,372.49808 -116.00000,373.36435 -116.00000,374.40625 C -116.00000,374.78295 -114.22201,375.06075 -112.00000,375.21875 L -112.00000,373.59375 C -112.45089,373.44330 -112.89596,373.28389 -113.12500,372.96875 C -113.30992,372.71431 -113.57080,372.58397 -113.87500,372.56250 z M -129.21875,378.37500 C -129.77047,378.37500 -129.98337,379.27481 -129.68750,380.40625 C -129.24823,382.08599 -129.41234,382.26705 -130.56250,381.31250 C -131.33722,380.66953 -132.69065,380.41543 -133.56250,380.75000 C -134.43435,381.08456 -135.96634,380.91147 -136.96875,380.37500 C -138.28158,379.67239 -139.11077,379.80995 -139.96875,380.84375 C -140.62385,381.63310 -140.95733,382.62589 -140.68750,383.06250 C -140.41767,383.49909 -137.44959,383.62500 -133.93750,383.62500 L -128.03125,383.56250 L -127.81250,381.12500 C -128.03449,379.61250 -128.66703,378.37500 -129.21875,378.37500 z M -112.31250,378.93750 C -112.58243,378.77246 -113.08189,379.02816 -113.93750,379.56250 C -115.00192,380.22724 -115.59500,381.23510 -115.25000,381.81250 C -114.90500,382.38992 -115.26942,382.32587 -116.06250,381.68750 C -117.84084,380.25608 -124.94153,380.36219 -124.68750,381.81250 C -124.58599,382.39202 -122.70000,383.09714 -120.50000,383.37500 C -114.18734,384.17226 -112.00000,383.50065 -112.00000,380.75000 C -112.00000,379.69254 -112.04257,379.10254 -112.31250,378.93750 z M -118.81250,381.68750 C -118.01477,382.00672 -118.24130,382.23327 -119.40625,382.28125 C -120.46041,382.32467 -121.05104,382.08231 -120.71875,381.75000 C -120.38645,381.41771 -119.53438,381.39862 -118.81250,381.68750 z M -135.15625,386.43750 C -135.56850,386.20173 -136.16102,386.60336 -136.62500,387.81250 C -136.94237,388.63955 -137.83981,388.97428 -138.75000,388.62500 C -139.90622,388.18132 -140.12407,388.39927 -139.53125,389.43750 C -138.87475,390.58730 -138.97200,390.63719 -140.06250,389.62500 C -140.80318,388.93750 -141.86000,388.36657 -142.43750,388.37500 C -143.01500,388.38343 -142.82500,388.84184 -142.00000,389.37500 C -141.17500,389.90816 -140.99792,390.33533 -141.59375,390.34375 C -142.18959,390.35217 -142.96291,390.03709 -143.34375,389.65625 C -143.52670,389.47330 -143.77320,389.37894 -144.00000,389.25000 L -144.00000,391.46875 C -142.94079,391.57686 -139.80586,391.37500 -138.18750,391.37500 C -135.84301,391.37500 -135.13079,390.86696 -134.75000,388.87500 C -134.49591,387.54582 -134.74400,386.67327 -135.15625,386.43750 z M -119.75000,386.78125 C -120.16250,387.19375 -120.50000,388.02917 -120.50000,388.62500 C -120.50000,389.22083 -121.11094,389.90157 -121.87500,390.15625 C -122.83567,390.47647 -126.77533,390.05807 -128.25000,389.09375 C -130.43114,387.66744 -130.84429,387.62081 -130.37500,388.84375 C -130.04091,389.71437 -130.37037,390.39680 -131.15625,390.43750 C -131.90259,390.47616 -131.64669,390.83724 -130.59375,391.25000 C -129.54081,391.66277 -127.74081,391.91185 -126.59375,391.78125 C -125.44669,391.65066 -123.26250,391.48335 -121.75000,391.43750 C -119.45833,391.36806 -119.00000,390.90974 -119.00000,388.68750 C -119.00000,387.22084 -119.33750,386.36876 -119.75000,386.78125 z M -114.03125,388.71875 C -114.93659,388.77226 -115.65625,389.17914 -115.65625,389.90625 C -115.65625,390.85887 -114.65780,391.37500 -112.78125,391.37500 C -112.45041,391.37500 -112.27813,391.44036 -112.00000,391.46875 L -112.00000,389.25000 C -112.63000,388.89183 -113.36556,388.67941 -114.03125,388.71875 z M -128.78125,394.37500 C -128.89206,394.37500 -128.90237,394.87500 -128.93750,395.87500 C -128.94478,396.08232 -129.00198,396.20821 -129.03125,396.37500 L -127.90625,396.37500 C -127.95685,396.20340 -127.96190,396.04494 -128.03125,395.87500 C -128.43934,394.87500 -128.67044,394.37500 -128.78125,394.37500 z M -143.81250,394.53125 C -143.83910,394.52576 -143.96861,394.68370 -144.00000,394.68750 L -144.00000,396.37500 L -143.68750,396.37500 C -143.56157,395.29063 -143.53508,394.58849 -143.81250,394.53125 z M -121.81250,394.68750 C -122.53438,394.39863 -123.38645,394.41772 -123.71875,394.75000 C -124.05104,395.08230 -123.46041,395.32467 -122.40625,395.28125 C -121.24130,395.23327 -121.01477,395.00671 -121.81250,394.68750 z M -112.00000,394.68750 C -112.32754,394.72713 -112.97363,395.34899 -113.90625,396.37500 L -112.00000,396.37500 L -112.00000,394.68750 z M -116.37500,395.40625 C -116.93848,395.34717 -117.69227,395.72582 -118.40625,396.37500 L -115.62500,396.37500 C -115.67132,395.83147 -115.88892,395.45721 -116.37500,395.40625 z "
           transform="translate(-108.0000,-195.0000)"
           id="path15000" />
        <path
           style="fill:#5a5a5a;fill-opacity:1.0000000"
           d="M -128.65625,364.37500 C -128.68301,364.47799 -128.68608,364.42733 -128.71875,364.56250 C -129.03828,365.88464 -130.51221,366.36105 -135.31250,366.65625 L -141.50000,367.03125 L -135.00000,366.93750 C -129.22939,366.86261 -128.49350,366.65057 -128.40625,364.87500 C -128.39109,364.56649 -128.40369,364.56204 -128.40625,364.37500 L -128.65625,364.37500 z M -112.65625,364.37500 C -112.68301,364.47799 -112.68608,364.42733 -112.71875,364.56250 C -113.03828,365.88464 -114.51221,366.36105 -119.31250,366.65625 L -125.50000,367.03125 L -119.00000,366.93750 C -113.22939,366.86261 -112.49350,366.65057 -112.40625,364.87500 C -112.39109,364.56649 -112.40369,364.56204 -112.40625,364.37500 L -112.65625,364.37500 z M -135.43750,371.71875 C -135.48790,371.67116 -135.57175,371.95424 -135.71875,372.56250 C -136.03828,373.88464 -137.51221,374.36105 -142.31250,374.65625 L -144.00000,374.75000 L -144.00000,374.96875 L -142.00000,374.93750 C -136.22939,374.86261 -135.49350,374.65057 -135.40625,372.87500 C -135.37116,372.16104 -135.38710,371.76634 -135.43750,371.71875 z M -119.43750,371.71875 C -119.48790,371.67116 -119.57175,371.95424 -119.71875,372.56250 C -120.03828,373.88464 -121.51221,374.36105 -126.31250,374.65625 L -132.50000,375.03125 L -126.00000,374.93750 C -120.22939,374.86261 -119.49350,375.51298 -119.40625,372.87500 C -119.37116,372.16104 -119.38710,371.76634 -119.43750,371.71875 z M -112.00000,374.75000 L -116.50000,375.03125 L -112.00000,374.96875 L -112.00000,374.75000 z M -128.43750,379.71875 C -128.48790,379.67116 -128.57175,379.95424 -128.71875,380.56250 C -129.03828,381.88464 -130.51221,382.36105 -135.31250,382.65625 L -141.50000,383.03125 L -135.00000,382.93750 C -127.97939,383.23761 -128.49350,382.65057 -128.40625,380.87500 C -128.37116,380.16104 -128.38710,379.76634 -128.43750,379.71875 z M -112.43750,379.71875 C -112.48790,379.67116 -112.57175,379.95424 -112.71875,380.56250 C -113.03828,381.88464 -114.51221,382.36105 -119.31250,382.65625 L -125.50000,383.03125 L -119.00000,382.93750 C -113.22939,382.86261 -112.49350,382.65057 -112.40625,380.87500 C -112.37116,380.16104 -112.38710,379.76634 -112.43750,379.71875 z M -135.43750,387.71875 C -135.48790,387.67116 -135.57175,387.95424 -135.71875,388.56250 C -136.03828,389.88464 -137.51221,390.36105 -142.31250,390.65625 L -144.00000,390.75000 L -144.00000,390.96875 L -142.00000,390.93750 C -136.22939,390.86261 -135.49350,390.65057 -135.40625,388.87500 C -135.37116,388.16104 -135.38710,387.76634 -135.43750,387.71875 z M -119.43750,387.71875 C -119.48790,387.67116 -119.57175,387.95424 -119.71875,388.56250 C -120.03828,389.88464 -121.51221,390.36105 -126.31250,390.65625 L -132.50000,391.03125 L -126.00000,390.93750 C -120.22939,390.86261 -119.49350,390.65057 -119.40625,388.87500 C -119.37116,388.16104 -119.38710,387.76634 -119.43750,387.71875 z M -112.00000,390.75000 L -116.50000,391.03125 L -112.00000,390.96875 L -112.00000,390.75000 z M -128.43750,395.71875 C -128.47670,395.68174 -128.56261,396.01453 -128.65625,396.37500 L -128.40625,396.37500 C -128.40961,396.12919 -128.40888,395.74578 -128.43750,395.71875 z M -112.43750,395.71875 C -112.47670,395.68174 -112.56261,396.01453 -112.65625,396.37500 L -112.40625,396.37500 C -112.40961,396.12919 -112.40888,395.74578 -112.43750,395.71875 z "
           transform="translate(-108.0000,-195.0000)"
           id="path15002"
           sodipodi:nodetypes="cccccccccccccccccccccccccccccccccccccccccccccccccccccccccccccccccccccccccccc" />
      </g>
    </g>
    <g
       transform="translate(-400.0000,-700.3622)"
       id="g6721">
      <path
         sodipodi:nodetypes="cccccccccccccc"
         id="path6737"
         d="M 400.22097,719.15012 L 400.50000,705.93806 L 403.89788,703.65012 C 406.67940,701.77720 408.64134,701.36218 414.71362,701.36218 C 422.62721,701.36218 424.89979,702.11405 429.25000,706.17146 C 431.95005,708.68978 432.00000,708.95092 432.00000,720.54927 L 432.00000,732.36218 L 415.97098,732.36218 L 400.00000,732.36218 L 400.22097,719.15012 z M 425.18750,714.67907 C 424.46562,714.39019 423.60312,714.42572 423.27083,714.75801 C 422.93854,715.09030 423.52917,715.32665 424.58333,715.28323 C 425.74828,715.23525 425.98523,714.99829 425.18750,714.67907 z "
         style="fill:#a66737" />
      <path
         sodipodi:nodetypes="ccccccccccccccccccccccccccc"
         id="path6735"
         d="M 400.22097,719.15012 L 400.50000,705.93806 L 403.89788,703.65012 C 406.67940,701.77720 408.64134,701.36218 414.71362,701.36218 C 422.62721,701.36218 424.89979,702.11405 429.25000,706.17146 C 431.95005,708.68978 432.00000,708.95092 432.00000,720.54927 L 432.00000,732.36218 L 415.97098,732.36218 L 400.00000,732.36218 L 400.22097,719.15012 z M 419.39087,728.37131 C 420.14217,727.62001 419.58043,727.59233 417.47717,728.27702 C 415.83973,728.81008 413.60000,729.48318 412.50000,729.77281 C 411.40000,730.06244 412.26116,730.10487 414.41369,729.86710 C 416.56622,729.62933 418.80595,728.95623 419.39087,728.37131 z M 413.35687,721.59378 C 413.61806,721.17115 412.06962,720.99342 409.91588,721.19881 C 407.76215,721.40420 406.00000,721.74998 406.00000,721.96722 C 406.00000,722.71206 412.88162,722.36275 413.35687,721.59378 z M 426.35687,721.59378 C 426.61806,721.17115 425.06962,720.99342 422.91588,721.19881 C 420.76215,721.40420 419.00000,721.74998 419.00000,721.96722 C 419.00000,722.71206 425.88162,722.36275 426.35687,721.59378 z M 407.62877,703.65762 C 406.80451,702.83336 404.00000,704.15367 404.00000,705.36598 C 404.00000,706.10554 404.63946,706.09032 406.08565,705.31634 C 407.23275,704.70243 407.92716,703.95601 407.62877,703.65762 z "
         style="fill:#82522e" />
      <path
         sodipodi:nodetypes="cccccccccccccccccccccccccccccccccccccccccccccccccccccccccccccccccccccccccccccccccccccccccccccccccccccccccc"
         id="path6733"
         d="M 400.22097,719.15012 L 400.50000,705.93806 L 403.89788,703.65012 C 406.67940,701.77720 408.64134,701.36218 414.71362,701.36218 C 422.62721,701.36218 424.89979,702.11405 429.25000,706.17146 C 431.95005,708.68978 432.00000,708.95092 432.00000,720.54927 L 432.00000,732.36218 L 415.97098,732.36218 L 400.00000,732.36218 L 400.22097,719.15012 z M 402.90032,729.11218 C 402.95514,730.34968 403.34727,731.36218 403.77170,731.36218 C 404.99416,731.36218 404.52482,717.07881 403.22953,714.86218 C 401.80000,712.41584 401.89047,711.96319 401.64231,722.80333 C 401.52973,727.72096 401.74430,730.64596 402.11913,729.30333 C 402.77917,726.93910 402.80378,726.93307 402.90032,729.11218 z M 408.01531,730.11218 C 408.02554,729.27742 408.35548,729.36046 409.00855,730.36218 C 409.67857,731.38991 409.78838,730.36665 409.35731,727.11218 C 408.93618,723.93273 409.09336,722.36218 409.83269,722.36218 C 410.44019,722.36218 410.67821,723.03718 410.36163,723.86218 C 409.61784,725.80046 410.44753,725.77179 412.42857,723.79075 C 414.89771,721.32161 414.33108,720.82144 409.50000,721.20567 C 404.64511,721.59179 404.38890,722.05670 405.62500,728.23718 C 406.23070,731.26570 407.98433,732.64127 408.01531,730.11218 z M 406.19495,724.86218 C 406.17457,723.21218 406.38201,722.41612 406.65594,723.09315 C 406.92986,723.77018 406.94653,725.12018 406.69299,726.09315 C 406.43945,727.06612 406.21533,726.51218 406.19495,724.86218 z M 416.01531,729.89407 C 416.02373,729.32653 416.46684,729.53718 417.00000,730.36218 C 417.86167,731.69551 417.97278,731.69551 418.00000,730.36218 C 418.02722,729.02885 418.13833,729.02885 419.00000,730.36218 C 419.73761,731.50356 419.97303,731.09927 419.98469,728.67120 C 419.99311,726.91616 419.50152,725.17214 418.89227,724.79560 C 418.20567,724.37126 418.02008,722.63808 418.40409,720.23658 C 419.18149,715.37498 417.90071,715.25016 415.65080,719.96826 C 413.91975,723.59832 414.69481,726.61541 417.22091,726.08021 C 417.78691,725.96029 418.45267,726.41394 418.70038,727.08831 C 418.98858,727.87292 417.68323,728.54910 415.07538,728.96612 C 410.68441,729.66826 409.37108,731.47459 413.50000,731.13287 C 414.87500,731.01907 416.00689,730.46161 416.01531,729.89407 z M 416.07895,723.94551 C 416.03553,722.89135 416.27188,722.30072 416.60417,722.63301 C 416.93646,722.96530 416.97199,723.82781 416.68311,724.54968 C 416.36389,725.34741 416.12693,725.11046 416.07895,723.94551 z M 422.69731,729.11218 C 422.40260,727.87468 421.87545,725.73718 421.52588,724.36218 C 421.11078,722.72942 421.42967,723.02942 422.44515,725.22699 C 423.30032,727.07763 424.02852,729.32763 424.06339,730.22699 C 424.13418,732.05327 425.70790,728.74793 427.09376,723.86218 L 427.94472,720.86218 L 427.56585,723.86218 C 427.35747,725.51218 426.86743,727.87468 426.47686,729.11218 C 426.03060,730.52615 426.18164,731.36218 426.88337,731.36218 C 427.49752,731.36218 428.03163,730.57468 428.07029,729.61218 C 428.13093,728.10228 428.24557,728.13064 428.90589,729.81892 C 429.52131,731.39239 429.79920,731.00064 430.32460,727.81892 C 431.16320,722.74061 431.19234,713.83650 430.36768,714.66117 C 430.01990,715.00895 429.73125,717.89645 429.72625,721.07784 C 429.71834,726.10063 429.63702,726.34584 429.10857,722.94035 C 428.77386,720.78334 427.92344,718.82865 427.21875,718.59660 C 426.51406,718.36454 426.06406,718.77937 426.21875,719.51843 C 426.40638,720.41487 425.25170,720.96549 422.75000,721.17255 C 419.12630,721.47246 417.67214,723.42348 420.00000,724.86218 C 420.55000,725.20210 421.00000,726.80366 421.00000,728.42120 C 421.00000,730.03874 421.50246,731.36218 422.11658,731.36218 C 422.76661,731.36218 423.00926,730.42205 422.69731,729.11218 z M 423.45888,724.29565 C 423.09635,723.70906 423.06979,722.95906 423.39986,722.62898 C 423.72994,722.29891 424.00689,722.66635 424.01531,723.44551 C 424.02792,724.61198 424.20183,724.59726 425.00000,723.36218 C 425.82843,722.08028 425.97160,722.11663 425.98469,723.61218 C 426.00164,725.54928 424.48697,725.95914 423.45888,724.29565 z M 408.28975,718.36218 C 408.68014,716.86933 408.32043,716.36218 406.87120,716.36218 C 405.23951,716.36218 405.10047,716.68138 406.00000,718.36218 C 407.33688,720.86016 407.63651,720.86016 408.28975,718.36218 z M 411.01531,718.61218 C 411.02730,717.24264 411.21839,717.15854 411.89426,718.22533 C 412.62340,719.37620 412.84232,719.37620 413.30000,718.22533 C 413.64337,717.36191 413.87666,717.59538 413.93637,718.86218 C 414.01481,720.52658 414.19329,720.61048 415.00000,719.36218 C 416.59485,716.89432 416.16430,716.37313 412.75889,716.64929 C 410.62072,716.82269 409.40472,717.49916 409.18556,718.63716 C 409.00285,719.58592 409.33635,720.36218 409.92668,720.36218 C 410.51700,720.36218 411.00689,719.57468 411.01531,718.61218 z M 423.00000,717.86218 C 423.00000,716.02885 423.53333,715.36218 425.00000,715.36218 C 426.10000,715.36218 427.00000,714.92630 427.00000,714.39356 C 427.00000,713.86083 426.21250,713.70568 425.25000,714.04880 C 422.56043,715.00759 420.96370,716.49443 421.57003,717.47549 C 421.87143,717.96317 421.64148,718.36218 421.05902,718.36218 C 420.47656,718.36218 420.00000,718.81218 420.00000,719.36218 C 420.00000,719.91218 420.67500,720.36218 421.50000,720.36218 C 422.43333,720.36218 423.00000,719.41774 423.00000,717.86218 z M 428.65594,713.09315 C 428.38201,712.41612 428.17457,713.21218 428.19495,714.86218 C 428.21533,716.51218 428.43945,717.06612 428.69299,716.09315 C 428.94653,715.12018 428.92986,713.77018 428.65594,713.09315 z M 414.75000,704.36592 C 418.91418,704.36377 422.00000,703.93655 422.00000,703.36218 C 422.00000,702.01502 408.72852,702.07312 405.74316,703.43334 C 404.45014,704.02248 402.85447,705.36556 402.19724,706.41795 C 401.04296,708.26625 401.11289,708.26396 404.25114,706.35053 C 406.69866,704.85824 409.28823,704.36873 414.75000,704.36592 z "
         style="fill:#6c4825" />
      <path
         sodipodi:nodetypes="ccccccccccccccccccccccccccccccccccccccccccccccccccccccccccc"
         id="path6731"
         d="M 400.17853,719.15023 L 400.50000,705.93828 L 403.89788,703.65023 C 406.67947,701.77718 408.64118,701.36218 414.71362,701.36218 C 422.62721,701.36218 424.89979,702.11405 429.25000,706.17146 C 431.95005,708.68978 432.00000,708.95092 432.00000,720.54927 L 432.00000,732.36218 L 415.92853,732.36218 L 400.00000,732.36218 L 400.17853,719.15023 z M 431.00000,722.92120 C 431.00000,714.60478 430.49066,713.22042 427.25000,712.72878 C 426.56250,712.62448 426.00000,712.89030 426.00000,713.31949 C 426.00000,713.74868 424.66831,713.94478 423.04070,713.75527 C 420.91890,713.50823 420.22356,713.78119 420.58373,714.71978 C 420.86001,715.43977 420.41150,716.02885 419.58702,716.02885 C 418.76255,716.02885 418.31974,715.65385 418.60301,715.19551 C 418.88627,714.73718 418.64148,714.36218 418.05902,714.36218 C 417.47656,714.36218 417.00000,714.86728 417.00000,715.48462 C 417.00000,716.23601 416.47893,716.17462 415.42379,715.29893 C 414.13240,714.22717 413.70251,714.22549 413.04483,715.28963 C 412.39384,716.34297 412.13910,716.33081 411.69718,715.22533 C 411.23712,714.07446 411.00353,714.07446 410.19718,715.22533 C 409.39084,716.37620 409.17071,716.37620 408.78367,715.22533 C 408.40528,714.10018 408.00227,714.12407 406.47539,715.36218 C 404.78769,716.73070 404.68677,716.69902 405.32411,715.00084 C 405.85052,713.59822 405.65021,713.28243 404.51134,713.71945 C 403.67511,714.04035 402.99316,713.75506 402.98469,713.08079 C 402.97500,712.31008 402.61308,712.41350 402.00000,713.36218 C 401.46684,714.18718 401.02373,718.57468 401.01531,723.11218 L 401.00000,731.36218 L 416.00000,731.36218 L 431.00000,731.36218 L 431.00000,722.92120 z M 409.62364,727.82380 C 409.23869,726.82061 409.81028,725.99658 411.26666,725.45520 C 413.76261,724.52736 416.00000,725.05723 416.00000,726.57616 C 416.00000,727.12616 416.67500,727.31714 417.50000,727.00055 C 418.32500,726.68397 419.00000,726.80834 419.00000,727.27693 C 419.00000,729.50273 410.45907,730.00087 409.62364,727.82380 z M 405.00000,720.61218 C 405.00000,720.19968 407.01328,720.61218 409.43576,720.61218 C 411.85824,720.61218 413.60043,720.19968 413.34549,720.61218 C 412.74059,721.59094 405.00000,721.59094 405.00000,720.61218 z M 418.00000,720.61218 C 418.00000,720.19968 420.08872,720.72868 422.51120,720.72868 C 424.93368,720.72868 426.60043,720.19968 426.34549,720.61218 C 425.74059,721.59094 418.00000,721.59094 418.00000,720.61218 z M 424.60028,717.52443 C 424.28250,717.01025 424.91743,716.35553 426.01125,716.06949 C 428.36761,715.45329 428.48972,715.71086 426.58903,717.28829 C 425.75643,717.97929 424.94122,718.07608 424.60028,717.52443 z M 415.30902,704.36592 C 420.25951,704.36355 422.89180,703.99613 422.50000,703.36218 C 422.16008,702.81218 418.64602,702.36386 414.69098,702.36592 C 409.28721,702.36873 406.69226,702.86214 404.25000,704.35122 C 402.46250,705.44108 401.00000,706.78278 401.00000,707.33278 C 401.00000,707.88278 402.46250,707.44108 404.25000,706.35122 C 406.75544,704.82362 409.28900,704.36880 415.30902,704.36592 z "
         style="fill:#5b3c21" />
      <path
         sodipodi:nodetypes="ccccccccccccccccccccccccccccc"
         id="path6729"
         d="M 400.51052,731.37921 C 399.71914,730.09872 400.10460,707.41401 400.91420,707.62252 C 401.23639,707.70549 403.00390,706.97290 404.84201,705.99452 C 407.43481,704.61444 409.90076,704.29759 415.84201,704.58111 C 420.05390,704.78211 424.28750,705.31322 425.25000,705.76136 C 426.25794,706.23066 427.00000,706.17482 427.00000,705.62968 C 427.00000,702.01849 409.67296,701.04478 404.25000,704.35122 C 402.46250,705.44108 401.00000,706.10778 401.00000,705.83278 C 401.00000,705.55778 402.46250,704.44108 404.25000,703.35122 C 406.70415,701.85490 409.28752,701.36874 414.79966,701.36592 C 422.59343,701.36193 425.98603,702.55103 429.78415,706.61796 C 431.92709,708.91258 432.05073,709.76845 431.78415,720.46298 L 431.50000,731.86218 L 416.32486,732.13782 C 406.65544,732.31346 400.91782,732.03823 400.51052,731.37921 z M 431.00000,721.73213 L 431.00000,712.10208 L 426.25000,712.76847 C 416.03296,714.20185 406.97738,714.59069 405.76014,713.64827 C 405.06706,713.11168 403.71250,712.39192 402.75000,712.04880 C 401.15865,711.48150 401.00000,712.32865 401.00000,721.39356 L 401.00000,731.36218 L 416.00000,731.36218 L 431.00000,731.36218 L 431.00000,721.73213 z M 405.65451,720.61218 C 405.39957,720.19968 407.00504,720.54968 409.37500,720.54968 C 411.74496,720.54968 413.60043,720.19968 413.34549,720.61218 C 412.74218,721.58836 406.25782,721.58836 405.65451,720.61218 z "
         style="fill:#4f331b" />
      <path
         sodipodi:nodetypes="cccccccccccccccccccccccccccc"
         id="path6727"
         d="M 400.51360,731.38175 C 399.72276,730.10214 400.10718,707.43436 400.91728,707.57821 C 401.64985,707.70830 404.94545,706.51642 407.23951,705.29172 C 409.87691,703.88374 420.32801,704.18424 424.13096,705.77740 C 425.98562,706.55438 428.53266,708.28906 429.79104,709.63226 C 431.90481,711.88850 432.05708,712.82781 431.79104,721.96958 L 431.50308,731.86472 L 416.32794,732.14036 C 406.65852,732.31600 400.92090,732.04077 400.51360,731.38175 z M 430.98777,722.11472 C 430.97935,717.02722 430.64184,712.35614 430.23777,711.73454 C 429.73723,710.96455 425.04121,710.67659 415.50308,710.83101 L 401.50308,711.05766 L 401.21810,721.21119 L 400.93311,731.36472 L 415.96810,731.36472 L 431.00308,731.36472 L 430.98777,722.11472 z M 428.95777,706.81012 C 426.49784,703.84609 423.46124,702.86188 415.00308,702.28718 L 414.30274,701.53718 C 422.51590,701.35558 425.93868,702.42611 429.41043,706.26234 C 430.45687,707.41865 431.07341,708.36472 430.78051,708.36472 C 430.48761,708.36472 429.66738,707.66515 428.95777,706.81012 z M 402.22927,704.78600 C 403.17868,703.79477 404.17071,703.19902 404.43379,703.46210 C 404.69687,703.72518 403.92009,704.53618 402.70760,705.26433 C 400.60129,706.52925 400.57998,706.50794 402.22927,704.78600 z "
         style="fill:#392a15" />
      <path
         sodipodi:nodetypes="ccccc"
         id="path6725"
         d="M 405.41011,707.21696 C 404.66363,706.00870 408.15093,705.36215 415.33179,705.37749 C 419.27430,705.38591 423.17500,705.82902 424.00000,706.36218 C 425.78787,707.51759 425.86217,707.50691 414.65437,707.70547 C 409.78927,707.79166 405.62935,707.57183 405.41011,707.21696 z "
         style="fill:#27190d" />
      <path
         sodipodi:nodetypes="cczzczcscszcccsczscc"
         id="path6745"
         d="M 410.12056,728.29968 C 409.10065,727.21019 410.33828,725.54968 412.00721,725.54968 C 412.73688,725.54968 414.54324,725.64485 415.42424,726.88286 C 416.34648,728.17885 418.92709,726.89713 419.31715,728.01339 C 419.73485,729.20874 417.03971,728.49245 415.90099,728.73198 C 411.71492,729.56920 411.14047,729.38917 410.12056,728.29968 z M 405.65451,720.61218 C 405.52704,720.40593 405.39592,719.53093 406.09292,719.39499 C 406.78991,719.25905 406.87752,720.29968 408.06250,720.29968 C 408.65499,720.29968 410.44189,720.38327 411.29279,720.17136 C 412.14369,719.95944 412.36288,719.23053 412.88563,719.33249 C 413.40838,719.43445 413.82651,720.40593 413.69904,720.61218 C 413.09573,721.58836 406.25782,721.58836 405.65451,720.61218 z M 418.34515,720.61218 C 418.21768,720.40593 418.27406,719.40593 418.97106,719.26999 C 419.66805,719.13405 420.05430,720.26307 421.23928,720.26307 C 422.42426,720.26307 423.97509,720.43604 424.66244,720.20749 C 425.37787,719.96960 425.72517,719.12195 426.10538,719.30925 C 426.48559,719.49655 426.40922,720.50905 426.34549,720.61218 C 425.74218,721.58836 418.94846,721.58836 418.34515,720.61218 z "
         style="fill:#080502" />
      <path
         sodipodi:nodetypes="ccccccczcc"
         id="path7054"
         d="M 423.28654,716.16720 C 423.21919,716.29202 423.28475,716.52788 423.33610,716.72266 C 423.34415,716.75320 423.70228,716.97197 423.77268,717.00535 C 423.93479,717.08222 424.24604,717.08917 424.43559,717.08917 C 424.63390,717.08917 424.87407,717.13107 425.09851,717.13107 C 425.31948,717.13107 425.54045,717.13107 425.76142,717.13107 C 425.97253,717.13107 426.23590,717.12336 426.38014,717.08917 C 426.62158,717.03193 426.84651,716.60502 426.81135,716.30643 C 426.77619,716.00783 426.11455,715.87735 425.95581,715.80209 C 425.76145,715.70994 425.32251,715.45549 425.14270,715.41286"
         style="fill:#575757;fill-opacity:1.0000000;fill-rule:evenodd;stroke:none;stroke-width:1.0000000px;stroke-linecap:butt;stroke-linejoin:miter;stroke-opacity:1.0000000" />
      <path
         sodipodi:nodetypes="cczzz"
         id="path7037"
         d="M 424.42616,715.18254 C 423.49782,715.36681 423.05667,715.81819 423.19618,716.19457 C 423.32268,716.50860 423.68340,716.65621 424.64765,716.59368 C 425.65592,716.52829 425.97071,716.23820 425.72786,715.84553 C 425.49639,715.47126 425.34509,715.00015 424.42616,715.18254 z "
         style="fill:#b7b7b7;fill-opacity:1.0000000;fill-rule:evenodd;stroke:none;stroke-width:1.0000000px;stroke-linecap:butt;stroke-linejoin:miter;stroke-opacity:1.0000000" />
    </g>
  </g>
</svg>
