<?xml version="1.0" encoding="UTF-8" standalone="no"?>
<!-- Created with Inkscape (http://www.inkscape.org/) -->
<svg
   xmlns:dc="http://purl.org/dc/elements/1.1/"
   xmlns:cc="http://web.resource.org/cc/"
   xmlns:rdf="http://www.w3.org/1999/02/22-rdf-syntax-ns#"
   xmlns:svg="http://www.w3.org/2000/svg"
   xmlns="http://www.w3.org/2000/svg"
   xmlns:xlink="http://www.w3.org/1999/xlink"
   xmlns:sodipodi="http://inkscape.sourceforge.net/DTD/sodipodi-0.dtd"
   xmlns:inkscape="http://www.inkscape.org/namespaces/inkscape"
   sodipodi:docname="56.svg"
   sodipodi:docbase="/home/adam/workspace/Escape-j2se/src/org/spacebar/escape/j2se/resources/tiles"
   inkscape:version="0.43"
   sodipodi:version="0.32"
   id="svg6779"
   height="32px"
   width="32px">
  <defs
     id="defs3">
    <linearGradient
       inkscape:collect="always"
       xlink:href="#linearGradient2685"
       id="linearGradient8140"
       gradientUnits="userSpaceOnUse"
       gradientTransform="scale(1.732051,0.577350)"
       spreadMethod="pad"
       x1="-12.766315"
       y1="296.69754"
       x2="-11.715828"
       y2="301.93048" />
    <linearGradient
       inkscape:collect="always"
       xlink:href="#linearGradient2615"
       id="linearGradient8138"
       gradientUnits="userSpaceOnUse"
       gradientTransform="scale(1.525896,0.655353)"
       x1="-15.950862"
       y1="262.63419"
       x2="-14.394111"
       y2="264.46930" />
    <linearGradient
       inkscape:collect="always"
       xlink:href="#linearGradient2685"
       id="linearGradient8136"
       gradientUnits="userSpaceOnUse"
       gradientTransform="scale(1.732051,0.577350)"
       spreadMethod="pad"
       x1="-12.766315"
       y1="296.69754"
       x2="-10.865437"
       y2="301.78308" />
    <linearGradient
       inkscape:collect="always"
       xlink:href="#linearGradient2615"
       id="linearGradient8134"
       gradientUnits="userSpaceOnUse"
       gradientTransform="scale(1.525896,0.655353)"
       x1="-15.950862"
       y1="262.63419"
       x2="-14.394111"
       y2="264.46930" />
    <linearGradient
       inkscape:collect="always"
       xlink:href="#linearGradient2685"
       id="linearGradient8132"
       gradientUnits="userSpaceOnUse"
       gradientTransform="scale(1.732051,0.577350)"
       spreadMethod="pad"
       x1="-12.266085"
       y1="298.17163"
       x2="-10.565296"
       y2="302.96234" />
    <linearGradient
       inkscape:collect="always"
       xlink:href="#linearGradient2615"
       id="linearGradient8130"
       gradientUnits="userSpaceOnUse"
       gradientTransform="scale(1.525896,0.655353)"
       x1="-15.950862"
       y1="262.63419"
       x2="-14.394111"
       y2="264.46930" />
    <linearGradient
       inkscape:collect="always"
       xlink:href="#linearGradient2685"
       id="linearGradient8128"
       gradientUnits="userSpaceOnUse"
       gradientTransform="scale(1.732051,0.577350)"
       spreadMethod="pad"
       x1="-12.116015"
       y1="297.28717"
       x2="-11.015503"
       y2="301.41449" />
    <linearGradient
       inkscape:collect="always"
       xlink:href="#linearGradient2615"
       id="linearGradient8126"
       gradientUnits="userSpaceOnUse"
       gradientTransform="scale(1.525896,0.655353)"
       x1="-15.950862"
       y1="262.63419"
       x2="-14.394111"
       y2="264.46930" />
    <linearGradient
       inkscape:collect="always"
       xlink:href="#linearGradient2685"
       id="linearGradient8124"
       gradientUnits="userSpaceOnUse"
       gradientTransform="scale(1.732051,0.577350)"
       spreadMethod="pad"
       x1="-12.641255"
       y1="297.50821"
       x2="-11.990957"
       y2="302.22537" />
    <linearGradient
       inkscape:collect="always"
       xlink:href="#linearGradient2615"
       id="linearGradient8122"
       gradientUnits="userSpaceOnUse"
       gradientTransform="scale(1.525896,0.655353)"
       x1="-15.950862"
       y1="262.63419"
       x2="-14.394111"
       y2="264.46930" />
    <linearGradient
       inkscape:collect="always"
       xlink:href="#linearGradient2685"
       id="linearGradient8120"
       gradientUnits="userSpaceOnUse"
       gradientTransform="scale(1.732051,0.577350)"
       spreadMethod="pad"
       x1="-13.241533"
       y1="297.43451"
       x2="-9.8899860"
       y2="303.10980" />
    <linearGradient
       inkscape:collect="always"
       xlink:href="#linearGradient2615"
       id="linearGradient8118"
       gradientUnits="userSpaceOnUse"
       gradientTransform="scale(1.525896,0.655353)"
       x1="-15.950862"
       y1="262.63419"
       x2="-14.394111"
       y2="264.46930" />
    <linearGradient
       inkscape:collect="always"
       xlink:href="#linearGradient2685"
       id="linearGradient8116"
       gradientUnits="userSpaceOnUse"
       gradientTransform="scale(1.732051,0.577350)"
       spreadMethod="pad"
       x1="-12.616244"
       y1="296.62378"
       x2="-11.715830"
       y2="302.37277" />
    <linearGradient
       inkscape:collect="always"
       xlink:href="#linearGradient2615"
       id="linearGradient8114"
       gradientUnits="userSpaceOnUse"
       gradientTransform="scale(1.525896,0.655353)"
       x1="-15.950862"
       y1="262.63419"
       x2="-14.394111"
       y2="264.46930" />
    <linearGradient
       inkscape:collect="always"
       xlink:href="#linearGradient2685"
       id="linearGradient8112"
       gradientUnits="userSpaceOnUse"
       gradientTransform="scale(1.732051,0.577350)"
       spreadMethod="pad"
       x1="-11.940928"
       y1="298.02402"
       x2="-10.065067"
       y2="302.22537" />
    <linearGradient
       inkscape:collect="always"
       xlink:href="#linearGradient2615"
       id="linearGradient8110"
       gradientUnits="userSpaceOnUse"
       gradientTransform="scale(1.525896,0.655353)"
       x1="-15.950862"
       y1="262.63419"
       x2="-14.394111"
       y2="264.46930" />
    <pattern
       inkscape:collect="always"
       xlink:href="#pattern6922"
       id="pattern7397"
       patternTransform="translate(0.000000,140.3622)" />
    <pattern
       inkscape:collect="always"
       xlink:href="#pattern6914"
       id="pattern6922"
       patternTransform="translate(0.000000,140.3622)" />
    <pattern
       patternUnits="userSpaceOnUse"
       width="32.000000"
       height="32.000000"
       patternTransform="translate(-16.00000,140.3622)"
       id="pattern6914">
      <rect
         inkscape:export-filename="/home/adam/brick.png"
         y="140.36218"
         x="-16.000000"
         height="32.000000"
         width="32.000000"
         id="rect6916"
         style="fill:#c4c4c4;fill-opacity:1.0000000;fill-rule:evenodd;stroke:none;stroke-width:0.72500002;stroke-linecap:square;stroke-linejoin:miter;stroke-miterlimit:4.0000000;stroke-dashoffset:0.0000000;stroke-opacity:1.0000000"
         inkscape:export-xdpi="360.00000"
         inkscape:export-ydpi="360.00000"
         transform="translate(16.00000,-140.3622)" />
    </pattern>
    <linearGradient
       id="linearGradient2615">
      <stop
         style="stop-color:#eaeaea;stop-opacity:1.0000000;"
         offset="0.0000000"
         id="stop2617" />
      <stop
         style="stop-color:#dfdfdf;stop-opacity:0;"
         offset="1"
         id="stop2619" />
    </linearGradient>
    <linearGradient
       id="linearGradient2685">
      <stop
         style="stop-color:#c8c8c8;stop-opacity:1.0000000;"
         offset="0.0000000"
         id="stop2687" />
      <stop
         style="stop-color:#919191;stop-opacity:1.0000000;"
         offset="1.0000000"
         id="stop2689" />
    </linearGradient>
  </defs>
  <sodipodi:namedview
     inkscape:window-y="0"
     inkscape:window-x="969"
     inkscape:window-height="541"
     inkscape:window-width="792"
     inkscape:grid-points="false"
     inkscape:document-units="px"
     inkscape:grid-bbox="true"
     showgrid="true"
     inkscape:current-layer="g7019"
     inkscape:cy="15.999999"
     inkscape:cx="16"
     inkscape:zoom="11.197802"
     inkscape:pageshadow="2"
     inkscape:pageopacity="0.0"
     borderopacity="1.0"
     bordercolor="#666666"
     pagecolor="#ffffff"
     id="base" />
  <metadata
     id="metadata4">
    <rdf:RDF>
      <cc:Work
         rdf:about="">
        <dc:format>image/svg+xml</dc:format>
        <dc:type
           rdf:resource="http://purl.org/dc/dcmitype/StillImage" />
      </cc:Work>
    </rdf:RDF>
  </metadata>
  <g
     inkscape:groupmode="layer"
     inkscape:label="Layer 1"
     id="layer1">
    <g
       id="g7019"
       inkscape:label="Layer 1"
       inkscape:groupmode="layer" />
    <g
       transform="translate(-400.0000,-700.3622)"
       id="g6721">
      <path
         sodipodi:nodetypes="cccccccccccccc"
         id="path6737"
         d="M 400.22097,719.15012 L 400.50000,705.93806 L 403.89788,703.65012 C 406.67940,701.77720 408.64134,701.36218 414.71362,701.36218 C 422.62721,701.36218 424.89979,702.11405 429.25000,706.17146 C 431.95005,708.68978 432.00000,708.95092 432.00000,720.54927 L 432.00000,732.36218 L 415.97098,732.36218 L 400.00000,732.36218 L 400.22097,719.15012 z M 425.18750,714.67907 C 424.46562,714.39019 423.60312,714.42572 423.27083,714.75801 C 422.93854,715.09030 423.52917,715.32665 424.58333,715.28323 C 425.74828,715.23525 425.98523,714.99829 425.18750,714.67907 z "
         style="fill:#a66737" />
      <path
         sodipodi:nodetypes="ccccccccccccccccccccccccccc"
         id="path6735"
         d="M 400.22097,719.15012 L 400.50000,705.93806 L 403.89788,703.65012 C 406.67940,701.77720 408.64134,701.36218 414.71362,701.36218 C 422.62721,701.36218 424.89979,702.11405 429.25000,706.17146 C 431.95005,708.68978 432.00000,708.95092 432.00000,720.54927 L 432.00000,732.36218 L 415.97098,732.36218 L 400.00000,732.36218 L 400.22097,719.15012 z M 419.39087,728.37131 C 420.14217,727.62001 419.58043,727.59233 417.47717,728.27702 C 415.83973,728.81008 413.60000,729.48318 412.50000,729.77281 C 411.40000,730.06244 412.26116,730.10487 414.41369,729.86710 C 416.56622,729.62933 418.80595,728.95623 419.39087,728.37131 z M 413.35687,721.59378 C 413.61806,721.17115 412.06962,720.99342 409.91588,721.19881 C 407.76215,721.40420 406.00000,721.74998 406.00000,721.96722 C 406.00000,722.71206 412.88162,722.36275 413.35687,721.59378 z M 426.35687,721.59378 C 426.61806,721.17115 425.06962,720.99342 422.91588,721.19881 C 420.76215,721.40420 419.00000,721.74998 419.00000,721.96722 C 419.00000,722.71206 425.88162,722.36275 426.35687,721.59378 z M 407.62877,703.65762 C 406.80451,702.83336 404.00000,704.15367 404.00000,705.36598 C 404.00000,706.10554 404.63946,706.09032 406.08565,705.31634 C 407.23275,704.70243 407.92716,703.95601 407.62877,703.65762 z "
         style="fill:#82522e" />
      <path
         sodipodi:nodetypes="cccccccccccccccccccccccccccccccccccccccccccccccccccccccccccccccccccccccccccccccccccccccccccccccccccccccccc"
         id="path6733"
         d="M 400.22097,719.15012 L 400.50000,705.93806 L 403.89788,703.65012 C 406.67940,701.77720 408.64134,701.36218 414.71362,701.36218 C 422.62721,701.36218 424.89979,702.11405 429.25000,706.17146 C 431.95005,708.68978 432.00000,708.95092 432.00000,720.54927 L 432.00000,732.36218 L 415.97098,732.36218 L 400.00000,732.36218 L 400.22097,719.15012 z M 402.90032,729.11218 C 402.95514,730.34968 403.34727,731.36218 403.77170,731.36218 C 404.99416,731.36218 404.52482,717.07881 403.22953,714.86218 C 401.80000,712.41584 401.89047,711.96319 401.64231,722.80333 C 401.52973,727.72096 401.74430,730.64596 402.11913,729.30333 C 402.77917,726.93910 402.80378,726.93307 402.90032,729.11218 z M 408.01531,730.11218 C 408.02554,729.27742 408.35548,729.36046 409.00855,730.36218 C 409.67857,731.38991 409.78838,730.36665 409.35731,727.11218 C 408.93618,723.93273 409.09336,722.36218 409.83269,722.36218 C 410.44019,722.36218 410.67821,723.03718 410.36163,723.86218 C 409.61784,725.80046 410.44753,725.77179 412.42857,723.79075 C 414.89771,721.32161 414.33108,720.82144 409.50000,721.20567 C 404.64511,721.59179 404.38890,722.05670 405.62500,728.23718 C 406.23070,731.26570 407.98433,732.64127 408.01531,730.11218 z M 406.19495,724.86218 C 406.17457,723.21218 406.38201,722.41612 406.65594,723.09315 C 406.92986,723.77018 406.94653,725.12018 406.69299,726.09315 C 406.43945,727.06612 406.21533,726.51218 406.19495,724.86218 z M 416.01531,729.89407 C 416.02373,729.32653 416.46684,729.53718 417.00000,730.36218 C 417.86167,731.69551 417.97278,731.69551 418.00000,730.36218 C 418.02722,729.02885 418.13833,729.02885 419.00000,730.36218 C 419.73761,731.50356 419.97303,731.09927 419.98469,728.67120 C 419.99311,726.91616 419.50152,725.17214 418.89227,724.79560 C 418.20567,724.37126 418.02008,722.63808 418.40409,720.23658 C 419.18149,715.37498 417.90071,715.25016 415.65080,719.96826 C 413.91975,723.59832 414.69481,726.61541 417.22091,726.08021 C 417.78691,725.96029 418.45267,726.41394 418.70038,727.08831 C 418.98858,727.87292 417.68323,728.54910 415.07538,728.96612 C 410.68441,729.66826 409.37108,731.47459 413.50000,731.13287 C 414.87500,731.01907 416.00689,730.46161 416.01531,729.89407 z M 416.07895,723.94551 C 416.03553,722.89135 416.27188,722.30072 416.60417,722.63301 C 416.93646,722.96530 416.97199,723.82781 416.68311,724.54968 C 416.36389,725.34741 416.12693,725.11046 416.07895,723.94551 z M 422.69731,729.11218 C 422.40260,727.87468 421.87545,725.73718 421.52588,724.36218 C 421.11078,722.72942 421.42967,723.02942 422.44515,725.22699 C 423.30032,727.07763 424.02852,729.32763 424.06339,730.22699 C 424.13418,732.05327 425.70790,728.74793 427.09376,723.86218 L 427.94472,720.86218 L 427.56585,723.86218 C 427.35747,725.51218 426.86743,727.87468 426.47686,729.11218 C 426.03060,730.52615 426.18164,731.36218 426.88337,731.36218 C 427.49752,731.36218 428.03163,730.57468 428.07029,729.61218 C 428.13093,728.10228 428.24557,728.13064 428.90589,729.81892 C 429.52131,731.39239 429.79920,731.00064 430.32460,727.81892 C 431.16320,722.74061 431.19234,713.83650 430.36768,714.66117 C 430.01990,715.00895 429.73125,717.89645 429.72625,721.07784 C 429.71834,726.10063 429.63702,726.34584 429.10857,722.94035 C 428.77386,720.78334 427.92344,718.82865 427.21875,718.59660 C 426.51406,718.36454 426.06406,718.77937 426.21875,719.51843 C 426.40638,720.41487 425.25170,720.96549 422.75000,721.17255 C 419.12630,721.47246 417.67214,723.42348 420.00000,724.86218 C 420.55000,725.20210 421.00000,726.80366 421.00000,728.42120 C 421.00000,730.03874 421.50246,731.36218 422.11658,731.36218 C 422.76661,731.36218 423.00926,730.42205 422.69731,729.11218 z M 423.45888,724.29565 C 423.09635,723.70906 423.06979,722.95906 423.39986,722.62898 C 423.72994,722.29891 424.00689,722.66635 424.01531,723.44551 C 424.02792,724.61198 424.20183,724.59726 425.00000,723.36218 C 425.82843,722.08028 425.97160,722.11663 425.98469,723.61218 C 426.00164,725.54928 424.48697,725.95914 423.45888,724.29565 z M 408.28975,718.36218 C 408.68014,716.86933 408.32043,716.36218 406.87120,716.36218 C 405.23951,716.36218 405.10047,716.68138 406.00000,718.36218 C 407.33688,720.86016 407.63651,720.86016 408.28975,718.36218 z M 411.01531,718.61218 C 411.02730,717.24264 411.21839,717.15854 411.89426,718.22533 C 412.62340,719.37620 412.84232,719.37620 413.30000,718.22533 C 413.64337,717.36191 413.87666,717.59538 413.93637,718.86218 C 414.01481,720.52658 414.19329,720.61048 415.00000,719.36218 C 416.59485,716.89432 416.16430,716.37313 412.75889,716.64929 C 410.62072,716.82269 409.40472,717.49916 409.18556,718.63716 C 409.00285,719.58592 409.33635,720.36218 409.92668,720.36218 C 410.51700,720.36218 411.00689,719.57468 411.01531,718.61218 z M 423.00000,717.86218 C 423.00000,716.02885 423.53333,715.36218 425.00000,715.36218 C 426.10000,715.36218 427.00000,714.92630 427.00000,714.39356 C 427.00000,713.86083 426.21250,713.70568 425.25000,714.04880 C 422.56043,715.00759 420.96370,716.49443 421.57003,717.47549 C 421.87143,717.96317 421.64148,718.36218 421.05902,718.36218 C 420.47656,718.36218 420.00000,718.81218 420.00000,719.36218 C 420.00000,719.91218 420.67500,720.36218 421.50000,720.36218 C 422.43333,720.36218 423.00000,719.41774 423.00000,717.86218 z M 428.65594,713.09315 C 428.38201,712.41612 428.17457,713.21218 428.19495,714.86218 C 428.21533,716.51218 428.43945,717.06612 428.69299,716.09315 C 428.94653,715.12018 428.92986,713.77018 428.65594,713.09315 z M 414.75000,704.36592 C 418.91418,704.36377 422.00000,703.93655 422.00000,703.36218 C 422.00000,702.01502 408.72852,702.07312 405.74316,703.43334 C 404.45014,704.02248 402.85447,705.36556 402.19724,706.41795 C 401.04296,708.26625 401.11289,708.26396 404.25114,706.35053 C 406.69866,704.85824 409.28823,704.36873 414.75000,704.36592 z "
         style="fill:#6c4825" />
      <path
         sodipodi:nodetypes="ccccccccccccccccccccccccccccccccccccccccccccccccccccccccccc"
         id="path6731"
         d="M 400.17853,719.15023 L 400.50000,705.93828 L 403.89788,703.65023 C 406.67947,701.77718 408.64118,701.36218 414.71362,701.36218 C 422.62721,701.36218 424.89979,702.11405 429.25000,706.17146 C 431.95005,708.68978 432.00000,708.95092 432.00000,720.54927 L 432.00000,732.36218 L 415.92853,732.36218 L 400.00000,732.36218 L 400.17853,719.15023 z M 431.00000,722.92120 C 431.00000,714.60478 430.49066,713.22042 427.25000,712.72878 C 426.56250,712.62448 426.00000,712.89030 426.00000,713.31949 C 426.00000,713.74868 424.66831,713.94478 423.04070,713.75527 C 420.91890,713.50823 420.22356,713.78119 420.58373,714.71978 C 420.86001,715.43977 420.41150,716.02885 419.58702,716.02885 C 418.76255,716.02885 418.31974,715.65385 418.60301,715.19551 C 418.88627,714.73718 418.64148,714.36218 418.05902,714.36218 C 417.47656,714.36218 417.00000,714.86728 417.00000,715.48462 C 417.00000,716.23601 416.47893,716.17462 415.42379,715.29893 C 414.13240,714.22717 413.70251,714.22549 413.04483,715.28963 C 412.39384,716.34297 412.13910,716.33081 411.69718,715.22533 C 411.23712,714.07446 411.00353,714.07446 410.19718,715.22533 C 409.39084,716.37620 409.17071,716.37620 408.78367,715.22533 C 408.40528,714.10018 408.00227,714.12407 406.47539,715.36218 C 404.78769,716.73070 404.68677,716.69902 405.32411,715.00084 C 405.85052,713.59822 405.65021,713.28243 404.51134,713.71945 C 403.67511,714.04035 402.99316,713.75506 402.98469,713.08079 C 402.97500,712.31008 402.61308,712.41350 402.00000,713.36218 C 401.46684,714.18718 401.02373,718.57468 401.01531,723.11218 L 401.00000,731.36218 L 416.00000,731.36218 L 431.00000,731.36218 L 431.00000,722.92120 z M 409.62364,727.82380 C 409.23869,726.82061 409.81028,725.99658 411.26666,725.45520 C 413.76261,724.52736 416.00000,725.05723 416.00000,726.57616 C 416.00000,727.12616 416.67500,727.31714 417.50000,727.00055 C 418.32500,726.68397 419.00000,726.80834 419.00000,727.27693 C 419.00000,729.50273 410.45907,730.00087 409.62364,727.82380 z M 405.00000,720.61218 C 405.00000,720.19968 407.01328,720.61218 409.43576,720.61218 C 411.85824,720.61218 413.60043,720.19968 413.34549,720.61218 C 412.74059,721.59094 405.00000,721.59094 405.00000,720.61218 z M 418.00000,720.61218 C 418.00000,720.19968 420.08872,720.72868 422.51120,720.72868 C 424.93368,720.72868 426.60043,720.19968 426.34549,720.61218 C 425.74059,721.59094 418.00000,721.59094 418.00000,720.61218 z M 424.60028,717.52443 C 424.28250,717.01025 424.91743,716.35553 426.01125,716.06949 C 428.36761,715.45329 428.48972,715.71086 426.58903,717.28829 C 425.75643,717.97929 424.94122,718.07608 424.60028,717.52443 z M 415.30902,704.36592 C 420.25951,704.36355 422.89180,703.99613 422.50000,703.36218 C 422.16008,702.81218 418.64602,702.36386 414.69098,702.36592 C 409.28721,702.36873 406.69226,702.86214 404.25000,704.35122 C 402.46250,705.44108 401.00000,706.78278 401.00000,707.33278 C 401.00000,707.88278 402.46250,707.44108 404.25000,706.35122 C 406.75544,704.82362 409.28900,704.36880 415.30902,704.36592 z "
         style="fill:#5b3c21" />
      <path
         sodipodi:nodetypes="ccccccccccccccccccccccccccccc"
         id="path6729"
         d="M 400.51052,731.37921 C 399.71914,730.09872 400.10460,707.41401 400.91420,707.62252 C 401.23639,707.70549 403.00390,706.97290 404.84201,705.99452 C 407.43481,704.61444 409.90076,704.29759 415.84201,704.58111 C 420.05390,704.78211 424.28750,705.31322 425.25000,705.76136 C 426.25794,706.23066 427.00000,706.17482 427.00000,705.62968 C 427.00000,702.01849 409.67296,701.04478 404.25000,704.35122 C 402.46250,705.44108 401.00000,706.10778 401.00000,705.83278 C 401.00000,705.55778 402.46250,704.44108 404.25000,703.35122 C 406.70415,701.85490 409.28752,701.36874 414.79966,701.36592 C 422.59343,701.36193 425.98603,702.55103 429.78415,706.61796 C 431.92709,708.91258 432.05073,709.76845 431.78415,720.46298 L 431.50000,731.86218 L 416.32486,732.13782 C 406.65544,732.31346 400.91782,732.03823 400.51052,731.37921 z M 431.00000,721.73213 L 431.00000,712.10208 L 426.25000,712.76847 C 416.03296,714.20185 406.97738,714.59069 405.76014,713.64827 C 405.06706,713.11168 403.71250,712.39192 402.75000,712.04880 C 401.15865,711.48150 401.00000,712.32865 401.00000,721.39356 L 401.00000,731.36218 L 416.00000,731.36218 L 431.00000,731.36218 L 431.00000,721.73213 z M 405.65451,720.61218 C 405.39957,720.19968 407.00504,720.54968 409.37500,720.54968 C 411.74496,720.54968 413.60043,720.19968 413.34549,720.61218 C 412.74218,721.58836 406.25782,721.58836 405.65451,720.61218 z "
         style="fill:#4f331b" />
      <path
         sodipodi:nodetypes="cccccccccccccccccccccccccccc"
         id="path6727"
         d="M 400.51360,731.38175 C 399.72276,730.10214 400.10718,707.43436 400.91728,707.57821 C 401.64985,707.70830 404.94545,706.51642 407.23951,705.29172 C 409.87691,703.88374 420.32801,704.18424 424.13096,705.77740 C 425.98562,706.55438 428.53266,708.28906 429.79104,709.63226 C 431.90481,711.88850 432.05708,712.82781 431.79104,721.96958 L 431.50308,731.86472 L 416.32794,732.14036 C 406.65852,732.31600 400.92090,732.04077 400.51360,731.38175 z M 430.98777,722.11472 C 430.97935,717.02722 430.64184,712.35614 430.23777,711.73454 C 429.73723,710.96455 425.04121,710.67659 415.50308,710.83101 L 401.50308,711.05766 L 401.21810,721.21119 L 400.93311,731.36472 L 415.96810,731.36472 L 431.00308,731.36472 L 430.98777,722.11472 z M 428.95777,706.81012 C 426.49784,703.84609 423.46124,702.86188 415.00308,702.28718 L 414.30274,701.53718 C 422.51590,701.35558 425.93868,702.42611 429.41043,706.26234 C 430.45687,707.41865 431.07341,708.36472 430.78051,708.36472 C 430.48761,708.36472 429.66738,707.66515 428.95777,706.81012 z M 402.22927,704.78600 C 403.17868,703.79477 404.17071,703.19902 404.43379,703.46210 C 404.69687,703.72518 403.92009,704.53618 402.70760,705.26433 C 400.60129,706.52925 400.57998,706.50794 402.22927,704.78600 z "
         style="fill:#392a15" />
      <path
         sodipodi:nodetypes="ccccc"
         id="path6725"
         d="M 405.41011,707.21696 C 404.66363,706.00870 408.15093,705.36215 415.33179,705.37749 C 419.27430,705.38591 423.17500,705.82902 424.00000,706.36218 C 425.78787,707.51759 425.86217,707.50691 414.65437,707.70547 C 409.78927,707.79166 405.62935,707.57183 405.41011,707.21696 z "
         style="fill:#27190d" />
      <path
         sodipodi:nodetypes="cczzczcscszcccsczscc"
         id="path6745"
         d="M 410.12056,728.29968 C 409.10065,727.21019 410.33828,725.54968 412.00721,725.54968 C 412.73688,725.54968 414.54324,725.64485 415.42424,726.88286 C 416.34648,728.17885 418.92709,726.89713 419.31715,728.01339 C 419.73485,729.20874 417.03971,728.49245 415.90099,728.73198 C 411.71492,729.56920 411.14047,729.38917 410.12056,728.29968 z M 405.65451,720.61218 C 405.52704,720.40593 405.39592,719.53093 406.09292,719.39499 C 406.78991,719.25905 406.87752,720.29968 408.06250,720.29968 C 408.65499,720.29968 410.44189,720.38327 411.29279,720.17136 C 412.14369,719.95944 412.36288,719.23053 412.88563,719.33249 C 413.40838,719.43445 413.82651,720.40593 413.69904,720.61218 C 413.09573,721.58836 406.25782,721.58836 405.65451,720.61218 z M 418.34515,720.61218 C 418.21768,720.40593 418.27406,719.40593 418.97106,719.26999 C 419.66805,719.13405 420.05430,720.26307 421.23928,720.26307 C 422.42426,720.26307 423.97509,720.43604 424.66244,720.20749 C 425.37787,719.96960 425.72517,719.12195 426.10538,719.30925 C 426.48559,719.49655 426.40922,720.50905 426.34549,720.61218 C 425.74218,721.58836 418.94846,721.58836 418.34515,720.61218 z "
         style="fill:#080502" />
      <path
         sodipodi:nodetypes="ccccccczcc"
         id="path7054"
         d="M 423.28654,716.16720 C 423.21919,716.29202 423.28475,716.52788 423.33610,716.72266 C 423.34415,716.75320 423.70228,716.97197 423.77268,717.00535 C 423.93479,717.08222 424.24604,717.08917 424.43559,717.08917 C 424.63390,717.08917 424.87407,717.13107 425.09851,717.13107 C 425.31948,717.13107 425.54045,717.13107 425.76142,717.13107 C 425.97253,717.13107 426.23590,717.12336 426.38014,717.08917 C 426.62158,717.03193 426.84651,716.60502 426.81135,716.30643 C 426.77619,716.00783 426.11455,715.87735 425.95581,715.80209 C 425.76145,715.70994 425.32251,715.45549 425.14270,715.41286"
         style="fill:#575757;fill-opacity:1.0000000;fill-rule:evenodd;stroke:none;stroke-width:1.0000000px;stroke-linecap:butt;stroke-linejoin:miter;stroke-opacity:1.0000000" />
      <path
         sodipodi:nodetypes="cczzz"
         id="path7037"
         d="M 424.42616,715.18254 C 423.49782,715.36681 423.05667,715.81819 423.19618,716.19457 C 423.32268,716.50860 423.68340,716.65621 424.64765,716.59368 C 425.65592,716.52829 425.97071,716.23820 425.72786,715.84553 C 425.49639,715.47126 425.34509,715.00015 424.42616,715.18254 z "
         style="fill:#b7b7b7;fill-opacity:1.0000000;fill-rule:evenodd;stroke:none;stroke-width:1.0000000px;stroke-linecap:butt;stroke-linejoin:miter;stroke-opacity:1.0000000" />
    </g>
  </g>
</svg>
