<?xml version="1.0" encoding="UTF-8" standalone="no"?>
<!-- Created with Inkscape (http://www.inkscape.org/) -->
<svg
   xmlns:dc="http://purl.org/dc/elements/1.1/"
   xmlns:cc="http://web.resource.org/cc/"
   xmlns:rdf="http://www.w3.org/1999/02/22-rdf-syntax-ns#"
   xmlns:svg="http://www.w3.org/2000/svg"
   xmlns="http://www.w3.org/2000/svg"
   xmlns:sodipodi="http://sodipodi.sourceforge.net/DTD/sodipodi-0.dtd"
   xmlns:inkscape="http://www.inkscape.org/namespaces/inkscape"
   width="32px"
   height="32px"
   id="svg1872"
   sodipodi:version="0.32"
   inkscape:version="0.45.1"
   sodipodi:docbase="/home/adam/workspace/escape-java-apps/src/org/spacebar/escape/j2se/resources/tiles"
   sodipodi:docname="57.svg"
   inkscape:output_extension="org.inkscape.output.svg.inkscape">
  <defs
     id="defs1874" />
  <sodipodi:namedview
     id="base"
     pagecolor="#ffffff"
     bordercolor="#666666"
     borderopacity="1.0"
     inkscape:pageopacity="0.0"
     inkscape:pageshadow="2"
     inkscape:zoom="22.395604"
     inkscape:cx="12.885935"
     inkscape:cy="18.436106"
     inkscape:current-layer="layer1"
     showgrid="true"
     inkscape:grid-bbox="true"
     inkscape:document-units="px"
     inkscape:window-width="1116"
     inkscape:window-height="924"
     inkscape:window-x="7"
     inkscape:window-y="25"
     inkscape:grid-points="true"
     showguides="true"
     inkscape:guide-bbox="true" />
  <metadata
     id="metadata1877">
    <rdf:RDF>
      <cc:Work
         rdf:about="">
        <dc:format>image/svg+xml</dc:format>
        <dc:type
           rdf:resource="http://purl.org/dc/dcmitype/StillImage" />
      </cc:Work>
    </rdf:RDF>
  </metadata>
  <g
     id="layer1"
     inkscape:label="Layer 1"
     inkscape:groupmode="layer">
    <path
       id="path3255"
       d="M 7,16 L 7,7 L 16,7 L 25,7 L 25,16 L 25,25 L 16,25 L 7,25 L 7,16 z "
       style="fill:#666" />
    <path
       id="path3253"
       d="M 7,16 L 7,7 L 16,7 L 25,7 L 25,16 L 25,25 L 16,25 L 7,25 L 7,16 z M 23.801303,16.25 L 23.602606,8.5 L 23.25836,15.707057 L 22.914114,22.914114 L 15.707057,23.25836 L 8.5,23.602606 L 16.25,23.801303 L 24,24 L 23.801303,16.25 z M 20,20 C 22.546255,17.453745 22.546255,14.546255 20,12 C 18.9,10.9 17.1,10 16,10 C 13.424436,10 10,13.424436 10,16 C 10,18.575564 13.424436,22 16,22 C 17.1,22 18.9,21.1 20,20 z M 13.38854,17.570137 C 12.392872,14.975466 13.788423,12.830952 16.245529,13.179863 C 17.898262,13.414553 18.5,14.167272 18.5,16 C 18.5,17.832728 17.898262,18.585447 16.245529,18.820137 C 14.89325,19.012162 13.749943,18.511938 13.38854,17.570137 z M 16.465672,14.149864 C 15.902213,13.556716 14,15.060003 14,16.098444 C 14,16.637669 14.629613,16.498611 15.399141,15.789427 C 16.168668,15.080242 16.648607,14.342439 16.465672,14.149864 z "
       style="fill:#4d4d4d" />
    <path
       style="fill:#2b2b2b"
       d="M 7 7 L 7 25 L 25 25 L 25 7 L 7 7 z M 8 8 L 24 8 L 24 24 L 8 24 L 8 8 z M 16 9 C 10.023801 9 6.7188844 16.491217 10.75 20.90625 C 13.112256 23.493482 18.452683 23.547317 21 21 C 25.328183 16.671817 22.131592 9 16 9 z M 16.4375 10.03125 C 17.87271 10.07681 19.270664 10.658004 20.34375 11.84375 C 22.529446 14.258916 22.433264 18.283081 20.15625 20.34375 C 16.191837 23.931495 10 21.161507 10 15.8125 C 10 12.291606 13.280038 9.9310171 16.4375 10.03125 z "
       id="path3251" />
    <path
       sodipodi:type="arc"
       style="fill:none;stroke:#2a2a2a;stroke-width:0.8;stroke-miterlimit:4;stroke-dasharray:none;stroke-opacity:1"
       id="path4154"
       sodipodi:cx="16"
       sodipodi:cy="16"
       sodipodi:rx="2.1262939"
       sodipodi:ry="2.1262939"
       d="M 18.126294 16 A 2.1262939 2.1262939 0 1 1  13.873706,16 A 2.1262939 2.1262939 0 1 1  18.126294 16 z" />
  </g>
</svg>
